<svg width="32" height="32" viewBox="0 0 32 32" fill="none" xmlns="http://www.w3.org/2000/svg">
<g clip-path="url(#clip0_2022_69671)">
<g clip-path="url(#clip1_2022_69671)">
<rect width="32" height="32" rx="16" fill="white"/>
<g clip-path="url(#clip2_2022_69671)">
<mask id="path-2-outside-1_2022_69671" maskUnits="userSpaceOnUse" x="-9.02856" y="-7.5668" width="52" height="34" fill="black">
<rect fill="white" x="-9.02856" y="-7.5668" width="52" height="34"/>
<path fill-rule="evenodd" clip-rule="evenodd" d="M16.7007 -0.589676C20.8124 -0.586984 24.6971 0.311705 28.1307 1.90331C29.4769 0.88098 29.7872 -0.731139 29.7861 -2.00248C29.7861 -2.52738 30.4688 -2.73197 30.7564 -2.29357C31.8798 -0.568056 33.6299 2.53811 32.7309 4.6459C37.0055 7.84325 40.1152 12.2944 41.3918 17.3833L41.4397 18.5471H37.4978C37.2238 19.3842 36.5209 21.1351 35.1574 22.2688C35.3217 22.9806 35.518 24.0473 35.2836 24.2813C35.0371 24.5277 33.9132 23.8013 33.2258 23.2274C33.0931 23.2558 32.9568 23.2784 32.8169 23.2946C32.689 23.3094 32.5627 23.3222 32.438 23.3328C32.2019 24.0456 31.8022 25.0308 31.2696 24.9763C30.7457 24.9227 30.3665 23.9994 30.1661 23.2389C29.6984 23.1418 29.2707 22.9892 28.8874 22.774C28 23.2075 26.8801 23.7133 26.6723 23.5185C26.4251 23.2866 26.8502 21.7733 27.2333 20.872C27.1589 20.6986 27.0915 20.5149 27.0313 20.3208C26.4789 20.1785 26.0336 20.0103 26.0001 19.8336C25.9606 19.6252 26.3071 19.1191 26.7148 18.6101C26.713 18.5892 26.7113 18.5681 26.7096 18.5471H5.73815C5.74169 18.5525 5.74575 18.5575 5.74986 18.5624L5.74987 18.5625L5.7499 18.5625C5.75325 18.5666 5.75663 18.5707 5.75978 18.5751C6.18005 19.0953 6.54246 19.6202 6.50271 19.833C6.46939 20.006 6.03743 20.172 5.49558 20.3135H5.49382C5.29275 20.3649 5.07472 20.4152 4.85728 20.4596L4.85783 20.4601C5.07509 20.4151 5.29291 20.3655 5.49381 20.3141C5.41727 20.5998 5.32788 20.8621 5.22155 21.1064C5.60497 22.0078 6.03039 23.5231 5.78316 23.754C5.57507 23.9487 4.45512 23.4413 3.56723 23.0093H3.56548C3.18378 23.2238 2.7565 23.3764 2.29121 23.4728C2.09014 24.2345 1.70903 25.1569 1.18588 25.2118C0.65396 25.2662 0.253561 24.2807 0.0174131 23.5675C-0.10709 23.5564 -0.233347 23.5447 -0.361358 23.5295C-0.501059 23.5132 -0.637254 23.4916 -0.768772 23.4612C-1.455 24.0346 -2.58197 24.7629 -2.82805 24.5168C-3.06245 24.2824 -2.86604 23.2139 -2.70355 22.5025C-4.2122 21.2476 -4.91247 19.2368 -5.11646 18.5471H-8.02856V17.3833C-7.07111 13.571 -5.08665 10.1153 -2.35283 7.27802C-3.7703 5.19243 -1.83728 1.73848 -0.62907 -0.116219C-0.343237 -0.556366 0.340072 -0.350613 0.340072 0.174874C0.338318 1.35971 0.6072 2.84264 1.73592 3.86439C5.69127 1.22069 10.5192 -0.400972 15.748 -0.574229C16.4369 -1.7868 17.2106 -3.7216 16.0527 -4.93507C14.6435 -6.41232 11.7614 -5.49284 10.5207 -4.99656C10.5215 -4.97692 10.5219 -4.95717 10.5219 -4.93733C10.5219 -4.14028 9.87577 -3.49414 9.07872 -3.49414C8.28166 -3.49414 7.63552 -4.14028 7.63552 -4.93733C7.63552 -5.73438 8.28166 -6.38052 9.07872 -6.38052C9.559 -6.38052 9.98448 -6.14591 10.2468 -5.78504C11.6613 -6.34957 14.9003 -7.34659 16.6542 -5.50848C17.6151 -4.50135 17.7367 -3.02952 17.0055 -1.25198C16.9102 -1.02032 16.8066 -0.798239 16.7007 -0.589676Z"/>
</mask>
<path fill-rule="evenodd" clip-rule="evenodd" d="M16.7007 -0.589676C20.8124 -0.586984 24.6971 0.311705 28.1307 1.90331C29.4769 0.88098 29.7872 -0.731139 29.7861 -2.00248C29.7861 -2.52738 30.4688 -2.73197 30.7564 -2.29357C31.8798 -0.568056 33.6299 2.53811 32.7309 4.6459C37.0055 7.84325 40.1152 12.2944 41.3918 17.3833L41.4397 18.5471H37.4978C37.2238 19.3842 36.5209 21.1351 35.1574 22.2688C35.3217 22.9806 35.518 24.0473 35.2836 24.2813C35.0371 24.5277 33.9132 23.8013 33.2258 23.2274C33.0931 23.2558 32.9568 23.2784 32.8169 23.2946C32.689 23.3094 32.5627 23.3222 32.438 23.3328C32.2019 24.0456 31.8022 25.0308 31.2696 24.9763C30.7457 24.9227 30.3665 23.9994 30.1661 23.2389C29.6984 23.1418 29.2707 22.9892 28.8874 22.774C28 23.2075 26.8801 23.7133 26.6723 23.5185C26.4251 23.2866 26.8502 21.7733 27.2333 20.872C27.1589 20.6986 27.0915 20.5149 27.0313 20.3208C26.4789 20.1785 26.0336 20.0103 26.0001 19.8336C25.9606 19.6252 26.3071 19.1191 26.7148 18.6101C26.713 18.5892 26.7113 18.5681 26.7096 18.5471H5.73815C5.74169 18.5525 5.74575 18.5575 5.74986 18.5624L5.74987 18.5625L5.7499 18.5625C5.75325 18.5666 5.75663 18.5707 5.75978 18.5751C6.18005 19.0953 6.54246 19.6202 6.50271 19.833C6.46939 20.006 6.03743 20.172 5.49558 20.3135H5.49382C5.29275 20.3649 5.07472 20.4152 4.85728 20.4596L4.85783 20.4601C5.07509 20.4151 5.29291 20.3655 5.49381 20.3141C5.41727 20.5998 5.32788 20.8621 5.22155 21.1064C5.60497 22.0078 6.03039 23.5231 5.78316 23.754C5.57507 23.9487 4.45512 23.4413 3.56723 23.0093H3.56548C3.18378 23.2238 2.7565 23.3764 2.29121 23.4728C2.09014 24.2345 1.70903 25.1569 1.18588 25.2118C0.65396 25.2662 0.253561 24.2807 0.0174131 23.5675C-0.10709 23.5564 -0.233347 23.5447 -0.361358 23.5295C-0.501059 23.5132 -0.637254 23.4916 -0.768772 23.4612C-1.455 24.0346 -2.58197 24.7629 -2.82805 24.5168C-3.06245 24.2824 -2.86604 23.2139 -2.70355 22.5025C-4.2122 21.2476 -4.91247 19.2368 -5.11646 18.5471H-8.02856V17.3833C-7.07111 13.571 -5.08665 10.1153 -2.35283 7.27802C-3.7703 5.19243 -1.83728 1.73848 -0.62907 -0.116219C-0.343237 -0.556366 0.340072 -0.350613 0.340072 0.174874C0.338318 1.35971 0.6072 2.84264 1.73592 3.86439C5.69127 1.22069 10.5192 -0.400972 15.748 -0.574229C16.4369 -1.7868 17.2106 -3.7216 16.0527 -4.93507C14.6435 -6.41232 11.7614 -5.49284 10.5207 -4.99656C10.5215 -4.97692 10.5219 -4.95717 10.5219 -4.93733C10.5219 -4.14028 9.87577 -3.49414 9.07872 -3.49414C8.28166 -3.49414 7.63552 -4.14028 7.63552 -4.93733C7.63552 -5.73438 8.28166 -6.38052 9.07872 -6.38052C9.559 -6.38052 9.98448 -6.14591 10.2468 -5.78504C11.6613 -6.34957 14.9003 -7.34659 16.6542 -5.50848C17.6151 -4.50135 17.7367 -3.02952 17.0055 -1.25198C16.9102 -1.02032 16.8066 -0.798239 16.7007 -0.589676Z" fill="black"/>
<path d="M28.1307 1.90331L27.7296 2.76854L28.2504 3.00993L28.7075 2.66279L28.1307 1.90331ZM16.7007 -0.589676L15.8503 -1.02132L15.1477 0.362976L16.7001 0.363992L16.7007 -0.589676ZM29.7861 -2.00248L28.8324 -2.00248L28.8324 -2.0016L29.7861 -2.00248ZM30.7564 -2.29357L31.5556 -2.81392L31.5538 -2.81667L30.7564 -2.29357ZM32.7309 4.6459L31.8537 4.27176L31.5598 4.96086L32.1597 5.40958L32.7309 4.6459ZM41.3918 17.3833L42.3447 17.344L42.3406 17.2462L42.3168 17.1512L41.3918 17.3833ZM41.4397 18.5471V19.5007H42.4335L42.3926 18.5078L41.4397 18.5471ZM37.4978 18.5471V17.5934H36.8066L36.5915 18.2503L37.4978 18.5471ZM35.1574 22.2688L34.5477 21.5355L34.0961 21.9111L34.2282 22.4834L35.1574 22.2688ZM35.2836 24.2813L34.6098 23.6064L34.6092 23.6069L35.2836 24.2813ZM33.2258 23.2274L33.837 22.4954L33.4805 22.1977L33.0264 22.2949L33.2258 23.2274ZM32.8169 23.2946L32.9266 24.2419L32.9266 24.2419L32.8169 23.2946ZM32.438 23.3328L32.3571 22.3826L31.7305 22.4359L31.5327 23.0329L32.438 23.3328ZM31.2696 24.9763L31.1726 25.925L31.1726 25.925L31.2696 24.9763ZM30.1661 23.2389L31.0883 22.9959L30.9379 22.4251L30.3599 22.3051L30.1661 23.2389ZM28.8874 22.774L29.3542 21.9424L28.9181 21.6977L28.4688 21.9171L28.8874 22.774ZM26.6723 23.5185L27.3248 22.8229L27.3248 22.8229L26.6723 23.5185ZM27.2333 20.872L28.111 21.2451L28.2704 20.8702L28.1097 20.4958L27.2333 20.872ZM27.0313 20.3208L27.9423 20.0385L27.7847 19.5301L27.2693 19.3973L27.0313 20.3208ZM26.0001 19.8336L25.0631 20.0111L25.0631 20.0111L26.0001 19.8336ZM26.7148 18.6101L27.4592 19.2063L27.6976 18.9086L27.665 18.5285L26.7148 18.6101ZM26.7096 18.5471L27.6602 18.4711L27.5901 17.5934H26.7096V18.5471ZM5.73815 18.5471V17.5934H3.98527L4.93746 19.0651L5.73815 18.5471ZM5.74986 18.5624L5.01391 19.169L5.01723 19.173L5.74986 18.5624ZM5.74987 18.5625L6.49456 17.9667L6.48861 17.9593L6.4825 17.9519L5.74987 18.5625ZM5.7499 18.5625L5.00513 19.1583L5.01409 19.1692L5.7499 18.5625ZM5.75978 18.5751L4.98072 19.1252L4.99854 19.1504L5.01795 19.1744L5.75978 18.5751ZM6.50271 19.833L7.43919 20.0133L7.44016 20.0081L6.50271 19.833ZM5.49558 20.3135V21.2672H5.61801L5.73646 21.2362L5.49558 20.3135ZM5.49382 20.3135V19.3598H5.37377L5.25747 19.3896L5.49382 20.3135ZM4.85728 20.4596L4.66638 19.5253L2.714 19.9241L4.24935 21.1944L4.85728 20.4596ZM4.85783 20.4601L4.24991 21.1949L4.60274 21.4868L5.05117 21.394L4.85783 20.4601ZM5.49381 20.3141L6.41499 20.5609L6.83685 18.9861L5.25746 19.3902L5.49381 20.3141ZM5.22155 21.1064L4.34714 20.7257L4.18334 21.102L4.34398 21.4797L5.22155 21.1064ZM5.78316 23.754L5.13228 23.057L5.13169 23.0575L5.78316 23.754ZM3.56723 23.0093L3.98444 22.1518L3.78691 22.0557H3.56723V23.0093ZM3.56548 23.0093V22.0557H3.31585L3.09823 22.178L3.56548 23.0093ZM2.29121 23.4728L2.09765 22.539L1.51978 22.6588L1.36914 23.2294L2.29121 23.4728ZM1.18588 25.2118L1.28284 26.1605L1.28549 26.1603L1.18588 25.2118ZM0.0174131 23.5675L0.922734 23.2677L0.72588 22.6733L0.10215 22.6176L0.0174131 23.5675ZM-0.361358 23.5295L-0.248925 22.5825L-0.250388 22.5824L-0.361358 23.5295ZM-0.768772 23.4612L-0.554027 22.532L-1.01624 22.4252L-1.38028 22.7293L-0.768772 23.4612ZM-2.82805 24.5168L-2.15371 23.8425L-2.15371 23.8425L-2.82805 24.5168ZM-2.70355 22.5025L-1.77383 22.7149L-1.6434 22.1439L-2.09367 21.7694L-2.70355 22.5025ZM-5.11646 18.5471L-4.20196 18.2766L-4.40402 17.5934H-5.11646V18.5471ZM-8.02856 18.5471H-8.98223V19.5007H-8.02856V18.5471ZM-8.02856 17.3833L-8.95351 17.151L-8.98223 17.2653V17.3833H-8.02856ZM-2.35283 7.27802L-1.66608 7.93972L-1.12892 7.38223L-1.56409 6.74195L-2.35283 7.27802ZM-0.62907 -0.116219L0.170004 0.404325L0.170745 0.403183L-0.62907 -0.116219ZM0.340072 0.174874L1.29374 0.176286V0.174874H0.340072ZM1.73592 3.86439L1.09591 4.57141L1.6474 5.07063L2.26586 4.65726L1.73592 3.86439ZM15.748 -0.574229L15.7796 0.378916L16.3134 0.361229L16.5772 -0.103151L15.748 -0.574229ZM16.0527 -4.93507L15.3626 -4.2768L15.3627 -4.2767L16.0527 -4.93507ZM10.5207 -4.99656L10.1665 -5.88202L9.54061 -5.63165L9.56781 -4.95808L10.5207 -4.99656ZM10.2468 -5.78504L9.47544 -5.22427L9.91153 -4.6244L10.6003 -4.89931L10.2468 -5.78504ZM16.6542 -5.50848L15.9642 -4.85014L15.9642 -4.85014L16.6542 -5.50848ZM17.0055 -1.25198L17.8874 -0.889154L17.8874 -0.88916L17.0055 -1.25198ZM28.5318 1.03808C24.9734 -0.611371 20.9521 -1.54056 16.7014 -1.54334L16.7001 0.363992C20.6727 0.366593 24.4208 1.23478 27.7296 2.76854L28.5318 1.03808ZM28.8324 -2.0016C28.8335 -0.841789 28.5451 0.391055 27.5539 1.14383L28.7075 2.66279C30.4086 1.37091 30.741 -0.620488 30.7397 -2.00336L28.8324 -2.0016ZM31.5538 -2.81667C30.7441 -4.05092 28.8324 -3.47002 28.8324 -2.00248H30.7397C30.7397 -1.58475 30.1935 -1.41301 29.959 -1.77048L31.5538 -2.81667ZM33.6081 5.02004C34.2055 3.61938 33.885 2.01943 33.3963 0.701276C32.894 -0.653297 32.1306 -1.93073 31.5556 -2.81392L29.9572 -1.77323C30.5056 -0.930895 31.179 0.207508 31.6079 1.36434C32.0503 2.5576 32.1553 3.56463 31.8537 4.27176L33.6081 5.02004ZM42.3168 17.1512C40.9826 11.8327 37.7377 7.19995 33.3021 3.88223L32.1597 5.40958C36.2734 8.48655 39.2478 12.7561 40.4668 17.6153L42.3168 17.1512ZM42.3926 18.5078L42.3447 17.344L40.4389 17.4225L40.4869 18.5863L42.3926 18.5078ZM37.4978 19.5007H41.4397V17.5934H37.4978V19.5007ZM35.7671 23.0021C37.3453 21.6899 38.1167 19.7219 38.4042 18.8438L36.5915 18.2503C36.3309 19.0464 35.6966 20.5802 34.5477 21.5355L35.7671 23.0021ZM35.9573 24.9562C36.277 24.6371 36.3224 24.2134 36.3362 24.0474C36.3553 23.8179 36.3413 23.5732 36.3185 23.3549C36.2721 22.9118 36.1716 22.4225 36.0866 22.0543L34.2282 22.4834C34.3075 22.8269 34.3873 23.2269 34.4215 23.5535C34.439 23.7201 34.4403 23.8305 34.4355 23.889C34.4331 23.9177 34.4313 23.906 34.4429 23.8693C34.4526 23.8385 34.4922 23.7238 34.6098 23.6064L35.9573 24.9562ZM32.6146 23.9595C32.9927 24.2751 33.4941 24.6367 33.9544 24.8942C34.1783 25.0195 34.4394 25.147 34.6965 25.2193C34.8236 25.2551 35.0001 25.2921 35.1971 25.2829C35.3969 25.2736 35.7032 25.2104 35.9579 24.9556L34.6092 23.6069C34.8023 23.4138 35.0196 23.3818 35.1081 23.3777C35.1937 23.3737 35.2366 23.3899 35.213 23.3833C35.1685 23.3707 35.0595 23.327 34.8857 23.2297C34.5506 23.0422 34.1463 22.7536 33.837 22.4954L32.6146 23.9595ZM32.9266 24.2419C33.0967 24.2222 33.263 24.1947 33.4253 24.16L33.0264 22.2949C32.9233 22.3169 32.8169 22.3345 32.7071 22.3473L32.9266 24.2419ZM32.5189 24.283C32.6537 24.2715 32.7896 24.2578 32.9266 24.2419L32.7071 22.3473C32.5884 22.361 32.4717 22.3728 32.3571 22.3826L32.5189 24.283ZM31.1726 25.925C31.6369 25.9725 32.0074 25.7791 32.2509 25.578C32.4856 25.3842 32.6587 25.1408 32.784 24.9308C33.0362 24.5081 33.2214 24.0006 33.3433 23.6327L31.5327 23.0329C31.4185 23.3777 31.2858 23.7192 31.146 23.9537C31.0752 24.0723 31.0338 24.1095 31.0364 24.1074C31.0478 24.098 31.1686 24.0073 31.3667 24.0276L31.1726 25.925ZM29.2439 23.4819C29.3541 23.8999 29.5235 24.4062 29.7635 24.8369C29.8834 25.0522 30.0418 25.2865 30.25 25.4829C30.4593 25.6804 30.7677 25.8836 31.1726 25.925L31.3667 24.0276C31.5096 24.0422 31.5741 24.1099 31.5587 24.0954C31.5422 24.0799 31.495 24.0258 31.4296 23.9085C31.2989 23.674 31.1786 23.3385 31.0883 22.9959L29.2439 23.4819ZM28.4206 23.6057C28.901 23.8753 29.4231 24.0587 29.9723 24.1727L30.3599 22.3051C29.9737 22.225 29.6405 22.1032 29.3542 21.9424L28.4206 23.6057ZM26.0199 24.214C26.2742 24.4526 26.5693 24.4998 26.7185 24.5112C26.8837 24.5237 27.0367 24.5045 27.1511 24.4837C27.3833 24.4417 27.6333 24.3597 27.8598 24.2748C28.3226 24.1013 28.8594 23.8491 29.3059 23.6309L28.4688 21.9171C28.028 22.1324 27.5612 22.3498 27.1902 22.4889C26.9998 22.5603 26.8754 22.5953 26.8115 22.6069C26.7778 22.613 26.8023 22.6047 26.863 22.6093C26.9078 22.6127 27.1224 22.6331 27.3248 22.8229L26.0199 24.214ZM26.3557 20.4989C26.1438 20.9973 25.9246 21.6521 25.7885 22.2263C25.7213 22.5099 25.6655 22.81 25.6498 23.078C25.642 23.21 25.6414 23.3721 25.67 23.5375C25.6942 23.6775 25.764 23.974 26.0199 24.2141L27.3248 22.8229C27.5189 23.005 27.5479 23.2035 27.5495 23.2128C27.5555 23.2475 27.5505 23.2464 27.5538 23.1898C27.5603 23.0807 27.5884 22.9026 27.6444 22.6662C27.7548 22.2004 27.9397 21.648 28.111 21.2451L26.3557 20.4989ZM26.1204 20.6031C26.1898 20.8272 26.2686 21.0423 26.357 21.2481L28.1097 20.4958C28.0492 20.3549 27.9931 20.2027 27.9423 20.0385L26.1204 20.6031ZM25.0631 20.0111C25.1363 20.3977 25.3931 20.6245 25.5123 20.7171C25.6539 20.8273 25.8085 20.906 25.9343 20.9618C26.191 21.0757 26.5002 21.1688 26.7934 21.2443L27.2693 19.3973C27.01 19.3305 26.8204 19.2683 26.708 19.2184C26.6492 19.1923 26.6516 19.187 26.6831 19.2114C26.7006 19.2251 26.7445 19.2613 26.7923 19.3246C26.8409 19.389 26.9076 19.5002 26.9371 19.6562L25.0631 20.0111ZM25.9705 18.0139C25.7576 18.2797 25.5403 18.5695 25.3769 18.8358C25.2962 18.9675 25.2123 19.1194 25.1503 19.2772C25.102 19.3998 25.001 19.683 25.0631 20.0111L26.9371 19.6562C26.9613 19.7838 26.9473 19.8795 26.9402 19.9171C26.9325 19.9587 26.9234 19.9799 26.9253 19.975C26.9299 19.9633 26.9508 19.9179 27.0026 19.8333C27.1045 19.6673 27.2644 19.4495 27.4592 19.2063L25.9705 18.0139ZM25.759 18.6231C25.7608 18.6461 25.7627 18.6689 25.7647 18.6917L27.665 18.5285C27.6634 18.5094 27.6618 18.4902 27.6602 18.4711L25.759 18.6231ZM5.73815 19.5007H26.7096V17.5934H5.73815V19.5007ZM6.4858 17.9559C6.48227 17.9516 6.48909 17.9598 6.49703 17.97C6.50605 17.9816 6.5214 18.002 6.53885 18.029L4.93746 19.0651C4.95844 19.0975 4.97759 19.1231 4.99055 19.1398C5.00243 19.1551 5.01335 19.1683 5.01392 19.169L6.4858 17.9559ZM6.4825 17.9519L6.48249 17.9519L5.01723 19.173L5.01725 19.173L6.4825 17.9519ZM6.49459 17.9667L6.49456 17.9667L5.00518 19.1582L5.00521 19.1582L6.49459 17.9667ZM6.53884 18.0251C6.51196 17.987 6.48611 17.9563 6.48571 17.9558L5.01409 19.1692C5.01652 19.1721 5.01245 19.1672 5.00749 19.161C5.00188 19.1539 4.99221 19.1414 4.98072 19.1252L6.53884 18.0251ZM7.44016 20.0081C7.50236 19.6752 7.3968 19.3876 7.34778 19.2653C7.28392 19.1058 7.1977 18.9514 7.11428 18.8168C6.94542 18.5445 6.72122 18.2477 6.50162 17.9758L5.01795 19.1744C5.21861 19.4228 5.38576 19.6486 5.49323 19.8219C5.54797 19.9102 5.57117 19.9594 5.57721 19.9745C5.57987 19.9811 5.57107 19.9613 5.5632 19.9207C5.5562 19.8846 5.541 19.7877 5.56526 19.6579L7.44016 20.0081ZM5.73646 21.2362C6.02476 21.161 6.32836 21.0683 6.58064 20.955C6.70434 20.8994 6.85654 20.8211 6.99627 20.7114C7.11447 20.6186 7.36585 20.3941 7.43917 20.0133L5.56625 19.6527C5.59588 19.4988 5.66146 19.3888 5.70964 19.3247C5.75705 19.2616 5.80068 19.2251 5.81871 19.211C5.85114 19.1855 5.85523 19.1899 5.79905 19.2152C5.69155 19.2635 5.50824 19.3246 5.25469 19.3908L5.73646 21.2362ZM5.49382 21.2672H5.49558V19.3598H5.49382V21.2672ZM5.04817 21.394C5.28074 21.3465 5.51392 21.2927 5.73018 21.2374L5.25747 19.3896C5.07157 19.4371 4.8687 19.4839 4.66638 19.5253L5.04817 21.394ZM5.46576 19.7253L5.4652 19.7248L4.24935 21.1944L4.24991 21.1949L5.46576 19.7253ZM5.25746 19.3902C5.0732 19.4373 4.86997 19.4837 4.66449 19.5262L5.05117 21.394C5.28021 21.3465 5.51261 21.2936 5.73016 21.238L5.25746 19.3902ZM6.09596 21.487C6.22403 21.1928 6.3282 20.8848 6.41499 20.5609L4.57262 20.0673C4.50633 20.3147 4.43173 20.5314 4.34714 20.7257L6.09596 21.487ZM6.43404 24.451C6.69146 24.2107 6.76134 23.913 6.78549 23.7733C6.81408 23.6078 6.81342 23.4456 6.80565 23.3136C6.78986 23.0456 6.73408 22.7454 6.66679 22.4616C6.53058 21.8871 6.31123 21.2317 6.09912 20.7331L4.34398 21.4797C4.51529 21.8824 4.70036 22.4354 4.81091 22.9016C4.867 23.1382 4.89518 23.3165 4.90161 23.4257C4.90495 23.4824 4.89996 23.4835 4.90599 23.4486C4.90757 23.4394 4.93668 23.2396 5.13228 23.057L6.43404 24.451ZM3.15002 23.8669C3.59581 24.0838 4.1326 24.3359 4.59501 24.5095C4.82131 24.5944 5.07123 24.6766 5.30334 24.7188C5.4177 24.7396 5.57064 24.759 5.73578 24.7466C5.88498 24.7355 6.18001 24.6886 6.43463 24.4505L5.13169 23.0575C5.33429 22.868 5.5488 22.8479 5.59346 22.8446C5.65405 22.8401 5.67842 22.8484 5.64465 22.8422C5.5805 22.8306 5.45592 22.7954 5.26523 22.7238C4.89367 22.5843 4.42654 22.3668 3.98444 22.1518L3.15002 23.8669ZM3.56548 23.963H3.56723V22.0557H3.56548V23.963ZM2.48478 24.4067C3.03191 24.2933 3.5539 24.1098 4.03272 23.8407L3.09823 22.178C2.81367 22.3379 2.48109 22.4596 2.09765 22.539L2.48478 24.4067ZM1.28549 26.1603C1.68933 26.1178 1.9968 25.9146 2.20552 25.7176C2.41336 25.5215 2.57172 25.2876 2.69192 25.0724C2.93243 24.6418 3.10263 24.1355 3.21329 23.7163L1.36914 23.2294C1.27873 23.5719 1.15783 23.9076 1.02672 24.1423C0.961123 24.2598 0.913544 24.3143 0.896502 24.3304C0.880345 24.3457 0.944002 24.2783 1.08626 24.2634L1.28549 26.1603ZM-0.887908 23.8673C-0.7659 24.2358 -0.580475 24.7433 -0.328266 25.1661C-0.202982 25.3761 -0.0298791 25.6195 0.204586 25.8132C0.44775 26.0142 0.818269 26.208 1.28284 26.1605L1.08892 24.2631C1.28753 24.2428 1.40853 24.3338 1.41964 24.343C1.42204 24.345 1.38055 24.3076 1.30973 24.1889C1.16972 23.9542 1.03687 23.6124 0.922734 23.2677L-0.887908 23.8673ZM-0.47379 24.4766C-0.330914 24.4935 -0.19277 24.5062 -0.0673238 24.5174L0.10215 22.6176C-0.02141 22.6066 -0.13578 22.596 -0.248925 22.5825L-0.47379 24.4766ZM-0.983516 24.3903C-0.808814 24.4307 -0.636424 24.4575 -0.472327 24.4767L-0.250388 22.5824C-0.365694 22.5689 -0.465694 22.5524 -0.554027 22.532L-0.983516 24.3903ZM-3.5024 25.1912C-3.24683 25.4467 -2.93948 25.5093 -2.74009 25.5183C-2.54322 25.5272 -2.36683 25.49 -2.23981 25.4541C-1.98291 25.3816 -1.72174 25.2539 -1.49756 25.1284C-1.03689 24.8705 -0.535034 24.5086 -0.157267 24.193L-1.38028 22.7293C-1.68874 22.9871 -2.09348 23.2761 -2.42937 23.4642C-2.60347 23.5617 -2.71308 23.6058 -2.75814 23.6185C-2.7821 23.6253 -2.73949 23.6091 -2.65403 23.6129C-2.56605 23.6169 -2.34775 23.6484 -2.15371 23.8425L-3.5024 25.1912ZM-3.63327 22.2902C-3.71712 22.6573 -3.81704 23.1466 -3.86318 23.5898C-3.88591 23.8082 -3.89982 24.0528 -3.88071 24.2824C-3.8669 24.4482 -3.82162 24.8719 -3.5024 25.1912L-2.15371 23.8425C-2.03624 23.9599 -1.99686 24.0746 -1.98724 24.105C-1.97571 24.1415 -1.97755 24.153 -1.97995 24.1241C-1.98487 24.0651 -1.98347 23.9543 -1.96609 23.7873C-1.932 23.4598 -1.85247 23.0592 -1.77383 22.7149L-3.63327 22.2902ZM-6.03097 18.8175C-5.81793 19.5378 -5.05324 21.7884 -3.31343 23.2357L-2.09367 21.7694C-3.37117 20.7067 -4.007 18.9358 -4.20196 18.2766L-6.03097 18.8175ZM-8.02856 19.5007H-5.11646V17.5934H-8.02856V19.5007ZM-8.98223 17.3833V18.5471H-7.0749V17.3833H-8.98223ZM-3.03958 6.61631C-5.88175 9.56604 -7.95306 13.1675 -8.95351 17.151L-7.10362 17.6156C-6.18917 13.9745 -4.29156 10.6646 -1.66608 7.93972L-3.03958 6.61631ZM-1.42814 -0.636762C-2.04511 0.310325 -2.88319 1.71797 -3.37929 3.18969C-3.86116 4.61921 -4.11205 6.38618 -3.14157 7.81408L-1.56409 6.74195C-2.01109 6.08426 -2.0042 5.08147 -1.57188 3.79894C-1.15378 2.55862 -0.421245 1.31193 0.170003 0.404325L-1.42814 -0.636762ZM1.29374 0.174874C1.29374 -1.28178 -0.61593 -1.88747 -1.42889 -0.63562L0.170745 0.403183C-0.0705446 0.77474 -0.613596 0.580558 -0.613596 0.174874H1.29374ZM2.37593 3.15738C1.54297 2.40336 1.29214 1.25506 1.29374 0.176286L-0.613595 0.173463C-0.615506 1.46435 -0.328575 3.28192 1.09591 4.57141L2.37593 3.15738ZM15.7164 -1.52737C10.3097 -1.34822 5.30917 0.328996 1.20597 3.07152L2.26586 4.65726C6.07336 2.11238 10.7286 0.546279 15.7796 0.378916L15.7164 -1.52737ZM15.3627 -4.2767C15.6571 -3.96819 15.7589 -3.53411 15.6529 -2.91533C15.5452 -2.28655 15.2404 -1.61136 14.9188 -1.04531L16.5772 -0.103151C16.9445 -0.749666 17.371 -1.64817 17.5329 -2.59329C17.6965 -3.54842 17.6062 -4.68848 16.7426 -5.59343L15.3627 -4.2767ZM10.8749 -4.11111C11.4618 -4.34586 12.3972 -4.66302 13.3202 -4.75714C14.2761 -4.85461 14.9673 -4.69127 15.3626 -4.2768L16.7427 -5.59333C15.7289 -6.65611 14.2744 -6.77166 13.1267 -6.65464C11.9462 -6.53426 10.8203 -6.14354 10.1665 -5.88202L10.8749 -4.11111ZM11.4756 -4.93733C11.4756 -4.97019 11.4749 -5.00277 11.4736 -5.03505L9.56781 -4.95808C9.5681 -4.95107 9.56824 -4.94415 9.56824 -4.93733H11.4756ZM9.07872 -2.54047C10.4025 -2.54047 11.4756 -3.61358 11.4756 -4.93733H9.56824C9.56824 -4.66697 9.34907 -4.44781 9.07872 -4.44781V-2.54047ZM6.68186 -4.93733C6.68186 -3.61358 7.75497 -2.54047 9.07872 -2.54047V-4.44781C8.80836 -4.44781 8.58919 -4.66698 8.58919 -4.93733H6.68186ZM9.07872 -7.33419C7.75497 -7.33419 6.68186 -6.26108 6.68186 -4.93733H8.58919C8.58919 -5.20769 8.80836 -5.42685 9.07872 -5.42685V-7.33419ZM11.0182 -6.3458C10.5841 -6.94289 9.87709 -7.33419 9.07872 -7.33419V-5.42685C9.24092 -5.42685 9.38483 -5.34892 9.47544 -5.22427L11.0182 -6.3458ZM17.3441 -6.16683C16.1829 -7.38388 14.5865 -7.59843 13.2522 -7.49877C11.9064 -7.39825 10.6392 -6.96847 9.89332 -6.67076L10.6003 -4.89931C11.2689 -5.16614 12.3285 -5.51713 13.3943 -5.59673C14.4715 -5.67719 15.3716 -5.4712 15.9642 -4.85014L17.3441 -6.16683ZM17.8874 -0.88916C18.6977 -2.85875 18.6647 -4.78283 17.3441 -6.16683L15.9642 -4.85014C16.5656 -4.21986 16.7757 -3.20028 16.1235 -1.61479L17.8874 -0.88916ZM17.5511 -0.158031C17.6669 -0.386142 17.7813 -0.63126 17.8874 -0.889154L16.1235 -1.6148C16.039 -1.40938 15.9463 -1.21034 15.8503 -1.02132L17.5511 -0.158031Z" fill="white" mask="url(#path-2-outside-1_2022_69671)"/>
</g>
<rect x="-11" y="18.2286" width="52" height="19.3143" fill="black"/>
<path fill-rule="evenodd" clip-rule="evenodd" d="M8.78574 21.1577C10.86 21.7305 13.2639 22.032 15.7902 22.0095L15.7902 22.0102C16.0695 22.0077 16.3514 22.0011 16.6333 21.9906C20.1435 21.8599 23.3741 21.1106 25.937 19.8848L27.046 21.2402L27.9817 18.7066C28.6512 18.2417 29.2446 17.7344 29.7503 17.1891C29.8932 17.0348 29.8844 16.7949 29.7301 16.652C29.5758 16.509 29.336 16.5178 29.193 16.6721C23.8126 22.4751 9.32927 22.5042 4.2958 18.1387C4.13686 18.0011 3.89712 18.0186 3.75953 18.1769C3.62196 18.3358 3.63947 18.5756 3.79773 18.7132C4.5697 19.3825 5.55588 19.9642 6.70372 20.4448L7.91751 22.2402L8.78574 21.1577Z" fill="white"/>
<path fill-rule="evenodd" clip-rule="evenodd" d="M3.51404 13.5363C3.61154 15.1757 5.02623 16.4284 6.6666 16.3293C8.30763 16.2301 9.56304 14.8161 9.46554 13.1767C9.36803 11.5373 7.95401 10.2846 6.31298 10.3837C4.67195 10.4829 3.41653 11.8969 3.51404 13.5363ZM4.65259 13.4682C4.5924 12.4561 5.36762 11.583 6.38067 11.5218C7.39372 11.4606 8.26687 12.2341 8.32707 13.2462C8.33858 13.4397 8.31954 13.6282 8.27412 13.8068C8.12033 13.7038 7.9328 13.6484 7.73374 13.6603C7.25005 13.6893 6.88145 14.1049 6.91044 14.5886C6.92187 14.7792 6.99336 14.952 7.10539 15.0896C6.94599 15.1463 6.77613 15.1819 6.59899 15.1926C5.58594 15.2538 4.71278 14.4802 4.65259 13.4682Z" fill="white"/>
<path fill-rule="evenodd" clip-rule="evenodd" d="M23.0167 12.4651C23.1142 14.1045 24.5283 15.3572 26.1693 15.2581C27.8103 15.1589 29.0657 13.7443 28.9682 12.1055C28.8708 10.4668 27.4568 9.21408 25.8157 9.31323C24.1747 9.41238 22.9192 10.8257 23.0167 12.4651ZM24.1553 12.3963C24.0951 11.385 24.8703 10.5118 25.8834 10.4506C26.8964 10.3894 27.7695 11.1623 27.8297 12.1743C27.8412 12.3668 27.8224 12.5543 27.7775 12.7322C27.6206 12.6217 27.4266 12.5616 27.2202 12.574C26.7365 12.603 26.3679 13.0186 26.3969 13.5023C26.4087 13.7002 26.4853 13.8789 26.6048 14.0189C26.4464 14.075 26.2776 14.1101 26.1017 14.1207C25.0886 14.1819 24.2154 13.4077 24.1553 12.3963Z" fill="white"/>
</g>
</g>
<defs>
<clipPath id="clip0_2022_69671">
<rect width="32" height="32" fill="white"/>
</clipPath>
<clipPath id="clip1_2022_69671">
<rect width="32" height="32" rx="16" fill="white"/>
</clipPath>
<clipPath id="clip2_2022_69671">
<rect width="49.0286" height="28.2286" fill="white" transform="translate(-8.02856 -10)"/>
</clipPath>
</defs>
</svg>
