<svg width="260" height="148" viewBox="0 0 260 148" fill="none" xmlns="http://www.w3.org/2000/svg">
<g clip-path="url(#clip0_2002_70306)">
<mask id="path-1-outside-1_2002_70306" maskUnits="userSpaceOnUse" x="-5" y="13" width="270" height="177" fill="black">
<rect fill="white" x="-5" y="13" width="270" height="177"/>
<path fill-rule="evenodd" clip-rule="evenodd" d="M129.654 49.3376C151.211 49.3517 171.578 54.0634 189.58 62.4081C196.638 57.0481 198.265 48.5959 198.259 41.9304C198.259 39.1783 201.838 38.1057 203.346 40.4042C209.236 49.4509 218.412 65.7363 213.698 76.7873C236.11 93.5507 252.414 116.888 259.107 143.568L259.358 149.67H238.691C237.254 154.059 233.569 163.239 226.42 169.183C227.282 172.915 228.311 178.507 227.082 179.734C225.79 181.026 219.897 177.217 216.293 174.209C215.598 174.357 214.883 174.476 214.149 174.561C213.479 174.638 212.817 174.705 212.163 174.761C210.925 178.498 208.829 183.663 206.037 183.378C203.29 183.097 201.302 178.256 200.251 174.269C197.799 173.76 195.557 172.96 193.547 171.831C188.895 174.104 183.023 176.756 181.934 175.735C180.638 174.519 182.866 166.585 184.875 161.859C184.485 160.95 184.131 159.987 183.816 158.969C180.92 158.223 178.585 157.342 178.41 156.415C178.203 155.322 180.019 152.669 182.157 150C182.147 149.891 182.138 149.78 182.129 149.67H72.1777C72.1963 149.699 72.2176 149.724 72.2392 149.751C72.2568 149.772 72.2746 149.794 72.2911 149.817C74.4946 152.544 76.3946 155.296 76.1862 156.412C76.0116 157.319 73.7468 158.189 70.9059 158.931H70.8967C69.8425 159.201 68.6994 159.464 67.5594 159.697L67.5622 159.7C68.7013 159.464 69.8434 159.204 70.8967 158.934C70.4954 160.432 70.0267 161.808 69.4692 163.088C71.4795 167.814 73.7099 175.759 72.4137 176.969C71.3227 177.99 65.4509 175.33 60.7958 173.065H60.7866C58.7854 174.19 56.5452 174.99 54.1057 175.495C53.0515 179.489 51.0534 184.324 48.3105 184.613C45.5217 184.898 43.4225 179.731 42.1844 175.992C41.5316 175.934 40.8697 175.872 40.1985 175.793C39.4661 175.707 38.752 175.593 38.0625 175.434C34.4646 178.44 28.5561 182.259 27.2659 180.969C26.0369 179.74 27.0667 174.138 27.9186 170.408C20.0089 163.828 16.3374 153.286 15.2679 149.67H0V143.568C5.01983 123.581 15.4242 105.463 29.7574 90.5872C22.3257 79.6527 32.4604 61.5439 38.7949 51.8199C40.2935 49.5122 43.876 50.591 43.876 53.346C43.8669 59.558 45.2766 67.3329 51.1943 72.6899C71.9319 58.8291 97.2442 50.3269 124.659 49.4186C128.27 43.0611 132.327 32.9172 126.256 26.5551C118.868 18.8099 103.757 23.6307 97.2523 26.2326C97.2564 26.3356 97.2585 26.4391 97.2585 26.5431C97.2585 30.722 93.8709 34.1096 89.692 34.1096C85.5131 34.1096 82.1255 30.722 82.1255 26.5431C82.1255 22.3642 85.5131 18.9766 89.692 18.9766C92.2102 18.9766 94.441 20.2067 95.8164 22.0987C103.232 19.1389 120.214 13.9117 129.41 23.5487C134.448 28.829 135.085 36.5457 131.251 45.8652C130.752 47.0797 130.209 48.2441 129.654 49.3376ZM91.5445 135.146C101.058 137.773 112.082 139.156 123.668 139.052L123.668 139.055C124.949 139.044 126.242 139.014 127.535 138.966C143.633 138.366 158.45 134.93 170.204 129.308L175.29 135.524L179.581 123.905C182.652 121.773 185.373 119.446 187.692 116.945C188.348 116.237 188.307 115.137 187.6 114.482C186.892 113.826 185.792 113.866 185.137 114.574C160.461 141.188 94.0371 141.321 70.9526 121.3C70.2236 120.669 69.1241 120.749 68.4931 121.475C67.8622 122.204 67.9425 123.304 68.6683 123.935C72.2088 127.005 76.7317 129.672 81.996 131.877L87.5626 140.111L91.5445 135.146ZM81.8324 113.008C74.3131 113.459 67.825 107.708 67.3741 100.186C66.9232 92.6632 72.6746 86.1782 80.197 85.7272C87.7194 85.2763 94.2044 91.0278 94.6553 98.5502C95.1063 106.073 89.3548 112.558 81.8324 113.008ZM80.51 90.9492C75.8663 91.2275 72.3148 95.232 72.5931 99.8758C72.8715 104.52 76.876 108.071 81.5197 107.793C82.3321 107.744 83.111 107.581 83.8419 107.321C83.3257 106.689 82.9962 105.895 82.9436 105.018C82.8106 102.8 84.5011 100.894 86.7195 100.761C87.632 100.706 88.4917 100.96 89.1969 101.432C89.4035 100.614 89.4898 99.7519 89.4367 98.8661C89.1583 94.2223 85.1538 90.6708 80.51 90.9492ZM156.818 95.2729C157.268 102.795 163.753 108.547 171.276 108.096C178.798 107.645 184.549 101.157 184.099 93.6375C183.648 86.1182 177.163 80.3667 169.641 80.8176C162.118 81.2686 156.367 87.7505 156.818 95.2729ZM162.036 94.96C161.758 90.3193 165.31 86.3149 169.953 86.0365C174.597 85.7581 178.602 89.3066 178.88 93.9503C178.933 94.8315 178.848 95.6896 178.643 96.5037C177.924 95.9973 177.035 95.7222 176.088 95.7789C173.87 95.9119 172.179 97.818 172.312 100.036C172.367 100.946 172.72 101.768 173.27 102.41C172.544 102.668 171.77 102.829 170.963 102.877C166.319 103.155 162.315 99.6007 162.036 94.96Z"/>
</mask>
<path fill-rule="evenodd" clip-rule="evenodd" d="M129.654 49.3376C151.211 49.3517 171.578 54.0634 189.58 62.4081C196.638 57.0481 198.265 48.5959 198.259 41.9304C198.259 39.1783 201.838 38.1057 203.346 40.4042C209.236 49.4509 218.412 65.7363 213.698 76.7873C236.11 93.5507 252.414 116.888 259.107 143.568L259.358 149.67H238.691C237.254 154.059 233.569 163.239 226.42 169.183C227.282 172.915 228.311 178.507 227.082 179.734C225.79 181.026 219.897 177.217 216.293 174.209C215.598 174.357 214.883 174.476 214.149 174.561C213.479 174.638 212.817 174.705 212.163 174.761C210.925 178.498 208.829 183.663 206.037 183.378C203.29 183.097 201.302 178.256 200.251 174.269C197.799 173.76 195.557 172.96 193.547 171.831C188.895 174.104 183.023 176.756 181.934 175.735C180.638 174.519 182.866 166.585 184.875 161.859C184.485 160.95 184.131 159.987 183.816 158.969C180.92 158.223 178.585 157.342 178.41 156.415C178.203 155.322 180.019 152.669 182.157 150C182.147 149.891 182.138 149.78 182.129 149.67H72.1777C72.1963 149.699 72.2176 149.724 72.2392 149.751C72.2568 149.772 72.2746 149.794 72.2911 149.817C74.4946 152.544 76.3946 155.296 76.1862 156.412C76.0116 157.319 73.7468 158.189 70.9059 158.931H70.8967C69.8425 159.201 68.6994 159.464 67.5594 159.697L67.5622 159.7C68.7013 159.464 69.8434 159.204 70.8967 158.934C70.4954 160.432 70.0267 161.808 69.4692 163.088C71.4795 167.814 73.7099 175.759 72.4137 176.969C71.3227 177.99 65.4509 175.33 60.7958 173.065H60.7866C58.7854 174.19 56.5452 174.99 54.1057 175.495C53.0515 179.489 51.0534 184.324 48.3105 184.613C45.5217 184.898 43.4225 179.731 42.1844 175.992C41.5316 175.934 40.8697 175.872 40.1985 175.793C39.4661 175.707 38.752 175.593 38.0625 175.434C34.4646 178.44 28.5561 182.259 27.2659 180.969C26.0369 179.74 27.0667 174.138 27.9186 170.408C20.0089 163.828 16.3374 153.286 15.2679 149.67H0V143.568C5.01983 123.581 15.4242 105.463 29.7574 90.5872C22.3257 79.6527 32.4604 61.5439 38.7949 51.8199C40.2935 49.5122 43.876 50.591 43.876 53.346C43.8669 59.558 45.2766 67.3329 51.1943 72.6899C71.9319 58.8291 97.2442 50.3269 124.659 49.4186C128.27 43.0611 132.327 32.9172 126.256 26.5551C118.868 18.8099 103.757 23.6307 97.2523 26.2326C97.2564 26.3356 97.2585 26.4391 97.2585 26.5431C97.2585 30.722 93.8709 34.1096 89.692 34.1096C85.5131 34.1096 82.1255 30.722 82.1255 26.5431C82.1255 22.3642 85.5131 18.9766 89.692 18.9766C92.2102 18.9766 94.441 20.2067 95.8164 22.0987C103.232 19.1389 120.214 13.9117 129.41 23.5487C134.448 28.829 135.085 36.5457 131.251 45.8652C130.752 47.0797 130.209 48.2441 129.654 49.3376ZM91.5445 135.146C101.058 137.773 112.082 139.156 123.668 139.052L123.668 139.055C124.949 139.044 126.242 139.014 127.535 138.966C143.633 138.366 158.45 134.93 170.204 129.308L175.29 135.524L179.581 123.905C182.652 121.773 185.373 119.446 187.692 116.945C188.348 116.237 188.307 115.137 187.6 114.482C186.892 113.826 185.792 113.866 185.137 114.574C160.461 141.188 94.0371 141.321 70.9526 121.3C70.2236 120.669 69.1241 120.749 68.4931 121.475C67.8622 122.204 67.9425 123.304 68.6683 123.935C72.2088 127.005 76.7317 129.672 81.996 131.877L87.5626 140.111L91.5445 135.146ZM81.8324 113.008C74.3131 113.459 67.825 107.708 67.3741 100.186C66.9232 92.6632 72.6746 86.1782 80.197 85.7272C87.7194 85.2763 94.2044 91.0278 94.6553 98.5502C95.1063 106.073 89.3548 112.558 81.8324 113.008ZM80.51 90.9492C75.8663 91.2275 72.3148 95.232 72.5931 99.8758C72.8715 104.52 76.876 108.071 81.5197 107.793C82.3321 107.744 83.111 107.581 83.8419 107.321C83.3257 106.689 82.9962 105.895 82.9436 105.018C82.8106 102.8 84.5011 100.894 86.7195 100.761C87.632 100.706 88.4917 100.96 89.1969 101.432C89.4035 100.614 89.4898 99.7519 89.4367 98.8661C89.1583 94.2223 85.1538 90.6708 80.51 90.9492ZM156.818 95.2729C157.268 102.795 163.753 108.547 171.276 108.096C178.798 107.645 184.549 101.157 184.099 93.6375C183.648 86.1182 177.163 80.3667 169.641 80.8176C162.118 81.2686 156.367 87.7505 156.818 95.2729ZM162.036 94.96C161.758 90.3193 165.31 86.3149 169.953 86.0365C174.597 85.7581 178.602 89.3066 178.88 93.9503C178.933 94.8315 178.848 95.6896 178.643 96.5037C177.924 95.9973 177.035 95.7222 176.088 95.7789C173.87 95.9119 172.179 97.818 172.312 100.036C172.367 100.946 172.72 101.768 173.27 102.41C172.544 102.668 171.77 102.829 170.963 102.877C166.319 103.155 162.315 99.6007 162.036 94.96Z" fill="black"/>
<path d="M189.58 62.4081L187.477 66.9444L190.207 68.21L192.604 66.39L189.58 62.4081ZM129.654 49.3376L125.195 47.0745L121.511 54.3322L129.65 54.3376L129.654 49.3376ZM198.259 41.9304L193.259 41.9304L193.259 41.935L198.259 41.9304ZM203.346 40.4042L207.536 37.6761L207.532 37.6688L207.527 37.6616L203.346 40.4042ZM213.698 76.7873L209.099 74.8257L207.558 78.4385L210.704 80.7911L213.698 76.7873ZM259.107 143.568L264.103 143.362L264.081 142.85L263.957 142.352L259.107 143.568ZM259.358 149.67V154.67H264.568L264.354 149.464L259.358 149.67ZM238.691 149.67V144.67H235.067L233.939 148.114L238.691 149.67ZM226.42 169.183L223.224 165.338L220.856 167.307L221.549 170.307L226.42 169.183ZM227.082 179.734L223.549 176.195L223.546 176.198L227.082 179.734ZM216.293 174.209L219.498 170.37L217.629 168.81L215.248 169.319L216.293 174.209ZM214.149 174.561L214.725 179.528L214.725 179.528L214.149 174.561ZM212.163 174.761L211.738 169.779L208.453 170.059L207.416 173.189L212.163 174.761ZM206.037 183.378L205.528 188.352L205.528 188.352L206.037 183.378ZM200.251 174.269L205.086 172.995L204.298 170.002L201.268 169.373L200.251 174.269ZM193.547 171.831L195.994 167.471L193.708 166.188L191.352 167.339L193.547 171.831ZM181.934 175.735L178.513 179.381L178.513 179.381L181.934 175.735ZM184.875 161.859L189.477 163.815L190.312 161.85L189.47 159.887L184.875 161.859ZM183.816 158.969L188.592 157.489L187.766 154.824L185.063 154.127L183.816 158.969ZM178.41 156.415L183.322 155.485L183.322 155.485L178.41 156.415ZM182.157 150L186.059 153.126L187.309 151.565L187.138 149.573L182.157 150ZM182.129 149.67L187.113 149.271L186.745 144.67H182.129V149.67ZM72.1777 149.67V144.67H62.9857L67.9802 152.387L72.1777 149.67ZM72.2392 149.751L76.0976 146.571L76.0972 146.57L72.2392 149.751ZM72.2911 149.817L68.206 152.7L68.2997 152.833L68.4017 152.959L72.2911 149.817ZM76.1862 156.412L81.096 157.357L81.0987 157.344L81.1012 157.33L76.1862 156.412ZM70.9059 158.931V163.931H71.5478L72.1689 163.769L70.9059 158.931ZM70.8967 158.931V153.931H70.2673L69.6576 154.087L70.8967 158.931ZM67.5594 159.697L66.5585 154.798L56.3413 156.886L64.3665 163.545L67.5594 159.697ZM67.5622 159.7L64.3694 163.547L66.2205 165.083L68.5759 164.596L67.5622 159.7ZM70.8967 158.934L75.7264 160.228L77.9382 151.972L69.6575 154.09L70.8967 158.934ZM69.4692 163.088L64.8848 161.092L64.0259 163.065L64.8682 165.045L69.4692 163.088ZM72.4137 176.969L69.0012 173.315L68.9981 173.318L72.4137 176.969ZM60.7958 173.065L62.9832 168.569L61.9475 168.065H60.7958V173.065ZM60.7866 173.065V168.065H59.4778L58.3369 168.706L60.7866 173.065ZM54.1057 175.495L53.0909 170.599L50.0612 171.227L49.2714 174.219L54.1057 175.495ZM48.3105 184.613L48.8189 189.587L48.8328 189.585L48.3105 184.613ZM42.1844 175.992L46.9309 174.42L45.8988 171.303L42.6286 171.012L42.1844 175.992ZM40.1985 175.793L40.788 170.827L40.7804 170.827L40.1985 175.793ZM38.0625 175.434L39.1884 170.562L36.765 170.002L34.8564 171.597L38.0625 175.434ZM27.2659 180.969L30.8014 177.433L30.8014 177.433L27.2659 180.969ZM27.9186 170.408L32.7931 171.522L33.4769 168.528L31.1162 166.564L27.9186 170.408ZM15.2679 149.67L20.0626 148.252L19.0032 144.67H15.2679V149.67ZM0 149.67H-5V154.67H0V149.67ZM0 143.568L-4.8494 142.35L-5 142.95V143.568H0ZM29.7574 90.5872L33.358 94.0565L36.1743 91.1336L33.8927 87.7766L29.7574 90.5872ZM38.7949 51.8199L42.9844 54.549L42.9883 54.543L38.7949 51.8199ZM43.876 53.346L48.876 53.3534V53.346H43.876ZM51.1943 72.6899L47.8388 76.3967L50.7302 79.0141L53.9728 76.8468L51.1943 72.6899ZM124.659 49.4186L124.824 54.4158L127.623 54.3231L129.006 51.8884L124.659 49.4186ZM126.256 26.5551L122.638 30.0063L122.639 30.0068L126.256 26.5551ZM97.2523 26.2326L95.3953 21.5903L92.1137 22.9029L92.2563 26.4344L97.2523 26.2326ZM95.8164 22.0987L91.7721 25.0387L94.0584 28.1839L97.6698 26.7425L95.8164 22.0987ZM129.41 23.5487L125.792 27.0003L125.792 27.0003L129.41 23.5487ZM131.251 45.8652L135.875 47.7674L135.875 47.7674L131.251 45.8652ZM123.668 139.052L128.668 139.015L128.631 134.008L123.624 134.053L123.668 139.052ZM91.5445 135.146L92.8752 130.326L89.7031 129.451L87.6441 132.018L91.5445 135.146ZM123.668 139.055L118.668 139.093L118.706 144.1L123.713 144.055L123.668 139.055ZM127.535 138.966L127.349 133.969L127.348 133.969L127.535 138.966ZM170.204 129.308L174.073 126.142L171.588 123.104L168.046 124.798L170.204 129.308ZM175.29 135.524L171.42 138.69L176.953 145.452L179.98 137.256L175.29 135.524ZM179.581 123.905L176.729 119.798L175.436 120.696L174.891 122.172L179.581 123.905ZM187.692 116.945L191.359 120.344L191.36 120.343L187.692 116.945ZM187.6 114.482L190.998 110.814L190.998 110.814L187.6 114.482ZM185.137 114.574L188.803 117.974L188.804 117.972L185.137 114.574ZM70.9526 121.3L74.2286 117.523L74.2249 117.52L70.9526 121.3ZM68.4931 121.475L64.7196 118.195L64.7127 118.203L68.4931 121.475ZM68.6683 123.935L65.388 127.708L65.3928 127.712L68.6683 123.935ZM81.996 131.877L86.1382 129.076L85.3028 127.841L83.9271 127.265L81.996 131.877ZM87.5626 140.111L83.4204 142.911L87.2192 148.53L91.463 143.239L87.5626 140.111ZM67.3741 100.186L62.3831 100.485L62.3831 100.485L67.3741 100.186ZM81.8324 113.008L82.1316 118L82.1316 118L81.8324 113.008ZM81.5197 107.793L81.8189 112.784L81.8189 112.784L81.5197 107.793ZM83.8419 107.321L85.5191 112.031L92.2028 109.652L87.7138 104.157L83.8419 107.321ZM82.9436 105.018L87.9347 104.719L87.9347 104.719L82.9436 105.018ZM86.7195 100.761L86.4203 95.7698L86.4203 95.7698L86.7195 100.761ZM89.1969 101.432L86.4147 105.587L92.3075 109.533L94.0446 102.657L89.1969 101.432ZM89.4367 98.8661L84.4456 99.1653L84.4456 99.1653L89.4367 98.8661ZM171.276 108.096L171.575 113.087L171.575 113.087L171.276 108.096ZM156.818 95.2729L151.826 95.5721L151.826 95.5721L156.818 95.2729ZM169.641 80.8176L169.341 75.8266L169.341 75.8266L169.641 80.8176ZM169.953 86.0365L169.654 81.0454L169.654 81.0454L169.953 86.0365ZM162.036 94.96L157.045 95.2592L157.045 95.2592L162.036 94.96ZM178.88 93.9503L173.889 94.2495L173.889 94.2496L178.88 93.9503ZM178.643 96.5037L175.765 100.592L181.72 104.785L183.493 97.7206L178.643 96.5037ZM176.088 95.7789L175.789 90.7879L175.789 90.7879L176.088 95.7789ZM172.312 100.036L177.303 99.7372L177.303 99.7371L172.312 100.036ZM173.27 102.41L174.939 107.124L181.807 104.693L177.068 99.1585L173.27 102.41ZM170.963 102.877L170.664 97.8859L170.664 97.8859L170.963 102.877ZM191.683 57.8718C173.026 49.2238 151.943 44.3522 129.657 44.3376L129.65 54.3376C150.478 54.3512 170.129 58.9031 187.477 66.9444L191.683 57.8718ZM193.259 41.935C193.265 48.0158 191.753 54.4795 186.556 58.4262L192.604 66.39C201.523 59.6167 203.266 49.176 203.259 41.9258L193.259 41.935ZM207.527 37.6616C203.282 31.1905 193.259 34.2362 193.259 41.9304H203.259C203.259 44.1205 200.395 45.0209 199.165 43.1467L207.527 37.6616ZM218.298 78.7489C221.43 71.4053 219.749 63.0169 217.187 56.1059C214.554 49.004 210.551 42.3065 207.536 37.6761L199.156 43.1323C202.031 47.5486 205.562 53.5171 207.811 59.5823C210.13 65.8385 210.681 71.1182 209.099 74.8257L218.298 78.7489ZM263.957 142.352C256.961 114.467 239.949 90.1779 216.693 72.7834L210.704 80.7911C232.271 96.9235 247.866 119.308 254.257 144.785L263.957 142.352ZM264.354 149.464L264.103 143.362L254.111 143.774L254.362 149.876L264.354 149.464ZM238.691 154.67H259.358V144.67H238.691V154.67ZM229.617 173.027C237.891 166.148 241.935 155.829 243.443 151.226L233.939 148.114C232.573 152.288 229.247 160.33 223.224 165.338L229.617 173.027ZM230.614 183.272C232.29 181.599 232.528 179.378 232.601 178.508C232.701 177.304 232.628 176.022 232.508 174.877C232.265 172.554 231.738 169.988 231.292 168.058L221.549 170.307C221.964 172.109 222.383 174.206 222.562 175.918C222.654 176.792 222.661 177.37 222.635 177.677C222.623 177.827 222.613 177.766 222.674 177.574C222.725 177.412 222.933 176.811 223.549 176.195L230.614 183.272ZM213.089 178.047C215.071 179.702 217.7 181.597 220.113 182.947C221.287 183.604 222.656 184.273 224.004 184.652C224.67 184.839 225.596 185.034 226.628 184.985C227.676 184.936 229.282 184.605 230.617 183.269L223.546 176.198C224.559 175.186 225.698 175.018 226.162 174.996C226.611 174.975 226.836 175.06 226.712 175.026C226.479 174.96 225.907 174.73 224.996 174.221C223.239 173.238 221.119 171.724 219.498 170.37L213.089 178.047ZM214.725 179.528C215.617 179.424 216.488 179.28 217.339 179.098L215.248 169.319C214.707 169.435 214.149 169.527 213.574 169.594L214.725 179.528ZM212.587 179.743C213.294 179.683 214.006 179.611 214.725 179.528L213.574 169.594C212.951 169.666 212.34 169.728 211.738 169.779L212.587 179.743ZM205.528 188.352C207.963 188.601 209.905 187.587 211.182 186.533C212.412 185.517 213.32 184.24 213.977 183.139C215.299 180.923 216.27 178.262 216.909 176.333L207.416 173.189C206.817 174.997 206.122 176.787 205.389 178.016C205.018 178.638 204.801 178.833 204.814 178.822C204.874 178.773 205.508 178.297 206.546 178.404L205.528 188.352ZM195.416 175.543C195.994 177.734 196.882 180.389 198.14 182.647C198.769 183.776 199.599 185.004 200.691 186.034C201.789 187.069 203.405 188.135 205.528 188.352L206.546 178.404C207.295 178.48 207.633 178.835 207.553 178.759C207.466 178.678 207.218 178.394 206.876 177.779C206.191 176.55 205.56 174.791 205.086 172.995L195.416 175.543ZM191.1 176.192C193.618 177.605 196.356 178.567 199.235 179.164L201.268 169.373C199.243 168.953 197.496 168.314 195.994 167.471L191.1 176.192ZM178.513 179.381C179.847 180.632 181.393 180.879 182.176 180.939C183.042 181.005 183.844 180.904 184.444 180.795C185.662 180.575 186.972 180.145 188.159 179.7C190.586 178.79 193.4 177.468 195.742 176.324L191.352 167.339C189.041 168.468 186.594 169.607 184.649 170.336C183.651 170.711 182.998 170.894 182.663 170.955C182.487 170.987 182.615 170.944 182.933 170.968C183.168 170.986 184.293 171.092 185.355 172.088L178.513 179.381ZM180.274 159.903C179.163 162.516 178.013 165.949 177.3 168.96C176.947 170.447 176.655 172.02 176.573 173.425C176.532 174.117 176.529 174.967 176.679 175.834C176.806 176.568 177.171 178.123 178.513 179.381L185.355 172.088C186.372 173.042 186.524 174.083 186.533 174.132C186.564 174.314 186.538 174.308 186.556 174.011C186.589 173.439 186.737 172.505 187.03 171.266C187.609 168.824 188.579 165.928 189.477 163.815L180.274 159.903ZM179.04 160.449C179.404 161.624 179.817 162.752 180.28 163.831L189.47 159.887C189.152 159.148 188.859 158.35 188.592 157.489L179.04 160.449ZM173.497 157.346C173.881 159.372 175.227 160.561 175.852 161.047C176.594 161.625 177.405 162.037 178.064 162.33C179.41 162.927 181.032 163.415 182.568 163.811L185.063 154.127C183.704 153.777 182.71 153.451 182.121 153.19C181.813 153.053 181.825 153.025 181.99 153.153C182.082 153.225 182.312 153.414 182.563 153.746C182.818 154.084 183.167 154.667 183.322 155.485L173.497 157.346ZM178.254 146.875C177.138 148.268 175.999 149.787 175.142 151.184C174.719 151.874 174.279 152.671 173.954 153.498C173.701 154.141 173.171 155.625 173.497 157.346L183.322 155.485C183.449 156.154 183.375 156.656 183.339 156.853C183.298 157.071 183.25 157.182 183.26 157.156C183.285 157.095 183.394 156.857 183.666 156.414C184.2 155.543 185.038 154.401 186.059 153.126L178.254 146.875ZM177.145 150.069C177.155 150.189 177.165 150.309 177.175 150.428L187.138 149.573C187.13 149.473 187.121 149.372 187.113 149.271L177.145 150.069ZM72.1777 154.67H182.129V144.67H72.1777V154.67ZM76.0972 146.57C76.079 146.548 76.1147 146.591 76.1564 146.644C76.2037 146.705 76.284 146.812 76.3753 146.953L67.9802 152.387C68.0901 152.556 68.1903 152.69 68.2582 152.778C68.3206 152.858 68.3778 152.927 68.3811 152.931L76.0972 146.57ZM76.3763 146.934C76.2347 146.733 76.0977 146.571 76.0976 146.571L68.3808 152.931C68.3945 152.947 68.373 152.921 68.3472 152.889C68.3179 152.852 68.2668 152.786 68.206 152.7L76.3763 146.934ZM81.1012 157.33C81.4273 155.585 80.8739 154.077 80.6169 153.435C80.2821 152.599 79.83 151.79 79.3926 151.084C78.5073 149.656 77.3319 148.1 76.1805 146.675L68.4017 152.959C69.4538 154.261 70.3302 155.445 70.8936 156.354C71.1806 156.817 71.3023 157.075 71.3339 157.154C71.3479 157.188 71.3017 157.085 71.2605 156.872C71.2237 156.682 71.1441 156.175 71.2713 155.494L81.1012 157.33ZM72.1689 163.769C73.6804 163.374 75.2722 162.889 76.5948 162.295C77.2434 162.003 78.0413 161.592 78.7739 161.017C79.3936 160.531 80.7116 159.354 81.096 157.357L71.2765 155.467C71.4318 154.66 71.7757 154.083 72.0282 153.747C72.2768 153.416 72.5055 153.225 72.6001 153.151C72.7701 153.017 72.7916 153.04 72.497 153.173C71.9334 153.426 70.9723 153.746 69.643 154.093L72.1689 163.769ZM70.8967 163.931H70.9059V153.931H70.8967V163.931ZM68.5602 164.596C69.7796 164.347 71.0021 164.065 72.1359 163.775L69.6576 154.087C68.6829 154.336 67.6192 154.582 66.5585 154.798L68.5602 164.596ZM70.7551 155.852L70.7522 155.849L64.3665 163.545L64.3694 163.547L70.7551 155.852ZM69.6575 154.09C68.6914 154.337 67.6259 154.58 66.5486 154.803L68.5759 164.596C69.7768 164.347 70.9953 164.07 72.1358 163.778L69.6575 154.09ZM74.0537 165.084C74.7251 163.541 75.2713 161.927 75.7264 160.228L66.067 157.64C65.7194 158.938 65.3283 160.074 64.8848 161.092L74.0537 165.084ZM75.8262 180.624C77.1758 179.364 77.5422 177.803 77.6688 177.07C77.8187 176.203 77.8153 175.352 77.7745 174.66C77.6918 173.255 77.3993 171.681 77.0465 170.194C76.3324 167.182 75.1823 163.745 74.0703 161.131L64.8682 165.045C65.7664 167.157 66.7367 170.056 67.3163 172.501C67.6104 173.741 67.7581 174.676 67.7918 175.248C67.8093 175.545 67.7832 175.551 67.8148 175.368C67.8231 175.32 67.9757 174.273 69.0012 173.315L75.8262 180.624ZM58.6084 177.561C60.9456 178.698 63.76 180.02 66.1843 180.93C67.3708 181.376 68.6811 181.806 69.898 182.028C70.4976 182.137 71.2995 182.238 72.1653 182.174C72.9475 182.115 74.4943 181.87 75.8293 180.621L68.9981 173.318C70.0603 172.324 71.185 172.219 71.4191 172.201C71.7368 172.178 71.8646 172.221 71.6875 172.189C71.3512 172.128 70.698 171.943 69.6983 171.568C67.7502 170.837 65.3011 169.697 62.9832 168.569L58.6084 177.561ZM60.7866 178.065H60.7958V168.065H60.7866V178.065ZM55.1206 180.391C57.9891 179.797 60.7259 178.835 63.2363 177.424L58.3369 168.706C56.8449 169.545 55.1012 170.183 53.0909 170.599L55.1206 180.391ZM48.8328 189.585C50.9501 189.363 52.5622 188.297 53.6565 187.265C54.7461 186.236 55.5764 185.01 56.2066 183.882C57.4675 181.624 58.3599 178.969 58.9401 176.772L49.2714 174.219C48.7973 176.015 48.1635 177.775 47.4761 179.005C47.1322 179.621 46.8827 179.907 46.7934 179.991C46.7087 180.071 47.0424 179.718 47.7883 179.64L48.8328 189.585ZM37.4379 177.564C38.0775 179.495 39.0497 182.156 40.372 184.373C41.0289 185.474 41.9364 186.75 43.1657 187.766C44.4406 188.819 46.3832 189.836 48.8189 189.587L47.8022 179.638C48.8435 179.532 49.4779 180.009 49.5361 180.057C49.5487 180.068 49.3312 179.872 48.9599 179.249C48.2258 178.019 47.5293 176.227 46.9309 174.42L37.4379 177.564ZM39.609 180.758C40.3581 180.847 41.0824 180.913 41.7401 180.972L42.6286 171.012C41.9808 170.954 41.3812 170.898 40.788 170.827L39.609 180.758ZM36.9366 180.306C37.8526 180.517 38.7564 180.658 39.6167 180.759L40.7804 170.827C40.1758 170.756 39.6515 170.669 39.1884 170.562L36.9366 180.306ZM23.7303 184.504C25.0702 185.844 26.6816 186.172 27.727 186.22C28.7592 186.266 29.684 186.071 30.35 185.883C31.6969 185.503 33.0661 184.833 34.2415 184.175C36.6568 182.823 39.2879 180.926 41.2685 179.271L34.8564 171.597C33.2392 172.949 31.1171 174.464 29.3561 175.45C28.4433 175.961 27.8686 176.192 27.6324 176.259C27.5068 176.295 27.7302 176.21 28.1782 176.23C28.6395 176.251 29.784 176.416 30.8014 177.433L23.7303 184.504ZM23.0442 169.295C22.6045 171.219 22.0807 173.785 21.8388 176.109C21.7196 177.253 21.6466 178.536 21.7468 179.74C21.8192 180.609 22.0566 182.831 23.7303 184.504L30.8014 177.433C31.4173 178.049 31.6237 178.65 31.6742 178.81C31.7346 179.001 31.725 179.061 31.7124 178.91C31.6866 178.601 31.6939 178.019 31.785 177.144C31.9638 175.427 32.3807 173.327 32.7931 171.522L23.0442 169.295ZM10.4732 151.088C11.5901 154.864 15.5994 166.664 24.7211 174.252L31.1162 166.564C24.4183 160.993 21.0847 151.708 20.0626 148.252L10.4732 151.088ZM0 154.67H15.2679V144.67H0V154.67ZM-5 143.568V149.67H5V143.568H-5ZM26.1568 87.1179C11.2556 102.583 0.395883 121.465 -4.8494 142.35L4.8494 144.786C9.64379 125.696 19.5928 108.343 33.358 94.0565L26.1568 87.1179ZM34.6055 49.0907C31.3708 54.0562 26.9768 61.4363 24.3758 69.1525C21.8493 76.6473 20.534 85.9114 25.6221 93.3978L33.8927 87.7766C31.5491 84.3285 31.5852 79.0709 33.8519 72.3467C36.0439 65.8438 39.8845 59.3076 42.9844 54.549L34.6055 49.0907ZM48.876 53.346C48.876 45.7089 38.8638 42.5333 34.6016 49.0967L42.9883 54.543C41.7232 56.4911 38.876 55.473 38.876 53.346H48.876ZM54.5499 68.9831C50.1828 65.0298 48.8677 59.0094 48.876 53.3534L38.8761 53.3386C38.866 60.1067 40.3704 69.636 47.8388 76.3967L54.5499 68.9831ZM124.493 44.4213C96.1459 45.3606 69.9286 54.1541 48.4159 68.5329L53.9728 76.8468C73.9352 63.5042 98.3425 55.2933 124.824 54.4158L124.493 44.4213ZM122.639 30.0068C124.182 31.6243 124.716 33.9001 124.16 37.1444C123.595 40.441 121.997 43.981 120.311 46.9487L129.006 51.8884C130.932 48.4987 133.168 43.788 134.016 38.8328C134.874 33.8251 134.401 27.8479 129.873 23.1033L122.639 30.0068ZM99.1093 30.875C102.186 29.6442 107.091 27.9814 111.93 27.4879C116.941 26.9769 120.565 27.8332 122.638 30.0063L129.874 23.1038C124.558 17.5317 116.933 16.9259 110.915 17.5395C104.726 18.1706 98.8231 20.2191 95.3953 21.5903L99.1093 30.875ZM102.259 26.5431C102.259 26.3718 102.255 26.2011 102.248 26.0309L92.2563 26.4344C92.2578 26.4701 92.2585 26.5064 92.2585 26.5431H102.259ZM89.692 39.1096C96.6323 39.1096 102.259 33.4834 102.259 26.5431H92.2585C92.2585 27.9606 91.1095 29.1096 89.692 29.1096V39.1096ZM77.1255 26.5431C77.1255 33.4834 82.7517 39.1096 89.692 39.1096V29.1096C88.2746 29.1096 87.1255 27.9605 87.1255 26.5431H77.1255ZM89.692 13.9766C82.7517 13.9766 77.1255 19.6028 77.1255 26.5431H87.1255C87.1255 25.1256 88.2746 23.9766 89.692 23.9766V13.9766ZM99.8607 19.1588C97.585 16.0281 93.8778 13.9766 89.692 13.9766V23.9766C90.5425 23.9766 91.297 24.3852 91.7721 25.0387L99.8607 19.1588ZM133.027 20.0971C126.939 13.7162 118.569 12.5913 111.573 13.1138C104.517 13.6408 97.8738 15.8941 93.963 17.4549L97.6698 26.7425C101.175 25.3436 106.73 23.5033 112.318 23.086C117.966 22.6642 122.685 23.7442 125.792 27.0003L133.027 20.0971ZM135.875 47.7674C140.123 37.441 139.95 27.3532 133.027 20.097L125.792 27.0003C128.945 30.3048 130.047 35.6504 126.627 43.963L135.875 47.7674ZM134.112 51.6007C134.719 50.4047 135.319 49.1195 135.875 47.7674L126.627 43.963C126.184 45.04 125.698 46.0835 125.195 47.0745L134.112 51.6007ZM123.624 134.053C112.445 134.152 101.888 132.815 92.8752 130.326L90.2138 139.966C100.227 142.73 111.719 144.159 123.713 144.052L123.624 134.053ZM128.668 139.018L128.668 139.015L118.668 139.09L118.668 139.093L128.668 139.018ZM127.348 133.969C126.103 134.016 124.857 134.045 123.624 134.056L123.713 144.055C125.041 144.043 126.382 144.012 127.722 143.962L127.348 133.969ZM168.046 124.798C157.014 130.074 142.89 133.391 127.349 133.969L127.721 143.962C144.377 143.342 159.886 139.785 172.361 133.819L168.046 124.798ZM179.159 132.358L174.073 126.142L166.334 132.475L171.42 138.69L179.159 132.358ZM174.891 122.172L170.599 133.792L179.98 137.256L184.271 125.637L174.891 122.172ZM184.026 113.545C181.98 115.752 179.54 117.846 176.729 119.798L182.433 128.012C185.763 125.699 188.766 123.141 191.359 120.344L184.026 113.545ZM184.202 118.149C182.878 116.923 182.809 114.859 184.025 113.547L191.36 120.343C193.887 117.615 193.737 113.352 190.998 110.814L184.202 118.149ZM188.804 117.972C187.578 119.296 185.514 119.365 184.202 118.149L190.998 110.814C188.27 108.287 184.007 108.437 181.469 111.176L188.804 117.972ZM67.6766 125.077C74.2735 130.799 83.599 134.807 93.886 137.298C104.243 139.805 115.945 140.866 127.638 140.422C150.724 139.545 175.13 132.72 188.803 117.974L181.47 111.175C170.467 123.042 149.324 129.591 127.258 130.429C116.374 130.842 105.6 129.845 96.2392 127.579C86.8081 125.295 79.174 121.812 74.2286 117.523L67.6766 125.077ZM72.2666 124.756C71.0937 126.105 69.0418 126.259 67.6802 125.081L74.2249 117.52C71.4055 115.079 67.1546 115.394 64.7196 118.195L72.2666 124.756ZM71.9487 120.161C73.298 121.334 73.4522 123.386 72.2736 124.748L64.7127 118.203C62.2722 121.022 62.587 125.273 65.388 127.708L71.9487 120.161ZM83.9271 127.265C79.0259 125.212 74.9914 122.8 71.9439 120.157L65.3928 127.712C69.4262 131.21 74.4375 134.132 80.0649 136.489L83.9271 127.265ZM91.7048 137.31L86.1382 129.076L77.8538 134.677L83.4204 142.911L91.7048 137.31ZM87.6441 132.018L83.6623 136.982L91.463 143.239L95.4449 138.275L87.6441 132.018ZM62.3831 100.485C62.9993 110.764 71.8565 118.615 82.1316 118L81.5332 108.017C76.7696 108.303 72.6508 104.652 72.3651 99.8864L62.3831 100.485ZM79.8978 80.7362C69.619 81.3524 61.7669 90.2059 62.3831 100.485L72.3651 99.8864C72.0794 95.1205 75.7303 91.004 80.4962 90.7183L79.8978 80.7362ZM99.6464 98.251C99.0302 87.9721 90.1767 80.12 79.8978 80.7362L80.4962 90.7183C85.2621 90.4326 89.3786 94.0835 89.6643 98.8494L99.6464 98.251ZM82.1316 118C92.4104 117.383 100.263 108.53 99.6464 98.251L89.6643 98.8494C89.95 103.615 86.2991 107.732 81.5332 108.017L82.1316 118ZM77.5842 99.5766C77.471 97.6893 78.922 96.0533 80.8092 95.9402L80.2109 85.9581C72.8106 86.4017 67.1585 92.7747 67.6021 100.175L77.5842 99.5766ZM81.2206 102.802C79.3333 102.915 77.6973 101.464 77.5842 99.5766L67.6021 100.175C68.0457 107.575 74.4187 113.227 81.8189 112.784L81.2206 102.802ZM82.1647 102.611C81.8725 102.715 81.5572 102.781 81.2205 102.802L81.8189 112.784C83.107 112.707 84.3496 112.448 85.5191 112.031L82.1647 102.611ZM77.9526 105.317C78.0701 107.277 78.8113 109.066 79.97 110.485L87.7138 104.157C87.8401 104.312 87.9223 104.513 87.9347 104.719L77.9526 105.317ZM86.4203 95.7698C81.4455 96.068 77.6544 100.343 77.9526 105.317L87.9347 104.719C87.9669 105.257 87.5568 105.72 87.0186 105.752L86.4203 95.7698ZM91.9791 97.2778C90.3974 96.2186 88.4612 95.6475 86.4203 95.7698L87.0186 105.752C86.8028 105.765 86.586 105.701 86.4147 105.587L91.9791 97.2778ZM84.4456 99.1653C84.4676 99.532 84.4318 99.8807 84.3492 100.208L94.0446 102.657C94.3752 101.348 94.5119 99.9718 94.4277 98.5669L84.4456 99.1653ZM80.8092 95.9402C82.6965 95.8271 84.3325 97.278 84.4456 99.1653L94.4277 98.5669C93.9841 91.1667 87.6111 85.5145 80.2109 85.9581L80.8092 95.9402ZM170.977 103.105C166.211 103.39 162.094 99.7396 161.809 94.9737L151.826 95.5721C152.443 105.851 161.296 113.703 171.575 113.087L170.977 103.105ZM179.108 93.9367C179.393 98.7002 175.742 102.819 170.977 103.105L171.575 113.087C181.855 112.471 189.706 103.613 189.09 93.3383L179.108 93.9367ZM169.94 85.8087C174.706 85.5229 178.822 89.1746 179.108 93.9367L189.09 93.3383C188.474 83.0618 179.62 75.2105 169.341 75.8266L169.94 85.8087ZM161.809 94.9737C161.523 90.2092 165.172 86.0945 169.94 85.8087L169.341 75.8266C159.064 76.4427 151.21 85.2918 151.826 95.5721L161.809 94.9737ZM169.654 81.0454C162.255 81.489 156.602 87.8609 157.045 95.2592L167.027 94.6608C166.915 92.7778 168.364 91.1407 170.253 91.0275L169.654 81.0454ZM183.871 93.6511C183.427 86.2486 177.052 80.602 169.654 81.0454L170.253 91.0275C172.142 90.9142 173.776 92.3646 173.889 94.2495L183.871 93.6511ZM183.493 97.7206C183.82 96.418 183.955 95.0487 183.871 93.6511L173.889 94.2496C173.911 94.6143 173.875 94.9613 173.794 95.2867L183.493 97.7206ZM176.387 100.77C176.163 100.783 175.939 100.714 175.765 100.592L181.522 92.4152C179.909 91.2803 177.906 90.661 175.789 90.7879L176.387 100.77ZM177.303 99.7371C177.336 100.275 176.926 100.738 176.387 100.77L175.789 90.7879C170.814 91.0861 167.023 95.3607 167.321 100.336L177.303 99.7371ZM177.068 99.1585C177.202 99.3147 177.291 99.522 177.303 99.7372L167.321 100.336C167.443 102.371 168.238 104.22 169.472 105.662L177.068 99.1585ZM171.262 107.868C172.542 107.791 173.776 107.535 174.939 107.124L171.602 97.6971C171.312 97.7999 170.998 97.8659 170.664 97.8859L171.262 107.868ZM157.045 95.2592C157.489 102.655 163.861 108.312 171.262 107.868L170.664 97.8859C168.778 97.999 167.14 96.5462 167.027 94.6608L157.045 95.2592Z" fill="white" mask="url(#path-1-outside-1_2002_70306)"/>
</g>
<defs>
<clipPath id="clip0_2002_70306">
<rect width="259.358" height="148" fill="white"/>
</clipPath>
</defs>
</svg>
