<svg width="336" height="21" viewBox="0 0 336 21" fill="none" xmlns="http://www.w3.org/2000/svg">
<path d="M5.32676 20L0.826758 0.679998H2.47676L6.46676 17.99L11.1468 2.63V0.679998H12.4968L17.3868 17.99L21.4068 0.679998H23.0268L18.5568 20H16.5768L12.1068 4.1L7.33676 20H5.32676ZM26.915 20V0.679998H39.545V2.03H28.565V9.68H38.495V11H28.565V18.68H39.545V20H26.915ZM43.1455 20V0.679998H51.6355C53.5355 0.679998 54.9055 1.12 55.7455 2C56.6055 2.88 57.0355 4.12 57.0355 5.72C57.0355 6.8 56.8055 7.7 56.3455 8.42C55.9055 9.14 55.2955 9.67 54.5155 10.01C55.5155 10.23 56.3155 10.7 56.9155 11.42C57.5155 12.14 57.8155 13.18 57.8155 14.54C57.8155 16.42 57.3455 17.8 56.4055 18.68C55.4655 19.56 54.0655 20 52.2055 20H43.1455ZM44.7955 9.38H51.7855C53.1455 9.38 54.0955 9.05 54.6355 8.39C55.1955 7.71 55.4755 6.85 55.4755 5.81C55.4755 4.57 55.1855 3.63 54.6055 2.99C54.0455 2.33 52.9355 2 51.2755 2H44.7955V9.38ZM44.7955 18.71H52.0555C53.4755 18.71 54.5155 18.39 55.1755 17.75C55.8555 17.09 56.1955 16 56.1955 14.48C56.1955 13.24 55.8655 12.3 55.2055 11.66C54.5655 11 53.3655 10.67 51.6055 10.67H44.7955V18.71ZM66.3015 20.3C63.9815 20.3 62.1115 20.02 60.6915 19.46V17.99C62.3515 18.59 64.1815 18.89 66.1815 18.89C68.0615 18.89 69.4815 18.6 70.4415 18.02C71.4015 17.44 71.8815 16.46 71.8815 15.08C71.8815 14.24 71.6915 13.56 71.3115 13.04C70.9315 12.52 70.3215 12.09 69.4815 11.75C68.6615 11.39 67.5515 11.06 66.1515 10.76C64.6715 10.42 63.4915 10.03 62.6115 9.59C61.7515 9.13 61.1315 8.57 60.7515 7.91C60.3915 7.25 60.2115 6.47 60.2115 5.57C60.2115 4.01 60.7715 2.76 61.8915 1.82C63.0315 0.859999 64.7815 0.379999 67.1415 0.379999C68.2215 0.379999 69.2315 0.459999 70.1715 0.619999C71.1115 0.779999 71.8315 0.939999 72.3315 1.1V2.57C70.8915 2.07 69.2715 1.82 67.4715 1.82C65.6515 1.82 64.2515 2.12 63.2715 2.72C62.3115 3.3 61.8315 4.25 61.8315 5.57C61.8315 6.31 61.9915 6.92 62.3115 7.4C62.6515 7.86 63.2215 8.25 64.0215 8.57C64.8215 8.89 65.9215 9.22 67.3215 9.56C68.9015 9.92 70.1315 10.36 71.0115 10.88C71.9115 11.38 72.5515 11.98 72.9315 12.68C73.3115 13.36 73.5015 14.16 73.5015 15.08C73.5015 16.8 72.8915 18.1 71.6715 18.98C70.4515 19.86 68.6615 20.3 66.3015 20.3ZM77.3936 20V0.679998H79.0436V20H77.3936ZM89.0059 20V2.03H82.3459V0.679998H97.3159V2.03H90.6559V20H89.0059ZM100.626 20V0.679998H113.256V2.03H102.276V9.68H112.206V11H102.276V18.68H113.256V20H100.626ZM132.197 20.3C130.157 20.3 128.477 19.91 127.157 19.13C125.857 18.33 124.887 17.23 124.247 15.83C123.627 14.41 123.317 12.76 123.317 10.88C123.317 8.78 123.607 6.95 124.187 5.39C124.767 3.81 125.707 2.58 127.007 1.7C128.307 0.819999 130.027 0.379999 132.167 0.379999C133.267 0.379999 134.267 0.459999 135.167 0.619999C136.087 0.759999 136.927 0.969999 137.687 1.25V2.72C136.927 2.44 136.087 2.22 135.167 2.06C134.267 1.9 133.317 1.82 132.317 1.82C130.457 1.82 128.987 2.2 127.907 2.96C126.827 3.7 126.057 4.75 125.597 6.11C125.157 7.45 124.937 9.04 124.937 10.88C124.937 13.4 125.527 15.37 126.707 16.79C127.887 18.19 129.787 18.89 132.407 18.89C133.287 18.89 134.197 18.82 135.137 18.68C136.077 18.54 136.927 18.34 137.687 18.08V19.55C136.927 19.79 136.087 19.97 135.167 20.09C134.267 20.23 133.277 20.3 132.197 20.3ZM149.067 20.3C146.087 20.3 143.897 19.46 142.497 17.78C141.097 16.1 140.397 13.65 140.397 10.43C140.397 6.97 141.097 4.43 142.497 2.81C143.897 1.19 146.087 0.379999 149.067 0.379999C152.047 0.379999 154.237 1.19 155.637 2.81C157.037 4.43 157.737 6.97 157.737 10.43C157.737 13.65 157.037 16.1 155.637 17.78C154.237 19.46 152.047 20.3 149.067 20.3ZM149.067 18.89C151.447 18.89 153.207 18.21 154.347 16.85C155.507 15.49 156.087 13.35 156.087 10.43C156.087 8.31 155.827 6.62 155.307 5.36C154.807 4.1 154.037 3.2 152.997 2.66C151.957 2.1 150.647 1.82 149.067 1.82C147.487 1.82 146.167 2.1 145.107 2.66C144.067 3.2 143.287 4.1 142.767 5.36C142.267 6.62 142.017 8.31 142.017 10.43C142.017 13.35 142.597 15.49 143.757 16.85C144.917 18.21 146.687 18.89 149.067 18.89ZM161.651 20V0.679998H168.911C170.771 0.679998 172.271 1.02 173.411 1.7C174.551 2.36 175.381 3.41 175.901 4.85C176.441 6.29 176.711 8.17 176.711 10.49C176.711 13.77 176.111 16.18 174.911 17.72C173.731 19.24 171.731 20 168.911 20H161.651ZM163.301 18.68H168.551C170.011 18.68 171.221 18.46 172.181 18.02C173.141 17.58 173.861 16.77 174.341 15.59C174.821 14.41 175.061 12.71 175.061 10.49C175.061 8.29 174.841 6.58 174.401 5.36C173.981 4.12 173.291 3.26 172.331 2.78C171.391 2.28 170.131 2.03 168.551 2.03H163.301V18.68ZM180.606 20V0.679998H193.236V2.03H182.256V9.68H192.186V11H182.256V18.68H193.236V20H180.606ZM196.837 20V0.679998H204.097C205.957 0.679998 207.457 1.02 208.597 1.7C209.737 2.36 210.567 3.41 211.087 4.85C211.627 6.29 211.897 8.17 211.897 10.49C211.897 13.77 211.297 16.18 210.097 17.72C208.917 19.24 206.917 20 204.097 20H196.837ZM198.487 18.68H203.737C205.197 18.68 206.407 18.46 207.367 18.02C208.327 17.58 209.047 16.77 209.527 15.59C210.007 14.41 210.247 12.71 210.247 10.49C210.247 8.29 210.027 6.58 209.587 5.36C209.167 4.12 208.477 3.26 207.517 2.78C206.577 2.28 205.317 2.03 203.737 2.03H198.487V18.68ZM222.853 20V0.679998H231.343C233.243 0.679998 234.613 1.12 235.453 2C236.313 2.88 236.743 4.12 236.743 5.72C236.743 6.8 236.513 7.7 236.053 8.42C235.613 9.14 235.003 9.67 234.223 10.01C235.223 10.23 236.023 10.7 236.623 11.42C237.223 12.14 237.523 13.18 237.523 14.54C237.523 16.42 237.053 17.8 236.113 18.68C235.173 19.56 233.773 20 231.913 20H222.853ZM224.503 9.38H231.493C232.853 9.38 233.803 9.05 234.343 8.39C234.903 7.71 235.183 6.85 235.183 5.81C235.183 4.57 234.893 3.63 234.313 2.99C233.753 2.33 232.643 2 230.983 2H224.503V9.38ZM224.503 18.71H231.763C233.183 18.71 234.223 18.39 234.883 17.75C235.563 17.09 235.903 16 235.903 14.48C235.903 13.24 235.573 12.3 234.913 11.66C234.273 11 233.073 10.67 231.313 10.67H224.503V18.71ZM245.441 20V12.77L238.571 0.679998H240.281L246.281 11.33L252.281 0.679998H253.991L247.091 12.77V20H245.441ZM273.232 20.3C271.192 20.3 269.512 19.91 268.192 19.13C266.892 18.33 265.922 17.23 265.282 15.83C264.662 14.41 264.352 12.76 264.352 10.88C264.352 8.78 264.642 6.95 265.222 5.39C265.802 3.81 266.742 2.58 268.042 1.7C269.342 0.819999 271.062 0.379999 273.202 0.379999C274.302 0.379999 275.302 0.459999 276.202 0.619999C277.122 0.759999 277.962 0.969999 278.722 1.25V2.72C277.962 2.44 277.122 2.22 276.202 2.06C275.302 1.9 274.352 1.82 273.352 1.82C271.492 1.82 270.022 2.2 268.942 2.96C267.862 3.7 267.092 4.75 266.632 6.11C266.192 7.45 265.972 9.04 265.972 10.88C265.972 13.4 266.562 15.37 267.742 16.79C268.922 18.19 270.822 18.89 273.442 18.89C274.322 18.89 275.232 18.82 276.172 18.68C277.112 18.54 277.962 18.34 278.722 18.08V19.55C277.962 19.79 277.122 19.97 276.202 20.09C275.302 20.23 274.312 20.3 273.232 20.3ZM282.618 20V0.679998H284.268V9.68H295.368V0.679998H297.018V20H295.368V11H284.268V20H282.618ZM300.915 20L308.235 0.679998H310.335L317.625 20H315.945L313.815 14.36H304.755L302.625 20H300.915ZM305.115 13.01H313.425L309.255 2L305.115 13.01ZM321.524 20V0.679998H323.174V10.94L332.984 0.679998H334.994L327.644 8.36L335.174 20H333.374L326.624 9.44L323.174 13.07V20H321.524Z" fill="white"/>
</svg>
