<svg width="563" height="27" viewBox="0 0 563 27" fill="none" xmlns="http://www.w3.org/2000/svg">
<path d="M0.672448 26L10.023 1.52144H14.6602L23.9347 26H19.6775L17.2449 19.6903H7.40025L4.9676 26H0.672448ZM8.04642 16.4975H16.5607L12.3036 5.28445L8.04642 16.4975ZM28.0092 26V1.52144H31.6582L44.4296 19.5383V1.52144H48.5347V26H44.8857L32.1523 8.02118V26H28.0092ZM72.5747 26.3801C69.2044 26.3801 66.5817 25.5692 64.7065 23.9474C62.8567 22.3257 61.9318 19.9817 61.9318 16.9156V1.52144H66.0749V16.7635C66.0749 18.8161 66.6324 20.3492 67.7474 21.3628C68.8877 22.3764 70.4968 22.8832 72.5747 22.8832C74.6272 22.8832 76.211 22.3764 77.3259 21.3628C78.4662 20.3492 79.0364 18.8161 79.0364 16.7635V1.52144H83.1415V16.9156C83.1415 19.9817 82.2166 22.3257 80.3667 23.9474C78.5169 25.5692 75.9196 26.3801 72.5747 26.3801ZM85.6377 26L94.38 13.7987L85.8277 1.52144H90.617L96.8507 10.6059L103.084 1.52144H107.912L99.3214 13.7987L108.064 26H103.198L96.8507 17.0296L90.503 26H85.6377ZM120.122 26L129.016 0.837255H133.235L124.341 26H120.122ZM156.464 26.3801C153.094 26.3801 150.471 25.5692 148.596 23.9474C146.746 22.3257 145.821 19.9817 145.821 16.9156V1.52144H149.965V16.7635C149.965 18.8161 150.522 20.3492 151.637 21.3628C152.777 22.3764 154.386 22.8832 156.464 22.8832C158.517 22.8832 160.101 22.3764 161.216 21.3628C162.356 20.3492 162.926 18.8161 162.926 16.7635V1.52144H167.031V16.9156C167.031 19.9817 166.106 22.3257 164.256 23.9474C162.407 25.5692 159.809 26.3801 156.464 26.3801ZM171.624 26V1.52144H175.767V26H171.624ZM197.312 26.3801C194.677 26.3801 192.561 25.8099 190.964 24.6696C189.368 23.504 188.57 21.9583 188.57 20.0324C188.57 18.3093 189.076 16.8522 190.09 15.6612C191.129 14.4702 192.535 13.3933 194.309 12.4304C193.321 11.5435 192.523 10.6692 191.914 9.80766C191.332 8.9461 191.04 7.93249 191.04 6.76684C191.04 5.17042 191.61 3.84006 192.751 2.77578C193.891 1.68615 195.462 1.14134 197.464 1.14134C199.44 1.14134 200.986 1.66081 202.101 2.69976C203.241 3.71336 203.812 5.06906 203.812 6.76684C203.812 8.08453 203.495 9.21217 202.861 10.1498C202.228 11.0873 201.214 12.0123 199.821 12.9245L205.446 18.664C205.852 17.8025 206.054 16.7889 206.054 15.6232V14.977H209.209V15.6992C209.209 16.6622 209.082 17.6124 208.829 18.55C208.576 19.4622 208.233 20.2605 207.803 20.9446L210.882 24.0615L208.373 26.3421L205.636 23.6054C204.699 24.5683 203.52 25.2778 202.101 25.7339C200.682 26.1647 199.086 26.3801 197.312 26.3801ZM197.236 11.138C198.326 10.4285 199.136 9.79499 199.669 9.23751C200.201 8.68002 200.467 7.91982 200.467 6.9569C200.467 6.06999 200.226 5.37314 199.745 4.86633C199.288 4.33419 198.528 4.06812 197.464 4.06812C196.374 4.06812 195.589 4.34686 195.107 4.90435C194.626 5.46183 194.385 6.14601 194.385 6.9569C194.385 7.74244 194.613 8.45196 195.069 9.08547C195.551 9.69363 196.273 10.3778 197.236 11.138ZM197.312 23.4913C199.846 23.4913 201.784 22.7691 203.127 21.3247L196.78 14.901C195.361 15.4838 194.296 16.1807 193.587 16.9916C192.903 17.7771 192.561 18.7654 192.561 19.9564C192.561 21.122 193.004 22.0089 193.891 22.6171C194.778 23.1999 195.918 23.4913 197.312 23.4913ZM223.48 26V1.52144H234.388C236.264 1.52144 237.809 1.8762 239.026 2.58572C240.242 3.29525 241.142 4.27084 241.724 5.51251C242.307 6.72883 242.599 8.12254 242.599 9.69363C242.599 12.1263 241.838 14.0775 240.318 15.5472C238.823 17.0169 236.796 17.7518 234.236 17.7518H227.623V26H223.48ZM227.623 14.4829H233.476C235.123 14.4829 236.365 14.0521 237.201 13.1906C238.037 12.329 238.456 11.1634 238.456 9.69363C238.456 8.12254 238.05 6.90622 237.239 6.04465C236.454 5.18309 235.263 4.75231 233.666 4.75231H227.623V14.4829ZM245.9 26V1.52144H257.151C259.887 1.52144 261.877 2.23096 263.118 3.65001C264.385 5.04372 265.019 6.94423 265.019 9.35154C265.019 11.0747 264.588 12.5444 263.726 13.7607C262.865 14.977 261.623 15.8259 260.001 16.3074C260.458 16.6368 260.812 16.9916 261.066 17.3717C261.319 17.7518 261.572 18.2586 261.826 18.8921L264.905 26H260.648L257.645 19.1582C257.366 18.4993 257.024 18.0305 256.618 17.7518C256.238 17.473 255.58 17.3337 254.642 17.3337H250.043V26H245.9ZM250.043 13.9888H256.048C257.543 13.9888 258.722 13.6213 259.583 12.8865C260.445 12.1516 260.876 10.9733 260.876 9.35154C260.876 6.28538 259.393 4.75231 256.428 4.75231H250.043V13.9888ZM279.375 26.3801C275.498 26.3801 272.597 25.3665 270.671 23.3393C268.745 21.2867 267.782 18.1192 267.782 13.8367C267.782 9.37688 268.745 6.14601 270.671 4.14414C272.597 2.14227 275.498 1.14134 279.375 1.14134C283.278 1.14134 286.179 2.14227 288.08 4.14414C290.005 6.14601 290.968 9.37688 290.968 13.8367C290.968 18.1192 290.005 21.2867 288.08 23.3393C286.179 25.3665 283.278 26.3801 279.375 26.3801ZM279.375 22.8832C281.935 22.8832 283.81 22.1863 285.001 20.7926C286.217 19.3736 286.825 17.0549 286.825 13.8367C286.825 10.4412 286.217 8.07186 285.001 6.72883C283.81 5.36047 281.935 4.67628 279.375 4.67628C276.841 4.67628 274.966 5.36047 273.75 6.72883C272.559 8.07186 271.963 10.4412 271.963 13.8367C271.963 17.0549 272.559 19.3736 273.75 20.7926C274.966 22.1863 276.841 22.8832 279.375 22.8832ZM295.008 26V1.52144H304.929C308.553 1.52144 311.239 2.48436 312.987 4.41021C314.736 6.31072 315.61 9.47824 315.61 13.9128C315.61 18.0939 314.748 21.16 313.025 23.1112C311.302 25.0371 308.603 26 304.929 26H295.008ZM299.152 22.8071H304.283C305.879 22.8071 307.21 22.5791 308.274 22.123C309.338 21.6415 310.137 20.7546 310.669 19.4622C311.201 18.1699 311.467 16.3201 311.467 13.9128C311.467 11.5054 311.226 9.64295 310.745 8.32526C310.263 7.00758 309.49 6.08266 308.426 5.55052C307.387 5.01838 306.006 4.75231 304.283 4.75231H299.152V22.8071ZM330.146 26.3801C326.775 26.3801 324.153 25.5692 322.278 23.9474C320.428 22.3257 319.503 19.9817 319.503 16.9156V1.52144H323.646V16.7635C323.646 18.8161 324.203 20.3492 325.318 21.3628C326.459 22.3764 328.068 22.8832 330.146 22.8832C332.198 22.8832 333.782 22.3764 334.897 21.3628C336.037 20.3492 336.607 18.8161 336.607 16.7635V1.52144H340.712V16.9156C340.712 19.9817 339.788 22.3257 337.938 23.9474C336.088 25.5692 333.491 26.3801 330.146 26.3801ZM356.784 26.3801C352.755 26.3801 349.702 25.2778 347.624 23.0732C345.571 20.8686 344.545 17.8912 344.545 14.1408C344.545 11.4548 344.976 9.14882 345.837 7.22297C346.724 5.27178 348.067 3.77671 349.866 2.73776C351.666 1.67348 353.959 1.14134 356.746 1.14134C358.165 1.14134 359.458 1.25537 360.623 1.48343C361.814 1.68615 362.917 1.96489 363.93 2.31965V5.93062C362.917 5.52518 361.827 5.2211 360.661 5.01838C359.521 4.79031 358.317 4.67628 357.05 4.67628C354.009 4.67628 351.856 5.48717 350.589 7.10894C349.347 8.73071 348.726 11.0747 348.726 14.1408C348.726 17.0043 349.41 19.1835 350.779 20.6786C352.147 22.1483 354.263 22.8832 357.126 22.8832C358.292 22.8832 359.458 22.7945 360.623 22.6171C361.814 22.4144 362.929 22.1103 363.968 21.7048V25.3538C362.955 25.6832 361.852 25.9366 360.661 26.114C359.496 26.2914 358.203 26.3801 356.784 26.3801ZM374.333 26V4.75231H366.503V1.52144H386.268V4.75231H378.476V26H374.333ZM398.349 26V1.52144H408.269C411.893 1.52144 414.579 2.48436 416.327 4.41021C418.076 6.31072 418.95 9.47824 418.95 13.9128C418.95 18.0939 418.089 21.16 416.365 23.1112C414.642 25.0371 411.944 26 408.269 26H398.349ZM402.492 22.8071H407.623C409.22 22.8071 410.55 22.5791 411.614 22.123C412.678 21.6415 413.477 20.7546 414.009 19.4622C414.541 18.1699 414.807 16.3201 414.807 13.9128C414.807 11.5054 414.566 9.64295 414.085 8.32526C413.603 7.00758 412.831 6.08266 411.766 5.55052C410.727 5.01838 409.346 4.75231 407.623 4.75231H402.492V22.8071ZM423.033 26V1.52144H440.1V4.75231H427.176V12.1643H438.693V15.3571H427.176V22.8071H440.1V26H423.033ZM450.601 26.3801C447.433 26.3801 444.887 25.9747 442.961 25.1638V21.5148C444.05 21.9202 445.216 22.2497 446.458 22.5031C447.725 22.7565 448.979 22.8832 450.221 22.8832C452.172 22.8832 453.629 22.6551 454.592 22.199C455.58 21.7429 456.074 20.8306 456.074 19.4622C456.074 18.626 455.872 17.9545 455.466 17.4477C455.061 16.9409 454.389 16.5101 453.452 16.1554C452.514 15.7753 451.222 15.3825 449.575 14.977C446.939 14.2929 445.089 13.4313 444.025 12.3924C442.961 11.3281 442.429 9.87101 442.429 8.02118C442.429 5.86727 443.214 4.18215 444.785 2.96583C446.356 1.7495 448.7 1.14134 451.817 1.14134C453.236 1.14134 454.567 1.2427 455.808 1.44542C457.075 1.64814 458.063 1.8762 458.773 2.1296V5.77858C456.847 5.04372 454.719 4.67628 452.387 4.67628C450.563 4.67628 449.144 4.91702 448.13 5.39848C447.117 5.87994 446.61 6.75418 446.61 8.02118C446.61 8.75604 446.787 9.35154 447.142 9.80766C447.497 10.2638 448.105 10.6566 448.966 10.986C449.853 11.3154 451.07 11.6828 452.615 12.0883C454.617 12.5951 456.163 13.2032 457.253 13.9128C458.368 14.5969 459.14 15.4078 459.571 16.3454C460.027 17.2577 460.255 18.2966 460.255 19.4622C460.255 21.6162 459.457 23.3139 457.861 24.5556C456.264 25.7719 453.844 26.3801 450.601 26.3801ZM464.273 26V1.52144H468.416V26H464.273ZM484.621 26.3801C480.592 26.3801 477.552 25.2905 475.499 23.1112C473.472 20.932 472.458 17.9799 472.458 14.2549C472.458 11.5688 472.902 9.25018 473.788 7.29899C474.675 5.32246 476.018 3.80205 477.818 2.73776C479.642 1.67348 481.948 1.14134 484.735 1.14134C486.18 1.14134 487.485 1.2427 488.65 1.44542C489.841 1.6228 490.956 1.88887 491.995 2.24363V5.81659C489.917 5.05639 487.612 4.67628 485.078 4.67628C481.961 4.67628 479.769 5.49984 478.502 7.14695C477.26 8.79406 476.639 11.1634 476.639 14.2549C476.639 17.0676 477.298 19.2088 478.616 20.6786C479.933 22.1483 481.973 22.8832 484.735 22.8832C486.915 22.8832 488.676 22.6298 490.019 22.123V15.2811H483.899V12.5824H493.554V24.3656C492.768 24.8724 491.641 25.3412 490.171 25.7719C488.726 26.1774 486.877 26.3801 484.621 26.3801ZM497.569 26V1.52144H501.218L513.989 19.5383V1.52144H518.094V26H514.445L501.712 8.02118V26H497.569ZM522.921 26V1.52144H539.988V4.75231H527.064V12.1643H538.581V15.3571H527.064V22.8071H539.988V26H522.921ZM543.819 26V1.52144H555.07C557.807 1.52144 559.796 2.23096 561.038 3.65001C562.305 5.04372 562.938 6.94423 562.938 9.35154C562.938 11.0747 562.508 12.5444 561.646 13.7607C560.784 14.977 559.543 15.8259 557.921 16.3074C558.377 16.6368 558.732 16.9916 558.985 17.3717C559.239 17.7518 559.492 18.2586 559.746 18.8921L562.824 26H558.567L555.564 19.1582C555.286 18.4993 554.944 18.0305 554.538 17.7518C554.158 17.473 553.499 17.3337 552.562 17.3337H547.962V26H543.819ZM547.962 13.9888H553.968C555.463 13.9888 556.641 13.6213 557.503 12.8865C558.364 12.1516 558.795 10.9733 558.795 9.35154C558.795 6.28538 557.313 4.75231 554.348 4.75231H547.962V13.9888Z" fill="#F5F7FB"/>
</svg>
