<svg width="866" height="55" viewBox="0 0 866 55" fill="none" xmlns="http://www.w3.org/2000/svg">
<path d="M0.674896 54V1.40815H16.0278V21.0076H34.1573V1.40815H49.5102V54H34.1573V34.4006H16.0278V54H0.674896ZM56.8989 54V1.40815H72.2518V54H56.8989ZM106.992 54L94.742 1.40815H109.768L115.73 29.2557L121.528 9.3296V1.40815H134.104L142.107 29.3374L148.396 1.40815H163.422L151.254 54H137.371L129.449 26.8058L120.875 54H106.992ZM169.108 54V1.40815H208.96V13.1678H184.461V21.7426H205.938V33.6656H184.461V42.2403H208.96V54H169.108ZM213.848 54V1.40815H229.2V42.2403H252.883V54H213.848ZM283.879 54.8166C274.352 54.8166 267.084 52.4756 262.075 47.7935C257.066 43.1114 254.562 36.4966 254.562 27.9491C254.562 19.1293 257.012 12.3784 261.911 7.69631C266.811 2.95978 274.107 0.59151 283.798 0.59151C287.064 0.59151 289.977 0.836503 292.536 1.32649C295.094 1.81648 297.544 2.49701 299.885 3.3681V16.7611C295.203 14.6922 290.195 13.6578 284.859 13.6578C279.905 13.6578 276.23 14.8011 273.834 17.0877C271.439 19.3199 270.241 22.9403 270.241 27.9491C270.241 32.8489 271.493 36.3877 273.998 38.5654C276.557 40.6887 280.232 41.7503 285.023 41.7503C287.636 41.7503 290.167 41.5054 292.617 41.0154C295.122 40.5254 297.599 39.7632 300.049 38.7288V52.2034C297.708 53.02 295.231 53.6461 292.617 54.0817C290.058 54.5717 287.146 54.8166 283.879 54.8166ZM330.236 54.8166C321.526 54.8166 314.856 52.6934 310.229 48.4468C305.656 44.2003 303.369 37.3405 303.369 27.8674C303.369 21.3343 304.403 16.0805 306.472 12.1062C308.541 8.07741 311.563 5.16472 315.537 3.3681C319.566 1.51704 324.466 0.59151 330.236 0.59151C336.007 0.59151 340.88 1.51704 344.854 3.3681C348.883 5.16472 351.932 8.07741 354.001 12.1062C356.07 16.0805 357.104 21.3343 357.104 27.8674C357.104 37.3405 354.79 44.2003 350.163 48.4468C345.535 52.6934 338.893 54.8166 330.236 54.8166ZM330.236 41.7503C334.156 41.7503 336.987 40.6615 338.73 38.4838C340.526 36.2516 341.425 32.7128 341.425 27.8674C341.425 22.6953 340.526 19.0477 338.73 16.9244C336.987 14.7467 334.156 13.6578 330.236 13.6578C326.317 13.6578 323.458 14.7467 321.662 16.9244C319.92 19.0477 319.048 22.6953 319.048 27.8674C319.048 32.7128 319.92 36.2516 321.662 38.4838C323.458 40.6615 326.317 41.7503 330.236 41.7503ZM362.821 54V1.40815H377.766L390.832 28.1124L403.817 1.40815H418.68V54H403.327V27.7041L394.915 45.0169H386.667L378.174 27.7041V54H362.821ZM426.063 54V1.40815H465.915V13.1678H441.416V21.7426H462.894V33.6656H441.416V42.2403H465.915V54H426.063ZM486.734 38.9738L486.244 15.5361V1.40815H501.597V15.5361L501.107 38.9738H486.734ZM485.917 54V43.1386H501.924V54H485.917ZM524.395 54V1.40815H539.748V54H524.395ZM545.491 19.3743L550.554 0.59151H563.375L557.006 19.3743H545.491ZM569.056 54V1.40815H584L597.066 28.1124L610.051 1.40815H624.914V54H609.561V27.7041L601.15 45.0169H592.902L584.408 27.7041V54H569.056ZM676.729 54.8166C667.202 54.8166 659.934 52.4756 654.925 47.7935C649.916 43.1114 647.412 36.4966 647.412 27.9491C647.412 19.1293 649.862 12.3784 654.762 7.69631C659.662 2.95978 666.957 0.59151 676.648 0.59151C679.914 0.59151 682.827 0.836503 685.386 1.32649C687.945 1.81648 690.395 2.49701 692.736 3.3681V16.7611C688.054 14.6922 683.045 13.6578 677.709 13.6578C672.755 13.6578 669.08 14.8011 666.685 17.0877C664.289 19.3199 663.091 22.9403 663.091 27.9491C663.091 32.8489 664.344 36.3877 666.848 38.5654C669.407 40.6887 673.082 41.7503 677.873 41.7503C680.486 41.7503 683.018 41.5054 685.467 41.0154C687.972 40.5254 690.449 39.7632 692.899 38.7288V52.2034C690.558 53.02 688.081 53.6461 685.467 54.0817C682.909 54.5717 679.996 54.8166 676.729 54.8166ZM698.65 54V1.40815H714.003V21.0076H732.132V1.40815H747.485V54H732.132V34.4006H714.003V54H698.65ZM753.241 54L773.412 1.40815H789.663L809.834 54H793.828L789.418 42.812H773.575L769.247 54H753.241ZM775.617 31.7873H787.376L781.496 16.3527L775.617 31.7873ZM815.564 54V1.40815H830.917V19.946L846.841 1.40815H864.318L845.78 22.9675L865.624 54H849.291L836.307 32.7673L830.917 38.8104V54H815.564Z" fill="#F5F7FB"/>
</svg>
