<svg width="1090" height="319" viewBox="0 0 1090 319" fill="none" xmlns="http://www.w3.org/2000/svg">
<path d="M10.502 66V1.57209H29.3101V25.5825H51.5197V1.57209H70.3279V66H51.5197V41.9896H29.3101V66H10.502ZM79.3794 66V1.57209H98.1876V66H79.3794ZM140.746 66L125.739 1.57209H144.147L151.451 35.6869L158.554 11.2763V1.57209H173.96L183.765 35.7869L191.468 1.57209H209.876L194.969 66H177.962L168.258 32.6856L157.753 66H140.746ZM216.841 66V1.57209H265.662V15.9783H235.649V26.4829H261.961V41.0892H235.649V51.5938H265.662V66H216.841ZM271.65 66V1.57209H290.458V51.5938H319.471V66H271.65ZM357.443 67.0004C345.771 67.0004 336.867 64.1325 330.731 58.3967C324.595 52.6609 321.527 44.5574 321.527 34.0862C321.527 23.2815 324.529 15.0112 330.531 9.27543C336.534 3.47291 345.471 0.571655 357.343 0.571655C361.345 0.571655 364.913 0.871785 368.047 1.47204C371.182 2.07231 374.183 2.906 377.051 3.97313V20.3802C371.316 17.8458 365.18 16.5786 358.643 16.5786C352.574 16.5786 348.072 17.9792 345.138 20.7804C342.203 23.5149 340.736 27.9502 340.736 34.0862C340.736 40.0888 342.27 44.424 345.338 47.0918C348.472 49.6929 352.974 50.9935 358.843 50.9935C362.045 50.9935 365.146 50.6934 368.147 50.0931C371.215 49.4928 374.25 48.5591 377.251 47.2919V63.799C374.384 64.7995 371.349 65.5665 368.147 66.1C365.013 66.7003 361.445 67.0004 357.443 67.0004ZM414.233 67.0004C403.562 67.0004 395.392 64.3993 389.722 59.1971C384.12 53.9948 381.319 45.5912 381.319 33.9861C381.319 25.9827 382.586 19.5465 385.12 14.6778C387.655 9.7423 391.357 6.17408 396.225 3.97313C401.161 1.70548 407.163 0.571655 414.233 0.571655C421.303 0.571655 427.272 1.70548 432.141 3.97313C437.076 6.17408 440.811 9.7423 443.346 14.6778C445.88 19.5465 447.147 25.9827 447.147 33.9861C447.147 45.5912 444.313 53.9948 438.644 59.1971C432.975 64.3993 424.838 67.0004 414.233 67.0004ZM414.233 50.9935C419.035 50.9935 422.503 49.6596 424.638 46.9918C426.839 44.2572 427.939 39.922 427.939 33.9861C427.939 27.6501 426.839 23.1815 424.638 20.5803C422.503 17.9125 419.035 16.5786 414.233 16.5786C409.431 16.5786 405.929 17.9125 403.729 20.5803C401.594 23.1815 400.527 27.6501 400.527 33.9861C400.527 39.922 401.594 44.2572 403.729 46.9918C405.929 49.6596 409.431 50.9935 414.233 50.9935ZM454.151 66V1.57209H472.459L488.466 34.2863L504.373 1.57209H522.581V66H503.773V33.786L493.468 54.9952H483.364L472.959 33.786V66H454.151ZM531.626 66V1.57209H580.447V15.9783H550.434V26.4829H576.746V41.0892H550.434V51.5938H580.447V66H531.626ZM605.951 47.592L605.351 18.8796V1.57209H624.159V18.8796L623.559 47.592H605.951ZM604.951 66V52.6942H624.559V66H604.951Z" fill="#F5F7FB"/>
<path d="M22.8715 303.41C19.2326 303.41 16.4009 302.535 14.3762 300.784C12.379 299.033 11.3803 296.502 11.3803 293.191V276.57H15.8537V293.027C15.8537 295.243 16.4556 296.899 17.6594 297.993C18.8906 299.088 20.628 299.635 22.8715 299.635C25.0877 299.635 26.7977 299.088 28.0015 297.993C29.2327 296.899 29.8483 295.243 29.8483 293.027V276.57H34.2806V293.191C34.2806 296.502 33.282 299.033 31.2847 300.784C29.2874 302.535 26.483 303.41 22.8715 303.41ZM36.9758 303L46.415 289.826L37.181 276.57H42.352L49.0826 286.379L55.8131 276.57H61.0252L51.7502 289.826L61.1894 303H55.9363L49.0826 293.315L42.2289 303H36.9758ZM74.2083 303L83.8117 275.832H88.3671L78.7638 303H74.2083ZM113.448 303.41C109.809 303.41 106.977 302.535 104.953 300.784C102.955 299.033 101.957 296.502 101.957 293.191V276.57H106.43V293.027C106.43 295.243 107.032 296.899 108.236 297.993C109.467 299.088 111.204 299.635 113.448 299.635C115.664 299.635 117.374 299.088 118.578 297.993C119.809 296.899 120.425 295.243 120.425 293.027V276.57H124.857V293.191C124.857 296.502 123.858 299.033 121.861 300.784C119.864 302.535 117.06 303.41 113.448 303.41ZM129.816 303V276.57H134.289V303H129.816ZM157.552 303.41C154.706 303.41 152.422 302.795 150.698 301.564C148.974 300.305 148.112 298.636 148.112 296.557C148.112 294.696 148.66 293.123 149.754 291.837C150.876 290.551 152.394 289.388 154.309 288.349C153.242 287.391 152.38 286.447 151.724 285.517C151.095 284.587 150.78 283.492 150.78 282.234C150.78 280.51 151.396 279.074 152.627 277.925C153.858 276.748 155.554 276.16 157.716 276.16C159.85 276.16 161.519 276.721 162.723 277.843C163.954 278.937 164.569 280.401 164.569 282.234C164.569 283.656 164.227 284.874 163.543 285.886C162.859 286.899 161.765 287.897 160.26 288.882L166.334 295.079C166.772 294.149 166.991 293.055 166.991 291.796V291.098H170.397V291.878C170.397 292.918 170.26 293.944 169.987 294.956C169.713 295.941 169.344 296.803 168.879 297.542L172.203 300.907L169.494 303.369L166.539 300.414C165.527 301.454 164.255 302.22 162.723 302.713C161.19 303.178 159.467 303.41 157.552 303.41ZM157.469 286.953C158.646 286.187 159.521 285.503 160.096 284.901C160.671 284.299 160.958 283.479 160.958 282.439C160.958 281.481 160.698 280.729 160.178 280.182C159.686 279.607 158.865 279.32 157.716 279.32C156.539 279.32 155.691 279.621 155.171 280.223C154.651 280.825 154.391 281.563 154.391 282.439C154.391 283.287 154.638 284.053 155.13 284.737C155.65 285.394 156.43 286.133 157.469 286.953ZM157.552 300.291C160.288 300.291 162.381 299.512 163.831 297.952L156.977 291.016C155.445 291.646 154.296 292.398 153.53 293.274C152.791 294.122 152.422 295.189 152.422 296.475C152.422 297.733 152.9 298.691 153.858 299.347C154.816 299.977 156.047 300.291 157.552 300.291ZM185.805 303V276.57H197.583C199.608 276.57 201.277 276.953 202.59 277.719C203.904 278.485 204.875 279.539 205.504 280.879C206.133 282.193 206.448 283.698 206.448 285.394C206.448 288.02 205.627 290.127 203.986 291.714C202.371 293.301 200.183 294.094 197.419 294.094H190.278V303H185.805ZM190.278 290.565H196.598C198.377 290.565 199.718 290.1 200.62 289.17C201.523 288.239 201.975 286.981 201.975 285.394C201.975 283.698 201.537 282.384 200.661 281.454C199.813 280.524 198.527 280.059 196.804 280.059H190.278V290.565ZM210.012 303V276.57H222.16C225.115 276.57 227.263 277.336 228.603 278.869C229.971 280.373 230.655 282.425 230.655 285.024C230.655 286.885 230.19 288.472 229.26 289.785C228.33 291.098 226.989 292.015 225.238 292.535C225.73 292.89 226.113 293.274 226.387 293.684C226.661 294.094 226.934 294.642 227.208 295.326L230.532 303H225.936L222.693 295.613C222.393 294.901 222.023 294.395 221.585 294.094C221.175 293.793 220.464 293.643 219.451 293.643H214.485V303H210.012ZM214.485 290.031H220.97C222.584 290.031 223.856 289.635 224.787 288.841C225.717 288.048 226.182 286.776 226.182 285.024C226.182 281.714 224.581 280.059 221.38 280.059H214.485V290.031ZM246.156 303.41C241.97 303.41 238.837 302.316 236.758 300.127C234.679 297.911 233.639 294.491 233.639 289.867C233.639 285.052 234.679 281.563 236.758 279.402C238.837 277.241 241.97 276.16 246.156 276.16C250.37 276.16 253.502 277.241 255.554 279.402C257.634 281.563 258.673 285.052 258.673 289.867C258.673 294.491 257.634 297.911 255.554 300.127C253.502 302.316 250.37 303.41 246.156 303.41ZM246.156 299.635C248.92 299.635 250.944 298.882 252.23 297.378C253.543 295.845 254.2 293.342 254.2 289.867C254.2 286.201 253.543 283.643 252.23 282.193C250.944 280.715 248.92 279.977 246.156 279.977C243.42 279.977 241.396 280.715 240.082 282.193C238.796 283.643 238.153 286.201 238.153 289.867C238.153 293.342 238.796 295.845 240.082 297.378C241.396 298.882 243.42 299.635 246.156 299.635ZM263.035 303V276.57H273.747C277.659 276.57 280.56 277.61 282.447 279.689C284.335 281.741 285.279 285.161 285.279 289.949C285.279 294.464 284.349 297.774 282.488 299.881C280.628 301.96 277.714 303 273.747 303H263.035ZM267.509 299.553H273.049C274.773 299.553 276.209 299.306 277.358 298.814C278.508 298.294 279.369 297.336 279.944 295.941C280.518 294.546 280.806 292.548 280.806 289.949C280.806 287.35 280.546 285.339 280.026 283.916C279.506 282.494 278.672 281.495 277.523 280.92C276.401 280.346 274.91 280.059 273.049 280.059H267.509V299.553ZM300.973 303.41C297.334 303.41 294.503 302.535 292.478 300.784C290.481 299.033 289.482 296.502 289.482 293.191V276.57H293.956V293.027C293.956 295.243 294.557 296.899 295.761 297.993C296.992 299.088 298.73 299.635 300.973 299.635C303.19 299.635 304.9 299.088 306.103 297.993C307.335 296.899 307.95 295.243 307.95 293.027V276.57H312.382V293.191C312.382 296.502 311.384 299.033 309.387 300.784C307.389 302.535 304.585 303.41 300.973 303.41ZM329.735 303.41C325.385 303.41 322.088 302.22 319.845 299.84C317.629 297.46 316.52 294.245 316.52 290.196C316.52 287.295 316.986 284.806 317.916 282.726C318.873 280.62 320.323 279.005 322.266 277.884C324.209 276.734 326.685 276.16 329.694 276.16C331.226 276.16 332.622 276.283 333.88 276.529C335.166 276.748 336.356 277.049 337.451 277.432V281.331C336.356 280.893 335.18 280.565 333.921 280.346C332.69 280.1 331.391 279.977 330.023 279.977C326.739 279.977 324.414 280.852 323.046 282.603C321.705 284.354 321.035 286.885 321.035 290.196C321.035 293.287 321.774 295.64 323.251 297.254C324.728 298.841 327.013 299.635 330.105 299.635C331.363 299.635 332.622 299.539 333.88 299.347C335.166 299.129 336.37 298.8 337.492 298.362V302.302C336.397 302.658 335.207 302.932 333.921 303.123C332.663 303.315 331.267 303.41 329.735 303.41ZM348.683 303V280.059H340.228V276.57H361.569V280.059H353.156V303H348.683ZM374.613 303V276.57H385.324C389.237 276.57 392.137 277.61 394.025 279.689C395.913 281.741 396.856 285.161 396.856 289.949C396.856 294.464 395.926 297.774 394.066 299.881C392.205 301.96 389.291 303 385.324 303H374.613ZM379.086 299.553H384.627C386.35 299.553 387.787 299.306 388.936 298.814C390.085 298.294 390.947 297.336 391.521 295.941C392.096 294.546 392.383 292.548 392.383 289.949C392.383 287.35 392.123 285.339 391.603 283.916C391.084 282.494 390.249 281.495 389.1 280.92C387.978 280.346 386.487 280.059 384.627 280.059H379.086V299.553ZM401.265 303V276.57H419.692V280.059H405.738V288.061H418.173V291.509H405.738V299.553H419.692V303H401.265ZM431.03 303.41C427.61 303.41 424.86 302.973 422.781 302.097V298.157C423.957 298.595 425.216 298.951 426.557 299.224C427.925 299.498 429.279 299.635 430.62 299.635C432.726 299.635 434.299 299.388 435.339 298.896C436.406 298.404 436.94 297.419 436.94 295.941C436.94 295.038 436.721 294.313 436.283 293.766C435.845 293.219 435.12 292.754 434.108 292.371C433.096 291.96 431.7 291.536 429.922 291.098C427.076 290.36 425.079 289.429 423.93 288.308C422.781 287.159 422.206 285.585 422.206 283.588C422.206 281.262 423.055 279.443 424.751 278.13C426.447 276.817 428.978 276.16 432.343 276.16C433.875 276.16 435.312 276.269 436.652 276.488C438.02 276.707 439.087 276.953 439.854 277.227V281.167C437.774 280.373 435.476 279.977 432.959 279.977C430.989 279.977 429.457 280.236 428.362 280.756C427.268 281.276 426.721 282.22 426.721 283.588C426.721 284.382 426.912 285.024 427.295 285.517C427.678 286.009 428.335 286.434 429.265 286.789C430.223 287.145 431.536 287.542 433.205 287.979C435.367 288.527 437.035 289.183 438.212 289.949C439.416 290.688 440.25 291.564 440.715 292.576C441.208 293.561 441.454 294.683 441.454 295.941C441.454 298.267 440.592 300.1 438.869 301.44C437.145 302.754 434.532 303.41 431.03 303.41ZM445.792 303V276.57H450.265V303H445.792ZM467.762 303.41C463.412 303.41 460.129 302.234 457.913 299.881C455.724 297.528 454.63 294.341 454.63 290.319C454.63 287.418 455.108 284.915 456.066 282.808C457.024 280.674 458.474 279.033 460.416 277.884C462.386 276.734 464.876 276.16 467.885 276.16C469.445 276.16 470.854 276.269 472.113 276.488C473.399 276.68 474.602 276.967 475.724 277.35V281.208C473.481 280.387 470.991 279.977 468.255 279.977C464.89 279.977 462.523 280.866 461.155 282.644C459.814 284.423 459.144 286.981 459.144 290.319C459.144 293.356 459.855 295.668 461.278 297.254C462.701 298.841 464.903 299.635 467.885 299.635C470.238 299.635 472.14 299.361 473.59 298.814V291.427H466.983V288.513H477.407V301.235C476.559 301.782 475.341 302.289 473.754 302.754C472.195 303.192 470.197 303.41 467.762 303.41ZM481.742 303V276.57H485.681L499.471 296.023V276.57H503.903V303H499.963L486.215 283.588V303H481.742ZM509.115 303V276.57H527.542V280.059H513.588V288.061H526.023V291.509H513.588V299.553H527.542V303H509.115ZM531.679 303V276.57H543.827C546.782 276.57 548.929 277.336 550.27 278.869C551.638 280.373 552.322 282.425 552.322 285.024C552.322 286.885 551.857 288.472 550.927 289.785C549.996 291.098 548.656 292.015 546.905 292.535C547.397 292.89 547.78 293.274 548.054 293.684C548.327 294.094 548.601 294.642 548.875 295.326L552.199 303H547.602L544.36 295.613C544.059 294.901 543.69 294.395 543.252 294.094C542.842 293.793 542.13 293.643 541.118 293.643H536.152V303H531.679ZM536.152 290.031H542.637C544.251 290.031 545.523 289.635 546.453 288.841C547.384 288.048 547.849 286.776 547.849 285.024C547.849 281.714 546.248 280.059 543.047 280.059H536.152V290.031Z" fill="#F5F7FB"/>
<path d="M11.0801 248V89.4315H57.3703V248H11.0801ZM74.6848 143.601L89.9507 86.9693H128.608L109.402 143.601H74.6848ZM145.734 248V89.4315H190.793L230.189 169.947L269.339 89.4315H314.151V248H267.861V168.716L242.5 220.915H217.631L192.024 168.716V248H145.734Z" fill="#F5F7FB"/>
<path d="M511.525 97.4944C511.525 91.45 509.41 88.4278 505.179 88.4278C503.567 88.4278 501.653 88.8308 499.437 89.6367C497.22 90.4426 495.105 91.1478 493.09 91.7523C485.635 95.7819 479.792 100.214 475.561 105.05C471.532 109.684 467.401 114.922 463.17 120.765C458.939 126.608 455.313 132.854 452.29 139.503C449.268 146.152 446.951 152.398 445.339 158.241C439.496 179.799 441.713 194.306 451.988 201.76C456.219 204.783 460.652 206.294 465.286 206.294C470.121 206.092 473.949 205.085 476.77 203.271C479.792 201.458 482.714 199.746 485.535 198.134C488.355 196.522 491.579 195.414 495.206 194.809C499.034 194.003 503.668 194.507 509.108 196.32C514.749 197.932 517.771 200.148 518.174 202.969C518.577 205.79 518.577 208.711 518.174 211.734C517.771 214.756 517.671 217.476 517.872 219.894C518.275 222.311 520.491 223.822 524.521 224.427C528.349 229.262 525.931 235.105 517.268 241.956C515.051 243.769 512.936 245.481 510.921 247.093C493.594 258.175 475.158 264.32 455.615 265.529C443.324 266.335 430.228 264.118 416.326 258.88C395.574 251.022 383.888 233.393 381.269 205.991C377.843 180.605 381.067 154.312 390.94 127.112C399.2 104.143 411.692 82.8871 428.415 63.3436C443.526 45.4118 458.435 33.726 473.144 28.286C490.672 19.2195 509.611 15.6936 529.961 17.7084C551.519 20.5291 565.623 29.6964 572.272 45.2104C578.921 60.7243 577.812 79.3612 568.947 101.121C565.925 108.777 560.183 114.822 551.721 119.254C544.467 123.284 536.61 125.299 528.148 125.299C519.685 125.299 514.245 122.679 511.828 117.441C509.41 112.001 509.309 105.352 511.525 97.4944ZM621.304 182.116L606.798 218.987C604.783 224.628 602.97 230.471 601.358 236.516C599.746 242.56 598.034 247.799 596.22 252.231C594.407 256.865 591.586 260.492 587.758 263.111C584.131 265.73 580.001 267.644 575.367 268.853C570.733 270.264 565.897 270.868 560.86 270.667C556.025 270.465 551.693 269.558 547.865 267.947C539.201 263.917 536.179 257.268 538.798 248C548.067 207.301 556.73 174.661 564.789 150.081C573.05 125.5 579.8 106.158 585.038 92.0545C590.478 77.9509 596.119 63.0414 601.962 47.3259C602.567 41.483 604.985 36.2445 609.216 31.6105C613.447 26.9764 618.383 23.1483 624.024 20.1261C629.867 17.1039 635.912 14.9884 642.158 13.7795C648.404 12.3691 653.944 12.1676 658.78 13.1751C663.615 14.1825 667.141 16.3987 669.357 19.8239C671.775 23.249 671.977 28.1853 669.962 34.6327C662.709 53.1688 657.571 66.265 654.549 73.9213C651.526 81.5775 648.807 88.4278 646.389 94.4722L637.927 114.419C642.158 114.62 647.497 114.016 653.944 112.605C665.63 109.986 674.092 109.08 679.331 109.885C679.331 108.878 679.834 107.165 680.842 104.748C686.483 80.1672 692.83 57.6014 699.882 37.0504C704.919 20.1261 717.914 11.261 738.868 10.4551C747.129 10.4551 753.375 12.4699 757.606 16.4995C762.24 20.7305 762.844 26.4727 759.419 33.726C740.883 85.7078 727.787 126.709 720.13 156.73C711.467 191.384 705.725 214.756 702.904 226.845C700.285 238.933 697.968 246.086 695.953 248.302C693.938 250.519 691.822 252.03 689.606 252.836C687.591 253.843 685.577 254.75 683.562 255.556C681.547 256.361 679.935 258.376 678.726 261.6H677.82C676.208 265.227 672.682 268.047 667.242 270.062C661.802 272.077 656.261 272.782 650.62 272.178C645.18 271.775 640.546 269.76 636.718 266.133C633.091 262.708 632.184 257.369 633.998 250.116C636.013 238.631 639.337 226.341 643.971 213.245C648.605 199.947 652.232 189.571 654.851 182.116C657.672 174.661 659.989 167.71 661.802 161.263C660.19 162.069 658.578 162.673 656.966 163.076C655.556 163.479 653.743 164.285 651.526 165.494C649.31 166.501 646.993 167.408 644.575 168.214C642.359 169.02 640.143 169.826 637.927 170.632C632.285 172.848 627.651 175.064 624.024 177.281L621.304 182.116ZM655.455 161.867C655.657 161.867 656.664 161.565 658.478 160.961C657.269 161.364 656.261 161.666 655.455 161.867ZM893.874 43.0948C900.724 46.7215 905.056 52.0607 906.869 59.1125C902.84 81.6783 899.213 104.143 895.989 126.508C892.766 148.67 889.643 167.307 886.621 182.418C883.598 197.328 881.483 208.51 880.274 215.965C879.267 223.419 878.058 230.874 876.647 238.329L874.834 244.676C874.431 246.892 874.028 248.907 873.625 250.72C873.222 252.735 872.819 254.85 872.416 257.067C866.775 263.514 859.119 266.738 849.448 266.738C839.172 266.738 831.012 264.118 824.968 258.88C821.341 256.059 820.737 250.116 823.154 241.049C824.162 237.422 824.766 232.788 824.968 227.147C825.371 221.304 825.774 216.468 826.177 212.64V212.036C820.132 214.252 814.692 217.174 809.857 220.8C805.021 224.225 801.999 226.442 800.79 227.449C799.581 228.255 797.969 228.96 795.955 229.565C793.94 229.968 792.126 230.27 790.515 230.471C786.687 230.673 784.067 231.277 782.657 232.285C770.971 253.238 760.494 264.924 751.226 267.342C745.383 269.155 739.54 269.558 733.697 268.551C727.854 267.745 723.22 264.32 719.795 258.275C713.348 252.231 714.96 235.71 724.631 208.711C729.869 194.406 737.324 177.281 746.995 157.334C756.867 137.186 766.337 119.657 775.404 104.748C794.947 72.7124 816.405 45.7141 839.777 23.7527C843.605 22.1409 847.735 20.3276 852.168 18.3128C856.6 16.0965 860.932 14.8876 865.163 14.6862C869.596 14.4847 874.129 14.9884 878.763 16.1973C883.397 17.4061 887.326 19.2195 890.549 21.6372C898.004 27.2787 899.112 34.4312 893.874 43.0948ZM829.199 122.579C824.968 134.667 820.737 145.85 816.506 156.125C812.274 166.199 808.648 175.064 805.626 182.72L829.501 181.814C831.113 168.919 832.926 156.125 834.941 143.432C836.956 130.739 838.87 118.045 840.683 105.352L829.199 122.579ZM821.039 183.023C823.86 183.023 826.68 182.821 829.501 182.418V182.116C826.882 182.318 824.464 182.519 822.248 182.72C820.031 182.922 819.628 183.023 821.039 183.023ZM951.735 33.4238C955.563 24.1557 961.003 20.8313 968.055 23.4505C970.07 19.018 971.782 16.1972 973.192 14.9884C974.804 13.7795 976.416 12.8728 978.028 12.2684C979.64 11.4625 981.352 10.6565 983.166 9.85062C984.979 9.0447 987.8 8.33953 991.628 7.73509C995.456 7.13065 999.687 6.82843 1004.32 6.82843C1008.96 6.62695 1013.59 6.82843 1018.22 7.43286C1023.06 8.0373 1027.09 9.34693 1030.31 11.3617C1038.17 15.9958 1039.88 23.4505 1035.45 33.726C1035.85 33.5245 1035.75 33.726 1035.15 34.3305L1032.43 39.4682L1030.31 42.1882C1029.3 43.1956 1026.18 49.3407 1020.94 60.6236C1016.71 68.6828 1012.38 76.6412 1007.95 84.499C1000.69 97.9981 996.262 106.662 994.65 110.49C1001.7 106.662 1009.86 101.121 1019.13 93.8678C1036.66 80.3686 1047.84 72.3094 1052.68 69.6902C1057.51 67.0709 1060.84 65.4591 1062.65 64.8547C1064.66 64.2502 1066.58 64.1495 1068.39 64.5524C1070.21 64.7539 1072.12 65.2576 1074.13 66.0635L1081.69 69.0858C1086.52 70.6976 1089.14 76.5405 1089.55 86.6145C1089.75 96.487 1087.73 103.942 1083.5 108.979C1065.17 132.753 1044.52 148.67 1021.55 156.73C1014.5 159.349 1007.24 161.565 999.788 163.378C1010.47 164.587 1020.64 171.639 1030.31 184.534C1038.17 195.011 1043.81 205.79 1047.24 216.871C1050.86 227.953 1053.68 236.213 1055.7 241.653C1057.71 246.892 1058.52 250.921 1058.12 253.742C1057.91 256.764 1056.2 258.981 1052.98 260.391C1049.96 262.003 1044.72 263.514 1037.26 264.924C1033.84 265.529 1026.79 261.499 1016.11 252.836C1011.47 249.007 1006.54 244.877 1001.3 240.444C996.06 235.81 990.822 231.479 985.584 227.449C973.495 217.979 965.033 213.043 960.197 212.64C959.794 212.64 958.988 212.439 957.779 212.036L952.339 225.636C949.519 232.285 946.597 239.336 943.575 246.791C940.754 254.044 937.329 260.593 933.299 266.435C927.054 270.667 919.8 272.379 911.54 271.573C902.07 270.566 895.824 266.738 892.802 260.089C890.787 253.843 894.112 235.508 902.775 205.085C908.618 183.728 913.655 164.99 917.886 148.872C922.117 132.753 925.744 119.456 928.766 108.979C931.788 98.3004 934.005 90.0397 935.415 84.1967C936.825 78.1523 938.236 72.3094 939.646 66.668C943.071 53.5718 947.101 42.4904 951.735 33.4238Z" fill="#FFD600"/>
</svg>
