<svg width="134" height="12" viewBox="0 0 134 12" fill="none" xmlns="http://www.w3.org/2000/svg">
<path d="M2.976 11V2.936H0.08V0.695999H8.88V2.936H5.984V11H2.976ZM14.4609 11.16C12.7542 11.16 11.4475 10.744 10.5409 9.912C9.64488 9.08 9.19688 7.736 9.19688 5.88C9.19688 4.6 9.39954 3.57067 9.80488 2.792C10.2102 2.00267 10.8022 1.432 11.5809 1.08C12.3702 0.717333 13.3302 0.535999 14.4609 0.535999C15.5915 0.535999 16.5462 0.717333 17.3249 1.08C18.1142 1.432 18.7115 2.00267 19.1169 2.792C19.5222 3.57067 19.7249 4.6 19.7249 5.88C19.7249 7.736 19.2715 9.08 18.3649 9.912C17.4582 10.744 16.1569 11.16 14.4609 11.16ZM14.4609 8.6C15.2289 8.6 15.7835 8.38667 16.1249 7.96C16.4769 7.52267 16.6529 6.82933 16.6529 5.88C16.6529 4.86667 16.4769 4.152 16.1249 3.736C15.7835 3.30933 15.2289 3.096 14.4609 3.096C13.6929 3.096 13.1329 3.30933 12.7809 3.736C12.4395 4.152 12.2689 4.86667 12.2689 5.88C12.2689 6.82933 12.4395 7.52267 12.7809 7.96C13.1329 8.38667 13.6929 8.6 14.4609 8.6ZM27.5023 11.16C26.8089 11.16 26.1529 11.1067 25.5343 11C24.9156 10.8827 24.3876 10.7227 23.9503 10.52V8.04C24.4303 8.264 24.9636 8.44533 25.5503 8.584C26.1369 8.72267 26.6863 8.792 27.1983 8.792C27.7316 8.792 28.1316 8.74933 28.3983 8.664C28.6756 8.568 28.8143 8.36 28.8143 8.04C28.8143 7.816 28.7343 7.64 28.5743 7.512C28.4249 7.384 28.1849 7.26667 27.8543 7.16C27.5343 7.05333 27.1129 6.92 26.5903 6.76C25.8969 6.536 25.3476 6.29067 24.9423 6.024C24.5369 5.75733 24.2436 5.432 24.0623 5.048C23.8916 4.664 23.8063 4.19467 23.8063 3.64C23.8063 2.62667 24.1636 1.85867 24.8783 1.336C25.6036 0.802666 26.6756 0.535999 28.0943 0.535999C28.6596 0.535999 29.2409 0.583999 29.8383 0.679999C30.4463 0.775999 30.9369 0.882666 31.3103 1V3.496C30.8089 3.29333 30.3289 3.14933 29.8703 3.064C29.4116 2.97867 28.9796 2.936 28.5743 2.936C28.1049 2.936 27.7049 2.97333 27.3743 3.048C27.0436 3.12267 26.8783 3.31467 26.8783 3.624C26.8783 3.89067 27.0169 4.088 27.2943 4.216C27.5823 4.33333 28.0889 4.488 28.8143 4.68C29.6569 4.904 30.2969 5.176 30.7343 5.496C31.1823 5.816 31.4863 6.18933 31.6463 6.616C31.8063 7.032 31.8863 7.50667 31.8863 8.04C31.8863 8.97867 31.5236 9.736 30.7983 10.312C30.0729 10.8773 28.9743 11.16 27.5023 11.16ZM33.0013 11V0.695999H40.8093V3H36.0093V4.68H40.2173V7.016H36.0093V8.696H40.8093V11H33.0013ZM41.7669 11V0.695999H49.5749V3H44.7749V4.68H48.9829V7.016H44.7749V8.696H49.5749V11H41.7669ZM53.8138 11V0.695999H56.7418L59.3018 5.928L61.8458 0.695999H64.7578V11H61.7498V5.848L60.1018 9.24H58.4858L56.8218 5.848V11H53.8138ZM69.2839 11V7.224L65.5719 0.695999H68.7079L70.7879 4.584L72.8679 0.695999H76.0039L72.2919 7.224V11H69.2839ZM82.4875 11L80.0875 0.695999H83.0315L84.1995 6.152L85.3355 2.248V0.695999H87.7995L89.3675 6.168L90.5995 0.695999H93.5435L91.1595 11H88.4395L86.8875 5.672L85.2075 11H82.4875ZM98.9609 11.16C97.2542 11.16 95.9475 10.744 95.0409 9.912C94.1449 9.08 93.6969 7.736 93.6969 5.88C93.6969 4.6 93.8995 3.57067 94.3049 2.792C94.7102 2.00267 95.3022 1.432 96.0809 1.08C96.8702 0.717333 97.8302 0.535999 98.9609 0.535999C100.092 0.535999 101.046 0.717333 101.825 1.08C102.614 1.432 103.212 2.00267 103.617 2.792C104.022 3.57067 104.225 4.6 104.225 5.88C104.225 7.736 103.772 9.08 102.865 9.912C101.958 10.744 100.657 11.16 98.9609 11.16ZM98.9609 8.6C99.7289 8.6 100.284 8.38667 100.625 7.96C100.977 7.52267 101.153 6.82933 101.153 5.88C101.153 4.86667 100.977 4.152 100.625 3.736C100.284 3.30933 99.7289 3.096 98.9609 3.096C98.1929 3.096 97.6329 3.30933 97.2809 3.736C96.9395 4.152 96.7689 4.86667 96.7689 5.88C96.7689 6.82933 96.9395 7.52267 97.2809 7.96C97.6329 8.38667 98.1929 8.6 98.9609 8.6ZM105.345 11V0.695999H110.705C111.548 0.695999 112.236 0.850666 112.769 1.16C113.313 1.46933 113.718 1.90133 113.985 2.456C114.252 3 114.385 3.63467 114.385 4.36C114.385 5.05333 114.209 5.66667 113.857 6.2C113.516 6.72267 113.057 7.12267 112.481 7.4C112.598 7.496 112.7 7.61333 112.785 7.752C112.87 7.88 112.966 8.06133 113.073 8.296L114.257 11H111.121L110.033 8.52C109.948 8.328 109.841 8.19467 109.713 8.12C109.596 8.03467 109.425 7.992 109.201 7.992H108.353V11H105.345ZM108.353 5.688H109.937C110.374 5.688 110.71 5.576 110.945 5.352C111.19 5.11733 111.313 4.78667 111.313 4.36C111.313 3.45333 110.886 3 110.033 3H108.353V5.688ZM115.501 11V0.695999H118.509V4.328L121.629 0.695999H125.053L121.421 4.92L125.309 11H122.109L119.565 6.84L118.509 8.024V11H115.501ZM129.237 11.16C128.543 11.16 127.887 11.1067 127.269 11C126.65 10.8827 126.122 10.7227 125.685 10.52V8.04C126.165 8.264 126.698 8.44533 127.285 8.584C127.871 8.72267 128.421 8.792 128.933 8.792C129.466 8.792 129.866 8.74933 130.133 8.664C130.41 8.568 130.549 8.36 130.549 8.04C130.549 7.816 130.469 7.64 130.309 7.512C130.159 7.384 129.919 7.26667 129.589 7.16C129.269 7.05333 128.847 6.92 128.325 6.76C127.631 6.536 127.082 6.29067 126.677 6.024C126.271 5.75733 125.978 5.432 125.797 5.048C125.626 4.664 125.541 4.19467 125.541 3.64C125.541 2.62667 125.898 1.85867 126.613 1.336C127.338 0.802666 128.41 0.535999 129.829 0.535999C130.394 0.535999 130.975 0.583999 131.573 0.679999C132.181 0.775999 132.671 0.882666 133.045 1V3.496C132.543 3.29333 132.063 3.14933 131.605 3.064C131.146 2.97867 130.714 2.936 130.309 2.936C129.839 2.936 129.439 2.97333 129.109 3.048C128.778 3.12267 128.613 3.31467 128.613 3.624C128.613 3.89067 128.751 4.088 129.029 4.216C129.317 4.33333 129.823 4.488 130.549 4.68C131.391 4.904 132.031 5.176 132.469 5.496C132.917 5.816 133.221 6.18933 133.381 6.616C133.541 7.032 133.621 7.50667 133.621 8.04C133.621 8.97867 133.258 9.736 132.533 10.312C131.807 10.8773 130.709 11.16 129.237 11.16Z" fill="#F5F7FB"/>
</svg>
