<svg width="542" height="29" viewBox="0 0 542 29" fill="none" xmlns="http://www.w3.org/2000/svg">
<path d="M11.8715 28.4104C8.23263 28.4104 5.40087 27.5349 3.37624 25.7838C1.37896 24.0328 0.380318 21.502 0.380318 18.1914V1.57026H4.85367V18.0273C4.85367 20.2434 5.45559 21.8987 6.65943 22.9931C7.89063 24.0875 9.62799 24.6347 11.8715 24.6347C14.0877 24.6347 15.7977 24.0875 17.0015 22.9931C18.2327 21.8987 18.8483 20.2434 18.8483 18.0273V1.57026H23.2806V18.1914C23.2806 21.502 22.282 24.0328 20.2847 25.7838C18.2874 27.5349 15.483 28.4104 11.8715 28.4104ZM25.9758 28L35.415 14.8262L26.181 1.57026H31.352L38.0826 11.3788L44.8131 1.57026H50.0252L40.7502 14.8262L50.1894 28H44.9363L38.0826 18.3146L31.2289 28H25.9758ZM63.2083 28L72.8117 0.831542H77.3671L67.7638 28H63.2083ZM102.448 28.4104C98.8091 28.4104 95.9774 27.5349 93.9527 25.7838C91.9554 24.0328 90.9568 21.502 90.9568 18.1914V1.57026H95.4302V18.0273C95.4302 20.2434 96.0321 21.8987 97.2359 22.9931C98.4671 24.0875 100.204 24.6347 102.448 24.6347C104.664 24.6347 106.374 24.0875 107.578 22.9931C108.809 21.8987 109.425 20.2434 109.425 18.0273V1.57026H113.857V18.1914C113.857 21.502 112.858 24.0328 110.861 25.7838C108.864 27.5349 106.06 28.4104 102.448 28.4104ZM118.816 28V1.57026H123.289V28H118.816ZM146.552 28.4104C143.706 28.4104 141.422 27.7948 139.698 26.5636C137.974 25.305 137.112 23.6361 137.112 21.5567C137.112 19.6962 137.66 18.123 138.754 16.8371C139.876 15.5512 141.394 14.3884 143.309 13.3487C142.242 12.3911 141.38 11.4472 140.724 10.517C140.095 9.58674 139.78 8.49234 139.78 7.23378C139.78 5.5101 140.396 4.0737 141.627 2.92458C142.858 1.7481 144.554 1.15986 146.716 1.15986C148.85 1.15986 150.519 1.72074 151.723 2.8425C152.954 3.9369 153.569 5.40066 153.569 7.23378C153.569 8.6565 153.227 9.87402 152.543 10.8863C151.859 11.8987 150.765 12.8973 149.26 13.8823L155.334 20.0793C155.772 19.149 155.991 18.0546 155.991 16.7961V16.0984H159.397V16.8782C159.397 17.9178 159.26 18.9438 158.987 19.9562C158.713 20.9411 158.344 21.803 157.879 22.5417L161.203 25.907L158.494 28.3694L155.539 25.4145C154.527 26.4542 153.255 27.2202 151.723 27.7127C150.19 28.1778 148.467 28.4104 146.552 28.4104ZM146.469 11.9534C147.646 11.1873 148.521 10.5033 149.096 9.90138C149.671 9.29946 149.958 8.47866 149.958 7.43898C149.958 6.48138 149.698 5.72898 149.178 5.18178C148.686 4.60722 147.865 4.31994 146.716 4.31994C145.539 4.31994 144.691 4.6209 144.171 5.22282C143.651 5.82474 143.391 6.56346 143.391 7.43898C143.391 8.28714 143.638 9.05322 144.13 9.73722C144.65 10.3939 145.43 11.1326 146.469 11.9534ZM146.552 25.2914C149.288 25.2914 151.381 24.5116 152.831 22.9521L145.977 16.0163C144.445 16.6456 143.296 17.398 142.53 18.2735C141.791 19.1217 141.422 20.1887 141.422 21.4746C141.422 22.7332 141.9 23.6908 142.858 24.3474C143.816 24.9767 145.047 25.2914 146.552 25.2914ZM174.805 28V1.57026H186.583C188.608 1.57026 190.277 1.9533 191.59 2.71938C192.904 3.48546 193.875 4.53882 194.504 5.87946C195.133 7.19274 195.448 8.69754 195.448 10.3939C195.448 13.0204 194.627 15.1271 192.986 16.714C191.371 18.3009 189.183 19.0943 186.419 19.0943H179.278V28H174.805ZM179.278 15.5649H185.598C187.377 15.5649 188.718 15.0998 189.62 14.1695C190.523 13.2393 190.975 11.9807 190.975 10.3939C190.975 8.69754 190.537 7.38426 189.661 6.45402C188.813 5.52378 187.527 5.05866 185.804 5.05866H179.278V15.5649ZM199.012 28V1.57026H211.16C214.115 1.57026 216.263 2.33634 217.603 3.8685C218.971 5.3733 219.655 7.4253 219.655 10.0245C219.655 11.885 219.19 13.4719 218.26 14.7851C217.33 16.0984 215.989 17.015 214.238 17.5348C214.73 17.8905 215.113 18.2735 215.387 18.6839C215.661 19.0943 215.934 19.6415 216.208 20.3255L219.532 28H214.936L211.693 20.6128C211.393 19.9014 211.023 19.3953 210.585 19.0943C210.175 18.7934 209.464 18.6429 208.451 18.6429H203.485V28H199.012ZM203.485 15.0314H209.97C211.584 15.0314 212.856 14.6347 213.787 13.8412C214.717 13.0478 215.182 11.7755 215.182 10.0245C215.182 6.71394 213.581 5.05866 210.38 5.05866H203.485V15.0314ZM235.156 28.4104C230.97 28.4104 227.837 27.316 225.758 25.1272C223.679 22.911 222.639 19.491 222.639 14.8672C222.639 10.0519 223.679 6.56346 225.758 4.40202C227.837 2.24058 230.97 1.15986 235.156 1.15986C239.37 1.15986 242.502 2.24058 244.554 4.40202C246.634 6.56346 247.673 10.0519 247.673 14.8672C247.673 19.491 246.634 22.911 244.554 25.1272C242.502 27.316 239.37 28.4104 235.156 28.4104ZM235.156 24.6347C237.92 24.6347 239.944 23.8823 241.23 22.3775C242.543 20.8454 243.2 18.3419 243.2 14.8672C243.2 11.201 242.543 8.64282 241.23 7.19274C239.944 5.7153 237.92 4.97658 235.156 4.97658C232.42 4.97658 230.396 5.7153 229.082 7.19274C227.796 8.64282 227.153 11.201 227.153 14.8672C227.153 18.3419 227.796 20.8454 229.082 22.3775C230.396 23.8823 232.42 24.6347 235.156 24.6347ZM252.035 28V1.57026H262.747C266.659 1.57026 269.56 2.60994 271.447 4.6893C273.335 6.7413 274.279 10.1613 274.279 14.9493C274.279 19.4637 273.349 22.7742 271.488 24.881C269.628 26.9603 266.714 28 262.747 28H252.035ZM256.509 24.5526H262.049C263.773 24.5526 265.209 24.3064 266.358 23.8139C267.508 23.2941 268.369 22.3365 268.944 20.9411C269.518 19.5458 269.806 17.5485 269.806 14.9493C269.806 12.3501 269.546 10.3391 269.026 8.91642C268.506 7.4937 267.672 6.49506 266.523 5.9205C265.401 5.34594 263.91 5.05866 262.049 5.05866H256.509V24.5526ZM289.973 28.4104C286.334 28.4104 283.503 27.5349 281.478 25.7838C279.481 24.0328 278.482 21.502 278.482 18.1914V1.57026H282.956V18.0273C282.956 20.2434 283.557 21.8987 284.761 22.9931C285.992 24.0875 287.73 24.6347 289.973 24.6347C292.19 24.6347 293.9 24.0875 295.103 22.9931C296.335 21.8987 296.95 20.2434 296.95 18.0273V1.57026H301.382V18.1914C301.382 21.502 300.384 24.0328 298.387 25.7838C296.389 27.5349 293.585 28.4104 289.973 28.4104ZM318.735 28.4104C314.385 28.4104 311.088 27.2202 308.845 24.8399C306.629 22.4596 305.52 19.2448 305.52 15.1955C305.52 12.2954 305.986 9.80562 306.916 7.72626C307.873 5.61954 309.323 4.0053 311.266 2.88354C313.209 1.73442 315.685 1.15986 318.694 1.15986C320.226 1.15986 321.622 1.28298 322.88 1.52922C324.166 1.7481 325.356 2.04906 326.451 2.4321V6.3309C325.356 5.89314 324.18 5.56482 322.921 5.34594C321.69 5.0997 320.391 4.97658 319.023 4.97658C315.739 4.97658 313.414 5.8521 312.046 7.60314C310.705 9.35418 310.035 11.885 310.035 15.1955C310.035 18.2872 310.774 20.6402 312.251 22.2544C313.728 23.8413 316.013 24.6347 319.105 24.6347C320.363 24.6347 321.622 24.539 322.88 24.3474C324.166 24.1286 325.37 23.8002 326.492 23.3625V27.3023C325.397 27.658 324.207 27.9316 322.921 28.1231C321.663 28.3146 320.267 28.4104 318.735 28.4104ZM337.683 28V5.05866H329.228V1.57026H350.569V5.05866H342.156V28H337.683ZM363.613 28V1.57026H374.324C378.237 1.57026 381.137 2.60994 383.025 4.6893C384.913 6.7413 385.856 10.1613 385.856 14.9493C385.856 19.4637 384.926 22.7742 383.066 24.881C381.205 26.9603 378.291 28 374.324 28H363.613ZM368.086 24.5526H373.627C375.35 24.5526 376.787 24.3064 377.936 23.8139C379.085 23.2941 379.947 22.3365 380.521 20.9411C381.096 19.5458 381.383 17.5485 381.383 14.9493C381.383 12.3501 381.123 10.3391 380.603 8.91642C380.084 7.4937 379.249 6.49506 378.1 5.9205C376.978 5.34594 375.487 5.05866 373.627 5.05866H368.086V24.5526ZM390.265 28V1.57026H408.692V5.05866H394.738V13.0615H407.173V16.5088H394.738V24.5526H408.692V28H390.265ZM420.03 28.4104C416.61 28.4104 413.86 27.9726 411.781 27.0971V23.1573C412.957 23.595 414.216 23.9507 415.557 24.2243C416.925 24.4979 418.279 24.6347 419.62 24.6347C421.726 24.6347 423.299 24.3885 424.339 23.896C425.406 23.4035 425.94 22.4186 425.94 20.9411C425.94 20.0382 425.721 19.3132 425.283 18.766C424.845 18.2188 424.12 17.7537 423.108 17.3706C422.096 16.9602 420.7 16.5362 418.922 16.0984C416.076 15.3597 414.079 14.4295 412.93 13.3077C411.781 12.1586 411.206 10.5854 411.206 8.5881C411.206 6.2625 412.055 4.44306 413.751 3.12978C415.447 1.8165 417.978 1.15986 421.343 1.15986C422.875 1.15986 424.312 1.2693 425.652 1.48818C427.02 1.70706 428.087 1.9533 428.854 2.2269V6.16674C426.774 5.3733 424.476 4.97658 421.959 4.97658C419.989 4.97658 418.457 5.2365 417.362 5.75634C416.268 6.27618 415.721 7.2201 415.721 8.5881C415.721 9.38154 415.912 10.0245 416.295 10.517C416.678 11.0095 417.335 11.4335 418.265 11.7892C419.223 12.1449 420.536 12.5416 422.205 12.9794C424.367 13.5266 426.035 14.1832 427.212 14.9493C428.416 15.688 429.25 16.5635 429.715 17.5758C430.208 18.5608 430.454 19.6826 430.454 20.9411C430.454 23.2667 429.592 25.0998 427.869 26.4405C426.145 27.7538 423.532 28.4104 420.03 28.4104ZM434.792 28V1.57026H439.265V28H434.792ZM456.762 28.4104C452.412 28.4104 449.129 27.2339 446.913 24.881C444.724 22.528 443.63 19.3406 443.63 15.3187C443.63 12.4185 444.108 9.91506 445.066 7.80834C446.024 5.67426 447.474 4.03266 449.416 2.88354C451.386 1.73442 453.876 1.15986 456.885 1.15986C458.445 1.15986 459.854 1.2693 461.113 1.48818C462.399 1.6797 463.602 1.96698 464.724 2.35002V6.20778C462.481 5.38698 459.991 4.97658 457.255 4.97658C453.89 4.97658 451.523 5.86578 450.155 7.64418C448.814 9.42258 448.144 11.9807 448.144 15.3187C448.144 18.3556 448.855 20.6675 450.278 22.2544C451.701 23.8413 453.903 24.6347 456.885 24.6347C459.238 24.6347 461.14 24.3611 462.59 23.8139V16.4267H455.983V13.5129H466.407V26.2353C465.559 26.7825 464.341 27.2886 462.754 27.7538C461.195 28.1915 459.197 28.4104 456.762 28.4104ZM470.742 28V1.57026H474.681L488.471 21.0232V1.57026H492.903V28H488.963L475.215 8.5881V28H470.742ZM498.115 28V1.57026H516.542V5.05866H502.588V13.0615H515.023V16.5088H502.588V24.5526H516.542V28H498.115ZM520.679 28V1.57026H532.827C535.782 1.57026 537.929 2.33634 539.27 3.8685C540.638 5.3733 541.322 7.4253 541.322 10.0245C541.322 11.885 540.857 13.4719 539.927 14.7851C538.996 16.0984 537.656 17.015 535.905 17.5348C536.397 17.8905 536.78 18.2735 537.054 18.6839C537.327 19.0943 537.601 19.6415 537.875 20.3255L541.199 28H536.602L533.36 20.6128C533.059 19.9014 532.69 19.3953 532.252 19.0943C531.842 18.7934 531.13 18.6429 530.118 18.6429H525.152V28H520.679ZM525.152 15.0314H531.637C533.251 15.0314 534.523 14.6347 535.453 13.8412C536.384 13.0478 536.849 11.7755 536.849 10.0245C536.849 6.71394 535.248 5.05866 532.047 5.05866H525.152V15.0314Z" fill="#F5F7FB"/>
</svg>
