<svg width="335" height="26" viewBox="0 0 335 26" fill="none" xmlns="http://www.w3.org/2000/svg">
<path d="M0.760811 25.1436V1.07939H11.4851C13.3285 1.07939 14.8481 1.42815 16.0438 2.12566C17.2395 2.82317 18.1239 3.78225 18.6968 5.0029C19.2698 6.19863 19.5563 7.56874 19.5563 9.11324C19.5563 11.5047 18.8089 13.4229 17.3143 14.8677C15.8445 16.3126 13.8516 17.035 11.3356 17.035H4.83378V25.1436H0.760811ZM4.83378 13.8214H10.5883C12.2075 13.8214 13.4281 13.398 14.2502 12.551C15.0723 11.704 15.4833 10.5581 15.4833 9.11324C15.4833 7.56874 15.0847 6.37301 14.2876 5.52603C13.5153 4.67905 12.3445 4.25556 10.7751 4.25556H4.83378V13.8214ZM22.8013 25.1436V1.07939H33.8619C36.5523 1.07939 38.5078 1.7769 39.7285 3.17193C40.974 4.54204 41.5968 6.41038 41.5968 8.77693C41.5968 10.4709 41.1733 11.9157 40.3263 13.1115C39.4793 14.3072 38.2587 15.1417 36.6644 15.615C37.1128 15.9389 37.4615 16.2876 37.7107 16.6613C37.9598 17.035 38.2089 17.5332 38.458 18.156L41.4847 25.1436H37.2996L34.3476 18.4175C34.0736 17.7699 33.7373 17.309 33.3387 17.035C32.9651 16.761 32.3174 16.6239 31.3957 16.6239H26.8743V25.1436H22.8013ZM26.8743 13.3357H32.7782C34.248 13.3357 35.4064 12.9745 36.2533 12.252C37.1003 11.5296 37.5238 10.3712 37.5238 8.77693C37.5238 5.76269 36.0665 4.25556 33.1519 4.25556H26.8743V13.3357ZM55.7103 25.5172C51.8989 25.5172 49.0466 24.5208 47.1533 22.5279C45.2601 20.5101 44.3135 17.3962 44.3135 13.1862C44.3135 8.80185 45.2601 5.62568 47.1533 3.65769C49.0466 1.68971 51.8989 0.705724 55.7103 0.705724C59.5466 0.705724 62.399 1.68971 64.2673 3.65769C66.1605 5.62568 67.1072 8.80185 67.1072 13.1862C67.1072 17.3962 66.1605 20.5101 64.2673 22.5279C62.399 24.5208 59.5466 25.5172 55.7103 25.5172ZM55.7103 22.0795C58.2263 22.0795 60.0698 21.3944 61.2406 20.0243C62.4363 18.6293 63.0342 16.3499 63.0342 13.1862C63.0342 9.84811 62.4363 7.51892 61.2406 6.19863C60.0698 4.85343 58.2263 4.18083 55.7103 4.18083C53.2192 4.18083 51.3758 4.85343 50.18 6.19863C49.0092 7.51892 48.4238 9.84811 48.4238 13.1862C48.4238 16.3499 49.0092 18.6293 50.18 20.0243C51.3758 21.3944 53.2192 22.0795 55.7103 22.0795ZM71.0788 25.1436V1.07939H80.8315C84.3938 1.07939 87.0344 2.02601 88.7533 3.91926C90.4722 5.7876 91.3316 8.90149 91.3316 13.2609C91.3316 17.3713 90.4846 20.3855 88.7907 22.3037C87.0967 24.1969 84.4437 25.1436 80.8315 25.1436H71.0788ZM75.1518 22.0048H80.1963C81.7657 22.0048 83.0735 21.7806 84.1198 21.3321C85.1661 20.8588 85.9508 19.9869 86.4739 18.7165C86.9971 17.446 87.2586 15.6275 87.2586 13.2609C87.2586 10.8944 87.022 9.06341 86.5487 7.76803C86.0753 6.47265 85.3156 5.5634 84.2693 5.04026C83.2479 4.51713 81.8903 4.25556 80.1963 4.25556H75.1518V22.0048ZM105.621 25.5172C102.308 25.5172 99.7297 24.7201 97.8862 23.1258C96.0677 21.5314 95.1585 19.2272 95.1585 16.2129V1.07939H99.2314V16.0634C99.2314 18.0812 99.7795 19.5884 100.876 20.5848C101.997 21.5813 103.578 22.0795 105.621 22.0795C107.639 22.0795 109.196 21.5813 110.292 20.5848C111.413 19.5884 111.973 18.0812 111.973 16.0634V1.07939H116.009V16.2129C116.009 19.2272 115.1 21.5314 113.281 23.1258C111.463 24.7201 108.909 25.5172 105.621 25.5172ZM131.809 25.5172C127.848 25.5172 124.846 24.4336 122.803 22.2663C120.786 20.099 119.777 17.172 119.777 13.4851C119.777 10.8446 120.2 8.57765 121.047 6.6844C121.919 4.76624 123.239 3.29648 125.008 2.27513C126.777 1.22886 129.031 0.705724 131.771 0.705724C133.166 0.705724 134.437 0.817824 135.583 1.04202C136.754 1.24131 137.837 1.51534 138.834 1.86409V5.41393C137.837 5.01535 136.766 4.71642 135.62 4.51713C134.499 4.29293 133.316 4.18083 132.07 4.18083C129.081 4.18083 126.964 4.97799 125.718 6.5723C124.497 8.16661 123.887 10.4709 123.887 13.4851C123.887 16.3001 124.56 18.4425 125.905 19.9122C127.25 21.3571 129.33 22.0795 132.145 22.0795C133.291 22.0795 134.437 21.9923 135.583 21.8179C136.754 21.6186 137.85 21.3197 138.871 20.9211V24.5083C137.875 24.8322 136.791 25.0813 135.62 25.2557C134.474 25.43 133.204 25.5172 131.809 25.5172ZM149.06 25.1436V4.25556H141.363V1.07939H160.793V4.25556H153.133V25.1436H149.06ZM172.67 25.1436V1.07939H182.422C185.985 1.07939 188.625 2.02601 190.344 3.91926C192.063 5.7876 192.922 8.90149 192.922 13.2609C192.922 17.3713 192.075 20.3855 190.381 22.3037C188.687 24.1969 186.034 25.1436 182.422 25.1436H172.67ZM176.743 22.0048H181.787C183.356 22.0048 184.664 21.7806 185.711 21.3321C186.757 20.8588 187.542 19.9869 188.065 18.7165C188.588 17.446 188.849 15.6275 188.849 13.2609C188.849 10.8944 188.613 9.06341 188.139 7.76803C187.666 6.47265 186.906 5.5634 185.86 5.04026C184.839 4.51713 183.481 4.25556 181.787 4.25556H176.743V22.0048ZM196.936 25.1436V1.07939H213.714V4.25556H201.009V11.5421H212.331V14.6809H201.009V22.0048H213.714V25.1436H196.936ZM224.037 25.5172C220.923 25.5172 218.42 25.1186 216.526 24.3215V20.7343C217.598 21.1329 218.744 21.4567 219.964 21.7058C221.21 21.9549 222.443 22.0795 223.663 22.0795C225.582 22.0795 227.014 21.8553 227.961 21.4069C228.932 20.9585 229.418 20.0617 229.418 18.7165C229.418 17.8944 229.219 17.2343 228.82 16.736C228.421 16.2378 227.761 15.8143 226.84 15.4656C225.918 15.0919 224.647 14.7058 223.028 14.3072C220.437 13.6346 218.619 12.7876 217.573 11.7663C216.526 10.72 216.003 9.28761 216.003 7.4691C216.003 5.35165 216.776 3.69506 218.32 2.49933C219.865 1.30359 222.169 0.705724 225.233 0.705724C226.628 0.705724 227.936 0.805369 229.156 1.00466C230.402 1.20395 231.373 1.42815 232.071 1.67726V5.26446C230.178 4.54204 228.085 4.18083 225.793 4.18083C224 4.18083 222.605 4.41748 221.608 4.8908C220.612 5.36411 220.114 6.22354 220.114 7.4691C220.114 8.19152 220.288 8.77693 220.637 9.22533C220.986 9.67374 221.583 10.0599 222.43 10.3837C223.302 10.7075 224.498 11.0688 226.018 11.4673C227.986 11.9656 229.505 12.5634 230.576 13.2609C231.672 13.9335 232.432 14.7307 232.856 15.6524C233.304 16.5492 233.528 17.5706 233.528 18.7165C233.528 20.8339 232.744 22.503 231.174 23.7236C229.605 24.9194 227.226 25.5172 224.037 25.5172ZM237.477 25.1436V1.07939H241.55V25.1436H237.477ZM257.482 25.5172C253.521 25.5172 250.532 24.446 248.514 22.3037C246.521 20.1613 245.524 17.2592 245.524 13.5972C245.524 10.9567 245.96 8.67729 246.832 6.75913C247.704 4.81606 249.024 3.32139 250.793 2.27513C252.587 1.22886 254.854 0.705724 257.594 0.705724C259.014 0.705724 260.297 0.805369 261.443 1.00466C262.613 1.17904 263.71 1.4406 264.731 1.78936V5.30183C262.688 4.5545 260.421 4.18083 257.93 4.18083C254.866 4.18083 252.711 4.99044 251.466 6.60967C250.245 8.22889 249.635 10.5581 249.635 13.5972C249.635 16.3624 250.282 18.4674 251.578 19.9122C252.873 21.3571 254.879 22.0795 257.594 22.0795C259.736 22.0795 261.468 21.8304 262.788 21.3321V14.6061H256.772V11.9531H266.263V23.5368C265.491 24.035 264.382 24.4959 262.937 24.9194C261.517 25.3179 259.699 25.5172 257.482 25.5172ZM270.21 25.1436V1.07939H273.797L286.352 18.7912V1.07939H290.388V25.1436H286.801L274.283 7.4691V25.1436H270.21ZM295.133 25.1436V1.07939H311.911V4.25556H299.206V11.5421H310.528V14.6809H299.206V22.0048H311.911V25.1436H295.133ZM315.678 25.1436V1.07939H326.738C329.428 1.07939 331.384 1.7769 332.605 3.17193C333.85 4.54204 334.473 6.41038 334.473 8.77693C334.473 10.4709 334.049 11.9157 333.203 13.1115C332.356 14.3072 331.135 15.1417 329.541 15.615C329.989 15.9389 330.338 16.2876 330.587 16.6613C330.836 17.035 331.085 17.5332 331.334 18.156L334.361 25.1436H330.176L327.224 18.4175C326.95 17.7699 326.614 17.309 326.215 17.035C325.841 16.761 325.194 16.6239 324.272 16.6239H319.75V25.1436H315.678ZM319.75 13.3357H325.654C327.124 13.3357 328.283 12.9745 329.13 12.252C329.977 11.5296 330.4 10.3712 330.4 8.77693C330.4 5.76269 328.943 4.25556 326.028 4.25556H319.75V13.3357Z" fill="#F5F7FB"/>
</svg>
