<svg width="1079" height="268" viewBox="0 0 1079 268" fill="none" xmlns="http://www.w3.org/2000/svg">
<path d="M0.0800934 242V83.4315H46.3703V242H0.0800934ZM63.6848 137.601L78.9507 80.9693H117.608L98.4025 137.601H63.6848ZM134.734 242V83.4315H179.793L219.189 163.947L258.339 83.4315H303.151V242H256.861V162.716L231.5 214.915H206.631L181.024 162.716V242H134.734Z" fill="#F5F7FB"/>
<path d="M500.525 91.4944C500.525 85.45 498.41 82.4278 494.179 82.4278C492.567 82.4278 490.653 82.8308 488.437 83.6367C486.22 84.4426 484.105 85.1478 482.09 85.7523C474.635 89.7819 468.792 94.2144 464.561 99.0499C460.532 103.684 456.401 108.922 452.17 114.765C447.939 120.608 444.313 126.854 441.29 133.503C438.268 140.152 435.951 146.398 434.339 152.241C428.496 173.799 430.713 188.306 440.988 195.76C445.219 198.783 449.652 200.294 454.286 200.294C459.121 200.092 462.949 199.085 465.77 197.271C468.792 195.458 471.714 193.746 474.535 192.134C477.355 190.522 480.579 189.414 484.206 188.809C488.034 188.003 492.668 188.507 498.108 190.32C503.749 191.932 506.771 194.148 507.174 196.969C507.577 199.79 507.577 202.711 507.174 205.734C506.771 208.756 506.671 211.476 506.872 213.894C507.275 216.311 509.491 217.822 513.521 218.427C517.349 223.262 514.931 229.105 506.268 235.956C504.051 237.769 501.936 239.481 499.921 241.093C482.594 252.175 464.158 258.32 444.615 259.529C432.324 260.335 419.228 258.118 405.326 252.88C384.574 245.022 372.888 227.393 370.269 199.991C366.843 174.605 370.067 148.312 379.94 121.112C388.2 98.1433 400.692 76.8871 417.415 57.3436C432.526 39.4118 447.435 27.726 462.144 22.286C479.672 13.2195 498.611 9.69355 518.961 11.7084C540.519 14.5291 554.623 23.6964 561.272 39.2104C567.921 54.7243 566.812 73.3612 557.947 95.1211C554.925 102.777 549.183 108.822 540.721 113.254C533.467 117.284 525.61 119.299 517.148 119.299C508.685 119.299 503.245 116.679 500.828 111.441C498.41 106.001 498.309 99.3522 500.525 91.4944ZM610.304 176.116L595.798 212.987C593.783 218.628 591.97 224.471 590.358 230.516C588.746 236.56 587.034 241.799 585.22 246.231C583.407 250.865 580.586 254.492 576.758 257.111C573.131 259.73 569.001 261.644 564.367 262.853C559.733 264.264 554.897 264.868 549.86 264.667C545.025 264.465 540.693 263.558 536.865 261.947C528.201 257.917 525.179 251.268 527.798 242C537.067 201.301 545.73 168.661 553.789 144.081C562.05 119.5 568.8 100.158 574.038 86.0545C579.478 71.9509 585.119 57.0414 590.962 41.3259C591.567 35.483 593.985 30.2445 598.216 25.6105C602.447 20.9764 607.383 17.1483 613.024 14.1261C618.867 11.1039 624.912 8.98836 631.158 7.77949C637.404 6.36912 642.944 6.16764 647.78 7.17506C652.615 8.18246 656.141 10.3987 658.357 13.8239C660.775 17.249 660.977 22.1853 658.962 28.6327C651.709 47.1688 646.571 60.265 643.549 67.9213C640.526 75.5775 637.807 82.4278 635.389 88.4722L626.927 108.419C631.158 108.62 636.497 108.016 642.944 106.605C654.63 103.986 663.092 103.08 668.331 103.885C668.331 102.878 668.834 101.165 669.842 98.7477C675.483 74.1672 681.83 51.6014 688.882 31.0504C693.919 14.1261 706.914 5.26098 727.868 4.45508C736.129 4.45508 742.375 6.46987 746.606 10.4995C751.24 14.7305 751.844 20.4727 748.419 27.726C729.883 79.7078 716.787 120.709 709.13 150.73C700.467 185.384 694.725 208.756 691.904 220.845C689.285 232.933 686.968 240.086 684.953 242.302C682.938 244.519 680.822 246.03 678.606 246.836C676.591 247.843 674.577 248.75 672.562 249.556C670.547 250.361 668.935 252.376 667.726 255.6H666.82C665.208 259.227 661.682 262.047 656.242 264.062C650.802 266.077 645.261 266.782 639.62 266.178C634.18 265.775 629.546 263.76 625.718 260.133C622.091 256.708 621.184 251.369 622.998 244.116C625.013 232.631 628.337 220.341 632.971 207.245C637.605 193.947 641.232 183.571 643.851 176.116C646.672 168.661 648.989 161.71 650.802 155.263C649.19 156.069 647.578 156.673 645.966 157.076C644.556 157.479 642.743 158.285 640.526 159.494C638.31 160.501 635.993 161.408 633.575 162.214C631.359 163.02 629.143 163.826 626.927 164.632C621.285 166.848 616.651 169.064 613.024 171.281L610.304 176.116ZM644.455 155.867C644.657 155.867 645.664 155.565 647.478 154.961C646.269 155.364 645.261 155.666 644.455 155.867ZM882.874 37.0948C889.724 40.7215 894.056 46.0607 895.869 53.1125C891.84 75.6783 888.213 98.1433 884.989 120.508C881.766 142.67 878.643 161.307 875.621 176.418C872.598 191.328 870.483 202.51 869.274 209.965C868.267 217.419 867.058 224.874 865.647 232.329L863.834 238.676C863.431 240.892 863.028 242.907 862.625 244.72C862.222 246.735 861.819 248.85 861.416 251.067C855.775 257.514 848.119 260.738 838.448 260.738C828.172 260.738 820.012 258.118 813.968 252.88C810.341 250.059 809.737 244.116 812.154 235.049C813.162 231.422 813.766 226.788 813.968 221.147C814.371 215.304 814.774 210.468 815.177 206.64V206.036C809.132 208.252 803.692 211.174 798.857 214.8C794.021 218.225 790.999 220.442 789.79 221.449C788.581 222.255 786.969 222.96 784.955 223.565C782.94 223.968 781.126 224.27 779.515 224.471C775.687 224.673 773.067 225.277 771.657 226.285C759.971 247.238 749.494 258.924 740.226 261.342C734.383 263.155 728.54 263.558 722.697 262.551C716.854 261.745 712.22 258.32 708.795 252.275C702.348 246.231 703.96 229.71 713.631 202.711C718.869 188.406 726.324 171.281 735.995 151.334C745.867 131.186 755.337 113.657 764.404 98.7477C783.947 66.7124 805.405 39.7141 828.777 17.7527C832.605 16.1409 836.735 14.3276 841.168 12.3128C845.6 10.0965 849.932 8.88763 854.163 8.68615C858.596 8.48467 863.129 8.98836 867.763 10.1973C872.397 11.4061 876.326 13.2195 879.549 15.6372C887.004 21.2787 888.112 28.4312 882.874 37.0948ZM818.199 116.579C813.968 128.667 809.737 139.85 805.506 150.125C801.274 160.199 797.648 169.064 794.626 176.72L818.501 175.814C820.113 162.919 821.926 150.125 823.941 137.432C825.956 124.739 827.87 112.045 829.683 99.3521L818.199 116.579ZM810.039 177.023C812.86 177.023 815.68 176.821 818.501 176.418V176.116C815.882 176.318 813.464 176.519 811.248 176.72C809.031 176.922 808.628 177.023 810.039 177.023ZM940.735 27.4238C944.563 18.1557 950.003 14.8313 957.055 17.4505C959.07 13.018 960.782 10.1972 962.192 8.98837C963.804 7.77949 965.416 6.87283 967.028 6.26839C968.64 5.46247 970.352 4.65655 972.166 3.85062C973.979 3.0447 976.8 2.33953 980.628 1.73509C984.456 1.13065 988.687 0.828428 993.321 0.828428C997.955 0.62695 1002.59 0.828428 1007.22 1.43286C1012.06 2.0373 1016.09 3.34693 1019.31 5.36172C1027.17 9.99576 1028.88 17.4505 1024.45 27.726C1024.85 27.5245 1024.75 27.726 1024.15 28.3305L1021.43 33.4682L1019.31 36.1882C1018.3 37.1956 1015.18 43.3407 1009.94 54.6236C1005.71 62.6828 1001.38 70.6412 996.948 78.499C989.695 91.9981 985.262 100.662 983.65 104.49C990.702 100.662 998.862 95.1211 1008.13 87.8678C1025.66 74.3686 1036.84 66.3094 1041.68 63.6902C1046.51 61.0709 1049.84 59.4591 1051.65 58.8547C1053.66 58.2502 1055.58 58.1495 1057.39 58.5524C1059.21 58.7539 1061.12 59.2576 1063.13 60.0635L1070.69 63.0858C1075.52 64.6976 1078.14 70.5405 1078.55 80.6145C1078.75 90.487 1076.73 97.9418 1072.5 102.979C1054.17 126.753 1033.52 142.67 1010.55 150.73C1003.5 153.349 996.243 155.565 988.788 157.378C999.466 158.587 1009.64 165.639 1019.31 178.534C1027.17 189.011 1032.81 199.79 1036.24 210.871C1039.86 221.953 1042.68 230.213 1044.7 235.653C1046.71 240.892 1047.52 244.921 1047.12 247.742C1046.91 250.764 1045.2 252.981 1041.98 254.391C1038.96 256.003 1033.72 257.514 1026.26 258.924C1022.84 259.529 1015.79 255.499 1005.11 246.836C1000.47 243.007 995.537 238.877 990.299 234.444C985.06 229.81 979.822 225.479 974.584 221.449C962.495 211.979 954.033 207.043 949.197 206.64C948.794 206.64 947.988 206.439 946.779 206.036L941.339 219.636C938.519 226.285 935.597 233.336 932.575 240.791C929.754 248.044 926.329 254.593 922.299 260.435C916.054 264.667 908.8 266.379 900.54 265.573C891.07 264.566 884.824 260.738 881.802 254.089C879.787 247.843 883.112 229.508 891.775 199.085C897.618 177.728 902.655 158.99 906.886 142.872C911.117 126.753 914.744 113.456 917.766 102.979C920.788 92.3004 923.005 84.0397 924.415 78.1967C925.825 72.1523 927.236 66.3094 928.646 60.668C932.071 47.5718 936.101 36.4904 940.735 27.4238Z" fill="#FFD600"/>
</svg>
