<svg width="30" height="30" viewBox="0 0 30 30" fill="none" xmlns="http://www.w3.org/2000/svg">
<mask id="mask0_929_43201" style="mask-type:alpha" maskUnits="userSpaceOnUse" x="0" y="0" width="30" height="30">
<rect x="30" width="30" height="30" transform="rotate(90 30 0)" fill="#D9D9D9"/>
</mask>
<g mask="url(#mask0_929_43201)">
<path d="M2.5 10.625L4.375 10.625L6.25 13.125L13.125 13.125L10 2.5L12.5 2.5L18.75 13.125L25.625 13.125C26.1458 13.125 26.5883 13.3075 26.9525 13.6725C27.3175 14.0367 27.5 14.4792 27.5 15C27.5 15.5208 27.3175 15.9633 26.9525 16.3275C26.5883 16.6925 26.1458 16.875 25.625 16.875L18.75 16.875L12.5 27.5L10 27.5L13.125 16.875L6.25 16.875L4.375 19.375L2.5 19.375L3.75 15L2.5 10.625Z" fill="white"/>
</g>
</svg>
