<svg width="24" height="45" viewBox="0 0 24 45" fill="none" xmlns="http://www.w3.org/2000/svg">
<path d="M13.5 2C13.5 1.17157 12.8284 0.5 12 0.5C11.1716 0.5 10.5 1.17157 10.5 2L13.5 2ZM10.9393 44.0607C11.5251 44.6464 12.4749 44.6464 13.0607 44.0607L22.6066 34.5147C23.1924 33.9289 23.1924 32.9792 22.6066 32.3934C22.0208 31.8076 21.0711 31.8076 20.4853 32.3934L12 40.8787L3.51472 32.3934C2.92893 31.8076 1.97918 31.8076 1.3934 32.3934C0.807611 32.9792 0.807611 33.9289 1.3934 34.5147L10.9393 44.0607ZM10.5 2L10.5 43L13.5 43L13.5 2L10.5 2Z" fill="#F5F7FB"/>
</svg>

