<svg width="21" height="22" viewBox="0 0 21 22" fill="none" xmlns="http://www.w3.org/2000/svg">
<mask id="mask0_2129_23852" style="mask-type:alpha" maskUnits="userSpaceOnUse" x="0" y="0" width="21" height="22">
<rect y="0.5" width="21" height="21" fill="#D9D9D9"/>
</mask>
<g mask="url(#mask0_2129_23852)">
<path d="M10.5 14.5L14 11L10.5 7.5L9.275 8.725L10.675 10.125H7V11.875H10.675L9.275 13.275L10.5 14.5ZM10.5 19.75C9.28958 19.75 8.15208 19.5203 7.0875 19.0609C6.02292 18.6016 5.09687 17.9781 4.30937 17.1906C3.52187 16.4031 2.89844 15.4771 2.43906 14.4125C1.97969 13.3479 1.75 12.2104 1.75 11C1.75 9.78958 1.97969 8.65208 2.43906 7.5875C2.89844 6.52292 3.52187 5.59687 4.30937 4.80937C5.09687 4.02187 6.02292 3.39844 7.0875 2.93906C8.15208 2.47969 9.28958 2.25 10.5 2.25C11.7104 2.25 12.8479 2.47969 13.9125 2.93906C14.9771 3.39844 15.9031 4.02187 16.6906 4.80937C17.4781 5.59687 18.1016 6.52292 18.5609 7.5875C19.0203 8.65208 19.25 9.78958 19.25 11C19.25 12.2104 19.0203 13.3479 18.5609 14.4125C18.1016 15.4771 17.4781 16.4031 16.6906 17.1906C15.9031 17.9781 14.9771 18.6016 13.9125 19.0609C12.8479 19.5203 11.7104 19.75 10.5 19.75ZM10.5 18C12.4542 18 14.1094 17.3219 15.4656 15.9656C16.8219 14.6094 17.5 12.9542 17.5 11C17.5 9.04583 16.8219 7.39063 15.4656 6.03438C14.1094 4.67813 12.4542 4 10.5 4C8.54583 4 6.89063 4.67813 5.53438 6.03438C4.17813 7.39063 3.5 9.04583 3.5 11C3.5 12.9542 4.17813 14.6094 5.53438 15.9656C6.89063 17.3219 8.54583 18 10.5 18Z" fill="white"/>
</g>
</svg>
