<svg width="25" height="25" viewBox="0 0 25 25" fill="none" xmlns="http://www.w3.org/2000/svg">
<mask id="mask0_865_42838" style="mask-type:alpha" maskUnits="userSpaceOnUse" x="0" y="0" width="25" height="25">
<rect x="0.752441" y="0.0285645" width="24" height="24" fill="#D9D9D9"/>
</mask>
<g mask="url(#mask0_865_42838)">
<path d="M12.7524 16.0286L16.7524 12.0286L12.7524 8.02856L11.3524 9.42856L12.9524 11.0286H8.75244V13.0286H12.9524L11.3524 14.6286L12.7524 16.0286ZM12.7524 22.0286C11.3691 22.0286 10.0691 21.7659 8.85244 21.2406C7.63578 20.7159 6.57744 20.0036 5.67744 19.1036C4.77744 18.2036 4.06511 17.1452 3.54044 15.9286C3.01511 14.7119 2.75244 13.4119 2.75244 12.0286C2.75244 10.6452 3.01511 9.34523 3.54044 8.12856C4.06511 6.9119 4.77744 5.85356 5.67744 4.95356C6.57744 4.05356 7.63578 3.3409 8.85244 2.81556C10.0691 2.2909 11.3691 2.02856 12.7524 2.02856C14.1358 2.02856 15.4358 2.2909 16.6524 2.81556C17.8691 3.3409 18.9274 4.05356 19.8274 4.95356C20.7274 5.85356 21.4398 6.9119 21.9644 8.12856C22.4898 9.34523 22.7524 10.6452 22.7524 12.0286C22.7524 13.4119 22.4898 14.7119 21.9644 15.9286C21.4398 17.1452 20.7274 18.2036 19.8274 19.1036C18.9274 20.0036 17.8691 20.7159 16.6524 21.2406C15.4358 21.7659 14.1358 22.0286 12.7524 22.0286Z" fill="#1C1B1F"/>
</g>
</svg>
