<svg width="169" height="215" viewBox="0 0 169 215" fill="none" xmlns="http://www.w3.org/2000/svg">
<rect x="10" y="1.5" width="149" height="149" rx="36.5" fill="black"/>
<g clip-path="url(#clip0_987_47392)">
<path d="M132.5 42.8193V114.308L127.844 116.734V121.338C127.844 121.338 126.666 125.986 120.227 125.986C113.789 125.986 113.111 121.338 113.111 121.338V116.734H55.9622V121.338C55.9622 121.338 54.7836 125.986 48.36 125.986C41.9364 125.986 41.244 121.338 41.244 121.338V116.734L36.5 114.163V42.8193C41.0216 37.535 46.6622 33.2909 53.0253 30.3853C59.3885 27.4796 66.3198 25.9828 73.3324 26.0001H95.7559C102.753 25.9985 109.666 27.5027 116.013 30.4077C122.359 33.3127 127.986 37.5485 132.5 42.8193Z" fill="#00FFE0"/>
<path d="M117.458 47.7866H51.5277C48.5333 47.7866 46.106 50.1796 46.106 53.1316V80.234C46.106 83.1859 48.5333 85.5789 51.5277 85.5789H117.458C120.452 85.5789 122.879 83.1859 122.879 80.234V53.1316C122.879 50.1796 120.452 47.7866 117.458 47.7866Z" fill="black"/>
<path d="M106.364 33.0444H62.6362C61.6029 33.0444 60.7651 33.8703 60.7651 34.889V38.6363C60.7651 39.655 61.6029 40.4809 62.6362 40.4809H106.364C107.397 40.4809 108.235 39.655 108.235 38.6363V34.889C108.235 33.8703 107.397 33.0444 106.364 33.0444Z" fill="black"/>
<path d="M58.0836 108.847C62.6483 108.847 66.3487 105.199 66.3487 100.698C66.3487 96.1983 62.6483 92.5503 58.0836 92.5503C53.5188 92.5503 49.8184 96.1983 49.8184 100.698C49.8184 105.199 53.5188 108.847 58.0836 108.847Z" fill="black"/>
<path d="M110.916 108.847C115.481 108.847 119.181 105.199 119.181 100.698C119.181 96.1983 115.481 92.5503 110.916 92.5503C106.351 92.5503 102.651 96.1983 102.651 100.698C102.651 105.199 106.351 108.847 110.916 108.847Z" fill="black"/>
</g>
<rect x="10" y="1.5" width="149" height="149" rx="36.5" stroke="#00FFE0" stroke-width="3"/>
<path d="M8.95818 205.854V183.459H0.151833V179.284H22.6991V183.459H13.8928V205.854H8.95818ZM26.4024 205.854V179.284H37.3344C39.6878 179.284 41.6996 179.663 43.3698 180.422C45.0653 181.182 46.3685 182.27 47.2795 183.687C48.1905 185.104 48.646 186.787 48.646 188.735C48.646 190.684 48.1905 192.367 47.2795 193.784C46.3685 195.176 45.0653 196.251 43.3698 197.01C41.6996 197.744 39.6878 198.111 37.3344 198.111H29.1354L31.337 195.871V205.854H26.4024ZM43.7874 205.854L37.0687 196.213H42.3449L49.1015 205.854H43.7874ZM31.337 196.403L29.1354 194.049H37.1067C39.283 194.049 40.9152 193.581 42.0033 192.645C43.1168 191.709 43.6735 190.405 43.6735 188.735C43.6735 187.04 43.1168 185.737 42.0033 184.826C40.9152 183.915 39.283 183.459 37.1067 183.459H29.1354L31.337 181.03V196.403ZM50.409 205.854L62.3659 179.284H67.2246L79.2194 205.854H74.0571L63.7704 181.903H65.7442L55.4954 205.854H50.409ZM55.913 199.705L57.2415 195.833H71.5898L72.9183 199.705H55.913ZM82.5986 205.854V179.284H86.6601L103.324 199.743H101.312V179.284H106.209V205.854H102.147L85.4834 185.395H87.4952V205.854H82.5986ZM121.566 206.234C119.49 206.234 117.504 205.943 115.606 205.361C113.708 204.754 112.202 203.982 111.089 203.046L112.797 199.212C113.86 200.047 115.176 200.743 116.745 201.299C118.314 201.856 119.921 202.135 121.566 202.135C122.957 202.135 124.083 201.983 124.944 201.679C125.804 201.375 126.437 200.971 126.842 200.464C127.247 199.933 127.449 199.338 127.449 198.68C127.449 197.871 127.158 197.225 126.576 196.744C125.994 196.238 125.235 195.846 124.299 195.568C123.388 195.264 122.363 194.986 121.224 194.733C120.11 194.48 118.984 194.189 117.846 193.86C116.732 193.505 115.707 193.063 114.771 192.531C113.86 191.974 113.113 191.241 112.531 190.33C111.949 189.419 111.658 188.254 111.658 186.837C111.658 185.395 112.038 184.079 112.797 182.89C113.582 181.675 114.758 180.713 116.327 180.005C117.922 179.271 119.933 178.904 122.363 178.904C123.957 178.904 125.539 179.106 127.107 179.511C128.676 179.916 130.043 180.498 131.207 181.257L129.651 185.091C128.461 184.383 127.234 183.864 125.969 183.535C124.703 183.181 123.489 183.004 122.325 183.004C120.958 183.004 119.845 183.168 118.984 183.497C118.149 183.826 117.529 184.256 117.124 184.788C116.745 185.319 116.555 185.926 116.555 186.61C116.555 187.419 116.833 188.077 117.39 188.583C117.972 189.064 118.719 189.444 119.63 189.722C120.566 190.001 121.603 190.279 122.742 190.557C123.881 190.81 125.007 191.101 126.121 191.43C127.259 191.759 128.284 192.189 129.195 192.721C130.131 193.252 130.878 193.974 131.435 194.885C132.017 195.796 132.308 196.947 132.308 198.339C132.308 199.756 131.916 201.072 131.131 202.286C130.372 203.476 129.195 204.437 127.601 205.171C126.007 205.88 123.995 206.234 121.566 206.234ZM137.201 205.854V179.284H142.135V205.854H137.201ZM154.712 205.854V183.459H145.906V179.284H168.453V183.459H159.647V205.854H154.712Z" fill="#F7F7F7"/>
<defs>
<clipPath id="clip0_987_47392">
<rect width="96" height="100" fill="white" transform="translate(36.5 26)"/>
</clipPath>
</defs>
</svg>
