<svg width="650" height="1023" viewBox="0 0 650 1023" fill="none" xmlns="http://www.w3.org/2000/svg">
<g clip-path="url(#clip0_1881_21077)">
<path d="M6.61426 1002.79L80.8281 18.783C81.6603 7.84728 95.224 3.27736 102.495 11.4974L152.37 67.8987C154.721 70.556 158.108 72.089 161.67 72.089H471.491C472.819 72.089 474.148 71.87 475.418 71.4466L574.263 38.4935C583.198 35.515 592.061 43.1802 590.396 52.4515L573.65 145.821C573.46 146.872 573.416 147.938 573.489 149.004L642.461 1002.72" stroke="white" stroke-width="13.1404" stroke-miterlimit="10"/>
<path d="M191.338 177.548H254.09" stroke="white" stroke-width="27.7407" stroke-miterlimit="10" stroke-linecap="round"/>
<path d="M396.547 177.548H459.299" stroke="white" stroke-width="27.7407" stroke-miterlimit="10" stroke-linecap="round"/>
<path d="M253.988 250.562C253.988 250.562 258.704 266.651 278.955 266.651C290.621 266.651 301.264 260.315 308.2 254.927C312.696 251.438 319.033 251.832 323.15 255.774C329.122 261.483 339.24 268.038 354.147 268.038C380.501 268.038 385.217 251.671 385.217 251.671" stroke="white" stroke-width="10.2203" stroke-miterlimit="10" stroke-linecap="round"/>
<path d="M552.114 223.524L621.685 196.571C626.766 194.6 632.475 197.126 634.446 202.207C636.417 207.288 633.891 212.997 628.81 214.968C628.43 215.114 627.992 215.245 627.613 215.347L555.195 233.277C549.004 234.693 546.23 225.918 552.114 223.538V223.524Z" fill="white"/>
<path d="M555.34 245.731L629.89 239.832C634.693 239.453 638.898 243.044 639.278 247.848C639.716 252.943 635.54 257.367 630.43 257.25L555.661 255.936C549.222 255.659 548.93 246.402 555.355 245.716L555.34 245.731Z" fill="white"/>
<path d="M556.188 267.515L634.212 286.7C640.359 288.218 644.126 294.424 642.607 300.585C641.089 306.732 634.884 310.499 628.722 308.98C628.153 308.834 627.54 308.63 627.014 308.411L552.961 277.21C547.237 274.684 550.085 266.099 556.173 267.515H556.188Z" fill="white"/>
<path d="M95.4716 240.314L23.0537 222.385C17.7684 221.07 14.5417 215.727 15.8557 210.441C17.1697 205.156 22.5135 201.929 27.7988 203.243C28.193 203.346 28.6164 203.477 28.9961 203.623L98.5669 230.575C104.451 232.97 101.662 241.745 95.4862 240.314H95.4716Z" fill="white"/>
<path d="M95.019 262.988L20.2504 264.302C15.4323 264.39 11.461 260.55 11.3733 255.732C11.2565 250.622 15.6951 246.461 20.776 246.884L95.3256 252.783C101.735 253.454 101.458 262.711 95.019 263.003V262.988Z" fill="white"/>
<path d="M97.706 284.262L23.6528 315.463C17.8127 317.916 11.0819 315.186 8.62903 309.346C6.16156 303.505 8.90644 296.775 14.7466 294.322C15.2868 294.088 15.9 293.898 16.4548 293.752L94.4793 274.567C100.582 273.166 103.429 281.765 97.6914 284.262H97.706Z" fill="white"/>
</g>
<defs>
<clipPath id="clip0_1881_21077">
<rect width="649.075" height="1021.98" fill="white" transform="translate(0 0.72168)"/>
</clipPath>
</defs>
</svg>
