<svg width="216" height="121" viewBox="0 0 216 121" fill="none" xmlns="http://www.w3.org/2000/svg">
<g clip-path="url(#clip0_1978_27074)">
<mask id="path-1-outside-1_1978_27074" maskUnits="userSpaceOnUse" x="-5" y="9.55469" width="224" height="147" fill="black">
<rect fill="white" x="-5" y="9.55469" width="224" height="147"/>
<path fill-rule="evenodd" clip-rule="evenodd" d="M102.594 40.2965C80.0321 41.041 59.2004 48.0062 42.1336 59.361C37.2632 54.9725 36.103 48.603 36.1105 43.514C36.1105 41.2569 33.1621 40.3732 31.9287 42.2637C26.7153 50.2299 18.3743 65.0652 24.4907 74.0231C12.6943 86.2096 4.13138 101.052 -3.8147e-06 117.427V122.425H12.5657C13.4459 125.388 16.4675 134.024 22.9774 139.415C22.2762 142.47 21.4287 147.06 22.4401 148.066C23.502 149.123 28.3648 145.995 31.3259 143.532C31.8934 143.663 32.4811 143.756 33.0839 143.826C33.6362 143.891 34.181 143.941 34.7183 143.989C35.7372 147.052 37.465 151.285 39.7602 151.052C42.0176 150.816 43.662 146.854 44.5297 143.582C46.5374 143.168 48.3811 142.513 50.0281 141.591H50.0357C53.8669 143.447 58.6995 145.626 59.5974 144.79C60.6643 143.798 58.8281 137.288 57.1735 133.417C56.5783 132.018 56.0032 130.969 55.6022 130.64C56.5405 130.449 57.4812 130.233 58.3489 130.012H58.3565C60.6945 129.405 62.5585 128.692 62.7022 127.949C62.8737 127.035 61.31 124.78 59.4965 122.546C59.486 122.531 59.475 122.517 59.4639 122.504L59.4537 122.492L59.4537 122.491C59.436 122.47 59.4184 122.449 59.4032 122.425H213.455L213.248 117.427C207.74 95.5692 194.321 76.4508 175.876 62.7177C179.756 53.6644 172.204 40.323 167.356 32.9116C166.116 31.0286 163.17 31.9074 163.17 34.1619C163.175 39.6225 161.835 46.5468 156.027 50.9379C141.21 44.1015 124.448 40.2414 106.705 40.2301C107.162 39.3335 107.61 38.3787 108.021 37.3827C111.177 29.7479 110.652 23.4261 106.506 19.1003C98.9379 11.2055 84.9617 15.4876 78.8582 17.9124C77.7262 16.3623 75.8902 15.3545 73.8176 15.3545C70.3784 15.3545 67.5903 18.1298 67.5903 21.5532C67.5903 24.9767 70.3784 27.752 73.8176 27.752C77.2569 27.752 80.045 24.9767 80.045 21.5532C80.045 21.4681 80.0433 21.3834 80.0398 21.2991C85.3933 19.1675 97.8294 15.2182 103.91 21.5633C108.907 26.7762 105.567 35.0885 102.594 40.2965ZM72.3698 73.9274C71.8225 73.9274 71.2751 73.7115 70.8716 73.2822C70.0947 72.4587 70.1376 71.1657 70.9649 70.3924L78.4407 63.4154L69.4491 62.2957C68.3241 62.1551 67.5246 61.1333 67.6658 60.0135C67.8071 58.8938 68.8336 58.0979 69.9585 58.2385L81.0638 59.6194C82.2745 59.77 83.2582 60.5809 83.6365 61.7333C84.0123 62.8882 83.6945 64.1184 82.8042 64.9494L73.7772 73.3751C73.3761 73.7441 72.8717 73.9274 72.3698 73.9274ZM131.677 67.9951C131.909 68.0804 132.146 68.1206 132.381 68.1206C133.218 68.1206 134.005 67.6059 134.313 66.7749C134.701 65.7154 134.151 64.5405 133.087 64.1538L120.587 59.6171L129.304 52.9238C130.202 52.2359 130.368 50.9505 129.674 50.0567C128.981 49.1629 127.692 48.9972 126.794 49.6876L117.52 56.8077C116.445 57.6337 115.908 58.9744 116.115 60.3076C116.322 61.6407 117.242 62.7579 118.516 63.2199L131.677 67.9951ZM109.376 113.368C83.7022 118.346 83.0363 78.8919 83.0363 78.8919L86.7011 80.1673L90.038 86.484L94.7066 78.8894L110.71 76.8608L116.377 81.508L118.246 75.1812L121.609 71.8847C121.609 71.8847 135.049 108.389 109.376 113.368ZM111.711 99.9007C113.489 104.385 106.853 107.686 106.853 107.686C106.853 107.686 101.284 105.565 101.284 101.199C101.284 96.8352 106.853 100.609 106.853 100.609C106.853 100.609 109.933 95.4192 111.711 99.9007Z"/>
</mask>
<path fill-rule="evenodd" clip-rule="evenodd" d="M102.594 40.2965C80.0321 41.041 59.2004 48.0062 42.1336 59.361C37.2632 54.9725 36.103 48.603 36.1105 43.514C36.1105 41.2569 33.1621 40.3732 31.9287 42.2637C26.7153 50.2299 18.3743 65.0652 24.4907 74.0231C12.6943 86.2096 4.13138 101.052 -3.8147e-06 117.427V122.425H12.5657C13.4459 125.388 16.4675 134.024 22.9774 139.415C22.2762 142.47 21.4287 147.06 22.4401 148.066C23.502 149.123 28.3648 145.995 31.3259 143.532C31.8934 143.663 32.4811 143.756 33.0839 143.826C33.6362 143.891 34.181 143.941 34.7183 143.989C35.7372 147.052 37.465 151.285 39.7602 151.052C42.0176 150.816 43.662 146.854 44.5297 143.582C46.5374 143.168 48.3811 142.513 50.0281 141.591H50.0357C53.8669 143.447 58.6995 145.626 59.5974 144.79C60.6643 143.798 58.8281 137.288 57.1735 133.417C56.5783 132.018 56.0032 130.969 55.6022 130.64C56.5405 130.449 57.4812 130.233 58.3489 130.012H58.3565C60.6945 129.405 62.5585 128.692 62.7022 127.949C62.8737 127.035 61.31 124.78 59.4965 122.546C59.486 122.531 59.475 122.517 59.4639 122.504L59.4537 122.492L59.4537 122.491C59.436 122.47 59.4184 122.449 59.4032 122.425H213.455L213.248 117.427C207.74 95.5692 194.321 76.4508 175.876 62.7177C179.756 53.6644 172.204 40.323 167.356 32.9116C166.116 31.0286 163.17 31.9074 163.17 34.1619C163.175 39.6225 161.835 46.5468 156.027 50.9379C141.21 44.1015 124.448 40.2414 106.705 40.2301C107.162 39.3335 107.61 38.3787 108.021 37.3827C111.177 29.7479 110.652 23.4261 106.506 19.1003C98.9379 11.2055 84.9617 15.4876 78.8582 17.9124C77.7262 16.3623 75.8902 15.3545 73.8176 15.3545C70.3784 15.3545 67.5903 18.1298 67.5903 21.5532C67.5903 24.9767 70.3784 27.752 73.8176 27.752C77.2569 27.752 80.045 24.9767 80.045 21.5532C80.045 21.4681 80.0433 21.3834 80.0398 21.2991C85.3933 19.1675 97.8294 15.2182 103.91 21.5633C108.907 26.7762 105.567 35.0885 102.594 40.2965ZM72.3698 73.9274C71.8225 73.9274 71.2751 73.7115 70.8716 73.2822C70.0947 72.4587 70.1376 71.1657 70.9649 70.3924L78.4407 63.4154L69.4491 62.2957C68.3241 62.1551 67.5246 61.1333 67.6658 60.0135C67.8071 58.8938 68.8336 58.0979 69.9585 58.2385L81.0638 59.6194C82.2745 59.77 83.2582 60.5809 83.6365 61.7333C84.0123 62.8882 83.6945 64.1184 82.8042 64.9494L73.7772 73.3751C73.3761 73.7441 72.8717 73.9274 72.3698 73.9274ZM131.677 67.9951C131.909 68.0804 132.146 68.1206 132.381 68.1206C133.218 68.1206 134.005 67.6059 134.313 66.7749C134.701 65.7154 134.151 64.5405 133.087 64.1538L120.587 59.6171L129.304 52.9238C130.202 52.2359 130.368 50.9505 129.674 50.0567C128.981 49.1629 127.692 48.9972 126.794 49.6876L117.52 56.8077C116.445 57.6337 115.908 58.9744 116.115 60.3076C116.322 61.6407 117.242 62.7579 118.516 63.2199L131.677 67.9951ZM109.376 113.368C83.7022 118.346 83.0363 78.8919 83.0363 78.8919L86.7011 80.1673L90.038 86.484L94.7066 78.8894L110.71 76.8608L116.377 81.508L118.246 75.1812L121.609 71.8847C121.609 71.8847 135.049 108.389 109.376 113.368ZM111.711 99.9007C113.489 104.385 106.853 107.686 106.853 107.686C106.853 107.686 101.284 105.565 101.284 101.199C101.284 96.8352 106.853 100.609 106.853 100.609C106.853 100.609 109.933 95.4192 111.711 99.9007Z" fill="black"/>
<path d="M42.1336 59.361L38.7866 63.0755L41.6708 65.6744L44.9032 63.5239L42.1336 59.361ZM102.594 40.2965L102.759 45.2938L105.551 45.2016L106.936 42.7752L102.594 40.2965ZM36.1105 43.514L41.1105 43.5214V43.514H36.1105ZM31.9287 42.2637L36.1124 45.0017L36.1163 44.9957L31.9287 42.2637ZM24.4907 74.0231L28.0833 77.5006L30.9191 74.571L28.62 71.2036L24.4907 74.0231ZM-3.8147e-06 117.427L-4.84807 116.204L-5 116.806V117.427H-3.8147e-06ZM-3.8147e-06 122.425H-5V127.425H-3.8147e-06V122.425ZM12.5657 122.425L17.3586 121.001L16.2961 117.425H12.5657V122.425ZM22.9774 139.415L27.8507 140.533L28.54 137.529L26.1662 135.564L22.9774 139.415ZM22.4401 148.066L18.9127 151.61L18.9128 151.61L22.4401 148.066ZM31.3259 143.532L32.4469 138.659L30.0329 138.104L28.1285 139.688L31.3259 143.532ZM33.0839 143.826L33.6707 138.86L33.663 138.86L33.0839 143.826ZM34.7183 143.989L39.4626 142.411L38.4274 139.299L35.1606 139.009L34.7183 143.989ZM39.7602 151.052L40.2662 156.026L40.2801 156.024L39.7602 151.052ZM44.5297 143.582L43.5193 138.686L40.4898 139.311L39.6968 142.301L44.5297 143.582ZM50.0281 141.591V136.591H48.7246L47.5869 137.228L50.0281 141.591ZM50.0357 141.591L52.2149 137.091L51.1826 136.591H50.0357V141.591ZM59.5974 144.79L56.1933 141.128L56.1902 141.131L59.5974 144.79ZM57.1735 133.417L52.573 135.375L52.5758 135.382L57.1735 133.417ZM55.6022 130.64L54.6058 125.74L44.2988 127.836L52.4315 134.506L55.6022 130.64ZM58.3489 130.012V125.012H57.7223L57.1151 125.167L58.3489 130.012ZM58.3565 130.012V135.012H58.9955L59.614 134.852L58.3565 130.012ZM62.7022 127.949L67.6112 128.898L67.6139 128.885L67.6164 128.871L62.7022 127.949ZM59.4965 122.546L55.4176 125.438L55.5117 125.57L55.6142 125.697L59.4965 122.546ZM59.4639 122.504L63.3277 119.33L63.3193 119.32L59.4639 122.504ZM59.4537 122.492L63.3092 119.308L63.1576 119.124L62.9893 118.956L59.4537 122.492ZM59.4537 122.491L55.6017 125.679L55.7517 125.861L55.9181 126.027L59.4537 122.491ZM59.4032 122.425V117.425H50.1904L55.2108 125.15L59.4032 122.425ZM213.455 122.425V127.425H218.666L218.451 122.219L213.455 122.425ZM213.248 117.427L218.244 117.22L218.223 116.705L218.097 116.205L213.248 117.427ZM175.876 62.7177L171.281 60.7485L169.727 64.3732L172.89 66.7282L175.876 62.7177ZM167.356 32.9116L171.541 30.1746L171.536 30.1674L171.531 30.1602L167.356 32.9116ZM163.17 34.1619L158.17 34.1619L158.17 34.1665L163.17 34.1619ZM156.027 50.9379L153.932 55.4779L156.652 56.733L159.042 54.9265L156.027 50.9379ZM106.705 40.2301L102.251 37.9584L98.5449 45.2249L106.702 45.2301L106.705 40.2301ZM108.021 37.3827L112.642 39.2924L112.642 39.2924L108.021 37.3827ZM106.506 19.1003L110.115 15.6404L110.115 15.6404L106.506 19.1003ZM78.8582 17.9124L74.8202 20.8611L77.1045 23.9892L80.7042 22.5591L78.8582 17.9124ZM80.0398 21.2991L78.1902 16.6537L74.9005 17.9636L75.0439 21.5016L80.0398 21.2991ZM103.91 21.5633L100.3 25.0228L100.301 25.0233L103.91 21.5633ZM70.8716 73.2822L74.5147 69.8576L74.5086 69.8511L70.8716 73.2822ZM70.9649 70.3924L67.5534 66.7371L67.5506 66.7397L70.9649 70.3924ZM78.4407 63.4154L81.8522 67.0708L89.6695 59.7751L79.0586 58.4537L78.4407 63.4154ZM69.4491 62.2957L68.829 67.2571L68.8312 67.2574L69.4491 62.2957ZM69.9585 58.2385L69.3384 63.1999L69.3416 63.2003L69.9585 58.2385ZM81.0638 59.6194L81.6812 54.6576L81.6808 54.6576L81.0638 59.6194ZM83.6365 61.7333L88.3911 60.1861L88.387 60.1737L83.6365 61.7333ZM82.8042 64.9494L79.3925 61.2942L79.3925 61.2942L82.8042 64.9494ZM73.7772 73.3751L77.163 77.0542L77.176 77.0423L77.1889 77.0303L73.7772 73.3751ZM131.677 67.9951L133.403 63.3025L133.393 63.2987L133.382 63.2949L131.677 67.9951ZM134.313 66.7749L139.002 68.5111L139.005 68.5036L139.007 68.496L134.313 66.7749ZM133.087 64.1538L134.794 59.4543L134.793 59.4538L133.087 64.1538ZM120.587 59.6171L117.542 55.6514L110.308 61.2058L118.881 64.3172L120.587 59.6171ZM129.304 52.9238L126.263 48.9547L126.259 48.9581L129.304 52.9238ZM126.794 49.6876L129.839 53.6536L129.842 53.6513L126.794 49.6876ZM117.52 56.8077L114.475 52.8418L114.473 52.8437L117.52 56.8077ZM116.115 60.3076L121.056 59.541L121.056 59.541L116.115 60.3076ZM118.516 63.2199L120.222 58.5197L120.221 58.5195L118.516 63.2199ZM83.0363 78.8919L84.6797 74.1697L77.9162 71.8159L78.037 78.9763L83.0363 78.8919ZM109.376 113.368L110.328 118.276L110.328 118.276L109.376 113.368ZM86.7011 80.1673L91.1221 77.8318L90.203 76.0919L88.3445 75.4451L86.7011 80.1673ZM90.038 86.484L85.6169 88.8195L89.7093 96.5663L94.2975 89.1025L90.038 86.484ZM94.7066 78.8894L94.0778 73.9291L91.7015 74.2303L90.447 76.2709L94.7066 78.8894ZM110.71 76.8608L113.88 72.9944L112.216 71.6299L110.081 71.9005L110.71 76.8608ZM116.377 81.508L113.207 85.3743L119.037 90.1546L121.173 82.9245L116.377 81.508ZM118.246 75.1812L114.746 71.611L113.819 72.5198L113.451 73.7647L118.246 75.1812ZM121.609 71.8847L126.301 70.1571L123.629 62.9014L118.108 68.3145L121.609 71.8847ZM106.853 107.686L105.074 112.359L107.12 113.138L109.081 112.163L106.853 107.686ZM111.711 99.9007L116.359 98.0575L116.359 98.0566L111.711 99.9007ZM106.853 100.609L104.049 104.748L108.444 107.726L111.153 103.16L106.853 100.609ZM44.9032 63.5239C61.1954 52.6844 81.1249 46.0076 102.759 45.2938L102.429 35.2992C78.9393 36.0743 57.2054 43.328 39.364 55.1982L44.9032 63.5239ZM31.1105 43.5065C31.1021 49.1573 32.3597 57.2845 38.7866 63.0755L45.4806 55.6465C42.1667 52.6605 41.1038 48.0487 41.1105 43.5214L31.1105 43.5065ZM36.1163 44.9957C34.6099 47.3048 31.1105 46.1882 31.1105 43.514H41.1105C41.1105 36.3257 31.7143 33.4416 27.7411 39.5317L36.1163 44.9957ZM28.62 71.2036C26.9438 68.7488 26.8556 64.8123 28.6968 59.3752C30.4632 54.1592 33.5733 48.8815 36.1124 45.0017L27.745 39.5257C25.0707 43.612 21.4036 49.7351 19.2252 56.1677C17.1217 62.3794 15.9212 70.3394 20.3614 76.8425L28.62 71.2036ZM4.84806 118.65C8.75206 103.177 16.8563 89.0989 28.0833 77.5006L20.8981 70.5455C8.53227 83.3204 -0.489299 98.928 -4.84807 116.204L4.84806 118.65ZM5 122.425V117.427H-5V122.425H5ZM12.5657 117.425H-3.8147e-06V127.425H12.5657V117.425ZM26.1662 135.564C20.8717 131.18 18.1904 123.801 17.3586 121.001L7.77276 123.849C8.70147 126.975 12.0634 136.869 19.7885 143.266L26.1662 135.564ZM25.9675 144.523C26.6131 145.165 26.8427 145.807 26.9101 146.019C26.9873 146.263 26.9882 146.385 26.9814 146.303C26.9671 146.132 26.967 145.721 27.0394 145.029C27.1806 143.678 27.5139 142.001 27.8507 140.533L18.104 138.296C17.7397 139.884 17.2986 142.029 17.0936 143.989C16.993 144.952 16.9268 146.068 17.0162 147.136C17.0778 147.872 17.2874 149.992 18.9127 151.61L25.9675 144.523ZM28.1285 139.688C26.8299 140.768 25.1285 141.976 23.7367 142.752C23.4014 142.939 23.1163 143.082 22.8856 143.186C22.7719 143.237 22.6811 143.274 22.6126 143.3C22.5788 143.313 22.5528 143.322 22.5343 143.328C22.5157 143.334 22.5068 143.337 22.5071 143.337C22.5073 143.337 22.5198 143.333 22.5438 143.328C22.5676 143.323 22.6072 143.315 22.6612 143.306C22.7607 143.292 22.9588 143.269 23.2299 143.281C23.7374 143.304 24.9207 143.481 25.9675 144.523L18.9128 151.61C20.2251 152.916 21.7925 153.227 22.7808 153.271C23.7579 153.315 24.6181 153.131 25.2131 152.964C26.4181 152.625 27.6143 152.039 28.6049 151.487C30.6503 150.347 32.8608 148.759 34.5233 147.376L28.1285 139.688ZM33.663 138.86C33.1874 138.804 32.7887 138.738 32.4469 138.659L30.2049 148.405C30.9981 148.587 31.7748 148.707 32.5047 148.792L33.663 138.86ZM35.1606 139.009C34.6282 138.961 34.1455 138.917 33.6707 138.86L32.4971 148.791C33.127 148.866 33.7339 148.921 34.2759 148.97L35.1606 139.009ZM39.2541 146.077C40.4102 145.96 41.1564 146.478 41.3238 146.616C41.4452 146.716 41.3286 146.652 41.0494 146.186C40.4991 145.268 39.9512 143.88 39.4626 142.411L29.9739 145.567C30.5043 147.162 31.3298 149.421 32.4719 151.327C33.0389 152.273 33.8482 153.415 34.9709 154.339C36.1397 155.3 37.9626 156.26 40.2662 156.026L39.2541 146.077ZM39.6968 142.301C39.3165 143.734 38.8188 145.094 38.3056 146.009C38.0489 146.466 37.8963 146.616 37.9125 146.601C37.934 146.58 38.3792 146.169 39.2403 146.079L40.2801 156.024C42.2698 155.816 43.7671 154.821 44.7589 153.889C45.7455 152.963 46.4815 151.873 47.0265 150.902C48.1169 148.959 48.8752 146.702 49.3626 144.864L39.6968 142.301ZM47.5869 137.228C46.4484 137.865 45.0998 138.359 43.5193 138.686L45.5401 148.479C47.975 147.977 50.3138 147.161 52.4693 145.955L47.5869 137.228ZM50.0357 136.591H50.0281V146.591H50.0357V136.591ZM56.1902 141.131C57.2768 140.119 58.436 140.003 58.7145 139.983C59.078 139.955 59.2632 140.004 59.1541 139.984C58.9534 139.948 58.4729 139.818 57.6664 139.516C56.1046 138.933 54.1209 138.014 52.2149 137.091L47.8564 146.092C49.7817 147.024 52.1299 148.123 54.1666 148.884C55.1595 149.255 56.2948 149.629 57.3726 149.824C57.9026 149.92 58.6427 150.016 59.4573 149.955C60.1868 149.901 61.6935 149.67 63.0046 148.449L56.1902 141.131ZM52.5758 135.382C53.2954 137.065 54.0775 139.391 54.5421 141.342C54.7788 142.336 54.887 143.042 54.9102 143.434C54.9224 143.641 54.8981 143.568 54.941 143.321C54.9607 143.207 55.1348 142.112 56.1933 141.128L63.0015 148.452C64.3267 147.22 64.6767 145.705 64.7938 145.03C64.934 144.222 64.9284 143.447 64.8927 142.844C64.82 141.615 64.5657 140.267 64.2699 139.025C63.6696 136.504 62.7063 133.64 61.7712 131.452L52.5758 135.382ZM52.4315 134.506C52.2165 134.33 52.0745 134.177 52.0043 134.097C51.929 134.011 51.8853 133.951 51.8725 133.933C51.8507 133.903 51.879 133.939 51.9543 134.074C52.1046 134.342 52.3183 134.777 52.573 135.375L61.7741 131.459C61.4335 130.659 61.0621 129.87 60.6757 129.181C60.3989 128.688 59.7686 127.591 58.7729 126.774L52.4315 134.506ZM57.1151 125.167C56.3267 125.368 55.465 125.566 54.6058 125.74L56.5986 135.54C57.6159 135.333 58.6358 135.099 59.5827 134.858L57.1151 125.167ZM58.3565 125.012H58.3489V135.012H58.3565V125.012ZM57.7933 126.999C57.954 126.168 58.3106 125.57 58.5793 125.214C58.844 124.863 59.0938 124.652 59.2132 124.559C59.4331 124.387 59.5229 124.372 59.3112 124.467C58.9135 124.645 58.1774 124.893 57.0989 125.173L59.614 134.852C60.8737 134.524 62.2385 134.112 63.3933 133.596C63.9577 133.343 64.6866 132.973 65.3695 132.439C65.9372 131.996 67.2318 130.86 67.6112 128.898L57.7933 126.999ZM55.6142 125.697C56.4712 126.753 57.1652 127.689 57.5997 128.386C57.8222 128.743 57.892 128.904 57.8902 128.9C57.8874 128.893 57.8287 128.75 57.7803 128.502C57.7365 128.277 57.6548 127.736 57.788 127.026L67.6164 128.871C67.9358 127.169 67.392 125.725 67.1672 125.167C66.8638 124.413 66.4614 123.699 66.0878 123.099C65.3298 121.882 64.3353 120.574 63.3788 119.395L55.6142 125.697ZM55.6 125.677C55.587 125.661 55.5099 125.568 55.4176 125.438L63.5754 119.654C63.4622 119.494 63.363 119.373 63.3277 119.33L55.6 125.677ZM55.5983 125.675L55.6084 125.687L63.3193 119.32L63.3092 119.308L55.5983 125.675ZM55.9181 126.027L55.9182 126.027L62.9893 118.956L62.9892 118.956L55.9181 126.027ZM55.2108 125.15C55.3194 125.317 55.4182 125.449 55.4844 125.534C55.545 125.611 55.6004 125.678 55.6017 125.679L63.3057 119.304C63.2893 119.284 63.327 119.329 63.3706 119.385C63.4198 119.448 63.5022 119.557 63.5955 119.701L55.2108 125.15ZM213.455 117.425H59.4032V127.425H213.455V117.425ZM208.252 117.633L208.459 122.632L218.451 122.219L218.244 117.22L208.252 117.633ZM172.89 66.7282C190.492 79.8331 203.196 97.9999 208.4 118.649L218.097 116.205C212.283 93.1386 198.151 73.0685 178.862 58.7073L172.89 66.7282ZM163.172 35.6486C165.526 39.2473 168.388 44.0704 170.204 48.9442C172.09 54.0095 172.438 58.0468 171.281 60.7485L180.472 64.687C183.194 58.3353 181.706 51.1752 179.575 45.4537C177.372 39.5406 174.035 33.9873 171.541 30.1746L163.172 35.6486ZM168.17 34.1619C168.17 36.898 164.654 37.8973 163.182 35.663L171.531 30.1602C167.577 24.16 158.17 26.9167 158.17 34.1619H168.17ZM159.042 54.9265C166.717 49.1247 168.175 40.2095 168.17 34.1573L158.17 34.1665C158.174 39.0355 156.954 43.9689 153.011 46.9493L159.042 54.9265ZM106.702 45.2301C123.719 45.241 139.768 48.9427 153.932 55.4779L158.121 46.3979C142.652 39.2603 125.176 35.2419 106.708 35.2301L106.702 45.2301ZM111.159 42.5018C111.669 41.5025 112.174 40.4265 112.642 39.2924L103.4 35.4729C103.046 36.3309 102.656 37.1645 102.251 37.9584L111.159 42.5018ZM112.642 39.2924C116.216 30.6453 116.157 21.9435 110.115 15.6404L102.896 22.5603C105.147 24.9088 106.137 28.8505 103.4 35.473L112.642 39.2924ZM110.115 15.6404C104.84 10.1371 97.633 9.21384 91.7621 9.65027C85.8282 10.0914 80.2664 11.9728 77.0121 13.2657L80.7042 22.5591C83.5535 21.4272 88.0315 19.9552 92.5035 19.6227C97.0385 19.2856 100.604 20.1687 102.896 22.5603L110.115 15.6404ZM82.8961 14.9637C80.8598 12.1752 77.5482 10.3545 73.8176 10.3545V20.3545C74.2321 20.3545 74.5926 20.5494 74.8202 20.8611L82.8961 14.9637ZM73.8176 10.3545C67.6387 10.3545 62.5903 15.3466 62.5903 21.5532H72.5903C72.5903 20.9129 73.118 20.3545 73.8176 20.3545V10.3545ZM62.5903 21.5532C62.5903 27.7598 67.6387 32.752 73.8176 32.752V22.752C73.118 22.752 72.5903 22.1936 72.5903 21.5532H62.5903ZM73.8176 32.752C79.9966 32.752 85.045 27.7598 85.045 21.5532H75.045C75.045 22.1936 74.5172 22.752 73.8176 22.752V32.752ZM85.045 21.5532C85.045 21.4006 85.0419 21.2483 85.0357 21.0965L75.0439 21.5016C75.0446 21.5184 75.045 21.5356 75.045 21.5532H85.045ZM81.8895 25.9444C84.391 24.9483 88.3411 23.6193 92.2072 23.2269C96.2481 22.8167 98.8814 23.5423 100.3 25.0228L107.52 18.1037C102.858 13.2392 96.233 12.7669 91.1974 13.278C85.9868 13.8069 81.0421 15.5182 78.1902 16.6537L81.8895 25.9444ZM100.301 25.0233C101.3 26.0658 101.743 27.5905 101.313 30.0833C100.875 32.6315 99.6176 35.4245 98.2515 37.8178L106.936 42.7752C108.543 39.9605 110.443 35.9934 111.168 31.7802C111.903 27.5116 111.517 22.2736 107.52 18.1032L100.301 25.0233ZM67.2284 76.7067C68.6246 78.1921 70.5139 78.9274 72.3698 78.9274V68.9274C73.131 68.9274 73.9256 69.2309 74.5147 69.8576L67.2284 76.7067ZM67.5506 66.7397C64.7071 69.3976 64.5494 73.8669 67.2345 76.7132L74.5086 69.8511C75.64 71.0505 75.5681 72.9339 74.3792 74.0452L67.5506 66.7397ZM75.0293 59.76L67.5534 66.7371L74.3764 74.0478L81.8522 67.0708L75.0293 59.76ZM68.8312 67.2574L77.8229 68.3771L79.0586 58.4537L70.0669 57.334L68.8312 67.2574ZM62.7052 59.3878C62.2145 63.2775 64.9898 66.7773 68.829 67.2571L70.0691 57.3343C71.6584 57.5329 72.8347 58.9891 72.6265 60.6393L62.7052 59.3878ZM70.5786 53.2771C66.7296 52.796 63.1934 55.5168 62.7052 59.3878L72.6265 60.6393C72.4207 62.2707 70.9377 63.3998 69.3384 63.1999L70.5786 53.2771ZM81.6808 54.6576L70.5755 53.2767L69.3416 63.2003L80.4469 64.5811L81.6808 54.6576ZM88.387 60.1737C87.4042 57.1801 84.8086 55.0467 81.6812 54.6576L80.4465 64.5811C79.7404 64.4932 79.1121 63.9818 78.886 63.2929L88.387 60.1737ZM86.2158 68.6046C88.5238 66.4504 89.3694 63.1925 88.3911 60.1861L78.8819 63.2805C78.6552 62.5839 78.8652 61.7863 79.3925 61.2942L86.2158 68.6046ZM77.1889 77.0303L86.2159 68.6046L79.3925 61.2942L70.3655 69.7199L77.1889 77.0303ZM72.3698 78.9274C74.0925 78.9274 75.8147 78.2951 77.163 77.0542L70.3913 69.6959C70.9376 69.1932 71.6508 68.9274 72.3698 68.9274V78.9274ZM132.381 63.1206C132.722 63.1206 133.071 63.1801 133.403 63.3025L129.951 72.6876C130.748 72.9808 131.57 73.1206 132.381 73.1206V63.1206ZM129.624 65.0387C130.065 63.8473 131.192 63.1206 132.381 63.1206V73.1206C135.244 73.1206 137.945 71.3646 139.002 68.5111L129.624 65.0387ZM131.38 68.8534C129.862 68.3018 129.048 66.6106 129.618 65.0538L139.007 68.496C140.355 64.8202 138.441 60.7791 134.794 59.4543L131.38 68.8534ZM118.881 64.3172L131.381 68.8539L134.793 59.4538L122.293 54.9171L118.881 64.3172ZM126.259 48.9581L117.542 55.6514L123.632 63.5829L132.349 56.8895L126.259 48.9581ZM125.724 53.1221C124.717 51.8238 124.96 49.953 126.263 48.9547L132.345 56.8929C135.443 54.5188 136.019 50.0771 133.625 46.9913L125.724 53.1221ZM129.842 53.6513C128.558 54.6383 126.719 54.4038 125.724 53.1221L133.625 46.9913C131.243 43.922 126.826 43.3561 123.746 45.7239L129.842 53.6513ZM120.565 60.7737L129.839 53.6536L123.749 45.7216L114.475 52.8418L120.565 60.7737ZM121.056 59.541C121.13 60.0184 120.935 60.4888 120.567 60.7718L114.473 52.8437C111.956 54.7787 110.686 57.9304 111.174 61.0741L121.056 59.541ZM120.221 58.5195C120.656 58.6771 120.982 59.0627 121.056 59.541L111.174 61.0741C111.662 64.2187 113.829 66.8387 116.811 67.9203L120.221 58.5195ZM133.382 63.2949L120.222 58.5197L116.811 67.9201L129.972 72.6953L133.382 63.2949ZM83.0363 78.8919C78.037 78.9763 78.037 78.978 78.0371 78.9799C78.0371 78.9807 78.0371 78.9828 78.0372 78.9845C78.0372 78.9878 78.0373 78.9918 78.0374 78.9963C78.0376 79.0054 78.0378 79.0169 78.0381 79.0308C78.0387 79.0585 78.0396 79.0957 78.0409 79.142C78.0434 79.2347 78.0475 79.3639 78.0538 79.5273C78.0664 79.8538 78.0882 80.3172 78.1252 80.8965C78.1992 82.0536 78.3347 83.6822 78.582 85.6138C79.0724 89.4445 80.0212 94.6184 81.882 99.7123C83.7212 104.748 86.6136 110.155 91.2669 113.954C96.1339 117.928 102.509 119.792 110.328 118.276L108.424 108.459C103.405 109.432 100.07 108.232 97.5914 106.208C94.8992 104.01 92.8113 100.487 91.2749 96.2813C89.76 92.1339 88.9378 87.7554 88.501 84.3439C88.2847 82.6545 88.1676 81.2396 88.1049 80.2585C88.0736 79.7687 88.0559 79.3892 88.0463 79.1403C88.0415 79.0158 88.0387 78.9242 88.0371 78.8678C88.0363 78.8397 88.0359 78.8203 88.0357 78.8102C88.0355 78.8051 88.0355 78.8023 88.0355 78.8019C88.0355 78.8016 88.0355 78.802 88.0355 78.8029C88.0355 78.8034 88.0355 78.8045 88.0355 78.8048C88.0356 78.8061 88.0356 78.8075 83.0363 78.8919ZM88.3445 75.4451L84.6797 74.1697L81.3929 83.6141L85.0577 84.8895L88.3445 75.4451ZM94.459 84.1486L91.1221 77.8318L82.28 82.5028L85.6169 88.8195L94.459 84.1486ZM90.447 76.2709L85.7784 83.8656L94.2975 89.1025L98.9661 81.5078L90.447 76.2709ZM110.081 71.9005L94.0778 73.9291L95.3354 83.8497L111.339 81.8211L110.081 71.9005ZM119.548 77.6416L113.88 72.9944L107.54 80.7272L113.207 85.3743L119.548 77.6416ZM113.451 73.7647L111.582 80.0914L121.173 82.9245L123.042 76.5977L113.451 73.7647ZM118.108 68.3145L114.746 71.611L121.747 78.7514L125.109 75.455L118.108 68.3145ZM110.328 118.276C118.122 116.765 123.362 112.699 126.462 107.262C129.433 102.051 130.202 96.0065 130.119 90.6818C130.036 85.2997 129.074 80.1837 128.163 76.4747C127.704 74.6044 127.249 73.0546 126.905 71.9612C126.733 71.4138 126.587 70.9787 126.482 70.6729C126.43 70.5199 126.387 70.399 126.357 70.3124C126.341 70.2691 126.329 70.2343 126.319 70.2084C126.315 70.1954 126.311 70.1846 126.308 70.1761C126.306 70.1718 126.305 70.1681 126.303 70.1649C126.303 70.1633 126.302 70.1614 126.302 70.1606C126.301 70.1588 126.301 70.1571 121.609 71.8847C116.916 73.6123 116.916 73.611 116.916 73.6097C116.915 73.6095 116.915 73.6084 116.915 73.6079C116.915 73.607 116.914 73.6066 116.914 73.6067C116.915 73.607 116.915 73.6095 116.917 73.6141C116.92 73.6232 116.927 73.6409 116.936 73.6668C116.954 73.7187 116.984 73.8034 117.024 73.919C117.103 74.1503 117.222 74.5043 117.367 74.9648C117.657 75.8872 118.052 77.2282 118.452 78.858C119.259 82.1492 120.053 86.4704 120.12 90.8367C120.189 95.2605 119.504 99.2759 117.775 102.309C116.173 105.118 113.466 107.481 108.424 108.459L110.328 118.276ZM106.853 107.686C109.081 112.163 109.082 112.162 109.084 112.161C109.084 112.161 109.086 112.16 109.087 112.16C109.089 112.159 109.091 112.158 109.093 112.156C109.098 112.154 109.103 112.152 109.108 112.149C109.119 112.143 109.132 112.137 109.146 112.13C109.175 112.115 109.21 112.097 109.251 112.075C109.333 112.032 109.439 111.975 109.566 111.905C109.819 111.764 110.16 111.566 110.554 111.314C111.323 110.823 112.388 110.07 113.42 109.074C115.258 107.301 118.419 103.252 116.359 98.0575L107.063 101.744C106.982 101.539 107.017 101.261 107.053 101.169C107.054 101.167 107.047 101.185 107.026 101.223C107.004 101.26 106.971 101.313 106.922 101.38C106.821 101.519 106.675 101.687 106.478 101.876C106.074 102.266 105.591 102.618 105.171 102.886C104.971 103.014 104.807 103.109 104.704 103.166C104.653 103.195 104.619 103.213 104.604 103.22C104.597 103.224 104.595 103.225 104.599 103.223C104.6 103.223 104.604 103.221 104.608 103.219C104.61 103.217 104.613 103.216 104.616 103.215C104.618 103.214 104.619 103.213 104.621 103.212C104.622 103.212 104.623 103.211 104.624 103.211C104.625 103.21 104.626 103.21 106.853 107.686ZM96.2845 101.199C96.2845 105.68 99.1441 108.593 101.011 110.036C102.017 110.813 102.994 111.373 103.706 111.738C104.068 111.923 104.379 112.066 104.612 112.168C104.729 112.219 104.828 112.261 104.906 112.292C104.945 112.308 104.978 112.321 105.006 112.333C105.02 112.338 105.033 112.343 105.044 112.347C105.05 112.349 105.055 112.352 105.06 112.353C105.062 112.354 105.065 112.355 105.067 112.356C105.068 112.357 105.07 112.357 105.07 112.357C105.072 112.358 105.074 112.359 106.853 107.686C108.633 103.014 108.635 103.014 108.636 103.015C108.637 103.015 108.638 103.016 108.639 103.016C108.641 103.017 108.643 103.017 108.645 103.018C108.649 103.019 108.652 103.021 108.655 103.022C108.661 103.024 108.665 103.026 108.669 103.027C108.676 103.03 108.678 103.031 108.676 103.03C108.672 103.029 108.651 103.02 108.616 103.005C108.545 102.974 108.42 102.917 108.261 102.835C107.929 102.665 107.513 102.422 107.127 102.124C106.729 101.816 106.485 101.544 106.362 101.352C106.307 101.266 106.29 101.219 106.286 101.207C106.284 101.201 106.284 101.204 106.284 101.199H96.2845ZM106.853 100.609C109.658 96.4694 109.657 96.4686 109.656 96.4679C109.656 96.4676 109.654 96.4668 109.654 96.4663C109.652 96.4652 109.65 96.464 109.648 96.4628C109.645 96.4603 109.641 96.4576 109.636 96.4547C109.628 96.4489 109.618 96.4421 109.606 96.4344C109.583 96.4191 109.554 96.4001 109.52 96.3779C109.452 96.3337 109.362 96.2761 109.254 96.2086C109.038 96.0745 108.74 95.8958 108.383 95.7006C107.715 95.3352 106.649 94.8047 105.443 94.4599C104.465 94.1803 102.198 93.6592 99.9268 94.7894C97.0418 96.2253 96.2845 99.0883 96.2845 101.199H106.284C106.284 101.147 106.298 101.533 106.024 102.1C105.88 102.396 105.668 102.719 105.369 103.024C105.068 103.331 104.729 103.569 104.382 103.742C103.707 104.078 103.144 104.098 102.923 104.093C102.699 104.087 102.61 104.051 102.695 104.075C102.765 104.095 102.891 104.139 103.068 104.217C103.24 104.293 103.417 104.382 103.584 104.474C103.749 104.564 103.886 104.646 103.975 104.701C104.018 104.729 104.048 104.748 104.062 104.757C104.068 104.761 104.071 104.763 104.069 104.762C104.068 104.761 104.066 104.759 104.062 104.757C104.061 104.756 104.059 104.755 104.057 104.753C104.055 104.752 104.054 104.752 104.053 104.751C104.052 104.75 104.051 104.75 104.051 104.749C104.05 104.749 104.049 104.748 106.853 100.609ZM116.359 98.0566C115.695 96.3835 114.312 94.042 111.491 93.2896C108.731 92.5534 106.557 93.8744 105.634 94.5607C104.588 95.3377 103.815 96.2721 103.382 96.8426C103.142 97.1572 102.95 97.4369 102.813 97.6445C102.744 97.7494 102.688 97.8387 102.644 97.9082C102.623 97.9431 102.604 97.9732 102.589 97.9981C102.581 98.0106 102.575 98.0218 102.569 98.0316C102.566 98.0365 102.563 98.0411 102.561 98.0453C102.559 98.0474 102.558 98.0495 102.557 98.0514C102.556 98.0524 102.556 98.0538 102.555 98.0542C102.554 98.0556 102.554 98.057 106.853 100.609C111.153 103.16 111.153 103.162 111.152 103.163C111.152 103.163 111.151 103.165 111.15 103.165C111.149 103.167 111.148 103.169 111.148 103.17C111.146 103.173 111.144 103.176 111.143 103.178C111.14 103.183 111.137 103.187 111.136 103.19C111.132 103.195 111.131 103.197 111.133 103.195C111.135 103.19 111.147 103.173 111.165 103.144C111.204 103.086 111.266 102.995 111.343 102.893C111.423 102.789 111.5 102.697 111.565 102.627C111.637 102.551 111.651 102.548 111.598 102.588C111.557 102.617 111.327 102.787 110.912 102.919C110.46 103.063 109.743 103.173 108.914 102.952C108.075 102.728 107.528 102.275 107.25 101.961C107.005 101.684 106.981 101.536 107.064 101.745L116.359 98.0566Z" fill="white" mask="url(#path-1-outside-1_1978_27074)"/>
</g>
<defs>
<clipPath id="clip0_1978_27074">
<rect width="216" height="121" fill="white"/>
</clipPath>
</defs>
</svg>
