<svg width="615" height="67" viewBox="0 0 615 67" fill="none" xmlns="http://www.w3.org/2000/svg">
<path d="M0.50195 66V1.57209H19.3101V25.5825H41.5197V1.57209H60.3279V66H41.5197V41.9896H19.3101V66H0.50195ZM69.3794 66V1.57209H88.1876V66H69.3794ZM130.746 66L115.739 1.57209H134.147L141.451 35.6869L148.554 11.2763V1.57209H163.96L173.765 35.7869L181.468 1.57209H199.876L184.969 66H167.962L158.258 32.6856L147.753 66H130.746ZM206.841 66V1.57209H255.662V15.9783H225.649V26.4829H251.961V41.0892H225.649V51.5938H255.662V66H206.841ZM261.65 66V1.57209H280.458V51.5938H309.471V66H261.65ZM347.443 67.0004C335.771 67.0004 326.867 64.1325 320.731 58.3967C314.595 52.6609 311.527 44.5574 311.527 34.0862C311.527 23.2815 314.529 15.0112 320.531 9.27543C326.534 3.47291 335.471 0.571655 347.343 0.571655C351.345 0.571655 354.913 0.871785 358.047 1.47204C361.182 2.07231 364.183 2.906 367.051 3.97313V20.3802C361.316 17.8458 355.18 16.5786 348.643 16.5786C342.574 16.5786 338.072 17.9792 335.138 20.7804C332.203 23.5149 330.736 27.9502 330.736 34.0862C330.736 40.0888 332.27 44.424 335.338 47.0918C338.472 49.6929 342.974 50.9935 348.843 50.9935C352.045 50.9935 355.146 50.6934 358.147 50.0931C361.215 49.4928 364.25 48.5591 367.251 47.2919V63.799C364.384 64.7995 361.349 65.5665 358.147 66.1C355.013 66.7003 351.445 67.0004 347.443 67.0004ZM404.233 67.0004C393.562 67.0004 385.392 64.3993 379.722 59.1971C374.12 53.9948 371.319 45.5912 371.319 33.9861C371.319 25.9827 372.586 19.5465 375.12 14.6778C377.655 9.7423 381.357 6.17408 386.225 3.97313C391.161 1.70548 397.163 0.571655 404.233 0.571655C411.303 0.571655 417.272 1.70548 422.141 3.97313C427.076 6.17408 430.811 9.7423 433.346 14.6778C435.88 19.5465 437.147 25.9827 437.147 33.9861C437.147 45.5912 434.313 53.9948 428.644 59.1971C422.975 64.3993 414.838 67.0004 404.233 67.0004ZM404.233 50.9935C409.035 50.9935 412.503 49.6596 414.638 46.9918C416.839 44.2572 417.939 39.922 417.939 33.9861C417.939 27.6501 416.839 23.1815 414.638 20.5803C412.503 17.9125 409.035 16.5786 404.233 16.5786C399.431 16.5786 395.929 17.9125 393.729 20.5803C391.594 23.1815 390.527 27.6501 390.527 33.9861C390.527 39.922 391.594 44.2572 393.729 46.9918C395.929 49.6596 399.431 50.9935 404.233 50.9935ZM444.151 66V1.57209H462.459L478.466 34.2863L494.373 1.57209H512.581V66H493.773V33.786L483.468 54.9952H473.364L462.959 33.786V66H444.151ZM521.626 66V1.57209H570.447V15.9783H540.434V26.4829H566.746V41.0892H540.434V51.5938H570.447V66H521.626ZM595.951 47.592L595.351 18.8796V1.57209H614.159V18.8796L613.559 47.592H595.951ZM594.951 66V52.6942H614.559V66H594.951Z" fill="#F5F7FB"/>
</svg>
