<svg width="162" height="27" viewBox="0 0 162 27" fill="none" xmlns="http://www.w3.org/2000/svg">
<path d="M18.1389 3.21915C18.9609 3.21915 19.6273 2.55273 19.6273 1.73067C19.6273 0.908602 18.9609 0.242188 18.1389 0.242188C17.3168 0.242188 16.6504 0.908602 16.6504 1.73067C16.6504 2.55273 17.3168 3.21915 18.1389 3.21915Z" fill="white"/>
<path fill-rule="evenodd" clip-rule="evenodd" d="M25.9896 6.21433C30.2341 6.21588 34.2378 7.14374 37.7843 8.78753C39.1703 7.73294 39.4897 6.0697 39.4897 4.76201C39.4897 4.21965 40.1948 4.00873 40.4901 4.4607C41.6471 6.23843 43.455 9.44439 42.5269 11.6138C46.9321 14.9102 50.1381 19.4961 51.4578 24.745L51.4724 25.1608L51.5 25.9442H50.7161H1.28341H0.5V25.1608V24.745C1.4883 20.8159 3.53119 17.2544 6.35147 14.3256C4.89312 12.1743 6.88178 8.61277 8.12921 6.70245C8.42449 6.25049 9.12956 6.4614 9.12956 7.00377C9.12956 8.22709 9.40677 9.75173 10.5698 10.8063C14.6661 8.06974 19.6669 6.39475 25.0845 6.22807C25.9362 4.92259 26.6971 3.1733 25.3282 1.73693C23.5004 -0.179088 19.2765 1.81423 19.0298 1.93066C19.0235 1.9336 19.0198 1.93535 19.0188 1.9358L18.6391 1.17046C18.844 1.06802 23.6409 -1.27016 25.9489 1.14636C26.9372 2.18287 27.0638 3.70148 26.3105 5.53346C26.2122 5.77165 26.0995 5.99994 25.9896 6.21433ZM6.96812 10.6737C7.31419 9.64596 7.86366 8.61896 8.38098 7.77055C8.49145 8.95825 8.89707 10.3471 10.0436 11.3867L10.4966 11.7974L11.005 11.4577C15.1973 8.65701 20.3731 6.99774 25.9789 6.99774C30.1127 6.99774 34.0078 7.90059 37.4549 9.4983L37.8831 9.69678L38.2587 9.41099C39.6468 8.35481 40.1171 6.82019 40.238 5.52974C40.7088 6.30305 41.208 7.22558 41.556 8.16297C42.0177 9.40705 42.1485 10.5066 41.8067 11.3057L41.5644 11.872L42.0576 12.2411C46.3083 15.4218 49.3931 19.829 50.6778 24.8563L50.6885 25.1608H1.28341V24.8429C2.24517 21.0908 4.20692 17.6821 6.91578 14.869L7.35622 14.4117L6.99994 13.8861C6.48492 13.1263 6.5177 12.0112 6.96812 10.6737Z" fill="white"/>
<g clip-path="url(#clip0_911_43124)">
<path d="M33.372 17.5926C31.9926 17.5926 30.8711 16.4711 30.8711 15.0917C30.8711 13.7123 31.9926 12.5908 33.372 12.5908C34.7514 12.5908 35.8729 13.7123 35.8729 15.0917C35.8729 16.4711 34.7514 17.5926 33.372 17.5926ZM33.372 13.5497C32.5197 13.5497 31.83 14.245 31.83 15.0917C31.83 15.944 32.5253 16.6337 33.372 16.6337C34.2187 16.6337 34.914 15.9384 34.914 15.0917C34.914 14.245 34.2243 13.5497 33.372 13.5497Z" fill="white"/>
<path d="M34.3986 16.8803C34.8043 16.8803 35.1332 16.5514 35.1332 16.1457C35.1332 15.74 34.8043 15.4111 34.3986 15.4111C33.9929 15.4111 33.6641 15.74 33.6641 16.1457C33.6641 16.5514 33.9929 16.8803 34.3986 16.8803Z" fill="white"/>
</g>
<g clip-path="url(#clip1_911_43124)">
<path d="M16.4403 18.2557C15.0609 18.2557 13.9395 17.1342 13.9395 15.7548C13.9395 14.3754 15.0609 13.2539 16.4403 13.2539C17.8198 13.2539 18.9412 14.3754 18.9412 15.7548C18.9412 17.1342 17.8198 18.2557 16.4403 18.2557ZM16.4403 14.2128C15.588 14.2128 14.8983 14.9081 14.8983 15.7548C14.8983 16.6071 15.5936 17.2968 16.4403 17.2968C17.2871 17.2968 17.9824 16.6015 17.9824 15.7548C17.9824 14.9081 17.2927 14.2128 16.4403 14.2128Z" fill="white"/>
<path d="M17.467 17.5433C17.8727 17.5433 18.2016 17.2145 18.2016 16.8088C18.2016 16.4031 17.8727 16.0742 17.467 16.0742C17.0613 16.0742 16.7324 16.4031 16.7324 16.8088C16.7324 17.2145 17.0613 17.5433 17.467 17.5433Z" fill="white"/>
</g>
<path d="M62.975 25.0943C61.385 25.0943 60.18 24.6593 59.36 23.7893C58.55 22.9193 58.145 21.7443 58.145 20.2643C58.145 19.2043 58.315 18.2943 58.655 17.5343C59.005 16.7643 59.535 16.1743 60.245 15.7643C60.955 15.3443 61.86 15.1343 62.96 15.1343C63.52 15.1343 64.03 15.1793 64.49 15.2693C64.96 15.3493 65.395 15.4593 65.795 15.5993V17.0243C65.395 16.8643 64.965 16.7443 64.505 16.6643C64.055 16.5743 63.58 16.5293 63.08 16.5293C61.88 16.5293 61.03 16.8493 60.53 17.4893C60.04 18.1293 59.795 19.0543 59.795 20.2643C59.795 21.3943 60.065 22.2543 60.605 22.8443C61.145 23.4243 61.98 23.7143 63.11 23.7143C63.57 23.7143 64.03 23.6793 64.49 23.6093C64.96 23.5293 65.4 23.4093 65.81 23.2493V24.6893C65.41 24.8193 64.975 24.9193 64.505 24.9893C64.045 25.0593 63.535 25.0943 62.975 25.0943ZM67.3952 24.9443V15.2843H69.0302V19.4843H73.6802V15.2843H75.3152V24.9443H73.6802V20.7443H69.0302V24.9443H67.3952ZM76.9246 24.9443L80.6146 15.2843H82.4446L86.1046 24.9443H84.4246L83.4646 22.4543H79.5796L78.6196 24.9443H76.9246ZM79.8346 21.1943H83.1946L81.5146 16.7693L79.8346 21.1943ZM87.7126 24.9443V15.2843H89.3476V19.7243L93.4576 15.2843H95.3476L91.7926 19.1843L95.4976 24.9443H93.7576L90.7726 20.2193L89.3476 21.7493V24.9443H87.7126ZM96.7876 26.0993V24.9443H103.598V26.0993H96.7876ZM105.203 24.9443V15.2843H109.118C110.548 15.2843 111.608 15.6643 112.298 16.4243C112.988 17.1743 113.333 18.4243 113.333 20.1743C113.333 21.8243 112.993 23.0343 112.313 23.8043C111.633 24.5643 110.568 24.9443 109.118 24.9443H105.203ZM106.838 23.6843H108.863C109.493 23.6843 110.018 23.5943 110.438 23.4143C110.858 23.2243 111.173 22.8743 111.383 22.3643C111.593 21.8543 111.698 21.1243 111.698 20.1743C111.698 19.2243 111.603 18.4893 111.413 17.9693C111.223 17.4493 110.918 17.0843 110.498 16.8743C110.088 16.6643 109.543 16.5593 108.863 16.5593H106.838V23.6843ZM114.944 24.9443V15.2843H121.679V16.5593H116.579V19.4843H121.124V20.7443H116.579V23.6843H121.679V24.9443H114.944ZM125.823 25.0943C124.573 25.0943 123.568 24.9343 122.808 24.6143V23.1743C123.238 23.3343 123.698 23.4643 124.188 23.5643C124.688 23.6643 125.183 23.7143 125.673 23.7143C126.443 23.7143 127.018 23.6243 127.398 23.4443C127.788 23.2643 127.983 22.9043 127.983 22.3643C127.983 22.0343 127.903 21.7693 127.743 21.5693C127.583 21.3693 127.318 21.1993 126.948 21.0593C126.578 20.9093 126.068 20.7543 125.418 20.5943C124.378 20.3243 123.648 19.9843 123.228 19.5743C122.808 19.1543 122.598 18.5793 122.598 17.8493C122.598 16.9993 122.908 16.3343 123.528 15.8543C124.148 15.3743 125.073 15.1343 126.303 15.1343C126.863 15.1343 127.388 15.1743 127.878 15.2543C128.378 15.3343 128.768 15.4243 129.048 15.5243V16.9643C128.288 16.6743 127.448 16.5293 126.528 16.5293C125.808 16.5293 125.248 16.6243 124.848 16.8143C124.448 17.0043 124.248 17.3493 124.248 17.8493C124.248 18.1393 124.318 18.3743 124.458 18.5543C124.598 18.7343 124.838 18.8893 125.178 19.0193C125.528 19.1493 126.008 19.2943 126.618 19.4543C127.408 19.6543 128.018 19.8943 128.448 20.1743C128.888 20.4443 129.193 20.7643 129.363 21.1343C129.543 21.4943 129.633 21.9043 129.633 22.3643C129.633 23.2143 129.318 23.8843 128.688 24.3743C128.058 24.8543 127.103 25.0943 125.823 25.0943ZM131.218 24.9443V15.2843H132.853V24.9443H131.218ZM139.249 25.0943C137.659 25.0943 136.459 24.6643 135.649 23.8043C134.849 22.9443 134.449 21.7793 134.449 20.3093C134.449 19.2493 134.624 18.3343 134.974 17.5643C135.324 16.7843 135.854 16.1843 136.564 15.7643C137.284 15.3443 138.194 15.1343 139.294 15.1343C139.864 15.1343 140.379 15.1743 140.839 15.2543C141.309 15.3243 141.749 15.4293 142.159 15.5693V16.9793C141.339 16.6793 140.429 16.5293 139.429 16.5293C138.199 16.5293 137.334 16.8543 136.834 17.5043C136.344 18.1543 136.099 19.0893 136.099 20.3093C136.099 21.4193 136.359 22.2643 136.879 22.8443C137.399 23.4243 138.204 23.7143 139.294 23.7143C140.154 23.7143 140.849 23.6143 141.379 23.4143V20.7143H138.964V19.6493H142.774V24.2993C142.464 24.4993 142.019 24.6843 141.439 24.8543C140.869 25.0143 140.139 25.0943 139.249 25.0943ZM144.358 24.9443V15.2843H145.798L150.838 22.3943V15.2843H152.458V24.9443H151.018L145.993 17.8493V24.9443H144.358Z" fill="white"/>
<defs>
<clipPath id="clip0_911_43124">
<rect width="5.00177" height="5.00177" fill="white" transform="translate(30.873 12.5898)"/>
</clipPath>
<clipPath id="clip1_911_43124">
<rect width="5.00177" height="5.00177" fill="white" transform="translate(13.9395 13.2529)"/>
</clipPath>
</defs>
</svg>
