<svg width="799" height="104" viewBox="0 0 799 104" fill="none" xmlns="http://www.w3.org/2000/svg">
<g clip-path="url(#clip0_1979_27080)">
<path d="M48.2922 103.523C38.8525 103.523 30.5344 101.374 23.3378 97.0746C16.1411 92.7753 10.5334 86.7937 6.51452 79.1298C2.49564 71.3724 0.486195 62.3533 0.486195 52.0724C0.486195 41.7916 2.49564 32.8192 6.51452 25.1553C10.5334 17.4913 16.1411 11.5098 23.3378 7.21049C30.5344 2.91121 38.8525 0.76158 48.2922 0.76158C59.0404 0.76158 68.2932 3.47199 76.0505 8.89281C83.8079 14.2202 89.3689 21.6037 92.7336 31.0434L71.9849 38.4737C70.1157 33.2398 67.1249 29.1741 63.0125 26.2768C58.9937 23.286 54.0869 21.7906 48.2922 21.7906C43.0583 21.7906 38.4787 23.0056 34.5532 25.4357C30.7213 27.8657 27.7305 31.3238 25.5808 35.81C23.5247 40.2962 22.4966 45.717 22.4966 52.0724C22.4966 58.4279 23.5247 63.8954 25.5808 68.4751C27.7305 72.9613 30.7213 76.4194 34.5532 78.8494C38.4787 81.2794 43.0583 82.4944 48.2922 82.4944C54.0869 82.4944 58.9937 81.0458 63.0125 78.1484C67.1249 75.1576 70.1157 71.0453 71.9849 65.8114L92.7336 73.2417C89.3689 82.5879 83.8079 89.9714 76.0505 95.3923C68.2932 100.813 59.0404 103.523 48.2922 103.523ZM104.214 101V3.28507H126.225V40.4364H164.217V3.28507H186.227V101H164.217V60.6242H126.225V101H104.214ZM194.797 101L235.453 3.28507H251.575L292.091 101H268.118L243.584 36.0904L218.77 101H194.797ZM223.957 84.4572L230.826 64.8301H256.201L263.351 84.4572H223.957ZM318.341 72.6809V44.9226L357.455 3.28507H387.036L318.341 72.6809ZM300.677 101V3.28507H322.687V101H300.677ZM361.24 101L331.8 54.0351L348.202 38.754L387.316 101H361.24ZM427.838 103.103C416.996 103.103 408.117 100.299 401.201 94.6913C394.285 89.0835 390.079 81.6066 388.584 72.2603L410.033 66.933C411.061 72.5407 413.164 76.7465 416.342 79.5504C419.613 82.2608 423.679 83.616 428.539 83.616C430.969 83.616 433.118 83.2421 434.988 82.4944C436.95 81.7467 438.493 80.6252 439.614 79.1298C440.736 77.6344 441.296 75.8586 441.296 73.8024C441.296 71.9332 440.736 70.2976 439.614 68.8957C438.493 67.4003 436.67 65.9983 434.147 64.6899C431.623 63.2879 428.258 61.7925 424.053 60.2037C417.417 57.5867 411.996 54.8296 407.79 51.9322C403.584 48.9414 400.5 45.5301 398.537 41.6981C396.575 37.8662 395.593 33.4734 395.593 28.5199C395.593 23.0991 396.902 18.3325 399.519 14.2202C402.229 10.0144 405.968 6.74317 410.734 4.40662C415.594 1.97659 421.202 0.76158 427.557 0.76158C434.38 0.76158 440.409 2.35044 445.642 5.52816C450.97 8.61242 455.222 13.3323 458.4 19.6877L440.876 30.3424C439.1 27.0712 436.997 24.5945 434.567 22.9122C432.231 21.1364 429.66 20.2485 426.857 20.2485C425.174 20.2485 423.632 20.5756 422.23 21.2298C420.828 21.8841 419.707 22.8187 418.865 24.0337C418.024 25.1553 417.604 26.5105 417.604 28.0993C417.604 29.6882 418.071 31.1836 419.006 32.5855C420.034 33.9875 421.856 35.4361 424.473 36.9315C427.09 38.3335 430.735 39.9223 435.408 41.6981C441.67 44.0347 446.811 46.6049 450.83 49.4088C454.942 52.2126 458.026 55.4838 460.082 59.2223C462.139 62.8673 463.167 67.2601 463.167 72.4005C463.167 78.3821 461.671 83.7095 458.68 88.3826C455.783 92.9622 451.671 96.5605 446.343 99.1775C441.11 101.794 434.941 103.103 427.838 103.103ZM475.645 101V3.28507H497.655V40.4364H535.648V3.28507H557.658V101H535.648V60.6242H497.655V101H475.645ZM574.219 101V3.28507H596.229V101H574.219ZM612.827 101V3.28507H635.258L677.876 72.1201H672.128V3.28507H694.139V101H671.568L629.229 32.0248H634.837V101H612.827ZM753.335 103.523C744.362 103.523 736.371 101.374 729.361 97.0746C722.445 92.7753 716.978 86.7937 712.959 79.1298C708.94 71.3724 706.93 62.3533 706.93 52.0724C706.93 41.7916 708.94 32.8192 712.959 25.1553C716.978 17.4913 722.585 11.5098 729.782 7.21049C736.979 2.91121 745.297 0.76158 754.736 0.76158C765.485 0.76158 774.737 3.47199 782.495 8.89281C790.252 14.2202 795.813 21.6037 799.178 31.0434L778.429 38.4737C776.56 33.2398 773.569 29.1741 769.457 26.2768C765.438 23.286 760.531 21.7906 754.736 21.7906C749.503 21.7906 744.923 23.0056 740.998 25.4357C737.166 27.8657 734.175 31.3238 732.025 35.81C729.969 40.2962 728.941 45.717 728.941 52.0724C728.941 58.4279 729.969 63.8954 732.025 68.4751C734.175 72.9613 737.166 76.4194 740.998 78.8494C744.923 81.2794 749.503 82.4944 754.736 82.4944C757.54 82.4944 760.391 82.1206 763.288 81.3729C766.186 80.5317 768.849 79.1765 771.279 77.3073C773.803 75.3446 775.812 72.5874 777.308 69.0359C778.897 65.4843 779.691 60.9981 779.691 55.5773V50.9509L784.598 66.3722H756.138V46.7451H799.178V101H779.831L776.747 87.261L780.532 90.3453C778.756 93.0557 776.513 95.439 773.803 97.4952C771.186 99.4579 768.148 100.953 764.69 101.981C761.326 103.009 757.54 103.523 753.335 103.523Z" fill="white"/>
</g>
<defs>
<clipPath id="clip0_1979_27080">
<rect width="799" height="104" fill="white"/>
</clipPath>
</defs>
</svg>
