<svg width="15" height="15" viewBox="0 0 15 15" fill="none" xmlns="http://www.w3.org/2000/svg">
<mask id="mask0_1189_74060" style="mask-type:alpha" maskUnits="userSpaceOnUse" x="0" y="0" width="15" height="15">
<rect x="0.595703" y="0.397461" width="14" height="14" fill="#D9D9D9"/>
</mask>
<g mask="url(#mask0_1189_74060)">
<path d="M6.42969 9.73047C6.10885 9.73047 5.8342 9.61623 5.60573 9.38776C5.37726 9.15929 5.26302 8.88464 5.26302 8.5638V3.89714C5.26302 3.5763 5.37726 3.30165 5.60573 3.07318C5.8342 2.8447 6.10885 2.73047 6.42969 2.73047H11.0964C11.4172 2.73047 11.6918 2.8447 11.9203 3.07318C12.1488 3.30165 12.263 3.5763 12.263 3.89714V8.5638C12.263 8.88464 12.1488 9.15929 11.9203 9.38776C11.6918 9.61623 11.4172 9.73047 11.0964 9.73047H6.42969ZM4.09635 12.0638C3.77552 12.0638 3.50087 11.9496 3.2724 11.7211C3.04392 11.4926 2.92969 11.218 2.92969 10.8971V5.37005H4.09635V10.8971H9.62344V12.0638H4.09635Z" fill="white"/>
</g>
</svg>
