<svg width="34" height="34" viewBox="0 0 34 34" fill="none" xmlns="http://www.w3.org/2000/svg">
<mask id="mask0_1189_74014" style="mask-type:alpha" maskUnits="userSpaceOnUse" x="8" y="8" width="18" height="18">
<rect x="8.32031" y="8.31934" width="16.9614" height="16.9614" fill="#D9D9D9"/>
</mask>
<g mask="url(#mask0_1189_74014)">
<path d="M11.1996 22.5952C10.752 22.5952 10.372 22.4392 10.0596 22.1273C9.74775 21.815 9.5918 21.435 9.5918 20.9874V12.6127C9.5918 12.1651 9.74775 11.7851 10.0596 11.4727C10.372 11.1608 10.752 11.0049 11.1996 11.0049H22.4012C22.8488 11.0049 23.2288 11.1608 23.5412 11.4727C23.8531 11.7851 24.009 12.1651 24.009 12.6127V20.9874C24.009 21.435 23.8531 21.815 23.5412 22.1273C23.2288 22.4392 22.8488 22.5952 22.4012 22.5952H11.1996ZM16.8004 17.6834L11.1996 14.1498V20.9874H22.4012V14.1498L16.8004 17.6834ZM16.8004 16.1463L22.4012 12.6127H11.1996L16.8004 16.1463ZM11.1996 14.1498V12.6127V20.9874V14.1498Z" fill="white"/>
</g>
</svg>
