<svg width="34" height="35" viewBox="0 0 34 35" fill="none" xmlns="http://www.w3.org/2000/svg">
<path d="M14.6962 17.4411C14.6962 16.2767 15.6395 15.3326 16.8035 15.3326C17.9675 15.3326 18.9113 16.2767 18.9113 17.4411C18.9113 18.6054 17.9675 19.5495 16.8035 19.5495C15.6395 19.5495 14.6962 18.6054 14.6962 17.4411ZM13.5567 17.4411C13.5567 19.2348 15.0103 20.6888 16.8035 20.6888C18.5967 20.6888 20.0503 19.2348 20.0503 17.4411C20.0503 15.6473 18.5967 14.1933 16.8035 14.1933C15.0103 14.1933 13.5567 15.6473 13.5567 17.4411ZM19.4201 14.0646C19.42 14.2147 19.4645 14.3614 19.5478 14.4863C19.6311 14.6111 19.7496 14.7085 19.8882 14.766C20.0268 14.8235 20.1794 14.8385 20.3266 14.8093C20.4738 14.7801 20.609 14.7079 20.7151 14.6018C20.8213 14.4957 20.8936 14.3604 20.923 14.2132C20.9523 14.066 20.9373 13.9134 20.88 13.7747C20.8226 13.636 20.7254 13.5174 20.6006 13.434C20.4759 13.3505 20.3292 13.3059 20.1791 13.3059H20.1788C19.9777 13.306 19.7848 13.3859 19.6425 13.5282C19.5003 13.6704 19.4202 13.8633 19.4201 14.0646ZM14.249 22.5893C13.6325 22.5613 13.2975 22.4586 13.0748 22.3718C12.7796 22.2568 12.5689 22.1199 12.3475 21.8987C12.126 21.6775 11.9889 21.467 11.8745 21.1717C11.7877 20.949 11.685 20.6138 11.657 19.9971C11.6264 19.3304 11.6202 19.1302 11.6202 17.4411C11.6202 15.7521 11.6269 15.5524 11.657 14.8851C11.6851 14.2685 11.7885 13.9339 11.8745 13.7106C11.9894 13.4153 12.1263 13.2046 12.3475 12.9831C12.5686 12.7615 12.7791 12.6244 13.0748 12.51C13.2974 12.4231 13.6325 12.3204 14.249 12.2924C14.9155 12.2617 15.1157 12.2556 16.8035 12.2556C18.4913 12.2556 18.6917 12.2622 19.3588 12.2924C19.9752 12.3205 20.3097 12.4239 20.533 12.51C20.8282 12.6244 21.0388 12.7618 21.2603 12.9831C21.4817 13.2043 21.6183 13.4153 21.7332 13.7106C21.82 13.9332 21.9227 14.2685 21.9508 14.8851C21.9814 15.5524 21.9875 15.7521 21.9875 17.4411C21.9875 19.1302 21.9814 19.3299 21.9508 19.9971C21.9227 20.6138 21.8195 20.9489 21.7332 21.1717C21.6183 21.467 21.4814 21.6777 21.2603 21.8987C21.0391 22.1197 20.8282 22.2568 20.533 22.3718C20.3104 22.4586 19.9752 22.5613 19.3588 22.5893C18.6923 22.62 18.4921 22.6261 16.8035 22.6261C15.1149 22.6261 14.9153 22.62 14.249 22.5893ZM14.1966 11.1545C13.5235 11.1852 13.0636 11.2919 12.6619 11.4483C12.2459 11.6098 11.8937 11.8264 11.5418 12.1778C11.1899 12.5293 10.9739 12.8821 10.8125 13.2982C10.6561 13.7003 10.5494 14.1601 10.5188 14.8335C10.4876 15.5078 10.4805 15.7234 10.4805 17.4411C10.4805 19.1587 10.4876 19.3743 10.5188 20.0487C10.5494 20.722 10.6561 21.1818 10.8125 21.5839C10.9739 21.9998 11.1899 22.353 11.5418 22.7043C11.8936 23.0556 12.2459 23.2719 12.6619 23.4338C13.0643 23.5902 13.5235 23.697 14.1966 23.7276C14.8712 23.7583 15.0864 23.7659 16.8035 23.7659C18.5206 23.7659 18.7362 23.7588 19.4104 23.7276C20.0835 23.697 20.5432 23.5902 20.9451 23.4338C21.3609 23.2719 21.7133 23.0558 22.0652 22.7043C22.4171 22.3529 22.6327 21.9998 22.7945 21.5839C22.9509 21.1818 23.0581 20.722 23.0882 20.0487C23.1189 19.3738 23.126 19.1587 23.126 17.4411C23.126 15.7234 23.1189 15.5078 23.0882 14.8335C23.0576 14.1601 22.9509 13.7 22.7945 13.2982C22.6327 12.8824 22.4166 12.5298 22.0652 12.1778C21.7139 11.8258 21.3609 11.6098 20.9456 11.4483C20.5432 11.2919 20.0835 11.1847 19.4109 11.1545C18.7367 11.1239 18.5211 11.1162 16.804 11.1162C15.0869 11.1162 14.8712 11.1233 14.1966 11.1545Z" fill="white"/>
</svg>
