<svg width="34" height="34" viewBox="0 0 34 34" fill="none" xmlns="http://www.w3.org/2000/svg">
<path d="M13.6175 22.6049V15.1449H11.1402V22.6049H13.6178H13.6175ZM12.3794 14.1266C13.2431 14.1266 13.7808 13.5538 13.7808 12.8379C13.7647 12.1057 13.2431 11.5488 12.3958 11.5488C11.5479 11.5488 10.9941 12.1057 10.9941 12.8378C10.9941 13.5537 11.5317 14.1265 12.3631 14.1265H12.3792L12.3794 14.1266ZM14.9888 22.6049H17.466V18.4394C17.466 18.2167 17.4821 17.9935 17.5476 17.8344C17.7266 17.3888 18.1342 16.9275 18.8187 16.9275C19.7149 16.9275 20.0736 17.6115 20.0736 18.6145V22.6049H22.5508V18.3276C22.5508 16.0363 21.3288 14.9701 19.6989 14.9701C18.3626 14.9701 17.7757 15.7176 17.4497 16.2267H17.4662V15.1452H14.9889C15.0213 15.845 14.9887 22.6051 14.9887 22.6051L14.9888 22.6049Z" fill="white"/>
</svg>
