<svg width="264" height="161" viewBox="0 0 264 161" fill="none" xmlns="http://www.w3.org/2000/svg">
<rect x="27.6934" width="252.35" height="75.0153" rx="28.2349" transform="rotate(20.9935 27.6934 0)" fill="#FFD600"/>
<path d="M89.7967 73.6458L95.904 57.7305L100.55 59.5134L98.274 65.4445L103.76 67.5498L106.036 61.6187L110.682 63.4015L104.575 79.3168L99.9291 77.5339L102.205 71.6028L96.7188 69.4975L94.4428 75.4287L89.7967 73.6458ZM106.811 80.1748L112.918 64.2595L124.978 68.8874L123.613 72.4461L116.199 69.6011L115.203 72.196L121.703 74.6901L120.318 78.2982L113.819 75.8041L112.823 78.399L120.237 81.2439L118.871 84.8026L106.811 80.1748ZM120.35 85.3702L126.458 69.4549L131.104 71.2378L126.362 83.5944L133.529 86.3445L132.163 89.9032L120.35 85.3702ZM133.407 90.3804L139.514 74.4651L144.16 76.248L139.418 88.6046L146.585 91.3547L145.22 94.9134L133.407 90.3804ZM153.763 98.4755C151.127 97.4639 149.356 96.0469 148.448 94.2244C147.558 92.4083 147.662 90.0669 148.762 87.2001C149.521 85.2231 150.444 83.7533 151.532 82.7909C152.626 81.8119 153.878 81.2814 155.29 81.1992C156.724 81.1069 158.314 81.3958 160.06 82.0659C161.807 82.7361 163.174 83.582 164.162 84.6037C165.172 85.6152 165.757 86.8507 165.915 88.3101C166.079 89.7531 165.782 91.4631 165.024 93.4401C163.924 96.3068 162.427 98.1141 160.533 98.8618C158.64 99.6095 156.383 99.4807 153.763 98.4755ZM155.281 94.5214C156.467 94.9766 157.45 94.9758 158.23 94.5191C159.033 94.0522 159.716 93.0856 160.279 91.6193C160.879 90.0542 161.031 88.846 160.734 87.9948C160.46 87.1335 159.729 86.4752 158.543 86.02C157.357 85.5648 156.365 85.5624 155.569 86.0128C154.795 86.4531 154.108 87.4558 153.507 89.0209C152.945 90.4872 152.797 91.6593 153.065 92.5371C153.356 93.4047 154.095 94.0662 155.281 94.5214ZM165.217 97.3702L167.79 90.2206L169.431 85.9452L174.077 87.7281L172.436 92.0035L169.566 99.0392L165.217 97.3702ZM163.225 101.823L164.486 98.5357L169.33 100.394L168.069 103.681L163.225 101.823Z" fill="black"/>
<path d="M109.662 118.99L106.552 99.3678L125.1 106.485L109.662 118.99Z" fill="#FFD600"/>
</svg>
