<svg width="25" height="26" viewBox="0 0 25 26" fill="none" xmlns="http://www.w3.org/2000/svg">
<path d="M23.5417 25.8286C20.6481 25.8286 17.7894 25.1978 14.9653 23.9363C12.1412 22.6747 9.57176 20.8865 7.25694 18.5717C4.94213 16.2569 3.15394 13.6874 1.89236 10.8633C0.630787 8.03926 0 5.18047 0 2.28695C0 1.87028 0.138889 1.52306 0.416667 1.24528C0.694444 0.967502 1.04167 0.828613 1.45833 0.828613H7.08333C7.40741 0.828613 7.69676 0.938567 7.95139 1.15847C8.20602 1.37838 8.35648 1.6388 8.40278 1.93972L9.30556 6.80084C9.35185 7.17121 9.34028 7.48371 9.27083 7.73834C9.20139 7.99296 9.07407 8.21287 8.88889 8.39806L5.52083 11.8008C5.9838 12.6573 6.53356 13.4849 7.17014 14.2835C7.80671 15.0821 8.50694 15.8518 9.27083 16.5925C9.98843 17.3101 10.7407 17.9756 11.5278 18.589C12.3148 19.2025 13.1481 19.7638 14.0278 20.2731L17.2917 17.0092C17.5 16.8008 17.772 16.6446 18.1076 16.5404C18.4433 16.4363 18.7731 16.4073 19.0972 16.4536L23.8889 17.4258C24.213 17.5184 24.4792 17.6863 24.6875 17.9293C24.8958 18.1724 25 18.4444 25 18.7453V24.3703C25 24.7869 24.8611 25.1342 24.5833 25.4119C24.3056 25.6897 23.9583 25.8286 23.5417 25.8286ZM4.20139 9.16195L6.49306 6.87028L5.90278 3.60639H2.8125C2.92824 4.55546 3.09028 5.49297 3.29861 6.41889C3.50694 7.34482 3.80787 8.25917 4.20139 9.16195ZM16.6319 21.5925C17.5347 21.986 18.4549 22.2985 19.3924 22.53C20.3299 22.7615 21.2731 22.9119 22.2222 22.9814V19.9258L18.9583 19.2661L16.6319 21.5925Z" fill="white"/>
</svg>
