<svg width="27" height="28" viewBox="0 0 27 28" fill="none" xmlns="http://www.w3.org/2000/svg">
<path d="M9.00108 14.1648C9.00108 11.681 11.0153 9.66697 13.5005 9.66697C15.9858 9.66697 18.0011 11.681 18.0011 14.1648C18.0011 16.6486 15.9858 18.6626 13.5005 18.6626C11.0153 18.6626 9.00108 16.6486 9.00108 14.1648ZM6.56818 14.1648C6.56818 17.9913 9.67179 21.093 13.5005 21.093C17.3293 21.093 20.4329 17.9913 20.4329 14.1648C20.4329 10.3384 17.3293 7.2366 13.5005 7.2366C9.67179 7.2366 6.56818 10.3384 6.56818 14.1648ZM19.0873 6.96189C19.0872 7.28212 19.182 7.59519 19.36 7.86152C19.5379 8.12785 19.7908 8.33548 20.0868 8.45814C20.3828 8.5808 20.7085 8.613 21.0228 8.55065C21.3371 8.4883 21.6258 8.33421 21.8524 8.10787C22.0791 7.88153 22.2335 7.59309 22.2962 7.27905C22.3588 6.965 22.3268 6.63944 22.2043 6.34354C22.0818 6.04764 21.8743 5.79469 21.6079 5.61667C21.3416 5.43866 21.0284 5.34358 20.708 5.34345H20.7073C20.2779 5.34365 19.866 5.51421 19.5622 5.81766C19.2585 6.12112 19.0877 6.53266 19.0873 6.96189V6.96189ZM8.04632 25.1473C6.73007 25.0874 6.01465 24.8683 5.53922 24.6832C4.9089 24.438 4.45917 24.1459 3.98633 23.674C3.51349 23.202 3.2208 22.753 2.97649 22.1231C2.79116 21.6482 2.57191 20.9329 2.51207 19.6175C2.44662 18.1953 2.43355 17.768 2.43355 14.1649C2.43355 10.5618 2.4477 10.1357 2.51207 8.71235C2.57201 7.39689 2.79288 6.68309 2.97649 6.20675C3.22188 5.57681 3.51414 5.12735 3.98633 4.65479C4.45853 4.18223 4.90782 3.88972 5.53922 3.64556C6.01444 3.46033 6.73007 3.24122 8.04632 3.18142C9.46939 3.11601 9.89687 3.10295 13.5005 3.10295C17.1042 3.10295 17.5321 3.11709 18.9564 3.18142C20.2726 3.24132 20.9869 3.46206 21.4635 3.64556C22.0938 3.88972 22.5435 4.18288 23.0164 4.65479C23.4892 5.12671 23.7808 5.57681 24.0262 6.20675C24.2115 6.68168 24.4308 7.39689 24.4906 8.71235C24.5561 10.1357 24.5691 10.5618 24.5691 14.1649C24.5691 17.768 24.5561 18.1941 24.4906 19.6175C24.4307 20.9329 24.2104 21.6479 24.0262 22.1231C23.7808 22.753 23.4886 23.2025 23.0164 23.674C22.5442 24.1454 22.0938 24.438 21.4635 24.6832C20.9883 24.8684 20.2726 25.0875 18.9564 25.1473C17.5333 25.2127 17.1058 25.2258 13.5005 25.2258C9.89525 25.2258 9.46896 25.2127 8.04632 25.1473V25.1473ZM7.93454 0.754074C6.49732 0.819485 5.51524 1.04724 4.65758 1.38077C3.76935 1.72521 3.01742 2.18729 2.26604 2.93704C1.51465 3.68679 1.05347 4.43945 0.708832 5.32715C0.375099 6.18484 0.14721 7.16579 0.0817593 8.60214C0.0152286 10.0408 0 10.5007 0 14.1648C0 17.8289 0.0152286 18.2889 0.0817593 19.7275C0.14721 21.1639 0.375099 22.1448 0.708832 23.0025C1.05347 23.8896 1.51476 24.6431 2.26604 25.3926C3.01732 26.142 3.76935 26.6034 4.65758 26.9488C5.51686 27.2824 6.49732 27.5101 7.93454 27.5755C9.37478 27.641 9.83423 27.6573 13.5005 27.6573C17.1669 27.6573 17.6271 27.642 19.0665 27.5755C20.5039 27.5101 21.4853 27.2824 22.3435 26.9488C23.2312 26.6034 23.9837 26.1423 24.735 25.3926C25.4864 24.6428 25.9466 23.8896 26.2922 23.0025C26.626 22.1448 26.855 21.1638 26.9193 19.7275C26.9848 18.2878 27 17.8289 27 14.1648C27 10.5007 26.9848 10.0408 26.9193 8.60214C26.8539 7.16568 26.626 6.1843 26.2922 5.32715C25.9466 4.43999 25.4852 3.68798 24.735 2.93704C23.9848 2.18611 23.2312 1.72521 22.3446 1.38077C21.4853 1.04724 20.5038 0.818406 19.0676 0.754074C17.6281 0.688662 17.1679 0.672363 13.5016 0.672363C9.83531 0.672363 9.37478 0.687583 7.93454 0.754074Z" fill="white"/>
<path d="M9.00108 14.1648C9.00108 11.681 11.0153 9.66697 13.5005 9.66697C15.9858 9.66697 18.0011 11.681 18.0011 14.1648C18.0011 16.6486 15.9858 18.6626 13.5005 18.6626C11.0153 18.6626 9.00108 16.6486 9.00108 14.1648ZM6.56818 14.1648C6.56818 17.9913 9.67179 21.093 13.5005 21.093C17.3293 21.093 20.4329 17.9913 20.4329 14.1648C20.4329 10.3384 17.3293 7.2366 13.5005 7.2366C9.67179 7.2366 6.56818 10.3384 6.56818 14.1648ZM19.0873 6.96189C19.0872 7.28212 19.182 7.59519 19.36 7.86152C19.5379 8.12785 19.7908 8.33548 20.0868 8.45814C20.3828 8.5808 20.7085 8.613 21.0228 8.55065C21.3371 8.4883 21.6258 8.33421 21.8524 8.10787C22.0791 7.88153 22.2335 7.59309 22.2962 7.27905C22.3588 6.965 22.3268 6.63944 22.2043 6.34354C22.0818 6.04764 21.8743 5.79469 21.6079 5.61667C21.3416 5.43866 21.0284 5.34358 20.708 5.34345H20.7073C20.2779 5.34365 19.866 5.51421 19.5622 5.81766C19.2585 6.12112 19.0877 6.53266 19.0873 6.96189V6.96189ZM8.04632 25.1473C6.73007 25.0874 6.01465 24.8683 5.53922 24.6832C4.9089 24.438 4.45917 24.1459 3.98633 23.674C3.51349 23.202 3.2208 22.753 2.97649 22.1231C2.79116 21.6482 2.57191 20.9329 2.51207 19.6175C2.44662 18.1953 2.43355 17.768 2.43355 14.1649C2.43355 10.5618 2.4477 10.1357 2.51207 8.71235C2.57201 7.39689 2.79288 6.68309 2.97649 6.20675C3.22188 5.57681 3.51414 5.12735 3.98633 4.65479C4.45853 4.18223 4.90782 3.88972 5.53922 3.64556C6.01444 3.46033 6.73007 3.24122 8.04632 3.18142C9.46939 3.11601 9.89687 3.10295 13.5005 3.10295C17.1042 3.10295 17.5321 3.11709 18.9564 3.18142C20.2726 3.24132 20.9869 3.46206 21.4635 3.64556C22.0938 3.88972 22.5435 4.18288 23.0164 4.65479C23.4892 5.12671 23.7808 5.57681 24.0262 6.20675C24.2115 6.68168 24.4308 7.39689 24.4906 8.71235C24.5561 10.1357 24.5691 10.5618 24.5691 14.1649C24.5691 17.768 24.5561 18.1941 24.4906 19.6175C24.4307 20.9329 24.2104 21.6479 24.0262 22.1231C23.7808 22.753 23.4886 23.2025 23.0164 23.674C22.5442 24.1454 22.0938 24.438 21.4635 24.6832C20.9883 24.8684 20.2726 25.0875 18.9564 25.1473C17.5333 25.2127 17.1058 25.2258 13.5005 25.2258C9.89525 25.2258 9.46896 25.2127 8.04632 25.1473V25.1473ZM7.93454 0.754074C6.49732 0.819485 5.51524 1.04724 4.65758 1.38077C3.76935 1.72521 3.01742 2.18729 2.26604 2.93704C1.51465 3.68679 1.05347 4.43945 0.708832 5.32715C0.375099 6.18484 0.14721 7.16579 0.0817593 8.60214C0.0152286 10.0408 0 10.5007 0 14.1648C0 17.8289 0.0152286 18.2889 0.0817593 19.7275C0.14721 21.1639 0.375099 22.1448 0.708832 23.0025C1.05347 23.8896 1.51476 24.6431 2.26604 25.3926C3.01732 26.142 3.76935 26.6034 4.65758 26.9488C5.51686 27.2824 6.49732 27.5101 7.93454 27.5755C9.37478 27.641 9.83423 27.6573 13.5005 27.6573C17.1669 27.6573 17.6271 27.642 19.0665 27.5755C20.5039 27.5101 21.4853 27.2824 22.3435 26.9488C23.2312 26.6034 23.9837 26.1423 24.735 25.3926C25.4864 24.6428 25.9466 23.8896 26.2922 23.0025C26.626 22.1448 26.855 21.1638 26.9193 19.7275C26.9848 18.2878 27 17.8289 27 14.1648C27 10.5007 26.9848 10.0408 26.9193 8.60214C26.8539 7.16568 26.626 6.1843 26.2922 5.32715C25.9466 4.43999 25.4852 3.68798 24.735 2.93704C23.9848 2.18611 23.2312 1.72521 22.3446 1.38077C21.4853 1.04724 20.5038 0.818406 19.0676 0.754074C17.6281 0.688662 17.1679 0.672363 13.5016 0.672363C9.83531 0.672363 9.37478 0.687583 7.93454 0.754074Z" fill="white"/>
</svg>
