<svg width="27" height="27" viewBox="0 0 27 27" fill="none" xmlns="http://www.w3.org/2000/svg">
<path d="M0 1.93416C0 0.866566 0.893778 0 1.99555 0H25.0055C26.1077 0 27.0011 0.866566 27.0011 1.93416V25.0672C27.0011 26.1351 26.1077 27.0011 25.0055 27.0011H1.99555C0.893883 27.0011 0 26.1353 0 25.0676V1.93385V1.93416Z" fill="white"/>
<path d="M8.20513 22.5964V10.4404H4.16467V22.5964H8.20555H8.20513ZM6.18574 8.78103C7.59444 8.78103 8.47145 7.84759 8.47145 6.68106C8.44508 5.48795 7.59444 4.58057 6.21253 4.58057C4.82968 4.58057 3.92651 5.48795 3.92651 6.68095C3.92651 7.84749 4.8032 8.78092 6.15927 8.78092H6.18543L6.18574 8.78103ZM10.4416 22.5964H14.4817V15.8087C14.4817 15.4459 14.5081 15.0821 14.6148 14.8229C14.9068 14.0968 15.5716 13.3451 16.688 13.3451C18.1496 13.3451 18.7347 14.4597 18.7347 16.094V22.5964H22.7747V15.6265C22.7747 11.8929 20.7817 10.1554 18.1235 10.1554C15.9441 10.1554 14.9869 11.3736 14.4551 12.2032H14.482V10.4409H10.4418C10.4945 11.5812 10.4415 22.5968 10.4415 22.5968L10.4416 22.5964Z" fill="black"/>
</svg>
