<?xml version="1.0" encoding="UTF-8"?>
<svg id="_图层_1" data-name=" 图层 1" xmlns="http://www.w3.org/2000/svg" version="1.1" viewBox="0 0 97 12.9">
  <defs>
    <style>
      .cls-1 {
        fill: #fff;
        stroke-width: 0px;
      }
    </style>
  </defs>
  <path class="cls-1" d="M5.8,11.9c-1.6,0-2.8-.4-3.6-1.3s-1.2-2-1.2-3.5.2-2,.5-2.7c.4-.8.9-1.4,1.6-1.8.7-.4,1.6-.6,2.7-.6s1.1,0,1.5.1c.5,0,.9.2,1.3.3v1.4c-.4-.2-.8-.3-1.3-.4-.4,0-.9-.1-1.4-.1-1.2,0-2.1.3-2.6,1-.5.6-.7,1.6-.7,2.8s.3,2,.8,2.6,1.4.9,2.5.9.9,0,1.4-.1c.5,0,.9-.2,1.3-.4v1.4c-.4.1-.8.2-1.3.3-.5,0-1,.1-1.5.1ZM10.2,11.8V2.1h1.6v4.2h4.7V2.1h1.6v9.7h-1.6v-4.2h-4.7v4.2s-1.6,0-1.6,0ZM19.7,11.8l3.7-9.7h1.8l3.7,9.7h-1.7l-1-2.5h-3.9l-1,2.5h-1.7,0ZM22.6,8h3.4l-1.7-4.4s-1.7,4.4-1.7,4.4ZM30.5,11.8V2.1h1.6v4.4l4.1-4.4h1.9l-3.6,3.9,3.7,5.8h-1.7l-3-4.7-1.4,1.5v3.2s-1.6,0-1.6,0ZM39.6,12.9v-1.2h6.8v1.2h-6.8ZM48,11.8V2.1h3.9c1.4,0,2.5.4,3.2,1.1.7.8,1,2,1,3.8s-.3,2.9-1,3.6c-.7.8-1.7,1.1-3.2,1.1h-3.9ZM49.6,10.5h2c.6,0,1.2,0,1.6-.3.4-.2.7-.5.9-1.1.2-.5.3-1.2.3-2.2s0-1.7-.3-2.2c-.2-.5-.5-.9-.9-1.1s-1-.3-1.6-.3h-2v7.1h0ZM57.7,11.8V2.1h6.7v1.3h-5.1v2.9h4.5v1.3h-4.5v2.9h5.1v1.3s-6.7,0-6.7,0ZM68.6,11.9c-1.2,0-2.3-.2-3-.5v-1.4c.4.2.9.3,1.4.4s1,.1,1.5.1c.8,0,1.3,0,1.7-.3.4-.2.6-.5.6-1.1s0-.6-.2-.8c-.2-.2-.4-.4-.8-.5s-.9-.3-1.5-.5c-1-.3-1.8-.6-2.2-1-.4-.4-.6-1-.6-1.7s.3-1.5.9-2,1.5-.7,2.8-.7,1.1,0,1.6.1c.5,0,.9.2,1.2.3v1.4c-.8-.3-1.6-.4-2.5-.4s-1.3,0-1.7.3c-.4.2-.6.5-.6,1s0,.5.2.7.4.3.7.5c.3.1.8.3,1.4.4.8.2,1.4.4,1.8.7.4.3.7.6.9,1s.3.8.3,1.2c0,.9-.3,1.5-.9,2-.6.5-1.6.7-2.9.7h-.1ZM74,11.8V2.1h1.6v9.7s-1.6,0-1.6,0ZM82.1,11.9c-1.6,0-2.8-.4-3.6-1.3s-1.2-2-1.2-3.5.2-2,.5-2.7c.4-.8.9-1.4,1.6-1.8.7-.4,1.6-.6,2.7-.6s1.1,0,1.5.1c.5,0,.9.2,1.3.3v1.4c-.8-.3-1.7-.4-2.7-.4s-2.1.3-2.6,1-.7,1.6-.7,2.8.3,2,.8,2.5,1.3.9,2.4.9,1.6-.1,2.1-.3v-2.7h-2.4v-1.1h3.8v4.6c-.3.2-.8.4-1.3.6-.6.2-1.3.2-2.2.2h0ZM87.2,11.8V2.1h1.4l5,7.1V2.1h1.6v9.7h-1.4l-5-7.1v7.1s-1.6,0-1.6,0Z"/>
</svg>