<?xml version="1.0" encoding="UTF-8"?>
<svg id="_图层_1" data-name="图层 1" xmlns="http://www.w3.org/2000/svg" version="1.1" xmlns:xlink="http://www.w3.org/1999/xlink" viewBox="0 0 162 27">
  <defs>
    <style>
      .cls-1 {
        fill: none;
      }

      .cls-1, .cls-2 {
        stroke-width: 0px;
      }

      .cls-3 {
        clip-path: url(#clippath-1);
      }

      .cls-4 {
        clip-path: url(#clippath);
      }

      .cls-5 {
        fill-rule: evenodd;
        stroke: #fff;
        stroke-miterlimit: 10;
      }

      .cls-5, .cls-2 {
        fill: #fff;
      }
    </style>
    <clipPath id="clippath">
      <rect class="cls-1" x="32.4" y="12.8" width="7.4" height="7.4"/>
    </clipPath>
    <clipPath id="clippath-1">
      <rect class="cls-1" x="16.6" y="13.3" width="7.4" height="7.4"/>
    </clipPath>
  </defs>
  <path class="cls-2" d="M62.9,26c-1.6,0-2.8-.4-3.6-1.3-.8-.9-1.2-2-1.2-3.5s.2-2,.5-2.7c.4-.8.9-1.4,1.6-1.8.7-.4,1.6-.6,2.7-.6s1.1,0,1.5.1c.5,0,.9.2,1.3.3v1.4c-.4-.2-.8-.3-1.3-.4-.4,0-.9-.1-1.4-.1-1.2,0-2.1.3-2.6,1-.5.6-.7,1.6-.7,2.8s.3,2,.8,2.6c.5.6,1.4.9,2.5.9s.9,0,1.4-.1c.5,0,.9-.2,1.3-.4v1.4c-.4.1-.8.2-1.3.3-.5,0-1,.1-1.5.1ZM67.3,25.9v-9.7h1.6v4.2h4.7v-4.2h1.6v9.7h-1.6v-4.2h-4.7v4.2h-1.6ZM76.8,25.9l3.7-9.7h1.8l3.7,9.7h-1.7l-1-2.5h-3.9l-1,2.5h-1.7ZM79.7,22.1h3.4l-1.7-4.4-1.7,4.4ZM87.6,25.9v-9.7h1.6v4.4l4.1-4.4h1.9l-3.6,3.9,3.7,5.8h-1.7l-3-4.7-1.4,1.5v3.2h-1.6ZM96.7,27v-1.2h6.8v1.2h-6.8ZM105.1,25.9v-9.7h3.9c1.4,0,2.5.4,3.2,1.1.7.8,1,2,1,3.8s-.3,2.9-1,3.6c-.7.8-1.7,1.1-3.2,1.1h-3.9ZM106.7,24.6h2c.6,0,1.2,0,1.6-.3.4-.2.7-.5.9-1.1.2-.5.3-1.2.3-2.2s0-1.7-.3-2.2c-.2-.5-.5-.9-.9-1.1-.4-.2-1-.3-1.6-.3h-2v7.1ZM114.8,25.9v-9.7h6.7v1.3h-5.1v2.9h4.5v1.3h-4.5v2.9h5.1v1.3h-6.7ZM125.7,26c-1.2,0-2.3-.2-3-.5v-1.4c.4.2.9.3,1.4.4.5.1,1,.1,1.5.1.8,0,1.3,0,1.7-.3.4-.2.6-.5.6-1.1s0-.6-.2-.8c-.2-.2-.4-.4-.8-.5-.4-.1-.9-.3-1.5-.5-1-.3-1.8-.6-2.2-1-.4-.4-.6-1-.6-1.7s.3-1.5.9-2,1.5-.7,2.8-.7,1.1,0,1.6.1c.5,0,.9.2,1.2.3v1.4c-.8-.3-1.6-.4-2.5-.4s-1.3,0-1.7.3c-.4.2-.6.5-.6,1s0,.5.2.7.4.3.7.5c.3.1.8.3,1.4.4.8.2,1.4.4,1.8.7.4.3.7.6.9,1,.2.4.3.8.3,1.2,0,.9-.3,1.5-.9,2-.6.5-1.6.7-2.9.7ZM131.1,25.9v-9.7h1.6v9.7h-1.6ZM139.2,26c-1.6,0-2.8-.4-3.6-1.3-.8-.9-1.2-2-1.2-3.5s.2-2,.5-2.7c.4-.8.9-1.4,1.6-1.8.7-.4,1.6-.6,2.7-.6s1.1,0,1.5.1c.5,0,.9.2,1.3.3v1.4c-.8-.3-1.7-.4-2.7-.4s-2.1.3-2.6,1c-.5.7-.7,1.6-.7,2.8s.3,2,.8,2.5,1.3.9,2.4.9,1.6-.1,2.1-.3v-2.7h-2.4v-1.1h3.8v4.6c-.3.2-.8.4-1.3.6-.6.2-1.3.2-2.2.2ZM144.3,25.9v-9.7h1.4l5,7.1v-7.1h1.6v9.7h-1.4l-5-7.1v7.1h-1.6Z"/>
  <g>
    <path class="cls-2" d="M20.1,4.9c1.3,0,2.4-1.1,2.4-2.4S21.4,0,20.1,0s-2.4,1.1-2.4,2.4,1.1,2.4,2.4,2.4Z"/>
    <path class="cls-5" d="M28.6,6.7c4.2,0,8.2.9,11.8,2.6,1.4-1.1,1.7-2.7,1.7-4s.7-.8,1-.3c1.2,1.8,3,5,2,7.2,4.4,3.3,7.6,7.9,8.9,13.1v.4s0,.8,0,.8H3.1v-1.2c1-3.9,3-7.5,5.9-10.4-1.5-2.2.5-5.7,1.8-7.6.3-.5,1-.2,1,.3,0,1.2.3,2.7,1.4,3.8,4.1-2.7,9.1-4.4,14.5-4.6.9-1.3,1.6-3.1.2-4.5-1.8-1.9-6.1,0-6.3.2,0,0,0,0,0,0l-.4-.8c.2-.1,5-2.4,7.3,0,1,1,1.1,2.6.4,4.4,0,.2-.2.5-.3.7ZM9.6,11.2c.3-1,.9-2.1,1.4-2.9.1,1.2.5,2.6,1.7,3.6l.5.4.5-.3c4.2-2.8,9.4-4.5,15-4.5s8,.9,11.5,2.5l.4.2.4-.3c1.4-1.1,1.9-2.6,2-3.9.5.8,1,1.7,1.3,2.6.5,1.2.6,2.3.3,3.1l-.2.6.5.4c4.3,3.2,7.3,7.6,8.6,12.6v.3s-49.4,0-49.4,0v-.3c1-3.8,2.9-7.2,5.6-10l.4-.5-.4-.5c-.5-.8-.5-1.9,0-3.2Z"/>
    <g class="cls-4">
      <path class="cls-2" d="M36.1,20.2c-2,0-3.7-1.7-3.7-3.7s1.7-3.7,3.7-3.7,3.7,1.7,3.7,3.7-1.7,3.7-3.7,3.7ZM36.1,14.2c-1.3,0-2.3,1-2.3,2.3s1,2.3,2.3,2.3,2.3-1,2.3-2.3-1-2.3-2.3-2.3Z"/>
    </g>
    <g class="cls-3">
      <path class="cls-2" d="M20.3,20.7c-2,0-3.7-1.7-3.7-3.7s1.7-3.7,3.7-3.7,3.7,1.7,3.7,3.7-1.7,3.7-3.7,3.7ZM20.3,14.7c-1.3,0-2.3,1-2.3,2.3s1,2.3,2.3,2.3,2.3-1,2.3-2.3-1-2.3-2.3-2.3Z"/>
    </g>
  </g>
</svg>