<svg width="80" height="22" viewBox="0 0 80 22" fill="none" xmlns="http://www.w3.org/2000/svg">
<path d="M5.475 16.15C3.885 16.15 2.68 15.715 1.86 14.845C1.05 13.975 0.645 12.8 0.645 11.32C0.645 10.26 0.815 9.35 1.155 8.59C1.505 7.82 2.035 7.23 2.745 6.82C3.455 6.4 4.36 6.19 5.46 6.19C6.02 6.19 6.53 6.235 6.99 6.325C7.46 6.405 7.895 6.515 8.295 6.655V8.08C7.895 7.92 7.465 7.8 7.005 7.72C6.555 7.63 6.08 7.585 5.58 7.585C4.38 7.585 3.53 7.905 3.03 8.545C2.54 9.185 2.295 10.11 2.295 11.32C2.295 12.45 2.565 13.31 3.105 13.9C3.645 14.48 4.48 14.77 5.61 14.77C6.07 14.77 6.53 14.735 6.99 14.665C7.46 14.585 7.9 14.465 8.31 14.305V15.745C7.91 15.875 7.475 15.975 7.005 16.045C6.545 16.115 6.035 16.15 5.475 16.15ZM9.8952 16V6.34H11.5302V10.54H16.1802V6.34H17.8152V16H16.1802V11.8H11.5302V16H9.8952ZM19.4246 16L23.1146 6.34H24.9446L28.6046 16H26.9246L25.9646 13.51H22.0796L21.1196 16H19.4246ZM22.3346 12.25H25.6946L24.0146 7.825L22.3346 12.25ZM30.2126 16V6.34H31.8476V10.78L35.9576 6.34H37.8476L34.2926 10.24L37.9976 16H36.2576L33.2726 11.275L31.8476 12.805V16H30.2126ZM41.9852 16.15C40.7352 16.15 39.7302 15.99 38.9702 15.67V14.23C39.4002 14.39 39.8602 14.52 40.3502 14.62C40.8502 14.72 41.3452 14.77 41.8352 14.77C42.6052 14.77 43.1802 14.68 43.5602 14.5C43.9502 14.32 44.1452 13.96 44.1452 13.42C44.1452 13.09 44.0652 12.825 43.9052 12.625C43.7452 12.425 43.4802 12.255 43.1102 12.115C42.7402 11.965 42.2302 11.81 41.5802 11.65C40.5402 11.38 39.8102 11.04 39.3902 10.63C38.9702 10.21 38.7602 9.635 38.7602 8.905C38.7602 8.055 39.0702 7.39 39.6902 6.91C40.3102 6.43 41.2352 6.19 42.4652 6.19C43.0252 6.19 43.5502 6.23 44.0402 6.31C44.5402 6.39 44.9302 6.48 45.2102 6.58V8.02C44.4502 7.73 43.6102 7.585 42.6902 7.585C41.9702 7.585 41.4102 7.68 41.0102 7.87C40.6102 8.06 40.4102 8.405 40.4102 8.905C40.4102 9.195 40.4802 9.43 40.6202 9.61C40.7602 9.79 41.0002 9.945 41.3402 10.075C41.6902 10.205 42.1702 10.35 42.7802 10.51C43.5702 10.71 44.1802 10.95 44.6102 11.23C45.0502 11.5 45.3552 11.82 45.5252 12.19C45.7052 12.55 45.7952 12.96 45.7952 13.42C45.7952 14.27 45.4802 14.94 44.8502 15.43C44.2202 15.91 43.2652 16.15 41.9852 16.15ZM47.3805 16V6.34H49.0155V10.54H53.6655V6.34H55.3005V16H53.6655V11.8H49.0155V16H47.3805ZM57.195 16V6.34H58.83V16H57.195ZM60.7253 16V6.34H62.1653L67.2053 13.45V6.34H68.8253V16H67.3853L62.3603 8.905V16H60.7253ZM75.2302 16.15C73.6402 16.15 72.4402 15.72 71.6302 14.86C70.8302 14 70.4302 12.835 70.4302 11.365C70.4302 10.305 70.6052 9.39 70.9552 8.62C71.3052 7.84 71.8352 7.24 72.5452 6.82C73.2652 6.4 74.1752 6.19 75.2752 6.19C75.8452 6.19 76.3602 6.23 76.8202 6.31C77.2902 6.38 77.7302 6.485 78.1402 6.625V8.035C77.3202 7.735 76.4102 7.585 75.4102 7.585C74.1802 7.585 73.3152 7.91 72.8152 8.56C72.3252 9.21 72.0802 10.145 72.0802 11.365C72.0802 12.475 72.3402 13.32 72.8602 13.9C73.3802 14.48 74.1852 14.77 75.2752 14.77C76.1352 14.77 76.8302 14.67 77.3602 14.47V11.77H74.9452V10.705H78.7552V15.355C78.4452 15.555 78.0002 15.74 77.4202 15.91C76.8502 16.07 76.1202 16.15 75.2302 16.15Z" fill="white"/>
</svg>
