<svg width="27" height="22" viewBox="0 0 27 22" fill="none" xmlns="http://www.w3.org/2000/svg">
<path d="M2.625 21.5C1.90312 21.5 1.28516 21.243 0.771094 20.7289C0.257031 20.2148 0 19.5969 0 18.875V3.125C0 2.40312 0.257031 1.78516 0.771094 1.27109C1.28516 0.757031 1.90312 0.5 2.625 0.5H23.625C24.3469 0.5 24.9648 0.757031 25.4789 1.27109C25.993 1.78516 26.25 2.40312 26.25 3.125V18.875C26.25 19.5969 25.993 20.2148 25.4789 20.7289C24.9648 21.243 24.3469 21.5 23.625 21.5H2.625ZM13.125 12.3125L2.625 5.75V18.875H23.625V5.75L13.125 12.3125ZM13.125 9.6875L23.625 3.125H2.625L13.125 9.6875ZM2.625 5.75V3.125V18.875V5.75Z" fill="white"/>
</svg>
