<svg width="71" height="71" viewBox="0 0 71 71" fill="none" xmlns="http://www.w3.org/2000/svg">
<mask id="mask0_369_181801" style="mask-type:alpha" maskUnits="userSpaceOnUse" x="0" y="0" width="71" height="71">
<rect width="70.0508" height="70.0508" fill="#D9D9D9"/>
</mask>
<g mask="url(#mask0_369_181801)">
<path d="M59.6891 61.7712L49.6193 51.7014V60.2724H46.7005V46.7H60.2729V49.6188H51.6289L61.6987 59.6886L59.6891 61.7712ZM35.0254 61.2939C31.3915 61.2939 27.9765 60.6046 24.7805 59.226C21.5844 57.8474 18.8043 55.9764 16.44 53.6132C14.0758 51.2499 12.2042 48.4708 10.825 45.2757C9.44591 42.0811 8.75635 38.6673 8.75635 35.0344C8.75635 31.402 9.44567 27.9867 10.8243 24.7887C12.2029 21.5912 14.0739 18.8096 16.4371 16.4439C18.8004 14.0783 21.5795 12.2056 24.7746 10.826C27.9692 9.44591 31.383 8.75586 35.0159 8.75586C38.6483 8.75586 42.0635 9.44542 45.2616 10.8245C48.4591 12.2037 51.2407 14.0753 53.6064 16.4396C55.972 18.8038 57.8447 21.5839 59.2243 24.78C60.6044 27.976 61.2944 31.391 61.2944 35.0249C61.2944 35.8105 61.2599 36.5964 61.1908 37.3825C61.1213 38.1682 61.0174 38.9541 60.8792 39.7402H57.8707C58.039 38.9541 58.1653 38.1682 58.2494 37.3825C58.3336 36.5964 58.3756 35.8105 58.3756 35.0249C58.3756 33.8773 58.2961 32.7298 58.137 31.5822C57.978 30.4346 57.7206 29.2995 57.365 28.1767H45.5892C45.81 29.2995 45.9662 30.4346 46.0577 31.5822C46.1496 32.7298 46.1956 33.8773 46.1956 35.0249C46.1956 35.8105 46.173 36.5964 46.1277 37.3825C46.083 38.1682 46.0156 38.9541 45.9256 39.7402H43.0068C43.0968 38.9541 43.1642 38.1682 43.2089 37.3825C43.2542 36.5964 43.2768 35.8105 43.2768 35.0249C43.2768 33.8773 43.2308 32.7298 43.1389 31.5822C43.0474 30.4346 42.8913 29.2995 42.6704 28.1767H27.3804C27.1595 29.2995 27.0034 30.4361 26.9119 31.5866C26.82 32.7375 26.774 33.8883 26.774 35.0388C26.774 36.1897 26.82 37.3358 26.9119 38.4771C27.0034 39.6183 27.1595 40.7503 27.3804 41.8731H39.0664V44.7919H28.0765C28.7858 47.2923 29.7023 49.6911 30.826 51.9881C31.9492 54.2852 33.349 56.4218 35.0254 58.3978C35.811 58.3978 36.5969 58.3557 37.383 58.2715C38.1687 58.1874 38.9546 58.0967 39.7407 57.9994V60.8955C38.9546 60.9928 38.1687 61.0835 37.383 61.1677C36.5969 61.2519 35.811 61.2939 35.0254 61.2939ZM12.6858 41.8731H24.4616C24.2407 40.7503 24.0846 39.6137 23.9931 38.4632C23.9012 37.3123 23.8552 36.1615 23.8552 35.011C23.8552 33.8601 23.9012 32.714 23.9931 31.5727C24.0846 30.4315 24.2407 29.2995 24.4616 28.1767H12.6858C12.3302 29.2995 12.0728 30.4361 11.9137 31.5866C11.7547 32.7375 11.6751 33.8883 11.6751 35.0388C11.6751 36.1897 11.7547 37.3358 11.9137 38.4771C12.0728 39.6183 12.3302 40.7503 12.6858 41.8731ZM13.8752 25.2579H25.041C25.6092 22.8222 26.3992 20.4881 27.411 18.2558C28.4233 16.0239 29.7229 13.9311 31.3098 11.9775C27.4366 12.5539 23.9715 14.0199 20.9145 16.3753C17.8571 18.7313 15.5107 21.6921 13.8752 25.2579ZM31.3098 58.0723C29.8353 56.0812 28.5827 53.9697 27.5518 51.7379C26.5205 49.5055 25.6926 47.1901 25.068 44.7919H13.8752C15.5107 48.3202 17.8664 51.2623 20.9423 53.6183C24.0182 55.9737 27.474 57.4584 31.3098 58.0723ZM28.0765 25.2579H41.9743C41.3156 22.7546 40.3964 20.375 39.2168 18.1193C38.0371 15.8636 36.64 13.7078 35.0254 11.652C33.3865 13.628 31.9833 15.7639 30.8158 18.0595C29.6483 20.3551 28.7352 22.7546 28.0765 25.2579ZM44.9828 25.2579H56.1756C54.5401 21.6921 52.1937 18.722 49.1362 16.3476C46.0793 13.9732 42.6142 12.5165 38.741 11.9775C40.2155 13.9686 41.4401 16.0895 42.415 18.3404C43.3899 20.5913 44.2458 22.8971 44.9828 25.2579Z" fill="#66FFE4"/>
</g>
</svg>
