<svg width="71" height="71" viewBox="0 0 71 71" fill="none" xmlns="http://www.w3.org/2000/svg">
<mask id="mask0_369_181797" style="mask-type:alpha" maskUnits="userSpaceOnUse" x="0" y="0" width="71" height="71">
<rect width="70.0508" height="70.0508" fill="#D9D9D9"/>
</mask>
<g mask="url(#mask0_369_181797)">
<path d="M35.0253 63.2024C28.5626 63.2024 23.0554 62.4272 18.5035 60.8769C13.9512 59.326 11.675 57.1824 11.675 54.446C11.675 53.1141 12.2831 51.9028 13.4993 50.8122C14.7154 49.721 16.3487 48.8388 18.3992 48.1656L20.7853 50.3211C19.0564 50.8221 17.5922 51.4329 16.3925 52.1533C15.1934 52.8738 14.5938 53.638 14.5938 54.446C14.5938 55.9356 16.5078 57.2809 20.3358 58.482C24.1638 59.6831 29.0603 60.2836 35.0253 60.2836C40.9903 60.2836 45.8868 59.6831 49.7148 58.482C53.5428 57.2809 55.4568 55.9356 55.4568 54.446C55.4568 53.638 54.8572 52.8738 53.6581 52.1533C52.4585 51.4329 50.9942 50.8221 49.2653 50.3211L51.6514 48.1656C53.7019 48.8388 55.3352 49.721 56.5513 50.8122C57.7675 51.9028 58.3756 53.1141 58.3756 54.446C58.3756 57.1824 56.0994 59.326 51.5471 60.8769C46.9952 62.4272 41.488 63.2024 35.0253 63.2024ZM35.0253 53.099C34.3078 53.099 33.6148 52.9635 32.9464 52.6926C32.278 52.4211 31.6612 52.0514 31.0959 51.5834L12.7076 35.3674C12.3748 35.0571 12.1194 34.7083 11.9414 34.321C11.7638 33.9333 11.675 33.5337 11.675 33.1221V27.397C11.675 26.9596 11.7395 26.5349 11.8684 26.1229C11.9978 25.7114 12.2289 25.3502 12.5616 25.0393L31.0623 7.83528C31.5901 7.31914 32.1951 6.93191 32.8771 6.6736C33.5596 6.41529 34.2745 6.28613 35.0217 6.28613C35.7689 6.28613 36.4847 6.41529 37.1692 6.6736C37.8541 6.93191 38.4605 7.31914 38.9883 7.83528L57.489 25.0393C57.8217 25.3502 58.0528 25.7114 58.1822 26.1229C58.3111 26.5349 58.3756 26.9596 58.3756 27.397V33.1221C58.3756 33.5337 58.2868 33.9333 58.1092 34.321C57.9312 34.7083 57.6758 35.0571 57.343 35.3674L38.9547 51.5834C38.3894 52.0514 37.7726 52.4211 37.1042 52.6926C36.4358 52.9635 35.7428 53.099 35.0253 53.099ZM34.902 42.2995C35.5962 42.2995 36.2534 42.1808 36.8736 41.9434C37.4939 41.7056 38.0706 41.3434 38.6037 40.8569L54.7497 26.4819L37.0685 10.047C36.7654 9.76629 36.4436 9.5559 36.1031 9.41579C35.7625 9.27521 35.3977 9.20492 35.0085 9.20492C34.6194 9.20492 34.2545 9.27521 33.914 9.41579C33.5735 9.5559 33.2629 9.76629 32.9822 10.047L15.1214 26.6614L31.1893 40.9583C31.7298 41.4521 32.3101 41.7992 32.9304 41.9996C33.5501 42.1996 34.2073 42.2995 34.902 42.2995ZM26.277 29.9173C27.1434 29.9173 27.8733 29.6181 28.4668 29.0198C29.0598 28.4214 29.3563 27.6888 29.3563 26.822C29.3563 25.9556 29.0571 25.2259 28.4588 24.6329C27.8604 24.0394 27.1278 23.7426 26.2609 23.7426C25.3945 23.7426 24.6646 24.0421 24.0711 24.6409C23.4781 25.2392 23.1816 25.9716 23.1816 26.838C23.1816 27.7049 23.4808 28.4348 24.0791 29.0278C24.6775 29.6208 25.4101 29.9173 26.277 29.9173ZM30.9281 34.1948C32.8326 34.9542 34.7998 35.1422 36.8298 34.7589C38.8599 34.375 40.6571 33.4984 42.2216 32.129C43.6508 30.8676 44.6116 29.3165 45.1039 27.4758C45.5957 25.6345 45.5178 23.8214 44.8704 22.0366L30.9281 34.1948ZM35.0333 21.161C35.8997 21.161 36.6297 20.8618 37.2232 20.2635C37.8162 19.6651 38.1126 18.9325 38.1126 18.0656C38.1126 17.1992 37.8135 16.4695 37.2151 15.8765C36.6168 15.283 35.8842 14.9863 35.0173 14.9863C34.1509 14.9863 33.421 15.2857 32.8275 15.8845C32.2345 16.4829 31.938 17.2153 31.938 18.0817C31.938 18.9485 32.2371 19.6785 32.8355 20.2715C33.4338 20.8645 34.1665 21.161 35.0333 21.161Z" fill="#FC7AFF"/>
</g>
</svg>
