<svg width="71" height="71" viewBox="0 0 71 71" fill="none" xmlns="http://www.w3.org/2000/svg">
<mask id="mask0_369_181793" style="mask-type:alpha" maskUnits="userSpaceOnUse" x="0" y="0" width="71" height="71">
<rect width="70.0508" height="70.0508" fill="#D9D9D9"/>
</mask>
<g mask="url(#mask0_369_181793)">
<path d="M9.87866 56.5797V53.6602H60.1722V56.5797H9.87866ZM19.3092 47.8226C17.9656 47.8226 16.8439 47.3726 15.9439 46.4726C15.0439 45.5727 14.594 44.4511 14.594 43.108V25.1466C14.594 23.803 15.0439 22.6812 15.9439 21.7812C16.8439 20.8812 17.9656 20.4313 19.3092 20.4313H28.0656C28.0656 18.5229 28.7484 16.8857 30.1139 15.5197C31.4798 14.1537 33.117 13.4707 35.0254 13.4707C36.9338 13.4707 38.571 14.1537 39.937 15.5197C41.3025 16.8857 41.9853 18.5229 41.9853 20.4313H50.7416C52.0852 20.4313 53.207 20.8812 54.107 21.7812C55.0069 22.6812 55.4569 23.803 55.4569 25.1466V43.108C55.4569 44.4511 55.0069 45.5727 54.107 46.4726C53.207 47.3726 52.0852 47.8226 50.7416 47.8226H19.3092ZM48.7211 44.9038H50.7416C51.2655 44.9038 51.6961 44.7355 52.0332 44.3989C52.3698 44.0622 52.5381 43.6319 52.5381 43.108V25.1466C52.5381 24.6226 52.3698 24.1921 52.0332 23.855C51.6961 23.5184 51.2655 23.3501 50.7416 23.3501H48.7211V44.9038ZM30.6473 20.4313H39.4036C39.4036 19.1665 38.9901 18.1206 38.1631 17.2936C37.3361 16.4666 36.2902 16.0531 35.0254 16.0531C33.7606 16.0531 32.7147 16.4666 31.8877 17.2936C31.0608 18.1206 30.6473 19.1665 30.6473 20.4313ZM21.3298 44.9038V23.3501H19.3092C18.7853 23.3501 18.3548 23.5184 18.0177 23.855C17.6811 24.1921 17.5127 24.6226 17.5127 25.1466V43.108C17.5127 43.6319 17.6811 44.0622 18.0177 44.3989C18.3548 44.7355 18.7853 44.9038 19.3092 44.9038H21.3298ZM23.9114 23.3501V44.9038H46.1394V23.3501H23.9114Z" fill="#FFDF6E"/>
</g>
</svg>
