<svg width="71" height="71" viewBox="0 0 71 71" fill="none" xmlns="http://www.w3.org/2000/svg">
<mask id="mask0_369_181789" style="mask-type:alpha" maskUnits="userSpaceOnUse" x="0" y="0" width="71" height="71">
<rect width="70.0508" height="70.0508" fill="#D9D9D9"/>
</mask>
<g mask="url(#mask0_369_181789)">
<path d="M2.9187 51.3039V48.7835C2.9187 46.9909 3.87655 45.5033 5.79224 44.3207C7.70842 43.1386 10.1746 42.5475 13.1906 42.5475C13.6357 42.5475 14.1127 42.5689 14.6216 42.6118C15.1309 42.655 15.6718 42.7253 16.2444 42.8226C15.7876 43.6195 15.4544 44.437 15.2447 45.2751C15.0355 46.1133 14.931 46.9534 14.931 47.7955V51.3039H2.9187ZM20.4314 51.3039V48.0203C20.4314 46.844 20.7729 45.7687 21.4559 44.7943C22.1389 43.8204 23.1464 42.9778 24.4783 42.2666C25.8107 41.5559 27.3628 41.0227 29.1345 40.6671C30.9062 40.3115 32.8623 40.1337 35.0027 40.1337C37.1845 40.1337 39.1612 40.3115 40.9329 40.6671C42.7046 41.0227 44.2567 41.5559 45.5891 42.2666C46.9211 42.9778 47.9258 43.8204 48.6035 44.7943C49.2806 45.7687 49.6192 46.844 49.6192 48.0203V51.3039H20.4314ZM55.1197 51.3039V47.8123C55.1197 46.8812 55.0178 46.0039 54.8139 45.1803C54.6101 44.3567 54.3044 43.5708 53.8967 42.8226C54.5062 42.7253 55.0535 42.655 55.5385 42.6118C56.023 42.5689 56.4823 42.5475 56.9162 42.5475C59.9323 42.5475 62.3889 43.1359 64.2861 44.3127C66.1833 45.4894 67.1319 46.9797 67.1319 48.7835V51.3039H55.1197ZM23.4341 48.3851H46.6333V47.7678C46.5209 46.3828 45.386 45.2508 43.2285 44.3718C41.0716 43.4923 38.3372 43.0525 35.0253 43.0525C31.7135 43.0525 28.9791 43.4923 26.8221 44.3718C24.6646 45.2508 23.5353 46.3828 23.4341 47.7678V48.3851ZM13.1753 39.7966C12.0292 39.7966 11.0529 39.3899 10.2463 38.5765C9.44023 37.7632 9.0372 36.7854 9.0372 35.6432C9.0372 34.5131 9.44388 33.5477 10.2573 32.747C11.0706 31.9463 12.0484 31.5459 13.1906 31.5459C14.3207 31.5459 15.2956 31.9463 16.1152 32.747C16.9345 33.5477 17.3441 34.5187 17.3441 35.6599C17.3441 36.7676 16.9447 37.734 16.1459 38.559C15.3466 39.3841 14.3564 39.7966 13.1753 39.7966ZM56.9162 39.7966C55.7973 39.7966 54.8254 39.3841 54.0003 38.559C53.1753 37.734 52.7628 36.7676 52.7628 35.6599C52.7628 34.5187 53.1753 33.5477 54.0003 32.747C54.8254 31.9463 55.801 31.5459 56.9271 31.5459C58.0873 31.5459 59.0678 31.9463 59.8685 32.747C60.6693 33.5477 61.0696 34.5131 61.0696 35.6432C61.0696 36.7854 60.6717 37.7632 59.8758 38.5765C59.0795 39.3899 58.0929 39.7966 56.9162 39.7966ZM35.045 37.9446C33.2733 37.9446 31.7607 37.3224 30.507 36.0781C29.2534 34.8342 28.6266 33.3235 28.6266 31.5459C28.6266 29.7329 29.2486 28.2132 30.4924 26.9868C31.7368 25.7599 33.2478 25.1465 35.0253 25.1465C36.8384 25.1465 38.3581 25.758 39.5844 26.9809C40.8108 28.2034 41.424 29.7185 41.424 31.5262C41.424 33.2979 40.8128 34.8106 39.5903 36.0642C38.3678 37.3178 36.8527 37.9446 35.045 37.9446ZM35.053 35.0258C36.0114 35.0258 36.8262 34.6807 37.4975 33.9904C38.1693 33.2996 38.5052 32.4753 38.5052 31.5175C38.5052 30.5596 38.1718 29.7448 37.5048 29.073C36.8379 28.4012 36.0114 28.0653 35.0253 28.0653C34.0859 28.0653 33.2711 28.399 32.5808 29.0664C31.8905 29.7334 31.5454 30.5599 31.5454 31.5459C31.5454 32.4848 31.8905 33.2996 32.5808 33.9904C33.2711 34.6807 34.0952 35.0258 35.053 35.0258Z" fill="#A7FF4E"/>
</g>
</svg>
