<svg width="113" height="123" viewBox="0 0 113 123" fill="none" xmlns="http://www.w3.org/2000/svg">
<g clip-path="url(#clip0_293_10012)">
<path d="M92.3046 48.9718H70.4976C68.2608 48.9718 66.3125 50.6916 66.2472 52.9284C66.1819 55.1651 68.0322 57.1352 70.3289 57.1352H81.1644C82.0188 57.1352 82.4923 58.1094 81.9861 58.7951C75.6078 67.3993 65.1642 72.3789 53.9913 71.5136C37.5448 70.2347 24.7284 56.2753 24.7828 39.7799C24.8427 22.3375 39.0469 8.16597 56.5056 8.16597C73.9643 8.16597 88.1195 22.2886 88.2284 39.6874C88.2447 41.9187 89.9155 43.8779 92.1468 43.965C94.3781 44.0521 96.3917 42.1963 96.3917 39.8888C96.3863 17.1783 77.3167 -1.15658 54.3505 0.0515916C34.2686 1.11283 17.9637 17.2491 16.6956 37.3146C16.048 47.5297 19.2807 56.9828 25.0495 64.3679C25.9855 65.5652 26.2794 67.138 25.8821 68.602L23.5202 77.4239C23.1828 78.6865 24.3365 79.8456 25.6046 79.5082L37.5775 76.3028C38.6333 76.0198 39.7544 76.0959 40.7612 76.5313C45.5939 78.6157 50.9164 79.7695 56.5056 79.7695C68.1792 79.7695 78.9875 74.7191 86.427 66.2782C87.0583 65.5652 88.2284 66.006 88.2284 66.9584V75.3612C88.2284 77.598 89.9536 79.5463 92.1849 79.6116C94.4162 79.6769 96.3917 77.8266 96.3917 75.53V53.0535C96.3917 50.8004 94.5631 48.9718 92.31 48.9718H92.3046Z" fill="white"/>
</g>
<path d="M2.41943 116.201V98.1842H5.76544V113.37H15.1858V116.201H2.41943ZM20.916 105.674H29.873V108.428H20.916V105.674ZM21.1734 113.396H31.3401V116.201H17.8274V98.1842H30.9798V100.99H21.1734V113.396ZM38.7251 116.201V101.015H32.7537V98.1842H48.0425V101.015H42.0711V116.201H38.7251ZM55.9629 116.459C54.5559 116.459 53.2089 116.261 51.9219 115.867C50.635 115.455 49.614 114.931 48.859 114.297L50.0173 111.697C50.738 112.263 51.6302 112.735 52.6941 113.113C53.758 113.49 54.8476 113.679 55.9629 113.679C56.9066 113.679 57.6702 113.576 58.2536 113.37C58.837 113.164 59.266 112.889 59.5406 112.546C59.8151 112.186 59.9524 111.783 59.9524 111.337C59.9524 110.787 59.755 110.35 59.3604 110.024C58.9657 109.681 58.451 109.415 57.8161 109.226C57.1983 109.02 56.5034 108.831 55.7312 108.66C54.9762 108.488 54.2127 108.291 53.4405 108.068C52.6855 107.828 51.9906 107.527 51.3557 107.167C50.738 106.789 50.2318 106.292 49.8371 105.674C49.4425 105.056 49.2451 104.267 49.2451 103.306C49.2451 102.328 49.5025 101.436 50.0173 100.629C50.5492 99.8057 51.3471 99.1537 52.411 98.6732C53.492 98.1756 54.8561 97.9268 56.5034 97.9268C57.5844 97.9268 58.6569 98.0641 59.7207 98.3386C60.7846 98.6131 61.7112 99.0078 62.5005 99.5226L61.4452 102.122C60.6387 101.642 59.8065 101.29 58.9486 101.067C58.0906 100.827 57.267 100.707 56.4777 100.707C55.5511 100.707 54.7961 100.818 54.2127 101.041C53.6464 101.264 53.226 101.556 52.9515 101.916C52.6941 102.277 52.5654 102.688 52.5654 103.152C52.5654 103.701 52.7542 104.147 53.1317 104.49C53.5263 104.816 54.0325 105.074 54.6502 105.262C55.2851 105.451 55.9886 105.64 56.7608 105.829C57.5329 106 58.2965 106.197 59.0515 106.421C59.8237 106.644 60.5186 106.935 61.1363 107.296C61.7712 107.656 62.2774 108.145 62.6549 108.763C63.0496 109.38 63.2469 110.161 63.2469 111.105C63.2469 112.066 62.9809 112.958 62.449 113.782C61.9342 114.588 61.1363 115.24 60.0553 115.738C58.9743 116.218 57.6102 116.459 55.9629 116.459ZM82.0946 116.459C80.6875 116.459 79.392 116.235 78.2081 115.789C77.0412 115.326 76.0203 114.683 75.1452 113.859C74.2701 113.018 73.5923 112.032 73.1118 110.899C72.6314 109.767 72.3911 108.531 72.3911 107.193C72.3911 105.854 72.6314 104.619 73.1118 103.486C73.5923 102.354 74.2701 101.376 75.1452 100.552C76.0374 99.7113 77.0756 99.0679 78.2595 98.6217C79.4435 98.1584 80.739 97.9268 82.1461 97.9268C83.6732 97.9268 85.0459 98.1756 86.2642 98.6732C87.4997 99.1708 88.5378 99.9001 89.3786 100.861L87.268 102.92C86.5645 102.217 85.8009 101.702 84.9773 101.376C84.1708 101.033 83.2786 100.861 82.3005 100.861C81.3567 100.861 80.4816 101.015 79.6752 101.324C78.8687 101.633 78.1737 102.071 77.5903 102.637C77.0069 103.203 76.5522 103.872 76.2262 104.645C75.9173 105.417 75.7629 106.266 75.7629 107.193C75.7629 108.102 75.9173 108.943 76.2262 109.715C76.5522 110.487 77.0069 111.165 77.5903 111.748C78.1737 112.315 78.8601 112.752 79.6494 113.061C80.4387 113.37 81.3138 113.524 82.2748 113.524C83.167 113.524 84.025 113.387 84.8486 113.113C85.6894 112.821 86.4873 112.34 87.2423 111.671L89.147 114.168C88.2032 114.923 87.105 115.498 85.8524 115.892C84.617 116.27 83.3644 116.459 82.0946 116.459ZM85.9811 113.73V106.987H89.147V114.168L85.9811 113.73ZM102.002 116.459C100.595 116.459 99.2998 116.227 98.1158 115.764C96.9319 115.3 95.9023 114.657 95.0272 113.833C94.1521 112.992 93.4743 112.014 92.9939 110.899C92.5134 109.767 92.2732 108.531 92.2732 107.193C92.2732 105.854 92.5134 104.627 92.9939 103.512C93.4743 102.38 94.1521 101.401 95.0272 100.578C95.9023 99.7371 96.9319 99.085 98.1158 98.6217C99.2998 98.1584 100.587 97.9268 101.977 97.9268C103.384 97.9268 104.671 98.1584 105.837 98.6217C107.021 99.085 108.051 99.7371 108.926 100.578C109.801 101.401 110.479 102.38 110.959 103.512C111.44 104.627 111.68 105.854 111.68 107.193C111.68 108.531 111.44 109.767 110.959 110.899C110.479 112.032 109.801 113.01 108.926 113.833C108.051 114.657 107.021 115.3 105.837 115.764C104.671 116.227 103.392 116.459 102.002 116.459ZM101.977 113.524C102.886 113.524 103.727 113.37 104.499 113.061C105.271 112.752 105.94 112.315 106.507 111.748C107.073 111.165 107.51 110.496 107.819 109.741C108.145 108.969 108.308 108.119 108.308 107.193C108.308 106.266 108.145 105.425 107.819 104.67C107.51 103.898 107.073 103.229 106.507 102.663C105.94 102.079 105.271 101.633 104.499 101.324C103.727 101.015 102.886 100.861 101.977 100.861C101.067 100.861 100.226 101.015 99.4542 101.324C98.6992 101.633 98.03 102.079 97.4466 102.663C96.8804 103.229 96.4343 103.898 96.1082 104.67C95.7994 105.425 95.6449 106.266 95.6449 107.193C95.6449 108.102 95.7994 108.943 96.1082 109.715C96.4343 110.487 96.8804 111.165 97.4466 111.748C98.0129 112.315 98.6821 112.752 99.4542 113.061C100.226 113.37 101.067 113.524 101.977 113.524Z" fill="white"/>
<defs>
<clipPath id="clip0_293_10012">
<rect width="79.7723" height="79.7723" fill="white" transform="translate(16.6139)"/>
</clipPath>
</defs>
</svg>
