<svg width="168" height="181" viewBox="0 0 168 181" fill="none" xmlns="http://www.w3.org/2000/svg">
<g clip-path="url(#clip0_995_48523)">
<path d="M136.804 72.2243H104.644C101.345 72.2243 98.4717 74.7605 98.3754 78.0592C98.2791 81.3579 101.008 84.2634 104.395 84.2634H120.375C121.635 84.2634 122.333 85.7 121.587 86.7113C112.18 99.4004 96.7782 106.744 80.3008 105.468C56.0462 103.582 37.1449 82.9952 37.2251 58.6684C37.3134 32.945 58.2613 12.0452 84.0088 12.0452C109.756 12.0452 130.632 32.8727 130.793 58.5319C130.817 61.8226 133.281 64.712 136.571 64.8404C139.862 64.9688 142.832 62.2319 142.832 58.8289C142.824 25.3363 114.7 -1.70337 80.8305 0.0784037C51.2145 1.64348 27.1685 25.4406 25.2985 55.0326C24.3434 70.0974 29.1108 84.0386 37.6184 94.9299C38.9989 96.6957 39.4323 99.0152 38.8464 101.174L35.3631 114.184C34.8655 116.046 36.567 117.756 38.4371 117.258L56.0943 112.531C57.6514 112.114 59.3047 112.226 60.7895 112.868C67.9166 115.942 75.7661 117.644 84.0088 117.644C101.225 117.644 117.164 110.195 128.136 97.7471C129.067 96.6957 130.793 97.3458 130.793 98.7503V111.143C130.793 114.441 133.337 117.315 136.627 117.411C139.918 117.507 142.832 114.778 142.832 111.391V78.2438C142.832 74.9211 140.135 72.2243 136.812 72.2243H136.804Z" fill="#F7F7F7"/>
</g>
<path d="M4.06809 171.5V144.929H9.00268V167.325H22.8954V171.5H4.06809ZM31.3462 155.975H44.5557V160.037H31.3462V155.975ZM31.7258 167.363H46.7194V171.5H26.7912V144.929H46.1879V149.067H31.7258V167.363ZM57.6104 171.5V149.105H48.8041V144.929H71.3514V149.105H62.545V171.5H57.6104ZM83.0322 171.88C80.9571 171.88 78.9706 171.589 77.0727 171.007C75.1748 170.399 73.6691 169.627 72.5557 168.691L74.2638 164.857C75.3266 165.692 76.6425 166.388 78.2115 166.945C79.7804 167.502 81.3873 167.78 83.0322 167.78C84.424 167.78 85.5501 167.628 86.4105 167.325C87.2709 167.021 87.9035 166.616 88.3084 166.11C88.7133 165.578 88.9157 164.984 88.9157 164.326C88.9157 163.516 88.6247 162.871 88.0427 162.39C87.4606 161.884 86.7015 161.492 85.7652 161.213C84.8542 160.91 83.8293 160.631 82.6905 160.378C81.5771 160.125 80.451 159.834 79.3123 159.505C78.1988 159.151 77.1739 158.708 76.2376 158.177C75.3266 157.62 74.5801 156.886 73.9981 155.975C73.4161 155.064 73.125 153.9 73.125 152.483C73.125 151.04 73.5046 149.725 74.2638 148.535C75.0483 147.321 76.225 146.359 77.7939 145.65C79.3882 144.916 81.4 144.55 83.8293 144.55C85.4236 144.55 87.0051 144.752 88.5741 145.157C90.143 145.562 91.5095 146.144 92.6736 146.903L91.1173 150.737C89.9279 150.028 88.7006 149.509 87.4353 149.18C86.1701 148.826 84.9554 148.649 83.7913 148.649C82.4248 148.649 81.3114 148.814 80.451 149.143C79.6159 149.471 78.9959 149.902 78.591 150.433C78.2115 150.965 78.0217 151.572 78.0217 152.255C78.0217 153.065 78.3 153.723 78.8568 154.229C79.4388 154.71 80.1853 155.089 81.0963 155.368C82.0326 155.646 83.0701 155.924 84.2089 156.203C85.3476 156.456 86.4737 156.747 87.5872 157.076C88.7259 157.405 89.7508 157.835 90.6618 158.366C91.5981 158.898 92.3446 159.619 92.9014 160.53C93.4834 161.441 93.7744 162.592 93.7744 163.984C93.7744 165.401 93.3822 166.717 92.5977 167.932C91.8385 169.121 90.6618 170.083 89.0676 170.817C87.4733 171.525 85.4615 171.88 83.0322 171.88ZM121.57 171.88C119.495 171.88 117.585 171.551 115.839 170.893C114.118 170.209 112.612 169.26 111.322 168.046C110.031 166.806 109.031 165.351 108.323 163.681C107.614 162.01 107.26 160.188 107.26 158.215C107.26 156.241 107.614 154.419 108.323 152.749C109.031 151.078 110.031 149.636 111.322 148.421C112.637 147.181 114.168 146.232 115.914 145.574C117.661 144.891 119.571 144.55 121.646 144.55C123.898 144.55 125.923 144.916 127.72 145.65C129.542 146.384 131.073 147.46 132.313 148.877L129.2 151.913C128.162 150.876 127.036 150.117 125.822 149.636C124.632 149.13 123.316 148.877 121.874 148.877C120.482 148.877 119.192 149.105 118.002 149.56C116.813 150.016 115.788 150.661 114.928 151.496C114.067 152.331 113.397 153.318 112.916 154.457C112.46 155.595 112.233 156.848 112.233 158.215C112.233 159.556 112.46 160.796 112.916 161.934C113.397 163.073 114.067 164.073 114.928 164.933C115.788 165.768 116.8 166.414 117.964 166.869C119.128 167.325 120.419 167.552 121.836 167.552C123.152 167.552 124.417 167.35 125.632 166.945C126.872 166.515 128.049 165.806 129.162 164.819L131.971 168.501C130.579 169.615 128.96 170.462 127.112 171.044C125.29 171.601 123.443 171.88 121.57 171.88ZM127.302 167.856V157.911H131.971V168.501L127.302 167.856ZM150.93 171.88C148.855 171.88 146.944 171.538 145.198 170.855C143.452 170.171 141.933 169.222 140.643 168.008C139.352 166.768 138.353 165.325 137.644 163.681C136.936 162.01 136.581 160.188 136.581 158.215C136.581 156.241 136.936 154.431 137.644 152.787C138.353 151.116 139.352 149.674 140.643 148.459C141.933 147.219 143.452 146.258 145.198 145.574C146.944 144.891 148.842 144.55 150.892 144.55C152.967 144.55 154.865 144.891 156.585 145.574C158.331 146.258 159.85 147.219 161.14 148.459C162.431 149.674 163.431 151.116 164.139 152.787C164.848 154.431 165.202 156.241 165.202 158.215C165.202 160.188 164.848 162.01 164.139 163.681C163.431 165.351 162.431 166.793 161.14 168.008C159.85 169.222 158.331 170.171 156.585 170.855C154.865 171.538 152.979 171.88 150.93 171.88ZM150.892 167.552C152.233 167.552 153.473 167.325 154.612 166.869C155.75 166.414 156.737 165.768 157.572 164.933C158.407 164.073 159.053 163.086 159.508 161.972C159.989 160.834 160.229 159.581 160.229 158.215C160.229 156.848 159.989 155.608 159.508 154.495C159.053 153.356 158.407 152.369 157.572 151.534C156.737 150.674 155.75 150.016 154.612 149.56C153.473 149.105 152.233 148.877 150.892 148.877C149.55 148.877 148.31 149.105 147.172 149.56C146.058 150.016 145.071 150.674 144.211 151.534C143.376 152.369 142.718 153.356 142.237 154.495C141.782 155.608 141.554 156.848 141.554 158.215C141.554 159.556 141.782 160.796 142.237 161.934C142.718 163.073 143.376 164.073 144.211 164.933C145.046 165.768 146.033 166.414 147.172 166.869C148.31 167.325 149.55 167.552 150.892 167.552Z" fill="#F7F7F7"/>
<defs>
<clipPath id="clip0_995_48523">
<rect width="117.645" height="117.645" fill="white" transform="translate(25.1777)"/>
</clipPath>
</defs>
</svg>
