<svg width="90" height="90" viewBox="0 0 90 90" fill="none" xmlns="http://www.w3.org/2000/svg">
<rect width="89.503" height="89.503" rx="44.7515" fill="#1C1E20"/>
<rect x="29.6653" y="29.665" width="30.1727" height="30.1727" rx="3.05744" stroke="#D9A9FF" stroke-width="2.28591" stroke-linecap="round" stroke-dasharray="15.76 15.76"/>
<mask id="mask0_369_225727" style="mask-type:alpha" maskUnits="userSpaceOnUse" x="33" y="33" width="24" height="24">
<rect x="33.2634" y="33.1699" width="23.2592" height="23.2592" fill="#D9D9D9"/>
</mask>
<g mask="url(#mask0_369_225727)">
<path d="M40.5927 37.4573V35.7381C40.5927 35.0225 40.8418 34.4156 41.3401 33.9173C41.8384 33.4191 42.4453 33.1699 43.1609 33.1699H46.6266C47.3422 33.1699 47.9491 33.4191 48.4474 33.9173C48.9457 34.4156 49.1948 35.0225 49.1948 35.7381V37.4573H52.4825C53.1981 37.4573 53.805 37.7064 54.3033 38.2047C54.8016 38.703 55.0507 39.3099 55.0507 40.0255V44.7068H47.8011H41.9864H34.7368V40.0255C34.7368 39.3099 34.9859 38.703 35.4842 38.2047C35.9825 37.7064 36.5894 37.4573 37.305 37.4573H40.5927ZM43.1609 37.4573H46.6266V35.7381H43.1609V37.4573ZM34.7368 46.6451H41.9864H47.8011H55.0507V50.3573C55.0507 51.0729 54.8016 51.6799 54.3033 52.1781C53.805 52.6764 53.1981 52.9255 52.4825 52.9255H37.305C36.5894 52.9255 35.9825 52.6764 35.4842 52.1781C34.9859 51.6799 34.7368 51.0729 34.7368 50.3573V46.6451Z" fill="#D9A9FF"/>
</g>
</svg>
