<svg width="90" height="90" viewBox="0 0 90 90" fill="none" xmlns="http://www.w3.org/2000/svg">
<rect width="89.5" height="89.5" rx="44.75" fill="#1C1E20"/>
<mask id="mask0_369_225734" style="mask-type:alpha" maskUnits="userSpaceOnUse" x="26" y="26" width="36" height="36">
<rect x="26.5515" y="26.5527" width="34.4591" height="34.4591" fill="#D9D9D9"/>
</mask>
<g mask="url(#mask0_369_225734)">
<path d="M59.363 61.8053L54.6819 57.162C54.2269 57.4218 53.7433 57.6182 53.2309 57.7512C52.7186 57.8841 52.1875 57.9506 51.6378 57.9506C49.9049 57.9506 48.4213 57.3335 47.1871 56.0993C45.9532 54.8653 45.3362 53.3818 45.3362 51.6486C45.3362 49.9079 45.9532 48.4209 47.1871 47.1877C48.4213 45.9545 49.9049 45.3379 51.6378 45.3379C53.3785 45.3379 54.8656 45.9545 56.0991 47.1877C57.3323 48.4209 57.9489 49.9079 57.9489 51.6486C57.9489 52.2267 57.8762 52.7732 57.7309 53.2884C57.5855 53.8035 57.3797 54.2871 57.1133 54.7393L61.7857 59.3921L59.363 61.8053ZM51.6287 54.5187C52.4206 54.5187 53.0983 54.2385 53.662 53.6781C54.2259 53.118 54.5078 52.4445 54.5078 51.6577C54.5078 50.8661 54.2259 50.1883 53.662 49.6244C53.0983 49.0607 52.4206 48.7789 51.6287 48.7789C50.8371 48.7789 50.1623 49.0607 49.6045 49.6244C49.0469 50.1883 48.7681 50.8661 48.7681 51.6577C48.7681 52.4445 49.0469 53.118 49.6045 53.6781C50.1623 54.2385 50.8371 54.5187 51.6287 54.5187Z" fill="#ACF0A6"/>
</g>
<path d="M36.847 28.5504C37.1009 27.8642 38.0715 27.8642 38.3254 28.5504L40.4408 34.2671C40.5206 34.4829 40.6907 34.653 40.9065 34.7328L46.6232 36.8482C47.3094 37.1021 47.3094 38.0727 46.6232 38.3266L40.9065 40.442C40.6907 40.5218 40.5206 40.6919 40.4408 40.9077L38.3254 46.6244C38.0715 47.3106 37.1009 47.3106 36.847 46.6244L34.7316 40.9077C34.6518 40.6919 34.4817 40.5218 34.2659 40.442L28.5492 38.3266C27.863 38.0727 27.863 37.1021 28.5492 36.8482L34.2659 34.7328C34.4817 34.653 34.6518 34.4829 34.7316 34.2671L36.847 28.5504Z" fill="#ACF0A6"/>
<path d="M34.4825 50.6188C34.7364 49.9326 35.707 49.9326 35.9609 50.6188L36.5861 52.3084C36.6659 52.5241 36.836 52.6942 37.0518 52.774L38.7414 53.3992C39.4276 53.6531 39.4276 54.6237 38.7414 54.8776L37.0518 55.5028C36.836 55.5827 36.6659 55.7528 36.5861 55.9685L35.9609 57.6581C35.707 58.3443 34.7364 58.3443 34.4825 57.6581L33.8573 55.9685C33.7774 55.7528 33.6073 55.5827 33.3916 55.5028L31.702 54.8776C31.0158 54.6237 31.0158 53.6531 31.702 53.3992L33.3916 52.774C33.6073 52.6942 33.7774 52.5241 33.8573 52.3084L34.4825 50.6188Z" fill="#ACF0A6"/>
<path d="M51.8228 30.1246C52.0767 29.4384 53.0473 29.4384 53.3012 30.1246L53.9264 31.8142C54.0063 32.03 54.1764 32.2001 54.3921 32.2799L56.0817 32.9051C56.7679 33.159 56.7679 34.1296 56.0817 34.3835L54.3921 35.0087C54.1764 35.0885 54.0063 35.2586 53.9264 35.4744L53.3012 37.164C53.0473 37.8502 52.0767 37.8502 51.8228 37.164L51.1976 35.4744C51.1178 35.2586 50.9477 35.0885 50.7319 35.0087L49.0424 34.3835C48.3561 34.1296 48.3561 33.159 49.0424 32.9051L50.7319 32.2799C50.9477 32.2001 51.1178 32.03 51.1976 31.8142L51.8228 30.1246Z" fill="#ACF0A6"/>
</svg>
