<svg width="90" height="90" viewBox="0 0 90 90" fill="none" xmlns="http://www.w3.org/2000/svg">
<rect width="89.503" height="89.503" rx="44.7515" fill="#1C1E20"/>
<path fill-rule="evenodd" clip-rule="evenodd" d="M32.7224 30.8084C31.665 30.8084 30.8079 31.6655 30.8079 32.7229V38.7373C30.8079 39.3685 30.2962 39.8803 29.6649 39.8803C29.0337 39.8803 28.522 39.3685 28.522 38.7373V32.7229C28.522 30.403 30.4026 28.5225 32.7224 28.5225H38.7368C39.3681 28.5225 39.8798 29.0342 39.8798 29.6654C39.8798 30.2967 39.3681 30.8084 38.7368 30.8084H32.7224ZM49.6228 29.6654C49.6228 29.0342 50.1345 28.5225 50.7657 28.5225H56.7802C59.1 28.5225 60.9806 30.403 60.9806 32.7229V38.7373C60.9806 39.3685 60.4689 39.8803 59.8376 39.8803C59.2064 39.8803 58.6947 39.3685 58.6947 38.7373V32.7229C58.6947 31.6655 57.8375 30.8084 56.7802 30.8084H50.7657C50.1345 30.8084 49.6228 30.2967 49.6228 29.6654ZM59.8376 49.6233C60.4689 49.6233 60.9806 50.135 60.9806 50.7662V56.7807C60.9806 59.1005 59.1 60.9811 56.7802 60.9811H50.7657C50.1345 60.9811 49.6228 60.4693 49.6228 59.8381C49.6228 59.2069 50.1345 58.6952 50.7657 58.6952H56.7802C57.8375 58.6952 58.6947 57.838 58.6947 56.7807V50.7662C58.6947 50.135 59.2064 49.6233 59.8376 49.6233ZM29.6649 49.6233C30.2962 49.6233 30.8079 50.135 30.8079 50.7662V56.7807C30.8079 57.838 31.665 58.6952 32.7224 58.6952H38.7368C39.3681 58.6952 39.8798 59.2069 39.8798 59.8381C39.8798 60.4693 39.3681 60.9811 38.7368 60.9811H32.7224C30.4026 60.9811 28.522 59.1005 28.522 56.7807V50.7662C28.522 50.135 29.0337 49.6233 29.6649 49.6233Z" fill="#D9A9FF"/>
<mask id="mask0_369_43625" style="mask-type:alpha" maskUnits="userSpaceOnUse" x="33" y="33" width="24" height="24">
<rect x="33.2632" y="33.1699" width="23.2592" height="23.2592" fill="#D9D9D9"/>
</mask>
<g mask="url(#mask0_369_43625)">
<path d="M40.5922 37.4573V35.7381C40.5922 35.0225 40.8413 34.4156 41.3396 33.9173C41.8379 33.4191 42.4448 33.1699 43.1604 33.1699H46.6261C47.3417 33.1699 47.9487 33.4191 48.4469 33.9173C48.9452 34.4156 49.1943 35.0225 49.1943 35.7381V37.4573H52.482C53.1976 37.4573 53.8045 37.7064 54.3028 38.2047C54.8011 38.703 55.0502 39.3099 55.0502 40.0255V44.7068H47.8007H41.9859H34.7363V40.0255C34.7363 39.3099 34.9855 38.703 35.4837 38.2047C35.982 37.7064 36.5889 37.4573 37.3046 37.4573H40.5922ZM43.1604 37.4573H46.6261V35.7381H43.1604V37.4573ZM34.7363 46.6451H41.9859H47.8007H55.0502V50.3573C55.0502 51.0729 54.8011 51.6799 54.3028 52.1781C53.8045 52.6764 53.1976 52.9255 52.482 52.9255H37.3046C36.5889 52.9255 35.982 52.6764 35.4837 52.1781C34.9855 51.6799 34.7363 51.0729 34.7363 50.3573V46.6451Z" fill="#D9A9FF"/>
</g>
</svg>
