<svg width="100" height="100" viewBox="0 0 100 100" fill="none" xmlns="http://www.w3.org/2000/svg">
<rect x="0.5" y="0.5" width="99" height="99" rx="49.5" fill="#1C1E20"/>
<rect x="0.5" y="0.5" width="99" height="99" rx="49.5" stroke="#1C1E20"/>
<mask id="mask0_369_181712" style="mask-type:alpha" maskUnits="userSpaceOnUse" x="22" y="22" width="56" height="56">
<rect x="22.5" y="22.5" width="55" height="55" fill="#D9D9D9"/>
</mask>
<g mask="url(#mask0_369_181712)">
<path d="M46.6948 38.5412H53.5698C53.5698 37.5482 53.2451 36.727 52.5958 36.0777C51.9465 35.4284 51.1253 35.1037 50.1323 35.1037C49.1392 35.1037 48.318 35.4284 47.6687 36.0777C47.0194 36.727 46.6948 37.5482 46.6948 38.5412ZM39.3792 40.8329H37.7922C37.3809 40.8329 37.043 40.965 36.7787 41.2293C36.5144 41.494 36.3823 41.8321 36.3823 42.2434V56.3458C36.3823 56.7571 36.5144 57.0949 36.7787 57.3592C37.043 57.6236 37.3809 57.7557 37.7922 57.7557H39.3792V40.8329ZM30.3884 66.9229V64.6307H49.1715C49.2448 65.0482 49.3212 65.4376 49.4007 65.7989C49.4801 66.1602 49.5976 66.5349 49.753 66.9229H30.3884ZM41.4062 40.8329V57.7557H49.8854C49.7295 58.1438 49.6121 58.5112 49.533 58.858C49.4536 59.2044 49.3625 59.6009 49.2597 60.0474H37.7922C36.7377 60.0474 35.8571 59.6941 35.1505 58.9875C34.4439 58.2809 34.0906 57.4003 34.0906 56.3458V42.2434C34.0906 41.1885 34.4439 40.3077 35.1505 39.6011C35.8571 38.8945 36.7377 38.5412 37.7922 38.5412H44.6672C44.6672 37.0429 45.2035 35.7574 46.276 34.6849C47.3485 33.6124 48.6339 33.0762 50.1323 33.0762C51.6307 33.0762 52.9161 33.6124 53.9886 34.6849C55.0607 35.7574 55.5968 37.0429 55.5968 38.5412H62.4718C63.5267 38.5412 64.4075 38.8945 65.1141 39.6011C65.8207 40.3077 66.174 41.1885 66.174 42.2434V49.2765C65.7657 49.165 65.3858 49.0814 65.0344 49.0256C64.6834 48.9698 64.2994 48.9272 63.8823 48.8978V42.2434C63.8823 41.8321 63.7499 41.494 63.4853 41.2293C63.2209 40.965 62.8831 40.8329 62.4718 40.8329H60.8854V48.9947C60.521 49.0504 60.1832 49.1041 59.8719 49.1557C59.5602 49.2072 59.2224 49.2888 58.8584 49.4003V40.8329H41.4062ZM62.7365 53.4371C65.2894 53.4371 67.4554 54.3266 69.2345 56.1057C71.0136 57.8844 71.9031 60.0504 71.9031 62.6037C71.9031 65.157 71.0136 67.323 69.2345 69.1017C67.4554 70.8808 65.2894 71.7704 62.7365 71.7704C60.1832 71.7704 58.017 70.8808 56.2379 69.1017C54.4591 67.323 53.5698 65.157 53.5698 62.6037C53.5698 60.0504 54.4591 57.8844 56.2379 56.1057C58.017 54.3266 60.1832 53.4371 62.7365 53.4371ZM62.7365 69.1264C63.0684 69.1264 63.3556 69.0051 63.5981 68.7626C63.8403 68.52 63.9613 68.2328 63.9613 67.9009C63.9613 67.569 63.8403 67.2818 63.5981 67.0392C63.3556 66.7971 63.0684 66.676 62.7365 66.676C62.4045 66.676 62.1173 66.7971 61.8748 67.0392C61.6322 67.2818 61.511 67.569 61.511 67.9009C61.511 68.2328 61.6322 68.52 61.8748 68.7626C62.1173 69.0051 62.4045 69.1264 62.7365 69.1264ZM62.7365 55.9052C61.9168 55.9052 61.1537 56.163 60.4471 56.6786C59.7405 57.1942 59.2344 57.8619 58.9288 58.6815L60.4975 59.3072C60.6709 58.8488 60.9537 58.4478 61.346 58.104C61.7382 57.7603 62.2017 57.5884 62.7365 57.5884C63.3682 57.5884 63.8611 57.7463 64.2151 58.0622C64.5688 58.3781 64.7457 58.8519 64.7457 59.4836C64.7457 59.9332 64.6166 60.3084 64.3584 60.6094C64.0998 60.9108 63.8177 61.2142 63.5122 61.5198C63.283 61.7489 63.059 61.9928 62.8401 62.2514C62.6209 62.51 62.4158 62.7626 62.2248 63.0094C62.1103 63.2091 62.0243 63.4308 61.967 63.6745C61.9097 63.9186 61.8811 64.164 61.8811 64.4107V65.0363H63.5912V64.6399C63.5912 64.1903 63.7058 63.8252 63.935 63.5445C64.1642 63.2641 64.4315 62.9712 64.7371 62.6656C65.2718 62.2073 65.6919 61.7386 65.9975 61.2597C66.303 60.7807 66.4558 60.1887 66.4558 59.4836C66.4558 58.4348 66.1149 57.5762 65.4332 56.9078C64.7518 56.2394 63.8529 55.9052 62.7365 55.9052Z" fill="#FFFCB0"/>
</g>
</svg>
