<svg width="100" height="100" viewBox="0 0 100 100" fill="none" xmlns="http://www.w3.org/2000/svg">
<rect width="100" height="100" rx="50" fill="#1C1E20"/>
<mask id="mask0_369_181708" style="mask-type:alpha" maskUnits="userSpaceOnUse" x="22" y="22" width="56" height="56">
<rect x="22.5" y="22.5" width="55" height="55" fill="#D9D9D9"/>
</mask>
<g mask="url(#mask0_369_181708)">
<path d="M44.0062 41.7145V39.4228H62.8689V41.7145H44.0062ZM44.0062 48.0607V45.769H62.8689V48.0607H44.0062ZM49.6477 70.625H36.2501C34.9572 70.625 33.8702 70.1842 32.989 69.3027C32.1075 68.4216 31.6667 67.3345 31.6667 66.0417V59.6955H38.5417V29.375H68.3334V47.4574C67.9221 47.4689 67.5306 47.512 67.1589 47.5869C66.7873 47.6621 66.4149 47.7687 66.0417 47.9066V31.6667H40.8334V59.6955H53.0852L50.7936 61.9871H33.9584V66.0417C33.9584 66.691 34.178 67.2352 34.6173 67.6745C35.0565 68.1137 35.6008 68.3333 36.2501 68.3333H49.6477V70.625ZM55.1122 70.625V65.5616L67.3331 53.398C67.5592 53.1715 67.7943 53.0187 68.0384 52.9396C68.282 52.8602 68.5259 52.8205 68.77 52.8205C69.0224 52.8205 69.278 52.8697 69.5365 52.9683C69.7951 53.0664 70.0228 53.2141 70.2195 53.4111L72.3392 55.5751C72.5275 55.8012 72.6708 56.0363 72.7689 56.2803C72.8675 56.524 72.9167 56.7677 72.9167 57.0114C72.9167 57.2554 72.8698 57.5016 72.7758 57.7498C72.6819 57.9981 72.5363 58.2353 72.3392 58.4614L60.1762 70.625H55.1122ZM57.1398 68.598H59.3169L67.2626 60.6385L66.1873 59.5499L65.1428 58.4305L57.1398 66.4209V68.598ZM66.1873 59.5499L65.1428 58.4305L67.2626 60.6385L66.1873 59.5499Z" fill="#96FFD9"/>
</g>
</svg>
