<svg width="56" height="56" viewBox="0 0 56 56" fill="none" xmlns="http://www.w3.org/2000/svg">
<path d="M28.1429 1.79399C28.1429 0.881939 28.8829 0.137436 29.7934 0.191885C34.6073 0.479789 39.2727 2.02314 43.3194 4.68133C47.8272 7.64238 51.3703 11.8574 53.5122 16.8071C55.6542 21.7569 56.3014 27.2251 55.3741 32.538C54.4468 37.851 51.9856 42.7767 48.2936 46.7083C44.6017 50.6398 39.8402 53.4055 34.596 54.6645C29.3517 55.9236 23.8536 55.621 18.7792 53.7941C13.7047 51.9672 9.27554 48.6957 6.03729 44.3828C3.13025 40.511 1.297 35.9516 0.707392 31.1653C0.595885 30.2601 1.29245 29.4747 2.2027 29.4175C3.11294 29.3602 3.8915 30.0529 4.01035 30.9572C4.55483 35.1002 6.15846 39.0433 8.6785 42.3997C11.5298 46.1973 15.4298 49.0779 19.898 50.6865C24.3661 52.2951 29.2072 52.5616 33.8249 51.453C38.4426 50.3443 42.6351 47.9091 45.886 44.4473C49.1368 40.9855 51.304 36.6484 52.1205 31.9702C52.9369 27.292 52.3671 22.4772 50.481 18.1188C48.595 13.7605 45.4753 10.0491 41.5061 7.44185C37.9981 5.13753 33.9621 3.78466 29.7931 3.50139C28.8831 3.43956 28.1429 2.70603 28.1429 1.79399Z" fill="#F8FBF6" fill-opacity="0.85"/>
<path d="M16.647 33.2856L21.3242 22.704L22.0208 23.865H15.768L16.9621 22.6044V25.7557H14.5738V21.6756H23.8784V23.4171L19.5661 33.2856H16.647ZM23.8566 30.8475V29.0397L29.3299 21.6756H32.1495L26.7923 29.0397L25.482 28.6582H34.6208V30.8475H23.8566ZM30.1094 33.2856V30.8475L30.1924 28.6582V26.4855H32.73V33.2856H30.1094ZM35.9385 33.2856L39.9025 27.4806H40.8894L36.9254 33.2856H35.9385ZM36.4444 30.6153C36.1624 30.6153 35.9137 30.5518 35.698 30.4246C35.4824 30.2919 35.311 30.1067 35.1839 29.869C35.0623 29.6257 35.0014 29.341 35.0014 29.0148C35.0014 28.6886 35.0623 28.4067 35.1839 28.169C35.311 27.9312 35.4824 27.746 35.698 27.6133C35.9137 27.4806 36.1624 27.4143 36.4444 27.4143C36.7264 27.4143 36.9751 27.4806 37.1908 27.6133C37.4064 27.746 37.575 27.9312 37.6966 28.169C37.8183 28.4067 37.8791 28.6886 37.8791 29.0148C37.8791 29.341 37.8183 29.6257 37.6966 29.869C37.575 30.1067 37.4064 30.2919 37.1908 30.4246C36.9751 30.5518 36.7264 30.6153 36.4444 30.6153ZM36.4444 29.9353C36.6268 29.9353 36.7734 29.8607 36.8839 29.7114C36.9945 29.5566 37.0498 29.3244 37.0498 29.0148C37.0498 28.7052 36.9945 28.4758 36.8839 28.3265C36.7734 28.1717 36.6268 28.0943 36.4444 28.0943C36.2675 28.0943 36.121 28.1717 36.0049 28.3265C35.8943 28.4758 35.839 28.7052 35.839 29.0148C35.839 29.3189 35.8943 29.5483 36.0049 29.7031C36.121 29.8579 36.2675 29.9353 36.4444 29.9353ZM40.3835 33.352C40.1071 33.352 39.8583 33.2884 39.6372 33.1613C39.4215 33.0286 39.2529 32.8434 39.1313 32.6056C39.0097 32.3624 38.9488 32.0777 38.9488 31.7515C38.9488 31.4253 39.0097 31.1433 39.1313 30.9056C39.2529 30.6679 39.4215 30.4827 39.6372 30.35C39.8583 30.2173 40.1071 30.1509 40.3835 30.1509C40.671 30.1509 40.9225 30.2173 41.1382 30.35C41.3538 30.4827 41.5224 30.6679 41.644 30.9056C41.7657 31.1433 41.8265 31.4253 41.8265 31.7515C41.8265 32.0777 41.7657 32.3624 41.644 32.6056C41.5224 32.8434 41.3538 33.0286 41.1382 33.1613C40.9225 33.2884 40.671 33.352 40.3835 33.352ZM40.3835 32.672C40.566 32.672 40.7125 32.5973 40.823 32.4481C40.9336 32.2933 40.9889 32.0611 40.9889 31.7515C40.9889 31.4474 40.9336 31.218 40.823 31.0632C40.7125 30.9084 40.566 30.831 40.3835 30.831C40.2066 30.831 40.0601 30.9084 39.944 31.0632C39.8334 31.2124 39.7781 31.4419 39.7781 31.7515C39.7781 32.0611 39.8334 32.2933 39.944 32.4481C40.0601 32.5973 40.2066 32.672 40.3835 32.672Z" fill="#F8FBF6" fill-opacity="0.85"/>
<rect x="2.15857" y="1.80115" width="51.9686" height="51.9686" rx="25.9843" stroke="#2D3527" stroke-opacity="0.3" stroke-width="3.31714"/>
</svg>
