<svg width="56" height="56" viewBox="0 0 56 56" fill="none" xmlns="http://www.w3.org/2000/svg">
<path d="M28.1429 1.93754C28.1429 1.02549 28.8829 0.280991 29.7933 0.335444C33.5857 0.562266 37.2969 1.56889 40.6925 3.29902C44.5793 5.27948 47.9423 8.15173 50.5064 11.6809C53.0705 15.2101 54.763 19.2961 55.4454 23.6047C56.1278 27.9133 55.7808 32.3223 54.4328 36.4711C53.0847 40.6199 50.7739 44.3908 47.6893 47.4754C44.6047 50.5601 40.8338 52.8709 36.685 54.2189C32.5362 55.5669 28.1272 55.9139 23.8186 55.2315C20.0545 54.6354 16.4604 53.2683 13.259 51.2228C12.4905 50.7317 12.3294 49.6944 12.8655 48.9565V48.9565C13.4016 48.2187 14.4316 48.0603 15.2041 48.5451C17.9808 50.2878 21.0861 51.4548 24.3352 51.9694C28.1291 52.5702 32.0112 52.2647 35.6643 51.0777C39.3175 49.8908 42.6378 47.8561 45.3539 45.14C48.0699 42.4239 50.1046 39.1036 51.2916 35.4505C52.4786 31.7974 52.7841 27.9152 52.1832 24.1214C51.5823 20.3275 50.0921 16.7298 47.8344 13.6223C45.5766 10.5147 42.6155 7.98568 39.193 6.24185C36.2619 4.7484 33.0638 3.8672 29.793 3.64495C28.8831 3.58312 28.1429 2.84959 28.1429 1.93754V1.93754Z" fill="#F8FBF6" fill-opacity="0.85"/>
<path d="M18.9808 33.6277C17.9193 33.6277 16.996 33.4066 16.2109 32.9643C15.4369 32.522 14.8398 31.8752 14.4197 31.0238C13.9995 30.1724 13.7894 29.122 13.7894 27.8725C13.7894 26.5346 14.0382 25.4012 14.5358 24.4724C15.0444 23.5436 15.741 22.836 16.6256 22.3495C17.5212 21.8629 18.5495 21.6197 19.7105 21.6197C20.3297 21.6197 20.9213 21.686 21.4852 21.8187C22.0491 21.9514 22.5356 22.1504 22.9447 22.4158L21.9496 24.3895C21.6289 24.1684 21.2862 24.0191 20.9213 23.9417C20.5564 23.8532 20.1749 23.809 19.7769 23.809C18.7707 23.809 17.9745 24.1131 17.3885 24.7212C16.8025 25.3294 16.5095 26.2305 16.5095 27.4247C16.5095 27.6237 16.5095 27.8449 16.5095 28.0881C16.5205 28.3314 16.5537 28.5746 16.609 28.8179L15.8626 28.1213C16.0727 27.6901 16.3436 27.3307 16.6753 27.0432C17.007 26.7447 17.3996 26.5235 17.8529 26.3798C18.3173 26.225 18.8259 26.1476 19.3788 26.1476C20.1307 26.1476 20.8052 26.2969 21.4023 26.5954C21.9994 26.8939 22.4748 27.3141 22.8286 27.8559C23.1935 28.3977 23.376 29.0335 23.376 29.7633C23.376 30.5483 23.1769 31.2339 22.7789 31.8199C22.3919 32.3949 21.8667 32.8427 21.2032 33.1633C20.5509 33.4729 19.81 33.6277 18.9808 33.6277ZM18.8315 31.6209C19.2074 31.6209 19.5391 31.5545 19.8266 31.4218C20.1252 31.2781 20.3574 31.0735 20.5232 30.8082C20.6891 30.5428 20.772 30.2387 20.772 29.896C20.772 29.3652 20.5896 28.945 20.2247 28.6354C19.8708 28.3148 19.3954 28.1545 18.7983 28.1545C18.4002 28.1545 18.0519 28.2319 17.7534 28.3867C17.4549 28.5304 17.2171 28.735 17.0402 29.0003C16.8744 29.2546 16.7914 29.5532 16.7914 29.896C16.7914 30.2277 16.8744 30.5262 17.0402 30.7916C17.2061 31.0459 17.4383 31.2505 17.7368 31.4053C18.0354 31.549 18.4002 31.6209 18.8315 31.6209ZM29.3256 33.6277C28.3747 33.6277 27.5233 33.3955 26.7714 32.9311C26.0195 32.4557 25.4279 31.7701 24.9967 30.8745C24.5655 29.9789 24.3499 28.8953 24.3499 27.6237C24.3499 26.3521 24.5655 25.2685 24.9967 24.3729C25.4279 23.4773 26.0195 22.7973 26.7714 22.3329C27.5233 21.8574 28.3747 21.6197 29.3256 21.6197C30.2875 21.6197 31.1389 21.8574 31.8798 22.3329C32.6317 22.7973 33.2232 23.4773 33.6544 24.3729C34.0857 25.2685 34.3013 26.3521 34.3013 27.6237C34.3013 28.8953 34.0857 29.9789 33.6544 30.8745C33.2232 31.7701 32.6317 32.4557 31.8798 32.9311C31.1389 33.3955 30.2875 33.6277 29.3256 33.6277ZM29.3256 31.3555C29.7789 31.3555 30.1714 31.2283 30.5032 30.974C30.8459 30.7197 31.1113 30.3161 31.2993 29.7633C31.4983 29.2104 31.5978 28.4972 31.5978 27.6237C31.5978 26.7502 31.4983 26.037 31.2993 25.4842C31.1113 24.9313 30.8459 24.5277 30.5032 24.2734C30.1714 24.0191 29.7789 23.8919 29.3256 23.8919C28.8833 23.8919 28.4908 24.0191 28.148 24.2734C27.8163 24.5277 27.5509 24.9313 27.3519 25.4842C27.1639 26.037 27.0699 26.7502 27.0699 27.6237C27.0699 28.4972 27.1639 29.2104 27.3519 29.7633C27.5509 30.3161 27.8163 30.7197 28.148 30.974C28.4908 31.2283 28.8833 31.3555 29.3256 31.3555ZM36.1209 33.4287L40.0849 27.6237H41.0718L37.1078 33.4287H36.1209ZM36.6268 30.7584C36.3448 30.7584 36.096 30.6948 35.8804 30.5677C35.6648 30.435 35.4934 30.2498 35.3663 30.0121C35.2446 29.7688 35.1838 29.4841 35.1838 29.1579C35.1838 28.8317 35.2446 28.5497 35.3663 28.312C35.4934 28.0743 35.6648 27.8891 35.8804 27.7564C36.096 27.6237 36.3448 27.5574 36.6268 27.5574C36.9087 27.5574 37.1575 27.6237 37.3731 27.7564C37.5888 27.8891 37.7574 28.0743 37.879 28.312C38.0006 28.5497 38.0614 28.8317 38.0614 29.1579C38.0614 29.4841 38.0006 29.7688 37.879 30.0121C37.7574 30.2498 37.5888 30.435 37.3731 30.5677C37.1575 30.6948 36.9087 30.7584 36.6268 30.7584ZM36.6268 30.0784C36.8092 30.0784 36.9557 30.0038 37.0663 29.8545C37.1769 29.6997 37.2322 29.4675 37.2322 29.1579C37.2322 28.8483 37.1769 28.6189 37.0663 28.4696C36.9557 28.3148 36.8092 28.2374 36.6268 28.2374C36.4499 28.2374 36.3034 28.3148 36.1873 28.4696C36.0767 28.6189 36.0214 28.8483 36.0214 29.1579C36.0214 29.462 36.0767 29.6914 36.1873 29.8462C36.3034 30.001 36.4499 30.0784 36.6268 30.0784ZM40.5659 33.4951C40.2895 33.4951 40.0407 33.4315 39.8195 33.3043C39.6039 33.1716 39.4353 32.9864 39.3137 32.7487C39.192 32.5054 39.1312 32.2207 39.1312 31.8945C39.1312 31.5683 39.192 31.2864 39.3137 31.0487C39.4353 30.8109 39.6039 30.6257 39.8195 30.493C40.0407 30.3604 40.2895 30.294 40.5659 30.294C40.8534 30.294 41.1049 30.3604 41.3205 30.493C41.5362 30.6257 41.7048 30.8109 41.8264 31.0487C41.948 31.2864 42.0088 31.5683 42.0088 31.8945C42.0088 32.2207 41.948 32.5054 41.8264 32.7487C41.7048 32.9864 41.5362 33.1716 41.3205 33.3043C41.1049 33.4315 40.8534 33.4951 40.5659 33.4951ZM40.5659 32.815C40.7483 32.815 40.8948 32.7404 41.0054 32.5911C41.116 32.4363 41.1713 32.2041 41.1713 31.8945C41.1713 31.5905 41.116 31.361 41.0054 31.2062C40.8948 31.0514 40.7483 30.974 40.5659 30.974C40.389 30.974 40.2425 31.0514 40.1264 31.2062C40.0158 31.3555 39.9605 31.5849 39.9605 31.8945C39.9605 32.2041 40.0158 32.4363 40.1264 32.5911C40.2425 32.7404 40.389 32.815 40.5659 32.815Z" fill="#F8FBF6" fill-opacity="0.85"/>
<rect x="2.15857" y="1.9447" width="51.9686" height="51.9686" rx="25.9843" stroke="#2D3527" stroke-opacity="0.3" stroke-width="3.31714"/>
</svg>
