<svg width="56" height="56" viewBox="0 0 56 56" fill="none" xmlns="http://www.w3.org/2000/svg">
<path d="M28.1429 2.07963C28.1429 1.16758 28.8829 0.423081 29.7934 0.47753C34.6073 0.765433 39.2727 2.30879 43.3194 4.96698C47.8272 7.92802 51.3703 12.1431 53.5122 17.0928C55.6542 22.0425 56.3014 27.5107 55.3741 32.8237C54.4468 38.1367 51.9856 43.0624 48.2936 46.9939C44.6017 50.9255 39.8402 53.6911 34.596 54.9502C29.3517 56.2092 23.8536 55.9066 18.7792 54.0797C13.7047 52.2528 9.27554 48.9813 6.03729 44.6684C3.13025 40.7966 1.297 36.2373 0.707392 31.4509C0.595885 30.5457 1.29245 29.7604 2.2027 29.7031C3.11294 29.6458 3.8915 30.3386 4.01035 31.2428C4.55483 35.3858 6.15846 39.329 8.6785 42.6853C11.5298 46.483 15.4298 49.3635 19.898 50.9722C24.3661 52.5808 29.2072 52.8472 33.8249 51.7386C38.4426 50.63 42.6351 48.1948 45.886 44.733C49.1368 41.2712 51.304 36.934 52.1205 32.2558C52.9369 27.5777 52.3671 22.7628 50.481 18.4045C48.595 14.0462 45.4753 10.3347 41.5061 7.72749C37.9981 5.42317 33.9621 4.0703 29.7931 3.78703C28.8831 3.7252 28.1429 2.99168 28.1429 2.07963Z" fill="#F8FBF6" fill-opacity="0.85"/>
<path d="M18.3695 21.7623C19.4421 21.7623 20.3653 21.9834 21.1393 22.4257C21.9133 22.868 22.5104 23.5148 22.9306 24.3662C23.3508 25.2066 23.5608 26.257 23.5608 27.5175C23.5608 28.8554 23.3065 29.9888 22.7979 30.9176C22.3003 31.8464 21.6092 32.554 20.7247 33.0405C19.8401 33.5271 18.8118 33.7703 17.6397 33.7703C17.0316 33.7703 16.4456 33.704 15.8816 33.5713C15.3177 33.4386 14.8312 33.2396 14.4221 32.9742L15.4172 31.0005C15.7379 31.2216 16.0807 31.3764 16.4456 31.4649C16.8104 31.5423 17.1919 31.581 17.59 31.581C18.5851 31.581 19.3757 31.2769 19.9617 30.6688C20.5588 30.0606 20.8574 29.1595 20.8574 27.9653C20.8574 27.7663 20.8518 27.5451 20.8408 27.3019C20.8297 27.0586 20.8021 26.8154 20.7578 26.5721L21.4876 27.2687C21.2997 27.6999 21.0343 28.0648 20.6915 28.3634C20.3487 28.6509 19.9507 28.872 19.4973 29.0268C19.044 29.1705 18.5354 29.2424 17.9714 29.2424C17.2306 29.2424 16.5561 29.0931 15.948 28.7946C15.3509 28.4961 14.8699 28.0759 14.505 27.5341C14.1512 26.9923 13.9743 26.3565 13.9743 25.6267C13.9743 24.8306 14.1678 24.1451 14.5548 23.5701C14.9528 22.9951 15.4836 22.5528 16.147 22.2432C16.8215 21.9226 17.5623 21.7623 18.3695 21.7623ZM18.5354 23.7691C18.1484 23.7691 17.8111 23.841 17.5236 23.9847C17.2361 24.1174 17.0095 24.3165 16.8436 24.5818C16.6778 24.8361 16.5948 25.1402 16.5948 25.494C16.5948 26.0248 16.7717 26.4505 17.1256 26.7711C17.4905 27.0807 17.9714 27.2355 18.5685 27.2355C18.9555 27.2355 19.2983 27.1637 19.5969 27.0199C19.9064 26.8651 20.1442 26.655 20.31 26.3897C20.4759 26.1243 20.5588 25.8258 20.5588 25.494C20.5588 25.1623 20.4759 24.8693 20.31 24.615C20.1552 24.3496 19.9286 24.1451 19.63 24.0013C19.3315 23.8465 18.9666 23.7691 18.5354 23.7691ZM26.6589 33.5713L31.336 22.9896L32.0326 24.1506H25.7798L26.974 22.8901V26.0414H24.5857V21.9613H33.8902V23.7028L29.578 33.5713H26.6589ZM35.6005 33.5713L39.5645 27.7663H40.5513L36.5874 33.5713H35.6005ZM36.1064 30.901C35.8244 30.901 35.5756 30.8374 35.36 30.7103C35.1444 30.5776 34.973 30.3924 34.8459 30.1546C34.7242 29.9114 34.6634 29.6267 34.6634 29.3005C34.6634 28.9743 34.7242 28.6923 34.8459 28.4546C34.973 28.2169 35.1444 28.0317 35.36 27.899C35.5756 27.7663 35.8244 27.6999 36.1064 27.6999C36.3883 27.6999 36.6371 27.7663 36.8527 27.899C37.0683 28.0317 37.237 28.2169 37.3586 28.4546C37.4802 28.6923 37.541 28.9743 37.541 29.3005C37.541 29.6267 37.4802 29.9114 37.3586 30.1546C37.237 30.3924 37.0683 30.5776 36.8527 30.7103C36.6371 30.8374 36.3883 30.901 36.1064 30.901ZM36.1064 30.221C36.2888 30.221 36.4353 30.1463 36.5459 29.9971C36.6565 29.8423 36.7118 29.6101 36.7118 29.3005C36.7118 28.9909 36.6565 28.7614 36.5459 28.6122C36.4353 28.4574 36.2888 28.38 36.1064 28.38C35.9295 28.38 35.783 28.4574 35.6669 28.6122C35.5563 28.7614 35.501 28.9909 35.501 29.3005C35.501 29.6045 35.5563 29.834 35.6669 29.9888C35.783 30.1436 35.9295 30.221 36.1064 30.221ZM40.0455 33.6376C39.7691 33.6376 39.5203 33.5741 39.2991 33.4469C39.0835 33.3142 38.9149 33.129 38.7933 32.8913C38.6716 32.648 38.6108 32.3633 38.6108 32.0371C38.6108 31.7109 38.6716 31.429 38.7933 31.1912C38.9149 30.9535 39.0835 30.7683 39.2991 30.6356C39.5203 30.5029 39.7691 30.4366 40.0455 30.4366C40.333 30.4366 40.5845 30.5029 40.8001 30.6356C41.0157 30.7683 41.1844 30.9535 41.306 31.1912C41.4276 31.429 41.4884 31.7109 41.4884 32.0371C41.4884 32.3633 41.4276 32.648 41.306 32.8913C41.1844 33.129 41.0157 33.3142 40.8001 33.4469C40.5845 33.5741 40.333 33.6376 40.0455 33.6376ZM40.0455 32.9576C40.2279 32.9576 40.3744 32.883 40.485 32.7337C40.5956 32.5789 40.6509 32.3467 40.6509 32.0371C40.6509 31.733 40.5956 31.5036 40.485 31.3488C40.3744 31.194 40.2279 31.1166 40.0455 31.1166C39.8686 31.1166 39.7221 31.194 39.606 31.3488C39.4954 31.4981 39.4401 31.7275 39.4401 32.0371C39.4401 32.3467 39.4954 32.5789 39.606 32.7337C39.7221 32.883 39.8686 32.9576 40.0455 32.9576Z" fill="#F8FBF6" fill-opacity="0.85"/>
<rect x="2.15857" y="2.08679" width="51.9686" height="51.9686" rx="25.9843" stroke="#2D3527" stroke-opacity="0.3" stroke-width="3.31714"/>
</svg>
