<svg width="56" height="56" viewBox="0 0 56 56" fill="none" xmlns="http://www.w3.org/2000/svg">
<path d="M28.1429 2.2227C28.1429 1.31065 28.883 0.566146 29.7934 0.620584C35.7828 0.978709 41.5103 3.27824 46.0955 7.19435C51.1003 11.4689 54.4158 17.389 55.4454 23.8899C56.475 30.3907 55.1513 37.0456 51.7123 42.6575C48.2733 48.2695 42.9447 52.4702 36.685 54.5041C30.4253 56.538 23.6452 56.2716 17.5644 53.7528C11.4836 51.234 6.50098 46.6282 3.51289 40.7637C0.524791 34.8993 -0.272728 28.161 1.26378 21.761C2.67143 15.8977 5.95344 10.6708 10.5884 6.86066C11.293 6.28149 12.3294 6.44875 12.8655 7.18662C13.4016 7.92448 13.2338 8.95302 12.534 9.53788C8.53298 12.8816 5.69938 17.4336 4.47534 22.5321C3.12242 28.1674 3.82465 34.1005 6.45572 39.2643C9.08679 44.4281 13.474 48.4836 18.8283 50.7014C24.1826 52.9192 30.1525 53.1538 35.6643 51.3629C41.1761 49.572 45.868 45.8732 48.8961 40.9318C51.9243 35.9904 53.0898 30.1306 52.1832 24.4065C51.2766 18.6824 48.3573 13.4697 43.9505 9.70583C39.9634 6.30055 34.9954 4.28348 29.7931 3.93008C28.8831 3.86827 28.1429 3.13474 28.1429 2.2227Z" fill="#F8FBF6" fill-opacity="0.85"/>
<path d="M17.8695 21.9053C18.9421 21.9053 19.8653 22.1265 20.6393 22.5688C21.4133 23.011 22.0104 23.6579 22.4306 24.5093C22.8508 25.3496 23.0608 26.4001 23.0608 27.6606C23.0608 28.9985 22.8065 30.1318 22.2979 31.0606C21.8003 31.9894 21.1092 32.6971 20.2247 33.1836C19.3401 33.6701 18.3118 33.9134 17.1397 33.9134C16.5316 33.9134 15.9456 33.847 15.3816 33.7144C14.8177 33.5817 14.3312 33.3826 13.9221 33.1173L14.9172 31.1436C15.2379 31.3647 15.5807 31.5195 15.9456 31.608C16.3104 31.6854 16.6919 31.7241 17.09 31.7241C18.0851 31.7241 18.8757 31.42 19.4617 30.8119C20.0588 30.2037 20.3574 29.3026 20.3574 28.1084C20.3574 27.9094 20.3518 27.6882 20.3408 27.445C20.3297 27.2017 20.3021 26.9584 20.2578 26.7152L20.9876 27.4118C20.7997 27.843 20.5343 28.2079 20.1915 28.5064C19.8487 28.7939 19.4507 29.0151 18.9973 29.1699C18.544 29.3136 18.0354 29.3855 17.4714 29.3855C16.7306 29.3855 16.0561 29.2362 15.448 28.9377C14.8509 28.6391 14.3699 28.219 14.005 27.6772C13.6512 27.1354 13.4743 26.4996 13.4743 25.7698C13.4743 24.9737 13.6678 24.2881 14.0548 23.7132C14.4528 23.1382 14.9836 22.6959 15.647 22.3863C16.3215 22.0657 17.0623 21.9053 17.8695 21.9053ZM18.0354 23.9122C17.6484 23.9122 17.3111 23.9841 17.0236 24.1278C16.7361 24.2605 16.5095 24.4595 16.3436 24.7249C16.1778 24.9792 16.0948 25.2833 16.0948 25.6371C16.0948 26.1679 16.2717 26.5936 16.6256 26.9142C16.9905 27.2238 17.4714 27.3786 18.0685 27.3786C18.4555 27.3786 18.7983 27.3067 19.0969 27.163C19.4064 27.0082 19.6442 26.7981 19.81 26.5327C19.9759 26.2674 20.0588 25.9688 20.0588 25.6371C20.0588 25.3054 19.9759 25.0124 19.81 24.7581C19.6552 24.4927 19.4286 24.2881 19.13 24.1444C18.8315 23.9896 18.4666 23.9122 18.0354 23.9122ZM29.3256 33.9134C28.3747 33.9134 27.5233 33.6812 26.7714 33.2168C26.0195 32.7413 25.4279 32.0558 24.9967 31.1602C24.5655 30.2645 24.3499 29.1809 24.3499 27.9094C24.3499 26.6378 24.5655 25.5542 24.9967 24.6586C25.4279 23.7629 26.0195 23.0829 26.7714 22.6185C27.5233 22.1431 28.3747 21.9053 29.3256 21.9053C30.2875 21.9053 31.1389 22.1431 31.8798 22.6185C32.6317 23.0829 33.2232 23.7629 33.6544 24.6586C34.0857 25.5542 34.3013 26.6378 34.3013 27.9094C34.3013 29.1809 34.0857 30.2645 33.6544 31.1602C33.2232 32.0558 32.6317 32.7413 31.8798 33.2168C31.1389 33.6812 30.2875 33.9134 29.3256 33.9134ZM29.3256 31.6411C29.7789 31.6411 30.1714 31.514 30.5032 31.2597C30.8459 31.0054 31.1113 30.6018 31.2993 30.0489C31.4983 29.4961 31.5978 28.7829 31.5978 27.9094C31.5978 27.0358 31.4983 26.3227 31.2993 25.7698C31.1113 25.2169 30.8459 24.8134 30.5032 24.559C30.1714 24.3047 29.7789 24.1776 29.3256 24.1776C28.8833 24.1776 28.4908 24.3047 28.148 24.559C27.8163 24.8134 27.5509 25.2169 27.3519 25.7698C27.1639 26.3227 27.0699 27.0358 27.0699 27.9094C27.0699 28.7829 27.1639 29.4961 27.3519 30.0489C27.5509 30.6018 27.8163 31.0054 28.148 31.2597C28.4908 31.514 28.8833 31.6411 29.3256 31.6411ZM36.1209 33.7144L40.0849 27.9094H41.0718L37.1078 33.7144H36.1209ZM36.6268 31.0441C36.3448 31.0441 36.096 30.9805 35.8804 30.8533C35.6648 30.7206 35.4934 30.5354 35.3663 30.2977C35.2446 30.0544 35.1838 29.7697 35.1838 29.4435C35.1838 29.1173 35.2446 28.8354 35.3663 28.5977C35.4934 28.3599 35.6648 28.1747 35.8804 28.042C36.096 27.9094 36.3448 27.843 36.6268 27.843C36.9087 27.843 37.1575 27.9094 37.3731 28.042C37.5888 28.1747 37.7574 28.3599 37.879 28.5977C38.0006 28.8354 38.0614 29.1173 38.0614 29.4435C38.0614 29.7697 38.0006 30.0544 37.879 30.2977C37.7574 30.5354 37.5888 30.7206 37.3731 30.8533C37.1575 30.9805 36.9087 31.0441 36.6268 31.0441ZM36.6268 30.364C36.8092 30.364 36.9557 30.2894 37.0663 30.1401C37.1769 29.9853 37.2322 29.7531 37.2322 29.4435C37.2322 29.1339 37.1769 28.9045 37.0663 28.7552C36.9557 28.6004 36.8092 28.523 36.6268 28.523C36.4499 28.523 36.3034 28.6004 36.1873 28.7552C36.0767 28.9045 36.0214 29.1339 36.0214 29.4435C36.0214 29.7476 36.0767 29.977 36.1873 30.1318C36.3034 30.2866 36.4499 30.364 36.6268 30.364ZM40.5659 33.7807C40.2895 33.7807 40.0407 33.7171 39.8195 33.59C39.6039 33.4573 39.4353 33.2721 39.3137 33.0343C39.192 32.7911 39.1312 32.5064 39.1312 32.1802C39.1312 31.854 39.192 31.572 39.3137 31.3343C39.4353 31.0966 39.6039 30.9114 39.8195 30.7787C40.0407 30.646 40.2895 30.5797 40.5659 30.5797C40.8534 30.5797 41.1049 30.646 41.3205 30.7787C41.5362 30.9114 41.7048 31.0966 41.8264 31.3343C41.948 31.572 42.0088 31.854 42.0088 32.1802C42.0088 32.5064 41.948 32.7911 41.8264 33.0343C41.7048 33.2721 41.5362 33.4573 41.3205 33.59C41.1049 33.7171 40.8534 33.7807 40.5659 33.7807ZM40.5659 33.1007C40.7483 33.1007 40.8948 33.026 41.0054 32.8768C41.116 32.722 41.1713 32.4898 41.1713 32.1802C41.1713 31.8761 41.116 31.6467 41.0054 31.4919C40.8948 31.3371 40.7483 31.2597 40.5659 31.2597C40.389 31.2597 40.2425 31.3371 40.1264 31.4919C40.0158 31.6411 39.9605 31.8706 39.9605 32.1802C39.9605 32.4898 40.0158 32.722 40.1264 32.8768C40.2425 33.026 40.389 33.1007 40.5659 33.1007Z" fill="#F8FBF6" fill-opacity="0.85"/>
<rect x="2.15857" y="2.22986" width="51.9686" height="51.9686" rx="25.9843" stroke="#2D3527" stroke-opacity="0.3" stroke-width="3.31714"/>
</svg>
