<svg width="56" height="57" viewBox="0 0 56 57" fill="none" xmlns="http://www.w3.org/2000/svg">
<path d="M28.1429 2.50834C28.1429 1.59629 28.8829 0.851792 29.7934 0.906243C34.3148 1.17667 38.7098 2.55489 42.5862 4.93038C46.9329 7.59406 50.4584 11.4079 52.7728 15.9502C55.0872 20.4925 56.1005 25.5864 55.7005 30.6686C55.3005 35.7509 53.5029 40.6235 50.5064 44.7479C47.5099 48.8722 43.4312 52.0876 38.7213 54.0385C34.0114 55.9894 28.8538 56.5998 23.8186 55.8023C18.7834 55.0048 14.0668 52.8304 10.1903 49.5196C6.73315 46.5669 4.06427 42.813 2.40987 38.5964C2.07675 37.7474 2.55611 36.8134 3.42352 36.5316C4.29093 36.2498 5.2173 36.7271 5.55729 37.5734C7.01892 41.2117 9.34142 44.4511 12.3353 47.0081C15.7486 49.9234 19.9017 51.838 24.3352 52.5402C28.7688 53.2424 33.3102 52.7049 37.4574 50.9871C41.6045 49.2692 45.1959 46.4381 47.8344 42.8065C50.4728 39.175 52.0557 34.8845 52.4079 30.4095C52.7601 25.9345 51.8679 21.4492 49.83 17.4496C47.7921 13.4501 44.6879 10.0919 40.8605 7.74649C37.5035 5.68933 33.7049 4.48155 29.793 4.21574C28.8831 4.15392 28.1429 3.42039 28.1429 2.50834Z" fill="#F8FBF6" fill-opacity="0.85"/>
<path d="M28.1429 2.50834C28.1429 1.59629 28.8829 0.851792 29.7933 0.906244C33.5857 1.13307 37.2969 2.13969 40.6925 3.86982C44.5793 5.85028 47.9423 8.72253 50.5064 12.2517C53.0705 15.7809 54.763 19.8669 55.4454 24.1755C56.1278 28.4841 55.7808 32.8931 54.4328 37.0419C53.0847 41.1907 50.7739 44.9616 47.6893 48.0462C44.6047 51.1309 40.8338 53.4417 36.685 54.7897C32.5362 56.1377 28.1272 56.4847 23.8186 55.8023C20.0545 55.2062 16.4604 53.8391 13.259 51.7936C12.4905 51.3025 12.3294 50.2652 12.8655 49.5273C13.4016 48.7895 14.4316 48.6311 15.2041 49.116C17.9808 50.8586 21.0861 52.0256 24.3352 52.5402C28.1291 53.141 32.0112 52.8355 35.6643 51.6485C39.3175 50.4616 42.6378 48.4269 45.3539 45.7108C48.0699 42.9947 50.1046 39.6744 51.2916 36.0213C52.4786 32.3682 52.7841 28.486 52.1832 24.6922C51.5823 20.8983 50.0921 17.3006 47.8344 14.1931C45.5766 11.0855 42.6155 8.55648 39.193 6.81265C36.2619 5.3192 33.0638 4.438 29.793 4.21575C28.8831 4.15392 28.1429 3.42039 28.1429 2.50834Z" fill="#6F756B"/>
<path d="M12.3367 32.643C11.5741 32.643 10.9108 32.4841 10.3469 32.1664C9.79082 31.8486 9.36188 31.384 9.06004 30.7723C8.75819 30.1607 8.60726 29.4061 8.60726 28.5085C8.60726 27.5473 8.78599 26.7331 9.14344 26.0659C9.50883 25.3986 10.0093 24.8903 10.6447 24.5408C11.2881 24.1913 12.0269 24.0165 12.8609 24.0165C13.3058 24.0165 13.7307 24.0642 14.1358 24.1595C14.5409 24.2548 14.8905 24.3978 15.1844 24.5884L14.4695 26.0063C14.2391 25.8474 13.9929 25.7402 13.7307 25.6846C13.4686 25.6211 13.1945 25.5893 12.9086 25.5893C12.1857 25.5893 11.6138 25.8077 11.1928 26.2446C10.7718 26.6815 10.5613 27.3289 10.5613 28.1868C10.5613 28.3297 10.5613 28.4886 10.5613 28.6634C10.5693 28.8381 10.5931 29.0129 10.6328 29.1876L10.0966 28.6872C10.2476 28.3774 10.4422 28.1192 10.6805 27.9127C10.9188 27.6982 11.2008 27.5394 11.5264 27.4361C11.8601 27.3249 12.2255 27.2693 12.6226 27.2693C13.1628 27.2693 13.6473 27.3765 14.0763 27.591C14.5052 27.8055 14.8468 28.1073 15.101 28.4966C15.3631 28.8858 15.4941 29.3425 15.4941 29.8668C15.4941 30.4308 15.3512 30.9232 15.0652 31.3442C14.7872 31.7573 14.4099 32.079 13.9333 32.3094C13.4646 32.5318 12.9324 32.643 12.3367 32.643ZM12.2294 31.2013C12.4995 31.2013 12.7378 31.1536 12.9443 31.0583C13.1588 30.955 13.3256 30.8081 13.4448 30.6174C13.5639 30.4268 13.6235 30.2083 13.6235 29.9621C13.6235 29.5808 13.4924 29.279 13.2303 29.0566C12.9761 28.8262 12.6345 28.711 12.2056 28.711C11.9196 28.711 11.6694 28.7666 11.455 28.8778C11.2405 28.9811 11.0697 29.128 10.9426 29.3187C10.8235 29.5014 10.7639 29.7159 10.7639 29.9621C10.7639 30.2004 10.8235 30.4149 10.9426 30.6055C11.0618 30.7882 11.2286 30.9352 11.443 31.0464C11.6575 31.1496 11.9196 31.2013 12.2294 31.2013ZM19.9232 32.643C19.1606 32.643 18.4974 32.4841 17.9334 32.1664C17.3773 31.8486 16.9484 31.384 16.6466 30.7723C16.3447 30.1607 16.1938 29.4061 16.1938 28.5085C16.1938 27.5473 16.3725 26.7331 16.73 26.0659C17.0954 25.3986 17.5958 24.8903 18.2313 24.5408C18.8747 24.1913 19.6134 24.0165 20.4474 24.0165C20.8923 24.0165 21.3172 24.0642 21.7224 24.1595C22.1275 24.2548 22.477 24.3978 22.7709 24.5884L22.056 26.0063C21.8256 25.8474 21.5794 25.7402 21.3172 25.6846C21.0551 25.6211 20.7811 25.5893 20.4951 25.5893C19.7723 25.5893 19.2003 25.8077 18.7793 26.2446C18.3583 26.6815 18.1478 27.3289 18.1478 28.1868C18.1478 28.3297 18.1478 28.4886 18.1478 28.6634C18.1558 28.8381 18.1796 29.0129 18.2193 29.1876L17.6832 28.6872C17.8341 28.3774 18.0287 28.1192 18.267 27.9127C18.5053 27.6982 18.7873 27.5394 19.113 27.4361C19.4466 27.3249 19.812 27.2693 20.2091 27.2693C20.7493 27.2693 21.2338 27.3765 21.6628 27.591C22.0917 27.8055 22.4333 28.1073 22.6875 28.4966C22.9496 28.8858 23.0807 29.3425 23.0807 29.8668C23.0807 30.4308 22.9377 30.9232 22.6517 31.3442C22.3737 31.7573 21.9964 32.079 21.5198 32.3094C21.0511 32.5318 20.5189 32.643 19.9232 32.643ZM19.816 31.2013C20.086 31.2013 20.3243 31.1536 20.5309 31.0583C20.7453 30.955 20.9121 30.8081 21.0313 30.6174C21.1504 30.4268 21.21 30.2083 21.21 29.9621C21.21 29.5808 21.0789 29.279 20.8168 29.0566C20.5626 28.8262 20.2211 28.711 19.7921 28.711C19.5062 28.711 19.2559 28.7666 19.0415 28.8778C18.827 28.9811 18.6562 29.128 18.5291 29.3187C18.41 29.5014 18.3504 29.7159 18.3504 29.9621C18.3504 30.2004 18.41 30.4149 18.5291 30.6055C18.6483 30.7882 18.8151 30.9352 19.0296 31.0464C19.244 31.1496 19.5062 31.2013 19.816 31.2013ZM23.9934 29.8906V28.4012H27.3653V29.8906H23.9934ZM29.6527 32.5L33.0128 24.8982L33.5132 25.7323H29.0212L29.8791 24.8267V27.0906H28.1634V24.1595H34.8477V25.4106L31.7498 32.5H29.6527ZM34.832 30.7485V29.4498L38.764 24.1595H40.7896L36.941 29.4498L35.9997 29.1757H42.5649V30.7485H34.832ZM39.324 32.5V30.7485L39.3836 29.1757V27.6148H41.2066V32.5H39.324ZM43.5051 32.5L46.3307 28.3621H47.0342L44.2086 32.5H43.5051ZM43.8657 30.5966C43.6647 30.5966 43.4874 30.5512 43.3337 30.4606C43.18 30.366 43.0578 30.234 42.9672 30.0645C42.8805 29.8911 42.8371 29.6882 42.8371 29.4557C42.8371 29.2232 42.8805 29.0222 42.9672 28.8527C43.0578 28.6833 43.18 28.5512 43.3337 28.4567C43.4874 28.3621 43.6647 28.3148 43.8657 28.3148C44.0667 28.3148 44.244 28.3621 44.3977 28.4567C44.5514 28.5512 44.6716 28.6833 44.7583 28.8527C44.845 29.0222 44.8884 29.2232 44.8884 29.4557C44.8884 29.6882 44.845 29.8911 44.7583 30.0645C44.6716 30.234 44.5514 30.366 44.3977 30.4606C44.244 30.5512 44.0667 30.5966 43.8657 30.5966ZM43.8657 30.1118C43.9958 30.1118 44.1002 30.0586 44.179 29.9522C44.2578 29.8419 44.2972 29.6764 44.2972 29.4557C44.2972 29.235 44.2578 29.0714 44.179 28.965C44.1002 28.8547 43.9958 28.7995 43.8657 28.7995C43.7396 28.7995 43.6352 28.8547 43.5524 28.965C43.4736 29.0714 43.4342 29.235 43.4342 29.4557C43.4342 29.6724 43.4736 29.836 43.5524 29.9463C43.6352 30.0567 43.7396 30.1118 43.8657 30.1118ZM46.6736 32.5473C46.4765 32.5473 46.2992 32.502 46.1416 32.4113C45.9879 32.3167 45.8677 32.1847 45.781 32.0153C45.6943 31.8419 45.6509 31.6389 45.6509 31.4064C45.6509 31.1739 45.6943 30.9729 45.781 30.8034C45.8677 30.634 45.9879 30.502 46.1416 30.4074C46.2992 30.3128 46.4765 30.2655 46.6736 30.2655C46.8785 30.2655 47.0578 30.3128 47.2115 30.4074C47.3652 30.502 47.4854 30.634 47.5721 30.8034C47.6588 30.9729 47.7022 31.1739 47.7022 31.4064C47.7022 31.6389 47.6588 31.8419 47.5721 32.0153C47.4854 32.1847 47.3652 32.3167 47.2115 32.4113C47.0578 32.502 46.8785 32.5473 46.6736 32.5473ZM46.6736 32.0626C46.8036 32.0626 46.9081 32.0094 46.9869 31.903C47.0657 31.7926 47.1051 31.6271 47.1051 31.4064C47.1051 31.1897 47.0657 31.0261 46.9869 30.9158C46.9081 30.8054 46.8036 30.7502 46.6736 30.7502C46.5475 30.7502 46.443 30.8054 46.3603 30.9158C46.2815 31.0222 46.2421 31.1857 46.2421 31.4064C46.2421 31.6271 46.2815 31.7926 46.3603 31.903C46.443 32.0094 46.5475 32.0626 46.6736 32.0626Z" fill="#F8FBF6" fill-opacity="0.85"/>
<rect x="2.15857" y="2.51551" width="51.9686" height="51.9686" rx="25.9843" stroke="#2D3527" stroke-opacity="0.3" stroke-width="3.31714"/>
</svg>
