<svg width="56" height="56" viewBox="0 0 56 56" fill="none" xmlns="http://www.w3.org/2000/svg">
<path d="M28.1429 1.65141C28.1429 0.739361 28.8829 -0.00514123 29.7934 0.0493103C34.1688 0.311001 38.4278 1.61021 42.2142 3.84949C46.4753 6.36951 49.9815 9.98762 52.3665 14.3258C54.7514 18.664 55.9276 23.563 55.7721 28.5111C55.6166 33.4592 54.1351 38.2748 51.4825 42.4546C48.8299 46.6345 45.1034 50.0253 40.6925 52.2728C36.2815 54.5203 31.3479 55.542 26.4072 55.2312C21.4664 54.9203 16.6998 53.2883 12.6053 50.5057C8.96694 48.0331 5.97797 44.7326 3.87822 40.885C3.44131 40.0844 3.79985 39.0978 4.62509 38.7095V38.7095C5.45034 38.3211 6.42922 38.6786 6.87261 39.4756C8.71614 42.7895 11.3127 45.634 14.4617 47.774C18.067 50.2242 22.2641 51.6612 26.6145 51.9349C30.965 52.2086 35.3091 51.309 39.193 49.33C43.0769 47.351 46.3581 44.3654 48.6938 40.6849C51.0295 37.0044 52.334 32.7643 52.4709 28.4074C52.6078 24.0505 51.5722 19.7368 49.4722 15.917C47.3722 12.0971 44.2849 8.91129 40.5329 6.69236C37.2558 4.75424 33.5765 3.61589 29.793 3.35881C28.8831 3.29698 28.1429 2.56346 28.1429 1.65141V1.65141Z" fill="#F8FBF6" fill-opacity="0.85"/>
<path d="M19.4808 33.3416C18.4193 33.3416 17.496 33.1205 16.7109 32.6782C15.9369 32.2359 15.3398 31.589 14.9197 30.7376C14.4995 29.8862 14.2894 28.8358 14.2894 27.5864C14.2894 26.2484 14.5382 25.1151 15.0358 24.1863C15.5444 23.2575 16.241 22.5498 17.1256 22.0633C18.0212 21.5768 19.0495 21.3335 20.2105 21.3335C20.8297 21.3335 21.4213 21.3999 21.9852 21.5326C22.5491 21.6653 23.0356 21.8643 23.4447 22.1297L22.4496 24.1034C22.1289 23.8822 21.7862 23.7329 21.4213 23.6555C21.0564 23.5671 20.6749 23.5229 20.2769 23.5229C19.2707 23.5229 18.4745 23.8269 17.8885 24.4351C17.3025 25.0432 17.0095 25.9444 17.0095 27.1385C17.0095 27.3376 17.0095 27.5587 17.0095 27.802C17.0205 28.0452 17.0537 28.2885 17.109 28.5317L16.3626 27.8351C16.5727 27.4039 16.8436 27.0446 17.1753 26.7571C17.507 26.4585 17.8996 26.2374 18.3529 26.0936C18.8173 25.9388 19.3259 25.8614 19.8788 25.8614C20.6307 25.8614 21.3052 26.0107 21.9023 26.3093C22.4994 26.6078 22.9748 27.028 23.3286 27.5698C23.6935 28.1116 23.876 28.7474 23.876 29.4771C23.876 30.2622 23.6769 30.9477 23.2789 31.5338C22.8919 32.1087 22.3667 32.5565 21.7032 32.8772C21.0509 33.1868 20.31 33.3416 19.4808 33.3416ZM19.3315 31.3347C19.7074 31.3347 20.0391 31.2684 20.3266 31.1357C20.6252 30.992 20.8574 30.7874 21.0232 30.522C21.1891 30.2567 21.272 29.9526 21.272 29.6098C21.272 29.0791 21.0896 28.6589 20.7247 28.3493C20.3708 28.0286 19.8954 27.8683 19.2983 27.8683C18.9002 27.8683 18.5519 27.9457 18.2534 28.1005C17.9549 28.2443 17.7171 28.4488 17.5402 28.7142C17.3744 28.9685 17.2914 29.267 17.2914 29.6098C17.2914 29.9415 17.3744 30.2401 17.5402 30.5054C17.7061 30.7598 17.9383 30.9643 18.2368 31.1191C18.5354 31.2629 18.9002 31.3347 19.3315 31.3347ZM29.6597 33.3416C28.6867 33.3416 27.8353 33.1979 27.1055 32.9104C26.3757 32.6118 25.8063 32.1972 25.3972 31.6664C24.9881 31.1246 24.7835 30.4944 24.7835 29.7757C24.7835 29.057 24.9825 28.4488 25.3806 27.9512C25.7897 27.4426 26.3592 27.0611 27.0889 26.8068C27.8187 26.5415 28.6756 26.4088 29.6597 26.4088C30.6549 26.4088 31.5173 26.5415 32.2471 26.8068C32.9879 27.0611 33.5574 27.4426 33.9554 27.9512C34.3645 28.4488 34.5691 29.057 34.5691 29.7757C34.5691 30.4944 34.3645 31.1246 33.9554 31.6664C33.5463 32.1972 32.9713 32.6118 32.2305 32.9104C31.5007 33.1979 30.6438 33.3416 29.6597 33.3416ZM29.6597 31.3679C30.3342 31.3679 30.8649 31.2186 31.2519 30.9201C31.65 30.6215 31.849 30.2124 31.849 29.6927C31.849 29.1731 31.65 28.7695 31.2519 28.482C30.8649 28.1834 30.3342 28.0342 29.6597 28.0342C28.9963 28.0342 28.4711 28.1834 28.0841 28.482C27.6971 28.7695 27.5036 29.1731 27.5036 29.6927C27.5036 30.2124 27.6971 30.6215 28.0841 30.9201C28.4711 31.2186 28.9963 31.3679 29.6597 31.3679ZM29.6597 27.7688C28.7641 27.7688 27.979 27.6472 27.3045 27.4039C26.6411 27.1607 26.1214 26.8068 25.7455 26.3424C25.3806 25.867 25.1982 25.3031 25.1982 24.6507C25.1982 23.9651 25.3861 23.3791 25.7621 22.8926C26.138 22.395 26.6632 22.0136 27.3377 21.7482C28.0122 21.4718 28.7862 21.3335 29.6597 21.3335C30.5553 21.3335 31.3349 21.4718 31.9983 21.7482C32.6728 22.0136 33.198 22.395 33.5739 22.8926C33.9609 23.3791 34.1544 23.9651 34.1544 24.6507C34.1544 25.3031 33.9665 25.867 33.5905 26.3424C33.2256 26.8068 32.706 27.1607 32.0315 27.4039C31.357 27.6472 30.5664 27.7688 29.6597 27.7688ZM29.6597 26.1932C30.2236 26.1932 30.6659 26.066 30.9866 25.8117C31.3183 25.5574 31.4841 25.2091 31.4841 24.7668C31.4841 24.3024 31.3128 23.943 30.97 23.6887C30.6383 23.4344 30.2015 23.3072 29.6597 23.3072C29.129 23.3072 28.6977 23.4344 28.366 23.6887C28.0343 23.943 27.8685 24.3024 27.8685 24.7668C27.8685 25.2091 28.0288 25.5574 28.3494 25.8117C28.6701 26.066 29.1069 26.1932 29.6597 26.1932ZM36.3132 33.1426L40.2772 27.3376H41.264L37.3 33.1426H36.3132ZM36.819 30.4723C36.5371 30.4723 36.2883 30.4087 36.0727 30.2815C35.8571 30.1489 35.6857 29.9636 35.5585 29.7259C35.4369 29.4827 35.3761 29.1979 35.3761 28.8718C35.3761 28.5456 35.4369 28.2636 35.5585 28.0259C35.6857 27.7882 35.8571 27.6029 36.0727 27.4703C36.2883 27.3376 36.5371 27.2712 36.819 27.2712C37.101 27.2712 37.3498 27.3376 37.5654 27.4703C37.781 27.6029 37.9496 27.7882 38.0713 28.0259C38.1929 28.2636 38.2537 28.5456 38.2537 28.8718C38.2537 29.1979 38.1929 29.4827 38.0713 29.7259C37.9496 29.9636 37.781 30.1489 37.5654 30.2815C37.3498 30.4087 37.101 30.4723 36.819 30.4723ZM36.819 29.7923C37.0015 29.7923 37.148 29.7176 37.2586 29.5684C37.3691 29.4136 37.4244 29.1814 37.4244 28.8718C37.4244 28.5622 37.3691 28.3327 37.2586 28.1834C37.148 28.0286 37.0015 27.9512 36.819 27.9512C36.6421 27.9512 36.4956 28.0286 36.3795 28.1834C36.2689 28.3327 36.2137 28.5622 36.2137 28.8718C36.2137 29.1758 36.2689 29.4053 36.3795 29.5601C36.4956 29.7149 36.6421 29.7923 36.819 29.7923ZM40.7581 33.2089C40.4817 33.2089 40.2329 33.1453 40.0118 33.0182C39.7962 32.8855 39.6276 32.7003 39.5059 32.4626C39.3843 32.2193 39.3235 31.9346 39.3235 31.6084C39.3235 31.2822 39.3843 31.0003 39.5059 30.7625C39.6276 30.5248 39.7962 30.3396 40.0118 30.2069C40.2329 30.0742 40.4817 30.0079 40.7581 30.0079C41.0456 30.0079 41.2972 30.0742 41.5128 30.2069C41.7284 30.3396 41.897 30.5248 42.0187 30.7625C42.1403 31.0003 42.2011 31.2822 42.2011 31.6084C42.2011 31.9346 42.1403 32.2193 42.0187 32.4626C41.897 32.7003 41.7284 32.8855 41.5128 33.0182C41.2972 33.1453 41.0456 33.2089 40.7581 33.2089ZM40.7581 32.5289C40.9406 32.5289 41.0871 32.4543 41.1977 32.305C41.3082 32.1502 41.3635 31.918 41.3635 31.6084C41.3635 31.3043 41.3082 31.0749 41.1977 30.9201C41.0871 30.7653 40.9406 30.6879 40.7581 30.6879C40.5812 30.6879 40.4347 30.7653 40.3186 30.9201C40.2081 31.0694 40.1528 31.2988 40.1528 31.6084C40.1528 31.918 40.2081 32.1502 40.3186 32.305C40.4347 32.4543 40.5812 32.5289 40.7581 32.5289Z" fill="#F8FBF6" fill-opacity="0.85"/>
<rect x="2.15857" y="1.65857" width="51.9686" height="51.9686" rx="25.9843" stroke="#2D3527" stroke-opacity="0.3" stroke-width="3.31714"/>
</svg>
