<svg width="490" height="266" viewBox="0 0 490 266" fill="none" xmlns="http://www.w3.org/2000/svg">
<rect width="489.395" height="265.757" rx="20" fill="#44484D"/>
<rect width="489.395" height="265.757" rx="20.0572" fill="#44484D"/>
<path d="M38.8993 71.249L45.1366 61.5345L45.6385 62.1797C45.2083 62.4187 44.7423 62.598 44.2405 62.7174C43.7386 62.8369 43.2487 62.8967 42.7707 62.8967C41.1696 62.8967 39.7357 62.5263 38.4691 61.7854C37.2025 61.0446 36.1988 60.0409 35.4579 58.7743C34.7171 57.5077 34.3467 56.0977 34.3467 54.5443C34.3467 52.8715 34.753 51.3898 35.5655 50.0993C36.378 48.8088 37.4654 47.7932 38.8276 47.0523C40.1897 46.3115 41.6834 45.9411 43.3084 45.9411C44.9574 45.9411 46.463 46.3115 47.8252 47.0523C49.1873 47.7932 50.2747 48.8088 51.0872 50.0993C51.9237 51.3659 52.3419 52.8356 52.3419 54.5085C52.3419 55.321 52.2104 56.1216 51.9476 56.9102C51.7086 57.6989 51.374 58.4517 50.9438 59.1686L43.4877 71.249H38.8993ZM43.3084 59.3837C44.2166 59.3837 45.041 59.1805 45.7819 58.7743C46.5227 58.368 47.1202 57.8064 47.5742 57.0895C48.0283 56.3486 48.2553 55.5003 48.2553 54.5443C48.2553 53.5645 48.0283 52.7161 47.5742 51.9992C47.1441 51.2823 46.5466 50.7207 45.7819 50.3144C45.041 49.9081 44.2166 49.705 43.3084 49.705C42.4003 49.705 41.5758 49.9081 40.835 50.3144C40.0942 50.7207 39.4967 51.2942 39.0426 52.035C38.5886 52.752 38.3616 53.5884 38.3616 54.5443C38.3616 55.5003 38.5766 56.3486 39.0068 57.0895C39.4609 57.8064 40.0583 58.368 40.7991 58.7743C41.5639 59.1805 42.4003 59.3837 43.3084 59.3837ZM56.664 71.249L68.4218 48.4503L69.533 49.9559H54.3697V46.2637H72.3649V49.2031L61.109 71.249H56.664ZM43.2367 179.572C41.7073 179.572 40.2973 179.249 39.0068 178.604C37.7402 177.935 36.6887 177.038 35.8523 175.915C35.0397 174.792 34.5259 173.525 34.3108 172.115L38.2182 171.434C38.3138 172.151 38.5647 172.856 38.971 173.549C39.3772 174.218 39.9388 174.756 40.6558 175.162C41.3727 175.569 42.2211 175.772 43.2009 175.772C44.3002 175.772 45.2083 175.521 45.9253 175.019C46.6422 174.517 47.1799 173.872 47.5384 173.083C47.8968 172.271 48.0761 171.434 48.0761 170.574C48.0761 169.738 47.8968 168.961 47.5384 168.244C47.2038 167.527 46.69 166.954 45.997 166.523C45.3039 166.093 44.4077 165.878 43.3084 165.878C42.3047 165.878 41.4324 166.105 40.6916 166.559C39.9508 167.013 39.3294 167.599 38.8276 168.316L35.0636 167.348L37.4654 154.264H51.1589V157.956H38.9351L41.0501 156.307L39.4011 165.089L38.1823 164.803C39.1143 163.727 40.0703 163.022 41.0501 162.688C42.0538 162.329 42.9978 162.15 43.882 162.15C45.5309 162.15 46.9887 162.532 48.2553 163.297C49.5219 164.062 50.5017 165.089 51.1948 166.38C51.9117 167.67 52.2702 169.068 52.2702 170.574C52.2702 171.769 52.0551 172.904 51.6249 173.98C51.1948 175.055 50.5734 176.023 49.7609 176.883C48.9484 177.72 47.9805 178.377 46.8573 178.855C45.758 179.333 44.5511 179.572 43.2367 179.572ZM63.3315 179.249V159.354L64.5144 161.361H56.879V158.171H60.8939C61.7064 158.171 62.3158 158.004 62.7221 157.669C63.1284 157.335 63.3315 156.737 63.3315 155.877V154.264H67.3105V179.249H63.3315ZM75.5399 179.249V174.732H79.9132V179.249H75.5399ZM85.3345 179.249L97.0923 156.45L98.2036 157.956H83.0403V154.264H101.036V157.203L89.7796 179.249H85.3345Z" fill="#B1EF62"/>
<path d="M75.3123 71.249L83.2931 58.7206H84.731L76.7503 71.249H75.3123ZM83.2032 71.4108C82.6879 71.4108 82.2206 71.291 81.8012 71.0513C81.3937 70.8116 81.0642 70.4761 80.8125 70.0447C80.5729 69.6013 80.453 69.0861 80.453 68.4989C80.453 67.9237 80.5729 67.4204 80.8125 66.989C81.0522 66.5456 81.3758 66.2041 81.7832 65.9645C82.2026 65.7248 82.6639 65.605 83.1672 65.605C83.6825 65.605 84.1439 65.7368 84.5513 66.0004C84.9707 66.2521 85.3002 66.5996 85.5399 67.0429C85.7915 67.4743 85.9174 67.9597 85.9174 68.4989C85.9174 69.0381 85.7975 69.5294 85.5579 69.9728C85.3182 70.4042 84.9947 70.7517 84.5872 71.0154C84.1798 71.279 83.7185 71.4108 83.2032 71.4108ZM83.2032 70.0627C83.4668 70.0627 83.7005 69.9968 83.9042 69.865C84.1079 69.7212 84.2697 69.5354 84.3895 69.3078C84.5093 69.0681 84.5693 68.7985 84.5693 68.4989C84.5693 68.1873 84.5034 67.9177 84.3715 67.69C84.2517 67.4624 84.0839 67.2826 83.8682 67.1508C83.6645 67.019 83.4309 66.9531 83.1672 66.9531C82.9276 66.9531 82.6999 67.019 82.4842 67.1508C82.2805 67.2706 82.1127 67.4444 81.9809 67.6721C81.8611 67.8997 81.8012 68.1753 81.8012 68.4989C81.8012 68.8344 81.8671 69.122 81.9989 69.3617C82.1307 69.5894 82.3044 69.7631 82.5201 69.8829C82.7358 70.0028 82.9635 70.0627 83.2032 70.0627ZM76.9839 64.3467C76.4806 64.3467 76.0193 64.2269 75.5999 63.9872C75.1805 63.7476 74.8449 63.412 74.5933 62.9807C74.3536 62.5373 74.2338 62.034 74.2338 61.4708C74.2338 60.8716 74.3536 60.3563 74.5933 59.925C74.8449 59.4936 75.1745 59.158 75.5819 58.9184C75.9893 58.6787 76.4447 58.5589 76.948 58.5589C77.4633 58.5589 77.9246 58.6907 78.332 58.9543C78.7514 59.206 79.081 59.5535 79.3206 59.9969C79.5603 60.4282 79.6801 60.9196 79.6801 61.4708C79.6801 61.9861 79.5603 62.4654 79.3206 62.9088C79.093 63.3521 78.7754 63.7056 78.368 63.9693C77.9606 64.2209 77.4992 64.3467 76.9839 64.3467ZM76.9839 62.9986C77.2356 62.9986 77.4633 62.9327 77.667 62.8009C77.8707 62.6571 78.0325 62.4714 78.1523 62.2437C78.2721 62.016 78.332 61.7584 78.332 61.4708C78.332 61.1472 78.2661 60.8716 78.1343 60.6439C78.0145 60.4043 77.8467 60.2245 77.631 60.1047C77.4273 59.9729 77.1996 59.907 76.948 59.907C76.6963 59.907 76.4687 59.9669 76.2649 60.0867C76.0612 60.2066 75.8935 60.3803 75.7616 60.608C75.6418 60.8357 75.5819 61.1233 75.5819 61.4708C75.5819 61.7823 75.6418 62.058 75.7616 62.2976C75.8935 62.5253 76.0672 62.6991 76.2829 62.8189C76.4986 62.9387 76.7323 62.9986 76.9839 62.9986ZM96.5408 71.4108C95.702 71.4108 94.9471 71.2131 94.276 70.8176C93.605 70.4222 93.0777 69.877 92.6942 69.1819C92.3228 68.4869 92.137 67.696 92.137 66.8093C92.137 65.9225 92.3228 65.1316 92.6942 64.4366C93.0777 63.7416 93.599 63.2023 94.258 62.8189C94.9291 62.4234 95.69 62.2257 96.5408 62.2257C97.4036 62.2257 98.1586 62.4234 98.8057 62.8189C99.4647 63.2023 99.986 63.7416 100.369 64.4366C100.753 65.1316 100.945 65.9225 100.945 66.8093C100.945 67.696 100.753 68.4869 100.369 69.1819C99.998 69.877 99.4767 70.4222 98.8057 70.8176C98.1466 71.2131 97.3916 71.4108 96.5408 71.4108ZM96.5588 69.6493C97.0501 69.6493 97.4755 69.5354 97.835 69.3078C98.1945 69.0801 98.4701 68.7505 98.6619 68.3191C98.8536 67.8878 98.9495 67.3845 98.9495 66.8093C98.9495 66.2221 98.8536 65.7188 98.6619 65.2994C98.4701 64.868 98.1945 64.5385 97.835 64.3108C97.4755 64.0831 97.0501 63.9693 96.5588 63.9693C96.0435 63.9693 95.6062 64.0891 95.2467 64.3288C94.8872 64.5564 94.6116 64.88 94.4198 65.2994C94.2281 65.7188 94.1322 66.2221 94.1322 66.8093C94.1322 67.3845 94.2281 67.8878 94.4198 68.3191C94.6116 68.7505 94.8872 69.0801 95.2467 69.3078C95.6062 69.5354 96.0435 69.6493 96.5588 69.6493ZM103.468 71.249V63.9333H101.778V62.3875H103.486V61.3809C103.486 60.6499 103.605 60.0807 103.845 59.6733C104.085 59.2539 104.402 58.9663 104.798 58.8105C105.205 58.6428 105.654 58.5589 106.146 58.5589C106.493 58.5589 106.799 58.5948 107.063 58.6667C107.338 58.7266 107.596 58.8165 107.835 58.9363L107.188 60.4462C107.068 60.3743 106.937 60.3204 106.793 60.2844C106.661 60.2365 106.517 60.2125 106.361 60.2125C106.038 60.2125 105.804 60.3204 105.66 60.5361C105.529 60.7398 105.463 61.0214 105.463 61.3809V62.3875H107.404V63.9333H105.463V71.249H103.468ZM116.688 71.4108C115.993 71.4108 115.406 71.273 114.927 70.9974C114.459 70.7218 114.106 70.3263 113.866 69.811C113.627 69.2958 113.507 68.6726 113.507 67.9417V62.3875H115.502V67.4024C115.502 67.8698 115.556 68.2772 115.664 68.6247C115.784 68.9602 115.969 69.2179 116.221 69.3976C116.485 69.5774 116.838 69.6672 117.281 69.6672C117.797 69.6672 118.198 69.5354 118.486 69.2718C118.785 68.9962 118.995 68.6007 119.115 68.0855C119.247 67.5582 119.313 66.9291 119.313 66.1981V62.3875H121.308V71.249H119.313V69.3437L119.654 69.4695C119.378 70.1406 118.977 70.6319 118.45 70.9435C117.934 71.255 117.347 71.4108 116.688 71.4108ZM126.675 71.4108C126.04 71.4108 125.477 71.3209 124.985 71.1412C124.494 70.9494 124.081 70.7098 123.745 70.4222C123.409 70.1346 123.134 69.847 122.918 69.5594L124.284 68.3731C124.512 68.7445 124.823 69.0741 125.219 69.3617C125.626 69.6493 126.118 69.7931 126.693 69.7931C127.172 69.7931 127.55 69.6912 127.825 69.4875C128.113 69.2838 128.257 69.0321 128.257 68.7326C128.257 68.4689 128.167 68.2652 127.987 68.1214C127.807 67.9656 127.574 67.8338 127.286 67.726C126.998 67.6181 126.681 67.5223 126.333 67.4384C125.998 67.3545 125.656 67.2526 125.309 67.1328C124.961 67.001 124.638 66.8392 124.338 66.6475C124.051 66.4558 123.817 66.2101 123.637 65.9105C123.457 65.611 123.368 65.2395 123.368 64.7961C123.368 64.0172 123.667 63.3941 124.266 62.9267C124.865 62.4594 125.65 62.2257 126.621 62.2257C127.316 62.2257 127.951 62.3635 128.526 62.6391C129.101 62.9147 129.551 63.3282 129.874 63.8794L128.634 64.8321C128.394 64.4726 128.095 64.2029 127.735 64.0232C127.376 63.8434 126.986 63.7536 126.567 63.7536C126.184 63.7536 125.86 63.8315 125.596 63.9872C125.345 64.143 125.219 64.3467 125.219 64.5984C125.219 64.7901 125.279 64.9459 125.399 65.0657C125.519 65.1856 125.704 65.2934 125.956 65.3893C126.208 65.4851 126.525 65.581 126.909 65.6769C127.268 65.7607 127.64 65.8626 128.023 65.9824C128.406 66.1023 128.76 66.264 129.083 66.4677C129.419 66.6595 129.689 66.9231 129.892 67.2586C130.108 67.5822 130.216 68.0016 130.216 68.5169C130.216 69.0921 130.066 69.6013 129.767 70.0447C129.479 70.4761 129.066 70.8116 128.526 71.0513C127.999 71.291 127.382 71.4108 126.675 71.4108ZM135.998 71.4108C135.255 71.4108 134.608 71.291 134.057 71.0513C133.518 70.8116 133.075 70.4761 132.727 70.0447C132.38 69.6133 132.122 69.128 131.954 68.5888C131.786 68.0375 131.702 67.4683 131.702 66.8812C131.702 66.294 131.78 65.7248 131.936 65.1736C132.104 64.6104 132.356 64.1071 132.691 63.6637C133.027 63.2203 133.458 62.8728 133.985 62.6212C134.513 62.3575 135.136 62.2257 135.855 62.2257C136.538 62.2257 137.131 62.3455 137.634 62.5852C138.149 62.8129 138.575 63.1364 138.91 63.5558C139.246 63.9633 139.492 64.4306 139.647 64.9579C139.815 65.4851 139.899 66.0483 139.899 66.6475C139.899 66.7314 139.893 66.8512 139.881 67.007C139.881 67.1628 139.869 67.3186 139.845 67.4743H133.698C133.746 68.1813 133.985 68.7206 134.417 69.0921C134.848 69.4635 135.399 69.6493 136.07 69.6493C136.562 69.6493 137.011 69.5714 137.418 69.4156C137.826 69.2598 138.197 69.0142 138.533 68.6786L139.629 70.0088C139.258 70.3443 138.886 70.6139 138.515 70.8176C138.143 71.0213 137.754 71.1711 137.347 71.267C136.951 71.3629 136.502 71.4108 135.998 71.4108ZM137.94 66.4677C137.964 66.3719 137.976 66.276 137.976 66.1802C137.988 66.0843 137.994 65.9884 137.994 65.8926C137.994 65.6289 137.946 65.3773 137.85 65.1376C137.766 64.898 137.634 64.6883 137.454 64.5085C137.275 64.3168 137.053 64.167 136.789 64.0591C136.526 63.9393 136.226 63.8794 135.891 63.8794C135.423 63.8794 135.028 63.9812 134.704 64.185C134.393 64.3887 134.147 64.6523 133.967 64.9758C133.8 65.2874 133.698 65.6289 133.662 66.0004H138.587L137.94 66.4677ZM141.84 71.249V62.3875H143.854V64.7781L143.476 64.8321C143.536 64.3168 143.71 63.8674 143.997 63.4839C144.285 63.0885 144.633 62.7829 145.04 62.5672C145.459 62.3396 145.873 62.2257 146.28 62.2257C146.568 62.2257 146.843 62.2617 147.107 62.3336C147.371 62.4055 147.646 62.5253 147.934 62.6931L146.963 64.4905C146.831 64.4066 146.658 64.3407 146.442 64.2928C146.238 64.2329 146.041 64.2029 145.849 64.2029C145.597 64.2029 145.346 64.2509 145.094 64.3467C144.854 64.4426 144.639 64.5924 144.447 64.7961C144.255 64.9878 144.111 65.2395 144.015 65.551C143.956 65.7188 143.908 65.9405 143.872 66.2161C143.848 66.4797 143.836 66.8512 143.836 67.3305V71.249H141.84ZM152.145 71.4108C151.51 71.4108 150.947 71.3209 150.455 71.1412C149.964 70.9494 149.551 70.7098 149.215 70.4222C148.88 70.1346 148.604 69.847 148.388 69.5594L149.754 68.3731C149.982 68.7445 150.294 69.0741 150.689 69.3617C151.096 69.6493 151.588 69.7931 152.163 69.7931C152.642 69.7931 153.02 69.6912 153.295 69.4875C153.583 69.2838 153.727 69.0321 153.727 68.7326C153.727 68.4689 153.637 68.2652 153.457 68.1214C153.277 67.9656 153.044 67.8338 152.756 67.726C152.468 67.6181 152.151 67.5223 151.803 67.4384C151.468 67.3545 151.126 67.2526 150.779 67.1328C150.431 67.001 150.108 66.8392 149.808 66.6475C149.521 66.4558 149.287 66.2101 149.107 65.9105C148.927 65.611 148.838 65.2395 148.838 64.7961C148.838 64.0172 149.137 63.3941 149.736 62.9267C150.335 62.4594 151.12 62.2257 152.091 62.2257C152.786 62.2257 153.421 62.3635 153.996 62.6391C154.572 62.9147 155.021 63.3282 155.344 63.8794L154.104 64.8321C153.864 64.4726 153.565 64.2029 153.205 64.0232C152.846 63.8434 152.456 63.7536 152.037 63.7536C151.654 63.7536 151.33 63.8315 151.066 63.9872C150.815 64.143 150.689 64.3467 150.689 64.5984C150.689 64.7901 150.749 64.9459 150.869 65.0657C150.989 65.1856 151.174 65.2934 151.426 65.3893C151.678 65.4851 151.995 65.581 152.379 65.6769C152.738 65.7607 153.11 65.8626 153.493 65.9824C153.876 66.1023 154.23 66.264 154.554 66.4677C154.889 66.6595 155.159 66.9231 155.362 67.2586C155.578 67.5822 155.686 68.0016 155.686 68.5169C155.686 69.0921 155.536 69.6013 155.237 70.0447C154.949 70.4761 154.536 70.8116 153.996 71.0513C153.469 71.291 152.852 71.4108 152.145 71.4108ZM166.084 71.4108C165.389 71.4108 164.772 71.291 164.232 71.0513C163.705 70.7997 163.262 70.4581 162.902 70.0267C162.555 69.5834 162.291 69.0861 162.111 68.5348C161.932 67.9836 161.842 67.4084 161.842 66.8093C161.842 66.2101 161.932 65.6349 162.111 65.0837C162.291 64.5325 162.555 64.0412 162.902 63.6098C163.262 63.1784 163.705 62.8428 164.232 62.6032C164.772 62.3515 165.389 62.2257 166.084 62.2257C166.959 62.2257 167.719 62.4354 168.367 62.8548C169.026 63.2742 169.511 63.9213 169.822 64.7961L168.061 65.4791C167.917 65.0238 167.683 64.6583 167.36 64.3827C167.036 64.0951 166.611 63.9513 166.084 63.9513C165.556 63.9513 165.125 64.0891 164.79 64.3647C164.466 64.6403 164.226 64.9938 164.071 65.4252C163.915 65.8566 163.837 66.318 163.837 66.8093C163.837 67.3006 163.915 67.7679 164.071 68.2113C164.226 68.6427 164.466 68.9962 164.79 69.2718C165.125 69.5354 165.556 69.6672 166.084 69.6672C166.611 69.6672 167.036 69.5294 167.36 69.2538C167.683 68.9782 167.917 68.6127 168.061 68.1574L169.822 68.8404C169.511 69.7032 169.026 70.3503 168.367 70.7817C167.719 71.2011 166.959 71.4108 166.084 71.4108ZM171.629 71.249V58.7206H173.624V64.3467L173.264 64.4366C173.42 63.9213 173.648 63.5019 173.947 63.1784C174.259 62.8548 174.612 62.6152 175.008 62.4594C175.403 62.3036 175.823 62.2257 176.266 62.2257C177.261 62.2257 178.034 62.5133 178.585 63.0885C179.148 63.6517 179.43 64.4606 179.43 65.5151V71.249H177.435V66.2521C177.435 65.4612 177.291 64.88 177.003 64.5085C176.716 64.137 176.272 63.9513 175.673 63.9513C175.002 63.9513 174.493 64.191 174.145 64.6703C173.798 65.1496 173.624 65.9045 173.624 66.9351V71.249H171.629ZM185.66 71.4108C184.821 71.4108 184.066 71.2131 183.395 70.8176C182.724 70.4222 182.196 69.877 181.813 69.1819C181.442 68.4869 181.256 67.696 181.256 66.8093C181.256 65.9225 181.442 65.1316 181.813 64.4366C182.196 63.7416 182.718 63.2023 183.377 62.8189C184.048 62.4234 184.809 62.2257 185.66 62.2257C186.522 62.2257 187.277 62.4234 187.924 62.8189C188.584 63.2023 189.105 63.7416 189.488 64.4366C189.872 65.1316 190.063 65.9225 190.063 66.8093C190.063 67.696 189.872 68.4869 189.488 69.1819C189.117 69.877 188.595 70.4222 187.924 70.8176C187.265 71.2131 186.51 71.4108 185.66 71.4108ZM185.678 69.6493C186.169 69.6493 186.594 69.5354 186.954 69.3078C187.313 69.0801 187.589 68.7505 187.781 68.3191C187.972 67.8878 188.068 67.3845 188.068 66.8093C188.068 66.2221 187.972 65.7188 187.781 65.2994C187.589 64.868 187.313 64.5385 186.954 64.3108C186.594 64.0831 186.169 63.9693 185.678 63.9693C185.162 63.9693 184.725 64.0891 184.365 64.3288C184.006 64.5564 183.73 64.88 183.539 65.2994C183.347 65.7188 183.251 66.2221 183.251 66.8093C183.251 67.3845 183.347 67.8878 183.539 68.3191C183.73 68.7505 184.006 69.0801 184.365 69.3078C184.725 69.5354 185.162 69.6493 185.678 69.6493ZM195.981 71.4108C195.142 71.4108 194.387 71.2131 193.716 70.8176C193.045 70.4222 192.518 69.877 192.134 69.1819C191.763 68.4869 191.577 67.696 191.577 66.8093C191.577 65.9225 191.763 65.1316 192.134 64.4366C192.518 63.7416 193.039 63.2023 193.698 62.8189C194.369 62.4234 195.13 62.2257 195.981 62.2257C196.844 62.2257 197.599 62.4234 198.246 62.8189C198.905 63.2023 199.426 63.7416 199.81 64.4366C200.193 65.1316 200.385 65.9225 200.385 66.8093C200.385 67.696 200.193 68.4869 199.81 69.1819C199.438 69.877 198.917 70.4222 198.246 70.8176C197.587 71.2131 196.832 71.4108 195.981 71.4108ZM195.999 69.6493C196.49 69.6493 196.916 69.5354 197.275 69.3078C197.635 69.0801 197.91 68.7505 198.102 68.3191C198.294 67.8878 198.39 67.3845 198.39 66.8093C198.39 66.2221 198.294 65.7188 198.102 65.2994C197.91 64.868 197.635 64.5385 197.275 64.3108C196.916 64.0831 196.49 63.9693 195.999 63.9693C195.484 63.9693 195.046 64.0891 194.687 64.3288C194.327 64.5564 194.052 64.88 193.86 65.2994C193.668 65.7188 193.572 66.2221 193.572 66.8093C193.572 67.3845 193.668 67.8878 193.86 68.3191C194.052 68.7505 194.327 69.0801 194.687 69.3078C195.046 69.5354 195.484 69.6493 195.999 69.6493ZM205.332 71.4108C204.697 71.4108 204.134 71.3209 203.642 71.1412C203.151 70.9494 202.737 70.7098 202.402 70.4222C202.066 70.1346 201.791 69.847 201.575 69.5594L202.941 68.3731C203.169 68.7445 203.48 69.0741 203.876 69.3617C204.283 69.6493 204.775 69.7931 205.35 69.7931C205.829 69.7931 206.207 69.6912 206.482 69.4875C206.77 69.2838 206.914 69.0321 206.914 68.7326C206.914 68.4689 206.824 68.2652 206.644 68.1214C206.464 67.9656 206.231 67.8338 205.943 67.726C205.655 67.6181 205.338 67.5223 204.99 67.4384C204.655 67.3545 204.313 67.2526 203.966 67.1328C203.618 67.001 203.295 66.8392 202.995 66.6475C202.708 66.4558 202.474 66.2101 202.294 65.9105C202.114 65.611 202.024 65.2395 202.024 64.7961C202.024 64.0172 202.324 63.3941 202.923 62.9267C203.522 62.4594 204.307 62.2257 205.278 62.2257C205.973 62.2257 206.608 62.3635 207.183 62.6391C207.758 62.9147 208.208 63.3282 208.531 63.8794L207.291 64.8321C207.051 64.4726 206.752 64.2029 206.392 64.0232C206.033 63.8434 205.643 63.7536 205.224 63.7536C204.841 63.7536 204.517 63.8315 204.253 63.9872C204.002 64.143 203.876 64.3467 203.876 64.5984C203.876 64.7901 203.936 64.9459 204.056 65.0657C204.175 65.1856 204.361 65.2934 204.613 65.3893C204.864 65.4851 205.182 65.581 205.565 65.6769C205.925 65.7607 206.296 65.8626 206.68 65.9824C207.063 66.1023 207.417 66.264 207.74 66.4677C208.076 66.6595 208.346 66.9231 208.549 67.2586C208.765 67.5822 208.873 68.0016 208.873 68.5169C208.873 69.0921 208.723 69.6013 208.423 70.0447C208.136 70.4761 207.722 70.8116 207.183 71.0513C206.656 71.291 206.039 71.4108 205.332 71.4108ZM214.655 71.4108C213.912 71.4108 213.265 71.291 212.714 71.0513C212.175 70.8116 211.731 70.4761 211.384 70.0447C211.036 69.6133 210.779 69.128 210.611 68.5888C210.443 68.0375 210.359 67.4683 210.359 66.8812C210.359 66.294 210.437 65.7248 210.593 65.1736C210.761 64.6104 211.012 64.1071 211.348 63.6637C211.684 63.2203 212.115 62.8728 212.642 62.6212C213.169 62.3575 213.793 62.2257 214.512 62.2257C215.195 62.2257 215.788 62.3455 216.291 62.5852C216.806 62.8129 217.232 63.1364 217.567 63.5558C217.903 63.9633 218.148 64.4306 218.304 64.9579C218.472 65.4851 218.556 66.0483 218.556 66.6475C218.556 66.7314 218.55 66.8512 218.538 67.007C218.538 67.1628 218.526 67.3186 218.502 67.4743H212.355C212.403 68.1813 212.642 68.7206 213.074 69.0921C213.505 69.4635 214.056 69.6493 214.727 69.6493C215.219 69.6493 215.668 69.5714 216.075 69.4156C216.483 69.2598 216.854 69.0142 217.19 68.6786L218.286 70.0088C217.915 70.3443 217.543 70.6139 217.172 70.8176C216.8 71.0213 216.411 71.1711 216.003 71.267C215.608 71.3629 215.159 71.4108 214.655 71.4108ZM216.597 66.4677C216.621 66.3719 216.633 66.276 216.633 66.1802C216.645 66.0843 216.651 65.9884 216.651 65.8926C216.651 65.6289 216.603 65.3773 216.507 65.1376C216.423 64.898 216.291 64.6883 216.111 64.5085C215.932 64.3168 215.71 64.167 215.446 64.0591C215.183 63.9393 214.883 63.8794 214.548 63.8794C214.08 63.8794 213.685 63.9812 213.361 64.185C213.05 64.3887 212.804 64.6523 212.624 64.9758C212.456 65.2874 212.355 65.6289 212.319 66.0004H217.244L216.597 66.4677ZM228.384 71.4108C227.941 71.4108 227.521 71.3269 227.126 71.1591C226.742 70.9794 226.437 70.6978 226.209 70.3143C225.981 69.9189 225.868 69.4036 225.868 68.7685V60.2305L227.881 59.1161V68.2113C227.881 68.7146 227.953 69.104 228.097 69.3797C228.252 69.6433 228.528 69.7751 228.923 69.7751C229.043 69.7751 229.181 69.7631 229.337 69.7391C229.505 69.7032 229.678 69.6613 229.858 69.6133V71.1591C229.618 71.243 229.373 71.3029 229.121 71.3389C228.881 71.3868 228.636 71.4108 228.384 71.4108ZM224.178 63.9333V62.3875H229.858V63.9333H224.178ZM235.459 71.4108C234.62 71.4108 233.865 71.2131 233.194 70.8176C232.523 70.4222 231.996 69.877 231.612 69.1819C231.241 68.4869 231.055 67.696 231.055 66.8093C231.055 65.9225 231.241 65.1316 231.612 64.4366C231.996 63.7416 232.517 63.2023 233.176 62.8189C233.847 62.4234 234.608 62.2257 235.459 62.2257C236.321 62.2257 237.076 62.4234 237.724 62.8189C238.383 63.2023 238.904 63.7416 239.287 64.4366C239.671 65.1316 239.863 65.9225 239.863 66.8093C239.863 67.696 239.671 68.4869 239.287 69.1819C238.916 69.877 238.395 70.4222 237.724 70.8176C237.064 71.2131 236.31 71.4108 235.459 71.4108ZM235.477 69.6493C235.968 69.6493 236.393 69.5354 236.753 69.3078C237.112 69.0801 237.388 68.7505 237.58 68.3191C237.771 67.8878 237.867 67.3845 237.867 66.8093C237.867 66.2221 237.771 65.7188 237.58 65.2994C237.388 64.868 237.112 64.5385 236.753 64.3108C236.393 64.0831 235.968 63.9693 235.477 63.9693C234.961 63.9693 234.524 64.0891 234.165 64.3288C233.805 64.5564 233.529 64.88 233.338 65.2994C233.146 65.7188 233.05 66.2221 233.05 66.8093C233.05 67.3845 233.146 67.8878 233.338 68.3191C233.529 68.7505 233.805 69.0801 234.165 69.3078C234.524 69.5354 234.961 69.6493 235.477 69.6493ZM38.3041 107.411C37.6091 107.411 36.9919 107.291 36.4527 107.051C35.9254 106.8 35.4821 106.458 35.1226 106.027C34.7751 105.583 34.5114 105.086 34.3317 104.535C34.1519 103.984 34.0621 103.408 34.0621 102.809C34.0621 102.21 34.1519 101.635 34.3317 101.084C34.5114 100.532 34.7751 100.041 35.1226 99.6098C35.4821 99.1784 35.9254 98.8428 36.4527 98.6032C36.9919 98.3515 37.6091 98.2257 38.3041 98.2257C39.1789 98.2257 39.9398 98.4354 40.5869 98.8548C41.246 99.2742 41.7313 99.9213 42.0428 100.796L40.2813 101.479C40.1375 101.024 39.9038 100.658 39.5803 100.383C39.2568 100.095 38.8314 99.9513 38.3041 99.9513C37.7768 99.9513 37.3454 100.089 37.0099 100.365C36.6864 100.64 36.4467 100.994 36.2909 101.425C36.1352 101.857 36.0573 102.318 36.0573 102.809C36.0573 103.301 36.1352 103.768 36.2909 104.211C36.4467 104.643 36.6864 104.996 37.0099 105.272C37.3454 105.535 37.7768 105.667 38.3041 105.667C38.8314 105.667 39.2568 105.529 39.5803 105.254C39.9038 104.978 40.1375 104.613 40.2813 104.157L42.0428 104.84C41.7313 105.703 41.246 106.35 40.5869 106.782C39.9398 107.201 39.1789 107.411 38.3041 107.411ZM43.849 107.249V98.3875H45.8622V100.778L45.4847 100.832C45.5446 100.317 45.7184 99.8674 46.006 99.4839C46.2936 99.0885 46.6411 98.7829 47.0485 98.5672C47.4679 98.3396 47.8813 98.2257 48.2888 98.2257C48.5764 98.2257 48.852 98.2617 49.1156 98.3336C49.3792 98.4055 49.6549 98.5253 49.9424 98.6931L48.9718 100.491C48.84 100.407 48.6662 100.341 48.4505 100.293C48.2468 100.233 48.0491 100.203 47.8574 100.203C47.6057 100.203 47.3541 100.251 47.1024 100.347C46.8628 100.443 46.6471 100.592 46.4554 100.796C46.2636 100.988 46.1198 101.239 46.024 101.551C45.964 101.719 45.9161 101.94 45.8802 102.216C45.8562 102.48 45.8442 102.851 45.8442 103.331V107.249H43.849ZM54.788 107.411C54.0451 107.411 53.398 107.291 52.8468 107.051C52.3075 106.812 51.8641 106.476 51.5166 106.045C51.1691 105.613 50.9115 105.128 50.7437 104.589C50.576 104.038 50.4921 103.468 50.4921 102.881C50.4921 102.294 50.57 101.725 50.7258 101.174C50.8935 100.61 51.1452 100.107 51.4807 99.6637C51.8162 99.2203 52.2476 98.8728 52.7749 98.6212C53.3021 98.3575 53.9252 98.2257 54.6442 98.2257C55.3273 98.2257 55.9204 98.3455 56.4237 98.5852C56.939 98.8129 57.3644 99.1364 57.6999 99.5558C58.0355 99.9633 58.2811 100.431 58.4369 100.958C58.6047 101.485 58.6885 102.048 58.6885 102.647C58.6885 102.731 58.6826 102.851 58.6706 103.007C58.6706 103.163 58.6586 103.319 58.6346 103.474H52.4873C52.5352 104.181 52.7749 104.721 53.2063 105.092C53.6377 105.464 54.1889 105.649 54.8599 105.649C55.3512 105.649 55.8006 105.571 56.208 105.416C56.6155 105.26 56.9869 105.014 57.3225 104.679L58.4189 106.009C58.0475 106.344 57.676 106.614 57.3045 106.818C56.933 107.021 56.5436 107.171 56.1361 107.267C55.7407 107.363 55.2913 107.411 54.788 107.411ZM56.7293 102.468C56.7533 102.372 56.7653 102.276 56.7653 102.18C56.7772 102.084 56.7832 101.988 56.7832 101.893C56.7832 101.629 56.7353 101.377 56.6394 101.138C56.5555 100.898 56.4237 100.688 56.244 100.509C56.0642 100.317 55.8426 100.167 55.5789 100.059C55.3153 99.9393 55.0157 99.8794 54.6802 99.8794C54.2128 99.8794 53.8174 99.9812 53.4939 100.185C53.1823 100.389 52.9366 100.652 52.7569 100.976C52.5891 101.287 52.4873 101.629 52.4513 102H57.3764L56.7293 102.468ZM66.3461 107.249L66.2023 105.757V101.659C66.2023 101.084 66.0285 100.652 65.681 100.365C65.3335 100.065 64.8482 99.9153 64.225 99.9153C63.7457 99.9153 63.2724 100.011 62.805 100.203C62.3497 100.383 61.9303 100.664 61.5468 101.048L60.4324 99.7356C61.0076 99.1964 61.6187 98.8129 62.2658 98.5852C62.9129 98.3455 63.6199 98.2257 64.3868 98.2257C65.5851 98.2257 66.5138 98.5313 67.1729 99.1424C67.844 99.7416 68.1795 100.58 68.1795 101.659V107.249H66.3461ZM63.5959 107.411C62.9369 107.411 62.3497 107.291 61.8344 107.051C61.3311 106.812 60.9357 106.476 60.6481 106.045C60.3725 105.613 60.2347 105.11 60.2347 104.535C60.2347 104.044 60.3365 103.618 60.5402 103.259C60.7559 102.899 61.0315 102.618 61.3671 102.414C61.6547 102.234 61.9902 102.108 62.3736 102.036C62.7571 101.952 63.1585 101.911 63.578 101.911H66.364V103.402H63.8655C63.6499 103.402 63.4342 103.426 63.2185 103.474C63.0028 103.51 62.811 103.582 62.6433 103.69C62.5234 103.786 62.4216 103.906 62.3377 104.05C62.2658 104.193 62.2298 104.361 62.2298 104.553C62.2298 104.936 62.3736 105.242 62.6612 105.47C62.9608 105.685 63.3563 105.793 63.8476 105.793C64.279 105.793 64.6684 105.697 65.0159 105.505C65.3754 105.314 65.663 105.05 65.8787 104.715C66.0944 104.379 66.2023 104.002 66.2023 103.582L66.8134 104.571C66.6696 105.194 66.4419 105.721 66.1304 106.153C65.8188 106.572 65.4473 106.89 65.0159 107.105C64.5845 107.309 64.1112 107.411 63.5959 107.411ZM73.6248 107.411C73.1815 107.411 72.7621 107.327 72.3666 107.159C71.9831 106.979 71.6776 106.698 71.4499 106.314C71.2222 105.919 71.1084 105.404 71.1084 104.769V96.2305L73.1215 95.1161V104.211C73.1215 104.715 73.1934 105.104 73.3372 105.38C73.493 105.643 73.7686 105.775 74.1641 105.775C74.2839 105.775 74.4217 105.763 74.5775 105.739C74.7453 105.703 74.919 105.661 75.0988 105.613V107.159C74.8591 107.243 74.6134 107.303 74.3618 107.339C74.1221 107.387 73.8765 107.411 73.6248 107.411ZM69.4188 99.9333V98.3875H75.0988V99.9333H69.4188ZM80.5916 107.411C79.8486 107.411 79.2015 107.291 78.6503 107.051C78.1111 106.812 77.6677 106.476 77.3202 106.045C76.9727 105.613 76.715 105.128 76.5473 104.589C76.3795 104.038 76.2956 103.468 76.2956 102.881C76.2956 102.294 76.3735 101.725 76.5293 101.174C76.6971 100.61 76.9487 100.107 77.2842 99.6637C77.6198 99.2203 78.0512 98.8728 78.5784 98.6212C79.1057 98.3575 79.7288 98.2257 80.4478 98.2257C81.1308 98.2257 81.724 98.3455 82.2273 98.5852C82.7426 98.8129 83.168 99.1364 83.5035 99.5558C83.839 99.9633 84.0847 100.431 84.2404 100.958C84.4082 101.485 84.4921 102.048 84.4921 102.647C84.4921 102.731 84.4861 102.851 84.4741 103.007C84.4741 103.163 84.4621 103.319 84.4382 103.474H78.2908C78.3388 104.181 78.5784 104.721 79.0098 105.092C79.4412 105.464 79.9924 105.649 80.6635 105.649C81.1548 105.649 81.6042 105.571 82.0116 105.416C82.419 105.26 82.7905 105.014 83.126 104.679L84.2225 106.009C83.851 106.344 83.4795 106.614 83.108 106.818C82.7366 107.021 82.3471 107.171 81.9397 107.267C81.5442 107.363 81.0949 107.411 80.5916 107.411ZM82.5329 102.468C82.5568 102.372 82.5688 102.276 82.5688 102.18C82.5808 102.084 82.5868 101.988 82.5868 101.893C82.5868 101.629 82.5388 101.377 82.443 101.138C82.3591 100.898 82.2273 100.688 82.0475 100.509C81.8678 100.317 81.6461 100.167 81.3825 100.059C81.1188 99.9393 80.8193 99.8794 80.4837 99.8794C80.0164 99.8794 79.6209 99.9812 79.2974 100.185C78.9858 100.389 78.7402 100.652 78.5604 100.976C78.3927 101.287 78.2908 101.629 78.2549 102H83.1799L82.5329 102.468ZM94.3203 107.411C93.877 107.411 93.4575 107.327 93.0621 107.159C92.6786 106.979 92.3731 106.698 92.1454 106.314C91.9177 105.919 91.8039 105.404 91.8039 104.769V96.2305L93.817 95.1161V104.211C93.817 104.715 93.8889 105.104 94.0327 105.38C94.1885 105.643 94.4641 105.775 94.8596 105.775C94.9794 105.775 95.1172 105.763 95.273 105.739C95.4408 105.703 95.6145 105.661 95.7943 105.613V107.159C95.5546 107.243 95.3089 107.303 95.0573 107.339C94.8176 107.387 94.572 107.411 94.3203 107.411ZM90.1142 99.9333V98.3875H95.7943V99.9333H90.1142ZM97.5801 107.249V98.3875H99.5932V100.778L99.2158 100.832C99.2757 100.317 99.4494 99.8674 99.737 99.4839C100.025 99.0885 100.372 98.7829 100.78 98.5672C101.199 98.3396 101.612 98.2257 102.02 98.2257C102.307 98.2257 102.583 98.2617 102.847 98.3336C103.11 98.4055 103.386 98.5253 103.674 98.6931L102.703 100.491C102.571 100.407 102.397 100.341 102.182 100.293C101.978 100.233 101.78 100.203 101.588 100.203C101.337 100.203 101.085 100.251 100.833 100.347C100.594 100.443 100.378 100.592 100.186 100.796C99.9947 100.988 99.8509 101.239 99.755 101.551C99.6951 101.719 99.6472 101.94 99.6112 102.216C99.5872 102.48 99.5753 102.851 99.5753 103.331V107.249H97.5801ZM110.651 107.249L110.507 105.757V101.659C110.507 101.084 110.333 100.652 109.986 100.365C109.638 100.065 109.153 99.9153 108.53 99.9153C108.051 99.9153 107.577 100.011 107.11 100.203C106.655 100.383 106.235 100.664 105.852 101.048L104.737 99.7356C105.312 99.1964 105.924 98.8129 106.571 98.5852C107.218 98.3455 107.925 98.2257 108.692 98.2257C109.89 98.2257 110.819 98.5313 111.478 99.1424C112.149 99.7416 112.484 100.58 112.484 101.659V107.249H110.651ZM107.901 107.411C107.242 107.411 106.655 107.291 106.139 107.051C105.636 106.812 105.241 106.476 104.953 106.045C104.677 105.613 104.54 105.11 104.54 104.535C104.54 104.044 104.641 103.618 104.845 103.259C105.061 102.899 105.336 102.618 105.672 102.414C105.96 102.234 106.295 102.108 106.679 102.036C107.062 101.952 107.463 101.911 107.883 101.911H110.669V103.402H108.17C107.955 103.402 107.739 103.426 107.523 103.474C107.308 103.51 107.116 103.582 106.948 103.69C106.828 103.786 106.726 103.906 106.643 104.05C106.571 104.193 106.535 104.361 106.535 104.553C106.535 104.936 106.679 105.242 106.966 105.47C107.266 105.685 107.661 105.793 108.152 105.793C108.584 105.793 108.973 105.697 109.321 105.505C109.68 105.314 109.968 105.05 110.184 104.715C110.399 104.379 110.507 104.002 110.507 103.582L111.118 104.571C110.974 105.194 110.747 105.721 110.435 106.153C110.124 106.572 109.752 106.89 109.321 107.105C108.889 107.309 108.416 107.411 107.901 107.411ZM117.235 107.249L113.622 98.3875H115.815L118.061 104.661L120.344 98.3875H122.501L118.888 107.249H117.235ZM127.6 107.411C126.857 107.411 126.21 107.291 125.658 107.051C125.119 106.812 124.676 106.476 124.328 106.045C123.981 105.613 123.723 105.128 123.555 104.589C123.388 104.038 123.304 103.468 123.304 102.881C123.304 102.294 123.382 101.725 123.537 101.174C123.705 100.61 123.957 100.107 124.292 99.6637C124.628 99.2203 125.059 98.8728 125.587 98.6212C126.114 98.3575 126.737 98.2257 127.456 98.2257C128.139 98.2257 128.732 98.3455 129.235 98.5852C129.751 98.8129 130.176 99.1364 130.512 99.5558C130.847 99.9633 131.093 100.431 131.249 100.958C131.416 101.485 131.5 102.048 131.5 102.647C131.5 102.731 131.494 102.851 131.482 103.007C131.482 103.163 131.47 103.319 131.446 103.474H125.299C125.347 104.181 125.587 104.721 126.018 105.092C126.449 105.464 127.001 105.649 127.672 105.649C128.163 105.649 128.612 105.571 129.02 105.416C129.427 105.26 129.799 105.014 130.134 104.679L131.231 106.009C130.859 106.344 130.488 106.614 130.116 106.818C129.745 107.021 129.355 107.171 128.948 107.267C128.552 107.363 128.103 107.411 127.6 107.411ZM129.541 102.468C129.565 102.372 129.577 102.276 129.577 102.18C129.589 102.084 129.595 101.988 129.595 101.893C129.595 101.629 129.547 101.377 129.451 101.138C129.367 100.898 129.235 100.688 129.056 100.509C128.876 100.317 128.654 100.167 128.391 100.059C128.127 99.9393 127.827 99.8794 127.492 99.8794C127.024 99.8794 126.629 99.9812 126.305 100.185C125.994 100.389 125.748 100.652 125.569 100.976C125.401 101.287 125.299 101.629 125.263 102H130.188L129.541 102.468ZM135.401 107.411C134.826 107.411 134.346 107.237 133.963 106.89C133.58 106.53 133.388 105.961 133.388 105.182V94.7206H135.383V104.786C135.383 105.062 135.443 105.266 135.563 105.398C135.695 105.517 135.862 105.577 136.066 105.577C136.174 105.577 136.282 105.565 136.39 105.541C136.509 105.517 136.629 105.488 136.749 105.452V107.141C136.521 107.237 136.288 107.303 136.048 107.339C135.808 107.387 135.593 107.411 135.401 107.411ZM143.026 110.916V98.3875H145.003V100.85L144.5 100.868C144.656 100.221 144.883 99.7056 145.183 99.3222C145.494 98.9387 145.86 98.6631 146.279 98.4953C146.711 98.3156 147.166 98.2257 147.645 98.2257C148.436 98.2257 149.119 98.4294 149.695 98.8369C150.27 99.2323 150.713 99.7775 151.025 100.473C151.348 101.168 151.51 101.952 151.51 102.827C151.51 103.774 151.336 104.595 150.989 105.29C150.641 105.973 150.174 106.5 149.587 106.872C149.011 107.231 148.364 107.411 147.645 107.411C147.142 107.411 146.675 107.315 146.243 107.123C145.824 106.931 145.464 106.644 145.165 106.26C144.877 105.877 144.674 105.41 144.554 104.858L145.003 104.769V110.916H143.026ZM147.16 105.595C147.627 105.595 148.035 105.482 148.382 105.254C148.742 105.026 149.017 104.703 149.209 104.283C149.401 103.864 149.497 103.378 149.497 102.827C149.497 102.276 149.401 101.791 149.209 101.371C149.017 100.952 148.742 100.628 148.382 100.401C148.035 100.173 147.627 100.059 147.16 100.059C146.693 100.059 146.279 100.173 145.92 100.401C145.572 100.628 145.303 100.952 145.111 101.371C144.919 101.791 144.823 102.276 144.823 102.827C144.823 103.378 144.919 103.864 145.111 104.283C145.303 104.691 145.572 105.014 145.92 105.254C146.279 105.482 146.693 105.595 147.16 105.595ZM155.394 107.411C154.819 107.411 154.34 107.237 153.956 106.89C153.573 106.53 153.381 105.961 153.381 105.182V94.7206H155.376V104.786C155.376 105.062 155.436 105.266 155.556 105.398C155.688 105.517 155.856 105.577 156.059 105.577C156.167 105.577 156.275 105.565 156.383 105.541C156.503 105.517 156.623 105.488 156.742 105.452V107.141C156.515 107.237 156.281 107.303 156.041 107.339C155.802 107.387 155.586 107.411 155.394 107.411ZM164.066 107.249L163.922 105.757V101.659C163.922 101.084 163.748 100.652 163.401 100.365C163.053 100.065 162.568 99.9153 161.945 99.9153C161.466 99.9153 160.992 100.011 160.525 100.203C160.07 100.383 159.65 100.664 159.267 101.048L158.152 99.7356C158.728 99.1964 159.339 98.8129 159.986 98.5852C160.633 98.3455 161.34 98.2257 162.107 98.2257C163.305 98.2257 164.234 98.5313 164.893 99.1424C165.564 99.7416 165.899 100.58 165.899 101.659V107.249H164.066ZM161.316 107.411C160.657 107.411 160.07 107.291 159.554 107.051C159.051 106.812 158.656 106.476 158.368 106.045C158.092 105.613 157.955 105.11 157.955 104.535C157.955 104.044 158.056 103.618 158.26 103.259C158.476 102.899 158.751 102.618 159.087 102.414C159.375 102.234 159.71 102.108 160.094 102.036C160.477 101.952 160.879 101.911 161.298 101.911H164.084V103.402H161.586C161.37 103.402 161.154 103.426 160.938 103.474C160.723 103.51 160.531 103.582 160.363 103.69C160.243 103.786 160.142 103.906 160.058 104.05C159.986 104.193 159.95 104.361 159.95 104.553C159.95 104.936 160.094 105.242 160.381 105.47C160.681 105.685 161.076 105.793 161.568 105.793C161.999 105.793 162.388 105.697 162.736 105.505C163.095 105.314 163.383 105.05 163.599 104.715C163.814 104.379 163.922 104.002 163.922 103.582L164.533 104.571C164.39 105.194 164.162 105.721 163.85 106.153C163.539 106.572 163.167 106.89 162.736 107.105C162.304 107.309 161.831 107.411 161.316 107.411ZM168.127 107.249V98.3875H170.123V100.347L169.763 100.437C169.919 99.9213 170.146 99.5019 170.446 99.1784C170.746 98.8548 171.093 98.6152 171.489 98.4594C171.896 98.3036 172.321 98.2257 172.765 98.2257C173.759 98.2257 174.532 98.5133 175.084 99.0885C175.647 99.6517 175.928 100.461 175.928 101.515V107.249H173.933V102.252C173.933 101.461 173.789 100.88 173.502 100.509C173.214 100.137 172.771 99.9513 172.172 99.9513C171.728 99.9513 171.351 100.059 171.039 100.275C170.74 100.479 170.512 100.802 170.356 101.245C170.2 101.689 170.123 102.252 170.123 102.935V107.249H168.127ZM181.188 107.411C180.553 107.411 179.989 107.321 179.498 107.141C179.007 106.949 178.593 106.71 178.258 106.422C177.922 106.135 177.647 105.847 177.431 105.559L178.797 104.373C179.025 104.745 179.336 105.074 179.732 105.362C180.139 105.649 180.63 105.793 181.206 105.793C181.685 105.793 182.062 105.691 182.338 105.488C182.626 105.284 182.769 105.032 182.769 104.733C182.769 104.469 182.68 104.265 182.5 104.121C182.32 103.966 182.086 103.834 181.799 103.726C181.511 103.618 181.194 103.522 180.846 103.438C180.511 103.355 180.169 103.253 179.822 103.133C179.474 103.001 179.151 102.839 178.851 102.647C178.563 102.456 178.33 102.21 178.15 101.911C177.97 101.611 177.88 101.239 177.88 100.796C177.88 100.017 178.18 99.3941 178.779 98.9267C179.378 98.4594 180.163 98.2257 181.134 98.2257C181.829 98.2257 182.464 98.3635 183.039 98.6391C183.614 98.9147 184.064 99.3282 184.387 99.8794L183.147 100.832C182.907 100.473 182.608 100.203 182.248 100.023C181.889 99.8434 181.499 99.7536 181.08 99.7536C180.696 99.7536 180.373 99.8315 180.109 99.9872C179.858 100.143 179.732 100.347 179.732 100.598C179.732 100.79 179.792 100.946 179.911 101.066C180.031 101.186 180.217 101.293 180.469 101.389C180.72 101.485 181.038 101.581 181.421 101.677C181.781 101.761 182.152 101.863 182.536 101.982C182.919 102.102 183.273 102.264 183.596 102.468C183.932 102.659 184.201 102.923 184.405 103.259C184.621 103.582 184.729 104.002 184.729 104.517C184.729 105.092 184.579 105.601 184.279 106.045C183.992 106.476 183.578 106.812 183.039 107.051C182.512 107.291 181.895 107.411 181.188 107.411ZM103.983 179.249L111.964 166.721H113.402L105.421 179.249H103.983ZM111.874 179.411C111.358 179.411 110.891 179.291 110.472 179.051C110.064 178.812 109.735 178.476 109.483 178.045C109.243 177.601 109.124 177.086 109.124 176.499C109.124 175.924 109.243 175.42 109.483 174.989C109.723 174.546 110.046 174.204 110.454 173.964C110.873 173.725 111.335 173.605 111.838 173.605C112.353 173.605 112.814 173.737 113.222 174C113.641 174.252 113.971 174.6 114.21 175.043C114.462 175.474 114.588 175.96 114.588 176.499C114.588 177.038 114.468 177.529 114.228 177.973C113.989 178.404 113.665 178.752 113.258 179.015C112.85 179.279 112.389 179.411 111.874 179.411ZM111.874 178.063C112.137 178.063 112.371 177.997 112.575 177.865C112.778 177.721 112.94 177.535 113.06 177.308C113.18 177.068 113.24 176.798 113.24 176.499C113.24 176.187 113.174 175.918 113.042 175.69C112.922 175.462 112.755 175.283 112.539 175.151C112.335 175.019 112.101 174.953 111.838 174.953C111.598 174.953 111.37 175.019 111.155 175.151C110.951 175.271 110.783 175.444 110.651 175.672C110.532 175.9 110.472 176.175 110.472 176.499C110.472 176.834 110.538 177.122 110.669 177.362C110.801 177.589 110.975 177.763 111.191 177.883C111.406 178.003 111.634 178.063 111.874 178.063ZM105.655 172.347C105.151 172.347 104.69 172.227 104.27 171.987C103.851 171.748 103.516 171.412 103.264 170.981C103.024 170.537 102.904 170.034 102.904 169.471C102.904 168.872 103.024 168.356 103.264 167.925C103.516 167.494 103.845 167.158 104.252 166.918C104.66 166.679 105.115 166.559 105.619 166.559C106.134 166.559 106.595 166.691 107.003 166.954C107.422 167.206 107.752 167.553 107.991 167.997C108.231 168.428 108.351 168.92 108.351 169.471C108.351 169.986 108.231 170.465 107.991 170.909C107.764 171.352 107.446 171.706 107.039 171.969C106.631 172.221 106.17 172.347 105.655 172.347ZM105.655 170.999C105.906 170.999 106.134 170.933 106.338 170.801C106.541 170.657 106.703 170.471 106.823 170.244C106.943 170.016 107.003 169.758 107.003 169.471C107.003 169.147 106.937 168.872 106.805 168.644C106.685 168.404 106.517 168.225 106.302 168.105C106.098 167.973 105.87 167.907 105.619 167.907C105.367 167.907 105.139 167.967 104.936 168.087C104.732 168.207 104.564 168.38 104.432 168.608C104.312 168.836 104.252 169.123 104.252 169.471C104.252 169.782 104.312 170.058 104.432 170.298C104.564 170.525 104.738 170.699 104.953 170.819C105.169 170.939 105.403 170.999 105.655 170.999ZM125.211 179.411C124.373 179.411 123.618 179.213 122.947 178.818C122.276 178.422 121.748 177.877 121.365 177.182C120.993 176.487 120.808 175.696 120.808 174.809C120.808 173.923 120.993 173.132 121.365 172.437C121.748 171.742 122.27 171.202 122.929 170.819C123.6 170.423 124.361 170.226 125.211 170.226C126.074 170.226 126.829 170.423 127.476 170.819C128.135 171.202 128.657 171.742 129.04 172.437C129.423 173.132 129.615 173.923 129.615 174.809C129.615 175.696 129.423 176.487 129.04 177.182C128.669 177.877 128.147 178.422 127.476 178.818C126.817 179.213 126.062 179.411 125.211 179.411ZM125.229 177.649C125.721 177.649 126.146 177.535 126.506 177.308C126.865 177.08 127.141 176.751 127.332 176.319C127.524 175.888 127.62 175.384 127.62 174.809C127.62 174.222 127.524 173.719 127.332 173.299C127.141 172.868 126.865 172.538 126.506 172.311C126.146 172.083 125.721 171.969 125.229 171.969C124.714 171.969 124.277 172.089 123.917 172.329C123.558 172.556 123.282 172.88 123.09 173.299C122.899 173.719 122.803 174.222 122.803 174.809C122.803 175.384 122.899 175.888 123.09 176.319C123.282 176.751 123.558 177.08 123.917 177.308C124.277 177.535 124.714 177.649 125.229 177.649ZM132.138 179.249V171.933H130.449V170.387H132.156V169.381C132.156 168.65 132.276 168.081 132.516 167.673C132.755 167.254 133.073 166.966 133.468 166.811C133.876 166.643 134.325 166.559 134.816 166.559C135.164 166.559 135.469 166.595 135.733 166.667C136.009 166.727 136.266 166.817 136.506 166.936L135.859 168.446C135.739 168.374 135.607 168.32 135.463 168.284C135.332 168.237 135.188 168.213 135.032 168.213C134.709 168.213 134.475 168.32 134.331 168.536C134.199 168.74 134.133 169.021 134.133 169.381V170.387H136.075V171.933H134.133V179.249H132.138ZM145.359 179.411C144.664 179.411 144.077 179.273 143.597 178.997C143.13 178.722 142.776 178.326 142.537 177.811C142.297 177.296 142.177 176.673 142.177 175.942V170.387H144.172V175.402C144.172 175.87 144.226 176.277 144.334 176.625C144.454 176.96 144.64 177.218 144.891 177.398C145.155 177.577 145.509 177.667 145.952 177.667C146.467 177.667 146.869 177.535 147.156 177.272C147.456 176.996 147.666 176.601 147.785 176.085C147.917 175.558 147.983 174.929 147.983 174.198V170.387H149.978V179.249H147.983V177.344L148.325 177.47C148.049 178.141 147.648 178.632 147.12 178.943C146.605 179.255 146.018 179.411 145.359 179.411ZM155.345 179.411C154.71 179.411 154.147 179.321 153.656 179.141C153.165 178.949 152.751 178.71 152.416 178.422C152.08 178.135 151.804 177.847 151.589 177.559L152.955 176.373C153.183 176.745 153.494 177.074 153.89 177.362C154.297 177.649 154.788 177.793 155.363 177.793C155.843 177.793 156.22 177.691 156.496 177.488C156.783 177.284 156.927 177.032 156.927 176.733C156.927 176.469 156.837 176.265 156.658 176.121C156.478 175.966 156.244 175.834 155.957 175.726C155.669 175.618 155.351 175.522 155.004 175.438C154.668 175.355 154.327 175.253 153.979 175.133C153.632 175.001 153.308 174.839 153.009 174.647C152.721 174.456 152.487 174.21 152.308 173.911C152.128 173.611 152.038 173.239 152.038 172.796C152.038 172.017 152.338 171.394 152.937 170.927C153.536 170.459 154.321 170.226 155.292 170.226C155.987 170.226 156.622 170.364 157.197 170.639C157.772 170.915 158.221 171.328 158.545 171.879L157.305 172.832C157.065 172.473 156.765 172.203 156.406 172.023C156.046 171.843 155.657 171.754 155.238 171.754C154.854 171.754 154.531 171.831 154.267 171.987C154.015 172.143 153.89 172.347 153.89 172.598C153.89 172.79 153.949 172.946 154.069 173.066C154.189 173.186 154.375 173.293 154.626 173.389C154.878 173.485 155.196 173.581 155.579 173.677C155.939 173.761 156.31 173.863 156.694 173.982C157.077 174.102 157.431 174.264 157.754 174.468C158.09 174.659 158.359 174.923 158.563 175.259C158.779 175.582 158.886 176.002 158.886 176.517C158.886 177.092 158.737 177.601 158.437 178.045C158.15 178.476 157.736 178.812 157.197 179.051C156.67 179.291 156.052 179.411 155.345 179.411ZM164.669 179.411C163.926 179.411 163.279 179.291 162.728 179.051C162.188 178.812 161.745 178.476 161.398 178.045C161.05 177.613 160.792 177.128 160.625 176.589C160.457 176.038 160.373 175.468 160.373 174.881C160.373 174.294 160.451 173.725 160.607 173.174C160.774 172.61 161.026 172.107 161.362 171.664C161.697 171.22 162.129 170.873 162.656 170.621C163.183 170.358 163.806 170.226 164.525 170.226C165.208 170.226 165.801 170.346 166.305 170.585C166.82 170.813 167.245 171.136 167.581 171.556C167.916 171.963 168.162 172.431 168.318 172.958C168.486 173.485 168.57 174.048 168.57 174.647C168.57 174.731 168.564 174.851 168.552 175.007C168.552 175.163 168.54 175.319 168.516 175.474H162.368C162.416 176.181 162.656 176.721 163.087 177.092C163.519 177.464 164.07 177.649 164.741 177.649C165.232 177.649 165.682 177.571 166.089 177.416C166.496 177.26 166.868 177.014 167.203 176.679L168.3 178.009C167.928 178.344 167.557 178.614 167.185 178.818C166.814 179.021 166.425 179.171 166.017 179.267C165.622 179.363 165.172 179.411 164.669 179.411ZM166.61 174.468C166.634 174.372 166.646 174.276 166.646 174.18C166.658 174.084 166.664 173.988 166.664 173.893C166.664 173.629 166.616 173.377 166.52 173.138C166.437 172.898 166.305 172.688 166.125 172.509C165.945 172.317 165.724 172.167 165.46 172.059C165.196 171.939 164.897 171.879 164.561 171.879C164.094 171.879 163.698 171.981 163.375 172.185C163.063 172.389 162.818 172.652 162.638 172.976C162.47 173.287 162.368 173.629 162.332 174H167.257L166.61 174.468ZM170.511 179.249V170.387H172.524V172.778L172.147 172.832C172.207 172.317 172.38 171.867 172.668 171.484C172.956 171.089 173.303 170.783 173.711 170.567C174.13 170.34 174.543 170.226 174.951 170.226C175.238 170.226 175.514 170.262 175.778 170.334C176.041 170.405 176.317 170.525 176.604 170.693L175.634 172.491C175.502 172.407 175.328 172.341 175.113 172.293C174.909 172.233 174.711 172.203 174.519 172.203C174.268 172.203 174.016 172.251 173.764 172.347C173.525 172.443 173.309 172.592 173.117 172.796C172.926 172.988 172.782 173.239 172.686 173.551C172.626 173.719 172.578 173.94 172.542 174.216C172.518 174.48 172.506 174.851 172.506 175.331V179.249H170.511ZM180.815 179.411C180.18 179.411 179.617 179.321 179.126 179.141C178.635 178.949 178.221 178.71 177.886 178.422C177.55 178.135 177.274 177.847 177.059 177.559L178.425 176.373C178.653 176.745 178.964 177.074 179.36 177.362C179.767 177.649 180.258 177.793 180.833 177.793C181.313 177.793 181.69 177.691 181.966 177.488C182.253 177.284 182.397 177.032 182.397 176.733C182.397 176.469 182.307 176.265 182.128 176.121C181.948 175.966 181.714 175.834 181.427 175.726C181.139 175.618 180.821 175.522 180.474 175.438C180.138 175.355 179.797 175.253 179.449 175.133C179.102 175.001 178.778 174.839 178.479 174.647C178.191 174.456 177.958 174.21 177.778 173.911C177.598 173.611 177.508 173.239 177.508 172.796C177.508 172.017 177.808 171.394 178.407 170.927C179.006 170.459 179.791 170.226 180.762 170.226C181.457 170.226 182.092 170.364 182.667 170.639C183.242 170.915 183.691 171.328 184.015 171.879L182.775 172.832C182.535 172.473 182.235 172.203 181.876 172.023C181.517 171.843 181.127 171.754 180.708 171.754C180.324 171.754 180.001 171.831 179.737 171.987C179.485 172.143 179.36 172.347 179.36 172.598C179.36 172.79 179.419 172.946 179.539 173.066C179.659 173.186 179.845 173.293 180.097 173.389C180.348 173.485 180.666 173.581 181.049 173.677C181.409 173.761 181.78 173.863 182.164 173.982C182.547 174.102 182.901 174.264 183.224 174.468C183.56 174.659 183.829 174.923 184.033 175.259C184.249 175.582 184.357 176.002 184.357 176.517C184.357 177.092 184.207 177.601 183.907 178.045C183.62 178.476 183.206 178.812 182.667 179.051C182.14 179.291 181.522 179.411 180.815 179.411ZM190.926 179.249V170.387H192.921V172.688L192.49 172.94C192.597 172.425 192.747 171.993 192.939 171.646C193.143 171.298 193.376 171.023 193.64 170.819C193.904 170.603 194.185 170.453 194.485 170.37C194.796 170.274 195.108 170.226 195.419 170.226C195.899 170.226 196.348 170.322 196.767 170.513C197.187 170.693 197.54 170.993 197.828 171.412C198.128 171.819 198.331 172.377 198.439 173.084L197.271 173.407C197.451 172.64 197.702 172.029 198.026 171.574C198.349 171.106 198.727 170.765 199.158 170.549C199.602 170.334 200.081 170.226 200.596 170.226C201.351 170.226 201.956 170.393 202.412 170.729C202.879 171.053 203.22 171.484 203.436 172.023C203.652 172.55 203.76 173.12 203.76 173.731V179.249H201.764V174.216C201.764 173.725 201.705 173.311 201.585 172.976C201.477 172.64 201.303 172.389 201.063 172.221C200.824 172.041 200.518 171.951 200.147 171.951C199.751 171.951 199.422 172.053 199.158 172.257C198.895 172.449 198.691 172.748 198.547 173.156C198.415 173.563 198.349 174.066 198.349 174.665V179.249H196.354V174.126C196.354 173.395 196.216 172.85 195.941 172.491C195.665 172.131 195.276 171.951 194.772 171.951C194.377 171.951 194.041 172.053 193.766 172.257C193.49 172.461 193.28 172.766 193.137 173.174C192.993 173.569 192.921 174.066 192.921 174.665V179.249H190.926ZM211.703 179.249L211.559 177.757V173.659C211.559 173.084 211.385 172.652 211.037 172.365C210.69 172.065 210.205 171.915 209.581 171.915C209.102 171.915 208.629 172.011 208.161 172.203C207.706 172.383 207.287 172.664 206.903 173.048L205.789 171.736C206.364 171.196 206.975 170.813 207.622 170.585C208.269 170.346 208.976 170.226 209.743 170.226C210.942 170.226 211.87 170.531 212.529 171.142C213.2 171.742 213.536 172.58 213.536 173.659V179.249H211.703ZM208.952 179.411C208.293 179.411 207.706 179.291 207.191 179.051C206.688 178.812 206.292 178.476 206.005 178.045C205.729 177.613 205.591 177.11 205.591 176.535C205.591 176.044 205.693 175.618 205.897 175.259C206.112 174.899 206.388 174.618 206.724 174.414C207.011 174.234 207.347 174.108 207.73 174.036C208.114 173.952 208.515 173.911 208.934 173.911H211.72V175.402H209.222C209.006 175.402 208.791 175.426 208.575 175.474C208.359 175.51 208.167 175.582 208 175.69C207.88 175.786 207.778 175.906 207.694 176.05C207.622 176.193 207.586 176.361 207.586 176.553C207.586 176.936 207.73 177.242 208.018 177.47C208.317 177.685 208.713 177.793 209.204 177.793C209.635 177.793 210.025 177.697 210.372 177.505C210.732 177.314 211.019 177.05 211.235 176.715C211.451 176.379 211.559 176.002 211.559 175.582L212.17 176.571C212.026 177.194 211.798 177.721 211.487 178.153C211.175 178.572 210.804 178.89 210.372 179.105C209.941 179.309 209.468 179.411 208.952 179.411ZM221.767 179.249L219.089 175.025L217.579 176.697V174.162L221.192 170.387H223.745L220.545 173.695L224.14 179.249H221.767ZM215.764 179.249V166.721H217.759V179.249H215.764ZM229.002 179.411C228.259 179.411 227.612 179.291 227.061 179.051C226.522 178.812 226.078 178.476 225.731 178.045C225.383 177.613 225.126 177.128 224.958 176.589C224.79 176.038 224.706 175.468 224.706 174.881C224.706 174.294 224.784 173.725 224.94 173.174C225.108 172.61 225.359 172.107 225.695 171.664C226.031 171.22 226.462 170.873 226.989 170.621C227.516 170.358 228.14 170.226 228.859 170.226C229.542 170.226 230.135 170.346 230.638 170.585C231.153 170.813 231.579 171.136 231.914 171.556C232.25 171.963 232.495 172.431 232.651 172.958C232.819 173.485 232.903 174.048 232.903 174.647C232.903 174.731 232.897 174.851 232.885 175.007C232.885 175.163 232.873 175.319 232.849 175.474H226.702C226.749 176.181 226.989 176.721 227.421 177.092C227.852 177.464 228.403 177.649 229.074 177.649C229.566 177.649 230.015 177.571 230.422 177.416C230.83 177.26 231.201 177.014 231.537 176.679L232.633 178.009C232.262 178.344 231.89 178.614 231.519 178.818C231.147 179.021 230.758 179.171 230.35 179.267C229.955 179.363 229.506 179.411 229.002 179.411ZM230.944 174.468C230.968 174.372 230.98 174.276 230.98 174.18C230.992 174.084 230.998 173.988 230.998 173.893C230.998 173.629 230.95 173.377 230.854 173.138C230.77 172.898 230.638 172.688 230.458 172.509C230.279 172.317 230.057 172.167 229.793 172.059C229.53 171.939 229.23 171.879 228.894 171.879C228.427 171.879 228.032 171.981 227.708 172.185C227.397 172.389 227.151 172.652 226.971 172.976C226.803 173.287 226.702 173.629 226.666 174H231.591L230.944 174.468ZM242.731 179.411C242.288 179.411 241.868 179.327 241.473 179.159C241.089 178.979 240.784 178.698 240.556 178.314C240.328 177.919 240.215 177.404 240.215 176.769V168.231L242.228 167.116V176.211C242.228 176.715 242.3 177.104 242.443 177.38C242.599 177.643 242.875 177.775 243.27 177.775C243.39 177.775 243.528 177.763 243.684 177.739C243.851 177.703 244.025 177.661 244.205 177.613V179.159C243.965 179.243 243.72 179.303 243.468 179.339C243.228 179.387 242.983 179.411 242.731 179.411ZM238.525 171.933V170.387H244.205V171.933H238.525ZM245.991 179.249V170.387H248.004V172.778L247.627 172.832C247.686 172.317 247.86 171.867 248.148 171.484C248.435 171.089 248.783 170.783 249.19 170.567C249.61 170.34 250.023 170.226 250.431 170.226C250.718 170.226 250.994 170.262 251.257 170.334C251.521 170.405 251.797 170.525 252.084 170.693L251.114 172.491C250.982 172.407 250.808 172.341 250.592 172.293C250.389 172.233 250.191 172.203 249.999 172.203C249.748 172.203 249.496 172.251 249.244 172.347C249.005 172.443 248.789 172.592 248.597 172.796C248.405 172.988 248.262 173.239 248.166 173.551C248.106 173.719 248.058 173.94 248.022 174.216C247.998 174.48 247.986 174.851 247.986 175.331V179.249H245.991ZM259.062 179.249L258.918 177.757V173.659C258.918 173.084 258.744 172.652 258.397 172.365C258.049 172.065 257.564 171.915 256.941 171.915C256.461 171.915 255.988 172.011 255.521 172.203C255.065 172.383 254.646 172.664 254.262 173.048L253.148 171.736C253.723 171.196 254.334 170.813 254.981 170.585C255.628 170.346 256.336 170.226 257.102 170.226C258.301 170.226 259.229 170.531 259.889 171.142C260.56 171.742 260.895 172.58 260.895 173.659V179.249H259.062ZM256.312 179.411C255.652 179.411 255.065 179.291 254.55 179.051C254.047 178.812 253.651 178.476 253.364 178.045C253.088 177.613 252.95 177.11 252.95 176.535C252.95 176.044 253.052 175.618 253.256 175.259C253.472 174.899 253.747 174.618 254.083 174.414C254.37 174.234 254.706 174.108 255.089 174.036C255.473 173.952 255.874 173.911 256.294 173.911H259.08V175.402H256.581C256.365 175.402 256.15 175.426 255.934 175.474C255.718 175.51 255.527 175.582 255.359 175.69C255.239 175.786 255.137 175.906 255.053 176.05C254.981 176.193 254.945 176.361 254.945 176.553C254.945 176.936 255.089 177.242 255.377 177.47C255.676 177.685 256.072 177.793 256.563 177.793C256.995 177.793 257.384 177.697 257.732 177.505C258.091 177.314 258.379 177.05 258.594 176.715C258.81 176.379 258.918 176.002 258.918 175.582L259.529 176.571C259.385 177.194 259.158 177.721 258.846 178.153C258.534 178.572 258.163 178.89 257.732 179.105C257.3 179.309 256.827 179.411 256.312 179.411ZM265.645 179.249L262.032 170.387H264.225L266.472 176.661L268.755 170.387H270.912L267.299 179.249H265.645ZM276.01 179.411C275.267 179.411 274.62 179.291 274.069 179.051C273.53 178.812 273.087 178.476 272.739 178.045C272.392 177.613 272.134 177.128 271.966 176.589C271.798 176.038 271.714 175.468 271.714 174.881C271.714 174.294 271.792 173.725 271.948 173.174C272.116 172.61 272.368 172.107 272.703 171.664C273.039 171.22 273.47 170.873 273.997 170.621C274.525 170.358 275.148 170.226 275.867 170.226C276.55 170.226 277.143 170.346 277.646 170.585C278.161 170.813 278.587 171.136 278.922 171.556C279.258 171.963 279.504 172.431 279.659 172.958C279.827 173.485 279.911 174.048 279.911 174.647C279.911 174.731 279.905 174.851 279.893 175.007C279.893 175.163 279.881 175.319 279.857 175.474H273.71C273.758 176.181 273.997 176.721 274.429 177.092C274.86 177.464 275.411 177.649 276.082 177.649C276.574 177.649 277.023 177.571 277.43 177.416C277.838 177.26 278.209 177.014 278.545 176.679L279.641 178.009C279.27 178.344 278.898 178.614 278.527 178.818C278.155 179.021 277.766 179.171 277.359 179.267C276.963 179.363 276.514 179.411 276.01 179.411ZM277.952 174.468C277.976 174.372 277.988 174.276 277.988 174.18C278 174.084 278.006 173.988 278.006 173.893C278.006 173.629 277.958 173.377 277.862 173.138C277.778 172.898 277.646 172.688 277.466 172.509C277.287 172.317 277.065 172.167 276.801 172.059C276.538 171.939 276.238 171.879 275.903 171.879C275.435 171.879 275.04 171.981 274.716 172.185C274.405 172.389 274.159 172.652 273.979 172.976C273.812 173.287 273.71 173.629 273.674 174H278.599L277.952 174.468ZM283.812 179.411C283.237 179.411 282.757 179.237 282.374 178.89C281.99 178.53 281.799 177.961 281.799 177.182V166.721H283.794V176.786C283.794 177.062 283.854 177.266 283.974 177.398C284.105 177.517 284.273 177.577 284.477 177.577C284.585 177.577 284.692 177.565 284.8 177.541C284.92 177.517 285.04 177.488 285.16 177.452V179.141C284.932 179.237 284.698 179.303 284.459 179.339C284.219 179.387 284.003 179.411 283.812 179.411ZM34.4755 218.916V206.387H36.4527V208.85L35.9494 208.868C36.1052 208.221 36.3329 207.706 36.6325 207.322C36.944 206.939 37.3095 206.663 37.7289 206.495C38.1603 206.316 38.6157 206.226 39.095 206.226C39.8859 206.226 40.5689 206.429 41.1441 206.837C41.7193 207.232 42.1627 207.778 42.4742 208.473C42.7978 209.168 42.9596 209.952 42.9596 210.827C42.9596 211.774 42.7858 212.595 42.4383 213.29C42.0908 213.973 41.6234 214.5 41.0363 214.872C40.4611 215.231 39.814 215.411 39.095 215.411C38.5917 215.411 38.1244 215.315 37.693 215.123C37.2735 214.931 36.9141 214.644 36.6145 214.26C36.3269 213.877 36.1232 213.41 36.0033 212.858L36.4527 212.769V218.916H34.4755ZM38.6097 213.595C39.077 213.595 39.4844 213.482 39.832 213.254C40.1914 213.026 40.4671 212.703 40.6588 212.283C40.8505 211.864 40.9464 211.378 40.9464 210.827C40.9464 210.276 40.8505 209.791 40.6588 209.371C40.4671 208.952 40.1914 208.628 39.832 208.401C39.4844 208.173 39.077 208.059 38.6097 208.059C38.1423 208.059 37.7289 208.173 37.3694 208.401C37.0219 208.628 36.7523 208.952 36.5606 209.371C36.3688 209.791 36.273 210.276 36.273 210.827C36.273 211.378 36.3688 211.864 36.5606 212.283C36.7523 212.691 37.0219 213.014 37.3694 213.254C37.7289 213.482 38.1423 213.595 38.6097 213.595ZM46.8439 215.411C46.2687 215.411 45.7894 215.237 45.4059 214.89C45.0225 214.53 44.8307 213.961 44.8307 213.182V202.721H46.8259V212.786C46.8259 213.062 46.8859 213.266 47.0057 213.398C47.1375 213.517 47.3053 213.577 47.509 213.577C47.6168 213.577 47.7247 213.565 47.8325 213.541C47.9524 213.517 48.0722 213.488 48.192 213.452V215.141C47.9643 215.237 47.7307 215.303 47.491 215.339C47.2513 215.387 47.0356 215.411 46.8439 215.411ZM55.5156 215.249L55.3718 213.757V209.659C55.3718 209.084 55.198 208.652 54.8505 208.365C54.503 208.065 54.0177 207.915 53.3946 207.915C52.9152 207.915 52.4419 208.011 51.9746 208.203C51.5192 208.383 51.0998 208.664 50.7163 209.048L49.6019 207.736C50.1771 207.196 50.7882 206.813 51.4353 206.585C52.0824 206.346 52.7894 206.226 53.5563 206.226C54.7547 206.226 55.6834 206.531 56.3424 207.142C57.0135 207.742 57.349 208.58 57.349 209.659V215.249H55.5156ZM52.7655 215.411C52.1064 215.411 51.5192 215.291 51.0039 215.051C50.5006 214.812 50.1052 214.476 49.8176 214.045C49.542 213.613 49.4042 213.11 49.4042 212.535C49.4042 212.044 49.506 211.618 49.7098 211.259C49.9255 210.899 50.2011 210.618 50.5366 210.414C50.8242 210.234 51.1597 210.108 51.5432 210.036C51.9266 209.952 52.3281 209.911 52.7475 209.911H55.5336V211.402H53.0351C52.8194 211.402 52.6037 211.426 52.388 211.474C52.1723 211.51 51.9806 211.582 51.8128 211.69C51.693 211.786 51.5911 211.906 51.5072 212.05C51.4353 212.193 51.3994 212.361 51.3994 212.553C51.3994 212.936 51.5432 213.242 51.8308 213.47C52.1304 213.685 52.5258 213.793 53.0171 213.793C53.4485 213.793 53.838 213.697 54.1855 213.505C54.545 213.314 54.8326 213.05 55.0482 212.715C55.2639 212.379 55.3718 212.002 55.3718 211.582L55.9829 212.571C55.8391 213.194 55.6115 213.721 55.2999 214.153C54.9883 214.572 54.6169 214.89 54.1855 215.105C53.7541 215.309 53.2807 215.411 52.7655 215.411ZM59.5769 215.249V206.387H61.5721V208.347L61.2126 208.437C61.3684 207.921 61.5961 207.502 61.8956 207.178C62.1952 206.855 62.5427 206.615 62.9382 206.459C63.3456 206.304 63.771 206.226 64.2144 206.226C65.209 206.226 65.9819 206.513 66.5331 207.089C67.0963 207.652 67.3779 208.461 67.3779 209.515V215.249H65.3827V210.252C65.3827 209.461 65.2389 208.88 64.9513 208.509C64.6637 208.137 64.2204 207.951 63.6212 207.951C63.1778 207.951 62.8004 208.059 62.4888 208.275C62.1892 208.479 61.9615 208.802 61.8058 209.245C61.65 209.689 61.5721 210.252 61.5721 210.935V215.249H59.5769ZM72.6372 215.411C72.0021 215.411 71.4389 215.321 70.9476 215.141C70.4563 214.949 70.0429 214.71 69.7073 214.422C69.3718 214.135 69.0962 213.847 68.8805 213.559L70.2466 212.373C70.4743 212.745 70.7858 213.074 71.1813 213.362C71.5887 213.649 72.08 213.793 72.6552 213.793C73.1345 213.793 73.512 213.691 73.7876 213.488C74.0752 213.284 74.219 213.032 74.219 212.733C74.219 212.469 74.1291 212.265 73.9494 212.121C73.7696 211.966 73.5359 211.834 73.2483 211.726C72.9608 211.618 72.6432 211.522 72.2957 211.438C71.9602 211.355 71.6186 211.253 71.2711 211.133C70.9236 211.001 70.6001 210.839 70.3005 210.647C70.0129 210.456 69.7792 210.21 69.5995 209.911C69.4197 209.611 69.3299 209.239 69.3299 208.796C69.3299 208.017 69.6294 207.394 70.2286 206.927C70.8278 206.459 71.6127 206.226 72.5833 206.226C73.2783 206.226 73.9134 206.364 74.4886 206.639C75.0638 206.915 75.5132 207.328 75.8367 207.879L74.5965 208.832C74.3568 208.473 74.0572 208.203 73.6977 208.023C73.3382 207.843 72.9488 207.754 72.5294 207.754C72.1459 207.754 71.8224 207.831 71.5587 207.987C71.3071 208.143 71.1813 208.347 71.1813 208.598C71.1813 208.79 71.2412 208.946 71.361 209.066C71.4808 209.186 71.6666 209.293 71.9182 209.389C72.1699 209.485 72.4874 209.581 72.8709 209.677C73.2304 209.761 73.6019 209.863 73.9853 209.982C74.3688 210.102 74.7223 210.264 75.0458 210.468C75.3813 210.659 75.651 210.923 75.8547 211.259C76.0704 211.582 76.1782 212.002 76.1782 212.517C76.1782 213.092 76.0284 213.601 75.7289 214.045C75.4413 214.476 75.0278 214.812 74.4886 215.051C73.9613 215.291 73.3442 215.411 72.6372 215.411ZM83.4484 215.249V207.933H81.7588V206.387H83.4664V205.381C83.4664 204.65 83.5862 204.081 83.8259 203.673C84.0656 203.254 84.3831 202.966 84.7786 202.811C85.186 202.643 85.6354 202.559 86.1267 202.559C86.4742 202.559 86.7798 202.595 87.0434 202.667C87.319 202.727 87.5766 202.817 87.8163 202.936L87.1692 204.446C87.0494 204.374 86.9176 204.32 86.7738 204.284C86.6419 204.237 86.4981 204.213 86.3424 204.213C86.0188 204.213 85.7852 204.32 85.6414 204.536C85.5095 204.74 85.4436 205.021 85.4436 205.381V206.387H87.3849V207.933H85.4436V215.249H83.4484ZM92.548 215.411C91.7092 215.411 90.9542 215.213 90.2832 214.818C89.6121 214.422 89.0849 213.877 88.7014 213.182C88.3299 212.487 88.1442 211.696 88.1442 210.809C88.1442 209.923 88.3299 209.132 88.7014 208.437C89.0849 207.742 89.6061 207.202 90.2652 206.819C90.9363 206.423 91.6972 206.226 92.548 206.226C93.4108 206.226 94.1657 206.423 94.8128 206.819C95.4719 207.202 95.9931 207.742 96.3766 208.437C96.7601 209.132 96.9518 209.923 96.9518 210.809C96.9518 211.696 96.7601 212.487 96.3766 213.182C96.0051 213.877 95.4839 214.422 94.8128 214.818C94.1537 215.213 93.3988 215.411 92.548 215.411ZM92.566 213.649C93.0573 213.649 93.4827 213.535 93.8422 213.308C94.2017 213.08 94.4773 212.751 94.669 212.319C94.8607 211.888 94.9566 211.384 94.9566 210.809C94.9566 210.222 94.8607 209.719 94.669 209.299C94.4773 208.868 94.2017 208.538 93.8422 208.311C93.4827 208.083 93.0573 207.969 92.566 207.969C92.0507 207.969 91.6133 208.089 91.2538 208.329C90.8943 208.556 90.6187 208.88 90.427 209.299C90.2352 209.719 90.1394 210.222 90.1394 210.809C90.1394 211.384 90.2352 211.888 90.427 212.319C90.6187 212.751 90.8943 213.08 91.2538 213.308C91.6133 213.535 92.0507 213.649 92.566 213.649ZM98.879 215.249V206.387H100.892V208.778L100.515 208.832C100.575 208.317 100.748 207.867 101.036 207.484C101.324 207.089 101.671 206.783 102.079 206.567C102.498 206.34 102.911 206.226 103.319 206.226C103.606 206.226 103.882 206.262 104.146 206.334C104.409 206.405 104.685 206.525 104.972 206.693L104.002 208.491C103.87 208.407 103.696 208.341 103.481 208.293C103.277 208.233 103.079 208.203 102.887 208.203C102.636 208.203 102.384 208.251 102.132 208.347C101.893 208.443 101.677 208.592 101.485 208.796C101.294 208.988 101.15 209.239 101.054 209.551C100.994 209.719 100.946 209.94 100.91 210.216C100.886 210.48 100.874 210.851 100.874 211.331V215.249H98.879ZM114.979 215.411C114.236 215.411 113.589 215.291 113.037 215.051C112.498 214.812 112.055 214.476 111.707 214.045C111.36 213.613 111.102 213.128 110.934 212.589C110.767 212.038 110.683 211.468 110.683 210.881C110.683 210.294 110.761 209.725 110.916 209.174C111.084 208.61 111.336 208.107 111.671 207.664C112.007 207.22 112.438 206.873 112.966 206.621C113.493 206.358 114.116 206.226 114.835 206.226C115.518 206.226 116.111 206.346 116.614 206.585C117.13 206.813 117.555 207.136 117.891 207.556C118.226 207.963 118.472 208.431 118.628 208.958C118.795 209.485 118.879 210.048 118.879 210.647C118.879 210.731 118.873 210.851 118.861 211.007C118.861 211.163 118.849 211.319 118.825 211.474H112.678C112.726 212.181 112.966 212.721 113.397 213.092C113.828 213.464 114.38 213.649 115.051 213.649C115.542 213.649 115.991 213.571 116.399 213.416C116.806 213.26 117.178 213.014 117.513 212.679L118.61 214.009C118.238 214.344 117.867 214.614 117.495 214.818C117.124 215.021 116.734 215.171 116.327 215.267C115.931 215.363 115.482 215.411 114.979 215.411ZM116.92 210.468C116.944 210.372 116.956 210.276 116.956 210.18C116.968 210.084 116.974 209.988 116.974 209.893C116.974 209.629 116.926 209.377 116.83 209.138C116.746 208.898 116.614 208.688 116.435 208.509C116.255 208.317 116.033 208.167 115.77 208.059C115.506 207.939 115.206 207.879 114.871 207.879C114.404 207.879 114.008 207.981 113.685 208.185C113.373 208.389 113.127 208.652 112.948 208.976C112.78 209.287 112.678 209.629 112.642 210H117.567L116.92 210.468ZM123.361 215.249L119.748 206.387H121.941L124.188 212.661L126.47 206.387H128.627L125.014 215.249H123.361ZM133.726 215.411C132.983 215.411 132.336 215.291 131.785 215.051C131.245 214.812 130.802 214.476 130.454 214.045C130.107 213.613 129.849 213.128 129.682 212.589C129.514 212.038 129.43 211.468 129.43 210.881C129.43 210.294 129.508 209.725 129.664 209.174C129.831 208.61 130.083 208.107 130.418 207.664C130.754 207.22 131.185 206.873 131.713 206.621C132.24 206.358 132.863 206.226 133.582 206.226C134.265 206.226 134.858 206.346 135.362 206.585C135.877 206.813 136.302 207.136 136.638 207.556C136.973 207.963 137.219 208.431 137.375 208.958C137.542 209.485 137.626 210.048 137.626 210.647C137.626 210.731 137.62 210.851 137.608 211.007C137.608 211.163 137.596 211.319 137.572 211.474H131.425C131.473 212.181 131.713 212.721 132.144 213.092C132.575 213.464 133.127 213.649 133.798 213.649C134.289 213.649 134.738 213.571 135.146 213.416C135.553 213.26 135.925 213.014 136.26 212.679L137.357 214.009C136.985 214.344 136.614 214.614 136.242 214.818C135.871 215.021 135.481 215.171 135.074 215.267C134.678 215.363 134.229 215.411 133.726 215.411ZM135.667 210.468C135.691 210.372 135.703 210.276 135.703 210.18C135.715 210.084 135.721 209.988 135.721 209.893C135.721 209.629 135.673 209.377 135.577 209.138C135.493 208.898 135.362 208.688 135.182 208.509C135.002 208.317 134.78 208.167 134.517 208.059C134.253 207.939 133.954 207.879 133.618 207.879C133.151 207.879 132.755 207.981 132.432 208.185C132.12 208.389 131.874 208.652 131.695 208.976C131.527 209.287 131.425 209.629 131.389 210H136.314L135.667 210.468ZM139.568 215.249V206.387H141.581V208.778L141.204 208.832C141.263 208.317 141.437 207.867 141.725 207.484C142.012 207.089 142.36 206.783 142.767 206.567C143.187 206.34 143.6 206.226 144.008 206.226C144.295 206.226 144.571 206.262 144.834 206.334C145.098 206.405 145.374 206.525 145.661 206.693L144.691 208.491C144.559 208.407 144.385 208.341 144.169 208.293C143.966 208.233 143.768 208.203 143.576 208.203C143.325 208.203 143.073 208.251 142.821 208.347C142.582 208.443 142.366 208.592 142.174 208.796C141.982 208.988 141.839 209.239 141.743 209.551C141.683 209.719 141.635 209.94 141.599 210.216C141.575 210.48 141.563 210.851 141.563 211.331V215.249H139.568ZM147.889 218.898L149.65 214.656L146.271 206.387H148.464L150.711 212.661L152.994 206.387H155.151L150.046 218.898H147.889ZM164.534 215.411C164.091 215.411 163.671 215.327 163.276 215.159C162.892 214.979 162.587 214.698 162.359 214.314C162.131 213.919 162.018 213.404 162.018 212.769V204.231L164.031 203.116V212.211C164.031 212.715 164.103 213.104 164.246 213.38C164.402 213.643 164.678 213.775 165.073 213.775C165.193 213.775 165.331 213.763 165.487 213.739C165.654 213.703 165.828 213.661 166.008 213.613V215.159C165.768 215.243 165.523 215.303 165.271 215.339C165.031 215.387 164.786 215.411 164.534 215.411ZM160.328 207.933V206.387H166.008V207.933H160.328ZM167.794 215.249V206.387H169.807V208.778L169.429 208.832C169.489 208.317 169.663 207.867 169.951 207.484C170.238 207.089 170.586 206.783 170.993 206.567C171.413 206.34 171.826 206.226 172.234 206.226C172.521 206.226 172.797 206.262 173.06 206.334C173.324 206.405 173.6 206.525 173.887 206.693L172.917 208.491C172.785 208.407 172.611 208.341 172.395 208.293C172.192 208.233 171.994 208.203 171.802 208.203C171.551 208.203 171.299 208.251 171.047 208.347C170.808 208.443 170.592 208.592 170.4 208.796C170.208 208.988 170.065 209.239 169.969 209.551C169.909 209.719 169.861 209.94 169.825 210.216C169.801 210.48 169.789 210.851 169.789 211.331V215.249H167.794ZM175.324 215.249V206.387H177.319V215.249H175.324ZM175.234 204.932V202.721H177.409V204.932H175.234ZM179.642 218.916V206.387H181.62V208.85L181.116 208.868C181.272 208.221 181.5 207.706 181.799 207.322C182.111 206.939 182.476 206.663 182.896 206.495C183.327 206.316 183.783 206.226 184.262 206.226C185.053 206.226 185.736 206.429 186.311 206.837C186.886 207.232 187.33 207.778 187.641 208.473C187.965 209.168 188.126 209.952 188.126 210.827C188.126 211.774 187.953 212.595 187.605 213.29C187.258 213.973 186.79 214.5 186.203 214.872C185.628 215.231 184.981 215.411 184.262 215.411C183.759 215.411 183.291 215.315 182.86 215.123C182.44 214.931 182.081 214.644 181.781 214.26C181.494 213.877 181.29 213.41 181.17 212.858L181.62 212.769V218.916H179.642ZM183.777 213.595C184.244 213.595 184.651 213.482 184.999 213.254C185.358 213.026 185.634 212.703 185.826 212.283C186.017 211.864 186.113 211.378 186.113 210.827C186.113 210.276 186.017 209.791 185.826 209.371C185.634 208.952 185.358 208.628 184.999 208.401C184.651 208.173 184.244 208.059 183.777 208.059C183.309 208.059 182.896 208.173 182.536 208.401C182.189 208.628 181.919 208.952 181.727 209.371C181.536 209.791 181.44 210.276 181.44 210.827C181.44 211.378 181.536 211.864 181.727 212.283C181.919 212.691 182.189 213.014 182.536 213.254C182.896 213.482 183.309 213.595 183.777 213.595ZM197.938 215.411C197.495 215.411 197.075 215.327 196.68 215.159C196.297 214.979 195.991 214.698 195.763 214.314C195.536 213.919 195.422 213.404 195.422 212.769V204.231L197.435 203.116V212.211C197.435 212.715 197.507 213.104 197.651 213.38C197.806 213.643 198.082 213.775 198.477 213.775C198.597 213.775 198.735 213.763 198.891 213.739C199.059 213.703 199.232 213.661 199.412 213.613V215.159C199.173 215.243 198.927 215.303 198.675 215.339C198.436 215.387 198.19 215.411 197.938 215.411ZM193.732 207.933V206.387H199.412V207.933H193.732ZM201.198 215.249V202.721H203.193V208.347L202.834 208.437C202.989 207.921 203.217 207.502 203.517 207.178C203.828 206.855 204.182 206.615 204.577 206.459C204.973 206.304 205.392 206.226 205.835 206.226C206.83 206.226 207.603 206.513 208.154 207.089C208.717 207.652 208.999 208.461 208.999 209.515V215.249H207.004V210.252C207.004 209.461 206.86 208.88 206.572 208.509C206.285 208.137 205.841 207.951 205.242 207.951C204.571 207.951 204.062 208.191 203.714 208.67C203.367 209.15 203.193 209.905 203.193 210.935V215.249H201.198ZM215.121 215.411C214.378 215.411 213.731 215.291 213.18 215.051C212.641 214.812 212.197 214.476 211.85 214.045C211.502 213.613 211.245 213.128 211.077 212.589C210.909 212.038 210.825 211.468 210.825 210.881C210.825 210.294 210.903 209.725 211.059 209.174C211.227 208.61 211.478 208.107 211.814 207.664C212.149 207.22 212.581 206.873 213.108 206.621C213.635 206.358 214.258 206.226 214.977 206.226C215.66 206.226 216.253 206.346 216.757 206.585C217.272 206.813 217.697 207.136 218.033 207.556C218.369 207.963 218.614 208.431 218.77 208.958C218.938 209.485 219.022 210.048 219.022 210.647C219.022 210.731 219.016 210.851 219.004 211.007C219.004 211.163 218.992 211.319 218.968 211.474H212.82C212.868 212.181 213.108 212.721 213.539 213.092C213.971 213.464 214.522 213.649 215.193 213.649C215.684 213.649 216.134 213.571 216.541 213.416C216.949 213.26 217.32 213.014 217.656 212.679L218.752 214.009C218.381 214.344 218.009 214.614 217.638 214.818C217.266 215.021 216.877 215.171 216.469 215.267C216.074 215.363 215.624 215.411 215.121 215.411ZM217.062 210.468C217.086 210.372 217.098 210.276 217.098 210.18C217.11 210.084 217.116 209.988 217.116 209.893C217.116 209.629 217.068 209.377 216.972 209.138C216.889 208.898 216.757 208.688 216.577 208.509C216.397 208.317 216.176 208.167 215.912 208.059C215.648 207.939 215.349 207.879 215.013 207.879C214.546 207.879 214.15 207.981 213.827 208.185C213.515 208.389 213.27 208.652 213.09 208.976C212.922 209.287 212.82 209.629 212.784 210H217.709L217.062 210.468ZM221.508 218.898L223.269 214.656L219.89 206.387H222.083L224.33 212.661L226.613 206.387H228.77L223.665 218.898H221.508ZM238.153 215.411C237.71 215.411 237.29 215.327 236.895 215.159C236.511 214.979 236.206 214.698 235.978 214.314C235.751 213.919 235.637 213.404 235.637 212.769V204.231L237.65 203.116V212.211C237.65 212.715 237.722 213.104 237.866 213.38C238.021 213.643 238.297 213.775 238.692 213.775C238.812 213.775 238.95 213.763 239.106 213.739C239.274 213.703 239.447 213.661 239.627 213.613V215.159C239.387 215.243 239.142 215.303 238.89 215.339C238.65 215.387 238.405 215.411 238.153 215.411ZM233.947 207.933V206.387H239.627V207.933H233.947ZM247.129 215.249L246.985 213.757V209.659C246.985 209.084 246.811 208.652 246.464 208.365C246.116 208.065 245.631 207.915 245.008 207.915C244.529 207.915 244.055 208.011 243.588 208.203C243.132 208.383 242.713 208.664 242.33 209.048L241.215 207.736C241.79 207.196 242.402 206.813 243.049 206.585C243.696 206.346 244.403 206.226 245.17 206.226C246.368 206.226 247.297 206.531 247.956 207.142C248.627 207.742 248.962 208.58 248.962 209.659V215.249H247.129ZM244.379 215.411C243.72 215.411 243.132 215.291 242.617 215.051C242.114 214.812 241.718 214.476 241.431 214.045C241.155 213.613 241.017 213.11 241.017 212.535C241.017 212.044 241.119 211.618 241.323 211.259C241.539 210.899 241.814 210.618 242.15 210.414C242.437 210.234 242.773 210.108 243.156 210.036C243.54 209.952 243.941 209.911 244.361 209.911H247.147V211.402H244.648C244.433 211.402 244.217 211.426 244.001 211.474C243.786 211.51 243.594 211.582 243.426 211.69C243.306 211.786 243.204 211.906 243.12 212.05C243.049 212.193 243.013 212.361 243.013 212.553C243.013 212.936 243.156 213.242 243.444 213.47C243.744 213.685 244.139 213.793 244.63 213.793C245.062 213.793 245.451 213.697 245.799 213.505C246.158 213.314 246.446 213.05 246.662 212.715C246.877 212.379 246.985 212.002 246.985 211.582L247.596 212.571C247.452 213.194 247.225 213.721 246.913 214.153C246.602 214.572 246.23 214.89 245.799 215.105C245.367 215.309 244.894 215.411 244.379 215.411ZM257.194 215.249L254.515 211.025L253.006 212.697V210.162L256.619 206.387H259.171L255.971 209.695L259.566 215.249H257.194ZM251.19 215.249V202.721H253.185V215.249H251.19ZM264.429 215.411C263.686 215.411 263.039 215.291 262.487 215.051C261.948 214.812 261.505 214.476 261.157 214.045C260.81 213.613 260.552 213.128 260.384 212.589C260.217 212.038 260.133 211.468 260.133 210.881C260.133 210.294 260.211 209.725 260.366 209.174C260.534 208.61 260.786 208.107 261.121 207.664C261.457 207.22 261.888 206.873 262.416 206.621C262.943 206.358 263.566 206.226 264.285 206.226C264.968 206.226 265.561 206.346 266.064 206.585C266.58 206.813 267.005 207.136 267.341 207.556C267.676 207.963 267.922 208.431 268.078 208.958C268.245 209.485 268.329 210.048 268.329 210.647C268.329 210.731 268.323 210.851 268.311 211.007C268.311 211.163 268.299 211.319 268.275 211.474H262.128C262.176 212.181 262.416 212.721 262.847 213.092C263.278 213.464 263.83 213.649 264.501 213.649C264.992 213.649 265.441 213.571 265.849 213.416C266.256 213.26 266.628 213.014 266.963 212.679L268.06 214.009C267.688 214.344 267.317 214.614 266.945 214.818C266.574 215.021 266.184 215.171 265.777 215.267C265.381 215.363 264.932 215.411 264.429 215.411ZM266.37 210.468C266.394 210.372 266.406 210.276 266.406 210.18C266.418 210.084 266.424 209.988 266.424 209.893C266.424 209.629 266.376 209.377 266.28 209.138C266.196 208.898 266.064 208.688 265.885 208.509C265.705 208.317 265.483 208.167 265.22 208.059C264.956 207.939 264.656 207.879 264.321 207.879C263.853 207.879 263.458 207.981 263.134 208.185C262.823 208.389 262.577 208.652 262.398 208.976C262.23 209.287 262.128 209.629 262.092 210H267.017L266.37 210.468ZM270.163 215.249V212.984H272.356V215.249H270.163Z" fill="white"/>
<path d="M457.362 139.749C457.362 149.815 455.315 159.777 451.346 169.029C447.377 178.28 441.569 186.628 434.274 193.565C426.979 200.502 418.35 205.884 408.911 209.383C399.471 212.882 389.419 214.426 379.365 213.92C369.311 213.414 359.465 210.87 350.425 206.441C341.384 202.012 333.339 195.791 326.777 188.157C320.215 180.523 315.274 171.634 312.253 162.031C309.233 152.428 308.196 142.311 309.207 132.295L350.09 136.419C349.638 140.893 350.101 145.413 351.451 149.702C352.8 153.992 355.007 157.963 357.938 161.373C360.87 164.783 364.464 167.562 368.502 169.54C372.54 171.519 376.939 172.655 381.43 172.881C385.921 173.107 390.411 172.418 394.628 170.855C398.844 169.292 402.699 166.888 405.958 163.789C409.217 160.69 411.811 156.961 413.584 152.828C415.357 148.695 416.271 144.245 416.271 139.749H457.362Z" fill="#B1EF62"/>
<path d="M465.142 139.748C465.142 160.741 457.096 180.934 442.659 196.174C428.222 211.413 408.492 220.539 387.531 221.674C366.569 222.808 345.97 215.865 329.973 202.273C313.975 188.68 303.796 169.473 301.531 148.603C299.265 127.734 305.085 106.789 317.793 90.0808C330.501 73.3721 349.13 62.1702 369.847 58.7801C390.564 55.39 411.792 60.0697 429.163 71.8562C446.534 83.6427 458.726 101.639 463.231 122.142L460.667 122.706C456.307 102.858 444.504 85.4376 427.689 74.0281C410.874 62.6187 390.325 58.0887 370.271 61.3703C350.217 64.6519 332.184 75.4956 319.882 91.6697C307.581 107.844 301.947 128.118 304.14 148.32C306.333 168.522 316.186 187.115 331.672 200.272C347.158 213.43 367.098 220.151 387.389 219.053C407.68 217.955 426.778 209.121 440.753 194.369C454.728 179.617 462.518 160.069 462.518 139.748H465.142Z" fill="#EF6262"/>
<path d="M455.639 123.846C456.773 129.017 457.35 134.294 457.362 139.587L451.262 139.601C451.251 134.742 450.721 129.899 449.681 125.153L455.639 123.846Z" fill="#7B7B7B"/>
<path d="M431.293 83.2474C443.59 93.7362 452.128 107.95 455.614 123.731L440.391 127.094C437.637 114.625 430.89 103.396 421.175 95.1088L431.293 83.2474Z" fill="#36E1AE"/>
<path d="M309.248 131.891C310.677 118.469 315.736 105.689 323.883 94.9268C332.029 84.1644 342.955 75.8257 355.485 70.8073C368.016 65.7888 381.677 64.2803 395.001 66.4439C408.324 68.6075 420.806 74.3615 431.105 83.0872L413.795 103.517C407.21 97.9374 399.228 94.2581 390.709 92.8746C382.189 91.4911 373.453 92.4557 365.441 95.6647C357.428 98.8737 350.442 104.206 345.233 111.088C340.023 117.97 336.788 126.141 335.875 134.724L309.248 131.891Z" fill="#E3AA39"/>
<path d="M369.031 198.889C368.474 198.889 367.96 198.771 367.49 198.536C367.029 198.293 366.646 197.966 366.341 197.557C366.046 197.148 365.858 196.687 365.78 196.174L367.203 195.925C367.238 196.187 367.329 196.443 367.477 196.696C367.625 196.939 367.83 197.135 368.091 197.283C368.352 197.431 368.661 197.505 369.018 197.505C369.418 197.505 369.749 197.414 370.01 197.231C370.271 197.048 370.467 196.813 370.597 196.526C370.728 196.23 370.793 195.925 370.793 195.612C370.793 195.308 370.728 195.025 370.597 194.764C370.476 194.502 370.288 194.294 370.036 194.137C369.784 193.98 369.457 193.902 369.057 193.902C368.691 193.902 368.374 193.985 368.104 194.15C367.834 194.315 367.608 194.529 367.425 194.79L366.054 194.437L366.929 189.672H371.916V191.017H367.464L368.234 190.416L367.634 193.615L367.19 193.51C367.529 193.119 367.878 192.862 368.234 192.74C368.6 192.609 368.944 192.544 369.266 192.544C369.866 192.544 370.397 192.683 370.859 192.962C371.32 193.24 371.677 193.615 371.929 194.085C372.19 194.555 372.321 195.064 372.321 195.612C372.321 196.047 372.242 196.461 372.086 196.852C371.929 197.244 371.703 197.597 371.407 197.91C371.111 198.214 370.758 198.454 370.349 198.628C369.949 198.802 369.51 198.889 369.031 198.889ZM376.349 198.771V191.526L376.78 192.257H373.999V191.095H375.461C375.757 191.095 375.979 191.034 376.127 190.912C376.275 190.79 376.349 190.573 376.349 190.26V189.672H377.798V198.771H376.349ZM380.795 198.771V197.127H382.388V198.771H380.795ZM384.362 198.771L388.645 190.468L389.049 191.017H383.527V189.672H390.081V190.743L385.981 198.771H384.362ZM391.837 198.771L397.634 189.672H398.678L392.882 198.771H391.837ZM397.569 198.889C397.194 198.889 396.855 198.802 396.55 198.628C396.254 198.454 396.015 198.21 395.832 197.897C395.658 197.575 395.571 197.201 395.571 196.774C395.571 196.356 395.658 195.991 395.832 195.677C396.006 195.355 396.241 195.107 396.537 194.933C396.842 194.759 397.177 194.672 397.543 194.672C397.917 194.672 398.252 194.768 398.548 194.959C398.852 195.142 399.092 195.395 399.266 195.717C399.449 196.03 399.54 196.382 399.54 196.774C399.54 197.166 399.453 197.523 399.279 197.845C399.105 198.158 398.87 198.41 398.574 198.602C398.278 198.793 397.943 198.889 397.569 198.889ZM397.569 197.91C397.76 197.91 397.93 197.862 398.078 197.766C398.226 197.662 398.343 197.527 398.43 197.362C398.517 197.187 398.561 196.992 398.561 196.774C398.561 196.548 398.513 196.352 398.417 196.187C398.33 196.021 398.208 195.891 398.052 195.795C397.904 195.699 397.734 195.651 397.543 195.651C397.368 195.651 397.203 195.699 397.046 195.795C396.898 195.882 396.777 196.008 396.681 196.174C396.594 196.339 396.55 196.539 396.55 196.774C396.55 197.018 396.598 197.227 396.694 197.401C396.79 197.566 396.916 197.692 397.073 197.779C397.229 197.866 397.395 197.91 397.569 197.91ZM393.052 193.758C392.686 193.758 392.351 193.671 392.046 193.497C391.742 193.323 391.498 193.079 391.315 192.766C391.141 192.444 391.054 192.079 391.054 191.669C391.054 191.234 391.141 190.86 391.315 190.547C391.498 190.233 391.737 189.99 392.033 189.816C392.329 189.642 392.66 189.555 393.025 189.555C393.4 189.555 393.735 189.65 394.031 189.842C394.335 190.025 394.575 190.277 394.749 190.599C394.923 190.912 395.01 191.269 395.01 191.669C395.01 192.044 394.923 192.392 394.749 192.714C394.583 193.036 394.353 193.293 394.057 193.484C393.761 193.667 393.426 193.758 393.052 193.758ZM393.052 192.779C393.234 192.779 393.4 192.731 393.548 192.636C393.696 192.531 393.813 192.396 393.9 192.231C393.987 192.065 394.031 191.878 394.031 191.669C394.031 191.434 393.983 191.234 393.887 191.069C393.8 190.895 393.678 190.764 393.522 190.677C393.374 190.582 393.208 190.534 393.025 190.534C392.843 190.534 392.677 190.577 392.529 190.664C392.381 190.751 392.26 190.877 392.164 191.043C392.077 191.208 392.033 191.417 392.033 191.669C392.033 191.896 392.077 192.096 392.164 192.27C392.26 192.435 392.386 192.562 392.542 192.649C392.699 192.736 392.869 192.779 393.052 192.779Z" fill="#0C0C0C"/>
<path d="M432.537 225.455L434.808 221.917L434.991 222.152C434.834 222.239 434.665 222.304 434.482 222.348C434.299 222.391 434.121 222.413 433.947 222.413C433.363 222.413 432.841 222.278 432.38 222.009C431.919 221.739 431.553 221.373 431.283 220.912C431.014 220.451 430.879 219.937 430.879 219.371C430.879 218.762 431.027 218.223 431.322 217.753C431.618 217.283 432.014 216.913 432.51 216.643C433.007 216.373 433.551 216.238 434.142 216.238C434.743 216.238 435.291 216.373 435.787 216.643C436.283 216.913 436.679 217.283 436.975 217.753C437.28 218.214 437.432 218.749 437.432 219.358C437.432 219.654 437.384 219.946 437.289 220.233C437.202 220.52 437.08 220.794 436.923 221.055L434.208 225.455H432.537ZM434.142 221.134C434.473 221.134 434.773 221.06 435.043 220.912C435.313 220.764 435.531 220.559 435.696 220.298C435.861 220.028 435.944 219.72 435.944 219.371C435.944 219.015 435.861 218.706 435.696 218.444C435.539 218.183 435.322 217.979 435.043 217.831C434.773 217.683 434.473 217.609 434.142 217.609C433.812 217.609 433.511 217.683 433.242 217.831C432.972 217.979 432.754 218.188 432.589 218.458C432.423 218.719 432.341 219.023 432.341 219.371C432.341 219.72 432.419 220.028 432.576 220.298C432.741 220.559 432.959 220.764 433.229 220.912C433.507 221.06 433.812 221.134 434.142 221.134ZM439.006 225.455L443.288 217.152L443.693 217.7H438.171V216.356H444.725V217.426L440.625 225.455H439.006ZM446.481 225.455L452.278 216.356H453.322L447.526 225.455H446.481ZM452.213 225.573C451.838 225.573 451.499 225.486 451.194 225.311C450.898 225.137 450.659 224.894 450.476 224.58C450.302 224.258 450.215 223.884 450.215 223.458C450.215 223.04 450.302 222.674 450.476 222.361C450.65 222.039 450.885 221.791 451.181 221.617C451.486 221.443 451.821 221.356 452.186 221.356C452.561 221.356 452.896 221.451 453.192 221.643C453.496 221.826 453.736 222.078 453.91 222.4C454.092 222.713 454.184 223.066 454.184 223.458C454.184 223.849 454.097 224.206 453.923 224.528C453.749 224.841 453.514 225.094 453.218 225.285C452.922 225.477 452.587 225.573 452.213 225.573ZM452.213 224.593C452.404 224.593 452.574 224.546 452.722 224.45C452.87 224.345 452.987 224.21 453.074 224.045C453.161 223.871 453.205 223.675 453.205 223.458C453.205 223.231 453.157 223.036 453.061 222.87C452.974 222.705 452.852 222.574 452.696 222.479C452.548 222.383 452.378 222.335 452.186 222.335C452.012 222.335 451.847 222.383 451.69 222.479C451.542 222.566 451.421 222.692 451.325 222.857C451.238 223.022 451.194 223.223 451.194 223.458C451.194 223.701 451.242 223.91 451.338 224.084C451.434 224.25 451.56 224.376 451.716 224.463C451.873 224.55 452.038 224.593 452.213 224.593ZM447.695 220.442C447.33 220.442 446.995 220.355 446.69 220.181C446.386 220.007 446.142 219.763 445.959 219.45C445.785 219.128 445.698 218.762 445.698 218.353C445.698 217.918 445.785 217.544 445.959 217.23C446.142 216.917 446.381 216.673 446.677 216.499C446.973 216.325 447.304 216.238 447.669 216.238C448.044 216.238 448.379 216.334 448.675 216.525C448.979 216.708 449.219 216.961 449.393 217.283C449.567 217.596 449.654 217.953 449.654 218.353C449.654 218.727 449.567 219.075 449.393 219.397C449.227 219.72 448.997 219.976 448.701 220.168C448.405 220.351 448.07 220.442 447.695 220.442ZM447.695 219.463C447.878 219.463 448.044 219.415 448.192 219.319C448.34 219.215 448.457 219.08 448.544 218.914C448.631 218.749 448.675 218.562 448.675 218.353C448.675 218.118 448.627 217.918 448.531 217.753C448.444 217.578 448.322 217.448 448.165 217.361C448.017 217.265 447.852 217.217 447.669 217.217C447.487 217.217 447.321 217.261 447.173 217.348C447.025 217.435 446.903 217.561 446.808 217.726C446.721 217.892 446.677 218.101 446.677 218.353C446.677 218.579 446.721 218.78 446.808 218.954C446.903 219.119 447.03 219.245 447.186 219.332C447.343 219.419 447.513 219.463 447.695 219.463Z" fill="#EF6262"/>
<path d="M369.005 84.3089C368.335 84.3089 367.747 84.1871 367.242 83.9434C366.737 83.691 366.346 83.3428 366.067 82.8989C365.789 82.4551 365.65 81.9372 365.65 81.3454L367.099 81.254C367.099 81.7588 367.277 82.1635 367.634 82.4681C367.991 82.764 368.461 82.912 369.044 82.912C369.436 82.912 369.766 82.8554 370.036 82.7423C370.315 82.6204 370.523 82.4464 370.663 82.2201C370.811 81.9938 370.885 81.7283 370.885 81.4237C370.885 81.1539 370.828 80.9276 370.715 80.7448C370.602 80.5621 370.441 80.4185 370.232 80.314C370.032 80.2009 369.784 80.1226 369.488 80.079C369.201 80.0268 368.879 80.0007 368.522 80.0007V78.8519C368.774 78.8519 369.013 78.8301 369.24 78.7866C369.466 78.7431 369.662 78.6734 369.827 78.5777C370.001 78.4733 370.136 78.3427 370.232 78.186C370.328 78.0207 370.376 77.8161 370.376 77.5724C370.376 77.3288 370.315 77.1155 370.193 76.9327C370.08 76.75 369.919 76.6107 369.71 76.515C369.51 76.4105 369.27 76.3583 368.992 76.3583C368.522 76.3583 368.156 76.4845 367.895 76.7369C367.634 76.9893 367.499 77.32 367.49 77.7291L366.067 77.6377C366.067 77.1155 366.194 76.6542 366.446 76.2539C366.698 75.8535 367.046 75.5402 367.49 75.3139C367.943 75.0876 368.456 74.9745 369.031 74.9745C369.579 74.9745 370.062 75.0789 370.48 75.2878C370.898 75.4967 371.224 75.7839 371.459 76.1494C371.703 76.515 371.825 76.9414 371.825 77.4288C371.825 77.6551 371.794 77.864 371.733 78.0555C371.672 78.247 371.581 78.421 371.459 78.5777C371.346 78.7257 371.211 78.8562 371.054 78.9693C370.898 79.0825 370.728 79.1782 370.545 79.2566C370.798 79.3349 371.033 79.435 371.25 79.5568C371.468 79.6787 371.655 79.831 371.812 80.0138C371.977 80.1965 372.103 80.4054 372.19 80.6404C372.286 80.8754 372.334 81.1409 372.334 81.4368C372.334 82.0025 372.195 82.5029 371.916 82.9381C371.638 83.3646 371.246 83.6997 370.741 83.9434C370.245 84.1871 369.666 84.3089 369.005 84.3089ZM376.336 84.3089C375.779 84.3089 375.266 84.1914 374.796 83.9564C374.334 83.7127 373.951 83.3863 373.647 82.9773C373.351 82.5682 373.164 82.1069 373.085 81.5934L374.508 81.3454C374.543 81.6065 374.635 81.8632 374.783 82.1156C374.93 82.3593 375.135 82.5552 375.396 82.7031C375.657 82.8511 375.966 82.9251 376.323 82.9251C376.723 82.9251 377.054 82.8337 377.315 82.6509C377.576 82.4681 377.772 82.2331 377.903 81.9459C378.033 81.65 378.099 81.3454 378.099 81.0321C378.099 80.7274 378.033 80.4446 377.903 80.1835C377.781 79.9224 377.594 79.7135 377.341 79.5568C377.089 79.4002 376.763 79.3218 376.362 79.3218C375.997 79.3218 375.679 79.4045 375.409 79.5699C375.139 79.7352 374.913 79.9485 374.73 80.2096L373.36 79.8571L374.234 75.092H379.221V76.4366H374.769L375.54 75.8361L374.939 79.0346L374.495 78.9302C374.835 78.5385 375.183 78.2818 375.54 78.1599C375.905 78.0294 376.249 77.9641 376.571 77.9641C377.172 77.9641 377.703 78.1034 378.164 78.3819C378.625 78.6604 378.982 79.0346 379.234 79.5046C379.495 79.9746 379.626 80.4837 379.626 81.0321C379.626 81.4672 379.548 81.8806 379.391 82.2723C379.234 82.664 379.008 83.0164 378.712 83.3298C378.416 83.6344 378.064 83.8737 377.655 84.0478C377.254 84.2219 376.815 84.3089 376.336 84.3089ZM380.795 84.1914V82.5465H382.388V84.1914H380.795ZM386.778 84.3089C386.221 84.3089 385.707 84.1914 385.237 83.9564C384.776 83.7127 384.393 83.3863 384.088 82.9773C383.792 82.5682 383.605 82.1069 383.527 81.5934L384.95 81.3454C384.985 81.6065 385.076 81.8632 385.224 82.1156C385.372 82.3593 385.577 82.5552 385.838 82.7031C386.099 82.8511 386.408 82.9251 386.765 82.9251C387.165 82.9251 387.496 82.8337 387.757 82.6509C388.018 82.4681 388.214 82.2331 388.344 81.9459C388.475 81.65 388.54 81.3454 388.54 81.0321C388.54 80.7274 388.475 80.4446 388.344 80.1835C388.222 79.9224 388.035 79.7135 387.783 79.5568C387.531 79.4002 387.204 79.3218 386.804 79.3218C386.438 79.3218 386.121 79.4045 385.851 79.5699C385.581 79.7352 385.355 79.9485 385.172 80.2096L383.801 79.8571L384.676 75.092H389.663V76.4366H385.211L385.981 75.8361L385.381 79.0346L384.937 78.9302C385.276 78.5385 385.624 78.2818 385.981 78.1599C386.347 78.0294 386.691 77.9641 387.013 77.9641C387.613 77.9641 388.144 78.1034 388.605 78.3819C389.067 78.6604 389.424 79.0346 389.676 79.5046C389.937 79.9746 390.068 80.4837 390.068 81.0321C390.068 81.4672 389.989 81.8806 389.833 82.2723C389.676 82.664 389.45 83.0164 389.154 83.3298C388.858 83.6344 388.505 83.8737 388.096 84.0478C387.696 84.2219 387.256 84.3089 386.778 84.3089ZM391.837 84.1914L397.634 75.092H398.678L392.882 84.1914H391.837ZM397.569 84.3089C397.194 84.3089 396.855 84.2219 396.55 84.0478C396.254 83.8737 396.015 83.63 395.832 83.3167C395.658 82.9947 395.571 82.6204 395.571 82.194C395.571 81.7762 395.658 81.4107 395.832 81.0973C396.006 80.7753 396.241 80.5273 396.537 80.3532C396.842 80.1791 397.177 80.0921 397.543 80.0921C397.917 80.0921 398.252 80.1878 398.548 80.3793C398.852 80.5621 399.092 80.8145 399.266 81.1365C399.449 81.4498 399.54 81.8023 399.54 82.194C399.54 82.5856 399.453 82.9425 399.279 83.2645C399.105 83.5778 398.87 83.8302 398.574 84.0217C398.278 84.2132 397.943 84.3089 397.569 84.3089ZM397.569 83.3298C397.76 83.3298 397.93 83.2819 398.078 83.1862C398.226 83.0817 398.343 82.9468 398.43 82.7815C398.517 82.6074 398.561 82.4116 398.561 82.194C398.561 81.9677 398.513 81.7719 398.417 81.6065C398.33 81.4411 398.208 81.3106 398.052 81.2148C397.904 81.1191 397.734 81.0712 397.543 81.0712C397.368 81.0712 397.203 81.1191 397.046 81.2148C396.898 81.3019 396.777 81.4281 396.681 81.5934C396.594 81.7588 396.55 81.959 396.55 82.194C396.55 82.4377 396.598 82.6465 396.694 82.8206C396.79 82.986 396.916 83.1122 397.073 83.1992C397.229 83.2862 397.395 83.3298 397.569 83.3298ZM393.052 79.1782C392.686 79.1782 392.351 79.0912 392.046 78.9171C391.742 78.7431 391.498 78.4994 391.315 78.186C391.141 77.864 391.054 77.4985 391.054 77.0894C391.054 76.6542 391.141 76.28 391.315 75.9667C391.498 75.6533 391.737 75.4096 392.033 75.2356C392.329 75.0615 392.66 74.9745 393.025 74.9745C393.4 74.9745 393.735 75.0702 394.031 75.2617C394.335 75.4445 394.575 75.6969 394.749 76.0189C394.923 76.3322 395.01 76.689 395.01 77.0894C395.01 77.4637 394.923 77.8118 394.749 78.1338C394.583 78.4558 394.353 78.7126 394.057 78.9041C393.761 79.0868 393.426 79.1782 393.052 79.1782ZM393.052 78.1991C393.234 78.1991 393.4 78.1512 393.548 78.0555C393.696 77.951 393.813 77.8161 393.9 77.6508C393.987 77.4854 394.031 77.2983 394.031 77.0894C394.031 76.8544 393.983 76.6542 393.887 76.4889C393.8 76.3148 393.678 76.1842 393.522 76.0972C393.374 76.0015 393.208 75.9536 393.025 75.9536C392.843 75.9536 392.677 75.9971 392.529 76.0842C392.381 76.1712 392.26 76.2974 392.164 76.4628C392.077 76.6281 392.033 76.837 392.033 77.0894C392.033 77.3157 392.077 77.5159 392.164 77.6899C392.26 77.8553 392.386 77.9815 392.542 78.0685C392.699 78.1556 392.869 78.1991 393.052 78.1991Z" fill="#0C0C0C"/>
<line x1="388.5" y1="220.311" x2="422.509" y2="220.311" stroke="#EF6262" stroke-width="1.47866"/>
</svg>
