<svg width="492" height="267" viewBox="0 0 492 267" fill="none" xmlns="http://www.w3.org/2000/svg">
<g clip-path="url(#clip0_369_181753)">
<rect width="491.043" height="266.653" rx="20" fill="#44484D"/>
<rect width="491.043" height="266.653" fill="#44484D"/>
<rect width="491.043" height="266.653" rx="20.1247" fill="#44484D"/>
<path d="M39.7212 107.18C38.144 107.18 36.6623 106.893 35.2762 106.32C33.8901 105.746 32.7669 104.898 31.9066 103.775C31.0463 102.627 30.6161 101.206 30.6161 99.5088C30.6161 98.1227 30.9387 96.892 31.584 95.8166C32.2292 94.7411 33.1851 93.8928 34.4517 93.2714C33.6631 92.7696 33.0298 92.1243 32.5518 91.3357C32.0978 90.5232 31.8707 89.5792 31.8707 88.5038C31.8707 87.046 32.2412 85.8033 32.982 84.7757C33.7467 83.7242 34.7266 82.9236 35.9215 82.3739C37.1164 81.8243 38.3949 81.5495 39.7571 81.5495C41.1432 81.5495 42.4337 81.8362 43.6286 82.4098C44.8235 82.9594 45.7674 83.76 46.4605 84.8115C47.1774 85.863 47.5359 87.1177 47.5359 88.5755C47.5359 89.6509 47.3088 90.5829 46.8548 91.3715C46.4246 92.1363 45.8033 92.7696 44.9907 93.2714C46.2573 93.8928 47.2133 94.7411 47.8585 95.8166C48.5037 96.892 48.8264 98.1227 48.8264 99.5088C48.8264 101.206 48.3962 102.627 47.5359 103.775C46.6755 104.898 45.5523 105.746 44.1663 106.32C42.8041 106.893 41.3224 107.18 39.7212 107.18ZM39.7212 103.416C40.6772 103.416 41.5375 103.261 42.3022 102.95C43.067 102.616 43.6764 102.138 44.1304 101.516C44.5845 100.871 44.8115 100.07 44.8115 99.1145C44.8115 98.2302 44.5964 97.4775 44.1663 96.8561C43.7361 96.2109 43.1386 95.721 42.3739 95.3864C41.6092 95.0279 40.725 94.8487 39.7212 94.8487C38.7175 94.8487 37.8333 95.0279 37.0686 95.3864C36.3038 95.721 35.6944 96.2109 35.2404 96.8561C34.8102 97.4775 34.5951 98.2302 34.5951 99.1145C34.5951 100.07 34.8221 100.871 35.2762 101.516C35.7542 102.138 36.3755 102.616 37.1403 102.95C37.905 103.261 38.7653 103.416 39.7212 103.416ZM39.7571 92.1602C40.8803 92.1602 41.8004 91.8614 42.5173 91.264C43.2342 90.6426 43.5927 89.8301 43.5927 88.8264C43.5927 87.7749 43.2462 86.9265 42.5531 86.2813C41.8601 85.636 40.9281 85.3134 39.7571 85.3134C39.0162 85.3134 38.3471 85.4568 37.7497 85.7436C37.1761 86.0064 36.7101 86.4007 36.3516 86.9265C36.017 87.4284 35.8498 88.0378 35.8498 88.7547C35.8498 89.7823 36.2082 90.6068 36.9252 91.2281C37.666 91.8495 38.61 92.1602 39.7571 92.1602ZM63.7592 81.8721L57.5218 91.5866L57.0199 90.9414C57.4979 90.7024 57.9758 90.5232 58.4538 90.4037C58.9318 90.2842 59.4097 90.2244 59.8877 90.2244C61.4888 90.2244 62.9227 90.5948 64.1893 91.3357C65.4798 92.0765 66.4955 93.0802 67.2363 94.3468C67.9771 95.6134 68.3476 97.0234 68.3476 98.5768C68.3476 100.25 67.9294 101.731 67.0929 103.022C66.2804 104.312 65.193 105.328 63.8308 106.069C62.4926 106.81 60.9989 107.18 59.35 107.18C57.7249 107.18 56.2193 106.81 54.8333 106.069C53.4711 105.328 52.3837 104.312 51.5712 103.022C50.7586 101.731 50.3524 100.262 50.3524 98.6126C50.3524 97.8001 50.4719 96.9995 50.7109 96.2109C50.9737 95.4222 51.3083 94.6695 51.7146 93.9525L59.2066 81.8721H63.7592ZM59.35 93.7374C58.4657 93.7374 57.6413 93.9406 56.8765 94.3468C56.1357 94.7531 55.5382 95.3266 55.0842 96.0675C54.6301 96.7844 54.4031 97.6209 54.4031 98.5768C54.4031 99.5327 54.6301 100.381 55.0842 101.122C55.5382 101.839 56.1357 102.4 56.8765 102.807C57.6174 103.213 58.4419 103.416 59.35 103.416C60.282 103.416 61.1184 103.213 61.8593 102.807C62.6001 102.4 63.1856 101.839 63.6158 101.122C64.0698 100.381 64.2969 99.5327 64.2969 98.5768C64.2969 97.6209 64.0698 96.7844 63.6158 96.0675C63.1856 95.3266 62.6001 94.7531 61.8593 94.3468C61.1184 93.9406 60.282 93.7374 59.35 93.7374ZM71.9169 106.857V102.341H76.2902V106.857H71.9169ZM79.955 106.857V103.775C80.7436 103.177 81.6637 102.496 82.7152 101.731C83.7667 100.967 84.8302 100.13 85.9056 99.222C87.0049 98.3139 88.0206 97.346 88.9526 96.3184C89.8846 95.2669 90.6374 94.1795 91.2109 93.0563C91.8084 91.9331 92.1071 90.7741 92.1071 89.5792C92.1071 88.3843 91.7845 87.4045 91.1392 86.6397C90.494 85.8511 89.5022 85.4568 88.1639 85.4568C87.1363 85.4568 86.2999 85.7077 85.6547 86.2096C85.0094 86.7114 84.5314 87.3806 84.2208 88.217C83.9101 89.0295 83.7428 89.9138 83.7189 90.8697L79.8116 90.547C79.8116 89.3999 79.9908 88.3006 80.3493 87.2491C80.7317 86.1737 81.2813 85.2178 81.9983 84.3814C82.7152 83.521 83.5994 82.8519 84.6509 82.3739C85.7024 81.8721 86.9093 81.6212 88.2715 81.6212C89.801 81.6212 91.1392 81.9438 92.2863 82.589C93.4573 83.2343 94.3655 84.1424 95.0107 85.3134C95.6799 86.4844 96.0144 87.8585 96.0144 89.4358C96.0144 90.7263 95.7874 91.969 95.3333 93.1639C94.9032 94.3588 94.2818 95.5059 93.4693 96.6052C92.6807 97.6806 91.7486 98.7082 90.6732 99.688C89.5978 100.644 88.4268 101.552 87.1602 102.412C85.8936 103.249 84.5553 104.014 83.1454 104.707L84.1849 103.165H97.0181V106.857H79.955Z" fill="#B1EF62"/>
<path d="M100.366 106.857L108.374 94.2868H109.817L101.809 106.857H100.366ZM108.284 107.02C107.767 107.02 107.298 106.9 106.877 106.659C106.468 106.419 106.137 106.082 105.885 105.649C105.644 105.204 105.524 104.687 105.524 104.098C105.524 103.521 105.644 103.016 105.885 102.583C106.125 102.138 106.45 101.796 106.859 101.555C107.28 101.315 107.743 101.194 108.248 101.194C108.765 101.194 109.227 101.327 109.636 101.591C110.057 101.844 110.388 102.192 110.628 102.637C110.881 103.07 111.007 103.557 111.007 104.098C111.007 104.639 110.887 105.132 110.646 105.577C110.406 106.01 110.081 106.358 109.672 106.623C109.264 106.887 108.801 107.02 108.284 107.02ZM108.284 105.667C108.548 105.667 108.783 105.601 108.987 105.469C109.191 105.324 109.354 105.138 109.474 104.91C109.594 104.669 109.654 104.399 109.654 104.098C109.654 103.785 109.588 103.515 109.456 103.286C109.336 103.058 109.167 102.878 108.951 102.745C108.747 102.613 108.512 102.547 108.248 102.547C108.007 102.547 107.779 102.613 107.562 102.745C107.358 102.866 107.19 103.04 107.057 103.268C106.937 103.497 106.877 103.773 106.877 104.098C106.877 104.435 106.943 104.723 107.075 104.964C107.208 105.192 107.382 105.367 107.598 105.487C107.815 105.607 108.043 105.667 108.284 105.667ZM102.043 99.9319C101.538 99.9319 101.076 99.8116 100.655 99.5712C100.234 99.3307 99.8973 98.994 99.6448 98.5612C99.4043 98.1163 99.2841 97.6113 99.2841 97.0462C99.2841 96.4451 99.4043 95.9281 99.6448 95.4952C99.8973 95.0624 100.228 94.7257 100.637 94.4852C101.045 94.2448 101.502 94.1245 102.007 94.1245C102.524 94.1245 102.987 94.2568 103.396 94.5213C103.817 94.7738 104.148 95.1225 104.388 95.5673C104.629 96.0002 104.749 96.4932 104.749 97.0462C104.749 97.5633 104.629 98.0442 104.388 98.4891C104.16 98.9339 103.841 99.2886 103.432 99.5531C103.023 99.8056 102.56 99.9319 102.043 99.9319ZM102.043 98.5792C102.296 98.5792 102.524 98.5131 102.729 98.3809C102.933 98.2366 103.096 98.0502 103.216 97.8218C103.336 97.5933 103.396 97.3348 103.396 97.0462C103.396 96.7216 103.33 96.4451 103.198 96.2166C103.077 95.9761 102.909 95.7958 102.693 95.6756C102.488 95.5433 102.26 95.4772 102.007 95.4772C101.755 95.4772 101.526 95.5373 101.322 95.6575C101.118 95.7778 100.949 95.9521 100.817 96.1805C100.697 96.409 100.637 96.6976 100.637 97.0462C100.637 97.3589 100.697 97.6354 100.817 97.8759C100.949 98.1043 101.124 98.2787 101.34 98.3989C101.556 98.5191 101.791 98.5792 102.043 98.5792ZM121.666 107.02C120.825 107.02 120.067 106.821 119.394 106.425C118.72 106.028 118.191 105.481 117.807 104.783C117.434 104.086 117.248 103.292 117.248 102.403C117.248 101.513 117.434 100.719 117.807 100.022C118.191 99.3247 118.714 98.7836 119.376 98.3989C120.049 98.0021 120.813 97.8037 121.666 97.8037C122.532 97.8037 123.289 98.0021 123.939 98.3989C124.6 98.7836 125.123 99.3247 125.508 100.022C125.892 100.719 126.085 101.513 126.085 102.403C126.085 103.292 125.892 104.086 125.508 104.783C125.135 105.481 124.612 106.028 123.939 106.425C123.277 106.821 122.52 107.02 121.666 107.02ZM121.684 105.252C122.177 105.252 122.604 105.138 122.965 104.91C123.325 104.681 123.602 104.351 123.794 103.918C123.987 103.485 124.083 102.98 124.083 102.403C124.083 101.814 123.987 101.309 123.794 100.888C123.602 100.455 123.325 100.124 122.965 99.8958C122.604 99.6674 122.177 99.5531 121.684 99.5531C121.167 99.5531 120.728 99.6734 120.368 99.9138C120.007 100.142 119.73 100.467 119.538 100.888C119.346 101.309 119.25 101.814 119.25 102.403C119.25 102.98 119.346 103.485 119.538 103.918C119.73 104.351 120.007 104.681 120.368 104.91C120.728 105.138 121.167 105.252 121.684 105.252ZM128.616 106.857V99.5171H126.921V97.966H128.634V96.9561C128.634 96.2226 128.755 95.6515 128.995 95.2427C129.235 94.8219 129.554 94.5333 129.951 94.377C130.36 94.2087 130.811 94.1245 131.304 94.1245C131.652 94.1245 131.959 94.1606 132.223 94.2327C132.5 94.2929 132.758 94.383 132.999 94.5033L132.35 96.0182C132.229 95.9461 132.097 95.892 131.953 95.8559C131.821 95.8078 131.676 95.7838 131.52 95.7838C131.195 95.7838 130.961 95.892 130.817 96.1084C130.684 96.3128 130.618 96.5954 130.618 96.9561V97.966H132.566V99.5171H130.618V106.857H128.616ZM141.881 107.02C141.184 107.02 140.595 106.881 140.114 106.605C139.645 106.328 139.29 105.932 139.05 105.415C138.809 104.898 138.689 104.272 138.689 103.539V97.966H140.691V102.998C140.691 103.467 140.745 103.876 140.853 104.224C140.974 104.561 141.16 104.819 141.413 105C141.677 105.18 142.032 105.27 142.477 105.27C142.994 105.27 143.396 105.138 143.685 104.874C143.986 104.597 144.196 104.2 144.316 103.683C144.449 103.154 144.515 102.523 144.515 101.79V97.966H146.517V106.857H144.515V104.946L144.857 105.072C144.581 105.745 144.178 106.238 143.649 106.551C143.132 106.863 142.543 107.02 141.881 107.02ZM151.902 107.02C151.265 107.02 150.699 106.93 150.206 106.749C149.713 106.557 149.299 106.316 148.962 106.028C148.625 105.739 148.349 105.451 148.132 105.162L149.503 103.972C149.732 104.345 150.044 104.675 150.441 104.964C150.85 105.252 151.343 105.397 151.92 105.397C152.401 105.397 152.779 105.294 153.056 105.09C153.345 104.886 153.489 104.633 153.489 104.332C153.489 104.068 153.399 103.864 153.218 103.719C153.038 103.563 152.804 103.431 152.515 103.323C152.226 103.214 151.908 103.118 151.559 103.034C151.222 102.95 150.88 102.848 150.531 102.727C150.182 102.595 149.858 102.433 149.557 102.24C149.269 102.048 149.034 101.802 148.854 101.501C148.673 101.2 148.583 100.828 148.583 100.383C148.583 99.6012 148.884 98.976 149.485 98.5071C150.086 98.0382 150.874 97.8037 151.848 97.8037C152.545 97.8037 153.182 97.942 153.759 98.2185C154.337 98.4951 154.787 98.9099 155.112 99.463L153.868 100.419C153.627 100.058 153.327 99.7876 152.966 99.6072C152.605 99.4269 152.214 99.3367 151.794 99.3367C151.409 99.3367 151.084 99.4149 150.82 99.5712C150.567 99.7275 150.441 99.9319 150.441 100.184C150.441 100.377 150.501 100.533 150.621 100.653C150.742 100.774 150.928 100.882 151.18 100.978C151.433 101.074 151.751 101.17 152.136 101.266C152.497 101.351 152.87 101.453 153.254 101.573C153.639 101.693 153.994 101.856 154.319 102.06C154.655 102.252 154.926 102.517 155.13 102.854C155.347 103.178 155.455 103.599 155.455 104.116C155.455 104.693 155.304 105.204 155.004 105.649C154.715 106.082 154.3 106.419 153.759 106.659C153.23 106.9 152.611 107.02 151.902 107.02ZM161.257 107.02C160.511 107.02 159.862 106.9 159.309 106.659C158.768 106.419 158.323 106.082 157.974 105.649C157.626 105.216 157.367 104.729 157.199 104.188C157.03 103.635 156.946 103.064 156.946 102.475C156.946 101.886 157.024 101.315 157.181 100.762C157.349 100.196 157.602 99.6914 157.938 99.2465C158.275 98.8017 158.708 98.453 159.237 98.2005C159.766 97.936 160.391 97.8037 161.112 97.8037C161.798 97.8037 162.393 97.924 162.898 98.1644C163.415 98.3929 163.842 98.7175 164.178 99.1383C164.515 99.5471 164.762 100.016 164.918 100.545C165.086 101.074 165.17 101.639 165.17 102.24C165.17 102.325 165.164 102.445 165.152 102.601C165.152 102.757 165.14 102.914 165.116 103.07H158.948C158.996 103.779 159.237 104.32 159.67 104.693C160.102 105.066 160.656 105.252 161.329 105.252C161.822 105.252 162.273 105.174 162.682 105.018C163.09 104.862 163.463 104.615 163.8 104.278L164.9 105.613C164.527 105.95 164.154 106.22 163.782 106.425C163.409 106.629 163.018 106.779 162.609 106.875C162.213 106.972 161.762 107.02 161.257 107.02ZM163.205 102.06C163.229 101.964 163.241 101.868 163.241 101.771C163.253 101.675 163.259 101.579 163.259 101.483C163.259 101.218 163.211 100.966 163.114 100.725C163.03 100.485 162.898 100.275 162.718 100.094C162.537 99.9018 162.315 99.7515 162.05 99.6433C161.786 99.5231 161.485 99.463 161.149 99.463C160.68 99.463 160.283 99.5652 159.958 99.7696C159.646 99.974 159.399 100.238 159.219 100.563C159.05 100.876 158.948 101.218 158.912 101.591H163.854L163.205 102.06ZM167.118 106.857V97.966H169.138V100.365L168.76 100.419C168.82 99.9018 168.994 99.4509 169.283 99.0662C169.571 98.6694 169.92 98.3628 170.329 98.1464C170.75 97.9179 171.164 97.8037 171.573 97.8037C171.862 97.8037 172.138 97.8398 172.403 97.9119C172.667 97.9841 172.944 98.1043 173.232 98.2726L172.259 100.076C172.126 99.992 171.952 99.9259 171.735 99.8778C171.531 99.8177 171.333 99.7876 171.14 99.7876C170.888 99.7876 170.635 99.8357 170.383 99.9319C170.142 100.028 169.926 100.178 169.734 100.383C169.541 100.575 169.397 100.828 169.301 101.14C169.241 101.309 169.193 101.531 169.156 101.808C169.132 102.072 169.12 102.445 169.12 102.926V106.857H167.118ZM177.458 107.02C176.82 107.02 176.255 106.93 175.762 106.749C175.269 106.557 174.854 106.316 174.518 106.028C174.181 105.739 173.905 105.451 173.688 105.162L175.059 103.972C175.287 104.345 175.6 104.675 175.997 104.964C176.406 105.252 176.898 105.397 177.476 105.397C177.957 105.397 178.335 105.294 178.612 105.09C178.9 104.886 179.045 104.633 179.045 104.332C179.045 104.068 178.955 103.864 178.774 103.719C178.594 103.563 178.359 103.431 178.071 103.323C177.782 103.214 177.464 103.118 177.115 103.034C176.778 102.95 176.436 102.848 176.087 102.727C175.738 102.595 175.414 102.433 175.113 102.24C174.824 102.048 174.59 101.802 174.41 101.501C174.229 101.2 174.139 100.828 174.139 100.383C174.139 99.6012 174.44 98.976 175.041 98.5071C175.642 98.0382 176.43 97.8037 177.403 97.8037C178.101 97.8037 178.738 97.942 179.315 98.2185C179.892 98.4951 180.343 98.9099 180.668 99.463L179.423 100.419C179.183 100.058 178.882 99.7876 178.522 99.6072C178.161 99.4269 177.77 99.3367 177.349 99.3367C176.965 99.3367 176.64 99.4149 176.375 99.5712C176.123 99.7275 175.997 99.9319 175.997 100.184C175.997 100.377 176.057 100.533 176.177 100.653C176.297 100.774 176.484 100.882 176.736 100.978C176.989 101.074 177.307 101.17 177.692 101.266C178.053 101.351 178.425 101.453 178.81 101.573C179.195 101.693 179.55 101.856 179.874 102.06C180.211 102.252 180.481 102.517 180.686 102.854C180.902 103.178 181.011 103.599 181.011 104.116C181.011 104.693 180.86 105.204 180.56 105.649C180.271 106.082 179.856 106.419 179.315 106.659C178.786 106.9 178.167 107.02 177.458 107.02ZM187.602 110.537V97.966H189.586V100.437L189.081 100.455C189.237 99.8056 189.466 99.2886 189.766 98.9039C190.079 98.5191 190.445 98.2426 190.866 98.0743C191.299 97.8939 191.756 97.8037 192.237 97.8037C193.03 97.8037 193.716 98.0081 194.293 98.4169C194.87 98.8137 195.315 99.3608 195.628 100.058C195.952 100.755 196.114 101.543 196.114 102.421C196.114 103.371 195.94 104.194 195.591 104.892C195.243 105.577 194.774 106.106 194.185 106.479C193.608 106.839 192.958 107.02 192.237 107.02C191.732 107.02 191.263 106.924 190.83 106.731C190.409 106.539 190.049 106.25 189.748 105.865C189.459 105.481 189.255 105.012 189.135 104.459L189.586 104.369V110.537H187.602ZM191.75 105.198C192.219 105.198 192.628 105.084 192.976 104.856C193.337 104.627 193.614 104.302 193.806 103.882C193.998 103.461 194.095 102.974 194.095 102.421C194.095 101.868 193.998 101.381 193.806 100.96C193.614 100.539 193.337 100.214 192.976 99.986C192.628 99.7575 192.219 99.6433 191.75 99.6433C191.281 99.6433 190.866 99.7575 190.506 99.986C190.157 100.214 189.886 100.539 189.694 100.96C189.502 101.381 189.405 101.868 189.405 102.421C189.405 102.974 189.502 103.461 189.694 103.882C189.886 104.29 190.157 104.615 190.506 104.856C190.866 105.084 191.281 105.198 191.75 105.198ZM198.046 106.857V97.966H200.066V100.365L199.687 100.419C199.747 99.9018 199.922 99.4509 200.21 99.0662C200.499 98.6694 200.848 98.3628 201.256 98.1464C201.677 97.9179 202.092 97.8037 202.501 97.8037C202.789 97.8037 203.066 97.8398 203.33 97.9119C203.595 97.9841 203.871 98.1043 204.16 98.2726L203.186 100.076C203.054 99.992 202.88 99.9259 202.663 99.8778C202.459 99.8177 202.26 99.7876 202.068 99.7876C201.815 99.7876 201.563 99.8357 201.31 99.9319C201.07 100.028 200.854 100.178 200.661 100.383C200.469 100.575 200.325 100.828 200.228 101.14C200.168 101.309 200.12 101.531 200.084 101.808C200.06 102.072 200.048 102.445 200.048 102.926V106.857H198.046ZM209.022 107.02C208.277 107.02 207.627 106.9 207.074 106.659C206.533 106.419 206.088 106.082 205.74 105.649C205.391 105.216 205.132 104.729 204.964 104.188C204.796 103.635 204.712 103.064 204.712 102.475C204.712 101.886 204.79 101.315 204.946 100.762C205.114 100.196 205.367 99.6914 205.703 99.2465C206.04 98.8017 206.473 98.453 207.002 98.2005C207.531 97.936 208.156 97.8037 208.878 97.8037C209.563 97.8037 210.158 97.924 210.663 98.1644C211.18 98.3929 211.607 98.7175 211.944 99.1383C212.28 99.5471 212.527 100.016 212.683 100.545C212.851 101.074 212.936 101.639 212.936 102.24C212.936 102.325 212.93 102.445 212.918 102.601C212.918 102.757 212.906 102.914 212.882 103.07H206.713C206.762 103.779 207.002 104.32 207.435 104.693C207.868 105.066 208.421 105.252 209.094 105.252C209.587 105.252 210.038 105.174 210.447 105.018C210.856 104.862 211.228 104.615 211.565 104.278L212.665 105.613C212.292 105.95 211.92 106.22 211.547 106.425C211.174 106.629 210.783 106.779 210.375 106.875C209.978 106.972 209.527 107.02 209.022 107.02ZM210.97 102.06C210.994 101.964 211.006 101.868 211.006 101.771C211.018 101.675 211.024 101.579 211.024 101.483C211.024 101.218 210.976 100.966 210.88 100.725C210.795 100.485 210.663 100.275 210.483 100.094C210.302 99.9018 210.08 99.7515 209.816 99.6433C209.551 99.5231 209.25 99.463 208.914 99.463C208.445 99.463 208.048 99.5652 207.723 99.7696C207.411 99.974 207.164 100.238 206.984 100.563C206.816 100.876 206.713 101.218 206.677 101.591H211.619L210.97 102.06ZM215.534 106.857V99.5171H213.839V97.966H215.552V96.9561C215.552 96.2226 215.673 95.6515 215.913 95.2427C216.153 94.8219 216.472 94.5333 216.869 94.377C217.278 94.2087 217.729 94.1245 218.222 94.1245C218.57 94.1245 218.877 94.1606 219.141 94.2327C219.418 94.2929 219.676 94.383 219.917 94.5033L219.268 96.0182C219.147 95.9461 219.015 95.892 218.871 95.8559C218.739 95.8078 218.594 95.7838 218.438 95.7838C218.113 95.7838 217.879 95.892 217.735 96.1084C217.602 96.3128 217.536 96.5954 217.536 96.9561V97.966H219.484V99.5171H217.536V106.857H215.534ZM224.556 107.02C223.811 107.02 223.162 106.9 222.608 106.659C222.067 106.419 221.623 106.082 221.274 105.649C220.925 105.216 220.667 104.729 220.498 104.188C220.33 103.635 220.246 103.064 220.246 102.475C220.246 101.886 220.324 101.315 220.48 100.762C220.649 100.196 220.901 99.6914 221.238 99.2465C221.574 98.8017 222.007 98.453 222.536 98.2005C223.065 97.936 223.691 97.8037 224.412 97.8037C225.097 97.8037 225.692 97.924 226.197 98.1644C226.714 98.3929 227.141 98.7175 227.478 99.1383C227.815 99.5471 228.061 100.016 228.217 100.545C228.386 101.074 228.47 101.639 228.47 102.24C228.47 102.325 228.464 102.445 228.452 102.601C228.452 102.757 228.44 102.914 228.416 103.07H222.248C222.296 103.779 222.536 104.32 222.969 104.693C223.402 105.066 223.955 105.252 224.628 105.252C225.121 105.252 225.572 105.174 225.981 105.018C226.39 104.862 226.763 104.615 227.099 104.278L228.199 105.613C227.827 105.95 227.454 106.22 227.081 106.425C226.708 106.629 226.318 106.779 225.909 106.875C225.512 106.972 225.061 107.02 224.556 107.02ZM226.504 102.06C226.528 101.964 226.54 101.868 226.54 101.771C226.552 101.675 226.558 101.579 226.558 101.483C226.558 101.218 226.51 100.966 226.414 100.725C226.33 100.485 226.197 100.275 226.017 100.094C225.837 99.9018 225.614 99.7515 225.35 99.6433C225.085 99.5231 224.785 99.463 224.448 99.463C223.979 99.463 223.582 99.5652 223.258 99.7696C222.945 99.974 222.699 100.238 222.518 100.563C222.35 100.876 222.248 101.218 222.212 101.591H227.153L226.504 102.06ZM230.418 106.857V97.966H232.438V100.365L232.059 100.419C232.119 99.9018 232.294 99.4509 232.582 99.0662C232.871 98.6694 233.219 98.3628 233.628 98.1464C234.049 97.9179 234.464 97.8037 234.873 97.8037C235.161 97.8037 235.438 97.8398 235.702 97.9119C235.967 97.9841 236.243 98.1043 236.532 98.2726L235.558 100.076C235.426 99.992 235.251 99.9259 235.035 99.8778C234.831 99.8177 234.632 99.7876 234.44 99.7876C234.187 99.7876 233.935 99.8357 233.682 99.9319C233.442 100.028 233.225 100.178 233.033 100.383C232.841 100.575 232.696 100.828 232.6 101.14C232.54 101.309 232.492 101.531 232.456 101.808C232.432 102.072 232.42 102.445 232.42 102.926V106.857H230.418ZM34.5536 146.717C33.243 146.717 32.209 146.476 31.4515 145.996C30.6941 145.527 30.3153 144.883 30.3153 144.066C30.3153 143.994 30.3153 143.909 30.3153 143.813C30.3273 143.717 30.3454 143.621 30.3694 143.525L32.7861 141.956L33.3272 142.479L32.1549 143.94C32.1429 143.976 32.1369 144.006 32.1369 144.03C32.1369 144.066 32.1369 144.102 32.1369 144.138C32.1369 144.511 32.3593 144.793 32.8042 144.986C33.2611 145.19 33.8442 145.292 34.5536 145.292C35.1548 145.292 35.6357 145.208 35.9964 145.04C36.3571 144.883 36.5375 144.643 36.5375 144.318C36.5375 144.138 36.4834 143.988 36.3752 143.867C36.267 143.759 36.1046 143.669 35.8882 143.597C35.6718 143.525 35.4013 143.459 35.0766 143.398C34.764 143.35 34.3913 143.302 33.9584 143.254C33.4174 143.17 32.8823 143.05 32.3533 142.893C31.8363 142.737 31.4034 142.503 31.0548 142.19C30.7181 141.878 30.5498 141.463 30.5498 140.946C30.5498 140.489 30.7061 140.074 31.0187 139.701C31.3313 139.316 31.7461 139.004 32.2631 138.763L33.2911 139.557C32.9545 139.629 32.702 139.755 32.5337 139.936C32.3653 140.104 32.2812 140.308 32.2812 140.549C32.2812 140.753 32.3593 140.922 32.5156 141.054C32.6719 141.174 32.8944 141.27 33.1829 141.342C33.4835 141.403 33.8382 141.463 34.247 141.523C34.8602 141.595 35.4253 141.679 35.9423 141.775C36.4593 141.871 36.9102 142.01 37.295 142.19C37.6797 142.358 37.9743 142.593 38.1787 142.893C38.3951 143.194 38.5033 143.585 38.5033 144.066C38.5033 144.919 38.1546 145.575 37.4573 146.032C36.7719 146.489 35.804 146.717 34.5536 146.717ZM34.3552 140.278C33.6338 140.278 32.9966 140.14 32.4435 139.864C31.8904 139.587 31.4575 139.208 31.1449 138.727C30.8444 138.234 30.6941 137.681 30.6941 137.068C30.6941 136.407 30.8564 135.836 31.181 135.355C31.5056 134.862 31.9385 134.483 32.4795 134.219C33.0326 133.942 33.6338 133.804 34.2831 133.804C34.9323 133.804 35.5275 133.942 36.0686 134.219C36.6096 134.483 37.0425 134.868 37.3671 135.373C37.7038 135.866 37.8721 136.455 37.8721 137.14C37.8721 137.765 37.7218 138.319 37.4212 138.799C37.1326 139.268 36.7238 139.635 36.1948 139.9C35.6658 140.152 35.0526 140.278 34.3552 140.278ZM34.3191 138.673C34.8362 138.673 35.2269 138.517 35.4914 138.204C35.756 137.88 35.8882 137.495 35.8882 137.05C35.8882 136.569 35.7439 136.184 35.4554 135.896C35.1668 135.595 34.7881 135.445 34.3191 135.445C33.8262 135.445 33.4294 135.595 33.1288 135.896C32.8403 136.184 32.696 136.563 32.696 137.032C32.696 137.489 32.8342 137.88 33.1108 138.204C33.3873 138.517 33.7901 138.673 34.3191 138.673ZM37.295 135.77L35.8341 134.832L37.836 133.209L38.864 134.453L37.295 135.77ZM40.2263 142.857V133.966H42.2462V136.365L41.8675 136.419C41.9276 135.902 42.1019 135.451 42.3905 135.066C42.679 134.669 43.0277 134.363 43.4365 134.146C43.8574 133.918 44.2722 133.804 44.681 133.804C44.9695 133.804 45.2461 133.84 45.5106 133.912C45.7751 133.984 46.0516 134.104 46.3402 134.273L45.3663 136.076C45.234 135.992 45.0597 135.926 44.8433 135.878C44.6389 135.818 44.4405 135.788 44.2481 135.788C43.9956 135.788 43.7431 135.836 43.4906 135.932C43.2502 136.028 43.0337 136.178 42.8414 136.383C42.649 136.575 42.5047 136.828 42.4085 137.14C42.3484 137.309 42.3003 137.531 42.2642 137.808C42.2402 138.072 42.2282 138.445 42.2282 138.926V142.857H40.2263ZM51.3103 143.02C50.4687 143.02 49.7112 142.821 49.0379 142.425C48.3646 142.028 47.8355 141.481 47.4508 140.783C47.0781 140.086 46.8917 139.292 46.8917 138.403C46.8917 137.513 47.0781 136.719 47.4508 136.022C47.8355 135.325 48.3586 134.784 49.0199 134.399C49.6932 134.002 50.4567 133.804 51.3103 133.804C52.176 133.804 52.9335 134.002 53.5828 134.399C54.2441 134.784 54.7671 135.325 55.1518 136.022C55.5366 136.719 55.729 137.513 55.729 138.403C55.729 139.292 55.5366 140.086 55.1518 140.783C54.7791 141.481 54.2561 142.028 53.5828 142.425C52.9215 142.821 52.164 143.02 51.3103 143.02ZM51.3284 141.252C51.8213 141.252 52.2482 141.138 52.6089 140.91C52.9696 140.681 53.2461 140.351 53.4385 139.918C53.6309 139.485 53.7271 138.98 53.7271 138.403C53.7271 137.814 53.6309 137.309 53.4385 136.888C53.2461 136.455 52.9696 136.124 52.6089 135.896C52.2482 135.667 51.8213 135.553 51.3284 135.553C50.8114 135.553 50.3725 135.673 50.0118 135.914C49.6511 136.142 49.3745 136.467 49.1822 136.888C48.9898 137.309 48.8936 137.814 48.8936 138.403C48.8936 138.98 48.9898 139.485 49.1822 139.918C49.3745 140.351 49.6511 140.681 50.0118 140.91C50.3725 141.138 50.8114 141.252 51.3284 141.252ZM60.7467 143.02C60.0494 143.02 59.4602 142.881 58.9793 142.605C58.5103 142.328 58.1556 141.932 57.9152 141.415C57.6747 140.898 57.5545 140.272 57.5545 139.539V133.966H59.5564V138.998C59.5564 139.467 59.6105 139.876 59.7187 140.224C59.8389 140.561 60.0253 140.819 60.2778 141C60.5423 141.18 60.897 141.27 61.3419 141.27C61.8589 141.27 62.2617 141.138 62.5502 140.874C62.8508 140.597 63.0612 140.2 63.1815 139.683C63.3137 139.154 63.3799 138.523 63.3799 137.79V133.966H65.3818V142.857H63.3799V140.946L63.7225 141.072C63.446 141.745 63.0432 142.238 62.5142 142.551C61.9972 142.863 61.408 143.02 60.7467 143.02ZM67.7371 146.537V133.966H69.7209V136.437L69.216 136.455C69.3723 135.806 69.6007 135.289 69.9013 134.904C70.2139 134.519 70.5806 134.243 71.0014 134.074C71.4343 133.894 71.8912 133.804 72.3721 133.804C73.1657 133.804 73.851 134.008 74.4281 134.417C75.0053 134.814 75.4501 135.361 75.7628 136.058C76.0874 136.755 76.2497 137.543 76.2497 138.421C76.2497 139.371 76.0754 140.194 75.7267 140.892C75.378 141.577 74.9091 142.106 74.3199 142.479C73.7428 142.839 73.0935 143.02 72.3721 143.02C71.8671 143.02 71.3982 142.924 70.9654 142.731C70.5446 142.539 70.1838 142.25 69.8833 141.865C69.5947 141.481 69.3903 141.012 69.2701 140.459L69.7209 140.369V146.537H67.7371ZM71.8852 141.198C72.3541 141.198 72.7629 141.084 73.1116 140.856C73.4723 140.627 73.7488 140.302 73.9412 139.882C74.1336 139.461 74.2298 138.974 74.2298 138.421C74.2298 137.868 74.1336 137.381 73.9412 136.96C73.7488 136.539 73.4723 136.214 73.1116 135.986C72.7629 135.758 72.3541 135.643 71.8852 135.643C71.4163 135.643 71.0014 135.758 70.6407 135.986C70.2921 136.214 70.0215 136.539 69.8292 136.96C69.6368 137.381 69.5406 137.868 69.5406 138.421C69.5406 138.974 69.6368 139.461 69.8292 139.882C70.0215 140.29 70.2921 140.615 70.6407 140.856C71.0014 141.084 71.4163 141.198 71.8852 141.198ZM86.0946 143.02C85.6497 143.02 85.2289 142.936 84.8321 142.767C84.4473 142.587 84.1407 142.304 83.9123 141.92C83.6838 141.523 83.5696 141.006 83.5696 140.369V131.802L85.5896 130.684V139.809C85.5896 140.314 85.6617 140.705 85.806 140.982C85.9623 141.246 86.2388 141.379 86.6356 141.379C86.7559 141.379 86.8941 141.367 87.0504 141.342C87.2188 141.306 87.3931 141.264 87.5735 141.216V142.767C87.333 142.851 87.0865 142.912 86.834 142.948C86.5935 142.996 86.3471 143.02 86.0946 143.02ZM81.8743 135.517V133.966H87.5735V135.517H81.8743ZM89.3653 142.857V133.966H91.3852V136.365L91.0065 136.419C91.0666 135.902 91.241 135.451 91.5295 135.066C91.8181 134.669 92.1668 134.363 92.5756 134.146C92.9964 133.918 93.4112 133.804 93.82 133.804C94.1086 133.804 94.3851 133.84 94.6496 133.912C94.9141 133.984 95.1907 134.104 95.4792 134.273L94.5053 136.076C94.3731 135.992 94.1987 135.926 93.9823 135.878C93.7779 135.818 93.5795 135.788 93.3871 135.788C93.1347 135.788 92.8822 135.836 92.6297 135.932C92.3892 136.028 92.1728 136.178 91.9804 136.383C91.788 136.575 91.6437 136.828 91.5476 137.14C91.4874 137.309 91.4393 137.531 91.4033 137.808C91.3792 138.072 91.3672 138.445 91.3672 138.926V142.857H89.3653ZM102.48 142.857L102.336 141.36V137.248C102.336 136.671 102.162 136.238 101.813 135.95C101.464 135.649 100.977 135.499 100.352 135.499C99.8711 135.499 99.3961 135.595 98.9272 135.788C98.4703 135.968 98.0495 136.251 97.6647 136.635L96.5466 135.319C97.1237 134.778 97.7369 134.393 98.3862 134.164C99.0354 133.924 99.7448 133.804 100.514 133.804C101.717 133.804 102.648 134.11 103.31 134.724C103.983 135.325 104.32 136.166 104.32 137.248V142.857H102.48ZM99.7208 143.02C99.0595 143.02 98.4703 142.9 97.9533 142.659C97.4483 142.419 97.0515 142.082 96.763 141.649C96.4864 141.216 96.3482 140.711 96.3482 140.134C96.3482 139.641 96.4504 139.214 96.6548 138.854C96.8712 138.493 97.1477 138.21 97.4844 138.006C97.773 137.826 98.1096 137.699 98.4944 137.627C98.8791 137.543 99.2819 137.501 99.7027 137.501H102.498V138.998H99.9913C99.7749 138.998 99.5584 139.022 99.342 139.07C99.1256 139.106 98.9332 139.178 98.7649 139.286C98.6447 139.383 98.5425 139.503 98.4583 139.647C98.3862 139.791 98.3501 139.96 98.3501 140.152C98.3501 140.537 98.4944 140.843 98.7829 141.072C99.0835 141.288 99.4803 141.397 99.9733 141.397C100.406 141.397 100.797 141.3 101.146 141.108C101.506 140.916 101.795 140.651 102.011 140.314C102.228 139.978 102.336 139.599 102.336 139.178L102.949 140.17C102.805 140.795 102.576 141.324 102.264 141.757C101.951 142.178 101.578 142.497 101.146 142.713C100.713 142.918 100.238 143.02 99.7208 143.02ZM109.086 142.857L105.461 133.966H107.661L109.916 140.26L112.206 133.966H114.37L110.745 142.857H109.086ZM119.486 143.02C118.741 143.02 118.091 142.9 117.538 142.659C116.997 142.419 116.552 142.082 116.204 141.649C115.855 141.216 115.596 140.729 115.428 140.188C115.26 139.635 115.176 139.064 115.176 138.475C115.176 137.886 115.254 137.315 115.41 136.762C115.578 136.196 115.831 135.691 116.168 135.247C116.504 134.802 116.937 134.453 117.466 134.2C117.995 133.936 118.62 133.804 119.342 133.804C120.027 133.804 120.622 133.924 121.127 134.164C121.644 134.393 122.071 134.718 122.408 135.138C122.744 135.547 122.991 136.016 123.147 136.545C123.315 137.074 123.4 137.639 123.4 138.24C123.4 138.325 123.394 138.445 123.382 138.601C123.382 138.757 123.37 138.914 123.346 139.07H117.177C117.226 139.779 117.466 140.32 117.899 140.693C118.332 141.066 118.885 141.252 119.558 141.252C120.051 141.252 120.502 141.174 120.911 141.018C121.32 140.862 121.692 140.615 122.029 140.278L123.129 141.613C122.756 141.95 122.384 142.22 122.011 142.425C121.638 142.629 121.247 142.779 120.839 142.875C120.442 142.972 119.991 143.02 119.486 143.02ZM121.434 138.06C121.458 137.964 121.47 137.868 121.47 137.771C121.482 137.675 121.488 137.579 121.488 137.483C121.488 137.218 121.44 136.966 121.344 136.725C121.259 136.485 121.127 136.275 120.947 136.094C120.767 135.902 120.544 135.752 120.28 135.643C120.015 135.523 119.714 135.463 119.378 135.463C118.909 135.463 118.512 135.565 118.187 135.77C117.875 135.974 117.628 136.238 117.448 136.563C117.28 136.876 117.177 137.218 117.141 137.591H122.083L121.434 138.06ZM127.314 143.02C126.736 143.02 126.256 142.845 125.871 142.497C125.486 142.136 125.294 141.565 125.294 140.783V130.287H127.296V140.387C127.296 140.663 127.356 140.868 127.476 141C127.608 141.12 127.776 141.18 127.981 141.18C128.089 141.18 128.197 141.168 128.306 141.144C128.426 141.12 128.546 141.09 128.666 141.054V142.749C128.438 142.845 128.203 142.912 127.963 142.948C127.722 142.996 127.506 143.02 127.314 143.02ZM134.964 142.857V133.966H136.984V136.365L136.605 136.419C136.666 135.902 136.84 135.451 137.128 135.066C137.417 134.669 137.766 134.363 138.174 134.146C138.595 133.918 139.01 133.804 139.419 133.804C139.707 133.804 139.984 133.84 140.249 133.912C140.513 133.984 140.79 134.104 141.078 134.273L140.104 136.076C139.972 135.992 139.798 135.926 139.581 135.878C139.377 135.818 139.178 135.788 138.986 135.788C138.734 135.788 138.481 135.836 138.229 135.932C137.988 136.028 137.772 136.178 137.579 136.383C137.387 136.575 137.243 136.828 137.146 137.14C137.086 137.309 137.038 137.531 137.002 137.808C136.978 138.072 136.966 138.445 136.966 138.926V142.857H134.964ZM148.079 142.857L147.935 141.36V137.248C147.935 136.671 147.76 136.238 147.412 135.95C147.063 135.649 146.576 135.499 145.951 135.499C145.47 135.499 144.995 135.595 144.526 135.788C144.069 135.968 143.648 136.251 143.264 136.635L142.145 135.319C142.723 134.778 143.336 134.393 143.985 134.164C144.634 133.924 145.344 133.804 146.113 133.804C147.316 133.804 148.247 134.11 148.909 134.724C149.582 135.325 149.919 136.166 149.919 137.248V142.857H148.079ZM145.32 143.02C144.658 143.02 144.069 142.9 143.552 142.659C143.047 142.419 142.65 142.082 142.362 141.649C142.085 141.216 141.947 140.711 141.947 140.134C141.947 139.641 142.049 139.214 142.254 138.854C142.47 138.493 142.747 138.21 143.083 138.006C143.372 137.826 143.709 137.699 144.093 137.627C144.478 137.543 144.881 137.501 145.302 137.501H148.097V138.998H145.59C145.374 138.998 145.157 139.022 144.941 139.07C144.725 139.106 144.532 139.178 144.364 139.286C144.244 139.383 144.141 139.503 144.057 139.647C143.985 139.791 143.949 139.96 143.949 140.152C143.949 140.537 144.093 140.843 144.382 141.072C144.682 141.288 145.079 141.397 145.572 141.397C146.005 141.397 146.396 141.3 146.744 141.108C147.105 140.916 147.394 140.651 147.61 140.314C147.827 139.978 147.935 139.599 147.935 139.178L148.548 140.17C148.404 140.795 148.175 141.324 147.863 141.757C147.55 142.178 147.177 142.497 146.744 142.713C146.312 142.918 145.837 143.02 145.32 143.02ZM155.382 143.02C154.937 143.02 154.517 142.936 154.12 142.767C153.735 142.587 153.429 142.304 153.2 141.92C152.972 141.523 152.857 141.006 152.857 140.369V131.802L154.877 130.684V139.809C154.877 140.314 154.95 140.705 155.094 140.982C155.25 141.246 155.527 141.379 155.923 141.379C156.044 141.379 156.182 141.367 156.338 141.342C156.507 141.306 156.681 141.264 156.861 141.216V142.767C156.621 142.851 156.374 142.912 156.122 142.948C155.881 142.996 155.635 143.02 155.382 143.02ZM151.162 135.517V133.966H156.861V135.517H151.162ZM158.653 142.857V130.287H160.655V135.932L160.294 136.022C160.451 135.505 160.679 135.084 160.98 134.76C161.292 134.435 161.647 134.194 162.044 134.038C162.44 133.882 162.861 133.804 163.306 133.804C164.304 133.804 165.08 134.092 165.633 134.669C166.198 135.235 166.48 136.046 166.48 137.104V142.857H164.478V137.844C164.478 137.05 164.334 136.467 164.046 136.094C163.757 135.721 163.312 135.535 162.711 135.535C162.038 135.535 161.527 135.776 161.178 136.257C160.829 136.737 160.655 137.495 160.655 138.529V142.857H158.653ZM172.623 143.02C171.878 143.02 171.228 142.9 170.675 142.659C170.134 142.419 169.689 142.082 169.341 141.649C168.992 141.216 168.733 140.729 168.565 140.188C168.397 139.635 168.313 139.064 168.313 138.475C168.313 137.886 168.391 137.315 168.547 136.762C168.715 136.196 168.968 135.691 169.305 135.247C169.641 134.802 170.074 134.453 170.603 134.2C171.132 133.936 171.757 133.804 172.479 133.804C173.164 133.804 173.759 133.924 174.264 134.164C174.781 134.393 175.208 134.718 175.545 135.138C175.881 135.547 176.128 136.016 176.284 136.545C176.453 137.074 176.537 137.639 176.537 138.24C176.537 138.325 176.531 138.445 176.519 138.601C176.519 138.757 176.507 138.914 176.483 139.07H170.315C170.363 139.779 170.603 140.32 171.036 140.693C171.469 141.066 172.022 141.252 172.695 141.252C173.188 141.252 173.639 141.174 174.048 141.018C174.457 140.862 174.829 140.615 175.166 140.278L176.266 141.613C175.893 141.95 175.521 142.22 175.148 142.425C174.775 142.629 174.385 142.779 173.976 142.875C173.579 142.972 173.128 143.02 172.623 143.02ZM174.571 138.06C174.595 137.964 174.607 137.868 174.607 137.771C174.619 137.675 174.625 137.579 174.625 137.483C174.625 137.218 174.577 136.966 174.481 136.725C174.397 136.485 174.264 136.275 174.084 136.094C173.904 135.902 173.681 135.752 173.417 135.643C173.152 135.523 172.852 135.463 172.515 135.463C172.046 135.463 171.649 135.565 171.325 135.77C171.012 135.974 170.765 136.238 170.585 136.563C170.417 136.876 170.315 137.218 170.278 137.591H175.22L174.571 138.06ZM178.485 142.857V133.966H180.505V136.365L180.126 136.419C180.186 135.902 180.36 135.451 180.649 135.066C180.938 134.669 181.286 134.363 181.695 134.146C182.116 133.918 182.531 133.804 182.94 133.804C183.228 133.804 183.505 133.84 183.769 133.912C184.034 133.984 184.31 134.104 184.599 134.273L183.625 136.076C183.493 135.992 183.318 135.926 183.102 135.878C182.897 135.818 182.699 135.788 182.507 135.788C182.254 135.788 182.002 135.836 181.749 135.932C181.509 136.028 181.292 136.178 181.1 136.383C180.908 136.575 180.763 136.828 180.667 137.14C180.607 137.309 180.559 137.531 180.523 137.808C180.499 138.072 180.487 138.445 180.487 138.926V142.857H178.485ZM193.971 143.02C193.527 143.02 193.106 142.936 192.709 142.767C192.324 142.587 192.018 142.304 191.789 141.92C191.561 141.523 191.447 141.006 191.447 140.369V131.802L193.466 130.684V139.809C193.466 140.314 193.539 140.705 193.683 140.982C193.839 141.246 194.116 141.379 194.513 141.379C194.633 141.379 194.771 141.367 194.927 141.342C195.096 141.306 195.27 141.264 195.45 141.216V142.767C195.21 142.851 194.963 142.912 194.711 142.948C194.47 142.996 194.224 143.02 193.971 143.02ZM189.751 135.517V133.966H195.45V135.517H189.751ZM197.242 142.857V130.287H199.244V135.932L198.883 136.022C199.04 135.505 199.268 135.084 199.569 134.76C199.881 134.435 200.236 134.194 200.633 134.038C201.03 133.882 201.45 133.804 201.895 133.804C202.893 133.804 203.669 134.092 204.222 134.669C204.787 135.235 205.069 136.046 205.069 137.104V142.857H203.068V137.844C203.068 137.05 202.923 136.467 202.635 136.094C202.346 135.721 201.901 135.535 201.3 135.535C200.627 135.535 200.116 135.776 199.767 136.257C199.418 136.737 199.244 137.495 199.244 138.529V142.857H197.242ZM213.052 142.857L212.907 141.36V137.248C212.907 136.671 212.733 136.238 212.384 135.95C212.036 135.649 211.549 135.499 210.924 135.499C210.443 135.499 209.968 135.595 209.499 135.788C209.042 135.968 208.621 136.251 208.236 136.635L207.118 135.319C207.695 134.778 208.309 134.393 208.958 134.164C209.607 133.924 210.316 133.804 211.086 133.804C212.288 133.804 213.22 134.11 213.881 134.724C214.555 135.325 214.891 136.166 214.891 137.248V142.857H213.052ZM210.292 143.02C209.631 143.02 209.042 142.9 208.525 142.659C208.02 142.419 207.623 142.082 207.335 141.649C207.058 141.216 206.92 140.711 206.92 140.134C206.92 139.641 207.022 139.214 207.226 138.854C207.443 138.493 207.719 138.21 208.056 138.006C208.345 137.826 208.681 137.699 209.066 137.627C209.451 137.543 209.854 137.501 210.274 137.501H213.07V138.998H210.563C210.346 138.998 210.13 139.022 209.914 139.07C209.697 139.106 209.505 139.178 209.337 139.286C209.216 139.383 209.114 139.503 209.03 139.647C208.958 139.791 208.922 139.96 208.922 140.152C208.922 140.537 209.066 140.843 209.355 141.072C209.655 141.288 210.052 141.397 210.545 141.397C210.978 141.397 211.368 141.3 211.717 141.108C212.078 140.916 212.366 140.651 212.583 140.314C212.799 139.978 212.907 139.599 212.907 139.178L213.521 140.17C213.376 140.795 213.148 141.324 212.835 141.757C212.523 142.178 212.15 142.497 211.717 142.713C211.284 142.918 210.809 143.02 210.292 143.02ZM217.127 142.857V133.966H219.129V135.932L218.768 136.022C218.924 135.505 219.153 135.084 219.453 134.76C219.754 134.435 220.103 134.194 220.499 134.038C220.908 133.882 221.335 133.804 221.78 133.804C222.778 133.804 223.553 134.092 224.106 134.669C224.672 135.235 224.954 136.046 224.954 137.104V142.857H222.952V137.844C222.952 137.05 222.808 136.467 222.519 136.094C222.231 135.721 221.786 135.535 221.185 135.535C220.74 135.535 220.361 135.643 220.048 135.86C219.748 136.064 219.519 136.389 219.363 136.834C219.207 137.279 219.129 137.844 219.129 138.529V142.857H217.127ZM34.0847 179.02C33.6398 179.02 33.219 178.936 32.8222 178.767C32.4375 178.587 32.1309 178.304 31.9024 177.92C31.674 177.523 31.5597 177.006 31.5597 176.369V167.802L33.5797 166.684V175.809C33.5797 176.314 33.6518 176.705 33.7961 176.982C33.9524 177.246 34.229 177.379 34.6257 177.379C34.746 177.379 34.8842 177.367 35.0406 177.342C35.2089 177.306 35.3832 177.264 35.5636 177.216V178.767C35.3231 178.851 35.0766 178.912 34.8241 178.948C34.5837 178.996 34.3372 179.02 34.0847 179.02ZM29.8644 171.517V169.966H35.5636V171.517H29.8644ZM37.3554 178.857V169.966H39.3754V172.365L38.9966 172.419C39.0567 171.902 39.2311 171.451 39.5196 171.066C39.8082 170.669 40.1569 170.363 40.5657 170.146C40.9865 169.918 41.4013 169.804 41.8101 169.804C42.0987 169.804 42.3752 169.84 42.6397 169.912C42.9043 169.984 43.1808 170.104 43.4694 170.273L42.4955 172.076C42.3632 171.992 42.1889 171.926 41.9724 171.878C41.768 171.818 41.5696 171.788 41.3773 171.788C41.1248 171.788 40.8723 171.836 40.6198 171.932C40.3793 172.028 40.1629 172.178 39.9705 172.383C39.7781 172.575 39.6339 172.828 39.5377 173.14C39.4776 173.309 39.4295 173.531 39.3934 173.808C39.3693 174.072 39.3573 174.445 39.3573 174.926V178.857H37.3554ZM50.4703 178.857L50.326 177.36V173.248C50.326 172.671 50.1517 172.238 49.803 171.95C49.4543 171.649 48.9673 171.499 48.3421 171.499C47.8612 171.499 47.3863 171.595 46.9173 171.788C46.4604 171.968 46.0396 172.251 45.6549 172.635L44.5367 171.319C45.1138 170.778 45.727 170.393 46.3763 170.164C47.0255 169.924 47.7349 169.804 48.5044 169.804C49.7068 169.804 50.6386 170.11 51.2999 170.724C51.9732 171.325 52.3099 172.166 52.3099 173.248V178.857H50.4703ZM47.7109 179.02C47.0496 179.02 46.4604 178.9 45.9434 178.659C45.4384 178.419 45.0417 178.082 44.7531 177.649C44.4766 177.216 44.3383 176.711 44.3383 176.134C44.3383 175.641 44.4405 175.214 44.6449 174.854C44.8613 174.493 45.1379 174.21 45.4745 174.006C45.7631 173.826 46.0997 173.699 46.4845 173.627C46.8692 173.543 47.272 173.501 47.6929 173.501H50.4883V174.998H47.9814C47.765 174.998 47.5486 175.022 47.3321 175.07C47.1157 175.106 46.9233 175.178 46.755 175.286C46.6348 175.383 46.5326 175.503 46.4484 175.647C46.3763 175.791 46.3402 175.96 46.3402 176.152C46.3402 176.537 46.4845 176.843 46.7731 177.072C47.0736 177.288 47.4704 177.397 47.9634 177.397C48.3962 177.397 48.787 177.3 49.1357 177.108C49.4964 176.916 49.7849 176.651 50.0014 176.314C50.2178 175.978 50.326 175.599 50.326 175.178L50.9392 176.17C50.7949 176.795 50.5665 177.324 50.2539 177.757C49.9412 178.178 49.5685 178.497 49.1357 178.713C48.7028 178.918 48.2279 179.02 47.7109 179.02ZM57.0761 178.857L53.451 169.966H55.6513L57.9057 176.26L60.1962 169.966H62.3604L58.7354 178.857H57.0761ZM67.4761 179.02C66.7307 179.02 66.0814 178.9 65.5283 178.659C64.9873 178.419 64.5424 178.082 64.1937 177.649C63.845 177.216 63.5865 176.729 63.4182 176.188C63.2499 175.635 63.1657 175.064 63.1657 174.475C63.1657 173.886 63.2438 173.315 63.4001 172.762C63.5685 172.196 63.821 171.691 64.1576 171.247C64.4943 170.802 64.9271 170.453 65.4562 170.2C65.9852 169.936 66.6104 169.804 67.3318 169.804C68.0172 169.804 68.6123 169.924 69.1173 170.164C69.6343 170.393 70.0612 170.718 70.3978 171.138C70.7345 171.547 70.981 172.016 71.1373 172.545C71.3056 173.074 71.3898 173.639 71.3898 174.24C71.3898 174.325 71.3838 174.445 71.3717 174.601C71.3717 174.757 71.3597 174.914 71.3357 175.07H65.1676C65.2157 175.779 65.4562 176.32 65.889 176.693C66.3219 177.066 66.8749 177.252 67.5483 177.252C68.0412 177.252 68.4921 177.174 68.9009 177.018C69.3097 176.862 69.6824 176.615 70.0191 176.278L71.1192 177.613C70.7465 177.95 70.3738 178.22 70.0011 178.425C69.6283 178.629 69.2376 178.779 68.8288 178.875C68.432 178.972 67.9811 179.02 67.4761 179.02ZM69.4239 174.06C69.448 173.964 69.46 173.868 69.46 173.771C69.472 173.675 69.478 173.579 69.478 173.483C69.478 173.218 69.4299 172.966 69.3337 172.725C69.2496 172.485 69.1173 172.275 68.937 172.094C68.7566 171.902 68.5342 171.752 68.2697 171.643C68.0052 171.523 67.7046 171.463 67.3679 171.463C66.899 171.463 66.5022 171.565 66.1776 171.77C65.865 171.974 65.6185 172.238 65.4381 172.563C65.2698 172.876 65.1676 173.218 65.1315 173.591H70.0732L69.4239 174.06ZM75.3037 179.02C74.7266 179.02 74.2456 178.845 73.8609 178.497C73.4761 178.136 73.2838 177.565 73.2838 176.783V166.287H75.2857V176.387C75.2857 176.663 75.3458 176.868 75.466 177C75.5983 177.12 75.7666 177.18 75.971 177.18C76.0792 177.18 76.1874 177.168 76.2956 177.144C76.4159 177.12 76.5361 177.09 76.6563 177.054V178.749C76.4279 178.845 76.1934 178.912 75.953 178.948C75.7125 178.996 75.4961 179.02 75.3037 179.02ZM88.6895 178.857L88.5452 177.36V173.248C88.5452 172.671 88.3709 172.238 88.0222 171.95C87.6735 171.649 87.1866 171.499 86.5614 171.499C86.0804 171.499 85.6055 171.595 85.1366 171.788C84.6797 171.968 84.2589 172.251 83.8741 172.635L82.7559 171.319C83.3331 170.778 83.9463 170.393 84.5955 170.164C85.2448 169.924 85.9542 169.804 86.7237 169.804C87.926 169.804 88.8579 170.11 89.5191 170.724C90.1925 171.325 90.5291 172.166 90.5291 173.248V178.857H88.6895ZM85.9301 179.02C85.2688 179.02 84.6797 178.9 84.1627 178.659C83.6577 178.419 83.2609 178.082 82.9723 177.649C82.6958 177.216 82.5575 176.711 82.5575 176.134C82.5575 175.641 82.6597 175.214 82.8641 174.854C83.0806 174.493 83.3571 174.21 83.6938 174.006C83.9823 173.826 84.319 173.699 84.7037 173.627C85.0885 173.543 85.4913 173.501 85.9121 173.501H88.7076V174.998H86.2007C85.9842 174.998 85.7678 175.022 85.5514 175.07C85.335 175.106 85.1426 175.178 84.9743 175.286C84.854 175.383 84.7518 175.503 84.6677 175.647C84.5955 175.791 84.5595 175.96 84.5595 176.152C84.5595 176.537 84.7037 176.843 84.9923 177.072C85.2929 177.288 85.6897 177.397 86.1826 177.397C86.6155 177.397 87.0062 177.3 87.3549 177.108C87.7156 176.916 88.0042 176.651 88.2206 176.314C88.437 175.978 88.5452 175.599 88.5452 175.178L89.1584 176.17C89.0142 176.795 88.7857 177.324 88.4731 177.757C88.1605 178.178 87.7878 178.497 87.3549 178.713C86.9221 178.918 86.4471 179.02 85.9301 179.02ZM94.7304 179.02C94.1532 179.02 93.6723 178.845 93.2875 178.497C92.9028 178.136 92.7104 177.565 92.7104 176.783V166.287H94.7123V176.387C94.7123 176.663 94.7724 176.868 94.8927 177C95.0249 177.12 95.1933 177.18 95.3977 177.18C95.5059 177.18 95.6141 177.168 95.7223 177.144C95.8425 177.12 95.9628 177.09 96.083 177.054V178.749C95.8545 178.845 95.6201 178.912 95.3796 178.948C95.1392 178.996 94.9227 179.02 94.7304 179.02ZM101.7 179.02C100.858 179.02 100.101 178.821 99.4274 178.425C98.7541 178.028 98.2251 177.481 97.8403 176.783C97.4676 176.086 97.2812 175.292 97.2812 174.403C97.2812 173.513 97.4676 172.719 97.8403 172.022C98.2251 171.325 98.7481 170.784 99.4094 170.399C100.083 170.002 100.846 169.804 101.7 169.804C102.566 169.804 103.323 170.002 103.972 170.399C104.634 170.784 105.157 171.325 105.541 172.022C105.926 172.719 106.118 173.513 106.118 174.403C106.118 175.292 105.926 176.086 105.541 176.783C105.169 177.481 104.646 178.028 103.972 178.425C103.311 178.821 102.554 179.02 101.7 179.02ZM101.718 177.252C102.211 177.252 102.638 177.138 102.998 176.91C103.359 176.681 103.636 176.351 103.828 175.918C104.02 175.485 104.117 174.98 104.117 174.403C104.117 173.814 104.02 173.309 103.828 172.888C103.636 172.455 103.359 172.124 102.998 171.896C102.638 171.667 102.211 171.553 101.718 171.553C101.201 171.553 100.762 171.673 100.401 171.914C100.041 172.142 99.7641 172.467 99.5717 172.888C99.3793 173.309 99.2831 173.814 99.2831 174.403C99.2831 174.98 99.3793 175.485 99.5717 175.918C99.7641 176.351 100.041 176.681 100.401 176.91C100.762 177.138 101.201 177.252 101.718 177.252ZM108.052 178.857V169.966H110.054V171.932L109.693 172.022C109.85 171.505 110.078 171.084 110.379 170.76C110.679 170.435 111.028 170.194 111.425 170.038C111.834 169.882 112.26 169.804 112.705 169.804C113.703 169.804 114.479 170.092 115.032 170.669C115.597 171.235 115.88 172.046 115.88 173.104V178.857H113.878V173.844C113.878 173.05 113.733 172.467 113.445 172.094C113.156 171.721 112.711 171.535 112.11 171.535C111.665 171.535 111.287 171.643 110.974 171.86C110.673 172.064 110.445 172.389 110.289 172.834C110.132 173.279 110.054 173.844 110.054 174.529V178.857H108.052ZM122.022 179.02C121.277 179.02 120.627 178.9 120.074 178.659C119.533 178.419 119.088 178.082 118.74 177.649C118.391 177.216 118.133 176.729 117.964 176.188C117.796 175.635 117.712 175.064 117.712 174.475C117.712 173.886 117.79 173.315 117.946 172.762C118.115 172.196 118.367 171.691 118.704 171.247C119.04 170.802 119.473 170.453 120.002 170.2C120.531 169.936 121.157 169.804 121.878 169.804C122.563 169.804 123.158 169.924 123.663 170.164C124.18 170.393 124.607 170.718 124.944 171.138C125.281 171.547 125.527 172.016 125.683 172.545C125.852 173.074 125.936 173.639 125.936 174.24C125.936 174.325 125.93 174.445 125.918 174.601C125.918 174.757 125.906 174.914 125.882 175.07H119.714C119.762 175.779 120.002 176.32 120.435 176.693C120.868 177.066 121.421 177.252 122.094 177.252C122.587 177.252 123.038 177.174 123.447 177.018C123.856 176.862 124.229 176.615 124.565 176.278L125.665 177.613C125.293 177.95 124.92 178.22 124.547 178.425C124.174 178.629 123.784 178.779 123.375 178.875C122.978 178.972 122.527 179.02 122.022 179.02ZM123.97 174.06C123.994 173.964 124.006 173.868 124.006 173.771C124.018 173.675 124.024 173.579 124.024 173.483C124.024 173.218 123.976 172.966 123.88 172.725C123.796 172.485 123.663 172.275 123.483 172.094C123.303 171.902 123.08 171.752 122.816 171.643C122.551 171.523 122.251 171.463 121.914 171.463C121.445 171.463 121.048 171.565 120.724 171.77C120.411 171.974 120.165 172.238 119.984 172.563C119.816 172.876 119.714 173.218 119.678 173.591H124.619L123.97 174.06ZM127.776 178.857V176.585H129.976V178.857H127.776Z" fill="white"/>
<path d="M465.621 132.942C465.621 150.689 459.56 167.905 448.442 181.738C437.323 195.571 421.814 205.193 404.482 209.01C387.15 212.827 369.034 210.611 353.133 202.728C337.232 194.845 324.5 181.768 317.045 165.663C309.589 149.557 307.857 131.388 312.136 114.164C316.414 96.9402 326.446 81.6936 340.572 70.9486C354.697 60.2037 372.068 54.6047 389.809 55.0786C407.55 55.5524 424.598 62.0707 438.129 73.5544L415.937 99.7041C408.364 93.277 398.823 89.6288 388.893 89.3636C378.964 89.0984 369.242 92.232 361.336 98.2457C353.431 104.259 347.816 112.793 345.421 122.433C343.027 132.072 343.996 142.241 348.169 151.255C352.341 160.269 359.467 167.588 368.367 172C377.266 176.411 387.405 177.652 397.105 175.516C406.806 173.379 415.486 167.994 421.709 160.252C427.931 152.51 431.323 142.875 431.323 132.942H465.621Z" fill="#B1EF62"/>
<path d="M465.621 133.358C465.621 122.057 463.162 110.892 458.414 100.637C453.667 90.3819 446.745 81.2825 438.129 73.9704L432.833 80.2108C440.544 86.7545 446.739 94.8977 450.987 104.075C455.235 113.253 457.436 123.245 457.436 133.358H465.621Z" fill="#B1EF62" fill-opacity="0.5"/>
<path d="M378.211 138.869C377.608 138.869 377.042 138.76 376.513 138.541C375.983 138.322 375.554 137.998 375.226 137.569C374.897 137.13 374.733 136.587 374.733 135.939C374.733 135.41 374.856 134.94 375.102 134.529C375.349 134.118 375.714 133.794 376.198 133.557C375.897 133.365 375.655 133.118 375.472 132.817C375.299 132.507 375.212 132.146 375.212 131.736C375.212 131.179 375.353 130.704 375.636 130.311C375.929 129.91 376.303 129.604 376.759 129.394C377.216 129.184 377.704 129.079 378.224 129.079C378.754 129.079 379.247 129.189 379.703 129.408C380.16 129.618 380.52 129.924 380.785 130.325C381.059 130.727 381.196 131.206 381.196 131.763C381.196 132.174 381.109 132.53 380.935 132.831C380.771 133.123 380.534 133.365 380.223 133.557C380.707 133.794 381.072 134.118 381.319 134.529C381.565 134.94 381.689 135.41 381.689 135.939C381.689 136.587 381.524 137.13 381.196 137.569C380.867 137.998 380.438 138.322 379.909 138.541C379.388 138.76 378.822 138.869 378.211 138.869ZM378.211 137.432C378.576 137.432 378.904 137.372 379.196 137.254C379.489 137.126 379.721 136.943 379.895 136.706C380.068 136.459 380.155 136.154 380.155 135.789C380.155 135.451 380.073 135.163 379.909 134.926C379.744 134.679 379.516 134.492 379.224 134.364C378.932 134.228 378.594 134.159 378.211 134.159C377.827 134.159 377.489 134.228 377.197 134.364C376.905 134.492 376.672 134.679 376.499 134.926C376.335 135.163 376.253 135.451 376.253 135.789C376.253 136.154 376.339 136.459 376.513 136.706C376.695 136.943 376.933 137.126 377.225 137.254C377.517 137.372 377.845 137.432 378.211 137.432ZM378.224 133.132C378.653 133.132 379.005 133.018 379.279 132.79C379.552 132.552 379.689 132.242 379.689 131.859C379.689 131.457 379.557 131.133 379.292 130.887C379.028 130.64 378.672 130.517 378.224 130.517C377.941 130.517 377.686 130.572 377.458 130.681C377.238 130.782 377.06 130.932 376.924 131.133C376.796 131.325 376.732 131.558 376.732 131.831C376.732 132.224 376.869 132.539 377.143 132.776C377.426 133.013 377.786 133.132 378.224 133.132ZM387.392 129.202L385.01 132.913L384.818 132.667C385.001 132.575 385.183 132.507 385.366 132.461C385.549 132.416 385.731 132.393 385.914 132.393C386.525 132.393 387.073 132.534 387.557 132.817C388.05 133.1 388.438 133.484 388.721 133.967C389.004 134.451 389.145 134.99 389.145 135.583C389.145 136.222 388.985 136.788 388.666 137.281C388.355 137.774 387.94 138.162 387.42 138.445C386.909 138.728 386.338 138.869 385.708 138.869C385.088 138.869 384.512 138.728 383.983 138.445C383.463 138.162 383.047 137.774 382.737 137.281C382.427 136.788 382.271 136.227 382.271 135.597C382.271 135.286 382.317 134.981 382.408 134.679C382.509 134.378 382.637 134.091 382.792 133.817L385.653 129.202H387.392ZM385.708 133.735C385.371 133.735 385.056 133.812 384.763 133.967C384.48 134.123 384.252 134.342 384.079 134.625C383.905 134.898 383.819 135.218 383.819 135.583C383.819 135.948 383.905 136.272 384.079 136.555C384.252 136.829 384.48 137.044 384.763 137.199C385.046 137.354 385.361 137.432 385.708 137.432C386.064 137.432 386.384 137.354 386.667 137.199C386.95 137.044 387.173 136.829 387.338 136.555C387.511 136.272 387.598 135.948 387.598 135.583C387.598 135.218 387.511 134.898 387.338 134.625C387.173 134.342 386.95 134.123 386.667 133.967C386.384 133.812 386.064 133.735 385.708 133.735ZM390.508 138.746V137.021H392.179V138.746H390.508ZM393.579 138.746V137.569C393.88 137.34 394.231 137.08 394.633 136.788C395.035 136.496 395.441 136.176 395.852 135.83C396.272 135.483 396.66 135.113 397.016 134.72C397.372 134.319 397.659 133.903 397.878 133.474C398.106 133.045 398.221 132.603 398.221 132.146C398.221 131.69 398.097 131.316 397.851 131.023C397.604 130.722 397.226 130.572 396.714 130.572C396.322 130.572 396.002 130.667 395.756 130.859C395.509 131.051 395.327 131.306 395.208 131.626C395.09 131.936 395.026 132.274 395.017 132.639L393.524 132.516C393.524 132.078 393.593 131.658 393.729 131.256C393.875 130.845 394.085 130.48 394.359 130.161C394.633 129.832 394.971 129.577 395.373 129.394C395.774 129.202 396.235 129.107 396.755 129.107C397.34 129.107 397.851 129.23 398.289 129.476C398.736 129.723 399.083 130.07 399.33 130.517C399.585 130.964 399.713 131.489 399.713 132.092C399.713 132.584 399.626 133.059 399.453 133.516C399.289 133.972 399.051 134.41 398.741 134.83C398.44 135.241 398.084 135.633 397.673 136.008C397.262 136.373 396.815 136.72 396.331 137.048C395.847 137.368 395.336 137.66 394.797 137.925L395.195 137.336H400.096V138.746H393.579ZM405.647 138.746L411.726 129.202H412.821L406.742 138.746H405.647ZM411.658 138.869C411.265 138.869 410.909 138.778 410.59 138.595C410.279 138.413 410.028 138.157 409.836 137.829C409.654 137.491 409.563 137.098 409.563 136.651C409.563 136.213 409.654 135.83 409.836 135.501C410.019 135.163 410.266 134.903 410.576 134.72C410.895 134.538 411.247 134.447 411.63 134.447C412.023 134.447 412.374 134.547 412.685 134.748C413.004 134.94 413.255 135.204 413.438 135.542C413.629 135.871 413.725 136.24 413.725 136.651C413.725 137.062 413.634 137.436 413.451 137.774C413.269 138.103 413.022 138.367 412.712 138.568C412.402 138.769 412.05 138.869 411.658 138.869ZM411.658 137.842C411.858 137.842 412.036 137.792 412.192 137.692C412.347 137.582 412.47 137.441 412.561 137.267C412.653 137.085 412.698 136.879 412.698 136.651C412.698 136.414 412.648 136.208 412.548 136.035C412.456 135.862 412.329 135.725 412.164 135.624C412.009 135.524 411.831 135.474 411.63 135.474C411.448 135.474 411.274 135.524 411.11 135.624C410.955 135.715 410.827 135.848 410.726 136.021C410.635 136.195 410.59 136.405 410.59 136.651C410.59 136.907 410.64 137.126 410.74 137.308C410.841 137.482 410.973 137.614 411.137 137.705C411.302 137.797 411.475 137.842 411.658 137.842ZM406.92 133.488C406.537 133.488 406.185 133.397 405.866 133.214C405.546 133.032 405.291 132.776 405.099 132.448C404.916 132.11 404.825 131.726 404.825 131.297C404.825 130.841 404.916 130.448 405.099 130.12C405.291 129.791 405.542 129.536 405.852 129.353C406.162 129.17 406.509 129.079 406.893 129.079C407.285 129.079 407.637 129.18 407.947 129.38C408.266 129.572 408.517 129.837 408.7 130.175C408.883 130.503 408.974 130.877 408.974 131.297C408.974 131.69 408.883 132.055 408.7 132.393C408.527 132.73 408.285 133 407.974 133.201C407.664 133.392 407.312 133.488 406.92 133.488ZM406.92 132.461C407.112 132.461 407.285 132.411 407.44 132.311C407.595 132.201 407.719 132.06 407.81 131.886C407.901 131.713 407.947 131.516 407.947 131.297C407.947 131.051 407.897 130.841 407.796 130.667C407.705 130.485 407.577 130.348 407.413 130.257C407.258 130.156 407.084 130.106 406.893 130.106C406.701 130.106 406.527 130.152 406.372 130.243C406.217 130.334 406.089 130.467 405.989 130.64C405.898 130.814 405.852 131.033 405.852 131.297C405.852 131.535 405.898 131.745 405.989 131.927C406.089 132.101 406.222 132.233 406.386 132.324C406.55 132.416 406.728 132.461 406.92 132.461Z" fill="#B1EF62"/>
</g>
<defs>
<clipPath id="clip0_369_181753">
<rect width="491.043" height="266.653" rx="20" fill="white"/>
</clipPath>
</defs>
</svg>
