<svg width="492" height="267" viewBox="0 0 492 267" fill="none" xmlns="http://www.w3.org/2000/svg">
<rect width="491.043" height="266.653" rx="20" fill="#44484D"/>
<g clip-path="url(#clip0_369_181735)">
<rect width="491.043" height="266.653" rx="20.1247" fill="#44484D"/>
<path d="M465.62 133.357C465.62 148.408 461.26 163.137 453.065 175.762C444.871 188.388 433.195 198.368 419.448 204.497C405.701 210.627 390.473 212.642 375.605 210.299C360.737 207.956 346.866 201.355 335.671 191.296C324.475 181.236 316.433 168.148 312.519 153.615C308.604 139.082 308.984 123.726 313.613 109.404C318.241 95.0817 326.92 82.4076 338.6 72.9141C350.28 63.4206 364.46 57.5144 379.425 55.9097L383.082 90.0116C374.706 90.9097 366.77 94.2152 360.233 99.5285C353.696 104.842 348.838 111.935 346.248 119.951C343.657 127.966 343.445 136.561 345.636 144.695C347.827 152.829 352.327 160.154 358.593 165.784C364.859 171.414 372.622 175.108 380.944 176.419C389.265 177.731 397.788 176.603 405.481 173.173C413.175 169.742 419.71 164.156 424.296 157.09C428.882 150.024 431.323 141.781 431.323 133.357H465.62Z" fill="#E3AA39"/>
<path d="M426.503 65.8025C438.385 72.6224 448.258 82.4558 455.126 94.3104C461.994 106.165 465.614 119.621 465.62 133.322L440.167 133.333C440.163 124.11 437.726 115.051 433.102 107.07C428.479 99.0896 421.832 92.4696 413.832 87.8783L426.503 65.8025Z" fill="#B1EF62"/>
<path d="M395.74 55.8789C406.653 57.0072 417.204 60.4279 426.702 65.917L418.305 80.4478C410.853 76.1414 402.575 73.4577 394.014 72.5726L395.74 55.8789Z" fill="#36E1AE"/>
<path d="M395.649 55.8697C389.985 55.2908 384.274 55.3348 378.619 56.0007L379.576 64.1292C384.637 63.5333 389.748 63.494 394.817 64.012L395.649 55.8697Z" fill="#7B7B7B"/>
<path d="M372.614 198.834L376.911 190.503L377.317 191.053H371.776V189.704H378.352V190.778L374.239 198.834H372.614ZM382.341 198.952C381.669 198.952 381.079 198.83 380.573 198.585C380.066 198.332 379.673 197.983 379.394 197.537C379.115 197.092 378.975 196.572 378.975 195.978L380.429 195.887C380.429 196.393 380.608 196.799 380.966 197.105C381.324 197.402 381.796 197.55 382.381 197.55C382.774 197.55 383.105 197.494 383.376 197.38C383.656 197.258 383.865 197.083 384.005 196.856C384.153 196.629 384.228 196.363 384.228 196.057C384.228 195.786 384.171 195.559 384.057 195.376C383.944 195.192 383.782 195.048 383.573 194.944C383.372 194.83 383.123 194.751 382.826 194.708C382.538 194.655 382.215 194.629 381.857 194.629V193.476C382.11 193.476 382.35 193.455 382.577 193.411C382.804 193.367 383.001 193.297 383.167 193.201C383.341 193.097 383.477 192.966 383.573 192.808C383.669 192.642 383.717 192.437 383.717 192.193C383.717 191.948 383.656 191.734 383.533 191.551C383.42 191.367 383.258 191.228 383.049 191.132C382.848 191.027 382.608 190.975 382.328 190.975C381.857 190.975 381.49 191.101 381.228 191.354C380.966 191.608 380.831 191.939 380.822 192.35L379.394 192.258C379.394 191.734 379.521 191.271 379.774 190.87C380.027 190.468 380.376 190.154 380.822 189.927C381.276 189.7 381.791 189.586 382.368 189.586C382.918 189.586 383.402 189.691 383.822 189.9C384.241 190.11 384.568 190.398 384.804 190.765C385.048 191.132 385.171 191.56 385.171 192.049C385.171 192.276 385.14 192.485 385.079 192.677C385.018 192.87 384.926 193.044 384.804 193.201C384.69 193.35 384.555 193.481 384.398 193.594C384.241 193.708 384.07 193.804 383.887 193.883C384.14 193.961 384.376 194.062 384.594 194.184C384.813 194.306 385 194.459 385.158 194.642C385.324 194.826 385.45 195.035 385.538 195.271C385.634 195.507 385.682 195.773 385.682 196.07C385.682 196.638 385.542 197.14 385.262 197.576C384.983 198.004 384.59 198.341 384.083 198.585C383.586 198.83 383.005 198.952 382.341 198.952ZM386.842 198.834V197.183H388.44V198.834H386.842ZM392.818 198.952C392.146 198.952 391.556 198.83 391.05 198.585C390.543 198.332 390.15 197.983 389.871 197.537C389.591 197.092 389.452 196.572 389.452 195.978L390.906 195.887C390.906 196.393 391.085 196.799 391.443 197.105C391.801 197.402 392.272 197.55 392.857 197.55C393.25 197.55 393.582 197.494 393.853 197.38C394.132 197.258 394.342 197.083 394.482 196.856C394.63 196.629 394.704 196.363 394.704 196.057C394.704 195.786 394.648 195.559 394.534 195.376C394.421 195.192 394.259 195.048 394.049 194.944C393.849 194.83 393.6 194.751 393.303 194.708C393.015 194.655 392.691 194.629 392.333 194.629V193.476C392.587 193.476 392.827 193.455 393.054 193.411C393.281 193.367 393.477 193.297 393.643 193.201C393.818 193.097 393.953 192.966 394.049 192.808C394.145 192.642 394.193 192.437 394.193 192.193C394.193 191.948 394.132 191.734 394.01 191.551C393.897 191.367 393.735 191.228 393.525 191.132C393.325 191.027 393.084 190.975 392.805 190.975C392.333 190.975 391.967 191.101 391.705 191.354C391.443 191.608 391.307 191.939 391.299 192.35L389.871 192.258C389.871 191.734 389.997 191.271 390.251 190.87C390.504 190.468 390.853 190.154 391.299 189.927C391.753 189.7 392.268 189.586 392.844 189.586C393.394 189.586 393.879 189.691 394.298 189.9C394.717 190.11 395.045 190.398 395.281 190.765C395.525 191.132 395.647 191.56 395.647 192.049C395.647 192.276 395.617 192.485 395.556 192.677C395.495 192.87 395.403 193.044 395.281 193.201C395.167 193.35 395.032 193.481 394.875 193.594C394.717 193.708 394.547 193.804 394.364 193.883C394.617 193.961 394.853 194.062 395.071 194.184C395.289 194.306 395.477 194.459 395.634 194.642C395.8 194.826 395.927 195.035 396.014 195.271C396.11 195.507 396.158 195.773 396.158 196.07C396.158 196.638 396.019 197.14 395.739 197.576C395.46 198.004 395.067 198.341 394.56 198.585C394.062 198.83 393.482 198.952 392.818 198.952ZM397.921 198.834L403.737 189.704H404.785L398.969 198.834H397.921ZM403.672 198.952C403.296 198.952 402.956 198.865 402.65 198.69C402.353 198.515 402.113 198.271 401.929 197.956C401.755 197.633 401.667 197.258 401.667 196.83C401.667 196.411 401.755 196.044 401.929 195.729C402.104 195.406 402.34 195.157 402.637 194.983C402.942 194.808 403.279 194.721 403.645 194.721C404.021 194.721 404.357 194.817 404.654 195.009C404.96 195.192 405.2 195.446 405.374 195.769C405.558 196.083 405.65 196.437 405.65 196.83C405.65 197.223 405.562 197.581 405.388 197.904C405.213 198.218 404.977 198.472 404.68 198.664C404.383 198.856 404.047 198.952 403.672 198.952ZM403.672 197.969C403.864 197.969 404.034 197.921 404.182 197.825C404.331 197.721 404.449 197.585 404.536 197.419C404.623 197.245 404.667 197.048 404.667 196.83C404.667 196.603 404.619 196.406 404.523 196.24C404.436 196.074 404.313 195.943 404.156 195.847C404.008 195.751 403.838 195.703 403.645 195.703C403.471 195.703 403.305 195.751 403.148 195.847C402.999 195.935 402.877 196.061 402.781 196.227C402.694 196.393 402.65 196.594 402.65 196.83C402.65 197.074 402.698 197.284 402.794 197.459C402.89 197.624 403.017 197.751 403.174 197.838C403.331 197.926 403.497 197.969 403.672 197.969ZM399.139 193.804C398.773 193.804 398.436 193.717 398.131 193.542C397.825 193.367 397.581 193.123 397.397 192.808C397.222 192.485 397.135 192.119 397.135 191.708C397.135 191.271 397.222 190.896 397.397 190.582C397.581 190.267 397.821 190.023 398.118 189.848C398.414 189.673 398.746 189.586 399.113 189.586C399.489 189.586 399.825 189.682 400.122 189.874C400.427 190.058 400.668 190.311 400.842 190.634C401.017 190.948 401.104 191.306 401.104 191.708C401.104 192.084 401.017 192.433 400.842 192.756C400.676 193.079 400.445 193.337 400.148 193.529C399.851 193.712 399.515 193.804 399.139 193.804ZM399.139 192.821C399.323 192.821 399.489 192.773 399.637 192.677C399.786 192.573 399.903 192.437 399.991 192.271C400.078 192.105 400.122 191.918 400.122 191.708C400.122 191.472 400.074 191.271 399.978 191.106C399.89 190.931 399.768 190.8 399.611 190.713C399.462 190.616 399.296 190.568 399.113 190.568C398.93 190.568 398.764 190.612 398.615 190.699C398.467 190.787 398.345 190.913 398.249 191.079C398.161 191.245 398.118 191.455 398.118 191.708C398.118 191.935 398.161 192.136 398.249 192.311C398.345 192.477 398.471 192.603 398.628 192.69C398.786 192.778 398.956 192.821 399.139 192.821Z" fill="#0C0C0C"/>
<path d="M41.7979 107.051L53.5557 84.2521L54.667 85.7577H39.5037V82.0654H57.4989V85.0049L46.2429 107.051H41.7979ZM68.4168 107.373C66.5767 107.373 64.9636 107.039 63.5775 106.37C62.1914 105.677 61.116 104.721 60.3513 103.502C59.5865 102.283 59.2041 100.861 59.2041 99.2361L63.1832 98.9852C63.1832 100.371 63.6731 101.483 64.6529 102.319C65.6327 103.132 66.9232 103.538 68.5244 103.538C69.5998 103.538 70.5079 103.382 71.2487 103.072C72.0135 102.737 72.587 102.259 72.9694 101.638C73.3757 101.017 73.5788 100.288 73.5788 99.4512C73.5788 98.7104 73.4234 98.089 73.1128 97.5872C72.8021 97.0853 72.36 96.691 71.7864 96.4042C71.2368 96.0936 70.5557 95.8785 69.7432 95.759C68.9545 95.6156 68.0703 95.5439 67.0905 95.5439V92.3894C67.7835 92.3894 68.4407 92.3296 69.0621 92.2101C69.6834 92.0906 70.2211 91.8995 70.6752 91.6366C71.1531 91.3498 71.5236 90.9913 71.7864 90.5612C72.0493 90.1071 72.1808 89.5455 72.1808 88.8764C72.1808 88.2072 72.0135 87.6217 71.6789 87.1199C71.3682 86.618 70.9261 86.2356 70.3526 85.9728C69.8029 85.686 69.1457 85.5426 68.381 85.5426C67.0905 85.5426 66.0868 85.8891 65.3698 86.5822C64.6529 87.2752 64.2825 88.1833 64.2586 89.3065L60.3513 89.0556C60.3513 87.6217 60.6978 86.3551 61.3908 85.2558C62.0839 84.1565 63.0398 83.2962 64.2586 82.6748C65.5013 82.0535 66.9112 81.7428 68.4885 81.7428C69.9941 81.7428 71.3204 82.0296 72.4675 82.6031C73.6146 83.1767 74.5108 83.9653 75.1561 84.969C75.8252 85.9728 76.1598 87.1438 76.1598 88.482C76.1598 89.1034 76.0761 89.6769 75.9088 90.2027C75.7416 90.7285 75.4906 91.2064 75.1561 91.6366C74.8454 92.0428 74.475 92.4013 74.0448 92.712C73.6146 93.0227 73.1486 93.2855 72.6468 93.5006C73.3398 93.7157 73.9851 93.9905 74.5825 94.3251C75.18 94.6597 75.6938 95.0779 76.1239 95.5797C76.578 96.0816 76.9245 96.6552 77.1635 97.3004C77.4264 97.9456 77.5578 98.6745 77.5578 99.4871C77.5578 101.04 77.1754 102.415 76.4107 103.609C75.646 104.78 74.5706 105.701 73.1845 106.37C71.8223 107.039 70.2331 107.373 68.4168 107.373ZM80.7328 107.051V102.534H85.1061V107.051H80.7328ZM97.0874 107.373C95.2473 107.373 93.6341 107.039 92.2481 106.37C90.862 105.677 89.7866 104.721 89.0218 103.502C88.2571 102.283 87.8747 100.861 87.8747 99.2361L91.8537 98.9852C91.8537 100.371 92.3436 101.483 93.3235 102.319C94.3033 103.132 95.5938 103.538 97.1949 103.538C98.2703 103.538 99.1785 103.382 99.9193 103.072C100.684 102.737 101.258 102.259 101.64 101.638C102.046 101.017 102.249 100.288 102.249 99.4512C102.249 98.7104 102.094 98.089 101.783 97.5872C101.473 97.0853 101.031 96.691 100.457 96.4042C99.9074 96.0936 99.2263 95.8785 98.4137 95.759C97.6251 95.6156 96.7409 95.5439 95.7611 95.5439V92.3894C96.4541 92.3894 97.1113 92.3296 97.7326 92.2101C98.354 92.0906 98.8917 91.8995 99.3458 91.6366C99.8237 91.3498 100.194 90.9913 100.457 90.5612C100.72 90.1071 100.851 89.5455 100.851 88.8764C100.851 88.2072 100.684 87.6217 100.349 87.1199C100.039 86.618 99.5967 86.2356 99.0231 85.9728C98.4735 85.686 97.8163 85.5426 97.0516 85.5426C95.7611 85.5426 94.7573 85.8891 94.0404 86.5822C93.3235 87.2752 92.953 88.1833 92.9291 89.3065L89.0218 89.0556C89.0218 87.6217 89.3684 86.3551 90.0614 85.2558C90.7544 84.1565 91.7104 83.2962 92.9291 82.6748C94.1718 82.0535 95.5818 81.7428 97.1591 81.7428C98.6647 81.7428 99.991 82.0296 101.138 82.6031C102.285 83.1767 103.181 83.9653 103.827 84.969C104.496 85.9728 104.83 87.1438 104.83 88.482C104.83 89.1034 104.747 89.6769 104.579 90.2027C104.412 90.7285 104.161 91.2064 103.827 91.6366C103.516 92.0428 103.146 92.4013 102.715 92.712C102.285 93.0227 101.819 93.2855 101.317 93.5006C102.01 93.7157 102.656 93.9905 103.253 94.3251C103.851 94.6597 104.364 95.0779 104.794 95.5797C105.249 96.0816 105.595 96.6552 105.834 97.3004C106.097 97.9456 106.228 98.6745 106.228 99.4871C106.228 101.04 105.846 102.415 105.081 103.609C104.317 104.78 103.241 105.701 101.855 106.37C100.493 107.039 98.9036 107.373 97.0874 107.373Z" fill="#B1EF62"/>
<path d="M109.182 107.051L117.19 94.4802H118.633L110.625 107.051H109.182ZM117.1 107.213C116.583 107.213 116.114 107.093 115.693 106.852C115.284 106.612 114.953 106.275 114.701 105.842C114.46 105.398 114.34 104.881 114.34 104.291C114.34 103.714 114.46 103.209 114.701 102.776C114.941 102.332 115.266 101.989 115.675 101.748C116.096 101.508 116.559 101.388 117.063 101.388C117.581 101.388 118.043 101.52 118.452 101.784C118.873 102.037 119.204 102.386 119.444 102.831C119.697 103.263 119.823 103.75 119.823 104.291C119.823 104.832 119.703 105.325 119.462 105.77C119.222 106.203 118.897 106.552 118.488 106.816C118.079 107.081 117.617 107.213 117.1 107.213ZM117.1 105.86C117.364 105.86 117.599 105.794 117.803 105.662C118.007 105.518 118.17 105.331 118.29 105.103C118.41 104.863 118.47 104.592 118.47 104.291C118.47 103.979 118.404 103.708 118.272 103.48C118.152 103.251 117.983 103.071 117.767 102.939C117.562 102.806 117.328 102.74 117.063 102.74C116.823 102.74 116.595 102.806 116.378 102.939C116.174 103.059 116.005 103.233 115.873 103.462C115.753 103.69 115.693 103.967 115.693 104.291C115.693 104.628 115.759 104.917 115.891 105.157C116.023 105.386 116.198 105.56 116.414 105.68C116.631 105.8 116.859 105.86 117.1 105.86ZM110.859 100.125C110.354 100.125 109.891 100.005 109.471 99.7645C109.05 99.5241 108.713 99.1874 108.461 98.7546C108.22 98.3097 108.1 97.8047 108.1 97.2396C108.1 96.6384 108.22 96.1214 108.461 95.6886C108.713 95.2557 109.044 94.9191 109.453 94.6786C109.861 94.4381 110.318 94.3179 110.823 94.3179C111.34 94.3179 111.803 94.4501 112.212 94.7147C112.633 94.9672 112.963 95.3158 113.204 95.7607C113.444 96.1936 113.565 96.6865 113.565 97.2396C113.565 97.7566 113.444 98.2376 113.204 98.6824C112.976 99.1273 112.657 99.482 112.248 99.7465C111.839 99.999 111.376 100.125 110.859 100.125ZM110.859 98.7726C111.112 98.7726 111.34 98.7065 111.545 98.5742C111.749 98.4299 111.911 98.2436 112.032 98.0151C112.152 97.7867 112.212 97.5282 112.212 97.2396C112.212 96.915 112.146 96.6384 112.014 96.41C111.893 96.1695 111.725 95.9892 111.509 95.8689C111.304 95.7367 111.076 95.6705 110.823 95.6705C110.571 95.6705 110.342 95.7307 110.138 95.8509C109.934 95.9711 109.765 96.1455 109.633 96.3739C109.513 96.6024 109.453 96.8909 109.453 97.2396C109.453 97.5522 109.513 97.8288 109.633 98.0692C109.765 98.2977 109.94 98.472 110.156 98.5922C110.372 98.7125 110.607 98.7726 110.859 98.7726ZM130.482 107.213C129.641 107.213 128.883 107.015 128.21 106.618C127.536 106.221 127.007 105.674 126.623 104.977C126.25 104.279 126.064 103.486 126.064 102.596C126.064 101.706 126.25 100.913 126.623 100.215C127.007 99.5181 127.53 98.977 128.192 98.5922C128.865 98.1955 129.628 97.9971 130.482 97.9971C131.348 97.9971 132.105 98.1955 132.755 98.5922C133.416 98.977 133.939 99.5181 134.324 100.215C134.708 100.913 134.901 101.706 134.901 102.596C134.901 103.486 134.708 104.279 134.324 104.977C133.951 105.674 133.428 106.221 132.755 106.618C132.093 107.015 131.336 107.213 130.482 107.213ZM130.5 105.446C130.993 105.446 131.42 105.331 131.781 105.103C132.141 104.875 132.418 104.544 132.61 104.111C132.803 103.678 132.899 103.173 132.899 102.596C132.899 102.007 132.803 101.502 132.61 101.081C132.418 100.648 132.141 100.318 131.781 100.089C131.42 99.8607 130.993 99.7465 130.5 99.7465C129.983 99.7465 129.544 99.8667 129.184 100.107C128.823 100.336 128.546 100.66 128.354 101.081C128.162 101.502 128.065 102.007 128.065 102.596C128.065 103.173 128.162 103.678 128.354 104.111C128.546 104.544 128.823 104.875 129.184 105.103C129.544 105.331 129.983 105.446 130.5 105.446ZM137.432 107.051V99.7104H135.737V98.1594H137.45V97.1494C137.45 96.416 137.57 95.8449 137.811 95.4361C138.051 95.0153 138.37 94.7267 138.767 94.5704C139.176 94.4021 139.626 94.3179 140.119 94.3179C140.468 94.3179 140.775 94.354 141.039 94.4261C141.316 94.4862 141.574 94.5764 141.815 94.6966L141.165 96.2116C141.045 96.1394 140.913 96.0853 140.769 96.0493C140.636 96.0012 140.492 95.9771 140.336 95.9771C140.011 95.9771 139.777 96.0853 139.633 96.3018C139.5 96.5062 139.434 96.7887 139.434 97.1494V98.1594H141.382V99.7104H139.434V107.051H137.432ZM150.697 107.213C150 107.213 149.411 107.075 148.93 106.798C148.461 106.522 148.106 106.125 147.866 105.608C147.625 105.091 147.505 104.466 147.505 103.732V98.1594H149.507V103.191C149.507 103.66 149.561 104.069 149.669 104.418C149.79 104.754 149.976 105.013 150.228 105.193C150.493 105.374 150.848 105.464 151.293 105.464C151.81 105.464 152.212 105.331 152.501 105.067C152.802 104.79 153.012 104.394 153.132 103.877C153.264 103.348 153.331 102.716 153.331 101.983V98.1594H155.332V107.051H153.331V105.139L153.673 105.265C153.397 105.939 152.994 106.432 152.465 106.744C151.948 107.057 151.359 107.213 150.697 107.213ZM160.718 107.213C160.08 107.213 159.515 107.123 159.022 106.943C158.529 106.75 158.115 106.51 157.778 106.221C157.441 105.933 157.165 105.644 156.948 105.355L158.319 104.165C158.547 104.538 158.86 104.869 159.257 105.157C159.666 105.446 160.159 105.59 160.736 105.59C161.217 105.59 161.595 105.488 161.872 105.283C162.161 105.079 162.305 104.826 162.305 104.526C162.305 104.261 162.215 104.057 162.034 103.913C161.854 103.756 161.619 103.624 161.331 103.516C161.042 103.408 160.724 103.311 160.375 103.227C160.038 103.143 159.696 103.041 159.347 102.921C158.998 102.788 158.674 102.626 158.373 102.434C158.085 102.241 157.85 101.995 157.67 101.694C157.489 101.394 157.399 101.021 157.399 100.576C157.399 99.7946 157.7 99.1694 158.301 98.7005C158.902 98.2315 159.69 97.9971 160.664 97.9971C161.361 97.9971 161.998 98.1354 162.575 98.4119C163.152 98.6884 163.603 99.1032 163.928 99.6563L162.684 100.612C162.443 100.251 162.142 99.981 161.782 99.8006C161.421 99.6203 161.03 99.5301 160.609 99.5301C160.225 99.5301 159.9 99.6082 159.636 99.7645C159.383 99.9208 159.257 100.125 159.257 100.378C159.257 100.57 159.317 100.726 159.437 100.847C159.557 100.967 159.744 101.075 159.996 101.171C160.249 101.267 160.567 101.364 160.952 101.46C161.313 101.544 161.686 101.646 162.07 101.766C162.455 101.887 162.81 102.049 163.134 102.253C163.471 102.446 163.742 102.71 163.946 103.047C164.162 103.372 164.271 103.792 164.271 104.309C164.271 104.887 164.12 105.398 163.82 105.842C163.531 106.275 163.116 106.612 162.575 106.852C162.046 107.093 161.427 107.213 160.718 107.213ZM170.073 107.213C169.327 107.213 168.678 107.093 168.125 106.852C167.584 106.612 167.139 106.275 166.79 105.842C166.442 105.41 166.183 104.923 166.015 104.382C165.846 103.828 165.762 103.257 165.762 102.668C165.762 102.079 165.84 101.508 165.997 100.955C166.165 100.39 166.417 99.8848 166.754 99.4399C167.091 98.995 167.524 98.6464 168.053 98.3939C168.582 98.1293 169.207 97.9971 169.928 97.9971C170.614 97.9971 171.209 98.1173 171.714 98.3578C172.231 98.5862 172.658 98.9109 172.994 99.3317C173.331 99.7405 173.577 100.209 173.734 100.738C173.902 101.267 173.986 101.833 173.986 102.434C173.986 102.518 173.98 102.638 173.968 102.794C173.968 102.951 173.956 103.107 173.932 103.263H167.764C167.812 103.973 168.053 104.514 168.486 104.887C168.918 105.259 169.471 105.446 170.145 105.446C170.638 105.446 171.089 105.367 171.497 105.211C171.906 105.055 172.279 104.808 172.616 104.472L173.716 105.806C173.343 106.143 172.97 106.414 172.598 106.618C172.225 106.822 171.834 106.973 171.425 107.069C171.029 107.165 170.578 107.213 170.073 107.213ZM172.02 102.253C172.044 102.157 172.057 102.061 172.057 101.965C172.069 101.869 172.075 101.772 172.075 101.676C172.075 101.412 172.026 101.159 171.93 100.919C171.846 100.678 171.714 100.468 171.533 100.288C171.353 100.095 171.131 99.9449 170.866 99.8367C170.602 99.7164 170.301 99.6563 169.964 99.6563C169.496 99.6563 169.099 99.7585 168.774 99.9629C168.461 100.167 168.215 100.432 168.035 100.756C167.866 101.069 167.764 101.412 167.728 101.784H172.67L172.02 102.253ZM175.934 107.051V98.1594H177.954V100.558L177.576 100.612C177.636 100.095 177.81 99.6443 178.099 99.2595C178.387 98.8628 178.736 98.5562 179.145 98.3398C179.565 98.1113 179.98 97.9971 180.389 97.9971C180.678 97.9971 180.954 98.0332 181.219 98.1053C181.483 98.1774 181.76 98.2977 182.048 98.466L181.074 100.27C180.942 100.185 180.768 100.119 180.551 100.071C180.347 100.011 180.149 99.981 179.956 99.981C179.704 99.981 179.451 100.029 179.199 100.125C178.958 100.221 178.742 100.372 178.549 100.576C178.357 100.768 178.213 101.021 178.117 101.334C178.057 101.502 178.008 101.724 177.972 102.001C177.948 102.265 177.936 102.638 177.936 103.119V107.051H175.934ZM186.274 107.213C185.636 107.213 185.071 107.123 184.578 106.943C184.085 106.75 183.67 106.51 183.334 106.221C182.997 105.933 182.721 105.644 182.504 105.355L183.875 104.165C184.103 104.538 184.416 104.869 184.813 105.157C185.221 105.446 185.714 105.59 186.292 105.59C186.772 105.59 187.151 105.488 187.428 105.283C187.716 105.079 187.861 104.826 187.861 104.526C187.861 104.261 187.77 104.057 187.59 103.913C187.41 103.756 187.175 103.624 186.887 103.516C186.598 103.408 186.28 103.311 185.931 103.227C185.594 103.143 185.252 103.041 184.903 102.921C184.554 102.788 184.23 102.626 183.929 102.434C183.64 102.241 183.406 101.995 183.226 101.694C183.045 101.394 182.955 101.021 182.955 100.576C182.955 99.7946 183.256 99.1694 183.857 98.7005C184.458 98.2315 185.245 97.9971 186.219 97.9971C186.917 97.9971 187.554 98.1354 188.131 98.4119C188.708 98.6884 189.159 99.1032 189.484 99.6563L188.239 100.612C187.999 100.251 187.698 99.981 187.338 99.8006C186.977 99.6203 186.586 99.5301 186.165 99.5301C185.781 99.5301 185.456 99.6082 185.191 99.7645C184.939 99.9208 184.813 100.125 184.813 100.378C184.813 100.57 184.873 100.726 184.993 100.847C185.113 100.967 185.3 101.075 185.552 101.171C185.805 101.267 186.123 101.364 186.508 101.46C186.869 101.544 187.241 101.646 187.626 101.766C188.011 101.887 188.366 102.049 188.69 102.253C189.027 102.446 189.297 102.71 189.502 103.047C189.718 103.372 189.826 103.792 189.826 104.309C189.826 104.887 189.676 105.398 189.376 105.842C189.087 106.275 188.672 106.612 188.131 106.852C187.602 107.093 186.983 107.213 186.274 107.213ZM201.125 107.231C200.68 107.231 200.247 107.147 199.826 106.979C199.418 106.798 199.057 106.504 198.744 106.095C198.432 105.674 198.197 105.115 198.041 104.418L198.582 104.67V107.051H196.346V94.4802H198.582V100.558L198.113 100.702C198.221 100.089 198.42 99.5842 198.708 99.1874C199.009 98.7786 199.37 98.478 199.79 98.2856C200.211 98.0812 200.656 97.979 201.125 97.979C201.822 97.979 202.46 98.1654 203.037 98.5381C203.614 98.8988 204.071 99.4219 204.407 100.107C204.744 100.793 204.912 101.622 204.912 102.596C204.912 103.474 204.762 104.267 204.462 104.977C204.161 105.674 203.722 106.227 203.145 106.636C202.58 107.033 201.907 107.231 201.125 107.231ZM200.512 105.175C200.957 105.175 201.335 105.073 201.648 104.869C201.973 104.652 202.225 104.352 202.405 103.967C202.586 103.582 202.676 103.125 202.676 102.596C202.676 102.067 202.586 101.616 202.405 101.243C202.225 100.859 201.973 100.564 201.648 100.36C201.335 100.143 200.957 100.035 200.512 100.035C200.079 100.035 199.7 100.143 199.376 100.36C199.063 100.564 198.816 100.859 198.636 101.243C198.468 101.628 198.384 102.079 198.384 102.596C198.384 103.113 198.468 103.564 198.636 103.949C198.816 104.333 199.063 104.634 199.376 104.85C199.7 105.067 200.079 105.175 200.512 105.175ZM210.67 107.231C209.9 107.231 209.239 107.105 208.686 106.852C208.133 106.6 207.676 106.263 207.315 105.842C206.966 105.41 206.708 104.923 206.54 104.382C206.371 103.828 206.287 103.251 206.287 102.65C206.287 102.073 206.371 101.508 206.54 100.955C206.708 100.402 206.96 99.9028 207.297 99.4579C207.634 99.0131 208.066 98.6584 208.596 98.3939C209.137 98.1173 209.78 97.979 210.525 97.979C211.223 97.979 211.83 98.0993 212.347 98.3398C212.864 98.5682 213.291 98.8928 213.627 99.3137C213.964 99.7225 214.217 100.203 214.385 100.756C214.565 101.31 214.655 101.899 214.655 102.524C214.655 102.608 214.649 102.728 214.637 102.885C214.637 103.029 214.625 103.185 214.601 103.354H208.523C208.583 103.991 208.818 104.472 209.227 104.796C209.648 105.121 210.171 105.283 210.796 105.283C211.253 105.283 211.698 105.205 212.13 105.049C212.563 104.881 212.948 104.646 213.285 104.345L214.403 105.86C213.982 106.185 213.585 106.45 213.213 106.654C212.84 106.858 212.449 107.003 212.04 107.087C211.643 107.183 211.187 107.231 210.67 107.231ZM212.437 102.235C212.461 102.139 212.479 102.043 212.491 101.947C212.515 101.851 212.527 101.76 212.527 101.676C212.527 101.424 212.479 101.189 212.383 100.973C212.287 100.744 212.154 100.546 211.986 100.378C211.818 100.209 211.613 100.083 211.373 99.999C211.145 99.9028 210.88 99.8547 210.579 99.8547C210.135 99.8547 209.762 99.9449 209.461 100.125C209.161 100.306 208.932 100.54 208.776 100.829C208.632 101.105 208.541 101.394 208.505 101.694H213.195L212.437 102.235ZM218.533 107.231C217.92 107.231 217.415 107.045 217.018 106.672C216.621 106.299 216.423 105.71 216.423 104.905V94.4802H218.641V104.472C218.641 104.724 218.702 104.905 218.822 105.013C218.942 105.109 219.098 105.157 219.291 105.157C219.387 105.157 219.489 105.151 219.597 105.139C219.706 105.115 219.82 105.085 219.94 105.049V106.961C219.687 107.057 219.435 107.123 219.182 107.159C218.942 107.207 218.726 107.231 218.533 107.231ZM221.461 107.051V98.1594H223.697V107.051H221.461ZM221.389 96.7887V94.4802H223.787V96.7887H221.389ZM229.867 107.231C229.098 107.231 228.436 107.105 227.883 106.852C227.33 106.6 226.873 106.263 226.513 105.842C226.164 105.41 225.906 104.923 225.737 104.382C225.569 103.828 225.485 103.251 225.485 102.65C225.485 102.073 225.569 101.508 225.737 100.955C225.906 100.402 226.158 99.9028 226.495 99.4579C226.831 99.0131 227.264 98.6584 227.793 98.3939C228.334 98.1173 228.978 97.979 229.723 97.979C230.42 97.979 231.028 98.0993 231.545 98.3398C232.062 98.5682 232.488 98.8928 232.825 99.3137C233.162 99.7225 233.414 100.203 233.583 100.756C233.763 101.31 233.853 101.899 233.853 102.524C233.853 102.608 233.847 102.728 233.835 102.885C233.835 103.029 233.823 103.185 233.799 103.354H227.721C227.781 103.991 228.016 104.472 228.424 104.796C228.845 105.121 229.368 105.283 229.994 105.283C230.45 105.283 230.895 105.205 231.328 105.049C231.761 104.881 232.146 104.646 232.482 104.345L233.601 105.86C233.18 106.185 232.783 106.45 232.41 106.654C232.038 106.858 231.647 107.003 231.238 107.087C230.841 107.183 230.384 107.231 229.867 107.231ZM231.635 102.235C231.659 102.139 231.677 102.043 231.689 101.947C231.713 101.851 231.725 101.76 231.725 101.676C231.725 101.424 231.677 101.189 231.581 100.973C231.484 100.744 231.352 100.546 231.184 100.378C231.016 100.209 230.811 100.083 230.571 99.999C230.342 99.9028 230.078 99.8547 229.777 99.8547C229.332 99.8547 228.959 99.9449 228.659 100.125C228.358 100.306 228.13 100.54 227.974 100.829C227.829 101.105 227.739 101.394 227.703 101.694H232.392L231.635 102.235ZM238.206 107.051L234.563 98.1594H237.016L239.108 104.129L241.236 98.1594H243.653L240.046 107.051H238.206ZM248.695 107.231C247.926 107.231 247.264 107.105 246.711 106.852C246.158 106.6 245.701 106.263 245.341 105.842C244.992 105.41 244.733 104.923 244.565 104.382C244.397 103.828 244.313 103.251 244.313 102.65C244.313 102.073 244.397 101.508 244.565 100.955C244.733 100.402 244.986 99.9028 245.322 99.4579C245.659 99.0131 246.092 98.6584 246.621 98.3939C247.162 98.1173 247.805 97.979 248.551 97.979C249.248 97.979 249.855 98.0993 250.372 98.3398C250.889 98.5682 251.316 98.8928 251.653 99.3137C251.99 99.7225 252.242 100.203 252.41 100.756C252.591 101.31 252.681 101.899 252.681 102.524C252.681 102.608 252.675 102.728 252.663 102.885C252.663 103.029 252.651 103.185 252.627 103.354H246.549C246.609 103.991 246.843 104.472 247.252 104.796C247.673 105.121 248.196 105.283 248.821 105.283C249.278 105.283 249.723 105.205 250.156 105.049C250.589 104.881 250.974 104.646 251.31 104.345L252.428 105.86C252.008 106.185 251.611 106.45 251.238 106.654C250.865 106.858 250.475 107.003 250.066 107.087C249.669 107.183 249.212 107.231 248.695 107.231ZM250.463 102.235C250.487 102.139 250.505 102.043 250.517 101.947C250.541 101.851 250.553 101.76 250.553 101.676C250.553 101.424 250.505 101.189 250.408 100.973C250.312 100.744 250.18 100.546 250.012 100.378C249.843 100.209 249.639 100.083 249.398 99.999C249.17 99.9028 248.906 99.8547 248.605 99.8547C248.16 99.8547 247.787 99.9449 247.487 100.125C247.186 100.306 246.958 100.54 246.801 100.829C246.657 101.105 246.567 101.394 246.531 101.694H251.22L250.463 102.235ZM42.9908 143.231C42.5098 143.231 42.065 143.141 41.6562 142.961C41.2474 142.78 40.9167 142.486 40.6642 142.077C40.4238 141.668 40.3035 141.121 40.3035 140.436V132.085L42.576 130.877V139.822C42.576 140.339 42.6421 140.73 42.7744 140.995C42.9186 141.259 43.1952 141.392 43.604 141.392C43.7242 141.392 43.8565 141.38 44.0008 141.355C44.1571 141.331 44.3254 141.295 44.5057 141.247V142.961C44.2532 143.057 44.0008 143.123 43.7483 143.159C43.4958 143.207 43.2433 143.231 42.9908 143.231ZM38.6804 135.909V134.159H44.5057V135.909H38.6804ZM46.2225 143.051V130.48H48.4769V136.179L48.0981 136.233C48.2544 135.692 48.4829 135.26 48.7835 134.935C49.0961 134.598 49.4508 134.358 49.8476 134.214C50.2564 134.057 50.6652 133.979 51.074 133.979C52.0839 133.979 52.8715 134.268 53.4366 134.845C54.0137 135.41 54.3023 136.209 54.3023 137.243V143.051H52.0479V138.073C52.0479 137.328 51.9156 136.787 51.6511 136.45C51.3866 136.101 50.9718 135.927 50.4067 135.927C49.7694 135.927 49.2885 136.155 48.9638 136.612C48.6392 137.069 48.4769 137.797 48.4769 138.794V143.051H46.2225ZM62.1017 143.051L61.9213 141.716V137.442C61.9213 136.913 61.753 136.522 61.4163 136.27C61.0917 136.005 60.6468 135.873 60.0817 135.873C59.6128 135.873 59.1319 135.969 58.6389 136.161C58.158 136.342 57.7311 136.6 57.3584 136.937L56.2222 135.404C56.8474 134.899 57.4846 134.538 58.1339 134.322C58.7952 134.093 59.5046 133.979 60.2621 133.979C61.4885 133.979 62.4443 134.286 63.1297 134.899C63.815 135.512 64.1577 136.36 64.1577 137.442V143.051H62.1017ZM59.4144 143.231C58.7651 143.231 58.182 143.111 57.665 142.87C57.16 142.63 56.7572 142.287 56.4566 141.842C56.1681 141.398 56.0238 140.887 56.0238 140.309C56.0238 139.792 56.126 139.354 56.3304 138.993C56.5468 138.62 56.8294 138.338 57.178 138.145C57.4786 137.965 57.8093 137.839 58.17 137.766C58.5427 137.694 58.9395 137.658 59.3603 137.658H62.1197V139.317H59.6849C59.4926 139.317 59.3002 139.336 59.1078 139.372C58.9275 139.396 58.7712 139.462 58.6389 139.57C58.5187 139.654 58.4285 139.762 58.3684 139.895C58.3083 140.015 58.2782 140.153 58.2782 140.309C58.2782 140.646 58.4105 140.917 58.675 141.121C58.9395 141.325 59.2942 141.428 59.7391 141.428C60.1358 141.428 60.4965 141.343 60.8212 141.175C61.1578 140.995 61.4223 140.754 61.6147 140.454C61.8191 140.141 61.9213 139.786 61.9213 139.39L62.5165 140.58C62.3602 141.205 62.1197 141.716 61.7951 142.113C61.4825 142.498 61.1218 142.78 60.713 142.961C60.3042 143.141 59.8713 143.231 59.4144 143.231ZM69.6386 143.231C69.1576 143.231 68.7128 143.141 68.304 142.961C67.8952 142.78 67.5645 142.486 67.312 142.077C67.0716 141.668 66.9513 141.121 66.9513 140.436V132.085L69.2238 130.877V139.822C69.2238 140.339 69.2899 140.73 69.4222 140.995C69.5664 141.259 69.843 141.392 70.2518 141.392C70.372 141.392 70.5043 141.38 70.6486 141.355C70.8049 141.331 70.9732 141.295 71.1535 141.247V142.961C70.901 143.057 70.6486 143.123 70.3961 143.159C70.1436 143.207 69.8911 143.231 69.6386 143.231ZM65.3281 135.909V134.159H71.1535V135.909H65.3281ZM81.4689 143.231C80.7475 143.231 80.1162 143.105 79.5752 142.852C79.0461 142.588 78.5952 142.239 78.2225 141.806C77.8618 141.374 77.5913 140.881 77.4109 140.327C77.2306 139.774 77.1404 139.197 77.1404 138.596C77.1404 138.007 77.2306 137.436 77.4109 136.883C77.5913 136.33 77.8618 135.837 78.2225 135.404C78.5952 134.971 79.0461 134.628 79.5752 134.376C80.1162 134.111 80.7475 133.979 81.4689 133.979C82.3706 133.979 83.1522 134.195 83.8134 134.628C84.4747 135.061 84.9677 135.716 85.2923 136.594L83.3445 137.37C83.2002 136.949 82.9778 136.606 82.6772 136.342C82.3887 136.065 81.9859 135.927 81.4689 135.927C80.9879 135.927 80.5911 136.059 80.2785 136.324C79.9659 136.576 79.7375 136.907 79.5932 137.316C79.4489 137.724 79.3768 138.151 79.3768 138.596C79.3768 139.041 79.4489 139.474 79.5932 139.895C79.7375 140.303 79.9659 140.64 80.2785 140.905C80.5911 141.157 80.9879 141.283 81.4689 141.283C81.9859 141.283 82.3887 141.151 82.6772 140.887C82.9778 140.61 83.2002 140.255 83.3445 139.822L85.2923 140.598C84.9677 141.488 84.4747 142.149 83.8134 142.582C83.1522 143.015 82.3706 143.231 81.4689 143.231ZM86.9779 143.051V134.159H89.2323V136.576L88.8897 136.612C88.9257 136.095 89.082 135.638 89.3586 135.242C89.6351 134.845 89.9718 134.538 90.3686 134.322C90.7774 134.093 91.1922 133.979 91.613 133.979C91.9136 133.979 92.1961 134.021 92.4606 134.105C92.7372 134.177 93.0197 134.304 93.3083 134.484L92.2262 136.504C92.0939 136.432 91.9256 136.366 91.7212 136.306C91.5168 136.245 91.3124 136.215 91.108 136.215C90.8675 136.215 90.6331 136.258 90.4046 136.342C90.1882 136.426 89.9898 136.558 89.8095 136.738C89.6411 136.919 89.5029 137.159 89.3947 137.46C89.3466 137.628 89.3045 137.845 89.2684 138.109C89.2444 138.362 89.2323 138.734 89.2323 139.227V143.051H86.9779ZM98.1492 143.231C97.3797 143.231 96.7184 143.105 96.1653 142.852C95.6123 142.6 95.1554 142.263 94.7947 141.842C94.446 141.41 94.1875 140.923 94.0191 140.382C93.8508 139.828 93.7667 139.251 93.7667 138.65C93.7667 138.073 93.8508 137.508 94.0191 136.955C94.1875 136.402 94.44 135.903 94.7766 135.458C95.1133 135.013 95.5461 134.658 96.0752 134.394C96.6162 134.117 97.2595 133.979 98.0049 133.979C98.7023 133.979 99.3095 134.099 99.8265 134.34C100.344 134.568 100.77 134.893 101.107 135.314C101.444 135.722 101.696 136.203 101.864 136.756C102.045 137.31 102.135 137.899 102.135 138.524C102.135 138.608 102.129 138.728 102.117 138.885C102.117 139.029 102.105 139.185 102.081 139.354H96.003C96.0631 139.991 96.2976 140.472 96.7064 140.796C97.1272 141.121 97.6502 141.283 98.2755 141.283C98.7324 141.283 99.1772 141.205 99.6101 141.049C100.043 140.881 100.428 140.646 100.764 140.345L101.883 141.86C101.462 142.185 101.065 142.45 100.692 142.654C100.319 142.858 99.9287 143.003 99.5199 143.087C99.1231 143.183 98.6662 143.231 98.1492 143.231ZM99.9167 138.235C99.9407 138.139 99.9588 138.043 99.9708 137.947C99.9948 137.851 100.007 137.76 100.007 137.676C100.007 137.424 99.9588 137.189 99.8626 136.973C99.7664 136.744 99.6341 136.546 99.4658 136.378C99.2975 136.209 99.0931 136.083 98.8526 135.999C98.6241 135.903 98.3596 135.855 98.059 135.855C97.6142 135.855 97.2414 135.945 96.9409 136.125C96.6403 136.306 96.4118 136.54 96.2555 136.829C96.1112 137.105 96.0211 137.394 95.985 137.694H100.674L99.9167 138.235ZM109.638 143.051L109.458 141.716V137.442C109.458 136.913 109.289 136.522 108.953 136.27C108.628 136.005 108.183 135.873 107.618 135.873C107.149 135.873 106.668 135.969 106.175 136.161C105.694 136.342 105.267 136.6 104.895 136.937L103.758 135.404C104.384 134.899 105.021 134.538 105.67 134.322C106.331 134.093 107.041 133.979 107.798 133.979C109.025 133.979 109.981 134.286 110.666 134.899C111.351 135.512 111.694 136.36 111.694 137.442V143.051H109.638ZM106.951 143.231C106.301 143.231 105.718 143.111 105.201 142.87C104.696 142.63 104.294 142.287 103.993 141.842C103.704 141.398 103.56 140.887 103.56 140.309C103.56 139.792 103.662 139.354 103.867 138.993C104.083 138.62 104.366 138.338 104.714 138.145C105.015 137.965 105.346 137.839 105.706 137.766C106.079 137.694 106.476 137.658 106.897 137.658H109.656V139.317H107.221C107.029 139.317 106.836 139.336 106.644 139.372C106.464 139.396 106.307 139.462 106.175 139.57C106.055 139.654 105.965 139.762 105.905 139.895C105.845 140.015 105.814 140.153 105.814 140.309C105.814 140.646 105.947 140.917 106.211 141.121C106.476 141.325 106.83 141.428 107.275 141.428C107.672 141.428 108.033 141.343 108.357 141.175C108.694 140.995 108.959 140.754 109.151 140.454C109.355 140.141 109.458 139.786 109.458 139.39L110.053 140.58C109.896 141.205 109.656 141.716 109.331 142.113C109.019 142.498 108.658 142.78 108.249 142.961C107.84 143.141 107.408 143.231 106.951 143.231ZM117.175 143.231C116.694 143.231 116.249 143.141 115.84 142.961C115.431 142.78 115.101 142.486 114.848 142.077C114.608 141.668 114.488 141.121 114.488 140.436V132.085L116.76 130.877V139.822C116.76 140.339 116.826 140.73 116.958 140.995C117.103 141.259 117.379 141.392 117.788 141.392C117.908 141.392 118.041 141.38 118.185 141.355C118.341 141.331 118.509 141.295 118.69 141.247V142.961C118.437 143.057 118.185 143.123 117.932 143.159C117.68 143.207 117.427 143.231 117.175 143.231ZM112.864 135.909V134.159H118.69V135.909H112.864ZM120.389 143.051V134.159H122.625V143.051H120.389ZM120.316 132.789V130.48H122.715V132.789H120.316ZM124.827 143.051V134.159H127.082V136.179L126.721 136.215C126.877 135.674 127.106 135.242 127.406 134.917C127.707 134.592 128.056 134.358 128.452 134.214C128.849 134.057 129.258 133.979 129.679 133.979C130.689 133.979 131.476 134.268 132.041 134.845C132.619 135.41 132.907 136.209 132.907 137.243V143.051H130.653V138.073C130.653 137.328 130.52 136.787 130.256 136.45C129.991 136.101 129.577 135.927 129.011 135.927C128.579 135.927 128.218 136.029 127.929 136.233C127.653 136.426 127.442 136.732 127.298 137.153C127.154 137.574 127.082 138.121 127.082 138.794V143.051H124.827ZM138.759 146.91C137.436 146.91 136.39 146.676 135.621 146.207C134.863 145.738 134.484 145.089 134.484 144.259C134.484 144.187 134.49 144.097 134.502 143.989C134.514 143.892 134.532 143.796 134.556 143.7L137.045 142.149L137.604 142.78L136.468 144.169C136.456 144.205 136.45 144.235 136.45 144.259C136.45 144.283 136.45 144.307 136.45 144.331C136.45 144.668 136.661 144.926 137.081 145.107C137.502 145.287 138.061 145.377 138.759 145.377C139.348 145.377 139.799 145.299 140.111 145.143C140.424 144.999 140.58 144.782 140.58 144.494C140.58 144.337 140.538 144.211 140.454 144.115C140.37 144.019 140.232 143.941 140.039 143.88C139.847 143.82 139.594 143.766 139.282 143.718C138.981 143.67 138.614 143.616 138.182 143.556C137.628 143.496 137.087 143.381 136.558 143.213C136.029 143.057 135.591 142.822 135.242 142.51C134.893 142.185 134.719 141.758 134.719 141.229C134.719 140.76 134.881 140.333 135.206 139.949C135.53 139.552 135.957 139.227 136.486 138.975L137.568 139.841C137.244 139.889 136.997 139.997 136.829 140.165C136.673 140.333 136.594 140.532 136.594 140.76C136.594 140.953 136.673 141.109 136.829 141.229C136.985 141.337 137.208 141.422 137.496 141.482C137.785 141.542 138.127 141.596 138.524 141.644C139.137 141.728 139.703 141.818 140.22 141.915C140.749 142.011 141.205 142.149 141.59 142.329C141.987 142.498 142.288 142.732 142.492 143.033C142.708 143.333 142.817 143.724 142.817 144.205C142.817 145.083 142.462 145.75 141.753 146.207C141.055 146.676 140.057 146.91 138.759 146.91ZM138.578 140.562C137.833 140.562 137.178 140.424 136.613 140.147C136.059 139.859 135.627 139.474 135.314 138.993C135.001 138.5 134.845 137.935 134.845 137.298C134.845 136.636 135.007 136.059 135.332 135.566C135.669 135.061 136.114 134.67 136.667 134.394C137.232 134.117 137.845 133.979 138.506 133.979C139.155 133.979 139.757 134.117 140.31 134.394C140.875 134.67 141.326 135.067 141.662 135.584C142.011 136.089 142.185 136.684 142.185 137.37C142.185 138.019 142.029 138.584 141.716 139.065C141.416 139.534 140.995 139.901 140.454 140.165C139.913 140.43 139.288 140.562 138.578 140.562ZM138.524 138.794C139.005 138.794 139.36 138.65 139.588 138.362C139.829 138.061 139.949 137.7 139.949 137.279C139.949 136.847 139.823 136.498 139.57 136.233C139.318 135.957 138.969 135.819 138.524 135.819C138.079 135.819 137.725 135.957 137.46 136.233C137.208 136.51 137.081 136.859 137.081 137.279C137.081 137.7 137.202 138.061 137.442 138.362C137.683 138.65 138.043 138.794 138.524 138.794ZM141.572 136.035L139.967 134.989L142.023 133.348L143.159 134.737L141.572 136.035ZM154.814 143.051L154.634 141.716V137.442C154.634 136.913 154.465 136.522 154.129 136.27C153.804 136.005 153.359 135.873 152.794 135.873C152.325 135.873 151.844 135.969 151.351 136.161C150.87 136.342 150.444 136.6 150.071 136.937L148.935 135.404C149.56 134.899 150.197 134.538 150.846 134.322C151.508 134.093 152.217 133.979 152.975 133.979C154.201 133.979 155.157 134.286 155.842 134.899C156.528 135.512 156.87 136.36 156.87 137.442V143.051H154.814ZM152.127 143.231C151.478 143.231 150.894 143.111 150.377 142.87C149.873 142.63 149.47 142.287 149.169 141.842C148.881 141.398 148.736 140.887 148.736 140.309C148.736 139.792 148.838 139.354 149.043 138.993C149.259 138.62 149.542 138.338 149.891 138.145C150.191 137.965 150.522 137.839 150.882 137.766C151.255 137.694 151.652 137.658 152.073 137.658H154.832V139.317H152.397C152.205 139.317 152.013 139.336 151.82 139.372C151.64 139.396 151.484 139.462 151.351 139.57C151.231 139.654 151.141 139.762 151.081 139.895C151.021 140.015 150.991 140.153 150.991 140.309C150.991 140.646 151.123 140.917 151.387 141.121C151.652 141.325 152.007 141.428 152.452 141.428C152.848 141.428 153.209 141.343 153.534 141.175C153.87 140.995 154.135 140.754 154.327 140.454C154.532 140.141 154.634 139.786 154.634 139.39L155.229 140.58C155.073 141.205 154.832 141.716 154.508 142.113C154.195 142.498 153.834 142.78 153.425 142.961C153.017 143.141 152.584 143.231 152.127 143.231ZM167.036 143.231C166.555 143.231 166.11 143.141 165.701 142.961C165.293 142.78 164.962 142.486 164.709 142.077C164.469 141.668 164.349 141.121 164.349 140.436V132.085L166.621 130.877V139.822C166.621 140.339 166.687 140.73 166.82 140.995C166.964 141.259 167.24 141.392 167.649 141.392C167.769 141.392 167.902 141.38 168.046 141.355C168.202 141.331 168.371 141.295 168.551 141.247V142.961C168.298 143.057 168.046 143.123 167.793 143.159C167.541 143.207 167.289 143.231 167.036 143.231ZM162.726 135.909V134.159H168.551V135.909H162.726ZM174.059 143.231C173.29 143.231 172.629 143.105 172.075 142.852C171.522 142.6 171.065 142.263 170.705 141.842C170.356 141.41 170.098 140.923 169.929 140.382C169.761 139.828 169.677 139.251 169.677 138.65C169.677 138.073 169.761 137.508 169.929 136.955C170.098 136.402 170.35 135.903 170.687 135.458C171.023 135.013 171.456 134.658 171.985 134.394C172.526 134.117 173.17 133.979 173.915 133.979C174.612 133.979 175.22 134.099 175.737 134.34C176.254 134.568 176.68 134.893 177.017 135.314C177.354 135.722 177.606 136.203 177.775 136.756C177.955 137.31 178.045 137.899 178.045 138.524C178.045 138.608 178.039 138.728 178.027 138.885C178.027 139.029 178.015 139.185 177.991 139.354H171.913C171.973 139.991 172.208 140.472 172.617 140.796C173.037 141.121 173.56 141.283 174.186 141.283C174.642 141.283 175.087 141.205 175.52 141.049C175.953 140.881 176.338 140.646 176.674 140.345L177.793 141.86C177.372 142.185 176.975 142.45 176.602 142.654C176.23 142.858 175.839 143.003 175.43 143.087C175.033 143.183 174.576 143.231 174.059 143.231ZM175.827 138.235C175.851 138.139 175.869 138.043 175.881 137.947C175.905 137.851 175.917 137.76 175.917 137.676C175.917 137.424 175.869 137.189 175.773 136.973C175.676 136.744 175.544 136.546 175.376 136.378C175.208 136.209 175.003 136.083 174.763 135.999C174.534 135.903 174.27 135.855 173.969 135.855C173.524 135.855 173.152 135.945 172.851 136.125C172.55 136.306 172.322 136.54 172.166 136.829C172.021 137.105 171.931 137.394 171.895 137.694H176.584L175.827 138.235ZM185.548 143.051L185.368 141.716V137.442C185.368 136.913 185.199 136.522 184.863 136.27C184.538 136.005 184.093 135.873 183.528 135.873C183.059 135.873 182.578 135.969 182.085 136.161C181.604 136.342 181.178 136.6 180.805 136.937L179.669 135.404C180.294 134.899 180.931 134.538 181.58 134.322C182.242 134.093 182.951 133.979 183.708 133.979C184.935 133.979 185.891 134.286 186.576 134.899C187.261 135.512 187.604 136.36 187.604 137.442V143.051H185.548ZM182.861 143.231C182.212 143.231 181.628 143.111 181.111 142.87C180.606 142.63 180.204 142.287 179.903 141.842C179.614 141.398 179.47 140.887 179.47 140.309C179.47 139.792 179.572 139.354 179.777 138.993C179.993 138.62 180.276 138.338 180.624 138.145C180.925 137.965 181.256 137.839 181.616 137.766C181.989 137.694 182.386 137.658 182.807 137.658H185.566V139.317H183.131C182.939 139.317 182.747 139.336 182.554 139.372C182.374 139.396 182.218 139.462 182.085 139.57C181.965 139.654 181.875 139.762 181.815 139.895C181.755 140.015 181.725 140.153 181.725 140.309C181.725 140.646 181.857 140.917 182.121 141.121C182.386 141.325 182.741 141.428 183.185 141.428C183.582 141.428 183.943 141.343 184.268 141.175C184.604 140.995 184.869 140.754 185.061 140.454C185.266 140.141 185.368 139.786 185.368 139.39L185.963 140.58C185.807 141.205 185.566 141.716 185.241 142.113C184.929 142.498 184.568 142.78 184.159 142.961C183.751 143.141 183.318 143.231 182.861 143.231ZM189.694 143.051V134.159H191.949V136.468L191.462 136.847C191.546 136.282 191.69 135.813 191.895 135.44C192.099 135.067 192.34 134.779 192.616 134.574C192.905 134.358 193.199 134.207 193.5 134.123C193.812 134.027 194.119 133.979 194.42 133.979C194.889 133.979 195.333 134.069 195.754 134.25C196.175 134.418 196.542 134.712 196.854 135.133C197.167 135.554 197.383 136.131 197.504 136.865L196.169 137.352C196.349 136.51 196.608 135.843 196.945 135.35C197.293 134.857 197.69 134.508 198.135 134.304C198.592 134.087 199.073 133.979 199.578 133.979C200.335 133.979 200.948 134.147 201.417 134.484C201.886 134.821 202.229 135.254 202.445 135.783C202.674 136.3 202.788 136.853 202.788 137.442V143.051H200.552V137.983C200.552 137.538 200.491 137.165 200.371 136.865C200.263 136.552 200.101 136.318 199.884 136.161C199.668 136.005 199.385 135.927 199.037 135.927C198.676 135.927 198.369 136.023 198.117 136.215C197.864 136.408 197.672 136.696 197.54 137.081C197.419 137.466 197.359 137.959 197.359 138.56V143.051H195.123V137.947C195.123 137.273 194.997 136.768 194.744 136.432C194.504 136.095 194.149 135.927 193.68 135.927C193.307 135.927 192.989 136.023 192.724 136.215C192.472 136.408 192.279 136.696 192.147 137.081C192.015 137.466 191.949 137.959 191.949 138.56V143.051H189.694ZM212.97 143.231C212.489 143.231 212.044 143.141 211.635 142.961C211.226 142.78 210.895 142.486 210.643 142.077C210.403 141.668 210.282 141.121 210.282 140.436V132.085L212.555 130.877V139.822C212.555 140.339 212.621 140.73 212.753 140.995C212.897 141.259 213.174 141.392 213.583 141.392C213.703 141.392 213.835 141.38 213.98 141.355C214.136 141.331 214.304 141.295 214.485 141.247V142.961C214.232 143.057 213.98 143.123 213.727 143.159C213.475 143.207 213.222 143.231 212.97 143.231ZM208.659 135.909V134.159H214.485V135.909H208.659ZM216.201 143.051V134.159H218.456V136.576L218.113 136.612C218.149 136.095 218.305 135.638 218.582 135.242C218.858 134.845 219.195 134.538 219.592 134.322C220.001 134.093 220.415 133.979 220.836 133.979C221.137 133.979 221.419 134.021 221.684 134.105C221.961 134.177 222.243 134.304 222.532 134.484L221.45 136.504C221.317 136.432 221.149 136.366 220.945 136.306C220.74 136.245 220.536 136.215 220.331 136.215C220.091 136.215 219.856 136.258 219.628 136.342C219.412 136.426 219.213 136.558 219.033 136.738C218.864 136.919 218.726 137.159 218.618 137.46C218.57 137.628 218.528 137.845 218.492 138.109C218.468 138.362 218.456 138.734 218.456 139.227V143.051H216.201ZM229.403 143.051L229.223 141.716V137.442C229.223 136.913 229.055 136.522 228.718 136.27C228.393 136.005 227.948 135.873 227.383 135.873C226.914 135.873 226.434 135.969 225.941 136.161C225.46 136.342 225.033 136.6 224.66 136.937L223.524 135.404C224.149 134.899 224.786 134.538 225.436 134.322C226.097 134.093 226.806 133.979 227.564 133.979C228.79 133.979 229.746 134.286 230.431 134.899C231.117 135.512 231.459 136.36 231.459 137.442V143.051H229.403ZM226.716 143.231C226.067 143.231 225.484 143.111 224.967 142.87C224.462 142.63 224.059 142.287 223.758 141.842C223.47 141.398 223.325 140.887 223.325 140.309C223.325 139.792 223.428 139.354 223.632 138.993C223.848 138.62 224.131 138.338 224.48 138.145C224.78 137.965 225.111 137.839 225.472 137.766C225.844 137.694 226.241 137.658 226.662 137.658H229.421V139.317H226.987C226.794 139.317 226.602 139.336 226.409 139.372C226.229 139.396 226.073 139.462 225.941 139.57C225.82 139.654 225.73 139.762 225.67 139.895C225.61 140.015 225.58 140.153 225.58 140.309C225.58 140.646 225.712 140.917 225.977 141.121C226.241 141.325 226.596 141.428 227.041 141.428C227.437 141.428 227.798 141.343 228.123 141.175C228.459 140.995 228.724 140.754 228.916 140.454C229.121 140.141 229.223 139.786 229.223 139.39L229.818 140.58C229.662 141.205 229.421 141.716 229.097 142.113C228.784 142.498 228.423 142.78 228.015 142.961C227.606 143.141 227.173 143.231 226.716 143.231ZM236.117 143.051L232.473 134.159H234.926L237.018 140.129L239.146 134.159H241.563L237.956 143.051H236.117ZM246.605 143.231C245.836 143.231 245.175 143.105 244.622 142.852C244.068 142.6 243.612 142.263 243.251 141.842C242.902 141.41 242.644 140.923 242.475 140.382C242.307 139.828 242.223 139.251 242.223 138.65C242.223 138.073 242.307 137.508 242.475 136.955C242.644 136.402 242.896 135.903 243.233 135.458C243.57 135.013 244.002 134.658 244.531 134.394C245.072 134.117 245.716 133.979 246.461 133.979C247.159 133.979 247.766 134.099 248.283 134.34C248.8 134.568 249.227 134.893 249.563 135.314C249.9 135.722 250.152 136.203 250.321 136.756C250.501 137.31 250.591 137.899 250.591 138.524C250.591 138.608 250.585 138.728 250.573 138.885C250.573 139.029 250.561 139.185 250.537 139.354H244.459C244.519 139.991 244.754 140.472 245.163 140.796C245.583 141.121 246.106 141.283 246.732 141.283C247.189 141.283 247.633 141.205 248.066 141.049C248.499 140.881 248.884 140.646 249.221 140.345L250.339 141.86C249.918 142.185 249.521 142.45 249.148 142.654C248.776 142.858 248.385 143.003 247.976 143.087C247.579 143.183 247.122 143.231 246.605 143.231ZM248.373 138.235C248.397 138.139 248.415 138.043 248.427 137.947C248.451 137.851 248.463 137.76 248.463 137.676C248.463 137.424 248.415 137.189 248.319 136.973C248.223 136.744 248.09 136.546 247.922 136.378C247.754 136.209 247.549 136.083 247.309 135.999C247.08 135.903 246.816 135.855 246.515 135.855C246.07 135.855 245.698 135.945 245.397 136.125C245.097 136.306 244.868 136.54 244.712 136.829C244.567 137.105 244.477 137.394 244.441 137.694H249.13L248.373 138.235ZM254.469 143.231C253.856 143.231 253.351 143.045 252.954 142.672C252.557 142.299 252.359 141.71 252.359 140.905V130.48H254.577V140.472C254.577 140.724 254.637 140.905 254.758 141.013C254.878 141.109 255.034 141.157 255.227 141.157C255.323 141.157 255.425 141.151 255.533 141.139C255.641 141.115 255.756 141.085 255.876 141.049V142.961C255.623 143.057 255.371 143.123 255.118 143.159C254.878 143.207 254.661 143.231 254.469 143.231ZM39.6002 182.73V170.159H41.8365V172.54L41.2955 172.72C41.4518 172.011 41.6862 171.458 41.9988 171.061C42.3235 170.664 42.6902 170.388 43.099 170.232C43.5078 170.063 43.9346 169.979 44.3795 169.979C45.161 169.979 45.8343 170.183 46.3994 170.592C46.9766 170.989 47.4154 171.536 47.716 172.233C48.0166 172.931 48.1669 173.724 48.1669 174.614C48.1669 175.576 47.9986 176.406 47.6619 177.103C47.3253 177.788 46.8684 178.317 46.2912 178.69C45.7141 179.051 45.0769 179.231 44.3795 179.231C43.9106 179.231 43.4657 179.135 43.0449 178.943C42.6241 178.75 42.2634 178.462 41.9628 178.077C41.6742 177.68 41.4758 177.181 41.3676 176.58L41.8365 176.652V182.73H39.6002ZM43.7663 177.175C44.2112 177.175 44.5899 177.073 44.9025 176.869C45.2272 176.652 45.4796 176.352 45.66 175.967C45.8404 175.582 45.9305 175.131 45.9305 174.614C45.9305 174.085 45.8404 173.628 45.66 173.243C45.4796 172.859 45.2272 172.564 44.9025 172.36C44.5899 172.143 44.2112 172.035 43.7663 172.035C43.3334 172.035 42.9547 172.143 42.6301 172.36C42.3175 172.576 42.071 172.877 41.8906 173.261C41.7223 173.634 41.6381 174.085 41.6381 174.614C41.6381 175.131 41.7223 175.582 41.8906 175.967C42.071 176.352 42.3175 176.652 42.6301 176.869C42.9547 177.073 43.3334 177.175 43.7663 177.175ZM52.0304 179.231C51.4172 179.231 50.9122 179.045 50.5154 178.672C50.1187 178.299 49.9203 177.71 49.9203 176.905V166.48H52.1386V176.472C52.1386 176.724 52.1987 176.905 52.319 177.013C52.4392 177.109 52.5955 177.157 52.7879 177.157C52.8841 177.157 52.9863 177.151 53.0945 177.139C53.2027 177.115 53.3169 177.085 53.4371 177.049V178.961C53.1846 179.057 52.9322 179.123 52.6797 179.159C52.4392 179.207 52.2228 179.231 52.0304 179.231ZM60.6751 179.051L60.4947 177.716V173.442C60.4947 172.913 60.3264 172.522 59.9897 172.27C59.6651 172.005 59.2202 171.873 58.6551 171.873C58.1862 171.873 57.7052 171.969 57.2123 172.161C56.7313 172.342 56.3045 172.6 55.9318 172.937L54.7956 171.404C55.4208 170.899 56.058 170.538 56.7073 170.322C57.3686 170.093 58.078 169.979 58.8355 169.979C60.0619 169.979 61.0177 170.286 61.7031 170.899C62.3884 171.512 62.7311 172.36 62.7311 173.442V179.051H60.6751ZM57.9878 179.231C57.3385 179.231 56.7554 179.111 56.2384 178.87C55.7334 178.63 55.3306 178.287 55.03 177.842C54.7415 177.398 54.5972 176.887 54.5972 176.309C54.5972 175.792 54.6994 175.354 54.9038 174.993C55.1202 174.62 55.4027 174.338 55.7514 174.145C56.052 173.965 56.3827 173.839 56.7434 173.766C57.1161 173.694 57.5129 173.658 57.9337 173.658H60.6931V175.317H58.2583C58.066 175.317 57.8736 175.336 57.6812 175.372C57.5008 175.396 57.3445 175.462 57.2123 175.57C57.092 175.654 57.0019 175.762 56.9418 175.895C56.8816 176.015 56.8516 176.153 56.8516 176.309C56.8516 176.646 56.9838 176.917 57.2484 177.121C57.5129 177.325 57.8676 177.428 58.3124 177.428C58.7092 177.428 59.0699 177.343 59.3946 177.175C59.7312 176.995 59.9957 176.754 60.1881 176.454C60.3925 176.141 60.4947 175.786 60.4947 175.39L61.0899 176.58C60.9336 177.205 60.6931 177.716 60.3685 178.113C60.0558 178.498 59.6951 178.78 59.2863 178.961C58.8775 179.141 58.4447 179.231 57.9878 179.231ZM64.8213 179.051V170.159H67.0757V172.179L66.715 172.215C66.8713 171.674 67.0998 171.242 67.4004 170.917C67.701 170.592 68.0496 170.358 68.4464 170.214C68.8432 170.057 69.252 169.979 69.6728 169.979C70.6828 169.979 71.4703 170.268 72.0354 170.845C72.6126 171.41 72.9011 172.209 72.9011 173.243V179.051H70.6467V174.073C70.6467 173.328 70.5145 172.787 70.2499 172.45C69.9854 172.101 69.5706 171.927 69.0055 171.927C68.5727 171.927 68.212 172.029 67.9234 172.233C67.6469 172.426 67.4364 172.732 67.2922 173.153C67.1479 173.574 67.0757 174.121 67.0757 174.794V179.051H64.8213ZM79.6683 179.051V170.159H81.9047V179.051H79.6683ZM79.5962 168.789V166.48H81.9948V168.789H79.5962ZM87.1911 179.231C86.5298 179.231 85.9527 179.135 85.4597 178.943C84.9668 178.75 84.5459 178.51 84.1973 178.221C83.8606 177.933 83.5901 177.656 83.3857 177.392L84.9187 176.057C85.1231 176.394 85.4116 176.706 85.7844 176.995C86.1691 177.271 86.644 177.41 87.2091 177.41C87.654 177.41 87.9967 177.325 88.2372 177.157C88.4896 176.977 88.6159 176.754 88.6159 176.49C88.6159 176.273 88.5377 176.099 88.3814 175.967C88.2251 175.822 88.0147 175.708 87.7502 175.624C87.4857 175.528 87.1911 175.438 86.8665 175.354C86.5298 175.257 86.1811 175.149 85.8204 175.029C85.4597 174.909 85.1291 174.752 84.8285 174.56C84.5279 174.356 84.2814 174.097 84.089 173.784C83.9087 173.472 83.8185 173.081 83.8185 172.612C83.8185 171.831 84.1251 171.199 84.7383 170.718C85.3515 170.226 86.1631 169.979 87.1731 169.979C87.8825 169.979 88.5257 170.123 89.1028 170.412C89.68 170.688 90.1369 171.091 90.4735 171.62L89.0848 172.72C88.8684 172.372 88.5798 172.113 88.2191 171.945C87.8704 171.765 87.4977 171.674 87.1009 171.674C86.7522 171.674 86.4637 171.74 86.2352 171.873C86.0188 172.005 85.9106 172.185 85.9106 172.414C85.9106 172.57 85.9587 172.702 86.0549 172.811C86.1631 172.919 86.3314 173.015 86.5599 173.099C86.8003 173.171 87.113 173.255 87.4977 173.352C87.8584 173.436 88.2311 173.538 88.6159 173.658C89.0006 173.778 89.3614 173.941 89.698 174.145C90.0347 174.35 90.3052 174.62 90.5096 174.957C90.714 175.293 90.8162 175.72 90.8162 176.237C90.8162 176.826 90.6659 177.349 90.3653 177.806C90.0647 178.251 89.6439 178.6 89.1028 178.852C88.5618 179.105 87.9245 179.231 87.1911 179.231ZM102.998 179.051L102.818 177.716V173.442C102.818 172.913 102.649 172.522 102.313 172.27C101.988 172.005 101.543 171.873 100.978 171.873C100.509 171.873 100.028 171.969 99.5353 172.161C99.0543 172.342 98.6275 172.6 98.2548 172.937L97.1185 171.404C97.7438 170.899 98.381 170.538 99.0303 170.322C99.6916 170.093 100.401 169.979 101.158 169.979C102.385 169.979 103.341 170.286 104.026 170.899C104.711 171.512 105.054 172.36 105.054 173.442V179.051H102.998ZM100.311 179.231C99.6615 179.231 99.0784 179.111 98.5614 178.87C98.0564 178.63 97.6536 178.287 97.353 177.842C97.0644 177.398 96.9201 176.887 96.9201 176.309C96.9201 175.792 97.0223 175.354 97.2267 174.993C97.4432 174.62 97.7257 174.338 98.0744 174.145C98.375 173.965 98.7056 173.839 99.0663 173.766C99.4391 173.694 99.8358 173.658 100.257 173.658H103.016V175.317H100.581C100.389 175.317 100.197 175.336 100.004 175.372C99.8238 175.396 99.6675 175.462 99.5353 175.57C99.415 175.654 99.3248 175.762 99.2647 175.895C99.2046 176.015 99.1746 176.153 99.1746 176.309C99.1746 176.646 99.3068 176.917 99.5713 177.121C99.8358 177.325 100.191 177.428 100.635 177.428C101.032 177.428 101.393 177.343 101.718 177.175C102.054 176.995 102.319 176.754 102.511 176.454C102.715 176.141 102.818 175.786 102.818 175.39L103.413 176.58C103.257 177.205 103.016 177.716 102.691 178.113C102.379 178.498 102.018 178.78 101.609 178.961C101.201 179.141 100.768 179.231 100.311 179.231ZM115.743 179.231C115.021 179.231 114.39 179.105 113.849 178.852C113.32 178.588 112.869 178.239 112.497 177.806C112.136 177.374 111.865 176.881 111.685 176.327C111.505 175.774 111.414 175.197 111.414 174.596C111.414 174.007 111.505 173.436 111.685 172.883C111.865 172.33 112.136 171.837 112.497 171.404C112.869 170.971 113.32 170.628 113.849 170.376C114.39 170.111 115.021 169.979 115.743 169.979C116.645 169.979 117.426 170.195 118.087 170.628C118.749 171.061 119.242 171.716 119.566 172.594L117.619 173.37C117.474 172.949 117.252 172.606 116.951 172.342C116.663 172.065 116.26 171.927 115.743 171.927C115.262 171.927 114.865 172.059 114.553 172.324C114.24 172.576 114.012 172.907 113.867 173.316C113.723 173.724 113.651 174.151 113.651 174.596C113.651 175.041 113.723 175.474 113.867 175.895C114.012 176.303 114.24 176.64 114.553 176.905C114.865 177.157 115.262 177.283 115.743 177.283C116.26 177.283 116.663 177.151 116.951 176.887C117.252 176.61 117.474 176.255 117.619 175.822L119.566 176.598C119.242 177.488 118.749 178.149 118.087 178.582C117.426 179.015 116.645 179.231 115.743 179.231ZM121.252 179.051V166.48H123.506V172.179L123.128 172.233C123.284 171.692 123.512 171.26 123.813 170.935C124.126 170.598 124.48 170.358 124.877 170.214C125.286 170.057 125.695 169.979 126.103 169.979C127.113 169.979 127.901 170.268 128.466 170.845C129.043 171.41 129.332 172.209 129.332 173.243V179.051H127.077V174.073C127.077 173.328 126.945 172.787 126.681 172.45C126.416 172.101 126.001 171.927 125.436 171.927C124.799 171.927 124.318 172.155 123.993 172.612C123.669 173.069 123.506 173.797 123.506 174.794V179.051H121.252ZM137.131 179.051L136.951 177.716V173.442C136.951 172.913 136.782 172.522 136.446 172.27C136.121 172.005 135.676 171.873 135.111 171.873C134.642 171.873 134.161 171.969 133.668 172.161C133.187 172.342 132.761 172.6 132.388 172.937L131.252 171.404C131.877 170.899 132.514 170.538 133.163 170.322C133.825 170.093 134.534 169.979 135.292 169.979C136.518 169.979 137.474 170.286 138.159 170.899C138.845 171.512 139.187 172.36 139.187 173.442V179.051H137.131ZM134.444 179.231C133.795 179.231 133.211 179.111 132.694 178.87C132.189 178.63 131.787 178.287 131.486 177.842C131.198 177.398 131.053 176.887 131.053 176.309C131.053 175.792 131.155 175.354 131.36 174.993C131.576 174.62 131.859 174.338 132.208 174.145C132.508 173.965 132.839 173.839 133.199 173.766C133.572 173.694 133.969 173.658 134.39 173.658H137.149V175.317H134.714C134.522 175.317 134.33 175.336 134.137 175.372C133.957 175.396 133.801 175.462 133.668 175.57C133.548 175.654 133.458 175.762 133.398 175.895C133.338 176.015 133.308 176.153 133.308 176.309C133.308 176.646 133.44 176.917 133.704 177.121C133.969 177.325 134.324 177.428 134.769 177.428C135.165 177.428 135.526 177.343 135.851 177.175C136.187 176.995 136.452 176.754 136.644 176.454C136.849 176.141 136.951 175.786 136.951 175.39L137.546 176.58C137.39 177.205 137.149 177.716 136.825 178.113C136.512 178.498 136.151 178.78 135.742 178.961C135.334 179.141 134.901 179.231 134.444 179.231ZM143.351 179.231C142.738 179.231 142.233 179.045 141.837 178.672C141.44 178.299 141.241 177.71 141.241 176.905V166.48H143.46V176.472C143.46 176.724 143.52 176.905 143.64 177.013C143.76 177.109 143.917 177.157 144.109 177.157C144.205 177.157 144.307 177.151 144.416 177.139C144.524 177.115 144.638 177.085 144.758 177.049V178.961C144.506 179.057 144.253 179.123 144.001 179.159C143.76 179.207 143.544 179.231 143.351 179.231ZM148.371 179.231C147.758 179.231 147.253 179.045 146.856 178.672C146.459 178.299 146.261 177.71 146.261 176.905V166.48H148.479V176.472C148.479 176.724 148.539 176.905 148.66 177.013C148.78 177.109 148.936 177.157 149.129 177.157C149.225 177.157 149.327 177.151 149.435 177.139C149.543 177.115 149.658 177.085 149.778 177.049V178.961C149.525 179.057 149.273 179.123 149.02 179.159C148.78 179.207 148.563 179.231 148.371 179.231ZM155.284 179.231C154.515 179.231 153.854 179.105 153.3 178.852C152.747 178.6 152.291 178.263 151.93 177.842C151.581 177.41 151.323 176.923 151.154 176.382C150.986 175.828 150.902 175.251 150.902 174.65C150.902 174.073 150.986 173.508 151.154 172.955C151.323 172.402 151.575 171.903 151.912 171.458C152.248 171.013 152.681 170.658 153.21 170.394C153.751 170.117 154.395 169.979 155.14 169.979C155.837 169.979 156.445 170.099 156.962 170.34C157.479 170.568 157.905 170.893 158.242 171.314C158.579 171.722 158.831 172.203 159 172.756C159.18 173.31 159.27 173.899 159.27 174.524C159.27 174.608 159.264 174.728 159.252 174.885C159.252 175.029 159.24 175.185 159.216 175.354H153.138C153.198 175.991 153.433 176.472 153.842 176.796C154.262 177.121 154.785 177.283 155.411 177.283C155.867 177.283 156.312 177.205 156.745 177.049C157.178 176.881 157.563 176.646 157.899 176.345L159.018 177.86C158.597 178.185 158.2 178.45 157.827 178.654C157.455 178.858 157.064 179.003 156.655 179.087C156.258 179.183 155.801 179.231 155.284 179.231ZM157.052 174.235C157.076 174.139 157.094 174.043 157.106 173.947C157.13 173.851 157.142 173.76 157.142 173.676C157.142 173.424 157.094 173.189 156.998 172.973C156.902 172.744 156.769 172.546 156.601 172.378C156.433 172.209 156.228 172.083 155.988 171.999C155.759 171.903 155.495 171.855 155.194 171.855C154.749 171.855 154.377 171.945 154.076 172.125C153.775 172.306 153.547 172.54 153.391 172.829C153.246 173.105 153.156 173.394 153.12 173.694H157.809L157.052 174.235ZM161.074 179.051V170.159H163.328V172.179L162.968 172.215C163.124 171.674 163.352 171.242 163.653 170.917C163.954 170.592 164.302 170.358 164.699 170.214C165.096 170.057 165.505 169.979 165.925 169.979C166.935 169.979 167.723 170.268 168.288 170.845C168.865 171.41 169.154 172.209 169.154 173.243V179.051H166.899V174.073C166.899 173.328 166.767 172.787 166.503 172.45C166.238 172.101 165.823 171.927 165.258 171.927C164.825 171.927 164.465 172.029 164.176 172.233C163.899 172.426 163.689 172.732 163.545 173.153C163.4 173.574 163.328 174.121 163.328 174.794V179.051H161.074ZM175.005 182.91C173.683 182.91 172.637 182.676 171.867 182.207C171.11 181.738 170.731 181.089 170.731 180.259C170.731 180.187 170.737 180.097 170.749 179.989C170.761 179.892 170.779 179.796 170.803 179.7L173.292 178.149L173.851 178.78L172.715 180.169C172.703 180.205 172.697 180.235 172.697 180.259C172.697 180.283 172.697 180.307 172.697 180.331C172.697 180.668 172.907 180.926 173.328 181.107C173.749 181.287 174.308 181.377 175.005 181.377C175.594 181.377 176.045 181.299 176.358 181.143C176.671 180.999 176.827 180.782 176.827 180.494C176.827 180.337 176.785 180.211 176.701 180.115C176.616 180.019 176.478 179.941 176.286 179.88C176.093 179.82 175.841 179.766 175.528 179.718C175.228 179.67 174.861 179.616 174.428 179.556C173.875 179.496 173.334 179.381 172.805 179.213C172.276 179.057 171.837 178.822 171.488 178.51C171.14 178.185 170.965 177.758 170.965 177.229C170.965 176.76 171.128 176.333 171.452 175.949C171.777 175.552 172.204 175.227 172.733 174.975L173.815 175.841C173.49 175.889 173.244 175.997 173.076 176.165C172.919 176.333 172.841 176.532 172.841 176.76C172.841 176.953 172.919 177.109 173.076 177.229C173.232 177.337 173.454 177.422 173.743 177.482C174.031 177.542 174.374 177.596 174.771 177.644C175.384 177.728 175.949 177.818 176.466 177.915C176.995 178.011 177.452 178.149 177.837 178.329C178.234 178.498 178.534 178.732 178.739 179.033C178.955 179.333 179.063 179.724 179.063 180.205C179.063 181.083 178.709 181.75 177.999 182.207C177.302 182.676 176.304 182.91 175.005 182.91ZM174.825 176.562C174.08 176.562 173.424 176.424 172.859 176.147C172.306 175.859 171.873 175.474 171.561 174.993C171.248 174.5 171.092 173.935 171.092 173.298C171.092 172.636 171.254 172.059 171.579 171.566C171.915 171.061 172.36 170.67 172.913 170.394C173.478 170.117 174.092 169.979 174.753 169.979C175.402 169.979 176.003 170.117 176.556 170.394C177.121 170.67 177.572 171.067 177.909 171.584C178.258 172.089 178.432 172.684 178.432 173.37C178.432 174.019 178.276 174.584 177.963 175.065C177.663 175.534 177.242 175.901 176.701 176.165C176.16 176.43 175.534 176.562 174.825 176.562ZM174.771 174.794C175.252 174.794 175.607 174.65 175.835 174.362C176.075 174.061 176.196 173.7 176.196 173.279C176.196 172.847 176.069 172.498 175.817 172.233C175.564 171.957 175.216 171.819 174.771 171.819C174.326 171.819 173.971 171.957 173.707 172.233C173.454 172.51 173.328 172.859 173.328 173.279C173.328 173.7 173.448 174.061 173.689 174.362C173.929 174.65 174.29 174.794 174.771 174.794ZM177.819 172.035L176.214 170.989L178.27 169.348L179.406 170.737L177.819 172.035ZM180.659 179.051V170.159H182.895V179.051H180.659ZM180.587 168.789V166.48H182.985V168.789H180.587ZM185.097 179.051V170.159H187.352V172.179L186.991 172.215C187.147 171.674 187.376 171.242 187.677 170.917C187.977 170.592 188.326 170.358 188.723 170.214C189.119 170.057 189.528 169.979 189.949 169.979C190.959 169.979 191.746 170.268 192.312 170.845C192.889 171.41 193.177 172.209 193.177 173.243V179.051H190.923V174.073C190.923 173.328 190.791 172.787 190.526 172.45C190.262 172.101 189.847 171.927 189.282 171.927C188.849 171.927 188.488 172.029 188.2 172.233C187.923 172.426 187.713 172.732 187.568 173.153C187.424 173.574 187.352 174.121 187.352 174.794V179.051H185.097ZM199.029 182.91C197.706 182.91 196.66 182.676 195.891 182.207C195.133 181.738 194.755 181.089 194.755 180.259C194.755 180.187 194.761 180.097 194.773 179.989C194.785 179.892 194.803 179.796 194.827 179.7L197.316 178.149L197.875 178.78L196.738 180.169C196.726 180.205 196.72 180.235 196.72 180.259C196.72 180.283 196.72 180.307 196.72 180.331C196.72 180.668 196.931 180.926 197.352 181.107C197.772 181.287 198.332 181.377 199.029 181.377C199.618 181.377 200.069 181.299 200.382 181.143C200.694 180.999 200.85 180.782 200.85 180.494C200.85 180.337 200.808 180.211 200.724 180.115C200.64 180.019 200.502 179.941 200.309 179.88C200.117 179.82 199.865 179.766 199.552 179.718C199.251 179.67 198.885 179.616 198.452 179.556C197.899 179.496 197.358 179.381 196.829 179.213C196.3 179.057 195.861 178.822 195.512 178.51C195.163 178.185 194.989 177.758 194.989 177.229C194.989 176.76 195.151 176.333 195.476 175.949C195.801 175.552 196.227 175.227 196.756 174.975L197.839 175.841C197.514 175.889 197.267 175.997 197.099 176.165C196.943 176.333 196.865 176.532 196.865 176.76C196.865 176.953 196.943 177.109 197.099 177.229C197.255 177.337 197.478 177.422 197.766 177.482C198.055 177.542 198.398 177.596 198.794 177.644C199.408 177.728 199.973 177.818 200.49 177.915C201.019 178.011 201.476 178.149 201.86 178.329C202.257 178.498 202.558 178.732 202.762 179.033C202.979 179.333 203.087 179.724 203.087 180.205C203.087 181.083 202.732 181.75 202.023 182.207C201.325 182.676 200.327 182.91 199.029 182.91ZM198.849 176.562C198.103 176.562 197.448 176.424 196.883 176.147C196.33 175.859 195.897 175.474 195.584 174.993C195.272 174.5 195.115 173.935 195.115 173.298C195.115 172.636 195.278 172.059 195.602 171.566C195.939 171.061 196.384 170.67 196.937 170.394C197.502 170.117 198.115 169.979 198.776 169.979C199.426 169.979 200.027 170.117 200.58 170.394C201.145 170.67 201.596 171.067 201.933 171.584C202.281 172.089 202.456 172.684 202.456 173.37C202.456 174.019 202.299 174.584 201.987 175.065C201.686 175.534 201.265 175.901 200.724 176.165C200.183 176.43 199.558 176.562 198.849 176.562ZM198.794 174.794C199.275 174.794 199.63 174.65 199.858 174.362C200.099 174.061 200.219 173.7 200.219 173.279C200.219 172.847 200.093 172.498 199.84 172.233C199.588 171.957 199.239 171.819 198.794 171.819C198.35 171.819 197.995 171.957 197.73 172.233C197.478 172.51 197.352 172.859 197.352 173.279C197.352 173.7 197.472 174.061 197.712 174.362C197.953 174.65 198.313 174.794 198.794 174.794ZM201.842 172.035L200.237 170.989L202.293 169.348L203.429 170.737L201.842 172.035ZM212.776 179.231C212.295 179.231 211.85 179.141 211.441 178.961C211.032 178.78 210.702 178.486 210.449 178.077C210.209 177.668 210.089 177.121 210.089 176.436V168.085L212.361 166.877V175.822C212.361 176.339 212.427 176.73 212.559 176.995C212.704 177.259 212.98 177.392 213.389 177.392C213.509 177.392 213.642 177.38 213.786 177.355C213.942 177.331 214.11 177.295 214.291 177.247V178.961C214.038 179.057 213.786 179.123 213.533 179.159C213.281 179.207 213.028 179.231 212.776 179.231ZM208.465 171.909V170.159H214.291V171.909H208.465ZM221.707 179.051L221.526 177.716V173.442C221.526 172.913 221.358 172.522 221.021 172.27C220.697 172.005 220.252 171.873 219.687 171.873C219.218 171.873 218.737 171.969 218.244 172.161C217.763 172.342 217.336 172.6 216.963 172.937L215.827 171.404C216.452 170.899 217.09 170.538 217.739 170.322C218.4 170.093 219.11 169.979 219.867 169.979C221.093 169.979 222.049 170.286 222.735 170.899C223.42 171.512 223.763 172.36 223.763 173.442V179.051H221.707ZM219.019 179.231C218.37 179.231 217.787 179.111 217.27 178.87C216.765 178.63 216.362 178.287 216.062 177.842C215.773 177.398 215.629 176.887 215.629 176.309C215.629 175.792 215.731 175.354 215.935 174.993C216.152 174.62 216.434 174.338 216.783 174.145C217.084 173.965 217.414 173.839 217.775 173.766C218.148 173.694 218.544 173.658 218.965 173.658H221.725V175.317H219.29C219.098 175.317 218.905 175.336 218.713 175.372C218.532 175.396 218.376 175.462 218.244 175.57C218.124 175.654 218.033 175.762 217.973 175.895C217.913 176.015 217.883 176.153 217.883 176.309C217.883 176.646 218.015 176.917 218.28 177.121C218.544 177.325 218.899 177.428 219.344 177.428C219.741 177.428 220.102 177.343 220.426 177.175C220.763 176.995 221.027 176.754 221.22 176.454C221.424 176.141 221.526 175.786 221.526 175.39L222.121 176.58C221.965 177.205 221.725 177.716 221.4 178.113C221.087 178.498 220.727 178.78 220.318 178.961C219.909 179.141 219.476 179.231 219.019 179.231ZM228.937 179.231C228.276 179.231 227.699 179.135 227.206 178.943C226.713 178.75 226.292 178.51 225.943 178.221C225.606 177.933 225.336 177.656 225.132 177.392L226.665 176.057C226.869 176.394 227.157 176.706 227.53 176.995C227.915 177.271 228.39 177.41 228.955 177.41C229.4 177.41 229.743 177.325 229.983 177.157C230.235 176.977 230.362 176.754 230.362 176.49C230.362 176.273 230.284 176.099 230.127 175.967C229.971 175.822 229.761 175.708 229.496 175.624C229.232 175.528 228.937 175.438 228.612 175.354C228.276 175.257 227.927 175.149 227.566 175.029C227.206 174.909 226.875 174.752 226.574 174.56C226.274 174.356 226.027 174.097 225.835 173.784C225.655 173.472 225.564 173.081 225.564 172.612C225.564 171.831 225.871 171.199 226.484 170.718C227.097 170.226 227.909 169.979 228.919 169.979C229.628 169.979 230.272 170.123 230.849 170.412C231.426 170.688 231.883 171.091 232.219 171.62L230.831 172.72C230.614 172.372 230.326 172.113 229.965 171.945C229.616 171.765 229.244 171.674 228.847 171.674C228.498 171.674 228.21 171.74 227.981 171.873C227.765 172.005 227.656 172.185 227.656 172.414C227.656 172.57 227.705 172.702 227.801 172.811C227.909 172.919 228.077 173.015 228.306 173.099C228.546 173.171 228.859 173.255 229.244 173.352C229.604 173.436 229.977 173.538 230.362 173.658C230.746 173.778 231.107 173.941 231.444 174.145C231.781 174.35 232.051 174.62 232.255 174.957C232.46 175.293 232.562 175.72 232.562 176.237C232.562 176.826 232.412 177.349 232.111 177.806C231.811 178.251 231.39 178.6 230.849 178.852C230.308 179.105 229.67 179.231 228.937 179.231ZM240.384 179.051L237.805 174.993L236.416 176.544V173.748L239.824 170.159H242.674L239.446 173.478L243.053 179.051H240.384ZM234.36 179.051V166.48H236.614V179.051H234.36ZM244.326 179.051V176.67H246.706V179.051H244.326Z" fill="white"/>
</g>
<defs>
<clipPath id="clip0_369_181735">
<rect width="491.043" height="266.653" rx="20.1247" fill="white"/>
</clipPath>
</defs>
</svg>
