<svg width="491" height="267" viewBox="0 0 491 267" fill="none" xmlns="http://www.w3.org/2000/svg">
<rect width="490.068" height="266.123" rx="20" fill="#44484D"/>
<g clip-path="url(#clip0_369_181716)">
<rect width="490.068" height="266.123" rx="20.0847" fill="#44484D"/>
<path d="M464.751 133.094C464.751 150.095 459.178 166.627 448.885 180.158C438.592 193.689 424.147 203.473 407.763 208.01C391.378 212.548 373.958 211.589 358.171 205.281C342.384 198.973 329.1 187.663 320.354 173.084L349.706 155.476C354.601 163.635 362.036 169.965 370.872 173.495C379.707 177.026 389.457 177.562 398.627 175.023C407.797 172.483 415.881 167.007 421.642 159.435C427.403 151.862 430.522 142.609 430.522 133.094H464.751Z" fill="#B1EF62"/>
<path d="M320.236 172.888C311.533 158.284 307.858 141.229 309.773 124.336C311.689 107.443 319.089 91.6442 330.841 79.3591C342.593 67.0739 358.048 58.98 374.839 56.3172C391.631 53.6545 408.832 56.5697 423.808 64.6163L411.785 86.9937C401.702 81.5766 390.122 79.614 378.818 81.4066C367.514 83.1992 357.109 88.6482 349.198 96.9188C341.286 105.189 336.304 115.826 335.015 127.198C333.725 138.57 336.199 150.052 342.058 159.884L320.236 172.888Z" fill="#587731"/>
<path d="M464.751 133.094C464.751 119.006 460.923 105.184 453.676 93.1031C446.429 81.0227 436.035 71.1387 423.606 64.5077L419.761 71.7146C430.884 77.6489 440.185 86.4943 446.671 97.3053C453.157 108.116 456.583 120.487 456.583 133.094H464.751Z" fill="#7B7B7B"/>
<path d="M374.262 73.3574V71.2004H370.131V70.0761L374.419 64.2455H375.713V69.8538H377.164V71.2004H375.713V73.3574H374.262ZM371.281 70.3637L371.229 69.8538H374.262V65.7227L374.445 65.9058L371.281 70.3637ZM380.936 73.3574V66.1019L381.368 66.8339H378.583V65.6704H380.047C380.344 65.6704 380.566 65.6094 380.714 65.4874C380.862 65.3654 380.936 65.1475 380.936 64.8338V64.2455H382.388V73.3574H380.936ZM385.389 73.3574V71.7102H386.984V73.3574H385.389ZM392.033 73.3574V71.2004H387.902V70.0761L392.19 64.2455H393.484V69.8538H394.935V71.2004H393.484V73.3574H392.033ZM389.052 70.3637L389 69.8538H392.033V65.7227L392.216 65.9058L389.052 70.3637ZM396.446 73.3574L402.251 64.2455H403.296L397.492 73.3574H396.446ZM402.185 73.4751C401.81 73.4751 401.47 73.3879 401.165 73.2136C400.869 73.0393 400.629 72.7953 400.446 72.4815C400.272 72.1591 400.185 71.7843 400.185 71.3572C400.185 70.9389 400.272 70.5729 400.446 70.2591C400.621 69.9366 400.856 69.6882 401.152 69.5139C401.457 69.3396 401.793 69.2525 402.159 69.2525C402.534 69.2525 402.869 69.3483 403.166 69.5401C403.471 69.7231 403.71 69.9758 403.885 70.2983C404.068 70.6121 404.159 70.965 404.159 71.3572C404.159 71.7494 404.072 72.1068 403.898 72.4292C403.723 72.743 403.488 72.9957 403.192 73.1875C402.895 73.3792 402.56 73.4751 402.185 73.4751ZM402.185 72.4946C402.377 72.4946 402.547 72.4467 402.695 72.3508C402.843 72.2462 402.961 72.1111 403.048 71.9455C403.135 71.7712 403.179 71.5751 403.179 71.3572C403.179 71.1306 403.131 70.9345 403.035 70.7689C402.948 70.6034 402.826 70.4726 402.669 70.3768C402.521 70.2809 402.351 70.233 402.159 70.233C401.985 70.233 401.819 70.2809 401.662 70.3768C401.514 70.4639 401.392 70.5903 401.296 70.7559C401.209 70.9215 401.165 71.1219 401.165 71.3572C401.165 71.6013 401.213 71.8104 401.309 71.9847C401.405 72.1503 401.531 72.2767 401.688 72.3639C401.845 72.451 402.011 72.4946 402.185 72.4946ZM397.662 68.3374C397.296 68.3374 396.96 68.2502 396.655 68.0759C396.35 67.9016 396.106 67.6576 395.923 67.3438C395.749 67.0213 395.662 66.6553 395.662 66.2457C395.662 65.8099 395.749 65.4351 395.923 65.1214C396.106 64.8076 396.346 64.5636 396.642 64.3893C396.938 64.215 397.27 64.1278 397.636 64.1278C398.01 64.1278 398.346 64.2237 398.642 64.4154C398.947 64.5984 399.187 64.8512 399.361 65.1737C399.536 65.4874 399.623 65.8447 399.623 66.2457C399.623 66.6204 399.536 66.969 399.361 67.2915C399.196 67.614 398.965 67.8711 398.668 68.0628C398.372 68.2458 398.037 68.3374 397.662 68.3374ZM397.662 67.3569C397.845 67.3569 398.01 67.3089 398.159 67.2131C398.307 67.1085 398.424 66.9734 398.512 66.8078C398.599 66.6422 398.642 66.4548 398.642 66.2457C398.642 66.0103 398.594 65.8099 398.499 65.6443C398.411 65.47 398.289 65.3393 398.132 65.2521C397.984 65.1562 397.819 65.1083 397.636 65.1083C397.453 65.1083 397.287 65.1519 397.139 65.239C396.991 65.3262 396.869 65.4526 396.773 65.6181C396.686 65.7837 396.642 65.9929 396.642 66.2457C396.642 66.4723 396.686 66.6727 396.773 66.847C396.869 67.0126 396.995 67.139 397.152 67.2261C397.309 67.3133 397.479 67.3569 397.662 67.3569Z" fill="#EEEEEE"/>
<path d="M375.002 198.476V196.319H370.871V195.194L375.159 189.364H376.453V194.972H377.904V196.319H376.453V198.476H375.002ZM372.022 195.482L371.969 194.972H375.002V190.841L375.185 191.024L372.022 195.482ZM381.677 198.476V191.22L382.108 191.952H379.324V190.789H380.788C381.084 190.789 381.307 190.728 381.455 190.606C381.603 190.484 381.677 190.266 381.677 189.952V189.364H383.128V198.476H381.677ZM386.129 198.476V196.828H387.724V198.476H386.129ZM392.773 198.476V196.319H388.642V195.194L392.93 189.364H394.225V194.972H395.676V196.319H394.225V198.476H392.773ZM389.793 195.482L389.74 194.972H392.773V190.841L392.956 191.024L389.793 195.482ZM397.187 198.476L402.991 189.364H404.037L398.232 198.476H397.187ZM402.926 198.593C402.551 198.593 402.211 198.506 401.906 198.332C401.61 198.157 401.37 197.913 401.187 197.6C401.013 197.277 400.925 196.902 400.925 196.475C400.925 196.057 401.013 195.691 401.187 195.377C401.361 195.055 401.597 194.806 401.893 194.632C402.198 194.458 402.533 194.371 402.899 194.371C403.274 194.371 403.61 194.467 403.906 194.658C404.211 194.841 404.451 195.094 404.625 195.416C404.808 195.73 404.9 196.083 404.9 196.475C404.9 196.868 404.812 197.225 404.638 197.547C404.464 197.861 404.229 198.114 403.932 198.306C403.636 198.497 403.3 198.593 402.926 198.593ZM402.926 197.613C403.117 197.613 403.287 197.565 403.435 197.469C403.584 197.364 403.701 197.229 403.788 197.064C403.876 196.889 403.919 196.693 403.919 196.475C403.919 196.249 403.871 196.053 403.775 195.887C403.688 195.722 403.566 195.591 403.409 195.495C403.261 195.399 403.091 195.351 402.899 195.351C402.725 195.351 402.56 195.399 402.403 195.495C402.255 195.582 402.133 195.708 402.037 195.874C401.949 196.04 401.906 196.24 401.906 196.475C401.906 196.719 401.954 196.929 402.05 197.103C402.146 197.269 402.272 197.395 402.429 197.482C402.586 197.569 402.751 197.613 402.926 197.613ZM398.402 193.456C398.036 193.456 397.701 193.368 397.396 193.194C397.091 193.02 396.847 192.776 396.664 192.462C396.489 192.139 396.402 191.773 396.402 191.364C396.402 190.928 396.489 190.553 396.664 190.24C396.847 189.926 397.086 189.682 397.383 189.507C397.679 189.333 398.01 189.246 398.376 189.246C398.751 189.246 399.086 189.342 399.383 189.534C399.688 189.717 399.928 189.969 400.102 190.292C400.276 190.606 400.363 190.963 400.363 191.364C400.363 191.739 400.276 192.087 400.102 192.41C399.936 192.732 399.705 192.989 399.409 193.181C399.113 193.364 398.777 193.456 398.402 193.456ZM398.402 192.475C398.585 192.475 398.751 192.427 398.899 192.331C399.047 192.227 399.165 192.092 399.252 191.926C399.339 191.76 399.383 191.573 399.383 191.364C399.383 191.129 399.335 190.928 399.239 190.762C399.152 190.588 399.03 190.457 398.873 190.37C398.725 190.274 398.559 190.226 398.376 190.226C398.193 190.226 398.028 190.27 397.879 190.357C397.731 190.444 397.609 190.571 397.513 190.736C397.426 190.902 397.383 191.111 397.383 191.364C397.383 191.59 397.426 191.791 397.513 191.965C397.609 192.131 397.736 192.257 397.892 192.344C398.049 192.431 398.219 192.475 398.402 192.475Z" fill="#0C0C0C"/>
<path d="M46.3443 65.3734C44.767 65.3734 43.2853 65.0866 41.8993 64.5131C40.5132 63.9395 39.39 63.0911 38.5296 61.9679C37.6693 60.8208 37.2392 59.3989 37.2392 57.7022C37.2392 56.3161 37.5618 55.0853 38.207 54.0099C38.8523 52.9345 39.8082 52.0861 41.0748 51.4648C40.2861 50.9629 39.6528 50.3177 39.1749 49.529C38.7208 48.7165 38.4938 47.7725 38.4938 46.6971C38.4938 45.2394 38.8642 43.9967 39.6051 42.969C40.3698 41.9175 41.3496 41.117 42.5445 40.5673C43.7394 40.0176 45.0179 39.7428 46.3801 39.7428C47.7662 39.7428 49.0567 40.0296 50.2516 40.6031C51.4465 41.1528 52.3905 41.9534 53.0835 43.0049C53.8005 44.0564 54.1589 45.311 54.1589 46.7688C54.1589 47.8442 53.9319 48.7763 53.4778 49.5649C53.0477 50.3296 52.4263 50.9629 51.6138 51.4648C52.8804 52.0861 53.8363 52.9345 54.4815 54.0099C55.1268 55.0853 55.4494 56.3161 55.4494 57.7022C55.4494 59.3989 55.0193 60.8208 54.1589 61.9679C53.2986 63.0911 52.1754 63.9395 50.7893 64.5131C49.4271 65.0866 47.9454 65.3734 46.3443 65.3734ZM46.3443 61.6095C47.3002 61.6095 48.1605 61.4541 48.9253 61.1435C49.69 60.8089 50.2994 60.3309 50.7535 59.7096C51.2075 59.0643 51.4346 58.2638 51.4346 57.3078C51.4346 56.4236 51.2195 55.6708 50.7893 55.0495C50.3591 54.4042 49.7617 53.9143 48.997 53.5797C48.2322 53.2213 47.348 53.042 46.3443 53.042C45.3406 53.042 44.4563 53.2213 43.6916 53.5797C42.9269 53.9143 42.3175 54.4042 41.8634 55.0495C41.4332 55.6708 41.2182 56.4236 41.2182 57.3078C41.2182 58.2638 41.4452 59.0643 41.8993 59.7096C42.3772 60.3309 42.9986 60.8089 43.7633 61.1435C44.528 61.4541 45.3884 61.6095 46.3443 61.6095ZM46.3801 50.3535C47.5033 50.3535 48.4234 50.0548 49.1403 49.4573C49.8573 48.836 50.2158 48.0235 50.2158 47.0198C50.2158 45.9682 49.8692 45.1199 49.1762 44.4746C48.4832 43.8294 47.5511 43.5067 46.3801 43.5067C45.6393 43.5067 44.9701 43.6501 44.3727 43.9369C43.7991 44.1998 43.3331 44.5941 42.9747 45.1199C42.6401 45.6217 42.4728 46.2311 42.4728 46.9481C42.4728 47.9757 42.8313 48.8002 43.5482 49.4215C44.2891 50.0428 45.233 50.3535 46.3801 50.3535ZM57.9075 65.0508V61.9679C58.6961 61.3705 59.6162 60.6894 60.6677 59.9247C61.7192 59.1599 62.7826 58.3235 63.858 57.4154C64.9574 56.5073 65.973 55.5394 66.905 54.5118C67.8371 53.4603 68.5898 52.3729 69.1634 51.2497C69.7609 50.1265 70.0596 48.9674 70.0596 47.7725C70.0596 46.5776 69.737 45.5978 69.0917 44.8331C68.4465 44.0445 67.4547 43.6501 66.1164 43.6501C65.0888 43.6501 64.2524 43.9011 63.6071 44.4029C62.9619 44.9048 62.4839 45.5739 62.1732 46.4104C61.8626 47.2229 61.6953 48.1071 61.6714 49.063L57.7641 48.7404C57.7641 47.5933 57.9433 46.494 58.3018 45.4425C58.6841 44.3671 59.2338 43.4112 59.9507 42.5747C60.6677 41.7144 61.5519 41.0453 62.6034 40.5673C63.6549 40.0654 64.8618 39.8145 66.2239 39.8145C67.7534 39.8145 69.0917 40.1371 70.2388 40.7824C71.4098 41.4276 72.3179 42.3357 72.9632 43.5067C73.6323 44.6778 73.9669 46.0519 73.9669 47.6292C73.9669 48.9196 73.7399 50.1623 73.2858 51.3572C72.8556 52.5521 72.2343 53.6992 71.4218 54.7985C70.6331 55.874 69.7011 56.9016 68.6257 57.8814C67.5503 58.8373 66.3793 59.7454 65.1127 60.6058C63.8461 61.4422 62.5078 62.2069 61.0978 62.9L62.1374 61.3585H74.9706V65.0508H57.9075ZM78.5399 65.0508V60.5341H82.9132V65.0508H78.5399ZM95.0738 65.3734C93.4965 65.3734 92.0148 65.0866 90.6287 64.5131C89.2427 63.9395 88.1194 63.0911 87.2591 61.9679C86.3988 60.8208 85.9686 59.3989 85.9686 57.7022C85.9686 56.3161 86.2913 55.0853 86.9365 54.0099C87.5817 52.9345 88.5377 52.0861 89.8043 51.4648C89.0156 50.9629 88.3823 50.3177 87.9044 49.529C87.4503 48.7165 87.2233 47.7725 87.2233 46.6971C87.2233 45.2394 87.5937 43.9967 88.3345 42.969C89.0993 41.9175 90.0791 41.117 91.274 40.5673C92.4689 40.0176 93.7474 39.7428 95.1096 39.7428C96.4957 39.7428 97.7862 40.0296 98.9811 40.6031C100.176 41.1528 101.12 41.9534 101.813 43.0049C102.53 44.0564 102.888 45.311 102.888 46.7688C102.888 47.8442 102.661 48.7763 102.207 49.5649C101.777 50.3296 101.156 50.9629 100.343 51.4648C101.61 52.0861 102.566 52.9345 103.211 54.0099C103.856 55.0853 104.179 56.3161 104.179 57.7022C104.179 59.3989 103.749 60.8208 102.888 61.9679C102.028 63.0911 100.905 63.9395 99.5188 64.5131C98.1566 65.0866 96.6749 65.3734 95.0738 65.3734ZM95.0738 61.6095C96.0297 61.6095 96.89 61.4541 97.6547 61.1435C98.4195 60.8089 99.0289 60.3309 99.4829 59.7096C99.937 59.0643 100.164 58.2638 100.164 57.3078C100.164 56.4236 99.949 55.6708 99.5188 55.0495C99.0886 54.4042 98.4912 53.9143 97.7264 53.5797C96.9617 53.2213 96.0775 53.042 95.0738 53.042C94.07 53.042 93.1858 53.2213 92.4211 53.5797C91.6564 53.9143 91.047 54.4042 90.5929 55.0495C90.1627 55.6708 89.9476 56.4236 89.9476 57.3078C89.9476 58.2638 90.1747 59.0643 90.6287 59.7096C91.1067 60.3309 91.728 60.8089 92.4928 61.1435C93.2575 61.4541 94.1178 61.6095 95.0738 61.6095ZM95.1096 50.3535C96.2328 50.3535 97.1529 50.0548 97.8698 49.4573C98.5868 48.836 98.9452 48.0235 98.9452 47.0198C98.9452 45.9682 98.5987 45.1199 97.9057 44.4746C97.2126 43.8294 96.2806 43.5067 95.1096 43.5067C94.3688 43.5067 93.6996 43.6501 93.1022 43.9369C92.5286 44.1998 92.0626 44.5941 91.7041 45.1199C91.3696 45.6217 91.2023 46.2311 91.2023 46.9481C91.2023 47.9757 91.5608 48.8002 92.2777 49.4215C93.0185 50.0428 93.9625 50.3535 95.1096 50.3535ZM48.0291 173.051V167.136H36.7014V164.053L48.4593 148.065H52.0081V163.444H55.9871V167.136H52.0081V173.051H48.0291ZM39.856 164.842L39.7126 163.444H48.0291V152.116L48.5309 152.618L39.856 164.842ZM66.3315 173.051V153.156L67.5144 155.163H59.879V151.973H63.8939C64.7064 151.973 65.3158 151.805 65.7221 151.471C66.1284 151.136 66.3315 150.539 66.3315 149.679V148.065H70.3105V173.051H66.3315ZM78.5399 173.051V168.534H82.9132V173.051H78.5399ZM88.3345 173.051L100.092 150.252L101.204 151.758H86.0403V148.065H104.036V151.005L92.7796 173.051H88.3345Z" fill="#B1EF62"/>
<path d="M106.983 65.0508L114.964 52.5224H116.402L108.421 65.0508H106.983ZM114.874 65.2126C114.358 65.2126 113.891 65.0927 113.472 64.8531C113.064 64.6134 112.735 64.2779 112.483 63.8465C112.243 63.4031 112.124 62.8878 112.124 62.3006C112.124 61.7255 112.243 61.2222 112.483 60.7908C112.723 60.3474 113.046 60.0059 113.454 59.7662C113.873 59.5266 114.335 59.4067 114.838 59.4067C115.353 59.4067 115.814 59.5385 116.222 59.8022C116.641 60.0538 116.971 60.4013 117.21 60.8447C117.462 61.2761 117.588 61.7614 117.588 62.3006C117.588 62.8399 117.468 63.3312 117.228 63.7746C116.989 64.206 116.665 64.5535 116.258 64.8171C115.85 65.0807 115.389 65.2126 114.874 65.2126ZM114.874 63.8645C115.137 63.8645 115.371 63.7985 115.575 63.6667C115.778 63.5229 115.94 63.3372 116.06 63.1095C116.18 62.8698 116.24 62.6002 116.24 62.3006C116.24 61.9891 116.174 61.7195 116.042 61.4918C115.922 61.2641 115.755 61.0844 115.539 60.9525C115.335 60.8207 115.101 60.7548 114.838 60.7548C114.598 60.7548 114.37 60.8207 114.155 60.9525C113.951 61.0724 113.783 61.2461 113.651 61.4738C113.532 61.7015 113.472 61.9771 113.472 62.3006C113.472 62.6362 113.538 62.9238 113.669 63.1634C113.801 63.3911 113.975 63.5649 114.191 63.6847C114.406 63.8045 114.634 63.8645 114.874 63.8645ZM108.655 58.1485C108.151 58.1485 107.69 58.0287 107.27 57.789C106.851 57.5493 106.516 57.2138 106.264 56.7824C106.024 56.339 105.904 55.8357 105.904 55.2725C105.904 54.6734 106.024 54.1581 106.264 53.7267C106.516 53.2953 106.845 52.9598 107.252 52.7201C107.66 52.4805 108.115 52.3606 108.619 52.3606C109.134 52.3606 109.595 52.4924 110.003 52.7561C110.422 53.0077 110.752 53.3552 110.991 53.7986C111.231 54.23 111.351 54.7213 111.351 55.2725C111.351 55.7878 111.231 56.2671 110.991 56.7105C110.764 57.1539 110.446 57.5074 110.039 57.771C109.631 58.0227 109.17 58.1485 108.655 58.1485ZM108.655 56.8004C108.906 56.8004 109.134 56.7345 109.338 56.6027C109.541 56.4589 109.703 56.2731 109.823 56.0454C109.943 55.8178 110.003 55.5601 110.003 55.2725C110.003 54.949 109.937 54.6734 109.805 54.4457C109.685 54.206 109.517 54.0263 109.302 53.9065C109.098 53.7746 108.87 53.7087 108.619 53.7087C108.367 53.7087 108.139 53.7687 107.936 53.8885C107.732 54.0083 107.564 54.1821 107.432 54.4098C107.312 54.6374 107.252 54.925 107.252 55.2725C107.252 55.5841 107.312 55.8597 107.432 56.0994C107.564 56.3271 107.738 56.5008 107.953 56.6206C108.169 56.7405 108.403 56.8004 108.655 56.8004ZM128.211 65.2126C127.373 65.2126 126.618 65.0148 125.947 64.6194C125.276 64.2239 124.748 63.6787 124.365 62.9837C123.993 62.2887 123.808 61.4978 123.808 60.611C123.808 59.7243 123.993 58.9334 124.365 58.2384C124.748 57.5433 125.27 57.0041 125.929 56.6206C126.6 56.2252 127.361 56.0275 128.211 56.0275C129.074 56.0275 129.829 56.2252 130.476 56.6206C131.135 57.0041 131.657 57.5433 132.04 58.2384C132.423 58.9334 132.615 59.7243 132.615 60.611C132.615 61.4978 132.423 62.2887 132.04 62.9837C131.669 63.6787 131.147 64.2239 130.476 64.6194C129.817 65.0148 129.062 65.2126 128.211 65.2126ZM128.229 63.451C128.721 63.451 129.146 63.3372 129.506 63.1095C129.865 62.8818 130.141 62.5523 130.332 62.1209C130.524 61.6895 130.62 61.1862 130.62 60.611C130.62 60.0239 130.524 59.5206 130.332 59.1012C130.141 58.6698 129.865 58.3402 129.506 58.1125C129.146 57.8849 128.721 57.771 128.229 57.771C127.714 57.771 127.277 57.8909 126.917 58.1305C126.558 58.3582 126.282 58.6817 126.09 59.1012C125.899 59.5206 125.803 60.0239 125.803 60.611C125.803 61.1862 125.899 61.6895 126.09 62.1209C126.282 62.5523 126.558 62.8818 126.917 63.1095C127.277 63.3372 127.714 63.451 128.229 63.451ZM135.138 65.0508V57.7351H133.449V56.1892H135.156V55.1827C135.156 54.4517 135.276 53.8825 135.516 53.4751C135.755 53.0557 136.073 52.7681 136.468 52.6123C136.876 52.4445 137.325 52.3606 137.816 52.3606C138.164 52.3606 138.469 52.3966 138.733 52.4685C139.009 52.5284 139.266 52.6183 139.506 52.7381L138.859 54.248C138.739 54.1761 138.607 54.1222 138.463 54.0862C138.332 54.0383 138.188 54.0143 138.032 54.0143C137.709 54.0143 137.475 54.1222 137.331 54.3379C137.199 54.5416 137.133 54.8232 137.133 55.1827V56.1892H139.075V57.7351H137.133V65.0508H135.138ZM148.359 65.2126C147.664 65.2126 147.077 65.0747 146.597 64.7991C146.13 64.5235 145.776 64.1281 145.537 63.6128C145.297 63.0975 145.177 62.4744 145.177 61.7434V56.1892H147.172V61.2042C147.172 61.6715 147.226 62.079 147.334 62.4265C147.454 62.762 147.64 63.0196 147.891 63.1994C148.155 63.3791 148.509 63.469 148.952 63.469C149.467 63.469 149.869 63.3372 150.156 63.0736C150.456 62.798 150.666 62.4025 150.785 61.8872C150.917 61.36 150.983 60.7309 150.983 59.9999V56.1892H152.978V65.0508H150.983V63.1455L151.325 63.2713C151.049 63.9423 150.648 64.4336 150.12 64.7452C149.605 65.0568 149.018 65.2126 148.359 65.2126ZM158.345 65.2126C157.71 65.2126 157.147 65.1227 156.656 64.9429C156.165 64.7512 155.751 64.5115 155.416 64.2239C155.08 63.9363 154.804 63.6488 154.589 63.3612L155.955 62.1748C156.183 62.5463 156.494 62.8758 156.89 63.1634C157.297 63.451 157.788 63.5948 158.363 63.5948C158.843 63.5948 159.22 63.493 159.496 63.2893C159.783 63.0855 159.927 62.8339 159.927 62.5343C159.927 62.2707 159.837 62.067 159.658 61.9232C159.478 61.7674 159.244 61.6356 158.957 61.5277C158.669 61.4199 158.351 61.324 158.004 61.2401C157.668 61.1563 157.327 61.0544 156.979 60.9346C156.632 60.8028 156.308 60.641 156.009 60.4493C155.721 60.2575 155.487 60.0119 155.308 59.7123C155.128 59.4127 155.038 59.0412 155.038 58.5979C155.038 57.819 155.338 57.1958 155.937 56.7285C156.536 56.2611 157.321 56.0275 158.292 56.0275C158.987 56.0275 159.622 56.1653 160.197 56.4409C160.772 56.7165 161.221 57.1299 161.545 57.6811L160.305 58.6338C160.065 58.2743 159.765 58.0047 159.406 57.8249C159.046 57.6452 158.657 57.5553 158.238 57.5553C157.854 57.5553 157.531 57.6332 157.267 57.789C157.015 57.9448 156.89 58.1485 156.89 58.4001C156.89 58.5919 156.949 58.7476 157.069 58.8675C157.189 58.9873 157.375 59.0952 157.626 59.191C157.878 59.2869 158.196 59.3828 158.579 59.4786C158.939 59.5625 159.31 59.6644 159.694 59.7842C160.077 59.904 160.431 60.0658 160.754 60.2695C161.09 60.4612 161.359 60.7249 161.563 61.0604C161.779 61.3839 161.886 61.8033 161.886 62.3186C161.886 62.8938 161.737 63.4031 161.437 63.8465C161.15 64.2779 160.736 64.6134 160.197 64.8531C159.67 65.0927 159.052 65.2126 158.345 65.2126ZM167.669 65.2126C166.926 65.2126 166.279 65.0927 165.728 64.8531C165.188 64.6134 164.745 64.2779 164.398 63.8465C164.05 63.4151 163.792 62.9298 163.625 62.3905C163.457 61.8393 163.373 61.2701 163.373 60.6829C163.373 60.0958 163.451 59.5266 163.607 58.9753C163.774 58.4121 164.026 57.9088 164.362 57.4655C164.697 57.0221 165.129 56.6746 165.656 56.4229C166.183 56.1593 166.806 56.0275 167.525 56.0275C168.208 56.0275 168.801 56.1473 169.305 56.387C169.82 56.6146 170.245 56.9382 170.581 57.3576C170.916 57.765 171.162 58.2324 171.318 58.7596C171.486 59.2869 171.57 59.8501 171.57 60.4493C171.57 60.5331 171.564 60.653 171.552 60.8087C171.552 60.9645 171.54 61.1203 171.516 61.2761H165.368C165.416 61.9831 165.656 62.5223 166.087 62.8938C166.519 63.2653 167.07 63.451 167.741 63.451C168.232 63.451 168.682 63.3731 169.089 63.2174C169.496 63.0616 169.868 62.8159 170.203 62.4804L171.3 63.8105C170.928 64.1461 170.557 64.4157 170.185 64.6194C169.814 64.8231 169.425 64.9729 169.017 65.0688C168.622 65.1646 168.172 65.2126 167.669 65.2126ZM169.61 60.2695C169.634 60.1736 169.646 60.0778 169.646 59.9819C169.658 59.886 169.664 59.7902 169.664 59.6943C169.664 59.4307 169.616 59.179 169.52 58.9394C169.437 58.6997 169.305 58.49 169.125 58.3103C168.945 58.1185 168.724 57.9687 168.46 57.8609C168.196 57.7411 167.897 57.6811 167.561 57.6811C167.094 57.6811 166.698 57.783 166.375 57.9867C166.063 58.1904 165.818 58.4541 165.638 58.7776C165.47 59.0892 165.368 59.4307 165.332 59.8022H170.257L169.61 60.2695ZM173.511 65.0508V56.1892H175.524V58.5799L175.147 58.6338C175.207 58.1185 175.38 57.6692 175.668 57.2857C175.956 56.8903 176.303 56.5847 176.711 56.369C177.13 56.1413 177.543 56.0275 177.951 56.0275C178.238 56.0275 178.514 56.0634 178.778 56.1353C179.041 56.2072 179.317 56.3271 179.604 56.4948L178.634 58.2923C178.502 58.2084 178.328 58.1425 178.113 58.0946C177.909 58.0347 177.711 58.0047 177.519 58.0047C177.268 58.0047 177.016 58.0526 176.764 58.1485C176.525 58.2444 176.309 58.3941 176.117 58.5979C175.926 58.7896 175.782 59.0412 175.686 59.3528C175.626 59.5206 175.578 59.7422 175.542 60.0179C175.518 60.2815 175.506 60.653 175.506 61.1323V65.0508H173.511ZM183.815 65.2126C183.18 65.2126 182.617 65.1227 182.126 64.9429C181.635 64.7512 181.221 64.5115 180.886 64.2239C180.55 63.9363 180.274 63.6488 180.059 63.3612L181.425 62.1748C181.653 62.5463 181.964 62.8758 182.36 63.1634C182.767 63.451 183.258 63.5948 183.833 63.5948C184.313 63.5948 184.69 63.493 184.966 63.2893C185.253 63.0855 185.397 62.8339 185.397 62.5343C185.397 62.2707 185.307 62.067 185.128 61.9232C184.948 61.7674 184.714 61.6356 184.427 61.5277C184.139 61.4199 183.821 61.324 183.474 61.2401C183.138 61.1563 182.797 61.0544 182.449 60.9346C182.102 60.8028 181.778 60.641 181.479 60.4493C181.191 60.2575 180.958 60.0119 180.778 59.7123C180.598 59.4127 180.508 59.0412 180.508 58.5979C180.508 57.819 180.808 57.1958 181.407 56.7285C182.006 56.2611 182.791 56.0275 183.762 56.0275C184.457 56.0275 185.092 56.1653 185.667 56.4409C186.242 56.7165 186.691 57.1299 187.015 57.6811L185.775 58.6338C185.535 58.2743 185.235 58.0047 184.876 57.8249C184.517 57.6452 184.127 57.5553 183.708 57.5553C183.324 57.5553 183.001 57.6332 182.737 57.789C182.485 57.9448 182.36 58.1485 182.36 58.4001C182.36 58.5919 182.419 58.7476 182.539 58.8675C182.659 58.9873 182.845 59.0952 183.097 59.191C183.348 59.2869 183.666 59.3828 184.049 59.4786C184.409 59.5625 184.78 59.6644 185.164 59.7842C185.547 59.904 185.901 60.0658 186.224 60.2695C186.56 60.4612 186.829 60.7249 187.033 61.0604C187.249 61.3839 187.357 61.8033 187.357 62.3186C187.357 62.8938 187.207 63.4031 186.907 63.8465C186.62 64.2779 186.206 64.6134 185.667 64.8531C185.14 65.0927 184.522 65.2126 183.815 65.2126ZM193.926 65.0508V52.5224H195.921V58.1485L195.561 58.2384C195.717 57.7231 195.945 57.3037 196.244 56.9801C196.556 56.6566 196.91 56.4169 197.305 56.2611C197.7 56.1054 198.12 56.0275 198.563 56.0275C199.558 56.0275 200.331 56.3151 200.882 56.8903C201.445 57.4535 201.727 58.2623 201.727 59.3168V65.0508H199.732V60.0538C199.732 59.2629 199.588 58.6817 199.3 58.3103C199.013 57.9388 198.569 57.753 197.97 57.753C197.299 57.753 196.79 57.9927 196.442 58.472C196.095 58.9514 195.921 59.7063 195.921 60.7368V65.0508H193.926ZM209.682 65.0508L209.538 63.5589V59.4606C209.538 58.8855 209.365 58.4541 209.017 58.1665C208.67 57.8669 208.184 57.7171 207.561 57.7171C207.082 57.7171 206.609 57.813 206.141 58.0047C205.686 58.1844 205.266 58.466 204.883 58.8495L203.769 57.5374C204.344 56.9981 204.955 56.6146 205.602 56.387C206.249 56.1473 206.956 56.0275 207.723 56.0275C208.921 56.0275 209.85 56.333 210.509 56.9442C211.18 57.5433 211.516 58.3822 211.516 59.4606V65.0508H209.682ZM206.932 65.2126C206.273 65.2126 205.686 65.0927 205.171 64.8531C204.667 64.6134 204.272 64.2779 203.984 63.8465C203.709 63.4151 203.571 62.9118 203.571 62.3366C203.571 61.8453 203.673 61.4199 203.876 61.0604C204.092 60.7009 204.368 60.4193 204.703 60.2156C204.991 60.0358 205.326 59.91 205.71 59.8381C206.093 59.7542 206.495 59.7123 206.914 59.7123H209.7V61.2042H207.202C206.986 61.2042 206.77 61.2282 206.555 61.2761C206.339 61.312 206.147 61.3839 205.979 61.4918C205.86 61.5877 205.758 61.7075 205.674 61.8513C205.602 61.9951 205.566 62.1628 205.566 62.3546C205.566 62.738 205.71 63.0436 205.997 63.2713C206.297 63.487 206.692 63.5948 207.184 63.5948C207.615 63.5948 208.005 63.499 208.352 63.3072C208.712 63.1155 208.999 62.8519 209.215 62.5163C209.431 62.1808 209.538 61.8033 209.538 61.3839L210.15 62.3725C210.006 62.9957 209.778 63.5229 209.467 63.9543C209.155 64.3737 208.783 64.6913 208.352 64.907C207.921 65.1107 207.447 65.2126 206.932 65.2126ZM216.266 65.0508L212.653 56.1892H214.846L217.093 62.4624L219.376 56.1892H221.532L217.92 65.0508H216.266ZM226.631 65.2126C225.888 65.2126 225.241 65.0927 224.69 64.8531C224.15 64.6134 223.707 64.2779 223.36 63.8465C223.012 63.4151 222.754 62.9298 222.587 62.3905C222.419 61.8393 222.335 61.2701 222.335 60.6829C222.335 60.0958 222.413 59.5266 222.569 58.9753C222.736 58.4121 222.988 57.9088 223.324 57.4655C223.659 57.0221 224.091 56.6746 224.618 56.4229C225.145 56.1593 225.768 56.0275 226.487 56.0275C227.17 56.0275 227.763 56.1473 228.267 56.387C228.782 56.6146 229.207 56.9382 229.543 57.3576C229.878 57.765 230.124 58.2324 230.28 58.7596C230.448 59.2869 230.532 59.8501 230.532 60.4493C230.532 60.5331 230.526 60.653 230.514 60.8087C230.514 60.9645 230.502 61.1203 230.478 61.2761H224.33C224.378 61.9831 224.618 62.5223 225.049 62.8938C225.481 63.2653 226.032 63.451 226.703 63.451C227.194 63.451 227.644 63.3731 228.051 63.2174C228.458 63.0616 228.83 62.8159 229.165 62.4804L230.262 63.8105C229.89 64.1461 229.519 64.4157 229.147 64.6194C228.776 64.8231 228.387 64.9729 227.979 65.0688C227.584 65.1646 227.134 65.2126 226.631 65.2126ZM228.572 60.2695C228.596 60.1736 228.608 60.0778 228.608 59.9819C228.62 59.886 228.626 59.7902 228.626 59.6943C228.626 59.4307 228.578 59.179 228.482 58.9394C228.399 58.6997 228.267 58.49 228.087 58.3103C227.907 58.1185 227.686 57.9687 227.422 57.8609C227.158 57.7411 226.859 57.6811 226.523 57.6811C226.056 57.6811 225.66 57.783 225.337 57.9867C225.025 58.1904 224.78 58.4541 224.6 58.7776C224.432 59.0892 224.33 59.4307 224.294 59.8022H229.219L228.572 60.2695ZM38.1765 101.051V93.7351H36.4869V92.1892H38.1945V91.1827C38.1945 90.4517 38.3143 89.8825 38.554 89.4751C38.7936 89.0557 39.1112 88.7681 39.5066 88.6123C39.9141 88.4445 40.3634 88.3606 40.8547 88.3606C41.2022 88.3606 41.5078 88.3966 41.7714 88.4685C42.0471 88.5284 42.3047 88.6183 42.5444 88.7381L41.8973 90.248C41.7774 90.1761 41.6456 90.1222 41.5018 90.0862C41.37 90.0383 41.2262 90.0143 41.0704 90.0143C40.7469 90.0143 40.5132 90.1222 40.3694 90.3379C40.2376 90.5416 40.1717 90.8232 40.1717 91.1827V92.1892H42.113V93.7351H40.1717V101.051H38.1765ZM47.2761 101.213C46.4372 101.213 45.6823 101.015 45.0112 100.619C44.3402 100.224 43.8129 99.6787 43.4295 98.9837C43.058 98.2887 42.8723 97.4978 42.8723 96.611C42.8723 95.7243 43.058 94.9334 43.4295 94.2384C43.8129 93.5433 44.3342 93.0041 44.9933 92.6206C45.6643 92.2252 46.4253 92.0275 47.2761 92.0275C48.1388 92.0275 48.8938 92.2252 49.5409 92.6206C50.1999 93.0041 50.7212 93.5433 51.1047 94.2384C51.4881 94.9334 51.6799 95.7243 51.6799 96.611C51.6799 97.4978 51.4881 98.2887 51.1047 98.9837C50.7332 99.6787 50.2119 100.224 49.5409 100.619C48.8818 101.015 48.1269 101.213 47.2761 101.213ZM47.294 99.451C47.7853 99.451 48.2107 99.3372 48.5702 99.1095C48.9297 98.8818 49.2053 98.5523 49.3971 98.1209C49.5888 97.6895 49.6847 97.1862 49.6847 96.611C49.6847 96.0239 49.5888 95.5206 49.3971 95.1012C49.2053 94.6698 48.9297 94.3402 48.5702 94.1125C48.2107 93.8849 47.7853 93.771 47.294 93.771C46.7788 93.771 46.3414 93.8909 45.9819 94.1305C45.6224 94.3582 45.3468 94.6817 45.155 95.1012C44.9633 95.5206 44.8674 96.0239 44.8674 96.611C44.8674 97.1862 44.9633 97.6895 45.155 98.1209C45.3468 98.5523 45.6224 98.8818 45.9819 99.1095C46.3414 99.3372 46.7788 99.451 47.294 99.451ZM53.6071 101.051V92.1892H55.6203V94.5799L55.2428 94.6338C55.3027 94.1185 55.4765 93.6692 55.7641 93.2857C56.0516 92.8903 56.3992 92.5847 56.8066 92.369C57.226 92.1413 57.6394 92.0275 58.0468 92.0275C58.3344 92.0275 58.6101 92.0634 58.8737 92.1353C59.1373 92.2072 59.4129 92.3271 59.7005 92.4948L58.7299 94.2923C58.5981 94.2084 58.4243 94.1425 58.2086 94.0946C58.0049 94.0347 57.8072 94.0047 57.6155 94.0047C57.3638 94.0047 57.1122 94.0526 56.8605 94.1485C56.6208 94.2444 56.4052 94.3941 56.2134 94.5979C56.0217 94.7896 55.8779 95.0412 55.782 95.3528C55.7221 95.5206 55.6742 95.7422 55.6382 96.0179C55.6143 96.2815 55.6023 96.653 55.6023 97.1323V101.051H53.6071ZM64.4362 104.897C63.13 104.897 62.0994 104.658 61.3445 104.178C60.5896 103.711 60.2121 103.07 60.2121 102.255C60.2121 102.183 60.2121 102.099 60.2121 102.003C60.2241 101.908 60.2421 101.812 60.266 101.716L62.6746 100.152L63.2139 100.673L62.0455 102.129C62.0335 102.165 62.0275 102.195 62.0275 102.219C62.0275 102.255 62.0275 102.291 62.0275 102.327C62.0275 102.698 62.2492 102.98 62.6926 103.172C63.148 103.376 63.7291 103.477 64.4362 103.477C65.0353 103.477 65.5146 103.393 65.8741 103.226C66.2336 103.07 66.4134 102.83 66.4134 102.507C66.4134 102.327 66.3594 102.177 66.2516 102.057C66.1438 101.95 65.982 101.86 65.7663 101.788C65.5506 101.716 65.281 101.65 64.9574 101.59C64.6459 101.542 64.2744 101.494 63.843 101.446C63.3037 101.362 62.7705 101.243 62.2432 101.087C61.728 100.931 61.2966 100.697 60.9491 100.386C60.6135 100.074 60.4458 99.6607 60.4458 99.1455C60.4458 98.6901 60.6015 98.2767 60.9131 97.9052C61.2247 97.5217 61.6381 97.2102 62.1534 96.9705L63.1779 97.7614C62.8424 97.8333 62.5907 97.9591 62.423 98.1389C62.2552 98.3066 62.1713 98.5104 62.1713 98.75C62.1713 98.9537 62.2492 99.1215 62.405 99.2533C62.5608 99.3731 62.7825 99.469 63.0701 99.5409C63.3697 99.6008 63.7232 99.6607 64.1306 99.7207C64.7417 99.7926 65.3049 99.8764 65.8202 99.9723C66.3355 100.068 66.7848 100.206 67.1683 100.386C67.5518 100.553 67.8454 100.787 68.0491 101.087C68.2648 101.386 68.3726 101.776 68.3726 102.255C68.3726 103.106 68.0251 103.759 67.3301 104.214C66.647 104.67 65.6824 104.897 64.4362 104.897ZM64.2384 98.4804C63.5194 98.4804 62.8843 98.3426 62.3331 98.067C61.7819 97.7914 61.3505 97.4139 61.0389 96.9346C60.7394 96.4433 60.5896 95.892 60.5896 95.2809C60.5896 94.6218 60.7513 94.0526 61.0749 93.5733C61.3984 93.082 61.8298 92.7045 62.3691 92.4409C62.9203 92.1653 63.5194 92.0275 64.1665 92.0275C64.8136 92.0275 65.4068 92.1653 65.946 92.4409C66.4853 92.7045 66.9167 93.088 67.2402 93.5913C67.5757 94.0826 67.7435 94.6698 67.7435 95.3528C67.7435 95.9759 67.5937 96.5271 67.2941 97.0065C67.0065 97.4738 66.5991 97.8393 66.0719 98.1029C65.5446 98.3546 64.9335 98.4804 64.2384 98.4804ZM64.2025 96.8806C64.7178 96.8806 65.1072 96.7249 65.3708 96.4133C65.6345 96.0898 65.7663 95.7063 65.7663 95.2629C65.7663 94.7836 65.6225 94.4001 65.3349 94.1125C65.0473 93.813 64.6698 93.6632 64.2025 93.6632C63.7112 93.6632 63.3157 93.813 63.0161 94.1125C62.7286 94.4001 62.5848 94.7776 62.5848 95.2449C62.5848 95.7003 62.7226 96.0898 62.9982 96.4133C63.2738 96.7249 63.6752 96.8806 64.2025 96.8806ZM67.1683 93.9867L65.7124 93.052L67.7076 91.4343L68.7321 92.6746L67.1683 93.9867ZM73.8871 101.213C73.0482 101.213 72.2933 101.015 71.6222 100.619C70.9512 100.224 70.4239 99.6787 70.0405 98.9837C69.669 98.2887 69.4833 97.4978 69.4833 96.611C69.4833 95.7243 69.669 94.9334 70.0405 94.2384C70.4239 93.5433 70.9452 93.0041 71.6043 92.6206C72.2753 92.2252 73.0363 92.0275 73.8871 92.0275C74.7498 92.0275 75.5048 92.2252 76.1519 92.6206C76.8109 93.0041 77.3322 93.5433 77.7157 94.2384C78.0991 94.9334 78.2909 95.7243 78.2909 96.611C78.2909 97.4978 78.0991 98.2887 77.7157 98.9837C77.3442 99.6787 76.8229 100.224 76.1519 100.619C75.4928 101.015 74.7379 101.213 73.8871 101.213ZM73.905 99.451C74.3963 99.451 74.8217 99.3372 75.1812 99.1095C75.5407 98.8818 75.8163 98.5523 76.0081 98.1209C76.1998 97.6895 76.2957 97.1862 76.2957 96.611C76.2957 96.0239 76.1998 95.5206 76.0081 95.1012C75.8163 94.6698 75.5407 94.3402 75.1812 94.1125C74.8217 93.8849 74.3963 93.771 73.905 93.771C73.3898 93.771 72.9524 93.8909 72.5929 94.1305C72.2334 94.3582 71.9578 94.6817 71.766 95.1012C71.5743 95.5206 71.4784 96.0239 71.4784 96.611C71.4784 97.1862 71.5743 97.6895 71.766 98.1209C71.9578 98.5523 72.2334 98.8818 72.5929 99.1095C72.9524 99.3372 73.3898 99.451 73.905 99.451ZM83.3302 101.213C82.8869 101.213 82.4675 101.129 82.072 100.961C81.6886 100.781 81.383 100.5 81.1553 100.116C80.9276 99.7207 80.8138 99.2054 80.8138 98.5703V90.0323L82.827 88.9178V98.0131C82.827 98.5163 82.8989 98.9058 83.0427 99.1814C83.1984 99.445 83.474 99.5769 83.8695 99.5769C83.9893 99.5769 84.1271 99.5649 84.2829 99.5409C84.4507 99.505 84.6244 99.463 84.8042 99.4151V100.961C84.5645 101.045 84.3189 101.105 84.0672 101.141C83.8275 101.189 83.5819 101.213 83.3302 101.213ZM79.1242 93.7351V92.1892H84.8042V93.7351H79.1242ZM89.8075 101.213C89.3641 101.213 88.9447 101.129 88.5492 100.961C88.1658 100.781 87.8602 100.5 87.6325 100.116C87.4048 99.7207 87.291 99.2054 87.291 98.5703V90.0323L89.3042 88.9178V98.0131C89.3042 98.5163 89.3761 98.9058 89.5199 99.1814C89.6756 99.445 89.9513 99.5769 90.3467 99.5769C90.4665 99.5769 90.6043 99.5649 90.7601 99.5409C90.9279 99.505 91.1016 99.463 91.2814 99.4151V100.961C91.0417 101.045 90.7961 101.105 90.5444 101.141C90.3048 101.189 90.0591 101.213 89.8075 101.213ZM85.6014 93.7351V92.1892H91.2814V93.7351H85.6014ZM96.7742 101.213C96.0313 101.213 95.3842 101.093 94.8329 100.853C94.2937 100.613 93.8503 100.278 93.5028 99.8465C93.1553 99.4151 92.8977 98.9298 92.7299 98.3905C92.5621 97.8393 92.4783 97.2701 92.4783 96.6829C92.4783 96.0958 92.5561 95.5266 92.7119 94.9753C92.8797 94.4121 93.1313 93.9088 93.4669 93.4655C93.8024 93.0221 94.2338 92.6746 94.761 92.4229C95.2883 92.1593 95.9114 92.0275 96.6304 92.0275C97.3134 92.0275 97.9066 92.1473 98.4099 92.387C98.9252 92.6146 99.3506 92.9382 99.6861 93.3576C100.022 93.765 100.267 94.2324 100.423 94.7596C100.591 95.2869 100.675 95.8501 100.675 96.4493C100.675 96.5331 100.669 96.653 100.657 96.8087C100.657 96.9645 100.645 97.1203 100.621 97.2761H94.4734C94.5214 97.9831 94.761 98.5223 95.1924 98.8938C95.6238 99.2653 96.1751 99.451 96.8461 99.451C97.3374 99.451 97.7868 99.3731 98.1942 99.2174C98.6016 99.0616 98.9731 98.8159 99.3086 98.4804L100.405 99.8105C100.034 100.146 99.6621 100.416 99.2907 100.619C98.9192 100.823 98.5297 100.973 98.1223 101.069C97.7269 101.165 97.2775 101.213 96.7742 101.213ZM98.7155 96.2695C98.7394 96.1736 98.7514 96.0778 98.7514 95.9819C98.7634 95.886 98.7694 95.7902 98.7694 95.6943C98.7694 95.4307 98.7215 95.179 98.6256 94.9394C98.5417 94.6997 98.4099 94.49 98.2302 94.3103C98.0504 94.1185 97.8287 93.9687 97.5651 93.8609C97.3015 93.7411 97.0019 93.6811 96.6664 93.6811C96.199 93.6811 95.8036 93.783 95.48 93.9867C95.1685 94.1904 94.9228 94.4541 94.7431 94.7776C94.5753 95.0892 94.4734 95.4307 94.4375 95.8022H99.3626L98.7155 96.2695ZM102.616 101.051V92.1892H104.611V94.1485L104.252 94.2384C104.408 93.7231 104.635 93.3037 104.935 92.9801C105.235 92.6566 105.582 92.4169 105.978 92.2611C106.385 92.1054 106.81 92.0275 107.254 92.0275C108.248 92.0275 109.021 92.3151 109.572 92.8903C110.136 93.4535 110.417 94.2623 110.417 95.3168V101.051H108.422V96.0538C108.422 95.2629 108.278 94.6817 107.991 94.3103C107.703 93.9388 107.26 93.753 106.661 93.753C106.217 93.753 105.84 93.8609 105.528 94.0766C105.229 94.2803 105.001 94.6039 104.845 95.0472C104.689 95.4906 104.611 96.0538 104.611 96.7368V101.051H102.616ZM119.285 101.213C118.71 101.213 118.231 101.039 117.847 100.691C117.464 100.332 117.272 99.7626 117.272 98.9837V88.5224H119.267V98.5882C119.267 98.8639 119.327 99.0676 119.447 99.1994C119.579 99.3192 119.747 99.3791 119.95 99.3791C120.058 99.3791 120.166 99.3671 120.274 99.3432C120.394 99.3192 120.514 99.2893 120.633 99.2533V100.943C120.406 101.039 120.172 101.105 119.932 101.141C119.693 101.189 119.477 101.213 119.285 101.213ZM125.315 101.213C124.62 101.213 124.032 101.075 123.553 100.799C123.086 100.524 122.732 100.128 122.493 99.6128C122.253 99.0975 122.133 98.4744 122.133 97.7434V92.1892H124.128V97.2042C124.128 97.6715 124.182 98.079 124.29 98.4265C124.41 98.762 124.596 99.0196 124.847 99.1994C125.111 99.3791 125.464 99.469 125.908 99.469C126.423 99.469 126.825 99.3372 127.112 99.0736C127.412 98.798 127.621 98.4025 127.741 97.8872C127.873 97.36 127.939 96.7309 127.939 95.9999V92.1892H129.934V101.051H127.939V99.1455L128.281 99.2713C128.005 99.9423 127.603 100.434 127.076 100.745C126.561 101.057 125.974 101.213 125.315 101.213ZM135.966 104.897C134.66 104.897 133.63 104.658 132.875 104.178C132.12 103.711 131.742 103.07 131.742 102.255C131.742 102.183 131.742 102.099 131.742 102.003C131.754 101.908 131.772 101.812 131.796 101.716L134.205 100.152L134.744 100.673L133.576 102.129C133.564 102.165 133.558 102.195 133.558 102.219C133.558 102.255 133.558 102.291 133.558 102.327C133.558 102.698 133.779 102.98 134.223 103.172C134.678 103.376 135.259 103.477 135.966 103.477C136.566 103.477 137.045 103.393 137.404 103.226C137.764 103.07 137.944 102.83 137.944 102.507C137.944 102.327 137.89 102.177 137.782 102.057C137.674 101.95 137.512 101.86 137.297 101.788C137.081 101.716 136.811 101.65 136.488 101.59C136.176 101.542 135.805 101.494 135.373 101.446C134.834 101.362 134.301 101.243 133.773 101.087C133.258 100.931 132.827 100.697 132.479 100.386C132.144 100.074 131.976 99.6607 131.976 99.1455C131.976 98.6901 132.132 98.2767 132.443 97.9052C132.755 97.5217 133.168 97.2102 133.684 96.9705L134.708 97.7614C134.373 97.8333 134.121 97.9591 133.953 98.1389C133.785 98.3066 133.702 98.5104 133.702 98.75C133.702 98.9537 133.779 99.1215 133.935 99.2533C134.091 99.3731 134.313 99.469 134.6 99.5409C134.9 99.6008 135.253 99.6607 135.661 99.7207C136.272 99.7926 136.835 99.8764 137.35 99.9723C137.866 100.068 138.315 100.206 138.699 100.386C139.082 100.553 139.376 100.787 139.579 101.087C139.795 101.386 139.903 101.776 139.903 102.255C139.903 103.106 139.555 103.759 138.86 104.214C138.177 104.67 137.213 104.897 135.966 104.897ZM135.769 98.4804C135.05 98.4804 134.415 98.3426 133.863 98.067C133.312 97.7914 132.881 97.4139 132.569 96.9346C132.27 96.4433 132.12 95.892 132.12 95.2809C132.12 94.6218 132.282 94.0526 132.605 93.5733C132.929 93.082 133.36 92.7045 133.899 92.4409C134.451 92.1653 135.05 92.0275 135.697 92.0275C136.344 92.0275 136.937 92.1653 137.476 92.4409C138.016 92.7045 138.447 93.088 138.77 93.5913C139.106 94.0826 139.274 94.6698 139.274 95.3528C139.274 95.9759 139.124 96.5271 138.824 97.0065C138.537 97.4738 138.129 97.8393 137.602 98.1029C137.075 98.3546 136.464 98.4804 135.769 98.4804ZM135.733 96.8806C136.248 96.8806 136.637 96.7249 136.901 96.4133C137.165 96.0898 137.297 95.7063 137.297 95.2629C137.297 94.7836 137.153 94.4001 136.865 94.1125C136.578 93.813 136.2 93.6632 135.733 93.6632C135.241 93.6632 134.846 93.813 134.546 94.1125C134.259 94.4001 134.115 94.7776 134.115 95.2449C134.115 95.7003 134.253 96.0898 134.528 96.4133C134.804 96.7249 135.205 96.8806 135.733 96.8806ZM138.699 93.9867L137.243 93.052L139.238 91.4343L140.262 92.6746L138.699 93.9867ZM145.305 104.897C143.999 104.897 142.968 104.658 142.213 104.178C141.458 103.711 141.081 103.07 141.081 102.255C141.081 102.183 141.081 102.099 141.081 102.003C141.093 101.908 141.111 101.812 141.135 101.716L143.543 100.152L144.083 100.673L142.914 102.129C142.902 102.165 142.896 102.195 142.896 102.219C142.896 102.255 142.896 102.291 142.896 102.327C142.896 102.698 143.118 102.98 143.561 103.172C144.017 103.376 144.598 103.477 145.305 103.477C145.904 103.477 146.383 103.393 146.743 103.226C147.102 103.07 147.282 102.83 147.282 102.507C147.282 102.327 147.228 102.177 147.12 102.057C147.012 101.95 146.851 101.86 146.635 101.788C146.419 101.716 146.15 101.65 145.826 101.59C145.515 101.542 145.143 101.494 144.712 101.446C144.172 101.362 143.639 101.243 143.112 101.087C142.597 100.931 142.165 100.697 141.818 100.386C141.482 100.074 141.314 99.6607 141.314 99.1455C141.314 98.6901 141.47 98.2767 141.782 97.9052C142.093 97.5217 142.507 97.2102 143.022 96.9705L144.047 97.7614C143.711 97.8333 143.459 97.9591 143.292 98.1389C143.124 98.3066 143.04 98.5104 143.04 98.75C143.04 98.9537 143.118 99.1215 143.274 99.2533C143.429 99.3731 143.651 99.469 143.939 99.5409C144.238 99.6008 144.592 99.6607 144.999 99.7207C145.61 99.7926 146.174 99.8764 146.689 99.9723C147.204 100.068 147.654 100.206 148.037 100.386C148.42 100.553 148.714 100.787 148.918 101.087C149.133 101.386 149.241 101.776 149.241 102.255C149.241 103.106 148.894 103.759 148.199 104.214C147.516 104.67 146.551 104.897 145.305 104.897ZM145.107 98.4804C144.388 98.4804 143.753 98.3426 143.202 98.067C142.651 97.7914 142.219 97.4139 141.908 96.9346C141.608 96.4433 141.458 95.892 141.458 95.2809C141.458 94.6218 141.62 94.0526 141.944 93.5733C142.267 93.082 142.698 92.7045 143.238 92.4409C143.789 92.1653 144.388 92.0275 145.035 92.0275C145.682 92.0275 146.275 92.1653 146.815 92.4409C147.354 92.7045 147.785 93.088 148.109 93.5913C148.444 94.0826 148.612 94.6698 148.612 95.3528C148.612 95.9759 148.462 96.5271 148.163 97.0065C147.875 97.4738 147.468 97.8393 146.941 98.1029C146.413 98.3546 145.802 98.4804 145.107 98.4804ZM145.071 96.8806C145.586 96.8806 145.976 96.7249 146.239 96.4133C146.503 96.0898 146.635 95.7063 146.635 95.2629C146.635 94.7836 146.491 94.4001 146.204 94.1125C145.916 93.813 145.538 93.6632 145.071 93.6632C144.58 93.6632 144.184 93.813 143.885 94.1125C143.597 94.4001 143.453 94.7776 143.453 95.2449C143.453 95.7003 143.591 96.0898 143.867 96.4133C144.142 96.7249 144.544 96.8806 145.071 96.8806ZM148.037 93.9867L146.581 93.052L148.576 91.4343L149.601 92.6746L148.037 93.9867ZM156.587 101.051L156.443 99.5589V95.4606C156.443 94.8855 156.269 94.4541 155.922 94.1665C155.574 93.8669 155.089 93.7171 154.466 93.7171C153.986 93.7171 153.513 93.813 153.046 94.0047C152.59 94.1844 152.171 94.466 151.787 94.8495L150.673 93.5374C151.248 92.9981 151.859 92.6146 152.506 92.387C153.153 92.1473 153.86 92.0275 154.627 92.0275C155.826 92.0275 156.754 92.333 157.413 92.9442C158.085 93.5433 158.42 94.3822 158.42 95.4606V101.051H156.587ZM153.836 101.213C153.177 101.213 152.59 101.093 152.075 100.853C151.572 100.613 151.176 100.278 150.889 99.8465C150.613 99.4151 150.475 98.9118 150.475 98.3366C150.475 97.8453 150.577 97.4199 150.781 97.0604C150.996 96.7009 151.272 96.4193 151.608 96.2156C151.895 96.0358 152.231 95.91 152.614 95.8381C152.998 95.7542 153.399 95.7123 153.819 95.7123H156.605V97.2042H154.106C153.89 97.2042 153.675 97.2282 153.459 97.2761C153.243 97.312 153.052 97.3839 152.884 97.4918C152.764 97.5877 152.662 97.7075 152.578 97.8513C152.506 97.9951 152.47 98.1628 152.47 98.3546C152.47 98.738 152.614 99.0436 152.902 99.2713C153.201 99.487 153.597 99.5948 154.088 99.5948C154.52 99.5948 154.909 99.499 155.256 99.3072C155.616 99.1155 155.904 98.8519 156.119 98.5163C156.335 98.1808 156.443 97.8033 156.443 97.3839L157.054 98.3725C156.91 98.9957 156.682 99.5229 156.371 99.9543C156.059 100.374 155.688 100.691 155.256 100.907C154.825 101.111 154.352 101.213 153.836 101.213ZM164.333 104.897C163.027 104.897 161.996 104.658 161.241 104.178C160.486 103.711 160.109 103.07 160.109 102.255C160.109 102.183 160.109 102.099 160.109 102.003C160.121 101.908 160.139 101.812 160.163 101.716L162.571 100.152L163.11 100.673L161.942 102.129C161.93 102.165 161.924 102.195 161.924 102.219C161.924 102.255 161.924 102.291 161.924 102.327C161.924 102.698 162.146 102.98 162.589 103.172C163.045 103.376 163.626 103.477 164.333 103.477C164.932 103.477 165.411 103.393 165.771 103.226C166.13 103.07 166.31 102.83 166.31 102.507C166.31 102.327 166.256 102.177 166.148 102.057C166.04 101.95 165.879 101.86 165.663 101.788C165.447 101.716 165.178 101.65 164.854 101.59C164.542 101.542 164.171 101.494 163.74 101.446C163.2 101.362 162.667 101.243 162.14 101.087C161.625 100.931 161.193 100.697 160.846 100.386C160.51 100.074 160.342 99.6607 160.342 99.1455C160.342 98.6901 160.498 98.2767 160.81 97.9052C161.121 97.5217 161.535 97.2102 162.05 96.9705L163.075 97.7614C162.739 97.8333 162.487 97.9591 162.32 98.1389C162.152 98.3066 162.068 98.5104 162.068 98.75C162.068 98.9537 162.146 99.1215 162.302 99.2533C162.457 99.3731 162.679 99.469 162.967 99.5409C163.266 99.6008 163.62 99.6607 164.027 99.7207C164.638 99.7926 165.202 99.8764 165.717 99.9723C166.232 100.068 166.681 100.206 167.065 100.386C167.448 100.553 167.742 100.787 167.946 101.087C168.161 101.386 168.269 101.776 168.269 102.255C168.269 103.106 167.922 103.759 167.227 104.214C166.544 104.67 165.579 104.897 164.333 104.897ZM164.135 98.4804C163.416 98.4804 162.781 98.3426 162.23 98.067C161.678 97.7914 161.247 97.4139 160.936 96.9346C160.636 96.4433 160.486 95.892 160.486 95.2809C160.486 94.6218 160.648 94.0526 160.971 93.5733C161.295 93.082 161.726 92.7045 162.266 92.4409C162.817 92.1653 163.416 92.0275 164.063 92.0275C164.71 92.0275 165.303 92.1653 165.843 92.4409C166.382 92.7045 166.813 93.088 167.137 93.5913C167.472 94.0826 167.64 94.6698 167.64 95.3528C167.64 95.9759 167.49 96.5271 167.191 97.0065C166.903 97.4738 166.496 97.8393 165.968 98.1029C165.441 98.3546 164.83 98.4804 164.135 98.4804ZM164.099 96.8806C164.614 96.8806 165.004 96.7249 165.267 96.4133C165.531 96.0898 165.663 95.7063 165.663 95.2629C165.663 94.7836 165.519 94.4001 165.231 94.1125C164.944 93.813 164.566 93.6632 164.099 93.6632C163.608 93.6632 163.212 93.813 162.913 94.1125C162.625 94.4001 162.481 94.7776 162.481 95.2449C162.481 95.7003 162.619 96.0898 162.895 96.4133C163.17 96.7249 163.572 96.8806 164.099 96.8806ZM167.065 93.9867L165.609 93.052L167.604 91.4343L168.629 92.6746L167.065 93.9867ZM173.676 101.213C172.933 101.213 172.286 101.093 171.735 100.853C171.195 100.613 170.752 100.278 170.404 99.8465C170.057 99.4151 169.799 98.9298 169.631 98.3905C169.464 97.8393 169.38 97.2701 169.38 96.6829C169.38 96.0958 169.458 95.5266 169.614 94.9753C169.781 94.4121 170.033 93.9088 170.368 93.4655C170.704 93.0221 171.135 92.6746 171.663 92.4229C172.19 92.1593 172.813 92.0275 173.532 92.0275C174.215 92.0275 174.808 92.1473 175.311 92.387C175.827 92.6146 176.252 92.9382 176.588 93.3576C176.923 93.765 177.169 94.2324 177.325 94.7596C177.492 95.2869 177.576 95.8501 177.576 96.4493C177.576 96.5331 177.57 96.653 177.558 96.8087C177.558 96.9645 177.546 97.1203 177.522 97.2761H171.375C171.423 97.9831 171.663 98.5223 172.094 98.8938C172.525 99.2653 173.077 99.451 173.748 99.451C174.239 99.451 174.688 99.3731 175.096 99.2174C175.503 99.0616 175.875 98.8159 176.21 98.4804L177.307 99.8105C176.935 100.146 176.564 100.416 176.192 100.619C175.821 100.823 175.431 100.973 175.024 101.069C174.628 101.165 174.179 101.213 173.676 101.213ZM175.617 96.2695C175.641 96.1736 175.653 96.0778 175.653 95.9819C175.665 95.886 175.671 95.7902 175.671 95.6943C175.671 95.4307 175.623 95.179 175.527 94.9394C175.443 94.6997 175.311 94.49 175.132 94.3103C174.952 94.1185 174.73 93.9687 174.467 93.8609C174.203 93.7411 173.903 93.6811 173.568 93.6811C173.101 93.6811 172.705 93.783 172.382 93.9867C172.07 94.1904 171.824 94.4541 171.645 94.7776C171.477 95.0892 171.375 95.4307 171.339 95.8022H176.264L175.617 96.2695ZM188.177 101.213C187.339 101.213 186.584 101.015 185.913 100.619C185.242 100.224 184.714 99.6787 184.331 98.9837C183.959 98.2887 183.774 97.4978 183.774 96.611C183.774 95.7243 183.959 94.9334 184.331 94.2384C184.714 93.5433 185.236 93.0041 185.895 92.6206C186.566 92.2252 187.327 92.0275 188.177 92.0275C189.04 92.0275 189.795 92.2252 190.442 92.6206C191.101 93.0041 191.623 93.5433 192.006 94.2384C192.39 94.9334 192.581 95.7243 192.581 96.611C192.581 97.4978 192.39 98.2887 192.006 98.9837C191.635 99.6787 191.113 100.224 190.442 100.619C189.783 101.015 189.028 101.213 188.177 101.213ZM188.195 99.451C188.687 99.451 189.112 99.3372 189.472 99.1095C189.831 98.8818 190.107 98.5523 190.298 98.1209C190.49 97.6895 190.586 97.1862 190.586 96.611C190.586 96.0239 190.49 95.5206 190.298 95.1012C190.107 94.6698 189.831 94.3402 189.472 94.1125C189.112 93.8849 188.687 93.771 188.195 93.771C187.68 93.771 187.243 93.8909 186.883 94.1305C186.524 94.3582 186.248 94.6817 186.056 95.1012C185.865 95.5206 185.769 96.0239 185.769 96.611C185.769 97.1862 185.865 97.6895 186.056 98.1209C186.248 98.5523 186.524 98.8818 186.883 99.1095C187.243 99.3372 187.68 99.451 188.195 99.451ZM194.508 101.051V92.1892H196.504V94.1485L196.144 94.2384C196.3 93.7231 196.528 93.3037 196.827 92.9801C197.127 92.6566 197.474 92.4169 197.87 92.2611C198.277 92.1054 198.703 92.0275 199.146 92.0275C200.141 92.0275 200.913 92.3151 201.465 92.8903C202.028 93.4535 202.31 94.2623 202.31 95.3168V101.051H200.314V96.0538C200.314 95.2629 200.171 94.6817 199.883 94.3103C199.595 93.9388 199.152 93.753 198.553 93.753C198.109 93.753 197.732 93.8609 197.42 94.0766C197.121 94.2803 196.893 94.6039 196.737 95.0472C196.582 95.4906 196.504 96.0538 196.504 96.7368V101.051H194.508ZM212.436 101.213C211.992 101.213 211.573 101.129 211.178 100.961C210.794 100.781 210.488 100.5 210.261 100.116C210.033 99.7207 209.919 99.2054 209.919 98.5703V90.0323L211.932 88.9178V98.0131C211.932 98.5163 212.004 98.9058 212.148 99.1814C212.304 99.445 212.58 99.5769 212.975 99.5769C213.095 99.5769 213.233 99.5649 213.388 99.5409C213.556 99.505 213.73 99.463 213.91 99.4151V100.961C213.67 101.045 213.424 101.105 213.173 101.141C212.933 101.189 212.687 101.213 212.436 101.213ZM208.23 93.7351V92.1892H213.91V93.7351H208.23ZM215.695 101.051V92.1892H217.709V94.5799L217.331 94.6338C217.391 94.1185 217.565 93.6692 217.852 93.2857C218.14 92.8903 218.488 92.5847 218.895 92.369C219.314 92.1413 219.728 92.0275 220.135 92.0275C220.423 92.0275 220.698 92.0634 220.962 92.1353C221.226 92.2072 221.501 92.3271 221.789 92.4948L220.818 94.2923C220.686 94.2084 220.513 94.1425 220.297 94.0946C220.093 94.0347 219.896 94.0047 219.704 94.0047C219.452 94.0047 219.201 94.0526 218.949 94.1485C218.709 94.2444 218.494 94.3941 218.302 94.5979C218.11 94.7896 217.966 95.0412 217.87 95.3528C217.811 95.5206 217.763 95.7422 217.727 96.0179C217.703 96.2815 217.691 96.653 217.691 97.1323V101.051H215.695ZM223.225 101.051V92.1892H225.221V101.051H223.225ZM223.136 90.7333V88.5224H225.311V90.7333H223.136ZM227.544 104.718V92.1892H229.521V94.6518L229.018 94.6698C229.174 94.0227 229.401 93.5074 229.701 93.1239C230.013 92.7405 230.378 92.4649 230.797 92.2971C231.229 92.1173 231.684 92.0275 232.164 92.0275C232.954 92.0275 233.637 92.2312 234.213 92.6386C234.788 93.0341 235.231 93.5793 235.543 94.2743C235.866 94.9693 236.028 95.7542 236.028 96.629C236.028 97.5757 235.854 98.3965 235.507 99.0915C235.159 99.7746 234.692 100.302 234.105 100.673C233.53 101.033 232.883 101.213 232.164 101.213C231.66 101.213 231.193 101.117 230.762 100.925C230.342 100.733 229.983 100.446 229.683 100.062C229.395 99.6787 229.192 99.2114 229.072 98.6601L229.521 98.5703V104.718H227.544ZM231.678 99.3971C232.146 99.3971 232.553 99.2833 232.901 99.0556C233.26 98.8279 233.536 98.5044 233.727 98.085C233.919 97.6655 234.015 97.1802 234.015 96.629C234.015 96.0778 233.919 95.5925 233.727 95.173C233.536 94.7536 233.26 94.4301 232.901 94.2024C232.553 93.9747 232.146 93.8609 231.678 93.8609C231.211 93.8609 230.797 93.9747 230.438 94.2024C230.09 94.4301 229.821 94.7536 229.629 95.173C229.437 95.5925 229.342 96.0778 229.342 96.629C229.342 97.1802 229.437 97.6655 229.629 98.085C229.821 98.4924 230.09 98.8159 230.438 99.0556C230.797 99.2833 231.211 99.3971 231.678 99.3971ZM240.973 101.213C240.338 101.213 239.775 101.123 239.283 100.943C238.792 100.751 238.379 100.512 238.043 100.224C237.708 99.9363 237.432 99.6488 237.216 99.3612L238.582 98.1748C238.81 98.5463 239.122 98.8758 239.517 99.1634C239.924 99.451 240.416 99.5948 240.991 99.5948C241.47 99.5948 241.848 99.493 242.123 99.2893C242.411 99.0855 242.555 98.8339 242.555 98.5343C242.555 98.2707 242.465 98.067 242.285 97.9232C242.105 97.7674 241.872 97.6356 241.584 97.5277C241.297 97.4199 240.979 97.324 240.631 97.2401C240.296 97.1563 239.954 97.0544 239.607 96.9346C239.259 96.8028 238.936 96.641 238.636 96.4493C238.349 96.2575 238.115 96.0119 237.935 95.7123C237.756 95.4127 237.666 95.0412 237.666 94.5979C237.666 93.819 237.965 93.1958 238.564 92.7285C239.164 92.2611 239.948 92.0275 240.919 92.0275C241.614 92.0275 242.249 92.1653 242.824 92.4409C243.4 92.7165 243.849 93.1299 244.172 93.6811L242.932 94.6338C242.693 94.2743 242.393 94.0047 242.033 93.8249C241.674 93.6452 241.285 93.5553 240.865 93.5553C240.482 93.5553 240.158 93.6332 239.895 93.789C239.643 93.9448 239.517 94.1485 239.517 94.4001C239.517 94.5919 239.577 94.7476 239.697 94.8675C239.817 94.9873 240.002 95.0952 240.254 95.191C240.506 95.2869 240.823 95.3828 241.207 95.4786C241.566 95.5625 241.938 95.6644 242.321 95.7842C242.705 95.904 243.058 96.0658 243.382 96.2695C243.717 96.4612 243.987 96.7249 244.19 97.0604C244.406 97.3839 244.514 97.8033 244.514 98.3186C244.514 98.8938 244.364 99.4031 244.065 99.8465C243.777 100.278 243.364 100.613 242.824 100.853C242.297 101.093 241.68 101.213 240.973 101.213ZM246.306 101.051V98.786H248.499V101.051H246.306ZM106.983 173.051L114.964 160.522H116.402L108.421 173.051H106.983ZM114.874 173.213C114.358 173.213 113.891 173.093 113.472 172.853C113.064 172.613 112.735 172.278 112.483 171.846C112.243 171.403 112.124 170.888 112.124 170.301C112.124 169.725 112.243 169.222 112.483 168.791C112.723 168.347 113.046 168.006 113.454 167.766C113.873 167.527 114.335 167.407 114.838 167.407C115.353 167.407 115.814 167.539 116.222 167.802C116.641 168.054 116.971 168.401 117.21 168.845C117.462 169.276 117.588 169.761 117.588 170.301C117.588 170.84 117.468 171.331 117.228 171.775C116.989 172.206 116.665 172.553 116.258 172.817C115.85 173.081 115.389 173.213 114.874 173.213ZM114.874 171.864C115.137 171.864 115.371 171.799 115.575 171.667C115.778 171.523 115.94 171.337 116.06 171.11C116.18 170.87 116.24 170.6 116.24 170.301C116.24 169.989 116.174 169.719 116.042 169.492C115.922 169.264 115.755 169.084 115.539 168.953C115.335 168.821 115.101 168.755 114.838 168.755C114.598 168.755 114.37 168.821 114.155 168.953C113.951 169.072 113.783 169.246 113.651 169.474C113.532 169.701 113.472 169.977 113.472 170.301C113.472 170.636 113.538 170.924 113.669 171.163C113.801 171.391 113.975 171.565 114.191 171.685C114.406 171.805 114.634 171.864 114.874 171.864ZM108.655 166.148C108.151 166.148 107.69 166.029 107.27 165.789C106.851 165.549 106.516 165.214 106.264 164.782C106.024 164.339 105.904 163.836 105.904 163.273C105.904 162.673 106.024 162.158 106.264 161.727C106.516 161.295 106.845 160.96 107.252 160.72C107.66 160.48 108.115 160.361 108.619 160.361C109.134 160.361 109.595 160.492 110.003 160.756C110.422 161.008 110.752 161.355 110.991 161.799C111.231 162.23 111.351 162.721 111.351 163.273C111.351 163.788 111.231 164.267 110.991 164.711C110.764 165.154 110.446 165.507 110.039 165.771C109.631 166.023 109.17 166.148 108.655 166.148ZM108.655 164.8C108.906 164.8 109.134 164.734 109.338 164.603C109.541 164.459 109.703 164.273 109.823 164.045C109.943 163.818 110.003 163.56 110.003 163.273C110.003 162.949 109.937 162.673 109.805 162.446C109.685 162.206 109.517 162.026 109.302 161.906C109.098 161.775 108.87 161.709 108.619 161.709C108.367 161.709 108.139 161.769 107.936 161.888C107.732 162.008 107.564 162.182 107.432 162.41C107.312 162.637 107.252 162.925 107.252 163.273C107.252 163.584 107.312 163.86 107.432 164.099C107.564 164.327 107.738 164.501 107.953 164.621C108.169 164.74 108.403 164.8 108.655 164.8ZM128.211 173.213C127.373 173.213 126.618 173.015 125.947 172.619C125.276 172.224 124.748 171.679 124.365 170.984C123.993 170.289 123.808 169.498 123.808 168.611C123.808 167.724 123.993 166.933 124.365 166.238C124.748 165.543 125.27 165.004 125.929 164.621C126.6 164.225 127.361 164.027 128.211 164.027C129.074 164.027 129.829 164.225 130.476 164.621C131.135 165.004 131.657 165.543 132.04 166.238C132.423 166.933 132.615 167.724 132.615 168.611C132.615 169.498 132.423 170.289 132.04 170.984C131.669 171.679 131.147 172.224 130.476 172.619C129.817 173.015 129.062 173.213 128.211 173.213ZM128.229 171.451C128.721 171.451 129.146 171.337 129.506 171.11C129.865 170.882 130.141 170.552 130.332 170.121C130.524 169.69 130.62 169.186 130.62 168.611C130.62 168.024 130.524 167.521 130.332 167.101C130.141 166.67 129.865 166.34 129.506 166.113C129.146 165.885 128.721 165.771 128.229 165.771C127.714 165.771 127.277 165.891 126.917 166.131C126.558 166.358 126.282 166.682 126.09 167.101C125.899 167.521 125.803 168.024 125.803 168.611C125.803 169.186 125.899 169.69 126.09 170.121C126.282 170.552 126.558 170.882 126.917 171.11C127.277 171.337 127.714 171.451 128.229 171.451ZM135.138 173.051V165.735H133.449V164.189H135.156V163.183C135.156 162.452 135.276 161.882 135.516 161.475C135.755 161.056 136.073 160.768 136.468 160.612C136.876 160.445 137.325 160.361 137.816 160.361C138.164 160.361 138.469 160.397 138.733 160.468C139.009 160.528 139.266 160.618 139.506 160.738L138.859 162.248C138.739 162.176 138.607 162.122 138.463 162.086C138.332 162.038 138.188 162.014 138.032 162.014C137.709 162.014 137.475 162.122 137.331 162.338C137.199 162.542 137.133 162.823 137.133 163.183V164.189H139.075V165.735H137.133V173.051H135.138ZM148.359 173.213C147.664 173.213 147.077 173.075 146.597 172.799C146.13 172.524 145.776 172.128 145.537 171.613C145.297 171.098 145.177 170.474 145.177 169.743V164.189H147.172V169.204C147.172 169.672 147.226 170.079 147.334 170.426C147.454 170.762 147.64 171.02 147.891 171.199C148.155 171.379 148.509 171.469 148.952 171.469C149.467 171.469 149.869 171.337 150.156 171.074C150.456 170.798 150.666 170.403 150.785 169.887C150.917 169.36 150.983 168.731 150.983 168V164.189H152.978V173.051H150.983V171.145L151.325 171.271C151.049 171.942 150.648 172.434 150.12 172.745C149.605 173.057 149.018 173.213 148.359 173.213ZM158.345 173.213C157.71 173.213 157.147 173.123 156.656 172.943C156.165 172.751 155.751 172.512 155.416 172.224C155.08 171.936 154.804 171.649 154.589 171.361L155.955 170.175C156.183 170.546 156.494 170.876 156.89 171.163C157.297 171.451 157.788 171.595 158.363 171.595C158.843 171.595 159.22 171.493 159.496 171.289C159.783 171.086 159.927 170.834 159.927 170.534C159.927 170.271 159.837 170.067 159.658 169.923C159.478 169.767 159.244 169.636 158.957 169.528C158.669 169.42 158.351 169.324 158.004 169.24C157.668 169.156 157.327 169.054 156.979 168.935C156.632 168.803 156.308 168.641 156.009 168.449C155.721 168.258 155.487 168.012 155.308 167.712C155.128 167.413 155.038 167.041 155.038 166.598C155.038 165.819 155.338 165.196 155.937 164.728C156.536 164.261 157.321 164.027 158.292 164.027C158.987 164.027 159.622 164.165 160.197 164.441C160.772 164.717 161.221 165.13 161.545 165.681L160.305 166.634C160.065 166.274 159.765 166.005 159.406 165.825C159.046 165.645 158.657 165.555 158.238 165.555C157.854 165.555 157.531 165.633 157.267 165.789C157.015 165.945 156.89 166.148 156.89 166.4C156.89 166.592 156.949 166.748 157.069 166.867C157.189 166.987 157.375 167.095 157.626 167.191C157.878 167.287 158.196 167.383 158.579 167.479C158.939 167.563 159.31 167.664 159.694 167.784C160.077 167.904 160.431 168.066 160.754 168.27C161.09 168.461 161.359 168.725 161.563 169.06C161.779 169.384 161.886 169.803 161.886 170.319C161.886 170.894 161.737 171.403 161.437 171.846C161.15 172.278 160.736 172.613 160.197 172.853C159.67 173.093 159.052 173.213 158.345 173.213ZM167.669 173.213C166.926 173.213 166.279 173.093 165.728 172.853C165.188 172.613 164.745 172.278 164.398 171.846C164.05 171.415 163.792 170.93 163.625 170.391C163.457 169.839 163.373 169.27 163.373 168.683C163.373 168.096 163.451 167.527 163.607 166.975C163.774 166.412 164.026 165.909 164.362 165.465C164.697 165.022 165.129 164.675 165.656 164.423C166.183 164.159 166.806 164.027 167.525 164.027C168.208 164.027 168.801 164.147 169.305 164.387C169.82 164.615 170.245 164.938 170.581 165.358C170.916 165.765 171.162 166.232 171.318 166.76C171.486 167.287 171.57 167.85 171.57 168.449C171.57 168.533 171.564 168.653 171.552 168.809C171.552 168.965 171.54 169.12 171.516 169.276H165.368C165.416 169.983 165.656 170.522 166.087 170.894C166.519 171.265 167.07 171.451 167.741 171.451C168.232 171.451 168.682 171.373 169.089 171.217C169.496 171.062 169.868 170.816 170.203 170.48L171.3 171.811C170.928 172.146 170.557 172.416 170.185 172.619C169.814 172.823 169.425 172.973 169.017 173.069C168.622 173.165 168.172 173.213 167.669 173.213ZM169.61 168.27C169.634 168.174 169.646 168.078 169.646 167.982C169.658 167.886 169.664 167.79 169.664 167.694C169.664 167.431 169.616 167.179 169.52 166.939C169.437 166.7 169.305 166.49 169.125 166.31C168.945 166.119 168.724 165.969 168.46 165.861C168.196 165.741 167.897 165.681 167.561 165.681C167.094 165.681 166.698 165.783 166.375 165.987C166.063 166.19 165.818 166.454 165.638 166.778C165.47 167.089 165.368 167.431 165.332 167.802H170.257L169.61 168.27ZM173.511 173.051V164.189H175.524V166.58L175.147 166.634C175.207 166.119 175.38 165.669 175.668 165.286C175.956 164.89 176.303 164.585 176.711 164.369C177.13 164.141 177.543 164.027 177.951 164.027C178.238 164.027 178.514 164.063 178.778 164.135C179.041 164.207 179.317 164.327 179.604 164.495L178.634 166.292C178.502 166.208 178.328 166.142 178.113 166.095C177.909 166.035 177.711 166.005 177.519 166.005C177.268 166.005 177.016 166.053 176.764 166.148C176.525 166.244 176.309 166.394 176.117 166.598C175.926 166.79 175.782 167.041 175.686 167.353C175.626 167.521 175.578 167.742 175.542 168.018C175.518 168.281 175.506 168.653 175.506 169.132V173.051H173.511ZM183.815 173.213C183.18 173.213 182.617 173.123 182.126 172.943C181.635 172.751 181.221 172.512 180.886 172.224C180.55 171.936 180.274 171.649 180.059 171.361L181.425 170.175C181.653 170.546 181.964 170.876 182.36 171.163C182.767 171.451 183.258 171.595 183.833 171.595C184.313 171.595 184.69 171.493 184.966 171.289C185.253 171.086 185.397 170.834 185.397 170.534C185.397 170.271 185.307 170.067 185.128 169.923C184.948 169.767 184.714 169.636 184.427 169.528C184.139 169.42 183.821 169.324 183.474 169.24C183.138 169.156 182.797 169.054 182.449 168.935C182.102 168.803 181.778 168.641 181.479 168.449C181.191 168.258 180.958 168.012 180.778 167.712C180.598 167.413 180.508 167.041 180.508 166.598C180.508 165.819 180.808 165.196 181.407 164.728C182.006 164.261 182.791 164.027 183.762 164.027C184.457 164.027 185.092 164.165 185.667 164.441C186.242 164.717 186.691 165.13 187.015 165.681L185.775 166.634C185.535 166.274 185.235 166.005 184.876 165.825C184.517 165.645 184.127 165.555 183.708 165.555C183.324 165.555 183.001 165.633 182.737 165.789C182.485 165.945 182.36 166.148 182.36 166.4C182.36 166.592 182.419 166.748 182.539 166.867C182.659 166.987 182.845 167.095 183.097 167.191C183.348 167.287 183.666 167.383 184.049 167.479C184.409 167.563 184.78 167.664 185.164 167.784C185.547 167.904 185.901 168.066 186.224 168.27C186.56 168.461 186.829 168.725 187.033 169.06C187.249 169.384 187.357 169.803 187.357 170.319C187.357 170.894 187.207 171.403 186.907 171.846C186.62 172.278 186.206 172.613 185.667 172.853C185.14 173.093 184.522 173.213 183.815 173.213ZM193.926 173.051V160.522H195.921V166.148L195.561 166.238C195.717 165.723 195.945 165.304 196.244 164.98C196.556 164.657 196.91 164.417 197.305 164.261C197.7 164.105 198.12 164.027 198.563 164.027C199.558 164.027 200.331 164.315 200.882 164.89C201.445 165.453 201.727 166.262 201.727 167.317V173.051H199.732V168.054C199.732 167.263 199.588 166.682 199.3 166.31C199.013 165.939 198.569 165.753 197.97 165.753C197.299 165.753 196.79 165.993 196.442 166.472C196.095 166.951 195.921 167.706 195.921 168.737V173.051H193.926ZM209.682 173.051L209.538 171.559V167.461C209.538 166.885 209.365 166.454 209.017 166.166C208.67 165.867 208.184 165.717 207.561 165.717C207.082 165.717 206.609 165.813 206.141 166.005C205.686 166.184 205.266 166.466 204.883 166.85L203.769 165.537C204.344 164.998 204.955 164.615 205.602 164.387C206.249 164.147 206.956 164.027 207.723 164.027C208.921 164.027 209.85 164.333 210.509 164.944C211.18 165.543 211.516 166.382 211.516 167.461V173.051H209.682ZM206.932 173.213C206.273 173.213 205.686 173.093 205.171 172.853C204.667 172.613 204.272 172.278 203.984 171.846C203.709 171.415 203.571 170.912 203.571 170.337C203.571 169.845 203.673 169.42 203.876 169.06C204.092 168.701 204.368 168.419 204.703 168.216C204.991 168.036 205.326 167.91 205.71 167.838C206.093 167.754 206.495 167.712 206.914 167.712H209.7V169.204H207.202C206.986 169.204 206.77 169.228 206.555 169.276C206.339 169.312 206.147 169.384 205.979 169.492C205.86 169.588 205.758 169.707 205.674 169.851C205.602 169.995 205.566 170.163 205.566 170.355C205.566 170.738 205.71 171.044 205.997 171.271C206.297 171.487 206.692 171.595 207.184 171.595C207.615 171.595 208.005 171.499 208.352 171.307C208.712 171.116 208.999 170.852 209.215 170.516C209.431 170.181 209.538 169.803 209.538 169.384L210.15 170.373C210.006 170.996 209.778 171.523 209.467 171.954C209.155 172.374 208.783 172.691 208.352 172.907C207.921 173.111 207.447 173.213 206.932 173.213ZM217.195 173.213C216.404 173.213 215.715 173.015 215.128 172.619C214.552 172.212 214.109 171.661 213.797 170.966C213.486 170.271 213.33 169.486 213.33 168.611C213.33 167.652 213.498 166.832 213.833 166.148C214.181 165.465 214.648 164.944 215.235 164.585C215.823 164.213 216.476 164.027 217.195 164.027C217.698 164.027 218.159 164.129 218.579 164.333C219.01 164.537 219.37 164.836 219.657 165.232C219.957 165.615 220.167 166.089 220.286 166.652L219.819 166.67V160.522H221.814V173.051H219.819V170.588L220.358 170.462C220.202 171.11 219.963 171.637 219.639 172.044C219.328 172.44 218.962 172.733 218.543 172.925C218.123 173.117 217.674 173.213 217.195 173.213ZM217.68 171.379C218.147 171.379 218.555 171.265 218.902 171.038C219.25 170.81 219.519 170.486 219.711 170.067C219.903 169.648 219.999 169.162 219.999 168.611C219.999 168.06 219.903 167.58 219.711 167.173C219.519 166.754 219.25 166.43 218.902 166.202C218.555 165.963 218.147 165.843 217.68 165.843C217.213 165.843 216.799 165.957 216.44 166.184C216.092 166.412 215.817 166.736 215.613 167.155C215.421 167.574 215.325 168.06 215.325 168.611C215.325 169.162 215.421 169.648 215.613 170.067C215.817 170.486 216.092 170.81 216.44 171.038C216.799 171.265 217.213 171.379 217.68 171.379ZM233.441 173.213C232.962 173.213 232.507 173.117 232.075 172.925C231.656 172.733 231.29 172.44 230.979 172.044C230.667 171.637 230.434 171.11 230.278 170.462L230.799 170.588V173.051H228.822V160.522H230.799V166.67H230.35C230.47 166.107 230.673 165.633 230.961 165.25C231.261 164.854 231.62 164.555 232.039 164.351C232.471 164.135 232.938 164.027 233.441 164.027C234.16 164.027 234.808 164.213 235.383 164.585C235.97 164.944 236.437 165.465 236.785 166.148C237.132 166.832 237.306 167.652 237.306 168.611C237.306 169.486 237.144 170.271 236.821 170.966C236.509 171.661 236.066 172.212 235.491 172.619C234.915 173.015 234.232 173.213 233.441 173.213ZM232.956 171.379C233.423 171.379 233.831 171.265 234.178 171.038C234.538 170.81 234.814 170.486 235.005 170.067C235.197 169.648 235.293 169.162 235.293 168.611C235.293 168.06 235.197 167.574 235.005 167.155C234.814 166.736 234.538 166.412 234.178 166.184C233.831 165.957 233.423 165.843 232.956 165.843C232.489 165.843 232.075 165.963 231.716 166.202C231.368 166.43 231.099 166.754 230.907 167.173C230.715 167.58 230.619 168.06 230.619 168.611C230.619 169.162 230.715 169.648 230.907 170.067C231.099 170.486 231.368 170.81 231.716 171.038C232.075 171.265 232.489 171.379 232.956 171.379ZM244.947 173.051L244.803 171.559V167.461C244.803 166.885 244.63 166.454 244.282 166.166C243.934 165.867 243.449 165.717 242.826 165.717C242.347 165.717 241.873 165.813 241.406 166.005C240.951 166.184 240.531 166.466 240.148 166.85L239.033 165.537C239.609 164.998 240.22 164.615 240.867 164.387C241.514 164.147 242.221 164.027 242.988 164.027C244.186 164.027 245.115 164.333 245.774 164.944C246.445 165.543 246.78 166.382 246.78 167.461V173.051H244.947ZM242.197 173.213C241.538 173.213 240.951 173.093 240.435 172.853C239.932 172.613 239.537 172.278 239.249 171.846C238.973 171.415 238.836 170.912 238.836 170.337C238.836 169.845 238.938 169.42 239.141 169.06C239.357 168.701 239.633 168.419 239.968 168.216C240.256 168.036 240.591 167.91 240.975 167.838C241.358 167.754 241.76 167.712 242.179 167.712H244.965V169.204H242.467C242.251 169.204 242.035 169.228 241.819 169.276C241.604 169.312 241.412 169.384 241.244 169.492C241.124 169.588 241.023 169.707 240.939 169.851C240.867 169.995 240.831 170.163 240.831 170.355C240.831 170.738 240.975 171.044 241.262 171.271C241.562 171.487 241.957 171.595 242.449 171.595C242.88 171.595 243.269 171.499 243.617 171.307C243.976 171.116 244.264 170.852 244.48 170.516C244.695 170.181 244.803 169.803 244.803 169.384L245.414 170.373C245.271 170.996 245.043 171.523 244.731 171.954C244.42 172.374 244.048 172.691 243.617 172.907C243.186 173.111 242.712 173.213 242.197 173.213ZM252.46 173.213C251.669 173.213 250.98 173.015 250.392 172.619C249.817 172.212 249.374 171.661 249.062 170.966C248.751 170.271 248.595 169.486 248.595 168.611C248.595 167.652 248.763 166.832 249.098 166.148C249.446 165.465 249.913 164.944 250.5 164.585C251.087 164.213 251.741 164.027 252.46 164.027C252.963 164.027 253.424 164.129 253.844 164.333C254.275 164.537 254.634 164.836 254.922 165.232C255.222 165.615 255.431 166.089 255.551 166.652L255.084 166.67V160.522H257.079V173.051H255.084V170.588L255.623 170.462C255.467 171.11 255.228 171.637 254.904 172.044C254.593 172.44 254.227 172.733 253.808 172.925C253.388 173.117 252.939 173.213 252.46 173.213ZM252.945 171.379C253.412 171.379 253.82 171.265 254.167 171.038C254.515 170.81 254.784 170.486 254.976 170.067C255.168 169.648 255.264 169.162 255.264 168.611C255.264 168.06 255.168 167.58 254.976 167.173C254.784 166.754 254.515 166.43 254.167 166.202C253.82 165.963 253.412 165.843 252.945 165.843C252.478 165.843 252.064 165.957 251.705 166.184C251.357 166.412 251.081 166.736 250.878 167.155C250.686 167.574 250.59 168.06 250.59 168.611C250.59 169.162 250.686 169.648 250.878 170.067C251.081 170.486 251.357 170.81 251.705 171.038C252.064 171.265 252.478 171.379 252.945 171.379ZM40.693 209.213C40.2496 209.213 39.8302 209.129 39.4347 208.961C39.0513 208.781 38.7457 208.5 38.518 208.116C38.2903 207.721 38.1765 207.205 38.1765 206.57V198.032L40.1897 196.918V206.013C40.1897 206.516 40.2616 206.906 40.4054 207.181C40.5611 207.445 40.8368 207.577 41.2322 207.577C41.352 207.577 41.4898 207.565 41.6456 207.541C41.8134 207.505 41.9871 207.463 42.1669 207.415V208.961C41.9272 209.045 41.6816 209.105 41.4299 209.141C41.1903 209.189 40.9446 209.213 40.693 209.213ZM36.4869 201.735V200.189H42.1669V201.735H36.4869ZM43.9527 209.051V200.189H45.9659V202.58L45.5884 202.634C45.6483 202.119 45.8221 201.669 46.1097 201.286C46.3973 200.89 46.7448 200.585 47.1522 200.369C47.5716 200.141 47.985 200.027 48.3925 200.027C48.6801 200.027 48.9557 200.063 49.2193 200.135C49.4829 200.207 49.7585 200.327 50.0461 200.495L49.0755 202.292C48.9437 202.208 48.7699 202.142 48.5542 202.095C48.3505 202.035 48.1528 202.005 47.9611 202.005C47.7094 202.005 47.4578 202.053 47.2061 202.148C46.9665 202.244 46.7508 202.394 46.559 202.598C46.3673 202.79 46.2235 203.041 46.1276 203.353C46.0677 203.521 46.0198 203.742 45.9838 204.018C45.9599 204.281 45.9479 204.653 45.9479 205.132V209.051H43.9527ZM57.0235 209.051L56.8798 207.559V203.461C56.8798 202.885 56.706 202.454 56.3585 202.166C56.011 201.867 55.5257 201.717 54.9025 201.717C54.4232 201.717 53.9499 201.813 53.4825 202.005C53.0272 202.184 52.6078 202.466 52.2243 202.85L51.1099 201.537C51.6851 200.998 52.2962 200.615 52.9433 200.387C53.5904 200.147 54.2974 200.027 55.0643 200.027C56.2626 200.027 57.1913 200.333 57.8504 200.944C58.5214 201.543 58.857 202.382 58.857 203.461V209.051H57.0235ZM54.2734 209.213C53.6143 209.213 53.0272 209.093 52.5119 208.853C52.0086 208.613 51.6132 208.278 51.3256 207.846C51.05 207.415 50.9121 206.912 50.9121 206.337C50.9121 205.845 51.014 205.42 51.2177 205.06C51.4334 204.701 51.709 204.419 52.0446 204.216C52.3321 204.036 52.6677 203.91 53.0511 203.838C53.4346 203.754 53.836 203.712 54.2554 203.712H57.0415V205.204H54.543C54.3273 205.204 54.1116 205.228 53.8959 205.276C53.6803 205.312 53.4885 205.384 53.3208 205.492C53.2009 205.588 53.0991 205.707 53.0152 205.851C52.9433 205.995 52.9073 206.163 52.9073 206.355C52.9073 206.738 53.0511 207.044 53.3387 207.271C53.6383 207.487 54.0338 207.595 54.5251 207.595C54.9565 207.595 55.3459 207.499 55.6934 207.307C56.0529 207.116 56.3405 206.852 56.5562 206.516C56.7719 206.181 56.8798 205.803 56.8798 205.384L57.4909 206.373C57.3471 206.996 57.1194 207.523 56.8079 207.954C56.4963 208.374 56.1248 208.691 55.6934 208.907C55.262 209.111 54.7887 209.213 54.2734 209.213ZM63.6072 209.051L59.9943 200.189H62.1872L64.434 206.462L66.7168 200.189H68.8738L65.2609 209.051H63.6072ZM73.9723 209.213C73.2293 209.213 72.5823 209.093 72.031 208.853C71.4918 208.613 71.0484 208.278 70.7009 207.846C70.3534 207.415 70.0958 206.93 69.928 206.391C69.7602 205.839 69.6763 205.27 69.6763 204.683C69.6763 204.096 69.7542 203.527 69.91 202.975C70.0778 202.412 70.3294 201.909 70.665 201.465C71.0005 201.022 71.4319 200.675 71.9591 200.423C72.4864 200.159 73.1095 200.027 73.8285 200.027C74.5115 200.027 75.1047 200.147 75.608 200.387C76.1233 200.615 76.5487 200.938 76.8842 201.358C77.2197 201.765 77.4654 202.232 77.6212 202.76C77.7889 203.287 77.8728 203.85 77.8728 204.449C77.8728 204.533 77.8668 204.653 77.8548 204.809C77.8548 204.965 77.8429 205.12 77.8189 205.276H71.6715C71.7195 205.983 71.9591 206.522 72.3905 206.894C72.8219 207.265 73.3731 207.451 74.0442 207.451C74.5355 207.451 74.9849 207.373 75.3923 207.217C75.7997 207.062 76.1712 206.816 76.5067 206.48L77.6032 207.811C77.2317 208.146 76.8602 208.416 76.4888 208.619C76.1173 208.823 75.7278 208.973 75.3204 209.069C74.925 209.165 74.4756 209.213 73.9723 209.213ZM75.9136 204.27C75.9375 204.174 75.9495 204.078 75.9495 203.982C75.9615 203.886 75.9675 203.79 75.9675 203.694C75.9675 203.431 75.9196 203.179 75.8237 202.939C75.7398 202.7 75.608 202.49 75.4283 202.31C75.2485 202.119 75.0268 201.969 74.7632 201.861C74.4996 201.741 74.2 201.681 73.8645 201.681C73.3971 201.681 73.0017 201.783 72.6781 201.987C72.3666 202.19 72.1209 202.454 71.9412 202.778C71.7734 203.089 71.6715 203.431 71.6356 203.802H76.5607L75.9136 204.27ZM81.7736 209.213C81.1984 209.213 80.7191 209.039 80.3356 208.691C79.9522 208.332 79.7604 207.763 79.7604 206.984V196.522H81.7556V206.588C81.7556 206.864 81.8155 207.068 81.9354 207.199C82.0672 207.319 82.235 207.379 82.4387 207.379C82.5465 207.379 82.6544 207.367 82.7622 207.343C82.882 207.319 83.0019 207.289 83.1217 207.253V208.943C82.894 209.039 82.6604 209.105 82.4207 209.141C82.181 209.189 81.9653 209.213 81.7736 209.213ZM93.2811 209.213C92.5381 209.213 91.891 209.093 91.3398 208.853C90.8006 208.613 90.3572 208.278 90.0097 207.846C89.6622 207.415 89.4045 206.93 89.2368 206.391C89.069 205.839 88.9851 205.27 88.9851 204.683C88.9851 204.096 89.063 203.527 89.2188 202.975C89.3866 202.412 89.6382 201.909 89.9737 201.465C90.3093 201.022 90.7406 200.675 91.2679 200.423C91.7952 200.159 92.4183 200.027 93.1373 200.027C93.8203 200.027 94.4135 200.147 94.9168 200.387C95.432 200.615 95.8574 200.938 96.193 201.358C96.5285 201.765 96.7742 202.232 96.9299 202.76C97.0977 203.287 97.1816 203.85 97.1816 204.449C97.1816 204.533 97.1756 204.653 97.1636 204.809C97.1636 204.965 97.1516 205.12 97.1277 205.276H90.9803C91.0282 205.983 91.2679 206.522 91.6993 206.894C92.1307 207.265 92.6819 207.451 93.353 207.451C93.8443 207.451 94.2936 207.373 94.7011 207.217C95.1085 207.062 95.48 206.816 95.8155 206.48L96.912 207.811C96.5405 208.146 96.169 208.416 95.7975 208.619C95.4261 208.823 95.0366 208.973 94.6292 209.069C94.2337 209.165 93.7844 209.213 93.2811 209.213ZM95.2223 204.27C95.2463 204.174 95.2583 204.078 95.2583 203.982C95.2703 203.886 95.2763 203.79 95.2763 203.694C95.2763 203.431 95.2283 203.179 95.1325 202.939C95.0486 202.7 94.9168 202.49 94.737 202.31C94.5573 202.119 94.3356 201.969 94.072 201.861C93.8083 201.741 93.5088 201.681 93.1732 201.681C92.7059 201.681 92.3104 201.783 91.9869 201.987C91.6753 202.19 91.4297 202.454 91.2499 202.778C91.0822 203.089 90.9803 203.431 90.9444 203.802H95.8694L95.2223 204.27ZM98.1571 209.051L101.231 204.593L98.1571 200.189H100.548L102.561 203.263L104.61 200.189H106.965L103.873 204.593L106.965 209.051H104.574L102.561 205.923L100.512 209.051H98.1571ZM108.532 212.718V200.189H110.509V202.652L110.006 202.67C110.161 202.023 110.389 201.507 110.689 201.124C111 200.74 111.366 200.465 111.785 200.297C112.217 200.117 112.672 200.027 113.151 200.027C113.942 200.027 114.625 200.231 115.2 200.639C115.776 201.034 116.219 201.579 116.531 202.274C116.854 202.969 117.016 203.754 117.016 204.629C117.016 205.576 116.842 206.397 116.495 207.092C116.147 207.775 115.68 208.302 115.093 208.673C114.517 209.033 113.87 209.213 113.151 209.213C112.648 209.213 112.181 209.117 111.749 208.925C111.33 208.733 110.97 208.446 110.671 208.062C110.383 207.679 110.179 207.211 110.06 206.66L110.509 206.57V212.718H108.532ZM112.666 207.397C113.133 207.397 113.541 207.283 113.888 207.056C114.248 206.828 114.523 206.504 114.715 206.085C114.907 205.666 115.003 205.18 115.003 204.629C115.003 204.078 114.907 203.592 114.715 203.173C114.523 202.754 114.248 202.43 113.888 202.202C113.541 201.975 113.133 201.861 112.666 201.861C112.199 201.861 111.785 201.975 111.426 202.202C111.078 202.43 110.809 202.754 110.617 203.173C110.425 203.592 110.329 204.078 110.329 204.629C110.329 205.18 110.425 205.666 110.617 206.085C110.809 206.492 111.078 206.816 111.426 207.056C111.785 207.283 112.199 207.397 112.666 207.397ZM122.824 209.213C122.081 209.213 121.433 209.093 120.882 208.853C120.343 208.613 119.9 208.278 119.552 207.846C119.205 207.415 118.947 206.93 118.779 206.391C118.611 205.839 118.528 205.27 118.528 204.683C118.528 204.096 118.605 203.527 118.761 202.975C118.929 202.412 119.181 201.909 119.516 201.465C119.852 201.022 120.283 200.675 120.81 200.423C121.338 200.159 121.961 200.027 122.68 200.027C123.363 200.027 123.956 200.147 124.459 200.387C124.974 200.615 125.4 200.938 125.735 201.358C126.071 201.765 126.317 202.232 126.472 202.76C126.64 203.287 126.724 203.85 126.724 204.449C126.724 204.533 126.718 204.653 126.706 204.809C126.706 204.965 126.694 205.12 126.67 205.276H120.523C120.571 205.983 120.81 206.522 121.242 206.894C121.673 207.265 122.224 207.451 122.895 207.451C123.387 207.451 123.836 207.373 124.244 207.217C124.651 207.062 125.022 206.816 125.358 206.48L126.454 207.811C126.083 208.146 125.711 208.416 125.34 208.619C124.968 208.823 124.579 208.973 124.172 209.069C123.776 209.165 123.327 209.213 122.824 209.213ZM124.765 204.27C124.789 204.174 124.801 204.078 124.801 203.982C124.813 203.886 124.819 203.79 124.819 203.694C124.819 203.431 124.771 203.179 124.675 202.939C124.591 202.7 124.459 202.49 124.279 202.31C124.1 202.119 123.878 201.969 123.614 201.861C123.351 201.741 123.051 201.681 122.716 201.681C122.248 201.681 121.853 201.783 121.529 201.987C121.218 202.19 120.972 202.454 120.792 202.778C120.625 203.089 120.523 203.431 120.487 203.802H125.412L124.765 204.27ZM128.666 209.051V200.189H130.679V202.58L130.301 202.634C130.361 202.119 130.535 201.669 130.823 201.286C131.11 200.89 131.458 200.585 131.865 200.369C132.284 200.141 132.698 200.027 133.105 200.027C133.393 200.027 133.669 200.063 133.932 200.135C134.196 200.207 134.471 200.327 134.759 200.495L133.788 202.292C133.657 202.208 133.483 202.142 133.267 202.095C133.063 202.035 132.866 202.005 132.674 202.005C132.422 202.005 132.171 202.053 131.919 202.148C131.679 202.244 131.464 202.394 131.272 202.598C131.08 202.79 130.936 203.041 130.841 203.353C130.781 203.521 130.733 203.742 130.697 204.018C130.673 204.281 130.661 204.653 130.661 205.132V209.051H128.666ZM136.196 209.051V200.189H138.191V209.051H136.196ZM136.106 198.733V196.522H138.281V198.733H136.106ZM144.397 209.213C143.654 209.213 143.007 209.093 142.455 208.853C141.916 208.613 141.473 208.278 141.125 207.846C140.778 207.415 140.52 206.93 140.352 206.391C140.185 205.839 140.101 205.27 140.101 204.683C140.101 204.096 140.179 203.527 140.334 202.975C140.502 202.412 140.754 201.909 141.089 201.465C141.425 201.022 141.856 200.675 142.383 200.423C142.911 200.159 143.534 200.027 144.253 200.027C144.936 200.027 145.529 200.147 146.032 200.387C146.548 200.615 146.973 200.938 147.309 201.358C147.644 201.765 147.89 202.232 148.046 202.76C148.213 203.287 148.297 203.85 148.297 204.449C148.297 204.533 148.291 204.653 148.279 204.809C148.279 204.965 148.267 205.12 148.243 205.276H142.096C142.144 205.983 142.383 206.522 142.815 206.894C143.246 207.265 143.798 207.451 144.469 207.451C144.96 207.451 145.409 207.373 145.817 207.217C146.224 207.062 146.596 206.816 146.931 206.48L148.028 207.811C147.656 208.146 147.285 208.416 146.913 208.619C146.542 208.823 146.152 208.973 145.745 209.069C145.349 209.165 144.9 209.213 144.397 209.213ZM146.338 204.27C146.362 204.174 146.374 204.078 146.374 203.982C146.386 203.886 146.392 203.79 146.392 203.694C146.392 203.431 146.344 203.179 146.248 202.939C146.164 202.7 146.032 202.49 145.853 202.31C145.673 202.119 145.451 201.969 145.188 201.861C144.924 201.741 144.624 201.681 144.289 201.681C143.821 201.681 143.426 201.783 143.102 201.987C142.791 202.19 142.545 202.454 142.366 202.778C142.198 203.089 142.096 203.431 142.06 203.802H146.985L146.338 204.27ZM150.239 209.051V200.189H152.234V202.148L151.874 202.238C152.03 201.723 152.258 201.304 152.557 200.98C152.857 200.657 153.205 200.417 153.6 200.261C154.007 200.105 154.433 200.027 154.876 200.027C155.871 200.027 156.644 200.315 157.195 200.89C157.758 201.453 158.04 202.262 158.04 203.317V209.051H156.045V204.054C156.045 203.263 155.901 202.682 155.613 202.31C155.326 201.939 154.882 201.753 154.283 201.753C153.84 201.753 153.462 201.861 153.151 202.077C152.851 202.28 152.623 202.604 152.468 203.047C152.312 203.491 152.234 204.054 152.234 204.737V209.051H150.239ZM164.108 209.213C163.413 209.213 162.796 209.093 162.257 208.853C161.729 208.601 161.286 208.26 160.926 207.829C160.579 207.385 160.315 206.888 160.135 206.337C159.956 205.785 159.866 205.21 159.866 204.611C159.866 204.012 159.956 203.437 160.135 202.885C160.315 202.334 160.579 201.843 160.926 201.412C161.286 200.98 161.729 200.645 162.257 200.405C162.796 200.153 163.413 200.027 164.108 200.027C164.983 200.027 165.744 200.237 166.391 200.657C167.05 201.076 167.535 201.723 167.847 202.598L166.085 203.281C165.941 202.826 165.708 202.46 165.384 202.184C165.061 201.897 164.635 201.753 164.108 201.753C163.581 201.753 163.149 201.891 162.814 202.166C162.49 202.442 162.251 202.796 162.095 203.227C161.939 203.658 161.861 204.12 161.861 204.611C161.861 205.102 161.939 205.57 162.095 206.013C162.251 206.444 162.49 206.798 162.814 207.074C163.149 207.337 163.581 207.469 164.108 207.469C164.635 207.469 165.061 207.331 165.384 207.056C165.708 206.78 165.941 206.414 166.085 205.959L167.847 206.642C167.535 207.505 167.05 208.152 166.391 208.583C165.744 209.003 164.983 209.213 164.108 209.213ZM173.535 209.213C172.792 209.213 172.145 209.093 171.594 208.853C171.055 208.613 170.611 208.278 170.264 207.846C169.916 207.415 169.659 206.93 169.491 206.391C169.323 205.839 169.239 205.27 169.239 204.683C169.239 204.096 169.317 203.527 169.473 202.975C169.641 202.412 169.892 201.909 170.228 201.465C170.564 201.022 170.995 200.675 171.522 200.423C172.049 200.159 172.673 200.027 173.392 200.027C174.075 200.027 174.668 200.147 175.171 200.387C175.686 200.615 176.112 200.938 176.447 201.358C176.783 201.765 177.028 202.232 177.184 202.76C177.352 203.287 177.436 203.85 177.436 204.449C177.436 204.533 177.43 204.653 177.418 204.809C177.418 204.965 177.406 205.12 177.382 205.276H171.235C171.283 205.983 171.522 206.522 171.954 206.894C172.385 207.265 172.936 207.451 173.607 207.451C174.099 207.451 174.548 207.373 174.955 207.217C175.363 207.062 175.734 206.816 176.07 206.48L177.166 207.811C176.795 208.146 176.423 208.416 176.052 208.619C175.68 208.823 175.291 208.973 174.883 209.069C174.488 209.165 174.039 209.213 173.535 209.213ZM175.477 204.27C175.501 204.174 175.513 204.078 175.513 203.982C175.525 203.886 175.531 203.79 175.531 203.694C175.531 203.431 175.483 203.179 175.387 202.939C175.303 202.7 175.171 202.49 174.991 202.31C174.812 202.119 174.59 201.969 174.326 201.861C174.063 201.741 173.763 201.681 173.428 201.681C172.96 201.681 172.565 201.783 172.241 201.987C171.93 202.19 171.684 202.454 171.504 202.778C171.336 203.089 171.235 203.431 171.199 203.802H176.124L175.477 204.27ZM182.397 209.213C181.762 209.213 181.199 209.123 180.708 208.943C180.216 208.751 179.803 208.512 179.467 208.224C179.132 207.936 178.856 207.649 178.64 207.361L180.007 206.175C180.234 206.546 180.546 206.876 180.941 207.163C181.349 207.451 181.84 207.595 182.415 207.595C182.894 207.595 183.272 207.493 183.548 207.289C183.835 207.086 183.979 206.834 183.979 206.534C183.979 206.271 183.889 206.067 183.709 205.923C183.53 205.767 183.296 205.636 183.008 205.528C182.721 205.42 182.403 205.324 182.056 205.24C181.72 205.156 181.379 205.054 181.031 204.935C180.684 204.803 180.36 204.641 180.06 204.449C179.773 204.258 179.539 204.012 179.359 203.712C179.18 203.413 179.09 203.041 179.09 202.598C179.09 201.819 179.389 201.196 179.989 200.728C180.588 200.261 181.373 200.027 182.343 200.027C183.038 200.027 183.673 200.165 184.249 200.441C184.824 200.717 185.273 201.13 185.597 201.681L184.356 202.634C184.117 202.274 183.817 202.005 183.458 201.825C183.098 201.645 182.709 201.555 182.289 201.555C181.906 201.555 181.582 201.633 181.319 201.789C181.067 201.945 180.941 202.148 180.941 202.4C180.941 202.592 181.001 202.748 181.121 202.867C181.241 202.987 181.427 203.095 181.678 203.191C181.93 203.287 182.247 203.383 182.631 203.479C182.99 203.563 183.362 203.664 183.745 203.784C184.129 203.904 184.482 204.066 184.806 204.27C185.141 204.461 185.411 204.725 185.615 205.06C185.83 205.384 185.938 205.803 185.938 206.319C185.938 206.894 185.788 207.403 185.489 207.846C185.201 208.278 184.788 208.613 184.249 208.853C183.721 209.093 183.104 209.213 182.397 209.213ZM195.959 209.213C195.168 209.213 194.479 209.015 193.891 208.619C193.316 208.212 192.873 207.661 192.561 206.966C192.25 206.271 192.094 205.486 192.094 204.611C192.094 203.652 192.262 202.832 192.597 202.148C192.945 201.465 193.412 200.944 193.999 200.585C194.586 200.213 195.24 200.027 195.959 200.027C196.462 200.027 196.923 200.129 197.343 200.333C197.774 200.537 198.133 200.836 198.421 201.232C198.721 201.615 198.93 202.089 199.05 202.652L198.583 202.67V196.522H200.578V209.051H198.583V206.588L199.122 206.462C198.966 207.11 198.727 207.637 198.403 208.044C198.092 208.44 197.726 208.733 197.307 208.925C196.887 209.117 196.438 209.213 195.959 209.213ZM196.444 207.379C196.911 207.379 197.319 207.265 197.666 207.038C198.014 206.81 198.283 206.486 198.475 206.067C198.667 205.648 198.763 205.162 198.763 204.611C198.763 204.06 198.667 203.58 198.475 203.173C198.283 202.754 198.014 202.43 197.666 202.202C197.319 201.963 196.911 201.843 196.444 201.843C195.977 201.843 195.563 201.957 195.204 202.184C194.856 202.412 194.58 202.736 194.377 203.155C194.185 203.574 194.089 204.06 194.089 204.611C194.089 205.162 194.185 205.648 194.377 206.067C194.58 206.486 194.856 206.81 195.204 207.038C195.563 207.265 195.977 207.379 196.444 207.379ZM205.99 209.213C205.295 209.213 204.708 209.075 204.229 208.799C203.761 208.524 203.408 208.128 203.168 207.613C202.929 207.098 202.809 206.474 202.809 205.743V200.189H204.804V205.204C204.804 205.672 204.858 206.079 204.966 206.426C205.086 206.762 205.271 207.02 205.523 207.199C205.787 207.379 206.14 207.469 206.583 207.469C207.099 207.469 207.5 207.337 207.788 207.074C208.087 206.798 208.297 206.403 208.417 205.887C208.549 205.36 208.615 204.731 208.615 204V200.189H210.61V209.051H208.615V207.145L208.956 207.271C208.68 207.942 208.279 208.434 207.752 208.745C207.237 209.057 206.649 209.213 205.99 209.213ZM216.84 209.213C216.097 209.213 215.45 209.093 214.898 208.853C214.359 208.613 213.916 208.278 213.568 207.846C213.221 207.415 212.963 206.93 212.795 206.391C212.628 205.839 212.544 205.27 212.544 204.683C212.544 204.096 212.622 203.527 212.777 202.975C212.945 202.412 213.197 201.909 213.532 201.465C213.868 201.022 214.299 200.675 214.827 200.423C215.354 200.159 215.977 200.027 216.696 200.027C217.379 200.027 217.972 200.147 218.475 200.387C218.991 200.615 219.416 200.938 219.752 201.358C220.087 201.765 220.333 202.232 220.489 202.76C220.656 203.287 220.74 203.85 220.74 204.449C220.74 204.533 220.734 204.653 220.722 204.809C220.722 204.965 220.71 205.12 220.686 205.276H214.539C214.587 205.983 214.827 206.522 215.258 206.894C215.689 207.265 216.241 207.451 216.912 207.451C217.403 207.451 217.852 207.373 218.26 207.217C218.667 207.062 219.039 206.816 219.374 206.48L220.471 207.811C220.099 208.146 219.728 208.416 219.356 208.619C218.985 208.823 218.595 208.973 218.188 209.069C217.792 209.165 217.343 209.213 216.84 209.213ZM218.781 204.27C218.805 204.174 218.817 204.078 218.817 203.982C218.829 203.886 218.835 203.79 218.835 203.694C218.835 203.431 218.787 203.179 218.691 202.939C218.607 202.7 218.475 202.49 218.296 202.31C218.116 202.119 217.894 201.969 217.631 201.861C217.367 201.741 217.067 201.681 216.732 201.681C216.264 201.681 215.869 201.783 215.546 201.987C215.234 202.19 214.988 202.454 214.809 202.778C214.641 203.089 214.539 203.431 214.503 203.802H219.428L218.781 204.27ZM230.568 209.213C230.125 209.213 229.706 209.129 229.31 208.961C228.927 208.781 228.621 208.5 228.393 208.116C228.166 207.721 228.052 207.205 228.052 206.57V198.032L230.065 196.918V206.013C230.065 206.516 230.137 206.906 230.281 207.181C230.437 207.445 230.712 207.577 231.108 207.577C231.228 207.577 231.365 207.565 231.521 207.541C231.689 207.505 231.863 207.463 232.042 207.415V208.961C231.803 209.045 231.557 209.105 231.305 209.141C231.066 209.189 230.82 209.213 230.568 209.213ZM226.362 201.735V200.189H232.042V201.735H226.362ZM237.643 209.213C236.804 209.213 236.049 209.015 235.378 208.619C234.707 208.224 234.18 207.679 233.796 206.984C233.425 206.289 233.239 205.498 233.239 204.611C233.239 203.724 233.425 202.933 233.796 202.238C234.18 201.543 234.701 201.004 235.36 200.621C236.031 200.225 236.792 200.027 237.643 200.027C238.506 200.027 239.261 200.225 239.908 200.621C240.567 201.004 241.088 201.543 241.472 202.238C241.855 202.933 242.047 203.724 242.047 204.611C242.047 205.498 241.855 206.289 241.472 206.984C241.1 207.679 240.579 208.224 239.908 208.619C239.249 209.015 238.494 209.213 237.643 209.213ZM237.661 207.451C238.152 207.451 238.578 207.337 238.937 207.11C239.297 206.882 239.572 206.552 239.764 206.121C239.956 205.69 240.052 205.186 240.052 204.611C240.052 204.024 239.956 203.521 239.764 203.101C239.572 202.67 239.297 202.34 238.937 202.113C238.578 201.885 238.152 201.771 237.661 201.771C237.146 201.771 236.708 201.891 236.349 202.131C235.989 202.358 235.714 202.682 235.522 203.101C235.33 203.521 235.234 204.024 235.234 204.611C235.234 205.186 235.33 205.69 235.522 206.121C235.714 206.552 235.989 206.882 236.349 207.11C236.708 207.337 237.146 207.451 237.661 207.451ZM248.625 209.051V200.189H250.62V209.051H248.625ZM248.535 198.733V196.522H250.71V198.733H248.535ZM256.161 209.213C255.718 209.213 255.299 209.129 254.903 208.961C254.52 208.781 254.214 208.5 253.986 208.116C253.759 207.721 253.645 207.205 253.645 206.57V198.032L255.658 196.918V206.013C255.658 206.516 255.73 206.906 255.874 207.181C256.03 207.445 256.305 207.577 256.701 207.577C256.82 207.577 256.958 207.565 257.114 207.541C257.282 207.505 257.456 207.463 257.635 207.415V208.961C257.396 209.045 257.15 209.105 256.898 209.141C256.659 209.189 256.413 209.213 256.161 209.213ZM251.955 201.735V200.189H257.635V201.735H251.955ZM259.313 209.051V206.786H261.506V209.051H259.313Z" fill="white"/>
</g>
<defs>
<clipPath id="clip0_369_181716">
<rect width="490.068" height="266.123" rx="20.0847" fill="white"/>
</clipPath>
</defs>
</svg>
