<svg width="51" height="26" viewBox="0 0 51 26" fill="none" xmlns="http://www.w3.org/2000/svg">
<path d="M8.5 9.5L8 7L6.5 9.5L5.5 12.5L6.5 14L6 14.5L2.5 19.5L0.5 24V25.5H50.5V25V23.5L49 20L46.5 17L42.5 12.5H42L41.5 11.5L42 10.5L41.5 8L41 7L39.5 5V6L38.5 8L37.5 9H37L30 7L24 6.5L17.5 7.5L14.5 9L10 11L8.5 9.5Z" fill="black"/>
<path d="M17.6389 3.16348C18.4609 3.16348 19.1273 2.49707 19.1273 1.675C19.1273 0.852938 18.4609 0.186523 17.6389 0.186523C16.8168 0.186523 16.1504 0.852938 16.1504 1.675C16.1504 2.49707 16.8168 3.16348 17.6389 3.16348Z" fill="white"/>
<path fill-rule="evenodd" clip-rule="evenodd" d="M25.4896 6.15867C29.7341 6.16022 33.7378 7.08808 37.2843 8.73187C38.6703 7.67728 38.9897 6.01404 38.9897 4.70634C38.9897 4.16398 39.6948 3.95306 39.9901 4.40503C41.1471 6.18277 42.955 9.38873 42.0269 11.5582C46.4321 14.8545 49.6381 19.4405 50.9578 24.6893L50.9724 25.1051L51 25.8885H50.2161H0.78341H0V25.1051V24.6893C0.988302 20.7602 3.03119 17.1987 5.85147 14.27C4.39312 12.1186 6.38178 8.55711 7.62921 6.64679C7.92449 6.19482 8.62956 6.40574 8.62956 6.9481C8.62956 8.17143 8.90677 9.69606 10.0698 10.7507C14.1661 8.01408 19.1669 6.33908 24.5845 6.17241C25.4362 4.86693 26.1971 3.11764 24.8282 1.68127C23.0004 -0.234752 18.7765 1.75856 18.5298 1.87499C18.5235 1.87794 18.5198 1.87969 18.5188 1.88013L18.1391 1.1148C18.344 1.01235 23.1409 -1.32582 25.4489 1.0907C26.4372 2.12721 26.5638 3.64582 25.8105 5.47779C25.7122 5.71599 25.5995 5.94427 25.4896 6.15867ZM6.46812 10.618C6.81419 9.5903 7.36366 8.5633 7.88098 7.71489C7.99145 8.90258 8.39707 10.2914 9.5436 11.331L9.99658 11.7417L10.505 11.4021C14.6973 8.60135 19.8731 6.94207 25.4789 6.94207C29.6127 6.94207 33.5078 7.84493 36.9549 9.44264L37.3831 9.64111L37.7587 9.35533C39.1468 8.29914 39.6171 6.76452 39.738 5.47408C40.2088 6.24738 40.708 7.16992 41.056 8.1073C41.5177 9.35139 41.6485 10.4509 41.3067 11.2501L41.0644 11.8164L41.5576 12.1854C45.8083 15.3662 48.8931 19.7733 50.1778 24.8006L50.1885 25.1051H0.78341V24.7872C1.74517 21.0351 3.70692 17.6264 6.41578 14.8134L6.85622 14.356L6.49994 13.8304C5.98492 13.0707 6.0177 11.9556 6.46812 10.618Z" fill="white"/>
<g clip-path="url(#clip0_1208_73629)">
<path d="M32.872 17.5369C31.4926 17.5369 30.3711 16.4155 30.3711 15.036C30.3711 13.6566 31.4926 12.5352 32.872 12.5352C34.2514 12.5352 35.3729 13.6566 35.3729 15.036C35.3729 16.4155 34.2514 17.5369 32.872 17.5369ZM32.872 13.494C32.0197 13.494 31.33 14.1893 31.33 15.036C31.33 15.8884 32.0253 16.5781 32.872 16.5781C33.7187 16.5781 34.414 15.8828 34.414 15.036C34.414 14.1893 33.7243 13.494 32.872 13.494Z" fill="white"/>
<path d="M33.8986 16.8246C34.3043 16.8246 34.6332 16.4957 34.6332 16.09C34.6332 15.6843 34.3043 15.3555 33.8986 15.3555C33.4929 15.3555 33.1641 15.6843 33.1641 16.09C33.1641 16.4957 33.4929 16.8246 33.8986 16.8246Z" fill="white"/>
</g>
<g clip-path="url(#clip1_1208_73629)">
<path d="M15.9403 18.2C14.5609 18.2 13.4395 17.0785 13.4395 15.6991C13.4395 14.3197 14.5609 13.1982 15.9403 13.1982C17.3198 13.1982 18.4412 14.3197 18.4412 15.6991C18.4412 17.0785 17.3198 18.2 15.9403 18.2ZM15.9403 14.1571C15.088 14.1571 14.3983 14.8524 14.3983 15.6991C14.3983 16.5514 15.0936 17.2412 15.9403 17.2412C16.7871 17.2412 17.4824 16.5458 17.4824 15.6991C17.4824 14.8524 16.7927 14.1571 15.9403 14.1571Z" fill="white"/>
<path d="M16.967 17.4877C17.3727 17.4877 17.7016 17.1588 17.7016 16.7531C17.7016 16.3474 17.3727 16.0186 16.967 16.0186C16.5613 16.0186 16.2324 16.3474 16.2324 16.7531C16.2324 17.1588 16.5613 17.4877 16.967 17.4877Z" fill="white"/>
</g>
<defs>
<clipPath id="clip0_1208_73629">
<rect width="5.00177" height="5.00177" fill="white" transform="translate(30.373 12.5342)"/>
</clipPath>
<clipPath id="clip1_1208_73629">
<rect width="5.00177" height="5.00177" fill="white" transform="translate(13.4395 13.1973)"/>
</clipPath>
</defs>
</svg>
