<svg width="1200" height="301" viewBox="0 0 1200 301" fill="none" xmlns="http://www.w3.org/2000/svg">
<path fill-rule="evenodd" clip-rule="evenodd" d="M33.027 16.8125C20.2707 16.8125 9.92969 27.1535 9.92969 39.9098V90.4352C9.92969 103.191 20.2707 113.532 33.027 113.532H83.5523C96.3086 113.532 106.65 103.191 106.65 90.4352V39.9098C106.65 27.1535 96.3086 16.8125 83.5523 16.8125H33.027ZM68.8169 70.4686H85.6395H85.6437C87.3818 70.4686 88.7924 71.8792 88.7924 73.6173V90.9563C88.7924 92.728 87.2684 94.1554 85.5471 94.105C83.8258 94.0546 82.4949 92.5516 82.4949 90.8261V84.344C82.4949 83.6093 81.5923 83.2692 81.1053 83.8192C75.3662 90.3307 67.0284 94.2268 58.023 94.2268C53.7114 94.2268 49.6055 93.3367 45.8774 91.7288C45.1007 91.3929 44.2358 91.3341 43.4214 91.5525L34.1851 94.0252C33.2069 94.2855 32.3169 93.3913 32.5772 92.4173L34.3992 85.6119C34.7057 84.4825 34.479 83.2692 33.7569 82.3456C29.3067 76.6485 26.8129 69.356 27.3125 61.4758C28.2907 45.9967 40.8688 33.5487 56.3605 32.7301C74.0773 31.798 88.7882 45.9421 88.7924 63.4616C88.7924 65.2417 87.239 66.6733 85.5177 66.6061C83.7964 66.539 82.5075 65.0276 82.4949 63.3063C82.411 49.8843 71.4912 38.9897 58.023 38.9897C44.5549 38.9897 33.5973 49.9221 33.5512 63.3777C33.5092 76.1027 43.3962 86.8713 56.0834 87.8579C64.7025 88.5255 72.7591 84.684 77.6795 78.0465C78.0699 77.5175 77.7047 76.766 77.0455 76.766H68.6867C66.915 76.766 65.4876 75.2463 65.538 73.5207C65.5884 71.7952 67.0914 70.4686 68.8169 70.4686Z" fill="#0E0E0E" fill-opacity="1"/>
<g clip-path="url(#clip0_1587_92931)">
<path fill-rule="evenodd" clip-rule="evenodd" d="M203.304 44.4946V88.5113L200.438 90.0048V92.8397C200.438 92.8397 199.712 95.7014 195.748 95.7014C191.783 95.7014 191.366 92.8397 191.366 92.8397V90.0048H156.178V92.8397C156.178 92.8397 155.453 95.7014 151.498 95.7014C147.543 95.7014 147.116 92.8397 147.116 92.8397V90.0048L144.195 88.4219V44.4946C146.979 41.241 150.452 38.6278 154.37 36.8387C158.288 35.0497 162.556 34.1281 166.874 34.1388H180.68C184.988 34.1377 189.245 35.0639 193.153 36.8526C197.06 38.6412 200.525 41.2493 203.304 44.4946ZM194.041 47.552H153.447C151.603 47.552 150.108 49.0254 150.108 50.8429V67.5303C150.108 69.3479 151.603 70.8213 153.447 70.8213H194.041C195.884 70.8213 197.379 69.3479 197.379 67.5303V50.8429C197.379 49.0254 195.884 47.552 194.041 47.552ZM160.289 38.4762H187.213C187.849 38.4762 188.365 38.9847 188.365 39.612V41.9192C188.365 42.5465 187.849 43.055 187.213 43.055H160.289C159.653 43.055 159.137 42.5465 159.137 41.9192V39.612C159.137 38.9847 159.653 38.4762 160.289 38.4762ZM157.48 85.1499C160.291 85.1499 162.569 82.9037 162.569 80.133C162.569 77.3622 160.291 75.116 157.48 75.116C154.67 75.116 152.391 77.3622 152.391 80.133C152.391 82.9037 154.67 85.1499 157.48 85.1499ZM195.102 80.133C195.102 82.9037 192.823 85.1499 190.013 85.1499C187.202 85.1499 184.924 82.9037 184.924 80.133C184.924 77.3622 187.202 75.116 190.013 75.116C192.823 75.116 195.102 77.3622 195.102 80.133Z" fill="#0E0E0E" fill-opacity="1"/>
</g>
<rect x="128.155" y="19.5499" width="91.2452" height="91.2452" rx="20.3599" stroke="#0E0E0E" stroke-opacity="1" stroke-width="5.47471"/>
<path fill-rule="evenodd" clip-rule="evenodd" d="M240.902 39.9098C240.902 27.1535 251.243 16.8125 264 16.8125H314.525C327.281 16.8125 337.622 27.1535 337.622 39.9098V90.4352C337.622 103.191 327.281 113.532 314.525 113.532H264C251.243 113.532 240.902 103.191 240.902 90.4352V39.9098ZM312.38 80.84C312.609 80.5118 312.843 80.1873 313.091 79.8458C314.985 77.2465 317.338 74.0098 319.896 64.9142C321.617 58.7974 321.418 53.5894 319.309 49.4362C319.297 49.4135 319.286 49.3888 319.275 49.366C320.151 48.9221 321.117 48.148 321.444 47.1671L321.45 47.1462C321.675 46.2298 321.463 45.3476 320.884 44.786C320.358 44.2775 319.596 44.103 318.845 44.3155C317.872 44.5735 317.014 45.8674 316.401 46.9792C316.325 46.8635 316.261 46.7592 316.2 46.6586C315.842 46.0723 315.56 45.6113 313.277 43.4313C310.384 40.6708 304.99 37.5005 295.717 38.0715C286.467 38.6407 276.634 42.7806 273.402 44.1428L272.868 44.3667C271.189 45.0744 269.456 45.8048 267.857 46.5884C267.857 46.3 267.756 46.0856 267.646 45.9376C267.19 45.3248 266.119 45.2129 265.269 45.3134C263.811 45.4842 261.995 46.467 261.497 47.9658C261.37 48.4364 261.38 49.0738 262.012 49.626C260.986 50.1724 259.282 51.4113 258.898 52.7014C258.788 53.033 258.815 53.4011 258.84 53.7304L258.841 53.7487L258.842 53.7649C258.849 53.8577 258.856 53.947 258.858 54.0295C258.862 54.1244 258.851 54.1661 258.824 54.2174C258.665 54.4405 258.483 54.6684 258.29 54.9096L258.233 54.9801C257.97 55.3026 257.699 55.6384 257.476 55.9705C257.133 56.4808 256.666 57.0291 256.168 57.6097L256.165 57.6134C254.749 59.2708 253.145 61.1496 253.627 63.1365C254.002 64.5348 255.952 65.7775 257.158 66.1038C259.644 66.7337 261.815 66.0924 263.656 65.4398C264.013 65.3143 264.351 65.1715 264.707 65.0212L264.754 65.0015C266.372 64.3185 268.046 63.6127 271.459 64.2976C275.577 65.1229 277.72 70.1317 278.035 71.8545C278.296 73.5601 277.866 75.1178 277.139 76.9373C276.995 77.3205 276.785 77.7 276.562 78.1022C276.168 78.8099 275.763 79.5403 275.643 80.4188C275.602 80.7413 275.693 81.079 275.908 81.4111C275.314 81.7032 274.572 81.9802 274.01 81.9025C272.902 81.7469 272.953 81.172 273.283 80.3998C273.366 80.2054 273.663 79.8552 274.055 79.3936C275.216 78.0266 277.206 75.6823 276.921 73.5108C276.539 70.6061 276.414 71.9285 276.414 71.9285C276.414 71.9285 275.702 76.5123 272.717 79.3108C269.733 82.1093 269.894 84.553 270.214 86.3876C270.536 88.2204 273.038 99.1563 273.038 99.1563L274.002 91.1802L274.225 92.4988L274.419 91.5008L275.253 95.2005L277.404 89.4422L277.724 90.5047L278.237 90.9866L280.581 88.1881C280.581 88.1881 281.704 85.5832 282.442 85.6154C283.18 85.6477 284.208 88.4462 284.208 88.4462L285.46 89.1861L289.665 86.1941L291.526 86.2909L294.415 85.1639L295.185 85.8071L326.766 81.079L312.38 80.84ZM300.189 78.0756C299.74 78.8175 299.241 79.6466 299.186 80.5516C298.529 80.6901 297.097 80.7926 298.788 78.4665C300.916 75.5428 299.826 71.9133 299.844 72.6172C299.857 73.1251 299.596 73.8874 299.227 74.9708L299.227 74.9708C299.082 75.3929 298.922 75.8637 298.754 76.3871C298.256 77.9409 296.06 80.138 295.333 80.8343H287.684C287.981 80.234 288.281 79.4987 288.615 78.6806L288.656 78.5822C289.727 75.9488 291.062 72.6703 293.194 71.4788C296.802 69.4601 299.246 70.5245 300.331 72.1922C301.249 73.6038 301.431 75.1463 300.869 76.7741C300.727 77.1839 300.465 77.6184 300.189 78.0756ZM308.794 81.0701C306.741 81.7382 303.704 81.4586 302.07 81.3082L302.063 81.3076C301.254 81.2336 301.173 81.1008 301.131 80.7156C301.084 80.192 301.266 78.9569 301.959 77.8754L301.983 77.8337C302.672 76.7598 303.825 74.9593 302.627 71.2975C302.097 69.6811 300.703 68.4137 298.803 67.8236C297.219 67.331 295.52 67.365 293.938 67.8817C295.52 67.366 297.217 67.3324 298.799 67.8246C300.7 68.4147 302.094 69.6821 302.624 71.2986C303.822 74.9603 302.669 76.7608 301.98 77.8347L301.955 77.8764C301.263 78.9579 301.081 80.193 301.128 80.7167C301.17 81.1018 301.251 81.2346 302.06 81.3086L302.067 81.3092C303.701 81.4597 306.741 81.7395 308.794 81.0701ZM317.792 46.5125C317.882 46.4547 317.987 46.4069 318.099 46.3702C317.988 46.4067 317.885 46.4542 317.795 46.5115C317.152 46.9232 316.894 47.5683 316.815 47.8263L316.743 48.0521L316.74 48.0519L316.812 47.8273C316.891 47.5693 317.149 46.9242 317.792 46.5125ZM316.486 48.0381L316.484 48.0379L316.476 48.0504L316.478 48.0521L316.486 48.0381ZM281.123 42.4438C280.649 42.5984 280.164 42.7592 279.667 42.9267C273.648 44.9492 270.975 46.1236 267.26 47.9905L266.801 48.2204L266.801 48.221L267.263 47.9895C270.978 46.1226 273.651 44.9481 279.67 42.9256C280.166 42.7586 280.65 42.598 281.123 42.4438ZM264.753 46.6683C263.932 46.9362 263.228 47.5044 262.97 47.9696C262.779 48.3111 262.823 48.6223 262.893 48.8234C262.995 49.1175 263.218 49.3603 263.491 49.4742L263.523 49.4894C263.525 49.4894 263.531 49.4931 263.531 49.4931H263.536C263.55 49.4988 263.563 49.5045 263.576 49.5121C263.582 49.5145 263.587 49.5175 263.592 49.5204C263.595 49.5222 263.598 49.5239 263.601 49.5254C263.726 49.5994 263.801 49.7436 263.792 49.8764C263.775 50.0733 263.618 50.1852 263.496 50.2252C263.618 50.1861 263.778 50.0739 263.795 49.8754C263.804 49.7426 263.729 49.5984 263.604 49.5244C263.596 49.5206 263.589 49.5149 263.579 49.5111C263.566 49.5035 263.553 49.4978 263.539 49.4921H263.534C263.534 49.4921 263.528 49.4883 263.526 49.4883L263.494 49.4732C263.221 49.3593 262.998 49.1165 262.896 48.8224C262.826 48.6213 262.782 48.3101 262.973 47.9686C263.231 47.504 263.933 46.9366 264.753 46.6683ZM263.396 50.2567L263.392 50.2577C262.37 50.6315 260.999 51.3525 260.316 52.6502C260.208 52.8563 260.234 53.0247 260.274 53.2812L260.274 53.2839C260.31 53.504 260.35 53.7544 260.301 54.0656C260.216 54.6025 259.417 55.3994 258.534 56.238L258.485 56.2856L258.484 56.2858C258.345 56.4191 258.225 56.5333 258.154 56.6079C256.607 58.139 254.682 61.1823 255.231 63.1706C255.475 64.0567 256.21 64.6562 257.416 64.9503C258.868 65.2671 260.522 65.2463 261.834 64.8915C261.854 64.886 261.875 64.8797 261.897 64.8725C261.876 64.8792 261.856 64.8852 261.837 64.8904C260.525 65.2452 258.871 65.2661 257.419 64.9493C256.213 64.6552 255.478 64.0556 255.234 63.1696C254.685 61.1813 256.61 58.138 258.157 56.6069C258.228 56.5322 258.348 56.418 258.488 56.2847L258.538 56.237C259.42 55.3984 260.219 54.6015 260.304 54.0646C260.353 53.7534 260.313 53.503 260.277 53.2829L260.277 53.2802C260.237 53.0237 260.211 52.8553 260.319 52.6492C261.002 51.3515 262.373 50.6305 263.396 50.2567ZM267.532 62.1079C268.498 61.7916 269.533 61.5797 270.597 61.5797C271.105 61.5797 271.618 61.6271 272.137 61.7353C274.906 62.3158 276.762 65.0384 277.619 66.6075C278.797 68.7647 279.535 71.3659 279.412 72.9368C279.353 73.8133 278.876 75.5949 278.413 77.3195L278.407 77.3418C278.034 78.7318 277.683 80.0395 277.625 80.6246C277.587 80.9908 277.676 81.2848 277.898 81.522C278.252 81.8995 278.967 82.1158 279.759 82.0836C281.264 82.0718 283.663 81.8195 285.125 81.3421C283.663 81.8201 281.262 82.0728 279.756 82.0846C278.964 82.1169 278.249 81.9006 277.894 81.523C277.673 81.2858 277.584 80.9918 277.622 80.6256C277.68 80.0406 278.031 78.733 278.403 77.3431L278.403 77.3431L278.409 77.3205C278.873 75.5959 279.35 73.8144 279.409 72.9378C279.532 71.3669 278.794 68.7657 277.616 66.6085C276.759 65.0394 274.903 62.3169 272.133 61.7363C271.615 61.6281 271.102 61.5807 270.594 61.5807C269.531 61.5807 268.497 61.7922 267.532 62.1079ZM263.313 49.6905C263.328 49.6829 263.349 49.6772 263.372 49.6753L263.377 49.7341C263.368 49.7303 263.358 49.7256 263.348 49.7208L263.348 49.7208C263.343 49.7184 263.338 49.7161 263.333 49.7138C263.328 49.7116 263.323 49.7094 263.319 49.7075L263.313 49.6905Z" fill="#0E0E0E" fill-opacity="1"/>
<rect x="359.128" y="19.5499" width="91.2452" height="91.2452" rx="20.3599" stroke="#0E0E0E" stroke-opacity="1" stroke-width="5.47471"/>
<path d="M379.252 68.3648C380.272 67.0891 381.21 65.1677 380.703 61.5211C380.26 58.3335 378.764 54.7217 377.303 54.3355C375.838 53.9525 375.699 54.8103 374.602 54.5381C373.503 54.2659 372.774 53.3827 372.539 52.1482C372.188 50.3059 372.878 50.0495 372.403 48.9638C371.928 47.878 371.268 48.0648 371.075 46.8999C370.533 43.6838 370.78 40.4203 368.508 45.2444C364.86 52.9902 365.592 60.0365 370.882 66.3357C375.401 71.7138 378.231 69.6436 379.252 68.3648V68.3648Z" fill="#0E0E0E" fill-opacity="1"/>
<path d="M374.153 50.8307C374.306 52.2995 375.222 52.5875 375.881 52.6002C376.543 52.6128 377.373 51.4859 377.373 50.1818C377.373 48.8776 376.98 47.5386 376.09 46.4054C375.199 45.2754 373.092 44.867 373.805 45.9021C375.079 47.7507 374.001 49.3588 374.153 50.8275V50.8307Z" fill="#0E0E0E" fill-opacity="1"/>
<path d="M438.13 66.3345C443.423 60.0353 444.152 52.989 440.504 45.2463C438.232 40.4222 438.479 43.6858 437.937 46.9019C437.74 48.0668 437.081 47.8768 436.609 48.9657C436.133 50.0515 436.824 50.311 436.473 52.1502C436.238 53.3847 435.509 54.2678 434.409 54.5401C433.31 54.8123 433.17 53.9545 431.709 54.3375C430.245 54.7205 428.749 58.3323 428.309 61.523C427.805 65.1696 428.74 67.0879 429.76 68.3667C430.781 69.6424 433.611 71.7157 438.13 66.3377V66.3345Z" fill="#0E0E0E" fill-opacity="1"/>
<path d="M433.137 52.6018C433.8 52.5892 434.712 52.3011 434.864 50.8323C435.017 49.3636 433.939 47.7555 435.213 45.9069C435.926 44.8718 433.819 45.277 432.928 46.4102C432.038 47.5403 431.645 48.8824 431.645 50.1866C431.645 51.4908 432.475 52.6177 433.137 52.605V52.6018Z" fill="#0E0E0E" fill-opacity="1"/>
<path d="M371.566 78.1711L370.409 77.2658C369.801 76.7878 368.901 77.041 368.635 77.7659C368.365 78.4908 368.882 79.2663 369.655 79.3012L371.126 79.3676C371.779 79.3961 372.086 78.5731 371.569 78.1679L371.566 78.1711Z" fill="#0E0E0E" fill-opacity="1"/>
<path d="M370.409 81.85L369.148 81.0935C368.485 80.6946 367.623 81.0587 367.449 81.812C367.272 82.5654 367.88 83.2713 368.653 83.2112L370.121 83.0941C370.774 83.0434 370.973 82.1856 370.412 81.85H370.409Z" fill="#0E0E0E" fill-opacity="1"/>
<path d="M369.726 85.2263L368.392 84.609C367.688 84.283 366.874 84.7356 366.778 85.5048C366.683 86.2709 367.365 86.9103 368.125 86.7679L369.571 86.4956C370.214 86.3753 370.322 85.5017 369.729 85.2263H369.726Z" fill="#0E0E0E" fill-opacity="1"/>
<path d="M369.308 88.6573L367.908 88.2109C367.169 87.9767 366.418 88.5243 366.418 89.2967V89.2967C366.418 90.069 367.172 90.6198 367.908 90.3824L369.308 89.9361C369.929 89.7367 369.929 88.8567 369.308 88.6573V88.6573Z" fill="#0E0E0E" fill-opacity="1"/>
<path d="M440.386 77.7659C440.116 77.041 439.219 76.7878 438.611 77.2658L437.454 78.1711C436.941 78.5731 437.245 79.3993 437.898 79.3708L439.368 79.3043C440.142 79.2695 440.658 78.494 440.389 77.7691L440.386 77.7659Z" fill="#0E0E0E" fill-opacity="1"/>
<path d="M438.896 83.0927L440.364 83.2098C441.137 83.2699 441.742 82.564 441.568 81.8107C441.391 81.0573 440.532 80.6964 439.869 81.0921L438.608 81.8487C438.047 82.1842 438.25 83.042 438.9 83.0927H438.896Z" fill="#0E0E0E" fill-opacity="1"/>
<path d="M439.451 86.4959L440.896 86.7682C441.657 86.9106 442.338 86.2744 442.243 85.5052C442.148 84.7391 441.334 84.2865 440.63 84.6093L439.296 85.2266C438.703 85.502 438.811 86.3725 439.454 86.4959H439.451Z" fill="#0E0E0E" fill-opacity="1"/>
<path d="M439.708 89.9352L441.109 90.3815C441.847 90.6158 442.598 90.0682 442.598 89.2958C442.598 88.5234 441.844 87.9726 441.109 88.21L439.708 88.6564C439.087 88.8558 439.087 89.7358 439.708 89.9352V89.9352Z" fill="#0E0E0E" fill-opacity="1"/>
<path d="M401.04 89.163L384.76 82.4269C383.203 81.7812 381.438 82.6833 381.045 84.3198C380.608 86.1368 380.386 88.0107 380.383 89.9037H401.541C401.537 89.5998 401.369 89.2991 401.037 89.1598L401.04 89.163Z" fill="#0E0E0E" fill-opacity="1"/>
<path d="M402.589 86.9382L395.845 70.6773C395.195 69.1136 393.303 68.5185 391.861 69.4048C388.568 71.4244 385.893 74.153 383.957 77.3058C383.076 78.7397 383.684 80.6231 385.24 81.2689L401.521 88.0049C402.193 88.2835 402.868 87.6093 402.589 86.9382Z" fill="#0E0E0E" fill-opacity="1"/>
<path d="M405.265 86.4583L412.009 70.1974C412.656 68.6432 411.753 66.88 410.111 66.4875C406.508 65.6265 402.686 65.5822 398.927 66.4812C397.279 66.8737 396.363 68.6305 397.009 70.1942L403.754 86.4583C404.032 87.1293 404.983 87.1293 405.262 86.4583H405.265Z" fill="#0E0E0E" fill-opacity="1"/>
<path d="M427.978 84.3442C427.585 82.6982 425.826 81.7834 424.261 82.4291L407.98 89.1652C407.648 89.3013 407.483 89.6052 407.477 89.9091H428.631C428.631 88.0605 428.419 86.196 427.978 84.3442Z" fill="#0E0E0E" fill-opacity="1"/>
<path d="M407.492 88.0016L423.775 81.2655C425.341 80.6166 425.937 78.7269 425.049 77.2866C423.027 73.9977 420.296 71.3261 417.136 69.392C415.7 68.512 413.815 69.1197 413.168 70.674L406.424 86.9348C406.145 87.6059 406.82 88.2802 407.492 88.0016Z" fill="#0E0E0E" fill-opacity="1"/>
<path d="M404.505 63.4297C419.122 63.4297 431.013 75.3064 431.013 89.9054H434.762C434.762 78.627 428.537 68.7761 419.347 63.5848C419.312 63.5436 419.271 63.4962 419.204 63.436C418.44 62.7364 418.849 60.2611 418.849 60.2611H418.843C419.068 59.9604 419.204 59.5868 419.204 59.1817C419.204 58.1687 418.38 57.3457 417.366 57.3457C416.352 57.3457 415.528 58.1687 415.528 59.1817C415.528 60.1946 416.352 61.0176 417.366 61.0176C418.092 61.0619 418.326 62.3408 418.399 63.0751C414.235 60.9132 409.509 59.685 404.502 59.685C399.495 59.685 394.769 60.9132 390.605 63.0751C390.681 62.3408 390.915 61.0588 391.638 61.0176C392.652 61.0176 393.476 60.1946 393.476 59.1817C393.476 58.1687 392.652 57.3457 391.638 57.3457C390.624 57.3457 389.8 58.1687 389.8 59.1817C389.8 59.59 389.936 59.9604 390.161 60.2642H390.155C390.155 60.2642 390.567 62.7396 389.8 63.436C389.737 63.4962 389.692 63.5436 389.657 63.5848C380.463 68.7761 374.242 78.627 374.242 89.9054H377.991C377.991 75.3064 389.882 63.4297 404.499 63.4297H404.505Z" fill="#0E0E0E" fill-opacity="1"/>
<path fill-rule="evenodd" clip-rule="evenodd" d="M494.972 16.8125C482.216 16.8125 471.875 27.1535 471.875 39.9098V90.4352C471.875 103.191 482.216 113.532 494.972 113.532H545.498C558.254 113.532 568.595 103.191 568.595 90.4352V39.9098C568.595 27.1535 558.254 16.8125 545.498 16.8125H494.972ZM538.276 37.183L558.986 81.8511H558.995C562.103 88.5579 557.165 96.2083 549.723 96.2083H541.317C540.618 96.2083 539.953 95.9155 539.483 95.4035L537.843 93.6184C537.026 92.7291 535.616 92.7291 534.8 93.6184L533.16 95.4035C532.69 95.9155 532.024 96.2083 531.326 96.2083H506.117C505.418 96.2083 504.753 95.9155 504.283 95.4035L502.644 93.6184C501.828 92.7291 500.416 92.7291 499.6 93.6184L497.961 95.4035C497.491 95.9155 496.824 96.2083 496.127 96.2083H489.308C481.866 96.2083 476.925 88.5579 480.036 81.8511L500.746 37.183C501.647 35.2417 504.331 35.0096 505.558 36.7644L514.681 49.8244C515.778 51.397 517.584 52.3341 519.51 52.3341C520.474 52.3341 521.408 52.0998 522.238 51.6682C523.067 51.2387 523.793 50.6097 524.341 49.8244L533.464 36.7644C534.691 35.0096 537.375 35.2417 538.276 37.183ZM541.96 89.2672H543.879L543.877 89.2694C546.601 89.2694 548.831 87.764 549.983 85.6622C549.863 85.6144 549.745 85.5602 549.631 85.4908L539.524 79.4C538.713 78.8968 539.286 77.6604 540.198 77.9424C540.198 77.9424 548.291 80.5344 550.75 81.3218C550.652 80.7101 550.471 80.0963 550.191 79.4933L549.314 77.604L538.753 76.4847C537.793 76.3698 537.795 74.9946 538.753 74.8818C538.753 74.8818 543.831 74.3438 547.615 73.9426L546.472 71.4763L538.978 73.8883C538.064 74.1703 537.493 72.9296 538.307 72.4307C538.307 72.4307 542.074 70.1662 545.04 68.3854L536.103 49.1108C535.487 47.779 533.563 47.8267 533.014 49.1867L530.034 56.5595C529.083 58.9129 526.788 60.453 524.234 60.453H514.788C512.234 60.453 509.937 58.9129 508.988 56.5595L506.008 49.1867C505.459 47.8267 503.536 47.779 502.919 49.1108L493.943 68.47L500.315 72.4329C501.12 72.947 500.53 74.1725 499.624 73.8818C499.624 73.8818 495.7 72.5782 492.526 71.524L491.4 73.9534L499.865 74.8796C500.82 74.9967 500.818 76.3676 499.865 76.4826C499.865 76.4826 493.324 77.2005 489.71 77.5953L488.831 79.4933C488.554 80.0898 488.372 80.6993 488.274 81.3066L498.446 77.9445C499.356 77.6561 499.937 78.8838 499.137 79.3935L489.387 85.4778C489.273 85.5472 489.155 85.6058 489.035 85.6535C490.185 87.7597 492.417 89.2672 495.143 89.2672H495.475C496.172 89.2672 496.837 88.9765 497.307 88.4646L499.598 85.9658C500.414 85.0765 501.826 85.0765 502.641 85.9658L504.932 88.4646C505.403 88.9765 506.067 89.2672 506.765 89.2672H530.67C531.368 89.2672 532.032 88.9765 532.502 88.4646L534.794 85.9658C535.609 85.0765 537.019 85.0765 537.837 85.9658L540.128 88.4646C540.598 88.9765 541.262 89.2672 541.96 89.2672ZM509.068 73.9799C510.414 73.9799 511.506 72.8971 511.506 71.5614C511.506 70.2257 510.414 69.1428 509.068 69.1428C507.722 69.1428 506.631 70.2257 506.631 71.5614C506.631 72.8971 507.722 73.9799 509.068 73.9799ZM527.517 71.5615C527.517 70.2253 528.607 69.143 529.954 69.143C531.301 69.143 532.392 70.2253 532.392 71.5615C532.392 72.8977 531.301 73.98 529.954 73.98C528.607 73.98 527.517 72.8977 527.517 71.5615Z" fill="#0E0E0E" fill-opacity="1"/>
<rect x="590.101" y="19.5499" width="244.265" height="91.2452" rx="20.3599" stroke="#0E0E0E" stroke-opacity="1" stroke-width="5.47471"/>
<path d="M617.036 65.5028C617.036 75.4773 625.121 83.5678 635.096 83.5678C641.998 83.5678 647.998 79.6964 651.033 74.002V96.8735H609.016V34.1367H651.033V57.0035C647.998 51.3138 641.998 47.4424 635.096 47.4424C625.121 47.4424 617.036 55.5282 617.036 65.5028Z" fill="#0E0E0E" fill-opacity="1"/>
<path d="M699.358 34.1367V96.8735H695.923L691.291 88.8534C690.276 87.0869 687.72 87.0869 686.7 88.8534L682.068 96.8735H676.449L671.816 88.8534C670.792 87.0869 668.245 87.0869 667.221 88.8534L662.593 96.8735H657.336V34.1367H663.373L676.219 63.1301C677.036 64.9671 679.653 64.9671 680.471 63.1301L693.32 34.1367H699.358Z" fill="#0E0E0E" fill-opacity="1"/>
<path d="M705.661 34.1367V96.8735H713.38V68.3922C713.38 66.7948 714.677 65.5028 716.27 65.5028H737.074C738.671 65.5028 739.963 66.7995 739.963 68.3922V96.8735H747.673V34.1367H705.656H705.661ZM739.193 59.5829C738.709 60.0621 738.047 60.3581 737.314 60.3581H716.03C714.569 60.3581 713.38 59.1694 713.38 57.7035C713.38 56.9706 713.676 56.3081 714.156 55.8289C714.639 55.3497 715.302 55.0537 716.03 55.0537H737.314C738.779 55.0537 739.968 56.2423 739.968 57.7035C739.968 58.4365 739.672 59.0989 739.193 59.5829Z" fill="#0E0E0E" fill-opacity="1"/>
<path fill-rule="evenodd" clip-rule="evenodd" d="M878.964 16.8125C866.208 16.8125 855.867 27.1535 855.867 39.9098V90.4352C855.867 103.191 866.208 113.532 878.964 113.532H929.49C942.246 113.532 952.587 103.191 952.587 90.4352V39.9098C952.587 27.1535 942.246 16.8125 929.49 16.8125H878.964ZM931.411 89.4183V39.4737C931.411 38.7537 931.999 38.1652 932.726 38.1652H933.82V36.8013H909.865C909.097 36.8013 908.384 37.2098 908.003 37.8744L905.615 42.0076C904.791 43.4338 902.734 43.4338 901.904 42.0076L899.515 37.8744C899.134 37.2098 898.428 36.8013 897.66 36.8013H873.705V38.1652H874.799C875.526 38.1652 876.114 38.7537 876.114 39.4737V89.4183C876.114 90.1453 875.526 90.7337 874.799 90.7337H873.705V92.0976H882.795C883.564 92.0976 884.27 91.6891 884.651 91.0245L887.109 86.7805C887.932 85.3474 889.989 85.3474 890.819 86.7805L893.277 91.0245C893.658 91.6891 894.364 92.0976 895.126 92.0976H912.392C913.154 92.0976 913.867 91.6891 914.248 91.0245L916.706 86.7805C917.53 85.3474 919.593 85.3474 920.417 86.7805L922.867 91.0245C923.248 91.6891 923.961 92.0976 924.723 92.0976H933.82V90.7337H932.726C931.999 90.7337 931.411 90.1453 931.411 89.4183Z" fill="#0E0E0E" fill-opacity="1"/>
<path fill-rule="evenodd" clip-rule="evenodd" d="M1081.05 39.3475C1096.55 39.3583 1111.2 42.7464 1124.14 48.7464C1129.22 44.8921 1130.39 38.8141 1130.38 34.021C1130.38 32.042 1132.96 31.2707 1134.04 32.9235C1138.28 39.429 1144.87 51.1397 1141.49 59.0863C1157.6 71.1408 1169.33 87.9223 1174.14 107.108L1174.32 111.496H1159.46C1158.42 114.652 1155.77 121.252 1150.63 125.527C1151.25 128.21 1151.99 132.235 1151.11 133.117C1150.18 134.047 1145.94 131.305 1143.35 129.141C1142.85 129.248 1142.34 129.333 1141.81 129.394C1141.33 129.45 1140.85 129.498 1140.38 129.538C1139.49 132.225 1137.98 135.943 1135.98 135.738C1134 135.535 1132.57 132.052 1131.81 129.184C1130.05 128.818 1128.44 128.244 1127 127.433C1123.65 129.068 1119.43 130.976 1118.64 130.241C1117.71 129.367 1119.31 123.661 1120.76 120.263C1120.48 119.609 1120.22 118.916 1120 118.183C1117.92 117.647 1116.24 117.013 1116.12 116.348C1115.97 115.563 1117.27 113.66 1118.8 111.744C1118.8 111.661 1118.79 111.579 1118.78 111.496H1039.72C1039.73 111.508 1039.74 111.519 1039.74 111.53C1039.75 111.538 1039.76 111.546 1039.76 111.554L1039.78 111.575C1039.79 111.583 1039.79 111.592 1039.8 111.601C1041.38 113.563 1042.75 115.542 1042.6 116.344C1042.48 116.996 1040.85 117.622 1038.8 118.155H1038.8C1038.04 118.349 1037.22 118.539 1036.4 118.706L1036.4 118.708C1037.22 118.539 1038.04 118.352 1038.8 118.158C1038.51 119.235 1038.17 120.224 1037.77 121.145C1039.22 124.543 1040.82 130.256 1039.89 131.127C1039.1 131.86 1034.88 129.948 1031.53 128.319H1031.53C1030.09 129.128 1028.48 129.703 1026.72 130.067C1025.97 132.938 1024.53 136.416 1022.56 136.623C1020.55 136.828 1019.04 133.112 1018.15 130.424C1017.68 130.382 1017.21 130.338 1016.72 130.28C1016.2 130.219 1015.68 130.137 1015.19 130.023C1012.6 132.184 1008.35 134.93 1007.42 134.003C1006.54 133.119 1007.28 129.09 1007.89 126.408C1002.2 121.677 999.565 114.096 998.795 111.496H987.816V107.108C991.426 92.7353 998.908 79.7067 1009.21 69.0098C1003.87 61.1468 1011.16 48.1249 1015.71 41.1325C1016.79 39.4731 1019.37 40.2488 1019.37 42.2299C1019.36 46.6969 1020.37 52.2878 1024.63 56.1399C1039.54 46.172 1057.75 40.0579 1077.46 39.4055C1080.06 34.834 1082.98 27.5394 1078.61 22.9644C1073.3 17.3937 1062.43 20.863 1057.75 22.7338C1057.75 22.8074 1057.76 22.8814 1057.76 22.9558C1057.76 25.9608 1055.32 28.3969 1052.32 28.3969C1049.31 28.3969 1046.87 25.9608 1046.87 22.9558C1046.87 19.9508 1049.31 17.5148 1052.32 17.5148C1054.13 17.5148 1055.73 18.3997 1056.72 19.7608C1062.05 17.6326 1074.27 13.8715 1080.88 20.8025C1084.5 24.5996 1084.96 30.1486 1082.2 36.8502C1081.84 37.7237 1081.45 38.5611 1081.05 39.3475ZM1051.96 99.5387C1058.79 101.489 1066.71 102.554 1075.04 102.554V102.557C1075.96 102.557 1076.89 102.543 1077.82 102.517C1089.4 102.189 1100.08 99.8132 1108.57 95.8465L1112.18 100.348L1115.34 92.0222C1117.56 90.5086 1119.54 88.8528 1121.22 87.0688C1121.7 86.5641 1121.67 85.773 1121.17 85.297C1120.66 84.8209 1119.87 84.843 1119.4 85.3476C1101.48 104.326 1053.72 103.996 1037.25 89.451C1036.73 88.9926 1035.94 89.0433 1035.48 89.5612C1035.02 90.0813 1035.07 90.8724 1035.59 91.3308C1038.11 93.5591 1041.35 95.505 1045.11 97.123L1049.07 103.086L1051.96 99.5387ZM1045.38 80.9941C1039.96 80.9941 1035.56 76.5867 1035.56 71.1677C1035.56 65.7487 1039.96 61.3412 1045.38 61.3412C1050.8 61.3412 1055.21 65.7487 1055.21 71.1677C1055.21 76.5867 1050.8 80.9941 1045.38 80.9941ZM1045.38 65.103C1042.04 65.103 1039.31 67.8246 1039.31 71.1699C1039.31 74.5152 1042.04 77.2368 1045.38 77.2368C1045.97 77.2368 1046.53 77.1533 1047.07 76.9975C1046.73 76.5223 1046.53 75.939 1046.53 75.3086C1046.53 73.7106 1047.82 72.4151 1049.42 72.4151C1050.08 72.4151 1050.68 72.6332 1051.17 73.0008C1051.35 72.4229 1051.45 71.8077 1051.45 71.1699C1051.45 67.8246 1048.73 65.103 1045.38 65.103ZM1104.95 71.066C1104.95 76.485 1109.36 80.8925 1114.78 80.8925C1120.2 80.8925 1124.61 76.4828 1124.61 71.066C1124.61 65.6492 1120.2 61.2417 1114.78 61.2417C1109.36 61.2417 1104.95 65.647 1104.95 71.066ZM1108.71 71.066C1108.71 67.7229 1111.43 65.0013 1114.78 65.0013C1118.12 65.0013 1120.85 67.7207 1120.85 71.066C1120.85 71.7008 1120.75 72.3131 1120.57 72.8886C1120.07 72.4952 1119.45 72.2601 1118.77 72.2601C1117.17 72.2601 1115.87 73.5556 1115.87 75.1536C1115.87 75.8084 1116.09 76.4123 1116.46 76.8972C1115.92 77.0506 1115.36 77.1329 1114.78 77.1329C1111.43 77.1329 1108.71 74.4091 1108.71 71.066Z" fill="#0E0E0E" fill-opacity="1"/>
<rect x="12.667" y="167.108" width="244.265" height="91.2452" rx="20.3599" stroke="#0E0E0E" stroke-opacity="1" stroke-width="5.47471"/>
<path d="M39.6021 213.061C39.6021 223.036 47.6879 231.126 57.6624 231.126C64.5643 231.126 70.5641 227.255 73.5992 221.561V244.432H31.582V181.695H73.5992V204.562C70.5641 198.872 64.5643 195.001 57.6624 195.001C47.6879 195.001 39.6021 203.087 39.6021 213.061Z" fill="#0E0E0E" fill-opacity="1"/>
<path d="M121.924 181.695V244.432H118.49L113.857 236.412C112.842 234.645 110.286 234.645 109.267 236.412L104.634 244.432H99.0151L94.3826 236.412C93.3584 234.645 90.8119 234.645 89.7876 236.412L85.1598 244.432H79.9023V181.695H85.9397L98.7849 210.689C99.6024 212.526 102.219 212.526 103.037 210.689L115.887 181.695H121.924Z" fill="#0E0E0E" fill-opacity="1"/>
<path d="M128.227 181.695V244.432H135.947V215.951C135.947 214.353 137.243 213.061 138.836 213.061H159.64C161.238 213.061 162.53 214.358 162.53 215.951V244.432H170.24V181.695H128.223H128.227ZM161.759 207.141C161.275 207.621 160.613 207.917 159.88 207.917H138.597C137.135 207.917 135.947 206.728 135.947 205.262C135.947 204.529 136.243 203.867 136.722 203.387C137.206 202.908 137.868 202.612 138.597 202.612H159.88C161.346 202.612 162.535 203.801 162.535 205.262C162.535 205.995 162.239 206.658 161.759 207.141Z" fill="#0E0E0E" fill-opacity="1"/>
<path fill-rule="evenodd" clip-rule="evenodd" d="M301.535 164.371C288.779 164.371 278.438 174.712 278.438 187.468V237.994C278.438 250.75 288.779 261.091 301.535 261.091H352.06C364.816 261.091 375.157 250.75 375.157 237.994V187.468C375.157 174.712 364.816 164.371 352.06 164.371H301.535ZM353.982 236.977V187.032C353.982 186.312 354.571 185.724 355.298 185.724H356.391V184.36H332.437C331.668 184.36 330.955 184.768 330.574 185.433L328.186 189.566C327.362 190.992 325.306 190.992 324.475 189.566L322.087 185.433C321.706 184.768 321 184.36 320.231 184.36H296.276V185.724H297.37C298.097 185.724 298.686 186.312 298.686 187.032V236.977C298.686 237.704 298.097 238.292 297.37 238.292H296.276V239.656H305.367C306.135 239.656 306.841 239.248 307.222 238.583L309.68 234.339C310.504 232.906 312.56 232.906 313.391 234.339L315.849 238.583C316.229 239.248 316.936 239.656 317.697 239.656H334.964C335.725 239.656 336.439 239.248 336.819 238.583L339.277 234.339C340.101 232.906 342.164 232.906 342.988 234.339L345.439 238.583C345.82 239.248 346.533 239.656 347.294 239.656H356.391V238.292H355.298C354.571 238.292 353.982 237.704 353.982 236.977Z" fill="#0E0E0E" fill-opacity="1"/>
<g clip-path="url(#clip1_1587_92931)">
<path d="M441.832 266.594C442.64 266.427 443.451 266.243 444.199 266.053C443.914 267.111 443.581 268.082 443.186 268.986C442.673 267.781 442.18 266.877 441.832 266.594Z" fill="#0E0E0E" fill-opacity="1"/>
<path d="M445.195 259.516C445.188 259.552 445.188 259.582 445.182 259.619C445.158 259.582 445.125 259.552 445.102 259.516H445.195Z" fill="#0E0E0E" fill-opacity="1"/>
<path fill-rule="evenodd" clip-rule="evenodd" d="M485.865 188.699C486.259 187.927 486.645 187.104 487 186.245C489.718 179.667 489.266 174.22 485.694 170.493C479.172 163.689 467.128 167.381 461.87 169.47C460.895 168.135 459.313 167.267 457.528 167.267C454.565 167.267 452.162 169.659 452.162 172.608C452.162 175.558 454.565 177.949 457.528 177.949C460.491 177.949 462.893 175.558 462.893 172.608C462.893 172.534 462.892 172.461 462.889 172.388C467.501 170.551 478.218 167.147 483.458 172.615C487.763 177.107 484.885 184.269 482.323 188.756C462.882 189.397 444.931 195.399 430.225 205.183C426.028 201.402 425.029 195.914 425.035 191.529C425.035 189.584 422.495 188.823 421.432 190.452C416.94 197.315 409.754 210.098 415.023 217.816C404.86 228.316 397.482 241.105 393.922 255.213V259.52H404.749C405.507 262.073 408.111 269.514 413.72 274.159C413.115 276.791 412.385 280.746 413.257 281.613C414.172 282.524 418.361 279.828 420.913 277.706C421.402 277.819 421.908 277.899 422.428 277.959C422.903 278.016 423.373 278.059 423.836 278.1C424.714 280.739 426.202 284.386 428.18 284.185C430.125 283.982 431.542 280.568 432.289 277.749C434.019 277.393 435.608 276.828 437.027 276.034H437.033C440.335 277.633 444.498 279.51 445.272 278.79C446.191 277.936 444.609 272.326 443.184 268.991C442.671 267.786 442.175 266.882 441.83 266.598C442.638 266.434 443.449 266.248 444.196 266.057H444.203C446.217 265.534 447.823 264.92 447.947 264.279C448.095 263.492 446.748 261.549 445.185 259.624C445.18 259.617 445.175 259.61 445.169 259.603C445.162 259.594 445.155 259.586 445.148 259.577C445.139 259.566 445.129 259.554 445.12 259.542C445.115 259.535 445.11 259.528 445.105 259.52H577.692C577.741 259.521 577.79 259.521 577.84 259.521C578.743 259.521 579.608 259.533 580.438 259.544C586.893 259.631 591.247 259.69 595.534 254.02C597.941 250.834 599.584 247.896 600.558 245.169C602.746 244.812 611.224 239.767 611.048 238.117C610.912 236.822 604.354 235.164 600.726 234.247L600.726 234.247L600.641 234.225C600.334 233.47 599.956 232.739 599.517 232.025C601.017 229.481 603.216 224.508 601.54 222.738C599.884 220.993 595.11 223.937 592.9 225.319C592.569 225.083 592.23 224.85 591.885 224.618C591.678 221.653 589.966 214.776 588.403 214.888C587.097 214.983 584.883 218.851 583.625 221.265C582.408 221.116 581.197 221.094 580.006 221.181C578.505 218.423 576.751 215.645 575.814 215.747C574.326 215.909 570.562 222.085 569.166 224.458C567.056 225.541 565.42 226.63 564.51 227.278C559.254 220.032 552.822 213.556 545.46 208.075C548.802 200.275 542.296 188.779 538.119 182.394C537.05 180.771 534.512 181.528 534.512 183.471C534.516 188.176 533.362 194.142 528.357 197.925C515.592 192.036 501.151 188.71 485.865 188.699ZM456.285 217.733C455.813 217.733 455.342 217.547 454.994 217.178C454.325 216.468 454.362 215.354 455.074 214.688L461.516 208.676L453.768 207.711C452.799 207.59 452.11 206.71 452.232 205.745C452.354 204.78 453.238 204.095 454.207 204.216L463.776 205.405C464.819 205.535 465.666 206.234 465.992 207.227C466.316 208.222 466.042 209.282 465.275 209.998L457.497 217.258C457.152 217.576 456.717 217.733 456.285 217.733ZM507.394 212.617C507.594 212.69 507.799 212.725 508.001 212.725C508.722 212.725 509.4 212.281 509.665 211.565C510 210.653 509.526 209.64 508.609 209.307L497.839 205.398L505.349 199.631C506.123 199.038 506.266 197.931 505.669 197.161C505.071 196.391 503.961 196.248 503.187 196.843L495.196 202.978C494.27 203.689 493.808 204.844 493.986 205.993C494.164 207.142 494.957 208.104 496.055 208.502L507.394 212.617ZM488.157 251.715C466.036 256.005 465.462 222.01 465.462 222.01L468.62 223.109L471.495 228.552L475.517 222.008L489.306 220.26L494.189 224.265L495.8 218.813L498.696 215.973C498.696 215.973 510.277 247.426 488.157 251.715ZM490.173 240.111C491.705 243.974 485.987 246.819 485.987 246.819C485.987 246.819 481.189 244.991 481.189 241.229C481.189 237.47 485.987 240.721 485.987 240.721C485.987 240.721 488.641 236.25 490.173 240.111Z" fill="#0E0E0E" fill-opacity="1"/>
</g>
<rect x="634.401" y="167.108" width="91.2452" height="91.2452" rx="20.3599" stroke="#0E0E0E" stroke-opacity="1" stroke-width="5.47471"/>
<path d="M654.525 215.921C655.546 214.646 656.484 212.724 655.977 209.078C655.533 205.89 654.037 202.278 652.576 201.892C651.112 201.509 650.972 202.367 649.876 202.095C648.776 201.823 648.047 200.939 647.813 199.705C647.461 197.863 648.152 197.606 647.676 196.52C647.201 195.435 646.542 195.621 646.349 194.457C645.807 191.24 646.054 187.977 643.782 192.801C640.134 200.547 640.866 207.593 646.155 213.892C650.675 219.27 653.505 217.2 654.525 215.921V215.921Z" fill="#0E0E0E" fill-opacity="1"/>
<path d="M649.427 198.387C649.579 199.856 650.495 200.144 651.154 200.157C651.817 200.169 652.647 199.043 652.647 197.738C652.647 196.434 652.254 195.095 651.363 193.962C650.473 192.832 648.365 192.424 649.078 193.459C650.352 195.307 649.275 196.915 649.427 198.384V198.387Z" fill="#0E0E0E" fill-opacity="1"/>
<path d="M713.404 213.891C718.696 207.592 719.425 200.546 715.777 192.803C713.505 187.979 713.752 191.242 713.21 194.459C713.014 195.623 712.355 195.433 711.882 196.522C711.407 197.608 712.098 197.868 711.746 199.707C711.512 200.941 710.783 201.824 709.683 202.097C708.583 202.369 708.444 201.511 706.983 201.894C705.519 202.277 704.023 205.889 703.582 209.08C703.078 212.726 704.013 214.645 705.034 215.923C706.054 217.199 708.884 219.272 713.404 213.894V213.891Z" fill="#0E0E0E" fill-opacity="1"/>
<path d="M708.411 200.158C709.073 200.146 709.986 199.858 710.138 198.389C710.29 196.92 709.212 195.312 710.487 193.464C711.2 192.428 709.092 192.834 708.202 193.967C707.311 195.097 706.918 196.439 706.918 197.743C706.918 199.047 707.748 200.174 708.411 200.162V200.158Z" fill="#0E0E0E" fill-opacity="1"/>
<path d="M646.84 225.728L645.683 224.822C645.074 224.344 644.174 224.598 643.908 225.323C643.639 226.047 644.155 226.823 644.929 226.858L646.399 226.924C647.052 226.953 647.359 226.13 646.843 225.725L646.84 225.728Z" fill="#0E0E0E" fill-opacity="1"/>
<path d="M645.682 229.407L644.421 228.65C643.759 228.251 642.897 228.615 642.722 229.369C642.545 230.122 643.153 230.828 643.927 230.768L645.394 230.651C646.047 230.6 646.247 229.742 645.686 229.407H645.682Z" fill="#0E0E0E" fill-opacity="1"/>
<path d="M644.999 232.783L643.665 232.166C642.961 231.84 642.147 232.292 642.052 233.061C641.957 233.828 642.638 234.467 643.399 234.324L644.844 234.052C645.487 233.932 645.595 233.058 645.002 232.783H644.999Z" fill="#0E0E0E" fill-opacity="1"/>
<path d="M644.582 236.214L643.181 235.768C642.443 235.533 641.691 236.081 641.691 236.853V236.853C641.691 237.626 642.446 238.176 643.181 237.939L644.582 237.493C645.203 237.293 645.203 236.413 644.582 236.214V236.214Z" fill="#0E0E0E" fill-opacity="1"/>
<path d="M715.659 225.323C715.39 224.598 714.493 224.344 713.884 224.822L712.727 225.728C712.214 226.13 712.518 226.956 713.171 226.927L714.642 226.861C715.415 226.826 715.932 226.051 715.662 225.326L715.659 225.323Z" fill="#0E0E0E" fill-opacity="1"/>
<path d="M714.17 230.649L715.637 230.766C716.411 230.827 717.016 230.121 716.842 229.367C716.664 228.614 715.805 228.253 715.143 228.649L713.881 229.405C713.321 229.741 713.523 230.599 714.173 230.649H714.17Z" fill="#0E0E0E" fill-opacity="1"/>
<path d="M714.725 234.053L716.17 234.325C716.93 234.467 717.612 233.831 717.517 233.062C717.422 232.296 716.607 231.843 715.904 232.166L714.569 232.783C713.977 233.059 714.084 233.929 714.728 234.053H714.725Z" fill="#0E0E0E" fill-opacity="1"/>
<path d="M714.982 237.492L716.382 237.938C717.121 238.172 717.872 237.625 717.872 236.852C717.872 236.08 717.118 235.529 716.382 235.767L714.982 236.213C714.36 236.412 714.36 237.292 714.982 237.492V237.492Z" fill="#0E0E0E" fill-opacity="1"/>
<path d="M676.313 236.72L660.033 229.984C658.477 229.338 656.712 230.24 656.319 231.876C655.881 233.693 655.659 235.567 655.656 237.46H676.814C676.811 237.156 676.643 236.856 676.31 236.716L676.313 236.72Z" fill="#0E0E0E" fill-opacity="1"/>
<path d="M677.862 234.495L671.118 218.234C670.468 216.67 668.576 216.075 667.134 216.961C663.842 218.981 661.167 221.71 659.23 224.862C658.349 226.296 658.958 228.18 660.514 228.826L676.794 235.562C677.466 235.84 678.141 235.166 677.862 234.495Z" fill="#0E0E0E" fill-opacity="1"/>
<path d="M680.539 234.015L687.283 217.754C687.929 216.2 687.026 214.437 685.384 214.044C681.781 213.183 677.959 213.139 674.2 214.038C672.552 214.43 671.636 216.187 672.283 217.751L679.027 234.015C679.306 234.686 680.257 234.686 680.536 234.015H680.539Z" fill="#0E0E0E" fill-opacity="1"/>
<path d="M703.252 231.901C702.859 230.255 701.1 229.34 699.534 229.986L683.254 236.722C682.921 236.858 682.756 237.162 682.75 237.466H703.905C703.905 235.617 703.692 233.753 703.252 231.901Z" fill="#0E0E0E" fill-opacity="1"/>
<path d="M682.765 235.558L699.049 228.822C700.614 228.173 701.21 226.283 700.323 224.843C698.301 221.554 695.569 218.883 692.409 216.949C690.974 216.069 689.088 216.676 688.441 218.231L681.697 234.491C681.418 235.163 682.093 235.837 682.765 235.558Z" fill="#0E0E0E" fill-opacity="1"/>
<path d="M679.779 210.986C694.395 210.986 706.286 222.863 706.286 237.462H710.035C710.035 226.184 703.811 216.333 694.62 211.141C694.585 211.1 694.544 211.053 694.477 210.993C693.714 210.293 694.122 207.818 694.122 207.818H694.116C694.341 207.517 694.477 207.143 694.477 206.738C694.477 205.725 693.653 204.902 692.639 204.902C691.625 204.902 690.801 205.725 690.801 206.738C690.801 207.751 691.625 208.574 692.639 208.574C693.365 208.619 693.6 209.897 693.672 210.632C689.508 208.47 684.783 207.242 679.775 207.242C674.768 207.242 670.043 208.47 665.878 210.632C665.954 209.897 666.189 208.615 666.911 208.574C667.926 208.574 668.75 207.751 668.75 206.738C668.75 205.725 667.926 204.902 666.911 204.902C665.897 204.902 665.073 205.725 665.073 206.738C665.073 207.147 665.21 207.517 665.435 207.821H665.428C665.428 207.821 665.84 210.296 665.073 210.993C665.01 211.053 664.966 211.1 664.931 211.141C655.737 216.333 649.516 226.184 649.516 237.462H653.265C653.265 222.863 665.156 210.986 679.772 210.986H679.779Z" fill="#0E0E0E" fill-opacity="1"/>
<path fill-rule="evenodd" clip-rule="evenodd" d="M770.25 164.371C757.493 164.371 747.152 174.712 747.152 187.468V237.994C747.152 250.75 757.493 261.091 770.25 261.091H820.775C833.531 261.091 843.872 250.75 843.872 237.994V187.468C843.872 174.712 833.531 164.371 820.775 164.371H770.25ZM813.556 184.742L834.266 229.41H834.275C837.383 236.117 832.445 243.767 825.003 243.767H816.597C815.898 243.767 815.233 243.474 814.763 242.962L813.123 241.177C812.306 240.288 810.896 240.288 810.08 241.177L808.441 242.962C807.97 243.474 807.304 243.767 806.606 243.767H781.397C780.698 243.767 780.033 243.474 779.563 242.962L777.924 241.177C777.108 240.288 775.696 240.288 774.88 241.177L773.241 242.962C772.771 243.474 772.104 243.767 771.407 243.767H764.588C757.146 243.767 752.205 236.117 755.316 229.41L776.026 184.742C776.927 182.8 779.611 182.568 780.838 184.323L789.961 197.383C791.058 198.956 792.864 199.893 794.79 199.893C795.754 199.893 796.688 199.658 797.518 199.227C798.347 198.797 799.073 198.168 799.621 197.383L808.744 184.323C809.971 182.568 812.655 182.8 813.556 184.742ZM817.24 236.826H819.159L819.157 236.828C821.881 236.828 824.111 235.323 825.263 233.221C825.143 233.173 825.025 233.119 824.911 233.049L814.804 226.959C813.993 226.455 814.566 225.219 815.478 225.501C815.478 225.501 823.571 228.093 826.031 228.88C825.932 228.269 825.751 227.655 825.471 227.052L824.594 225.163L814.033 224.043C813.073 223.928 813.075 222.553 814.033 222.44C814.033 222.44 819.111 221.902 822.896 221.501L821.752 219.035L814.258 221.447C813.344 221.729 812.774 220.488 813.587 219.989C813.587 219.989 817.354 217.725 820.32 215.944L811.383 196.669C810.767 195.338 808.843 195.385 808.294 196.745L805.314 204.118C804.363 206.472 802.068 208.012 799.514 208.012H790.068C787.514 208.012 785.217 206.472 784.268 204.118L781.288 196.745C780.739 195.385 778.816 195.338 778.199 196.669L769.223 216.029L775.595 219.992C776.4 220.506 775.81 221.731 774.905 221.44C774.905 221.44 770.98 220.137 767.806 219.083L766.68 221.512L775.145 222.438C776.1 222.555 776.098 223.926 775.145 224.041C775.145 224.041 768.604 224.759 764.99 225.154L764.111 227.052C763.834 227.648 763.652 228.258 763.554 228.865L773.726 225.503C774.636 225.215 775.217 226.442 774.417 226.952L764.667 233.036C764.553 233.106 764.435 233.164 764.315 233.212C765.465 235.318 767.697 236.826 770.423 236.826H770.755C771.453 236.826 772.117 236.535 772.587 236.023L774.878 233.524C775.694 232.635 777.106 232.635 777.921 233.524L780.213 236.023C780.683 236.535 781.347 236.826 782.045 236.826H805.95C806.648 236.826 807.312 236.535 807.782 236.023L810.074 233.524C810.889 232.635 812.299 232.635 813.117 233.524L815.408 236.023C815.878 236.535 816.542 236.826 817.24 236.826ZM784.351 221.534C785.697 221.534 786.789 220.452 786.789 219.116C786.789 217.78 785.697 216.697 784.351 216.697C783.005 216.697 781.913 217.78 781.913 219.116C781.913 220.452 783.005 221.534 784.351 221.534ZM802.802 219.116C802.802 217.78 803.893 216.697 805.24 216.697C806.587 216.697 807.677 217.78 807.677 219.116C807.677 220.452 806.587 221.534 805.24 221.534C803.893 221.534 802.802 220.452 802.802 219.116Z" fill="#0E0E0E" fill-opacity="1"/>
<g clip-path="url(#clip2_1587_92931)">
<path fill-rule="evenodd" clip-rule="evenodd" d="M940.515 192.053V236.07L937.648 237.563V240.398C937.648 240.398 936.923 243.26 932.959 243.26C928.994 243.26 928.577 240.398 928.577 240.398V237.563H893.389V240.398C893.389 240.398 892.664 243.26 888.709 243.26C884.754 243.26 884.327 240.398 884.327 240.398V237.563L881.406 235.981V192.053C884.19 188.8 887.663 186.186 891.581 184.397C895.499 182.608 899.767 181.687 904.085 181.697H917.891C922.199 181.696 926.456 182.623 930.364 184.411C934.271 186.2 937.736 188.808 940.515 192.053ZM931.255 195.108H890.661C888.817 195.108 887.323 196.582 887.323 198.399V215.086C887.323 216.904 888.817 218.377 890.661 218.377H931.255C933.099 218.377 934.593 216.904 934.593 215.086V198.399C934.593 196.582 933.099 195.108 931.255 195.108ZM897.503 186.032H924.427C925.063 186.032 925.579 186.541 925.579 187.168V189.475C925.579 190.103 925.063 190.611 924.427 190.611H897.503C896.867 190.611 896.351 190.103 896.351 189.475V187.168C896.351 186.541 896.867 186.032 897.503 186.032ZM894.695 232.706C897.505 232.706 899.784 230.46 899.784 227.689C899.784 224.918 897.505 222.672 894.695 222.672C891.884 222.672 889.605 224.918 889.605 227.689C889.605 230.46 891.884 232.706 894.695 232.706ZM932.316 227.689C932.316 230.46 930.038 232.706 927.227 232.706C924.417 232.706 922.138 230.46 922.138 227.689C922.138 224.918 924.417 222.672 927.227 222.672C930.038 222.672 932.316 224.918 932.316 227.689Z" fill="#0E0E0E" fill-opacity="1"/>
</g>
<rect x="865.374" y="167.108" width="91.2452" height="91.2452" rx="20.3599" stroke="#0E0E0E" stroke-opacity="1" stroke-width="5.47471"/>
<path fill-rule="evenodd" clip-rule="evenodd" d="M978.125 187.468C978.125 174.712 988.466 164.371 1001.22 164.371H1051.75C1064.5 164.371 1074.84 174.712 1074.84 187.468V237.994C1074.84 250.75 1064.5 261.091 1051.75 261.091H1001.22C988.466 261.091 978.125 250.75 978.125 237.994V187.468ZM1049.61 228.396C1049.83 228.068 1050.07 227.743 1050.32 227.402C1052.21 224.802 1054.56 221.566 1057.12 212.47C1058.84 206.353 1058.64 201.145 1056.53 196.992C1056.53 196.981 1056.52 196.969 1056.52 196.957C1056.51 196.945 1056.51 196.933 1056.5 196.922C1057.38 196.478 1058.34 195.704 1058.67 194.723L1058.68 194.702C1058.9 193.786 1058.69 192.903 1058.11 192.342C1057.58 191.833 1056.82 191.659 1056.07 191.871C1055.1 192.129 1054.24 193.423 1053.63 194.535C1053.55 194.419 1053.49 194.315 1053.43 194.214C1053.07 193.628 1052.79 193.167 1050.5 190.987C1047.61 188.227 1042.22 185.056 1032.94 185.627C1023.69 186.197 1013.86 190.336 1010.63 191.699L1010.09 191.923C1008.41 192.63 1006.68 193.361 1005.08 194.144C1005.08 193.856 1004.98 193.641 1004.87 193.493C1004.42 192.881 1003.34 192.769 1002.49 192.869C1001.04 193.04 999.221 194.023 998.723 195.522C998.596 195.992 998.605 196.63 999.238 197.182C998.212 197.728 996.508 198.967 996.123 200.257C996.014 200.589 996.041 200.957 996.065 201.286L996.067 201.305L996.068 201.321C996.075 201.414 996.082 201.503 996.084 201.585C996.087 201.68 996.076 201.722 996.05 201.773C995.891 201.996 995.709 202.224 995.516 202.465L995.515 202.465L995.459 202.536C995.196 202.858 994.925 203.194 994.702 203.526C994.359 204.037 993.891 204.585 993.393 205.166L993.39 205.169C991.975 206.827 990.37 208.705 990.853 210.692C991.228 212.091 993.178 213.333 994.384 213.66C996.869 214.29 999.041 213.648 1000.88 212.996C1001.24 212.87 1001.58 212.727 1001.93 212.577L1001.93 212.577L1001.98 212.557C1003.6 211.874 1005.27 211.169 1008.68 211.853C1012.8 212.679 1014.95 217.688 1015.26 219.41C1015.52 221.116 1015.09 222.674 1014.36 224.493C1014.22 224.876 1014.01 225.256 1013.79 225.658C1013.39 226.366 1012.99 227.096 1012.87 227.975C1012.83 228.297 1012.92 228.635 1013.13 228.967C1012.54 229.259 1011.8 229.536 1011.24 229.458C1010.13 229.303 1010.18 228.728 1010.51 227.956C1010.59 227.761 1010.89 227.411 1011.28 226.949C1012.44 225.582 1014.43 223.238 1014.15 221.067C1013.76 218.162 1013.64 219.484 1013.64 219.484C1013.64 219.484 1012.93 224.068 1009.94 226.867C1006.96 229.665 1007.12 232.109 1007.44 233.943C1007.76 235.776 1010.26 246.712 1010.26 246.712L1011.23 238.736L1011.45 240.055L1011.64 239.057L1012.48 242.756L1014.63 236.998L1014.95 238.061L1015.46 238.542L1017.81 235.744C1017.81 235.744 1018.93 233.139 1019.67 233.171C1020.41 233.204 1021.43 236.002 1021.43 236.002L1022.69 236.742L1026.89 233.75L1028.75 233.847L1031.64 232.72L1032.41 233.363L1063.99 228.635L1049.61 228.396ZM1037.41 225.631C1036.97 226.373 1036.47 227.202 1036.41 228.107C1035.75 228.246 1034.32 228.348 1036.01 226.022C1038.14 223.099 1037.05 219.469 1037.07 220.173C1037.08 220.681 1036.82 221.443 1036.45 222.527C1036.31 222.949 1036.15 223.419 1035.98 223.943C1035.48 225.497 1033.29 227.694 1032.56 228.39H1024.91C1025.21 227.79 1025.51 227.055 1025.84 226.236L1025.84 226.236L1025.88 226.138C1026.95 223.505 1028.29 220.226 1030.42 219.035C1034.03 217.016 1036.47 218.08 1037.56 219.748C1038.47 221.16 1038.66 222.702 1038.09 224.33C1037.95 224.74 1037.69 225.174 1037.41 225.631ZM1047.41 227.866L1047.34 227.929C1045.57 229.443 1041.34 229.053 1039.29 228.865L1039.29 228.864C1038.48 228.79 1038.4 228.658 1038.35 228.272C1038.32 227.915 1038.4 227.228 1038.67 226.483C1038.4 227.227 1038.32 227.915 1038.35 228.271C1038.4 228.657 1038.48 228.789 1039.29 228.863L1039.29 228.864C1041.34 229.052 1045.57 229.442 1047.34 227.928L1047.41 227.865C1048.98 226.52 1051.03 224.76 1053.45 219.089C1051.03 224.76 1048.98 226.521 1047.41 227.866ZM1054.76 196.785L1054.85 196.649C1055.03 196.396 1055.26 196.12 1055.5 195.83L1055.5 195.829L1055.53 195.799C1055.88 195.385 1056.42 194.744 1056.56 194.364C1056.42 194.744 1055.88 195.384 1055.53 195.798L1055.5 195.828C1055.26 196.119 1055.03 196.395 1054.85 196.648L1054.75 196.784L1054.76 196.785ZM1040.02 223.831C1040.43 222.719 1040.6 221.153 1039.85 218.854C1039.32 217.238 1037.93 215.971 1036.02 215.38C1033.54 214.608 1030.78 215.13 1028.62 216.777C1027.05 217.978 1026.04 219.687 1025.36 221.427C1026.04 219.686 1027.05 217.977 1028.62 216.776C1030.78 215.129 1033.54 214.607 1036.03 215.379C1037.93 215.97 1039.32 217.237 1039.85 218.853C1040.6 221.153 1040.43 222.719 1040.02 223.831ZM1023.63 228.021C1023.61 228.055 1023.6 228.087 1023.59 228.117C1023.23 229.1 1019.17 229.623 1016.98 229.64C1016.19 229.673 1015.47 229.456 1015.12 229.079C1014.9 228.842 1014.81 228.548 1014.85 228.181C1014.91 227.596 1015.26 226.289 1015.63 224.899L1015.63 224.899L1015.63 224.876C1016.1 223.152 1016.58 221.37 1016.63 220.494C1016.76 218.923 1016.02 216.322 1014.84 214.164C1013.98 212.595 1012.13 209.873 1009.36 209.292C1008.84 209.184 1008.33 209.137 1007.82 209.137C1004.96 209.137 1002.31 210.666 1000.63 211.639C999.967 212.024 999.393 212.356 999.06 212.447C997.748 212.802 996.093 212.823 994.641 212.506C993.435 212.212 992.701 211.612 992.456 210.726C992.256 210.002 992.385 209.138 992.704 208.257C992.385 209.137 992.257 210.001 992.457 210.725C992.701 211.611 993.435 212.211 994.641 212.505C996.094 212.822 997.748 212.801 999.06 212.446C999.393 212.355 999.967 212.023 1000.63 211.638C1002.31 210.665 1004.96 209.136 1007.82 209.136C1008.33 209.136 1008.84 209.183 1009.36 209.291C1012.13 209.872 1013.98 212.594 1014.84 214.163C1016.02 216.321 1016.76 218.922 1016.63 220.493C1016.58 221.369 1016.1 223.151 1015.64 224.875L1015.63 224.898C1015.26 226.288 1014.91 227.595 1014.85 228.18C1014.81 228.547 1014.9 228.841 1015.12 229.078C1015.47 229.455 1016.19 229.672 1016.98 229.639C1019.17 229.622 1023.23 229.099 1023.59 228.116C1023.6 228.086 1023.61 228.054 1023.63 228.021ZM997.494 201.751C997.509 201.706 997.52 201.662 997.527 201.62C997.576 201.309 997.536 201.059 997.5 200.839L997.5 200.836C997.466 200.617 997.442 200.462 997.503 200.293C997.442 200.462 997.466 200.617 997.499 200.837L997.5 200.84C997.536 201.06 997.576 201.31 997.526 201.621C997.52 201.663 997.509 201.706 997.494 201.751ZM1001 197.528C1001.01 197.498 1001.01 197.466 1001.02 197.431C1001.03 197.298 1000.95 197.154 1000.83 197.08C1000.82 197.076 1000.81 197.071 1000.8 197.067C1000.79 197.059 1000.78 197.054 1000.76 197.048H1000.76C1000.76 197.048 1000.75 197.044 1000.75 197.044L1000.72 197.029C1000.44 196.915 1000.22 196.672 1000.12 196.378C1000.06 196.21 1000.02 195.965 1000.12 195.69C1000.02 195.966 1000.06 196.211 1000.12 196.379C1000.22 196.673 1000.44 196.916 1000.72 197.03L1000.75 197.045C1000.75 197.045 1000.75 197.046 1000.75 197.046C1000.75 197.047 1000.76 197.049 1000.76 197.049H1000.76C1000.78 197.055 1000.79 197.06 1000.8 197.068C1000.81 197.07 1000.81 197.073 1000.82 197.076C1000.82 197.078 1000.82 197.08 1000.83 197.081C1000.95 197.155 1001.03 197.299 1001.02 197.432C1001.01 197.467 1001.01 197.499 1001 197.528ZM1054.04 195.383L1054.04 195.382C1054.05 195.351 1054.06 195.314 1054.07 195.273C1054.06 195.315 1054.05 195.352 1054.04 195.383ZM1000.54 197.246C1000.55 197.239 1000.57 197.233 1000.6 197.231L1000.6 197.29C1000.59 197.286 1000.58 197.281 1000.57 197.277C1000.56 197.272 1000.55 197.267 1000.54 197.263L1000.54 197.246Z" fill="#0E0E0E" fill-opacity="1"/>
<path fill-rule="evenodd" clip-rule="evenodd" d="M1116.71 164.371C1103.95 164.371 1093.61 174.712 1093.61 187.468V237.994C1093.61 250.75 1103.95 261.091 1116.71 261.091H1167.24C1179.99 261.091 1190.33 250.75 1190.33 237.994V187.468C1190.33 174.712 1179.99 164.371 1167.24 164.371H1116.71ZM1152.5 218.027H1169.33H1169.33C1171.07 218.027 1172.48 219.438 1172.48 221.176V238.515C1172.48 240.287 1170.96 241.714 1169.23 241.664C1167.51 241.613 1166.18 240.11 1166.18 238.385V231.903C1166.18 231.168 1165.28 230.828 1164.79 231.378C1159.05 237.889 1150.72 241.785 1141.71 241.785C1137.4 241.785 1133.29 240.895 1129.56 239.287C1128.79 238.952 1127.92 238.893 1127.11 239.111L1117.87 241.584C1116.89 241.844 1116 240.95 1116.26 239.976L1118.09 233.17C1118.39 232.041 1118.17 230.828 1117.44 229.904C1112.99 224.207 1110.5 216.915 1111 209.034C1111.98 193.555 1124.56 181.107 1140.05 180.289C1157.76 179.357 1172.48 193.501 1172.48 211.02C1172.48 212.8 1170.93 214.232 1169.21 214.165C1167.48 214.098 1166.2 212.586 1166.18 210.865C1166.1 197.443 1155.18 186.548 1141.71 186.548C1128.24 186.548 1117.28 197.481 1117.24 210.936C1117.2 223.661 1127.08 234.43 1139.77 235.417C1148.39 236.084 1156.45 232.243 1161.37 225.605C1161.76 225.076 1161.39 224.325 1160.73 224.325H1152.37C1150.6 224.325 1149.18 222.805 1149.23 221.079C1149.28 219.354 1150.78 218.027 1152.5 218.027Z" fill="#0E0E0E" fill-opacity="1"/>
<defs>
<clipPath id="clip0_1587_92931">
<rect width="59.1087" height="61.5716" fill="white" transform="translate(144.191 34.1367)"/>
</clipPath>
<clipPath id="clip1_1587_92931">
<rect width="218.977" height="119.817" fill="white" transform="translate(393.922 164.371)"/>
</clipPath>
<clipPath id="clip2_1587_92931">
<rect width="59.1087" height="61.5716" fill="white" transform="translate(881.41 181.695)"/>
</clipPath>
</defs>
</svg>
